<?xml version="1.0" encoding="utf-8" standalone="no"?>
<!DOCTYPE svg PUBLIC "-//W3C//DTD SVG 1.1//EN"
  "http://www.w3.org/Graphics/SVG/1.1/DTD/svg11.dtd">
<svg xmlns:xlink="http://www.w3.org/1999/xlink" width="216pt" height="57.6pt" viewBox="0 0 216 57.6" xmlns="http://www.w3.org/2000/svg" version="1.1">
 <metadata>
  <rdf:RDF xmlns:dc="http://purl.org/dc/elements/1.1/" xmlns:cc="http://creativecommons.org/ns#" xmlns:rdf="http://www.w3.org/1999/02/22-rdf-syntax-ns#">
   <cc:Work>
    <dc:type rdf:resource="http://purl.org/dc/dcmitype/StillImage"/>
    <dc:date>2024-07-04T15:18:09.811241</dc:date>
    <dc:format>image/svg+xml</dc:format>
    <dc:creator>
     <cc:Agent>
      <dc:title>Matplotlib v3.8.0, https://matplotlib.org/</dc:title>
     </cc:Agent>
    </dc:creator>
   </cc:Work>
  </rdf:RDF>
 </metadata>
 <defs>
  <style type="text/css">*{stroke-linejoin: round; stroke-linecap: butt}</style>
 </defs>
 <g id="figure_1">
  <g id="patch_1">
   <path d="M 0 57.6 
L 216 57.6 
L 216 0 
L 0 0 
L 0 57.6 
z
" style="fill: none"/>
  </g>
  <g id="axes_1">
   <g id="patch_2">
    <path d="M 30.23399 43.027104 
L 83.040498 43.027104 
L 83.040498 3.00024 
L 30.23399 3.00024 
L 30.23399 43.027104 
z
" style="fill: none"/>
   </g>
   <g id="patch_3">
    <path d="M 32.634286 43.027104 
L 32.634286 43.027104 
L 33.613998 43.027104 
L 33.613998 43.027104 
L 34.593711 43.027104 
L 34.593711 43.027104 
L 35.573424 43.027104 
L 35.573424 43.027104 
L 36.553136 43.027104 
L 36.553136 43.027104 
L 37.532849 43.027104 
L 37.532849 43.027104 
L 38.512561 43.027104 
L 38.512561 43.027104 
L 39.492274 43.027104 
L 39.492274 43.027104 
L 40.471986 43.027104 
L 40.471986 43.027104 
L 41.451699 43.027104 
L 41.451699 43.027104 
L 42.431412 43.027104 
L 42.431412 43.027104 
L 43.411124 43.027104 
L 43.411124 43.027104 
L 44.390837 43.027104 
L 44.390837 43.027104 
L 45.370549 43.027104 
L 45.370549 43.027104 
L 46.350262 43.027104 
L 46.350262 43.027104 
L 47.329975 43.027104 
L 47.329975 43.027104 
L 48.309687 43.027104 
L 48.309687 43.027104 
L 49.2894 43.027104 
L 49.2894 43.027104 
L 50.269112 43.027104 
L 50.269112 43.027104 
L 51.248825 43.027104 
L 51.248825 43.027104 
L 52.228537 43.027104 
L 52.228537 43.027104 
L 53.20825 43.027104 
L 53.20825 43.027104 
L 54.187963 43.027104 
L 54.187963 43.027104 
L 55.167675 43.027104 
L 55.167675 43.027104 
L 56.147388 43.027104 
L 56.147388 43.027104 
L 57.1271 43.027104 
L 57.1271 43.027104 
L 58.106813 43.027104 
L 58.106813 38.447324 
L 59.086525 38.447324 
L 59.086525 36.64164 
L 60.066238 36.64164 
L 60.066238 37.27716 
L 61.045951 37.27716 
L 61.045951 37.707565 
L 62.025663 37.707565 
L 62.025663 37.428475 
L 63.005376 37.428475 
L 63.005376 37.25026 
L 63.985088 37.25026 
L 63.985088 36.903918 
L 64.964801 36.903918 
L 64.964801 37.179647 
L 65.944514 37.179647 
L 65.944514 37.791629 
L 66.924226 37.791629 
L 66.924226 37.626865 
L 67.903939 37.626865 
L 67.903939 38.48095 
L 68.883651 38.48095 
L 68.883651 39.140008 
L 69.863364 39.140008 
L 69.863364 39.923479 
L 70.843076 39.923479 
L 70.843076 40.528737 
L 71.822789 40.528737 
L 71.822789 41.147444 
L 72.802502 41.147444 
L 72.802502 41.571124 
L 73.782214 41.571124 
L 73.782214 41.964541 
L 74.761927 41.964541 
L 74.761927 42.206644 
L 75.741639 42.206644 
L 75.741639 42.428572 
L 76.721352 42.428572 
L 76.721352 42.49246 
L 77.701065 42.49246 
L 77.701065 42.69085 
L 78.680777 42.69085 
L 78.680777 42.771551 
L 79.66049 42.771551 
L 79.66049 42.785001 
L 80.640202 42.785001 
L 80.640202 43.027104 
L 79.66049 43.027104 
L 79.66049 43.027104 
L 78.680777 43.027104 
L 78.680777 43.027104 
L 77.701065 43.027104 
L 77.701065 43.027104 
L 76.721352 43.027104 
L 76.721352 43.027104 
L 75.741639 43.027104 
L 75.741639 43.027104 
L 74.761927 43.027104 
L 74.761927 43.027104 
L 73.782214 43.027104 
L 73.782214 43.027104 
L 72.802502 43.027104 
L 72.802502 43.027104 
L 71.822789 43.027104 
L 71.822789 43.027104 
L 70.843076 43.027104 
L 70.843076 43.027104 
L 69.863364 43.027104 
L 69.863364 43.027104 
L 68.883651 43.027104 
L 68.883651 43.027104 
L 67.903939 43.027104 
L 67.903939 43.027104 
L 66.924226 43.027104 
L 66.924226 43.027104 
L 65.944514 43.027104 
L 65.944514 43.027104 
L 64.964801 43.027104 
L 64.964801 43.027104 
L 63.985088 43.027104 
L 63.985088 43.027104 
L 63.005376 43.027104 
L 63.005376 43.027104 
L 62.025663 43.027104 
L 62.025663 43.027104 
L 61.045951 43.027104 
L 61.045951 43.027104 
L 60.066238 43.027104 
L 60.066238 43.027104 
L 59.086525 43.027104 
L 59.086525 43.027104 
L 58.106813 43.027104 
L 58.106813 43.027104 
L 57.1271 43.027104 
L 57.1271 43.027104 
L 56.147388 43.027104 
L 56.147388 43.027104 
L 55.167675 43.027104 
L 55.167675 43.027104 
L 54.187963 43.027104 
L 54.187963 43.027104 
L 53.20825 43.027104 
L 53.20825 43.027104 
L 52.228537 43.027104 
L 52.228537 43.027104 
L 51.248825 43.027104 
L 51.248825 43.027104 
L 50.269112 43.027104 
L 50.269112 43.027104 
L 49.2894 43.027104 
L 49.2894 43.027104 
L 48.309687 43.027104 
L 48.309687 43.027104 
L 47.329975 43.027104 
L 47.329975 43.027104 
L 46.350262 43.027104 
L 46.350262 43.027104 
L 45.370549 43.027104 
L 45.370549 43.027104 
L 44.390837 43.027104 
L 44.390837 43.027104 
L 43.411124 43.027104 
L 43.411124 43.027104 
L 42.431412 43.027104 
L 42.431412 43.027104 
L 41.451699 43.027104 
L 41.451699 43.027104 
L 40.471986 43.027104 
L 40.471986 43.027104 
L 39.492274 43.027104 
L 39.492274 43.027104 
L 38.512561 43.027104 
L 38.512561 43.027104 
L 37.532849 43.027104 
L 37.532849 43.027104 
L 36.553136 43.027104 
L 36.553136 43.027104 
L 35.573424 43.027104 
L 35.573424 43.027104 
L 34.593711 43.027104 
L 34.593711 43.027104 
L 33.613998 43.027104 
L 33.613998 43.027104 
z
" clip-path="url(#p0a33f0bae6)" style="fill: #8abc53; opacity: 0.5"/>
   </g>
   <g id="matplotlib.axis_1">
    <g id="xtick_1">
     <g id="line2d_1">
      <defs>
       <path id="mf0383534d7" d="M 0 0 
L 0 3.5 
" style="stroke: #000000; stroke-width: 0.8"/>
      </defs>
      <g>
       <use xlink:href="#mf0383534d7" x="32.634286" y="43.027104" style="stroke: #000000; stroke-width: 0.8"/>
      </g>
     </g>
     <g id="text_1">
      <!-- $\mathdefault{−100}$ -->
      <g transform="translate(26.984286 53.60601) scale(0.05 -0.05)">
       <defs>
        <path id="ArialMT-2212" d="M 3381 1997 
L 356 1997 
L 356 2522 
L 3381 2522 
L 3381 1997 
z
" transform="scale(0.015625)"/>
        <path id="ArialMT-31" d="M 2384 0 
L 1822 0 
L 1822 3584 
Q 1619 3391 1289 3197 
Q 959 3003 697 2906 
L 697 3450 
Q 1169 3672 1522 3987 
Q 1875 4303 2022 4600 
L 2384 4600 
L 2384 0 
z
" transform="scale(0.015625)"/>
        <path id="ArialMT-30" d="M 266 2259 
Q 266 3072 433 3567 
Q 600 4063 929 4331 
Q 1259 4600 1759 4600 
Q 2128 4600 2406 4451 
Q 2684 4303 2865 4023 
Q 3047 3744 3150 3342 
Q 3253 2941 3253 2259 
Q 3253 1453 3087 958 
Q 2922 463 2592 192 
Q 2263 -78 1759 -78 
Q 1097 -78 719 397 
Q 266 969 266 2259 
z
M 844 2259 
Q 844 1131 1108 757 
Q 1372 384 1759 384 
Q 2147 384 2411 759 
Q 2675 1134 2675 2259 
Q 2675 3391 2411 3762 
Q 2147 4134 1753 4134 
Q 1366 4134 1134 3806 
Q 844 3388 844 2259 
z
" transform="scale(0.015625)"/>
       </defs>
       <use xlink:href="#ArialMT-2212" transform="translate(0 0.125)"/>
       <use xlink:href="#ArialMT-31" transform="translate(58.398438 0.125)"/>
       <use xlink:href="#ArialMT-30" transform="translate(114.013672 0.125)"/>
       <use xlink:href="#ArialMT-30" transform="translate(169.628906 0.125)"/>
      </g>
     </g>
    </g>
    <g id="xtick_2">
     <g id="line2d_2">
      <g>
       <use xlink:href="#mf0383534d7" x="56.637244" y="43.027104" style="stroke: #000000; stroke-width: 0.8"/>
      </g>
     </g>
     <g id="text_2">
      <!-- $\mathdefault{0}$ -->
      <g transform="translate(55.237244 53.60601) scale(0.05 -0.05)">
       <use xlink:href="#ArialMT-30" transform="translate(0 0.125)"/>
      </g>
     </g>
    </g>
    <g id="xtick_3">
     <g id="line2d_3">
      <g>
       <use xlink:href="#mf0383534d7" x="80.640202" y="43.027104" style="stroke: #000000; stroke-width: 0.8"/>
      </g>
     </g>
     <g id="text_3">
      <!-- $\mathdefault{100}$ -->
      <g transform="translate(76.465202 53.60601) scale(0.05 -0.05)">
       <use xlink:href="#ArialMT-31" transform="translate(0 0.125)"/>
       <use xlink:href="#ArialMT-30" transform="translate(55.615234 0.125)"/>
       <use xlink:href="#ArialMT-30" transform="translate(111.230469 0.125)"/>
      </g>
     </g>
    </g>
   </g>
   <g id="matplotlib.axis_2">
    <g id="ytick_1">
     <g id="line2d_4">
      <defs>
       <path id="m75fa4a8479" d="M 0 0 
L -3.5 0 
" style="stroke: #000000; stroke-width: 0.8"/>
      </defs>
      <g>
       <use xlink:href="#m75fa4a8479" x="30.23399" y="43.027104" style="stroke: #000000; stroke-width: 0.8"/>
      </g>
     </g>
     <g id="text_4">
      <!-- $\mathdefault{0.00}$ -->
      <g transform="translate(13.48399 44.816557) scale(0.05 -0.05)">
       <defs>
        <path id="ArialMT-2e" d="M 581 0 
L 581 641 
L 1222 641 
L 1222 0 
L 581 0 
z
" transform="scale(0.015625)"/>
       </defs>
       <use xlink:href="#ArialMT-30" transform="translate(0 0.125)"/>
       <use xlink:href="#ArialMT-2e" transform="translate(55.615234 0.125)"/>
       <use xlink:href="#ArialMT-30" transform="translate(83.398438 0.125)"/>
       <use xlink:href="#ArialMT-30" transform="translate(139.013672 0.125)"/>
      </g>
     </g>
    </g>
    <g id="ytick_2">
     <g id="line2d_5">
      <g>
       <use xlink:href="#m75fa4a8479" x="30.23399" y="27.26434" style="stroke: #000000; stroke-width: 0.8"/>
      </g>
     </g>
     <g id="text_5">
      <!-- $\mathdefault{0.05}$ -->
      <g transform="translate(13.48399 29.053793) scale(0.05 -0.05)">
       <defs>
        <path id="ArialMT-35" d="M 266 1200 
L 856 1250 
Q 922 819 1161 601 
Q 1400 384 1738 384 
Q 2144 384 2425 690 
Q 2706 997 2706 1503 
Q 2706 1984 2436 2262 
Q 2166 2541 1728 2541 
Q 1456 2541 1237 2417 
Q 1019 2294 894 2097 
L 366 2166 
L 809 4519 
L 3088 4519 
L 3088 3981 
L 1259 3981 
L 1013 2750 
Q 1425 3038 1878 3038 
Q 2478 3038 2890 2622 
Q 3303 2206 3303 1553 
Q 3303 931 2941 478 
Q 2500 -78 1738 -78 
Q 1113 -78 717 272 
Q 322 622 266 1200 
z
" transform="scale(0.015625)"/>
       </defs>
       <use xlink:href="#ArialMT-30" transform="translate(0 0.125)"/>
       <use xlink:href="#ArialMT-2e" transform="translate(55.615234 0.125)"/>
       <use xlink:href="#ArialMT-30" transform="translate(83.398438 0.125)"/>
       <use xlink:href="#ArialMT-35" transform="translate(139.013672 0.125)"/>
      </g>
     </g>
    </g>
    <g id="ytick_3">
     <g id="line2d_6">
      <g>
       <use xlink:href="#m75fa4a8479" x="30.23399" y="11.501576" style="stroke: #000000; stroke-width: 0.8"/>
      </g>
     </g>
     <g id="text_6">
      <!-- $\mathdefault{0.10}$ -->
      <g transform="translate(13.48399 13.291029) scale(0.05 -0.05)">
       <use xlink:href="#ArialMT-30" transform="translate(0 0.125)"/>
       <use xlink:href="#ArialMT-2e" transform="translate(55.615234 0.125)"/>
       <use xlink:href="#ArialMT-31" transform="translate(83.398438 0.125)"/>
       <use xlink:href="#ArialMT-30" transform="translate(139.013672 0.125)"/>
      </g>
     </g>
    </g>
    <g id="text_7">
     <!-- Density -->
     <g transform="translate(8.010709 34.683984) rotate(-90) scale(0.07 -0.07)">
      <defs>
       <path id="ArialMT-44" d="M 494 0 
L 494 4581 
L 2072 4581 
Q 2606 4581 2888 4516 
Q 3281 4425 3559 4188 
Q 3922 3881 4101 3404 
Q 4281 2928 4281 2316 
Q 4281 1794 4159 1391 
Q 4038 988 3847 723 
Q 3656 459 3429 307 
Q 3203 156 2883 78 
Q 2563 0 2147 0 
L 494 0 
z
M 1100 541 
L 2078 541 
Q 2531 541 2789 625 
Q 3047 709 3200 863 
Q 3416 1078 3536 1442 
Q 3656 1806 3656 2325 
Q 3656 3044 3420 3430 
Q 3184 3816 2847 3947 
Q 2603 4041 2063 4041 
L 1100 4041 
L 1100 541 
z
" transform="scale(0.015625)"/>
       <path id="ArialMT-65" d="M 2694 1069 
L 3275 997 
Q 3138 488 2766 206 
Q 2394 -75 1816 -75 
Q 1088 -75 661 373 
Q 234 822 234 1631 
Q 234 2469 665 2931 
Q 1097 3394 1784 3394 
Q 2450 3394 2872 2941 
Q 3294 2488 3294 1666 
Q 3294 1616 3291 1516 
L 816 1516 
Q 847 969 1125 678 
Q 1403 388 1819 388 
Q 2128 388 2347 550 
Q 2566 713 2694 1069 
z
M 847 1978 
L 2700 1978 
Q 2663 2397 2488 2606 
Q 2219 2931 1791 2931 
Q 1403 2931 1139 2672 
Q 875 2413 847 1978 
z
" transform="scale(0.015625)"/>
       <path id="ArialMT-6e" d="M 422 0 
L 422 3319 
L 928 3319 
L 928 2847 
Q 1294 3394 1984 3394 
Q 2284 3394 2536 3286 
Q 2788 3178 2913 3003 
Q 3038 2828 3088 2588 
Q 3119 2431 3119 2041 
L 3119 0 
L 2556 0 
L 2556 2019 
Q 2556 2363 2490 2533 
Q 2425 2703 2258 2804 
Q 2091 2906 1866 2906 
Q 1506 2906 1245 2678 
Q 984 2450 984 1813 
L 984 0 
L 422 0 
z
" transform="scale(0.015625)"/>
       <path id="ArialMT-73" d="M 197 991 
L 753 1078 
Q 800 744 1014 566 
Q 1228 388 1613 388 
Q 2000 388 2187 545 
Q 2375 703 2375 916 
Q 2375 1106 2209 1216 
Q 2094 1291 1634 1406 
Q 1016 1563 777 1677 
Q 538 1791 414 1992 
Q 291 2194 291 2438 
Q 291 2659 392 2848 
Q 494 3038 669 3163 
Q 800 3259 1026 3326 
Q 1253 3394 1513 3394 
Q 1903 3394 2198 3281 
Q 2494 3169 2634 2976 
Q 2775 2784 2828 2463 
L 2278 2388 
Q 2241 2644 2061 2787 
Q 1881 2931 1553 2931 
Q 1166 2931 1000 2803 
Q 834 2675 834 2503 
Q 834 2394 903 2306 
Q 972 2216 1119 2156 
Q 1203 2125 1616 2013 
Q 2213 1853 2448 1751 
Q 2684 1650 2818 1456 
Q 2953 1263 2953 975 
Q 2953 694 2789 445 
Q 2625 197 2315 61 
Q 2006 -75 1616 -75 
Q 969 -75 630 194 
Q 291 463 197 991 
z
" transform="scale(0.015625)"/>
       <path id="ArialMT-69" d="M 425 3934 
L 425 4581 
L 988 4581 
L 988 3934 
L 425 3934 
z
M 425 0 
L 425 3319 
L 988 3319 
L 988 0 
L 425 0 
z
" transform="scale(0.015625)"/>
       <path id="ArialMT-74" d="M 1650 503 
L 1731 6 
Q 1494 -44 1306 -44 
Q 1000 -44 831 53 
Q 663 150 594 308 
Q 525 466 525 972 
L 525 2881 
L 113 2881 
L 113 3319 
L 525 3319 
L 525 4141 
L 1084 4478 
L 1084 3319 
L 1650 3319 
L 1650 2881 
L 1084 2881 
L 1084 941 
Q 1084 700 1114 631 
Q 1144 563 1211 522 
Q 1278 481 1403 481 
Q 1497 481 1650 503 
z
" transform="scale(0.015625)"/>
       <path id="ArialMT-79" d="M 397 -1278 
L 334 -750 
Q 519 -800 656 -800 
Q 844 -800 956 -737 
Q 1069 -675 1141 -563 
Q 1194 -478 1313 -144 
Q 1328 -97 1363 -6 
L 103 3319 
L 709 3319 
L 1400 1397 
Q 1534 1031 1641 628 
Q 1738 1016 1872 1384 
L 2581 3319 
L 3144 3319 
L 1881 -56 
Q 1678 -603 1566 -809 
Q 1416 -1088 1222 -1217 
Q 1028 -1347 759 -1347 
Q 597 -1347 397 -1278 
z
" transform="scale(0.015625)"/>
      </defs>
      <use xlink:href="#ArialMT-44"/>
      <use xlink:href="#ArialMT-65" x="72.216797"/>
      <use xlink:href="#ArialMT-6e" x="127.832031"/>
      <use xlink:href="#ArialMT-73" x="183.447266"/>
      <use xlink:href="#ArialMT-69" x="233.447266"/>
      <use xlink:href="#ArialMT-74" x="255.664062"/>
      <use xlink:href="#ArialMT-79" x="283.447266"/>
     </g>
    </g>
   </g>
   <g id="line2d_7">
    <path d="M 32.634286 43.027104 
L 56.757379 42.939297 
L 57.093757 42.387696 
L 58.150944 39.997257 
L 59.112024 38.133255 
L 59.880887 37.098813 
L 60.601697 36.495017 
L 61.274452 36.209507 
L 61.995262 36.146692 
L 62.812179 36.308125 
L 63.869367 36.767044 
L 65.503202 37.76 
L 69.107249 39.988509 
L 71.077462 40.913262 
L 73.095729 41.613167 
L 75.306212 42.141096 
L 77.94918 42.534694 
L 80.640202 42.762995 
L 80.640202 42.762995 
" clip-path="url(#p0a33f0bae6)" style="fill: none; stroke: #8abc53; stroke-linecap: square"/>
   </g>
   <g id="patch_4">
    <path d="M 30.23399 43.027104 
L 30.23399 3.00024 
" style="fill: none; stroke: #000000; stroke-width: 0.8; stroke-linejoin: miter; stroke-linecap: square"/>
   </g>
   <g id="patch_5">
    <path d="M 30.23399 43.027104 
L 83.040498 43.027104 
" style="fill: none; stroke: #000000; stroke-width: 0.8; stroke-linejoin: miter; stroke-linecap: square"/>
   </g>
  </g>
  <g id="axes_2">
   <g id="patch_6">
    <path d="M 94.32274 43.027104 
L 147.129248 43.027104 
L 147.129248 3.00024 
L 94.32274 3.00024 
L 94.32274 43.027104 
z
" style="fill: none"/>
   </g>
   <g id="patch_7">
    <path d="M 96.723036 43.027104 
L 96.723036 43.027104 
L 97.702748 43.027104 
L 97.702748 43.027104 
L 98.682461 43.027104 
L 98.682461 43.027104 
L 99.662174 43.027104 
L 99.662174 43.027104 
L 100.641886 43.027104 
L 100.641886 43.027104 
L 101.621599 43.027104 
L 101.621599 43.027104 
L 102.601311 43.027104 
L 102.601311 43.027104 
L 103.581024 43.027104 
L 103.581024 43.027104 
L 104.560736 43.027104 
L 104.560736 43.027104 
L 105.540449 43.027104 
L 105.540449 43.027104 
L 106.520162 43.027104 
L 106.520162 43.027104 
L 107.499874 43.027104 
L 107.499874 43.027104 
L 108.479587 43.027104 
L 108.479587 43.027104 
L 109.459299 43.027104 
L 109.459299 43.027104 
L 110.439012 43.027104 
L 110.439012 43.027104 
L 111.418725 43.027104 
L 111.418725 43.027104 
L 112.398437 43.027104 
L 112.398437 43.027104 
L 113.37815 43.027104 
L 113.37815 43.027104 
L 114.357862 43.027104 
L 114.357862 43.027104 
L 115.337575 43.027104 
L 115.337575 43.027104 
L 116.317287 43.027104 
L 116.317287 43.027104 
L 117.297 43.027104 
L 117.297 43.027104 
L 118.276713 43.027104 
L 118.276713 39.773587 
L 119.256425 39.773587 
L 119.256425 25.40419 
L 120.236138 25.40419 
L 120.236138 7.187754 
L 121.21585 7.187754 
L 121.21585 25.785999 
L 122.195563 25.785999 
L 122.195563 39.746444 
L 123.175275 39.746444 
L 123.175275 43.027104 
L 124.154988 43.027104 
L 124.154988 43.027104 
L 125.134701 43.027104 
L 125.134701 43.027104 
L 126.114413 43.027104 
L 126.114413 43.027104 
L 127.094126 43.027104 
L 127.094126 43.027104 
L 128.073838 43.027104 
L 128.073838 43.027104 
L 129.053551 43.027104 
L 129.053551 43.027104 
L 130.033264 43.027104 
L 130.033264 43.027104 
L 131.012976 43.027104 
L 131.012976 43.027104 
L 131.992689 43.027104 
L 131.992689 43.027104 
L 132.972401 43.027104 
L 132.972401 43.027104 
L 133.952114 43.027104 
L 133.952114 43.027104 
L 134.931826 43.027104 
L 134.931826 43.027104 
L 135.911539 43.027104 
L 135.911539 43.027104 
L 136.891252 43.027104 
L 136.891252 43.027104 
L 137.870964 43.027104 
L 137.870964 43.027104 
L 138.850677 43.027104 
L 138.850677 43.027104 
L 139.830389 43.027104 
L 139.830389 43.027104 
L 140.810102 43.027104 
L 140.810102 43.027104 
L 141.789815 43.027104 
L 141.789815 43.027104 
L 142.769527 43.027104 
L 142.769527 43.027104 
L 143.74924 43.027104 
L 143.74924 43.027104 
L 144.728952 43.027104 
L 144.728952 43.027104 
L 143.74924 43.027104 
L 143.74924 43.027104 
L 142.769527 43.027104 
L 142.769527 43.027104 
L 141.789815 43.027104 
L 141.789815 43.027104 
L 140.810102 43.027104 
L 140.810102 43.027104 
L 139.830389 43.027104 
L 139.830389 43.027104 
L 138.850677 43.027104 
L 138.850677 43.027104 
L 137.870964 43.027104 
L 137.870964 43.027104 
L 136.891252 43.027104 
L 136.891252 43.027104 
L 135.911539 43.027104 
L 135.911539 43.027104 
L 134.931826 43.027104 
L 134.931826 43.027104 
L 133.952114 43.027104 
L 133.952114 43.027104 
L 132.972401 43.027104 
L 132.972401 43.027104 
L 131.992689 43.027104 
L 131.992689 43.027104 
L 131.012976 43.027104 
L 131.012976 43.027104 
L 130.033264 43.027104 
L 130.033264 43.027104 
L 129.053551 43.027104 
L 129.053551 43.027104 
L 128.073838 43.027104 
L 128.073838 43.027104 
L 127.094126 43.027104 
L 127.094126 43.027104 
L 126.114413 43.027104 
L 126.114413 43.027104 
L 125.134701 43.027104 
L 125.134701 43.027104 
L 124.154988 43.027104 
L 124.154988 43.027104 
L 123.175275 43.027104 
L 123.175275 43.027104 
L 122.195563 43.027104 
L 122.195563 43.027104 
L 121.21585 43.027104 
L 121.21585 43.027104 
L 120.236138 43.027104 
L 120.236138 43.027104 
L 119.256425 43.027104 
L 119.256425 43.027104 
L 118.276713 43.027104 
L 118.276713 43.027104 
L 117.297 43.027104 
L 117.297 43.027104 
L 116.317287 43.027104 
L 116.317287 43.027104 
L 115.337575 43.027104 
L 115.337575 43.027104 
L 114.357862 43.027104 
L 114.357862 43.027104 
L 113.37815 43.027104 
L 113.37815 43.027104 
L 112.398437 43.027104 
L 112.398437 43.027104 
L 111.418725 43.027104 
L 111.418725 43.027104 
L 110.439012 43.027104 
L 110.439012 43.027104 
L 109.459299 43.027104 
L 109.459299 43.027104 
L 108.479587 43.027104 
L 108.479587 43.027104 
L 107.499874 43.027104 
L 107.499874 43.027104 
L 106.520162 43.027104 
L 106.520162 43.027104 
L 105.540449 43.027104 
L 105.540449 43.027104 
L 104.560736 43.027104 
L 104.560736 43.027104 
L 103.581024 43.027104 
L 103.581024 43.027104 
L 102.601311 43.027104 
L 102.601311 43.027104 
L 101.621599 43.027104 
L 101.621599 43.027104 
L 100.641886 43.027104 
L 100.641886 43.027104 
L 99.662174 43.027104 
L 99.662174 43.027104 
L 98.682461 43.027104 
L 98.682461 43.027104 
L 97.702748 43.027104 
L 97.702748 43.027104 
z
" clip-path="url(#p137a07f9a1)" style="fill: #1a1513; opacity: 0.5"/>
   </g>
   <g id="matplotlib.axis_3">
    <g id="xtick_4">
     <g id="line2d_8">
      <g>
       <use xlink:href="#mf0383534d7" x="96.723036" y="43.027104" style="stroke: #000000; stroke-width: 0.8"/>
      </g>
     </g>
     <g id="text_8">
      <!-- $\mathdefault{−100}$ -->
      <g transform="translate(91.073036 53.60601) scale(0.05 -0.05)">
       <use xlink:href="#ArialMT-2212" transform="translate(0 0.125)"/>
       <use xlink:href="#ArialMT-31" transform="translate(58.398438 0.125)"/>
       <use xlink:href="#ArialMT-30" transform="translate(114.013672 0.125)"/>
       <use xlink:href="#ArialMT-30" transform="translate(169.628906 0.125)"/>
      </g>
     </g>
    </g>
    <g id="xtick_5">
     <g id="line2d_9">
      <g>
       <use xlink:href="#mf0383534d7" x="120.725994" y="43.027104" style="stroke: #000000; stroke-width: 0.8"/>
      </g>
     </g>
     <g id="text_9">
      <!-- $\mathdefault{0}$ -->
      <g transform="translate(119.325994 53.60601) scale(0.05 -0.05)">
       <use xlink:href="#ArialMT-30" transform="translate(0 0.125)"/>
      </g>
     </g>
    </g>
    <g id="xtick_6">
     <g id="line2d_10">
      <g>
       <use xlink:href="#mf0383534d7" x="144.728952" y="43.027104" style="stroke: #000000; stroke-width: 0.8"/>
      </g>
     </g>
     <g id="text_10">
      <!-- $\mathdefault{100}$ -->
      <g transform="translate(140.553952 53.60601) scale(0.05 -0.05)">
       <use xlink:href="#ArialMT-31" transform="translate(0 0.125)"/>
       <use xlink:href="#ArialMT-30" transform="translate(55.615234 0.125)"/>
       <use xlink:href="#ArialMT-30" transform="translate(111.230469 0.125)"/>
      </g>
     </g>
    </g>
   </g>
   <g id="matplotlib.axis_4">
    <g id="ytick_4">
     <g id="line2d_11">
      <g>
       <use xlink:href="#m75fa4a8479" x="94.32274" y="43.027104" style="stroke: #000000; stroke-width: 0.8"/>
      </g>
     </g>
    </g>
    <g id="ytick_5">
     <g id="line2d_12">
      <g>
       <use xlink:href="#m75fa4a8479" x="94.32274" y="27.26434" style="stroke: #000000; stroke-width: 0.8"/>
      </g>
     </g>
    </g>
    <g id="ytick_6">
     <g id="line2d_13">
      <g>
       <use xlink:href="#m75fa4a8479" x="94.32274" y="11.501576" style="stroke: #000000; stroke-width: 0.8"/>
      </g>
     </g>
    </g>
   </g>
   <g id="line2d_14">
    <path d="M 96.723036 43.027104 
L 117.866783 42.931661 
L 118.203161 42.671142 
L 118.44343 42.203 
L 118.6837 41.272811 
L 118.972024 39.139139 
L 119.308402 34.58224 
L 119.740888 25.050273 
L 120.509751 7.84063 
L 120.701967 6.639046 
L 120.750021 6.639046 
L 120.846129 7.003767 
L 121.038345 9.116595 
L 121.374723 16.219846 
L 122.287748 36.847373 
L 122.67218 40.708951 
L 123.008558 42.203 
L 123.344935 42.778582 
L 123.729367 42.975477 
L 124.498231 43.025935 
L 144.296467 43.027104 
L 144.728952 43.027104 
L 144.728952 43.027104 
" clip-path="url(#p137a07f9a1)" style="fill: none; stroke: #1a1513; stroke-linecap: square"/>
   </g>
   <g id="patch_8">
    <path d="M 94.32274 43.027104 
L 94.32274 3.00024 
" style="fill: none; stroke: #000000; stroke-width: 0.8; stroke-linejoin: miter; stroke-linecap: square"/>
   </g>
   <g id="patch_9">
    <path d="M 94.32274 43.027104 
L 147.129248 43.027104 
" style="fill: none; stroke: #000000; stroke-width: 0.8; stroke-linejoin: miter; stroke-linecap: square"/>
   </g>
  </g>
  <g id="axes_3">
   <g id="patch_10">
    <path d="M 158.41149 43.027104 
L 211.217998 43.027104 
L 211.217998 3.00024 
L 158.41149 3.00024 
L 158.41149 43.027104 
z
" style="fill: none"/>
   </g>
   <g id="patch_11">
    <path d="M 160.811786 43.027104 
L 160.811786 42.833435 
L 161.791498 42.833435 
L 161.791498 42.81374 
L 162.771211 42.81374 
L 162.771211 42.672592 
L 163.750924 42.672592 
L 163.750924 42.587247 
L 164.730636 42.587247 
L 164.730636 42.492054 
L 165.710349 42.492054 
L 165.710349 42.245866 
L 166.690061 42.245866 
L 166.690061 42.019372 
L 167.669774 42.019372 
L 167.669774 41.645166 
L 168.649486 41.645166 
L 168.649486 41.339892 
L 169.629199 41.339892 
L 169.629199 40.742474 
L 170.608912 40.742474 
L 170.608912 40.233685 
L 171.588624 40.233685 
L 171.588624 39.288321 
L 172.568337 39.288321 
L 172.568337 38.812356 
L 173.548049 38.812356 
L 173.548049 37.860427 
L 174.527762 37.860427 
L 174.527762 37.660194 
L 175.507475 37.660194 
L 175.507475 37.069342 
L 176.487187 37.069342 
L 176.487187 37.121862 
L 177.4669 37.121862 
L 177.4669 36.961019 
L 178.446612 36.961019 
L 178.446612 37.213772 
L 179.426325 37.213772 
L 179.426325 37.240032 
L 180.406037 37.240032 
L 180.406037 36.931476 
L 181.38575 36.931476 
L 181.38575 36.399709 
L 182.365463 36.399709 
L 182.365463 38.201809 
L 183.345175 38.201809 
L 183.345175 43.027104 
L 184.324888 43.027104 
L 184.324888 43.027104 
L 185.3046 43.027104 
L 185.3046 43.027104 
L 186.284313 43.027104 
L 186.284313 43.027104 
L 187.264025 43.027104 
L 187.264025 43.027104 
L 188.243738 43.027104 
L 188.243738 43.027104 
L 189.223451 43.027104 
L 189.223451 43.027104 
L 190.203163 43.027104 
L 190.203163 43.027104 
L 191.182876 43.027104 
L 191.182876 43.027104 
L 192.162588 43.027104 
L 192.162588 43.027104 
L 193.142301 43.027104 
L 193.142301 43.027104 
L 194.122014 43.027104 
L 194.122014 43.027104 
L 195.101726 43.027104 
L 195.101726 43.027104 
L 196.081439 43.027104 
L 196.081439 43.027104 
L 197.061151 43.027104 
L 197.061151 43.027104 
L 198.040864 43.027104 
L 198.040864 43.027104 
L 199.020576 43.027104 
L 199.020576 43.027104 
L 200.000289 43.027104 
L 200.000289 43.027104 
L 200.980002 43.027104 
L 200.980002 43.027104 
L 201.959714 43.027104 
L 201.959714 43.027104 
L 202.939427 43.027104 
L 202.939427 43.027104 
L 203.919139 43.027104 
L 203.919139 43.027104 
L 204.898852 43.027104 
L 204.898852 43.027104 
L 205.878565 43.027104 
L 205.878565 43.027104 
L 206.858277 43.027104 
L 206.858277 43.027104 
L 207.83799 43.027104 
L 207.83799 43.027104 
L 208.817702 43.027104 
L 208.817702 43.027104 
L 207.83799 43.027104 
L 207.83799 43.027104 
L 206.858277 43.027104 
L 206.858277 43.027104 
L 205.878565 43.027104 
L 205.878565 43.027104 
L 204.898852 43.027104 
L 204.898852 43.027104 
L 203.919139 43.027104 
L 203.919139 43.027104 
L 202.939427 43.027104 
L 202.939427 43.027104 
L 201.959714 43.027104 
L 201.959714 43.027104 
L 200.980002 43.027104 
L 200.980002 43.027104 
L 200.000289 43.027104 
L 200.000289 43.027104 
L 199.020576 43.027104 
L 199.020576 43.027104 
L 198.040864 43.027104 
L 198.040864 43.027104 
L 197.061151 43.027104 
L 197.061151 43.027104 
L 196.081439 43.027104 
L 196.081439 43.027104 
L 195.101726 43.027104 
L 195.101726 43.027104 
L 194.122014 43.027104 
L 194.122014 43.027104 
L 193.142301 43.027104 
L 193.142301 43.027104 
L 192.162588 43.027104 
L 192.162588 43.027104 
L 191.182876 43.027104 
L 191.182876 43.027104 
L 190.203163 43.027104 
L 190.203163 43.027104 
L 189.223451 43.027104 
L 189.223451 43.027104 
L 188.243738 43.027104 
L 188.243738 43.027104 
L 187.264025 43.027104 
L 187.264025 43.027104 
L 186.284313 43.027104 
L 186.284313 43.027104 
L 185.3046 43.027104 
L 185.3046 43.027104 
L 184.324888 43.027104 
L 184.324888 43.027104 
L 183.345175 43.027104 
L 183.345175 43.027104 
L 182.365463 43.027104 
L 182.365463 43.027104 
L 181.38575 43.027104 
L 181.38575 43.027104 
L 180.406037 43.027104 
L 180.406037 43.027104 
L 179.426325 43.027104 
L 179.426325 43.027104 
L 178.446612 43.027104 
L 178.446612 43.027104 
L 177.4669 43.027104 
L 177.4669 43.027104 
L 176.487187 43.027104 
L 176.487187 43.027104 
L 175.507475 43.027104 
L 175.507475 43.027104 
L 174.527762 43.027104 
L 174.527762 43.027104 
L 173.548049 43.027104 
L 173.548049 43.027104 
L 172.568337 43.027104 
L 172.568337 43.027104 
L 171.588624 43.027104 
L 171.588624 43.027104 
L 170.608912 43.027104 
L 170.608912 43.027104 
L 169.629199 43.027104 
L 169.629199 43.027104 
L 168.649486 43.027104 
L 168.649486 43.027104 
L 167.669774 43.027104 
L 167.669774 43.027104 
L 166.690061 43.027104 
L 166.690061 43.027104 
L 165.710349 43.027104 
L 165.710349 43.027104 
L 164.730636 43.027104 
L 164.730636 43.027104 
L 163.750924 43.027104 
L 163.750924 43.027104 
L 162.771211 43.027104 
L 162.771211 43.027104 
L 161.791498 43.027104 
L 161.791498 43.027104 
z
" clip-path="url(#pf2ff3895c5)" style="fill: #d889ca; opacity: 0.5"/>
   </g>
   <g id="matplotlib.axis_5">
    <g id="xtick_7">
     <g id="line2d_15">
      <g>
       <use xlink:href="#mf0383534d7" x="160.811786" y="43.027104" style="stroke: #000000; stroke-width: 0.8"/>
      </g>
     </g>
     <g id="text_11">
      <!-- $\mathdefault{−100}$ -->
      <g transform="translate(155.161786 53.60601) scale(0.05 -0.05)">
       <use xlink:href="#ArialMT-2212" transform="translate(0 0.125)"/>
       <use xlink:href="#ArialMT-31" transform="translate(58.398438 0.125)"/>
       <use xlink:href="#ArialMT-30" transform="translate(114.013672 0.125)"/>
       <use xlink:href="#ArialMT-30" transform="translate(169.628906 0.125)"/>
      </g>
     </g>
    </g>
    <g id="xtick_8">
     <g id="line2d_16">
      <g>
       <use xlink:href="#mf0383534d7" x="184.814744" y="43.027104" style="stroke: #000000; stroke-width: 0.8"/>
      </g>
     </g>
     <g id="text_12">
      <!-- $\mathdefault{0}$ -->
      <g transform="translate(183.414744 53.60601) scale(0.05 -0.05)">
       <use xlink:href="#ArialMT-30" transform="translate(0 0.125)"/>
      </g>
     </g>
    </g>
    <g id="xtick_9">
     <g id="line2d_17">
      <g>
       <use xlink:href="#mf0383534d7" x="208.817702" y="43.027104" style="stroke: #000000; stroke-width: 0.8"/>
      </g>
     </g>
     <g id="text_13">
      <!-- $\mathdefault{100}$ -->
      <g transform="translate(204.642702 53.60601) scale(0.05 -0.05)">
       <use xlink:href="#ArialMT-31" transform="translate(0 0.125)"/>
       <use xlink:href="#ArialMT-30" transform="translate(55.615234 0.125)"/>
       <use xlink:href="#ArialMT-30" transform="translate(111.230469 0.125)"/>
      </g>
     </g>
    </g>
   </g>
   <g id="matplotlib.axis_6">
    <g id="ytick_7">
     <g id="line2d_18">
      <g>
       <use xlink:href="#m75fa4a8479" x="158.41149" y="43.027104" style="stroke: #000000; stroke-width: 0.8"/>
      </g>
     </g>
    </g>
    <g id="ytick_8">
     <g id="line2d_19">
      <g>
       <use xlink:href="#m75fa4a8479" x="158.41149" y="27.26434" style="stroke: #000000; stroke-width: 0.8"/>
      </g>
     </g>
    </g>
    <g id="ytick_9">
     <g id="line2d_20">
      <g>
       <use xlink:href="#m75fa4a8479" x="158.41149" y="11.501576" style="stroke: #000000; stroke-width: 0.8"/>
      </g>
     </g>
    </g>
   </g>
   <g id="line2d_21">
    <path d="M 160.811786 42.762995 
L 164.319726 42.434959 
L 166.962694 41.971021 
L 169.173177 41.357915 
L 171.143389 40.582025 
L 173.113602 39.561053 
L 175.564355 38.012877 
L 177.870945 36.620936 
L 178.928133 36.227547 
L 179.74505 36.145276 
L 180.46586 36.302083 
L 181.138615 36.696656 
L 181.811371 37.377045 
L 182.53218 38.457691 
L 183.397152 40.212352 
L 184.742663 42.987011 
L 184.982933 43.027104 
L 208.817702 43.027104 
L 208.817702 43.027104 
" clip-path="url(#pf2ff3895c5)" style="fill: none; stroke: #d889ca; stroke-linecap: square"/>
   </g>
   <g id="patch_12">
    <path d="M 158.41149 43.027104 
L 158.41149 3.00024 
" style="fill: none; stroke: #000000; stroke-width: 0.8; stroke-linejoin: miter; stroke-linecap: square"/>
   </g>
   <g id="patch_13">
    <path d="M 158.41149 43.027104 
L 211.217998 43.027104 
" style="fill: none; stroke: #000000; stroke-width: 0.8; stroke-linejoin: miter; stroke-linecap: square"/>
   </g>
  </g>
 </g>
 <defs>
  <clipPath id="p0a33f0bae6">
   <rect x="30.23399" y="3.00024" width="52.806508" height="40.026864"/>
  </clipPath>
  <clipPath id="p137a07f9a1">
   <rect x="94.32274" y="3.00024" width="52.806508" height="40.026864"/>
  </clipPath>
  <clipPath id="pf2ff3895c5">
   <rect x="158.41149" y="3.00024" width="52.806508" height="40.026864"/>
  </clipPath>
 </defs>
</svg>
