<?xml version="1.0" encoding="utf-8" standalone="no"?>
<!DOCTYPE svg PUBLIC "-//W3C//DTD SVG 1.1//EN"
  "http://www.w3.org/Graphics/SVG/1.1/DTD/svg11.dtd">
<svg xmlns:xlink="http://www.w3.org/1999/xlink" width="288pt" height="144pt" viewBox="0 0 288 144" xmlns="http://www.w3.org/2000/svg" version="1.1">
 <metadata>
  <rdf:RDF xmlns:dc="http://purl.org/dc/elements/1.1/" xmlns:cc="http://creativecommons.org/ns#" xmlns:rdf="http://www.w3.org/1999/02/22-rdf-syntax-ns#">
   <cc:Work>
    <dc:type rdf:resource="http://purl.org/dc/dcmitype/StillImage"/>
    <dc:date>2024-07-04T13:54:33.065675</dc:date>
    <dc:format>image/svg+xml</dc:format>
    <dc:creator>
     <cc:Agent>
      <dc:title>Matplotlib v3.8.0, https://matplotlib.org/</dc:title>
     </cc:Agent>
    </dc:creator>
   </cc:Work>
  </rdf:RDF>
 </metadata>
 <defs>
  <style type="text/css">*{stroke-linejoin: round; stroke-linecap: butt}</style>
 </defs>
 <g id="figure_1">
  <g id="patch_1">
   <path d="M 0 144 
L 288 144 
L 288 0 
L 0 0 
L 0 144 
z
" style="fill: none"/>
  </g>
  <g id="axes_1">
   <g id="patch_2">
    <path d="M 33.594693 118.357104 
L 137.225307 118.357104 
L 137.225307 14.72649 
L 33.594693 14.72649 
L 33.594693 118.357104 
z
" style="fill: none"/>
   </g>
   <g id="matplotlib.axis_1">
    <g id="xtick_1">
     <g id="line2d_1">
      <defs>
       <path id="m925dc29c30" d="M 0 0 
L 0 3.5 
" style="stroke: #000000; stroke-width: 0.8"/>
      </defs>
      <g>
       <use xlink:href="#m925dc29c30" x="33.594693" y="118.357104" style="stroke: #000000; stroke-width: 0.8"/>
      </g>
     </g>
     <g id="text_1">
      <!-- $\mathdefault{0.0}$ -->
      <g transform="translate(30.094693 128.93601) scale(0.05 -0.05)">
       <defs>
        <path id="ArialMT-30" d="M 266 2259 
Q 266 3072 433 3567 
Q 600 4063 929 4331 
Q 1259 4600 1759 4600 
Q 2128 4600 2406 4451 
Q 2684 4303 2865 4023 
Q 3047 3744 3150 3342 
Q 3253 2941 3253 2259 
Q 3253 1453 3087 958 
Q 2922 463 2592 192 
Q 2263 -78 1759 -78 
Q 1097 -78 719 397 
Q 266 969 266 2259 
z
M 844 2259 
Q 844 1131 1108 757 
Q 1372 384 1759 384 
Q 2147 384 2411 759 
Q 2675 1134 2675 2259 
Q 2675 3391 2411 3762 
Q 2147 4134 1753 4134 
Q 1366 4134 1134 3806 
Q 844 3388 844 2259 
z
" transform="scale(0.015625)"/>
        <path id="ArialMT-2e" d="M 581 0 
L 581 641 
L 1222 641 
L 1222 0 
L 581 0 
z
" transform="scale(0.015625)"/>
       </defs>
       <use xlink:href="#ArialMT-30" transform="translate(0 0.125)"/>
       <use xlink:href="#ArialMT-2e" transform="translate(55.615234 0.125)"/>
       <use xlink:href="#ArialMT-30" transform="translate(83.398438 0.125)"/>
      </g>
     </g>
    </g>
    <g id="xtick_2">
     <g id="line2d_2">
      <g>
       <use xlink:href="#m925dc29c30" x="54.320816" y="118.357104" style="stroke: #000000; stroke-width: 0.8"/>
      </g>
     </g>
     <g id="text_2">
      <!-- $\mathdefault{0.2}$ -->
      <g transform="translate(50.820816 128.93601) scale(0.05 -0.05)">
       <defs>
        <path id="ArialMT-32" d="M 3222 541 
L 3222 0 
L 194 0 
Q 188 203 259 391 
Q 375 700 629 1000 
Q 884 1300 1366 1694 
Q 2113 2306 2375 2664 
Q 2638 3022 2638 3341 
Q 2638 3675 2398 3904 
Q 2159 4134 1775 4134 
Q 1369 4134 1125 3890 
Q 881 3647 878 3216 
L 300 3275 
Q 359 3922 746 4261 
Q 1134 4600 1788 4600 
Q 2447 4600 2831 4234 
Q 3216 3869 3216 3328 
Q 3216 3053 3103 2787 
Q 2991 2522 2730 2228 
Q 2469 1934 1863 1422 
Q 1356 997 1212 845 
Q 1069 694 975 541 
L 3222 541 
z
" transform="scale(0.015625)"/>
       </defs>
       <use xlink:href="#ArialMT-30" transform="translate(0 0.125)"/>
       <use xlink:href="#ArialMT-2e" transform="translate(55.615234 0.125)"/>
       <use xlink:href="#ArialMT-32" transform="translate(83.398438 0.125)"/>
      </g>
     </g>
    </g>
    <g id="xtick_3">
     <g id="line2d_3">
      <g>
       <use xlink:href="#m925dc29c30" x="75.046939" y="118.357104" style="stroke: #000000; stroke-width: 0.8"/>
      </g>
     </g>
     <g id="text_3">
      <!-- $\mathdefault{0.4}$ -->
      <g transform="translate(71.546939 128.93601) scale(0.05 -0.05)">
       <defs>
        <path id="ArialMT-34" d="M 2069 0 
L 2069 1097 
L 81 1097 
L 81 1613 
L 2172 4581 
L 2631 4581 
L 2631 1613 
L 3250 1613 
L 3250 1097 
L 2631 1097 
L 2631 0 
L 2069 0 
z
M 2069 1613 
L 2069 3678 
L 634 1613 
L 2069 1613 
z
" transform="scale(0.015625)"/>
       </defs>
       <use xlink:href="#ArialMT-30" transform="translate(0 0.125)"/>
       <use xlink:href="#ArialMT-2e" transform="translate(55.615234 0.125)"/>
       <use xlink:href="#ArialMT-34" transform="translate(83.398438 0.125)"/>
      </g>
     </g>
    </g>
    <g id="xtick_4">
     <g id="line2d_4">
      <g>
       <use xlink:href="#m925dc29c30" x="95.773061" y="118.357104" style="stroke: #000000; stroke-width: 0.8"/>
      </g>
     </g>
     <g id="text_4">
      <!-- $\mathdefault{0.6}$ -->
      <g transform="translate(92.273061 128.93601) scale(0.05 -0.05)">
       <defs>
        <path id="ArialMT-36" d="M 3184 3459 
L 2625 3416 
Q 2550 3747 2413 3897 
Q 2184 4138 1850 4138 
Q 1581 4138 1378 3988 
Q 1113 3794 959 3422 
Q 806 3050 800 2363 
Q 1003 2672 1297 2822 
Q 1591 2972 1913 2972 
Q 2475 2972 2870 2558 
Q 3266 2144 3266 1488 
Q 3266 1056 3080 686 
Q 2894 316 2569 119 
Q 2244 -78 1831 -78 
Q 1128 -78 684 439 
Q 241 956 241 2144 
Q 241 3472 731 4075 
Q 1159 4600 1884 4600 
Q 2425 4600 2770 4297 
Q 3116 3994 3184 3459 
z
M 888 1484 
Q 888 1194 1011 928 
Q 1134 663 1356 523 
Q 1578 384 1822 384 
Q 2178 384 2434 671 
Q 2691 959 2691 1453 
Q 2691 1928 2437 2201 
Q 2184 2475 1800 2475 
Q 1419 2475 1153 2201 
Q 888 1928 888 1484 
z
" transform="scale(0.015625)"/>
       </defs>
       <use xlink:href="#ArialMT-30" transform="translate(0 0.125)"/>
       <use xlink:href="#ArialMT-2e" transform="translate(55.615234 0.125)"/>
       <use xlink:href="#ArialMT-36" transform="translate(83.398438 0.125)"/>
      </g>
     </g>
    </g>
    <g id="xtick_5">
     <g id="line2d_5">
      <g>
       <use xlink:href="#m925dc29c30" x="116.499184" y="118.357104" style="stroke: #000000; stroke-width: 0.8"/>
      </g>
     </g>
     <g id="text_5">
      <!-- $\mathdefault{0.8}$ -->
      <g transform="translate(112.999184 128.93601) scale(0.05 -0.05)">
       <defs>
        <path id="ArialMT-38" d="M 1131 2484 
Q 781 2613 612 2850 
Q 444 3088 444 3419 
Q 444 3919 803 4259 
Q 1163 4600 1759 4600 
Q 2359 4600 2725 4251 
Q 3091 3903 3091 3403 
Q 3091 3084 2923 2848 
Q 2756 2613 2416 2484 
Q 2838 2347 3058 2040 
Q 3278 1734 3278 1309 
Q 3278 722 2862 322 
Q 2447 -78 1769 -78 
Q 1091 -78 675 323 
Q 259 725 259 1325 
Q 259 1772 486 2073 
Q 713 2375 1131 2484 
z
M 1019 3438 
Q 1019 3113 1228 2906 
Q 1438 2700 1772 2700 
Q 2097 2700 2305 2904 
Q 2513 3109 2513 3406 
Q 2513 3716 2298 3927 
Q 2084 4138 1766 4138 
Q 1444 4138 1231 3931 
Q 1019 3725 1019 3438 
z
M 838 1322 
Q 838 1081 952 856 
Q 1066 631 1291 507 
Q 1516 384 1775 384 
Q 2178 384 2440 643 
Q 2703 903 2703 1303 
Q 2703 1709 2433 1975 
Q 2163 2241 1756 2241 
Q 1359 2241 1098 1978 
Q 838 1716 838 1322 
z
" transform="scale(0.015625)"/>
       </defs>
       <use xlink:href="#ArialMT-30" transform="translate(0 0.125)"/>
       <use xlink:href="#ArialMT-2e" transform="translate(55.615234 0.125)"/>
       <use xlink:href="#ArialMT-38" transform="translate(83.398438 0.125)"/>
      </g>
     </g>
    </g>
    <g id="xtick_6">
     <g id="line2d_6">
      <g>
       <use xlink:href="#m925dc29c30" x="137.225307" y="118.357104" style="stroke: #000000; stroke-width: 0.8"/>
      </g>
     </g>
     <g id="text_6">
      <!-- $\mathdefault{1.0}$ -->
      <g transform="translate(133.725307 128.93601) scale(0.05 -0.05)">
       <defs>
        <path id="ArialMT-31" d="M 2384 0 
L 1822 0 
L 1822 3584 
Q 1619 3391 1289 3197 
Q 959 3003 697 2906 
L 697 3450 
Q 1169 3672 1522 3987 
Q 1875 4303 2022 4600 
L 2384 4600 
L 2384 0 
z
" transform="scale(0.015625)"/>
       </defs>
       <use xlink:href="#ArialMT-31" transform="translate(0 0.125)"/>
       <use xlink:href="#ArialMT-2e" transform="translate(55.615234 0.125)"/>
       <use xlink:href="#ArialMT-30" transform="translate(83.398438 0.125)"/>
      </g>
     </g>
    </g>
    <g id="text_7">
     <!-- $P(b_{n+1} | b_{n})$ Behavior -->
     <g transform="translate(52.265 139.31976) scale(0.07 -0.07)">
      <defs>
       <path id="DejaVuSans-Oblique-50" d="M 1081 4666 
L 2541 4666 
Q 3178 4666 3512 4369 
Q 3847 4072 3847 3500 
Q 3847 2731 3353 2303 
Q 2859 1875 1966 1875 
L 1172 1875 
L 806 0 
L 172 0 
L 1081 4666 
z
M 1613 4147 
L 1275 2394 
L 2069 2394 
Q 2606 2394 2893 2669 
Q 3181 2944 3181 3456 
Q 3181 3784 2986 3965 
Q 2791 4147 2438 4147 
L 1613 4147 
z
" transform="scale(0.015625)"/>
       <path id="DejaVuSans-28" d="M 1984 4856 
Q 1566 4138 1362 3434 
Q 1159 2731 1159 2009 
Q 1159 1288 1364 580 
Q 1569 -128 1984 -844 
L 1484 -844 
Q 1016 -109 783 600 
Q 550 1309 550 2009 
Q 550 2706 781 3412 
Q 1013 4119 1484 4856 
L 1984 4856 
z
" transform="scale(0.015625)"/>
       <path id="DejaVuSans-Oblique-62" d="M 3169 2138 
Q 3169 2591 2961 2847 
Q 2753 3103 2388 3103 
Q 2122 3103 1889 2973 
Q 1656 2844 1484 2597 
Q 1303 2338 1198 1995 
Q 1094 1653 1094 1313 
Q 1094 881 1298 636 
Q 1503 391 1863 391 
Q 2134 391 2365 517 
Q 2597 644 2772 891 
Q 2950 1147 3059 1487 
Q 3169 1828 3169 2138 
z
M 1381 2969 
Q 1594 3256 1914 3420 
Q 2234 3584 2584 3584 
Q 3122 3584 3439 3221 
Q 3756 2859 3756 2241 
Q 3756 1734 3570 1259 
Q 3384 784 3041 416 
Q 2816 172 2522 40 
Q 2228 -91 1906 -91 
Q 1566 -91 1316 65 
Q 1066 222 909 531 
L 806 0 
L 231 0 
L 1178 4863 
L 1753 4863 
L 1381 2969 
z
" transform="scale(0.015625)"/>
       <path id="DejaVuSans-Oblique-6e" d="M 3566 2113 
L 3156 0 
L 2578 0 
L 2988 2091 
Q 3016 2238 3031 2350 
Q 3047 2463 3047 2528 
Q 3047 2791 2881 2937 
Q 2716 3084 2419 3084 
Q 1956 3084 1622 2776 
Q 1288 2469 1184 1941 
L 800 0 
L 225 0 
L 903 3500 
L 1478 3500 
L 1363 2950 
Q 1603 3253 1940 3418 
Q 2278 3584 2650 3584 
Q 3113 3584 3367 3334 
Q 3622 3084 3622 2631 
Q 3622 2519 3608 2391 
Q 3594 2263 3566 2113 
z
" transform="scale(0.015625)"/>
       <path id="DejaVuSans-2b" d="M 2944 4013 
L 2944 2272 
L 4684 2272 
L 4684 1741 
L 2944 1741 
L 2944 0 
L 2419 0 
L 2419 1741 
L 678 1741 
L 678 2272 
L 2419 2272 
L 2419 4013 
L 2944 4013 
z
" transform="scale(0.015625)"/>
       <path id="DejaVuSans-31" d="M 794 531 
L 1825 531 
L 1825 4091 
L 703 3866 
L 703 4441 
L 1819 4666 
L 2450 4666 
L 2450 531 
L 3481 531 
L 3481 0 
L 794 0 
L 794 531 
z
" transform="scale(0.015625)"/>
       <path id="DejaVuSans-7c" d="M 1344 4891 
L 1344 -1509 
L 813 -1509 
L 813 4891 
L 1344 4891 
z
" transform="scale(0.015625)"/>
       <path id="DejaVuSans-29" d="M 513 4856 
L 1013 4856 
Q 1481 4119 1714 3412 
Q 1947 2706 1947 2009 
Q 1947 1309 1714 600 
Q 1481 -109 1013 -844 
L 513 -844 
Q 928 -128 1133 580 
Q 1338 1288 1338 2009 
Q 1338 2731 1133 3434 
Q 928 4138 513 4856 
z
" transform="scale(0.015625)"/>
       <path id="ArialMT-20" transform="scale(0.015625)"/>
       <path id="ArialMT-42" d="M 469 0 
L 469 4581 
L 2188 4581 
Q 2713 4581 3030 4442 
Q 3347 4303 3526 4014 
Q 3706 3725 3706 3409 
Q 3706 3116 3547 2856 
Q 3388 2597 3066 2438 
Q 3481 2316 3704 2022 
Q 3928 1728 3928 1328 
Q 3928 1006 3792 729 
Q 3656 453 3456 303 
Q 3256 153 2954 76 
Q 2653 0 2216 0 
L 469 0 
z
M 1075 2656 
L 2066 2656 
Q 2469 2656 2644 2709 
Q 2875 2778 2992 2937 
Q 3109 3097 3109 3338 
Q 3109 3566 3000 3739 
Q 2891 3913 2687 3977 
Q 2484 4041 1991 4041 
L 1075 4041 
L 1075 2656 
z
M 1075 541 
L 2216 541 
Q 2509 541 2628 563 
Q 2838 600 2978 687 
Q 3119 775 3209 942 
Q 3300 1109 3300 1328 
Q 3300 1584 3169 1773 
Q 3038 1963 2805 2039 
Q 2572 2116 2134 2116 
L 1075 2116 
L 1075 541 
z
" transform="scale(0.015625)"/>
       <path id="ArialMT-65" d="M 2694 1069 
L 3275 997 
Q 3138 488 2766 206 
Q 2394 -75 1816 -75 
Q 1088 -75 661 373 
Q 234 822 234 1631 
Q 234 2469 665 2931 
Q 1097 3394 1784 3394 
Q 2450 3394 2872 2941 
Q 3294 2488 3294 1666 
Q 3294 1616 3291 1516 
L 816 1516 
Q 847 969 1125 678 
Q 1403 388 1819 388 
Q 2128 388 2347 550 
Q 2566 713 2694 1069 
z
M 847 1978 
L 2700 1978 
Q 2663 2397 2488 2606 
Q 2219 2931 1791 2931 
Q 1403 2931 1139 2672 
Q 875 2413 847 1978 
z
" transform="scale(0.015625)"/>
       <path id="ArialMT-68" d="M 422 0 
L 422 4581 
L 984 4581 
L 984 2938 
Q 1378 3394 1978 3394 
Q 2347 3394 2619 3248 
Q 2891 3103 3008 2847 
Q 3125 2591 3125 2103 
L 3125 0 
L 2563 0 
L 2563 2103 
Q 2563 2525 2380 2717 
Q 2197 2909 1863 2909 
Q 1613 2909 1392 2779 
Q 1172 2650 1078 2428 
Q 984 2206 984 1816 
L 984 0 
L 422 0 
z
" transform="scale(0.015625)"/>
       <path id="ArialMT-61" d="M 2588 409 
Q 2275 144 1986 34 
Q 1697 -75 1366 -75 
Q 819 -75 525 192 
Q 231 459 231 875 
Q 231 1119 342 1320 
Q 453 1522 633 1644 
Q 813 1766 1038 1828 
Q 1203 1872 1538 1913 
Q 2219 1994 2541 2106 
Q 2544 2222 2544 2253 
Q 2544 2597 2384 2738 
Q 2169 2928 1744 2928 
Q 1347 2928 1158 2789 
Q 969 2650 878 2297 
L 328 2372 
Q 403 2725 575 2942 
Q 747 3159 1072 3276 
Q 1397 3394 1825 3394 
Q 2250 3394 2515 3294 
Q 2781 3194 2906 3042 
Q 3031 2891 3081 2659 
Q 3109 2516 3109 2141 
L 3109 1391 
Q 3109 606 3145 398 
Q 3181 191 3288 0 
L 2700 0 
Q 2613 175 2588 409 
z
M 2541 1666 
Q 2234 1541 1622 1453 
Q 1275 1403 1131 1340 
Q 988 1278 909 1158 
Q 831 1038 831 891 
Q 831 666 1001 516 
Q 1172 366 1500 366 
Q 1825 366 2078 508 
Q 2331 650 2450 897 
Q 2541 1088 2541 1459 
L 2541 1666 
z
" transform="scale(0.015625)"/>
       <path id="ArialMT-76" d="M 1344 0 
L 81 3319 
L 675 3319 
L 1388 1331 
Q 1503 1009 1600 663 
Q 1675 925 1809 1294 
L 2547 3319 
L 3125 3319 
L 1869 0 
L 1344 0 
z
" transform="scale(0.015625)"/>
       <path id="ArialMT-69" d="M 425 3934 
L 425 4581 
L 988 4581 
L 988 3934 
L 425 3934 
z
M 425 0 
L 425 3319 
L 988 3319 
L 988 0 
L 425 0 
z
" transform="scale(0.015625)"/>
       <path id="ArialMT-6f" d="M 213 1659 
Q 213 2581 725 3025 
Q 1153 3394 1769 3394 
Q 2453 3394 2887 2945 
Q 3322 2497 3322 1706 
Q 3322 1066 3130 698 
Q 2938 331 2570 128 
Q 2203 -75 1769 -75 
Q 1072 -75 642 372 
Q 213 819 213 1659 
z
M 791 1659 
Q 791 1022 1069 705 
Q 1347 388 1769 388 
Q 2188 388 2466 706 
Q 2744 1025 2744 1678 
Q 2744 2294 2464 2611 
Q 2184 2928 1769 2928 
Q 1347 2928 1069 2612 
Q 791 2297 791 1659 
z
" transform="scale(0.015625)"/>
       <path id="ArialMT-72" d="M 416 0 
L 416 3319 
L 922 3319 
L 922 2816 
Q 1116 3169 1280 3281 
Q 1444 3394 1641 3394 
Q 1925 3394 2219 3213 
L 2025 2691 
Q 1819 2813 1613 2813 
Q 1428 2813 1281 2702 
Q 1134 2591 1072 2394 
Q 978 2094 978 1738 
L 978 0 
L 416 0 
z
" transform="scale(0.015625)"/>
      </defs>
      <use xlink:href="#DejaVuSans-Oblique-50" transform="translate(0 0.578125)"/>
      <use xlink:href="#DejaVuSans-28" transform="translate(60.302734 0.578125)"/>
      <use xlink:href="#DejaVuSans-Oblique-62" transform="translate(99.316406 0.578125)"/>
      <use xlink:href="#DejaVuSans-Oblique-6e" transform="translate(162.792969 -15.828125) scale(0.7)"/>
      <use xlink:href="#DejaVuSans-2b" transform="translate(220.795898 -15.828125) scale(0.7)"/>
      <use xlink:href="#DejaVuSans-31" transform="translate(293.085938 -15.828125) scale(0.7)"/>
      <use xlink:href="#DejaVuSans-7c" transform="translate(340.356445 0.578125)"/>
      <use xlink:href="#DejaVuSans-Oblique-62" transform="translate(374.047852 0.578125)"/>
      <use xlink:href="#DejaVuSans-Oblique-6e" transform="translate(437.524414 -15.828125) scale(0.7)"/>
      <use xlink:href="#DejaVuSans-29" transform="translate(484.624023 0.578125)"/>
      <use xlink:href="#ArialMT-20" transform="translate(523.637695 0.578125)"/>
      <use xlink:href="#ArialMT-42" transform="translate(551.420898 0.578125)"/>
      <use xlink:href="#ArialMT-65" transform="translate(618.120117 0.578125)"/>
      <use xlink:href="#ArialMT-68" transform="translate(673.735352 0.578125)"/>
      <use xlink:href="#ArialMT-61" transform="translate(729.350586 0.578125)"/>
      <use xlink:href="#ArialMT-76" transform="translate(784.96582 0.578125)"/>
      <use xlink:href="#ArialMT-69" transform="translate(834.96582 0.578125)"/>
      <use xlink:href="#ArialMT-6f" transform="translate(857.182617 0.578125)"/>
      <use xlink:href="#ArialMT-72" transform="translate(912.797852 0.578125)"/>
     </g>
    </g>
   </g>
   <g id="matplotlib.axis_2">
    <g id="ytick_1">
     <g id="line2d_7">
      <defs>
       <path id="me5e0a5effa" d="M 0 0 
L -3.5 0 
" style="stroke: #000000; stroke-width: 0.8"/>
      </defs>
      <g>
       <use xlink:href="#me5e0a5effa" x="33.594693" y="118.357104" style="stroke: #000000; stroke-width: 0.8"/>
      </g>
     </g>
     <g id="text_8">
      <!-- $\mathdefault{0.0}$ -->
      <g transform="translate(19.594693 120.146557) scale(0.05 -0.05)">
       <use xlink:href="#ArialMT-30" transform="translate(0 0.125)"/>
       <use xlink:href="#ArialMT-2e" transform="translate(55.615234 0.125)"/>
       <use xlink:href="#ArialMT-30" transform="translate(83.398438 0.125)"/>
      </g>
     </g>
    </g>
    <g id="ytick_2">
     <g id="line2d_8">
      <g>
       <use xlink:href="#me5e0a5effa" x="33.594693" y="97.630981" style="stroke: #000000; stroke-width: 0.8"/>
      </g>
     </g>
     <g id="text_9">
      <!-- $\mathdefault{0.2}$ -->
      <g transform="translate(19.594693 99.420434) scale(0.05 -0.05)">
       <use xlink:href="#ArialMT-30" transform="translate(0 0.125)"/>
       <use xlink:href="#ArialMT-2e" transform="translate(55.615234 0.125)"/>
       <use xlink:href="#ArialMT-32" transform="translate(83.398438 0.125)"/>
      </g>
     </g>
    </g>
    <g id="ytick_3">
     <g id="line2d_9">
      <g>
       <use xlink:href="#me5e0a5effa" x="33.594693" y="76.904858" style="stroke: #000000; stroke-width: 0.8"/>
      </g>
     </g>
     <g id="text_10">
      <!-- $\mathdefault{0.4}$ -->
      <g transform="translate(19.594693 78.694311) scale(0.05 -0.05)">
       <use xlink:href="#ArialMT-30" transform="translate(0 0.125)"/>
       <use xlink:href="#ArialMT-2e" transform="translate(55.615234 0.125)"/>
       <use xlink:href="#ArialMT-34" transform="translate(83.398438 0.125)"/>
      </g>
     </g>
    </g>
    <g id="ytick_4">
     <g id="line2d_10">
      <g>
       <use xlink:href="#me5e0a5effa" x="33.594693" y="56.178735" style="stroke: #000000; stroke-width: 0.8"/>
      </g>
     </g>
     <g id="text_11">
      <!-- $\mathdefault{0.6}$ -->
      <g transform="translate(19.594693 57.968189) scale(0.05 -0.05)">
       <use xlink:href="#ArialMT-30" transform="translate(0 0.125)"/>
       <use xlink:href="#ArialMT-2e" transform="translate(55.615234 0.125)"/>
       <use xlink:href="#ArialMT-36" transform="translate(83.398438 0.125)"/>
      </g>
     </g>
    </g>
    <g id="ytick_5">
     <g id="line2d_11">
      <g>
       <use xlink:href="#me5e0a5effa" x="33.594693" y="35.452613" style="stroke: #000000; stroke-width: 0.8"/>
      </g>
     </g>
     <g id="text_12">
      <!-- $\mathdefault{0.8}$ -->
      <g transform="translate(19.594693 37.242066) scale(0.05 -0.05)">
       <use xlink:href="#ArialMT-30" transform="translate(0 0.125)"/>
       <use xlink:href="#ArialMT-2e" transform="translate(55.615234 0.125)"/>
       <use xlink:href="#ArialMT-38" transform="translate(83.398438 0.125)"/>
      </g>
     </g>
    </g>
    <g id="ytick_6">
     <g id="line2d_12">
      <g>
       <use xlink:href="#me5e0a5effa" x="33.594693" y="14.72649" style="stroke: #000000; stroke-width: 0.8"/>
      </g>
     </g>
     <g id="text_13">
      <!-- $\mathdefault{1.0}$ -->
      <g transform="translate(19.594693 16.515943) scale(0.05 -0.05)">
       <use xlink:href="#ArialMT-31" transform="translate(0 0.125)"/>
       <use xlink:href="#ArialMT-2e" transform="translate(55.615234 0.125)"/>
       <use xlink:href="#ArialMT-30" transform="translate(83.398438 0.125)"/>
      </g>
     </g>
    </g>
    <g id="text_14">
     <!-- $P(b_{n+1} | b_{n})$ Neuro -->
     <g transform="translate(13.914693 95.381797) rotate(-90) scale(0.07 -0.07)">
      <defs>
       <path id="ArialMT-4e" d="M 488 0 
L 488 4581 
L 1109 4581 
L 3516 984 
L 3516 4581 
L 4097 4581 
L 4097 0 
L 3475 0 
L 1069 3600 
L 1069 0 
L 488 0 
z
" transform="scale(0.015625)"/>
       <path id="ArialMT-75" d="M 2597 0 
L 2597 488 
Q 2209 -75 1544 -75 
Q 1250 -75 995 37 
Q 741 150 617 320 
Q 494 491 444 738 
Q 409 903 409 1263 
L 409 3319 
L 972 3319 
L 972 1478 
Q 972 1038 1006 884 
Q 1059 663 1231 536 
Q 1403 409 1656 409 
Q 1909 409 2131 539 
Q 2353 669 2445 892 
Q 2538 1116 2538 1541 
L 2538 3319 
L 3100 3319 
L 3100 0 
L 2597 0 
z
" transform="scale(0.015625)"/>
      </defs>
      <use xlink:href="#DejaVuSans-Oblique-50" transform="translate(0 0.578125)"/>
      <use xlink:href="#DejaVuSans-28" transform="translate(60.302734 0.578125)"/>
      <use xlink:href="#DejaVuSans-Oblique-62" transform="translate(99.316406 0.578125)"/>
      <use xlink:href="#DejaVuSans-Oblique-6e" transform="translate(162.792969 -15.828125) scale(0.7)"/>
      <use xlink:href="#DejaVuSans-2b" transform="translate(220.795898 -15.828125) scale(0.7)"/>
      <use xlink:href="#DejaVuSans-31" transform="translate(293.085938 -15.828125) scale(0.7)"/>
      <use xlink:href="#DejaVuSans-7c" transform="translate(340.356445 0.578125)"/>
      <use xlink:href="#DejaVuSans-Oblique-62" transform="translate(374.047852 0.578125)"/>
      <use xlink:href="#DejaVuSans-Oblique-6e" transform="translate(437.524414 -15.828125) scale(0.7)"/>
      <use xlink:href="#DejaVuSans-29" transform="translate(484.624023 0.578125)"/>
      <use xlink:href="#ArialMT-20" transform="translate(523.637695 0.578125)"/>
      <use xlink:href="#ArialMT-4e" transform="translate(551.420898 0.578125)"/>
      <use xlink:href="#ArialMT-65" transform="translate(623.637695 0.578125)"/>
      <use xlink:href="#ArialMT-75" transform="translate(679.25293 0.578125)"/>
      <use xlink:href="#ArialMT-72" transform="translate(734.868164 0.578125)"/>
      <use xlink:href="#ArialMT-6f" transform="translate(768.168945 0.578125)"/>
     </g>
    </g>
   </g>
   <g id="LineCollection_1">
    <path d="M 103.103032 19.791698 
L 103.103032 18.803104 
" clip-path="url(#pfeeb4538d9)" style="fill: none; stroke: #033198; stroke-width: 1.5"/>
    <path d="M 50.65583 116.817511 
L 50.65583 115.691525 
" clip-path="url(#pfeeb4538d9)" style="fill: none; stroke: #033198; stroke-width: 1.5"/>
    <path d="M 50.65583 116.823868 
L 50.65583 114.953689 
" clip-path="url(#pfeeb4538d9)" style="fill: none; stroke: #033198; stroke-width: 1.5"/>
    <path d="M 68.255256 115.963535 
L 68.255256 113.152041 
" clip-path="url(#pfeeb4538d9)" style="fill: none; stroke: #033198; stroke-width: 1.5"/>
    <path d="M 85.410592 20.232772 
L 85.410592 17.229829 
" clip-path="url(#pfeeb4538d9)" style="fill: none; stroke: #033198; stroke-width: 1.5"/>
    <path d="M 50.748845 118.254539 
L 50.748845 118.048679 
" clip-path="url(#pfeeb4538d9)" style="fill: none; stroke: #033198; stroke-width: 1.5"/>
    <path d="M 68.255256 114.512849 
L 68.255256 113.334503 
" clip-path="url(#pfeeb4538d9)" style="fill: none; stroke: #033198; stroke-width: 1.5"/>
    <path d="M 50.748845 118.298432 
L 50.748845 118.043204 
" clip-path="url(#pfeeb4538d9)" style="fill: none; stroke: #033198; stroke-width: 1.5"/>
    <path d="M 85.410592 20.003086 
L 85.410592 18.689321 
" clip-path="url(#pfeeb4538d9)" style="fill: none; stroke: #033198; stroke-width: 1.5"/>
   </g>
   <g id="line2d_13">
    <path d="M 33.594693 118.357104 
L 137.225307 14.72649 
" clip-path="url(#pfeeb4538d9)" style="fill: none; stroke: #000000; stroke-width: 1.5; stroke-linecap: square"/>
   </g>
   <g id="LineCollection_2">
    <path d="M 82.292498 21.310332 
L 82.292498 18.750144 
" clip-path="url(#pfeeb4538d9)" style="fill: none; stroke: #399dc7; stroke-width: 1.5"/>
    <path d="M 61.061097 116.272064 
L 61.061097 113.510438 
" clip-path="url(#pfeeb4538d9)" style="fill: none; stroke: #399dc7; stroke-width: 1.5"/>
    <path d="M 61.061097 116.810652 
L 61.061097 116.227765 
" clip-path="url(#pfeeb4538d9)" style="fill: none; stroke: #399dc7; stroke-width: 1.5"/>
    <path d="M 72.026315 115.892786 
L 72.026315 114.448078 
" clip-path="url(#pfeeb4538d9)" style="fill: none; stroke: #399dc7; stroke-width: 1.5"/>
    <path d="M 85.814524 19.287588 
L 85.814524 18.216991 
" clip-path="url(#pfeeb4538d9)" style="fill: none; stroke: #399dc7; stroke-width: 1.5"/>
    <path d="M 46.573853 117.759801 
L 46.573853 117.276149 
" clip-path="url(#pfeeb4538d9)" style="fill: none; stroke: #399dc7; stroke-width: 1.5"/>
    <path d="M 72.026315 115.635638 
L 72.026315 114.043817 
" clip-path="url(#pfeeb4538d9)" style="fill: none; stroke: #399dc7; stroke-width: 1.5"/>
    <path d="M 46.573853 118.125509 
L 46.573853 117.411903 
" clip-path="url(#pfeeb4538d9)" style="fill: none; stroke: #399dc7; stroke-width: 1.5"/>
    <path d="M 85.814524 19.470221 
L 85.814524 18.194307 
" clip-path="url(#pfeeb4538d9)" style="fill: none; stroke: #399dc7; stroke-width: 1.5"/>
   </g>
   <g id="line2d_14">
    <path d="M 33.594693 118.357104 
L 137.225307 14.72649 
" clip-path="url(#pfeeb4538d9)" style="fill: none; stroke: #000000; stroke-width: 1.5; stroke-linecap: square"/>
   </g>
   <g id="LineCollection_3">
    <path d="M 80.224241 20.210886 
L 80.224241 18.680193 
" clip-path="url(#pfeeb4538d9)" style="fill: none; stroke: #c1eac2; stroke-width: 1.5"/>
    <path d="M 62.095226 117.040245 
L 62.095226 115.761005 
" clip-path="url(#pfeeb4538d9)" style="fill: none; stroke: #c1eac2; stroke-width: 1.5"/>
    <path d="M 62.095226 116.05999 
L 62.095226 115.129077 
" clip-path="url(#pfeeb4538d9)" style="fill: none; stroke: #c1eac2; stroke-width: 1.5"/>
    <path d="M 82.026905 113.807925 
L 82.026905 111.086232 
" clip-path="url(#pfeeb4538d9)" style="fill: none; stroke: #c1eac2; stroke-width: 1.5"/>
    <path d="M 70.357008 22.665075 
L 70.357008 20.39412 
" clip-path="url(#pfeeb4538d9)" style="fill: none; stroke: #c1eac2; stroke-width: 1.5"/>
    <path d="M 52.03078 117.840059 
L 52.03078 117.087985 
" clip-path="url(#pfeeb4538d9)" style="fill: none; stroke: #c1eac2; stroke-width: 1.5"/>
    <path d="M 82.026905 113.433741 
L 82.026905 110.992197 
" clip-path="url(#pfeeb4538d9)" style="fill: none; stroke: #c1eac2; stroke-width: 1.5"/>
    <path d="M 52.03078 117.348673 
L 52.03078 115.195487 
" clip-path="url(#pfeeb4538d9)" style="fill: none; stroke: #c1eac2; stroke-width: 1.5"/>
    <path d="M 70.357008 23.865409 
L 70.357008 22.045888 
" clip-path="url(#pfeeb4538d9)" style="fill: none; stroke: #c1eac2; stroke-width: 1.5"/>
   </g>
   <g id="line2d_15">
    <path d="M 33.594693 118.357104 
L 137.225307 14.72649 
" clip-path="url(#pfeeb4538d9)" style="fill: none; stroke: #000000; stroke-width: 1.5; stroke-linecap: square"/>
   </g>
   <g id="LineCollection_4">
    <path d="M 74.887378 22.301917 
L 74.887378 19.891709 
" clip-path="url(#pfeeb4538d9)" style="fill: none; stroke: #b58b31; stroke-width: 1.5"/>
    <path d="M 64.763657 116.085438 
L 64.763657 114.383971 
" clip-path="url(#pfeeb4538d9)" style="fill: none; stroke: #b58b31; stroke-width: 1.5"/>
    <path d="M 64.763657 115.672033 
L 64.763657 114.546327 
" clip-path="url(#pfeeb4538d9)" style="fill: none; stroke: #b58b31; stroke-width: 1.5"/>
    <path d="M 77.169684 113.445192 
L 77.169684 110.14266 
" clip-path="url(#pfeeb4538d9)" style="fill: none; stroke: #b58b31; stroke-width: 1.5"/>
    <path d="M 69.852814 24.69342 
L 69.852814 22.021491 
" clip-path="url(#pfeeb4538d9)" style="fill: none; stroke: #b58b31; stroke-width: 1.5"/>
    <path d="M 57.392194 117.264695 
L 57.392194 115.313937 
" clip-path="url(#pfeeb4538d9)" style="fill: none; stroke: #b58b31; stroke-width: 1.5"/>
    <path d="M 77.169684 112.587143 
L 77.169684 109.461322 
" clip-path="url(#pfeeb4538d9)" style="fill: none; stroke: #b58b31; stroke-width: 1.5"/>
    <path d="M 57.392194 117.395242 
L 57.392194 116.229421 
" clip-path="url(#pfeeb4538d9)" style="fill: none; stroke: #b58b31; stroke-width: 1.5"/>
    <path d="M 69.852814 24.862513 
L 69.852814 22.345754 
" clip-path="url(#pfeeb4538d9)" style="fill: none; stroke: #b58b31; stroke-width: 1.5"/>
   </g>
   <g id="line2d_16">
    <path d="M 33.594693 118.357104 
L 137.225307 14.72649 
" clip-path="url(#pfeeb4538d9)" style="fill: none; stroke: #000000; stroke-width: 1.5; stroke-linecap: square"/>
   </g>
   <g id="LineCollection_5">
    <path d="M 68.875469 25.92656 
L 68.875469 20.337534 
" clip-path="url(#pfeeb4538d9)" style="fill: none; stroke: #7e1700; stroke-width: 1.5"/>
    <path d="M 67.769612 116.246042 
L 67.769612 114.399423 
" clip-path="url(#pfeeb4538d9)" style="fill: none; stroke: #7e1700; stroke-width: 1.5"/>
    <path d="M 67.769612 114.93278 
L 67.769612 111.039056 
" clip-path="url(#pfeeb4538d9)" style="fill: none; stroke: #7e1700; stroke-width: 1.5"/>
    <path d="M 68.360164 114.598162 
L 68.360164 109.098645 
" clip-path="url(#pfeeb4538d9)" style="fill: none; stroke: #7e1700; stroke-width: 1.5"/>
    <path d="M 71.585426 26.089226 
L 71.585426 20.737834 
" clip-path="url(#pfeeb4538d9)" style="fill: none; stroke: #7e1700; stroke-width: 1.5"/>
    <path d="M 64.469102 116.747145 
L 64.469102 115.610384 
" clip-path="url(#pfeeb4538d9)" style="fill: none; stroke: #7e1700; stroke-width: 1.5"/>
    <path d="M 68.360164 111.709954 
L 68.360164 107.181459 
" clip-path="url(#pfeeb4538d9)" style="fill: none; stroke: #7e1700; stroke-width: 1.5"/>
    <path d="M 64.469102 116.965798 
L 64.469102 112.810054 
" clip-path="url(#pfeeb4538d9)" style="fill: none; stroke: #7e1700; stroke-width: 1.5"/>
    <path d="M 71.585426 29.085816 
L 71.585426 25.128314 
" clip-path="url(#pfeeb4538d9)" style="fill: none; stroke: #7e1700; stroke-width: 1.5"/>
   </g>
   <g id="line2d_17">
    <path d="M 33.594693 118.357104 
L 137.225307 14.72649 
" clip-path="url(#pfeeb4538d9)" style="fill: none; stroke: #000000; stroke-width: 1.5; stroke-linecap: square"/>
   </g>
   <g id="line2d_18">
    <defs>
     <path id="m55c232a057" d="M 0 1.5 
C 0.397805 1.5 0.77937 1.341951 1.06066 1.06066 
C 1.341951 0.77937 1.5 0.397805 1.5 0 
C 1.5 -0.397805 1.341951 -0.77937 1.06066 -1.06066 
C 0.77937 -1.341951 0.397805 -1.5 0 -1.5 
C -0.397805 -1.5 -0.77937 -1.341951 -1.06066 -1.06066 
C -1.341951 -0.77937 -1.5 -0.397805 -1.5 0 
C -1.5 0.397805 -1.341951 0.77937 -1.06066 1.06066 
C -0.77937 1.341951 -0.397805 1.5 0 1.5 
z
" style="stroke: #033198"/>
    </defs>
    <g clip-path="url(#pfeeb4538d9)">
     <use xlink:href="#m55c232a057" x="103.103032" y="19.297401" style="fill: #033198; stroke: #033198"/>
     <use xlink:href="#m55c232a057" x="50.65583" y="116.254518" style="fill: #033198; stroke: #033198"/>
     <use xlink:href="#m55c232a057" x="50.65583" y="115.888779" style="fill: #033198; stroke: #033198"/>
     <use xlink:href="#m55c232a057" x="68.255256" y="114.557788" style="fill: #033198; stroke: #033198"/>
     <use xlink:href="#m55c232a057" x="85.410592" y="18.7313" style="fill: #033198; stroke: #033198"/>
     <use xlink:href="#m55c232a057" x="50.748845" y="118.151609" style="fill: #033198; stroke: #033198"/>
     <use xlink:href="#m55c232a057" x="68.255256" y="113.923676" style="fill: #033198; stroke: #033198"/>
     <use xlink:href="#m55c232a057" x="50.748845" y="118.170818" style="fill: #033198; stroke: #033198"/>
     <use xlink:href="#m55c232a057" x="85.410592" y="19.346204" style="fill: #033198; stroke: #033198"/>
    </g>
   </g>
   <g id="line2d_19">
    <defs>
     <path id="m23b335fb07" d="M 0 1.5 
C 0.397805 1.5 0.77937 1.341951 1.06066 1.06066 
C 1.341951 0.77937 1.5 0.397805 1.5 0 
C 1.5 -0.397805 1.341951 -0.77937 1.06066 -1.06066 
C 0.77937 -1.341951 0.397805 -1.5 0 -1.5 
C -0.397805 -1.5 -0.77937 -1.341951 -1.06066 -1.06066 
C -1.341951 -0.77937 -1.5 -0.397805 -1.5 0 
C -1.5 0.397805 -1.341951 0.77937 -1.06066 1.06066 
C -0.77937 1.341951 -0.397805 1.5 0 1.5 
z
" style="stroke: #399dc7"/>
    </defs>
    <g clip-path="url(#pfeeb4538d9)">
     <use xlink:href="#m23b335fb07" x="82.292498" y="20.030238" style="fill: #399dc7; stroke: #399dc7"/>
     <use xlink:href="#m23b335fb07" x="61.061097" y="114.891251" style="fill: #399dc7; stroke: #399dc7"/>
     <use xlink:href="#m23b335fb07" x="61.061097" y="116.519208" style="fill: #399dc7; stroke: #399dc7"/>
     <use xlink:href="#m23b335fb07" x="72.026315" y="115.170432" style="fill: #399dc7; stroke: #399dc7"/>
     <use xlink:href="#m23b335fb07" x="85.814524" y="18.75229" style="fill: #399dc7; stroke: #399dc7"/>
     <use xlink:href="#m23b335fb07" x="46.573853" y="117.517975" style="fill: #399dc7; stroke: #399dc7"/>
     <use xlink:href="#m23b335fb07" x="72.026315" y="114.839727" style="fill: #399dc7; stroke: #399dc7"/>
     <use xlink:href="#m23b335fb07" x="46.573853" y="117.768706" style="fill: #399dc7; stroke: #399dc7"/>
     <use xlink:href="#m23b335fb07" x="85.814524" y="18.832264" style="fill: #399dc7; stroke: #399dc7"/>
    </g>
   </g>
   <g id="line2d_20">
    <defs>
     <path id="m95204cf735" d="M 0 1.5 
C 0.397805 1.5 0.77937 1.341951 1.06066 1.06066 
C 1.341951 0.77937 1.5 0.397805 1.5 0 
C 1.5 -0.397805 1.341951 -0.77937 1.06066 -1.06066 
C 0.77937 -1.341951 0.397805 -1.5 0 -1.5 
C -0.397805 -1.5 -0.77937 -1.341951 -1.06066 -1.06066 
C -1.341951 -0.77937 -1.5 -0.397805 -1.5 0 
C -1.5 0.397805 -1.341951 0.77937 -1.06066 1.06066 
C -0.77937 1.341951 -0.397805 1.5 0 1.5 
z
" style="stroke: #c1eac2"/>
    </defs>
    <g clip-path="url(#pfeeb4538d9)">
     <use xlink:href="#m95204cf735" x="80.224241" y="19.44554" style="fill: #c1eac2; stroke: #c1eac2"/>
     <use xlink:href="#m95204cf735" x="62.095226" y="116.400625" style="fill: #c1eac2; stroke: #c1eac2"/>
     <use xlink:href="#m95204cf735" x="62.095226" y="115.594533" style="fill: #c1eac2; stroke: #c1eac2"/>
     <use xlink:href="#m95204cf735" x="82.026905" y="112.447078" style="fill: #c1eac2; stroke: #c1eac2"/>
     <use xlink:href="#m95204cf735" x="70.357008" y="21.529597" style="fill: #c1eac2; stroke: #c1eac2"/>
     <use xlink:href="#m95204cf735" x="52.03078" y="117.464022" style="fill: #c1eac2; stroke: #c1eac2"/>
     <use xlink:href="#m95204cf735" x="82.026905" y="112.212969" style="fill: #c1eac2; stroke: #c1eac2"/>
     <use xlink:href="#m95204cf735" x="52.03078" y="116.27208" style="fill: #c1eac2; stroke: #c1eac2"/>
     <use xlink:href="#m95204cf735" x="70.357008" y="22.955648" style="fill: #c1eac2; stroke: #c1eac2"/>
    </g>
   </g>
   <g id="line2d_21">
    <defs>
     <path id="mfcee8866d3" d="M 0 1.5 
C 0.397805 1.5 0.77937 1.341951 1.06066 1.06066 
C 1.341951 0.77937 1.5 0.397805 1.5 0 
C 1.5 -0.397805 1.341951 -0.77937 1.06066 -1.06066 
C 0.77937 -1.341951 0.397805 -1.5 0 -1.5 
C -0.397805 -1.5 -0.77937 -1.341951 -1.06066 -1.06066 
C -1.341951 -0.77937 -1.5 -0.397805 -1.5 0 
C -1.5 0.397805 -1.341951 0.77937 -1.06066 1.06066 
C -0.77937 1.341951 -0.397805 1.5 0 1.5 
z
" style="stroke: #b58b31"/>
    </defs>
    <g clip-path="url(#pfeeb4538d9)">
     <use xlink:href="#mfcee8866d3" x="74.887378" y="21.096813" style="fill: #b58b31; stroke: #b58b31"/>
     <use xlink:href="#mfcee8866d3" x="64.763657" y="115.234705" style="fill: #b58b31; stroke: #b58b31"/>
     <use xlink:href="#mfcee8866d3" x="64.763657" y="115.10918" style="fill: #b58b31; stroke: #b58b31"/>
     <use xlink:href="#mfcee8866d3" x="77.169684" y="111.793926" style="fill: #b58b31; stroke: #b58b31"/>
     <use xlink:href="#mfcee8866d3" x="69.852814" y="23.357456" style="fill: #b58b31; stroke: #b58b31"/>
     <use xlink:href="#mfcee8866d3" x="57.392194" y="116.289316" style="fill: #b58b31; stroke: #b58b31"/>
     <use xlink:href="#mfcee8866d3" x="77.169684" y="111.024233" style="fill: #b58b31; stroke: #b58b31"/>
     <use xlink:href="#mfcee8866d3" x="57.392194" y="116.812331" style="fill: #b58b31; stroke: #b58b31"/>
     <use xlink:href="#mfcee8866d3" x="69.852814" y="23.604133" style="fill: #b58b31; stroke: #b58b31"/>
    </g>
   </g>
   <g id="line2d_22">
    <defs>
     <path id="m55b7ba3658" d="M 0 1.5 
C 0.397805 1.5 0.77937 1.341951 1.06066 1.06066 
C 1.341951 0.77937 1.5 0.397805 1.5 0 
C 1.5 -0.397805 1.341951 -0.77937 1.06066 -1.06066 
C 0.77937 -1.341951 0.397805 -1.5 0 -1.5 
C -0.397805 -1.5 -0.77937 -1.341951 -1.06066 -1.06066 
C -1.341951 -0.77937 -1.5 -0.397805 -1.5 0 
C -1.5 0.397805 -1.341951 0.77937 -1.06066 1.06066 
C -0.77937 1.341951 -0.397805 1.5 0 1.5 
z
" style="stroke: #7e1700"/>
    </defs>
    <g clip-path="url(#pfeeb4538d9)">
     <use xlink:href="#m55b7ba3658" x="68.875469" y="23.132047" style="fill: #7e1700; stroke: #7e1700"/>
     <use xlink:href="#m55b7ba3658" x="67.769612" y="115.322732" style="fill: #7e1700; stroke: #7e1700"/>
     <use xlink:href="#m55b7ba3658" x="67.769612" y="112.985918" style="fill: #7e1700; stroke: #7e1700"/>
     <use xlink:href="#m55b7ba3658" x="68.360164" y="111.848404" style="fill: #7e1700; stroke: #7e1700"/>
     <use xlink:href="#m55b7ba3658" x="71.585426" y="23.41353" style="fill: #7e1700; stroke: #7e1700"/>
     <use xlink:href="#m55b7ba3658" x="64.469102" y="116.178764" style="fill: #7e1700; stroke: #7e1700"/>
     <use xlink:href="#m55b7ba3658" x="68.360164" y="109.445706" style="fill: #7e1700; stroke: #7e1700"/>
     <use xlink:href="#m55b7ba3658" x="64.469102" y="114.887926" style="fill: #7e1700; stroke: #7e1700"/>
     <use xlink:href="#m55b7ba3658" x="71.585426" y="27.107065" style="fill: #7e1700; stroke: #7e1700"/>
    </g>
   </g>
   <g id="patch_3">
    <path d="M 33.594693 118.357104 
L 33.594693 14.72649 
" style="fill: none; stroke: #000000; stroke-width: 0.8; stroke-linejoin: miter; stroke-linecap: square"/>
   </g>
   <g id="patch_4">
    <path d="M 33.594693 118.357104 
L 137.225307 118.357104 
" style="fill: none; stroke: #000000; stroke-width: 0.8; stroke-linejoin: miter; stroke-linecap: square"/>
   </g>
   <g id="text_15">
    <!-- Spearman ρ = 0.89 -->
    <g transform="translate(85.949682 105.636948) scale(0.06 -0.06)">
     <defs>
      <path id="ArialMT-53" d="M 288 1472 
L 859 1522 
Q 900 1178 1048 958 
Q 1197 738 1509 602 
Q 1822 466 2213 466 
Q 2559 466 2825 569 
Q 3091 672 3220 851 
Q 3350 1031 3350 1244 
Q 3350 1459 3225 1620 
Q 3100 1781 2813 1891 
Q 2628 1963 1997 2114 
Q 1366 2266 1113 2400 
Q 784 2572 623 2826 
Q 463 3081 463 3397 
Q 463 3744 659 4045 
Q 856 4347 1234 4503 
Q 1613 4659 2075 4659 
Q 2584 4659 2973 4495 
Q 3363 4331 3572 4012 
Q 3781 3694 3797 3291 
L 3216 3247 
Q 3169 3681 2898 3903 
Q 2628 4125 2100 4125 
Q 1550 4125 1298 3923 
Q 1047 3722 1047 3438 
Q 1047 3191 1225 3031 
Q 1400 2872 2139 2705 
Q 2878 2538 3153 2413 
Q 3553 2228 3743 1945 
Q 3934 1663 3934 1294 
Q 3934 928 3725 604 
Q 3516 281 3123 101 
Q 2731 -78 2241 -78 
Q 1619 -78 1198 103 
Q 778 284 539 648 
Q 300 1013 288 1472 
z
" transform="scale(0.015625)"/>
      <path id="ArialMT-70" d="M 422 -1272 
L 422 3319 
L 934 3319 
L 934 2888 
Q 1116 3141 1344 3267 
Q 1572 3394 1897 3394 
Q 2322 3394 2647 3175 
Q 2972 2956 3137 2557 
Q 3303 2159 3303 1684 
Q 3303 1175 3120 767 
Q 2938 359 2589 142 
Q 2241 -75 1856 -75 
Q 1575 -75 1351 44 
Q 1128 163 984 344 
L 984 -1272 
L 422 -1272 
z
M 931 1641 
Q 931 1000 1190 694 
Q 1450 388 1819 388 
Q 2194 388 2461 705 
Q 2728 1022 2728 1688 
Q 2728 2322 2467 2637 
Q 2206 2953 1844 2953 
Q 1484 2953 1207 2617 
Q 931 2281 931 1641 
z
" transform="scale(0.015625)"/>
      <path id="ArialMT-6d" d="M 422 0 
L 422 3319 
L 925 3319 
L 925 2853 
Q 1081 3097 1340 3245 
Q 1600 3394 1931 3394 
Q 2300 3394 2536 3241 
Q 2772 3088 2869 2813 
Q 3263 3394 3894 3394 
Q 4388 3394 4653 3120 
Q 4919 2847 4919 2278 
L 4919 0 
L 4359 0 
L 4359 2091 
Q 4359 2428 4304 2576 
Q 4250 2725 4106 2815 
Q 3963 2906 3769 2906 
Q 3419 2906 3187 2673 
Q 2956 2441 2956 1928 
L 2956 0 
L 2394 0 
L 2394 2156 
Q 2394 2531 2256 2718 
Q 2119 2906 1806 2906 
Q 1569 2906 1367 2781 
Q 1166 2656 1075 2415 
Q 984 2175 984 1722 
L 984 0 
L 422 0 
z
" transform="scale(0.015625)"/>
      <path id="ArialMT-6e" d="M 422 0 
L 422 3319 
L 928 3319 
L 928 2847 
Q 1294 3394 1984 3394 
Q 2284 3394 2536 3286 
Q 2788 3178 2913 3003 
Q 3038 2828 3088 2588 
Q 3119 2431 3119 2041 
L 3119 0 
L 2556 0 
L 2556 2019 
Q 2556 2363 2490 2533 
Q 2425 2703 2258 2804 
Q 2091 2906 1866 2906 
Q 1506 2906 1245 2678 
Q 984 2450 984 1813 
L 984 0 
L 422 0 
z
" transform="scale(0.015625)"/>
      <path id="ArialMT-3c1" d="M 409 -1272 
L 409 1544 
Q 409 2488 781 2941 
Q 1153 3394 1863 3394 
Q 2569 3394 2992 2912 
Q 3416 2431 3416 1663 
Q 3416 891 3011 408 
Q 2606 -75 1947 -75 
Q 1331 -75 972 316 
L 972 -1272 
L 409 -1272 
z
M 1881 2928 
Q 1472 2928 1225 2614 
Q 978 2300 978 1616 
Q 978 1000 1222 694 
Q 1466 388 1884 388 
Q 2306 388 2572 705 
Q 2838 1022 2838 1631 
Q 2838 2325 2553 2626 
Q 2269 2928 1881 2928 
z
" transform="scale(0.015625)"/>
      <path id="ArialMT-3d" d="M 3381 2694 
L 356 2694 
L 356 3219 
L 3381 3219 
L 3381 2694 
z
M 3381 1303 
L 356 1303 
L 356 1828 
L 3381 1828 
L 3381 1303 
z
" transform="scale(0.015625)"/>
      <path id="ArialMT-39" d="M 350 1059 
L 891 1109 
Q 959 728 1153 556 
Q 1347 384 1650 384 
Q 1909 384 2104 503 
Q 2300 622 2425 820 
Q 2550 1019 2634 1356 
Q 2719 1694 2719 2044 
Q 2719 2081 2716 2156 
Q 2547 1888 2255 1720 
Q 1963 1553 1622 1553 
Q 1053 1553 659 1965 
Q 266 2378 266 3053 
Q 266 3750 677 4175 
Q 1088 4600 1706 4600 
Q 2153 4600 2523 4359 
Q 2894 4119 3086 3673 
Q 3278 3228 3278 2384 
Q 3278 1506 3087 986 
Q 2897 466 2520 194 
Q 2144 -78 1638 -78 
Q 1100 -78 759 220 
Q 419 519 350 1059 
z
M 2653 3081 
Q 2653 3566 2395 3850 
Q 2138 4134 1775 4134 
Q 1400 4134 1122 3828 
Q 844 3522 844 3034 
Q 844 2597 1108 2323 
Q 1372 2050 1759 2050 
Q 2150 2050 2401 2323 
Q 2653 2597 2653 3081 
z
" transform="scale(0.015625)"/>
     </defs>
     <use xlink:href="#ArialMT-53"/>
     <use xlink:href="#ArialMT-70" x="66.699219"/>
     <use xlink:href="#ArialMT-65" x="122.314453"/>
     <use xlink:href="#ArialMT-61" x="177.929688"/>
     <use xlink:href="#ArialMT-72" x="233.544922"/>
     <use xlink:href="#ArialMT-6d" x="266.845703"/>
     <use xlink:href="#ArialMT-61" x="350.146484"/>
     <use xlink:href="#ArialMT-6e" x="405.761719"/>
     <use xlink:href="#ArialMT-20" x="461.376953"/>
     <use xlink:href="#ArialMT-3c1" x="489.160156"/>
     <use xlink:href="#ArialMT-20" x="546.044922"/>
     <use xlink:href="#ArialMT-3d" x="573.828125"/>
     <use xlink:href="#ArialMT-20" x="632.226562"/>
     <use xlink:href="#ArialMT-30" x="660.009766"/>
     <use xlink:href="#ArialMT-2e" x="715.625"/>
     <use xlink:href="#ArialMT-38" x="743.408203"/>
     <use xlink:href="#ArialMT-39" x="799.023438"/>
    </g>
    <!-- RMSE = 0.36 -->
    <g transform="translate(101.375307 111.983073) scale(0.06 -0.06)">
     <defs>
      <path id="ArialMT-52" d="M 503 0 
L 503 4581 
L 2534 4581 
Q 3147 4581 3465 4457 
Q 3784 4334 3975 4021 
Q 4166 3709 4166 3331 
Q 4166 2844 3850 2509 
Q 3534 2175 2875 2084 
Q 3116 1969 3241 1856 
Q 3506 1613 3744 1247 
L 4541 0 
L 3778 0 
L 3172 953 
Q 2906 1366 2734 1584 
Q 2563 1803 2427 1890 
Q 2291 1978 2150 2013 
Q 2047 2034 1813 2034 
L 1109 2034 
L 1109 0 
L 503 0 
z
M 1109 2559 
L 2413 2559 
Q 2828 2559 3062 2645 
Q 3297 2731 3419 2920 
Q 3541 3109 3541 3331 
Q 3541 3656 3305 3865 
Q 3069 4075 2559 4075 
L 1109 4075 
L 1109 2559 
z
" transform="scale(0.015625)"/>
      <path id="ArialMT-4d" d="M 475 0 
L 475 4581 
L 1388 4581 
L 2472 1338 
Q 2622 884 2691 659 
Q 2769 909 2934 1394 
L 4031 4581 
L 4847 4581 
L 4847 0 
L 4263 0 
L 4263 3834 
L 2931 0 
L 2384 0 
L 1059 3900 
L 1059 0 
L 475 0 
z
" transform="scale(0.015625)"/>
      <path id="ArialMT-45" d="M 506 0 
L 506 4581 
L 3819 4581 
L 3819 4041 
L 1113 4041 
L 1113 2638 
L 3647 2638 
L 3647 2100 
L 1113 2100 
L 1113 541 
L 3925 541 
L 3925 0 
L 506 0 
z
" transform="scale(0.015625)"/>
      <path id="ArialMT-33" d="M 269 1209 
L 831 1284 
Q 928 806 1161 595 
Q 1394 384 1728 384 
Q 2125 384 2398 659 
Q 2672 934 2672 1341 
Q 2672 1728 2419 1979 
Q 2166 2231 1775 2231 
Q 1616 2231 1378 2169 
L 1441 2663 
Q 1497 2656 1531 2656 
Q 1891 2656 2178 2843 
Q 2466 3031 2466 3422 
Q 2466 3731 2256 3934 
Q 2047 4138 1716 4138 
Q 1388 4138 1169 3931 
Q 950 3725 888 3313 
L 325 3413 
Q 428 3978 793 4289 
Q 1159 4600 1703 4600 
Q 2078 4600 2393 4439 
Q 2709 4278 2876 4000 
Q 3044 3722 3044 3409 
Q 3044 3113 2884 2869 
Q 2725 2625 2413 2481 
Q 2819 2388 3044 2092 
Q 3269 1797 3269 1353 
Q 3269 753 2831 336 
Q 2394 -81 1725 -81 
Q 1122 -81 723 278 
Q 325 638 269 1209 
z
" transform="scale(0.015625)"/>
     </defs>
     <use xlink:href="#ArialMT-52"/>
     <use xlink:href="#ArialMT-4d" x="72.216797"/>
     <use xlink:href="#ArialMT-53" x="155.517578"/>
     <use xlink:href="#ArialMT-45" x="222.216797"/>
     <use xlink:href="#ArialMT-20" x="288.916016"/>
     <use xlink:href="#ArialMT-3d" x="316.699219"/>
     <use xlink:href="#ArialMT-20" x="375.097656"/>
     <use xlink:href="#ArialMT-30" x="402.880859"/>
     <use xlink:href="#ArialMT-2e" x="458.496094"/>
     <use xlink:href="#ArialMT-33" x="486.279297"/>
     <use xlink:href="#ArialMT-36" x="541.894531"/>
    </g>
   </g>
   <g id="text_16">
    <!-- Spearman ρ = 0.89 -->
    <g transform="translate(85.949682 105.636948) scale(0.06 -0.06)">
     <use xlink:href="#ArialMT-53"/>
     <use xlink:href="#ArialMT-70" x="66.699219"/>
     <use xlink:href="#ArialMT-65" x="122.314453"/>
     <use xlink:href="#ArialMT-61" x="177.929688"/>
     <use xlink:href="#ArialMT-72" x="233.544922"/>
     <use xlink:href="#ArialMT-6d" x="266.845703"/>
     <use xlink:href="#ArialMT-61" x="350.146484"/>
     <use xlink:href="#ArialMT-6e" x="405.761719"/>
     <use xlink:href="#ArialMT-20" x="461.376953"/>
     <use xlink:href="#ArialMT-3c1" x="489.160156"/>
     <use xlink:href="#ArialMT-20" x="546.044922"/>
     <use xlink:href="#ArialMT-3d" x="573.828125"/>
     <use xlink:href="#ArialMT-20" x="632.226562"/>
     <use xlink:href="#ArialMT-30" x="660.009766"/>
     <use xlink:href="#ArialMT-2e" x="715.625"/>
     <use xlink:href="#ArialMT-38" x="743.408203"/>
     <use xlink:href="#ArialMT-39" x="799.023438"/>
    </g>
    <!-- RMSE = 0.36 -->
    <g transform="translate(101.375307 111.983073) scale(0.06 -0.06)">
     <use xlink:href="#ArialMT-52"/>
     <use xlink:href="#ArialMT-4d" x="72.216797"/>
     <use xlink:href="#ArialMT-53" x="155.517578"/>
     <use xlink:href="#ArialMT-45" x="222.216797"/>
     <use xlink:href="#ArialMT-20" x="288.916016"/>
     <use xlink:href="#ArialMT-3d" x="316.699219"/>
     <use xlink:href="#ArialMT-20" x="375.097656"/>
     <use xlink:href="#ArialMT-30" x="402.880859"/>
     <use xlink:href="#ArialMT-2e" x="458.496094"/>
     <use xlink:href="#ArialMT-33" x="486.279297"/>
     <use xlink:href="#ArialMT-36" x="541.894531"/>
    </g>
   </g>
   <g id="text_17">
    <!-- Spearman ρ = 0.89 -->
    <g transform="translate(85.949682 105.636948) scale(0.06 -0.06)">
     <use xlink:href="#ArialMT-53"/>
     <use xlink:href="#ArialMT-70" x="66.699219"/>
     <use xlink:href="#ArialMT-65" x="122.314453"/>
     <use xlink:href="#ArialMT-61" x="177.929688"/>
     <use xlink:href="#ArialMT-72" x="233.544922"/>
     <use xlink:href="#ArialMT-6d" x="266.845703"/>
     <use xlink:href="#ArialMT-61" x="350.146484"/>
     <use xlink:href="#ArialMT-6e" x="405.761719"/>
     <use xlink:href="#ArialMT-20" x="461.376953"/>
     <use xlink:href="#ArialMT-3c1" x="489.160156"/>
     <use xlink:href="#ArialMT-20" x="546.044922"/>
     <use xlink:href="#ArialMT-3d" x="573.828125"/>
     <use xlink:href="#ArialMT-20" x="632.226562"/>
     <use xlink:href="#ArialMT-30" x="660.009766"/>
     <use xlink:href="#ArialMT-2e" x="715.625"/>
     <use xlink:href="#ArialMT-38" x="743.408203"/>
     <use xlink:href="#ArialMT-39" x="799.023438"/>
    </g>
    <!-- RMSE = 0.36 -->
    <g transform="translate(101.375307 111.983073) scale(0.06 -0.06)">
     <use xlink:href="#ArialMT-52"/>
     <use xlink:href="#ArialMT-4d" x="72.216797"/>
     <use xlink:href="#ArialMT-53" x="155.517578"/>
     <use xlink:href="#ArialMT-45" x="222.216797"/>
     <use xlink:href="#ArialMT-20" x="288.916016"/>
     <use xlink:href="#ArialMT-3d" x="316.699219"/>
     <use xlink:href="#ArialMT-20" x="375.097656"/>
     <use xlink:href="#ArialMT-30" x="402.880859"/>
     <use xlink:href="#ArialMT-2e" x="458.496094"/>
     <use xlink:href="#ArialMT-33" x="486.279297"/>
     <use xlink:href="#ArialMT-36" x="541.894531"/>
    </g>
   </g>
   <g id="text_18">
    <!-- Spearman ρ = 0.89 -->
    <g transform="translate(85.949682 105.636948) scale(0.06 -0.06)">
     <use xlink:href="#ArialMT-53"/>
     <use xlink:href="#ArialMT-70" x="66.699219"/>
     <use xlink:href="#ArialMT-65" x="122.314453"/>
     <use xlink:href="#ArialMT-61" x="177.929688"/>
     <use xlink:href="#ArialMT-72" x="233.544922"/>
     <use xlink:href="#ArialMT-6d" x="266.845703"/>
     <use xlink:href="#ArialMT-61" x="350.146484"/>
     <use xlink:href="#ArialMT-6e" x="405.761719"/>
     <use xlink:href="#ArialMT-20" x="461.376953"/>
     <use xlink:href="#ArialMT-3c1" x="489.160156"/>
     <use xlink:href="#ArialMT-20" x="546.044922"/>
     <use xlink:href="#ArialMT-3d" x="573.828125"/>
     <use xlink:href="#ArialMT-20" x="632.226562"/>
     <use xlink:href="#ArialMT-30" x="660.009766"/>
     <use xlink:href="#ArialMT-2e" x="715.625"/>
     <use xlink:href="#ArialMT-38" x="743.408203"/>
     <use xlink:href="#ArialMT-39" x="799.023438"/>
    </g>
    <!-- RMSE = 0.36 -->
    <g transform="translate(101.375307 111.983073) scale(0.06 -0.06)">
     <use xlink:href="#ArialMT-52"/>
     <use xlink:href="#ArialMT-4d" x="72.216797"/>
     <use xlink:href="#ArialMT-53" x="155.517578"/>
     <use xlink:href="#ArialMT-45" x="222.216797"/>
     <use xlink:href="#ArialMT-20" x="288.916016"/>
     <use xlink:href="#ArialMT-3d" x="316.699219"/>
     <use xlink:href="#ArialMT-20" x="375.097656"/>
     <use xlink:href="#ArialMT-30" x="402.880859"/>
     <use xlink:href="#ArialMT-2e" x="458.496094"/>
     <use xlink:href="#ArialMT-33" x="486.279297"/>
     <use xlink:href="#ArialMT-36" x="541.894531"/>
    </g>
   </g>
   <g id="text_19">
    <!-- Spearman ρ = 0.89 -->
    <g transform="translate(85.949682 105.636948) scale(0.06 -0.06)">
     <use xlink:href="#ArialMT-53"/>
     <use xlink:href="#ArialMT-70" x="66.699219"/>
     <use xlink:href="#ArialMT-65" x="122.314453"/>
     <use xlink:href="#ArialMT-61" x="177.929688"/>
     <use xlink:href="#ArialMT-72" x="233.544922"/>
     <use xlink:href="#ArialMT-6d" x="266.845703"/>
     <use xlink:href="#ArialMT-61" x="350.146484"/>
     <use xlink:href="#ArialMT-6e" x="405.761719"/>
     <use xlink:href="#ArialMT-20" x="461.376953"/>
     <use xlink:href="#ArialMT-3c1" x="489.160156"/>
     <use xlink:href="#ArialMT-20" x="546.044922"/>
     <use xlink:href="#ArialMT-3d" x="573.828125"/>
     <use xlink:href="#ArialMT-20" x="632.226562"/>
     <use xlink:href="#ArialMT-30" x="660.009766"/>
     <use xlink:href="#ArialMT-2e" x="715.625"/>
     <use xlink:href="#ArialMT-38" x="743.408203"/>
     <use xlink:href="#ArialMT-39" x="799.023438"/>
    </g>
    <!-- RMSE = 0.36 -->
    <g transform="translate(101.375307 111.983073) scale(0.06 -0.06)">
     <use xlink:href="#ArialMT-52"/>
     <use xlink:href="#ArialMT-4d" x="72.216797"/>
     <use xlink:href="#ArialMT-53" x="155.517578"/>
     <use xlink:href="#ArialMT-45" x="222.216797"/>
     <use xlink:href="#ArialMT-20" x="288.916016"/>
     <use xlink:href="#ArialMT-3d" x="316.699219"/>
     <use xlink:href="#ArialMT-20" x="375.097656"/>
     <use xlink:href="#ArialMT-30" x="402.880859"/>
     <use xlink:href="#ArialMT-2e" x="458.496094"/>
     <use xlink:href="#ArialMT-33" x="486.279297"/>
     <use xlink:href="#ArialMT-36" x="541.894531"/>
    </g>
   </g>
   <g id="text_20">
    <!-- original neural data -->
    <g transform="translate(51.389375 8.72649) scale(0.08 -0.08)">
     <defs>
      <path id="ArialMT-67" d="M 319 -275 
L 866 -356 
Q 900 -609 1056 -725 
Q 1266 -881 1628 -881 
Q 2019 -881 2231 -725 
Q 2444 -569 2519 -288 
Q 2563 -116 2559 434 
Q 2191 0 1641 0 
Q 956 0 581 494 
Q 206 988 206 1678 
Q 206 2153 378 2554 
Q 550 2956 876 3175 
Q 1203 3394 1644 3394 
Q 2231 3394 2613 2919 
L 2613 3319 
L 3131 3319 
L 3131 450 
Q 3131 -325 2973 -648 
Q 2816 -972 2473 -1159 
Q 2131 -1347 1631 -1347 
Q 1038 -1347 672 -1080 
Q 306 -813 319 -275 
z
M 784 1719 
Q 784 1066 1043 766 
Q 1303 466 1694 466 
Q 2081 466 2343 764 
Q 2606 1063 2606 1700 
Q 2606 2309 2336 2618 
Q 2066 2928 1684 2928 
Q 1309 2928 1046 2623 
Q 784 2319 784 1719 
z
" transform="scale(0.015625)"/>
      <path id="ArialMT-6c" d="M 409 0 
L 409 4581 
L 972 4581 
L 972 0 
L 409 0 
z
" transform="scale(0.015625)"/>
      <path id="ArialMT-64" d="M 2575 0 
L 2575 419 
Q 2259 -75 1647 -75 
Q 1250 -75 917 144 
Q 584 363 401 755 
Q 219 1147 219 1656 
Q 219 2153 384 2558 
Q 550 2963 881 3178 
Q 1213 3394 1622 3394 
Q 1922 3394 2156 3267 
Q 2391 3141 2538 2938 
L 2538 4581 
L 3097 4581 
L 3097 0 
L 2575 0 
z
M 797 1656 
Q 797 1019 1065 703 
Q 1334 388 1700 388 
Q 2069 388 2326 689 
Q 2584 991 2584 1609 
Q 2584 2291 2321 2609 
Q 2059 2928 1675 2928 
Q 1300 2928 1048 2622 
Q 797 2316 797 1656 
z
" transform="scale(0.015625)"/>
      <path id="ArialMT-74" d="M 1650 503 
L 1731 6 
Q 1494 -44 1306 -44 
Q 1000 -44 831 53 
Q 663 150 594 308 
Q 525 466 525 972 
L 525 2881 
L 113 2881 
L 113 3319 
L 525 3319 
L 525 4141 
L 1084 4478 
L 1084 3319 
L 1650 3319 
L 1650 2881 
L 1084 2881 
L 1084 941 
Q 1084 700 1114 631 
Q 1144 563 1211 522 
Q 1278 481 1403 481 
Q 1497 481 1650 503 
z
" transform="scale(0.015625)"/>
     </defs>
     <use xlink:href="#ArialMT-6f"/>
     <use xlink:href="#ArialMT-72" x="55.615234"/>
     <use xlink:href="#ArialMT-69" x="88.916016"/>
     <use xlink:href="#ArialMT-67" x="111.132812"/>
     <use xlink:href="#ArialMT-69" x="166.748047"/>
     <use xlink:href="#ArialMT-6e" x="188.964844"/>
     <use xlink:href="#ArialMT-61" x="244.580078"/>
     <use xlink:href="#ArialMT-6c" x="300.195312"/>
     <use xlink:href="#ArialMT-20" x="322.412109"/>
     <use xlink:href="#ArialMT-6e" x="350.195312"/>
     <use xlink:href="#ArialMT-65" x="405.810547"/>
     <use xlink:href="#ArialMT-75" x="461.425781"/>
     <use xlink:href="#ArialMT-72" x="517.041016"/>
     <use xlink:href="#ArialMT-61" x="550.341797"/>
     <use xlink:href="#ArialMT-6c" x="605.957031"/>
     <use xlink:href="#ArialMT-20" x="628.173828"/>
     <use xlink:href="#ArialMT-64" x="655.957031"/>
     <use xlink:href="#ArialMT-61" x="711.572266"/>
     <use xlink:href="#ArialMT-74" x="767.1875"/>
     <use xlink:href="#ArialMT-61" x="794.970703"/>
    </g>
   </g>
  </g>
  <g id="axes_2">
   <g id="patch_5">
    <path d="M 172.344693 118.357104 
L 275.975307 118.357104 
L 275.975307 14.72649 
L 172.344693 14.72649 
L 172.344693 118.357104 
z
" style="fill: none"/>
   </g>
   <g id="matplotlib.axis_3">
    <g id="xtick_7">
     <g id="line2d_23">
      <g>
       <use xlink:href="#m925dc29c30" x="172.344693" y="118.357104" style="stroke: #000000; stroke-width: 0.8"/>
      </g>
     </g>
     <g id="text_21">
      <!-- $\mathdefault{0.0}$ -->
      <g transform="translate(168.844693 128.93601) scale(0.05 -0.05)">
       <use xlink:href="#ArialMT-30" transform="translate(0 0.125)"/>
       <use xlink:href="#ArialMT-2e" transform="translate(55.615234 0.125)"/>
       <use xlink:href="#ArialMT-30" transform="translate(83.398438 0.125)"/>
      </g>
     </g>
    </g>
    <g id="xtick_8">
     <g id="line2d_24">
      <g>
       <use xlink:href="#m925dc29c30" x="193.070816" y="118.357104" style="stroke: #000000; stroke-width: 0.8"/>
      </g>
     </g>
     <g id="text_22">
      <!-- $\mathdefault{0.2}$ -->
      <g transform="translate(189.570816 128.93601) scale(0.05 -0.05)">
       <use xlink:href="#ArialMT-30" transform="translate(0 0.125)"/>
       <use xlink:href="#ArialMT-2e" transform="translate(55.615234 0.125)"/>
       <use xlink:href="#ArialMT-32" transform="translate(83.398438 0.125)"/>
      </g>
     </g>
    </g>
    <g id="xtick_9">
     <g id="line2d_25">
      <g>
       <use xlink:href="#m925dc29c30" x="213.796939" y="118.357104" style="stroke: #000000; stroke-width: 0.8"/>
      </g>
     </g>
     <g id="text_23">
      <!-- $\mathdefault{0.4}$ -->
      <g transform="translate(210.296939 128.93601) scale(0.05 -0.05)">
       <use xlink:href="#ArialMT-30" transform="translate(0 0.125)"/>
       <use xlink:href="#ArialMT-2e" transform="translate(55.615234 0.125)"/>
       <use xlink:href="#ArialMT-34" transform="translate(83.398438 0.125)"/>
      </g>
     </g>
    </g>
    <g id="xtick_10">
     <g id="line2d_26">
      <g>
       <use xlink:href="#m925dc29c30" x="234.523061" y="118.357104" style="stroke: #000000; stroke-width: 0.8"/>
      </g>
     </g>
     <g id="text_24">
      <!-- $\mathdefault{0.6}$ -->
      <g transform="translate(231.023061 128.93601) scale(0.05 -0.05)">
       <use xlink:href="#ArialMT-30" transform="translate(0 0.125)"/>
       <use xlink:href="#ArialMT-2e" transform="translate(55.615234 0.125)"/>
       <use xlink:href="#ArialMT-36" transform="translate(83.398438 0.125)"/>
      </g>
     </g>
    </g>
    <g id="xtick_11">
     <g id="line2d_27">
      <g>
       <use xlink:href="#m925dc29c30" x="255.249184" y="118.357104" style="stroke: #000000; stroke-width: 0.8"/>
      </g>
     </g>
     <g id="text_25">
      <!-- $\mathdefault{0.8}$ -->
      <g transform="translate(251.749184 128.93601) scale(0.05 -0.05)">
       <use xlink:href="#ArialMT-30" transform="translate(0 0.125)"/>
       <use xlink:href="#ArialMT-2e" transform="translate(55.615234 0.125)"/>
       <use xlink:href="#ArialMT-38" transform="translate(83.398438 0.125)"/>
      </g>
     </g>
    </g>
    <g id="xtick_12">
     <g id="line2d_28">
      <g>
       <use xlink:href="#m925dc29c30" x="275.975307" y="118.357104" style="stroke: #000000; stroke-width: 0.8"/>
      </g>
     </g>
     <g id="text_26">
      <!-- $\mathdefault{1.0}$ -->
      <g transform="translate(272.475307 128.93601) scale(0.05 -0.05)">
       <use xlink:href="#ArialMT-31" transform="translate(0 0.125)"/>
       <use xlink:href="#ArialMT-2e" transform="translate(55.615234 0.125)"/>
       <use xlink:href="#ArialMT-30" transform="translate(83.398438 0.125)"/>
      </g>
     </g>
    </g>
    <g id="text_27">
     <!-- $P(b_{n+1} | b_{n})$ Behavior -->
     <g transform="translate(191.015 139.31976) scale(0.07 -0.07)">
      <use xlink:href="#DejaVuSans-Oblique-50" transform="translate(0 0.578125)"/>
      <use xlink:href="#DejaVuSans-28" transform="translate(60.302734 0.578125)"/>
      <use xlink:href="#DejaVuSans-Oblique-62" transform="translate(99.316406 0.578125)"/>
      <use xlink:href="#DejaVuSans-Oblique-6e" transform="translate(162.792969 -15.828125) scale(0.7)"/>
      <use xlink:href="#DejaVuSans-2b" transform="translate(220.795898 -15.828125) scale(0.7)"/>
      <use xlink:href="#DejaVuSans-31" transform="translate(293.085938 -15.828125) scale(0.7)"/>
      <use xlink:href="#DejaVuSans-7c" transform="translate(340.356445 0.578125)"/>
      <use xlink:href="#DejaVuSans-Oblique-62" transform="translate(374.047852 0.578125)"/>
      <use xlink:href="#DejaVuSans-Oblique-6e" transform="translate(437.524414 -15.828125) scale(0.7)"/>
      <use xlink:href="#DejaVuSans-29" transform="translate(484.624023 0.578125)"/>
      <use xlink:href="#ArialMT-20" transform="translate(523.637695 0.578125)"/>
      <use xlink:href="#ArialMT-42" transform="translate(551.420898 0.578125)"/>
      <use xlink:href="#ArialMT-65" transform="translate(618.120117 0.578125)"/>
      <use xlink:href="#ArialMT-68" transform="translate(673.735352 0.578125)"/>
      <use xlink:href="#ArialMT-61" transform="translate(729.350586 0.578125)"/>
      <use xlink:href="#ArialMT-76" transform="translate(784.96582 0.578125)"/>
      <use xlink:href="#ArialMT-69" transform="translate(834.96582 0.578125)"/>
      <use xlink:href="#ArialMT-6f" transform="translate(857.182617 0.578125)"/>
      <use xlink:href="#ArialMT-72" transform="translate(912.797852 0.578125)"/>
     </g>
    </g>
   </g>
   <g id="matplotlib.axis_4">
    <g id="ytick_7">
     <g id="line2d_29">
      <g>
       <use xlink:href="#me5e0a5effa" x="172.344693" y="118.357104" style="stroke: #000000; stroke-width: 0.8"/>
      </g>
     </g>
    </g>
    <g id="ytick_8">
     <g id="line2d_30">
      <g>
       <use xlink:href="#me5e0a5effa" x="172.344693" y="97.630981" style="stroke: #000000; stroke-width: 0.8"/>
      </g>
     </g>
    </g>
    <g id="ytick_9">
     <g id="line2d_31">
      <g>
       <use xlink:href="#me5e0a5effa" x="172.344693" y="76.904858" style="stroke: #000000; stroke-width: 0.8"/>
      </g>
     </g>
    </g>
    <g id="ytick_10">
     <g id="line2d_32">
      <g>
       <use xlink:href="#me5e0a5effa" x="172.344693" y="56.178735" style="stroke: #000000; stroke-width: 0.8"/>
      </g>
     </g>
    </g>
    <g id="ytick_11">
     <g id="line2d_33">
      <g>
       <use xlink:href="#me5e0a5effa" x="172.344693" y="35.452613" style="stroke: #000000; stroke-width: 0.8"/>
      </g>
     </g>
    </g>
    <g id="ytick_12">
     <g id="line2d_34">
      <g>
       <use xlink:href="#me5e0a5effa" x="172.344693" y="14.72649" style="stroke: #000000; stroke-width: 0.8"/>
      </g>
     </g>
    </g>
    <g id="text_28">
     <!-- $P(b_{n+1} | b_{n})$ Neuro -->
     <g transform="translate(163.164693 95.381797) rotate(-90) scale(0.07 -0.07)">
      <use xlink:href="#DejaVuSans-Oblique-50" transform="translate(0 0.578125)"/>
      <use xlink:href="#DejaVuSans-28" transform="translate(60.302734 0.578125)"/>
      <use xlink:href="#DejaVuSans-Oblique-62" transform="translate(99.316406 0.578125)"/>
      <use xlink:href="#DejaVuSans-Oblique-6e" transform="translate(162.792969 -15.828125) scale(0.7)"/>
      <use xlink:href="#DejaVuSans-2b" transform="translate(220.795898 -15.828125) scale(0.7)"/>
      <use xlink:href="#DejaVuSans-31" transform="translate(293.085938 -15.828125) scale(0.7)"/>
      <use xlink:href="#DejaVuSans-7c" transform="translate(340.356445 0.578125)"/>
      <use xlink:href="#DejaVuSans-Oblique-62" transform="translate(374.047852 0.578125)"/>
      <use xlink:href="#DejaVuSans-Oblique-6e" transform="translate(437.524414 -15.828125) scale(0.7)"/>
      <use xlink:href="#DejaVuSans-29" transform="translate(484.624023 0.578125)"/>
      <use xlink:href="#ArialMT-20" transform="translate(523.637695 0.578125)"/>
      <use xlink:href="#ArialMT-4e" transform="translate(551.420898 0.578125)"/>
      <use xlink:href="#ArialMT-65" transform="translate(623.637695 0.578125)"/>
      <use xlink:href="#ArialMT-75" transform="translate(679.25293 0.578125)"/>
      <use xlink:href="#ArialMT-72" transform="translate(734.868164 0.578125)"/>
      <use xlink:href="#ArialMT-6f" transform="translate(768.168945 0.578125)"/>
     </g>
    </g>
   </g>
   <g id="LineCollection_6">
    <path d="M 241.853032 60.371693 
L 241.853032 50.431651 
" clip-path="url(#peb80b0ceda)" style="fill: none; stroke: #033198; stroke-width: 1.5"/>
    <path d="M 189.40583 103.017819 
L 189.40583 95.961871 
" clip-path="url(#peb80b0ceda)" style="fill: none; stroke: #033198; stroke-width: 1.5"/>
    <path d="M 189.40583 104.255994 
L 189.40583 88.842367 
" clip-path="url(#peb80b0ceda)" style="fill: none; stroke: #033198; stroke-width: 1.5"/>
    <path d="M 207.005256 94.104789 
L 207.005256 74.063783 
" clip-path="url(#peb80b0ceda)" style="fill: none; stroke: #033198; stroke-width: 1.5"/>
    <path d="M 224.160592 70.086321 
L 224.160592 45.046217 
" clip-path="url(#peb80b0ceda)" style="fill: none; stroke: #033198; stroke-width: 1.5"/>
    <path d="M 189.498845 113.142837 
L 189.498845 106.437448 
" clip-path="url(#peb80b0ceda)" style="fill: none; stroke: #033198; stroke-width: 1.5"/>
    <path d="M 207.005256 84.528499 
L 207.005256 72.63418 
" clip-path="url(#peb80b0ceda)" style="fill: none; stroke: #033198; stroke-width: 1.5"/>
    <path d="M 189.498845 113.327472 
L 189.498845 107.313955 
" clip-path="url(#peb80b0ceda)" style="fill: none; stroke: #033198; stroke-width: 1.5"/>
    <path d="M 224.160592 70.962687 
L 224.160592 54.114603 
" clip-path="url(#peb80b0ceda)" style="fill: none; stroke: #033198; stroke-width: 1.5"/>
   </g>
   <g id="line2d_35">
    <path d="M 172.344693 118.357104 
L 275.975307 14.72649 
" clip-path="url(#peb80b0ceda)" style="fill: none; stroke: #000000; stroke-width: 1.5; stroke-linecap: square"/>
   </g>
   <g id="LineCollection_7">
    <path d="M 221.042498 62.108524 
L 221.042498 44.991817 
" clip-path="url(#peb80b0ceda)" style="fill: none; stroke: #399dc7; stroke-width: 1.5"/>
    <path d="M 199.811097 103.459571 
L 199.811097 86.654164 
" clip-path="url(#peb80b0ceda)" style="fill: none; stroke: #399dc7; stroke-width: 1.5"/>
    <path d="M 199.811097 104.803829 
L 199.811097 100.863489 
" clip-path="url(#peb80b0ceda)" style="fill: none; stroke: #399dc7; stroke-width: 1.5"/>
    <path d="M 210.776315 97.864975 
L 210.776315 89.905569 
" clip-path="url(#peb80b0ceda)" style="fill: none; stroke: #399dc7; stroke-width: 1.5"/>
    <path d="M 224.564524 52.559142 
L 224.564524 46.213359 
" clip-path="url(#peb80b0ceda)" style="fill: none; stroke: #399dc7; stroke-width: 1.5"/>
    <path d="M 185.323853 110.703972 
L 185.323853 105.634378 
" clip-path="url(#peb80b0ceda)" style="fill: none; stroke: #399dc7; stroke-width: 1.5"/>
    <path d="M 210.776315 97.439785 
L 210.776315 84.375212 
" clip-path="url(#peb80b0ceda)" style="fill: none; stroke: #399dc7; stroke-width: 1.5"/>
    <path d="M 185.323853 113.510338 
L 185.323853 103.920109 
" clip-path="url(#peb80b0ceda)" style="fill: none; stroke: #399dc7; stroke-width: 1.5"/>
    <path d="M 224.564524 57.657669 
L 224.564524 45.978282 
" clip-path="url(#peb80b0ceda)" style="fill: none; stroke: #399dc7; stroke-width: 1.5"/>
   </g>
   <g id="line2d_36">
    <path d="M 172.344693 118.357104 
L 275.975307 14.72649 
" clip-path="url(#peb80b0ceda)" style="fill: none; stroke: #000000; stroke-width: 1.5; stroke-linecap: square"/>
   </g>
   <g id="LineCollection_8">
    <path d="M 218.974241 50.715336 
L 218.974241 41.965522 
" clip-path="url(#peb80b0ceda)" style="fill: none; stroke: #c1eac2; stroke-width: 1.5"/>
    <path d="M 200.845226 107.50017 
L 200.845226 99.615762 
" clip-path="url(#peb80b0ceda)" style="fill: none; stroke: #c1eac2; stroke-width: 1.5"/>
    <path d="M 200.845226 103.522091 
L 200.845226 99.562515 
" clip-path="url(#peb80b0ceda)" style="fill: none; stroke: #c1eac2; stroke-width: 1.5"/>
    <path d="M 220.776905 87.337824 
L 220.776905 69.93404 
" clip-path="url(#peb80b0ceda)" style="fill: none; stroke: #c1eac2; stroke-width: 1.5"/>
    <path d="M 209.107008 72.39072 
L 209.107008 55.876733 
" clip-path="url(#peb80b0ceda)" style="fill: none; stroke: #c1eac2; stroke-width: 1.5"/>
    <path d="M 190.78078 110.710101 
L 190.78078 106.631977 
" clip-path="url(#peb80b0ceda)" style="fill: none; stroke: #c1eac2; stroke-width: 1.5"/>
    <path d="M 220.776905 84.530807 
L 220.776905 70.465662 
" clip-path="url(#peb80b0ceda)" style="fill: none; stroke: #c1eac2; stroke-width: 1.5"/>
    <path d="M 190.78078 108.203335 
L 190.78078 96.346123 
" clip-path="url(#peb80b0ceda)" style="fill: none; stroke: #c1eac2; stroke-width: 1.5"/>
    <path d="M 209.107008 74.755943 
L 209.107008 68.579525 
" clip-path="url(#peb80b0ceda)" style="fill: none; stroke: #c1eac2; stroke-width: 1.5"/>
   </g>
   <g id="line2d_37">
    <path d="M 172.344693 118.357104 
L 275.975307 14.72649 
" clip-path="url(#peb80b0ceda)" style="fill: none; stroke: #000000; stroke-width: 1.5; stroke-linecap: square"/>
   </g>
   <g id="LineCollection_9">
    <path d="M 213.637378 60.079364 
L 213.637378 48.363441 
" clip-path="url(#peb80b0ceda)" style="fill: none; stroke: #b58b31; stroke-width: 1.5"/>
    <path d="M 203.513657 103.214568 
L 203.513657 95.13302 
" clip-path="url(#peb80b0ceda)" style="fill: none; stroke: #b58b31; stroke-width: 1.5"/>
    <path d="M 203.513657 101.697389 
L 203.513657 94.393613 
" clip-path="url(#peb80b0ceda)" style="fill: none; stroke: #b58b31; stroke-width: 1.5"/>
    <path d="M 215.919684 83.653196 
L 215.919684 66.64435 
" clip-path="url(#peb80b0ceda)" style="fill: none; stroke: #b58b31; stroke-width: 1.5"/>
    <path d="M 208.602814 81.910964 
L 208.602814 68.290383 
" clip-path="url(#peb80b0ceda)" style="fill: none; stroke: #b58b31; stroke-width: 1.5"/>
    <path d="M 196.142194 106.207567 
L 196.142194 96.174934 
" clip-path="url(#peb80b0ceda)" style="fill: none; stroke: #b58b31; stroke-width: 1.5"/>
    <path d="M 215.919684 80.846935 
L 215.919684 64.877573 
" clip-path="url(#peb80b0ceda)" style="fill: none; stroke: #b58b31; stroke-width: 1.5"/>
    <path d="M 196.142194 106.265984 
L 196.142194 101.009885 
" clip-path="url(#peb80b0ceda)" style="fill: none; stroke: #b58b31; stroke-width: 1.5"/>
    <path d="M 208.602814 81.181697 
L 208.602814 68.699321 
" clip-path="url(#peb80b0ceda)" style="fill: none; stroke: #b58b31; stroke-width: 1.5"/>
   </g>
   <g id="line2d_38">
    <path d="M 172.344693 118.357104 
L 275.975307 14.72649 
" clip-path="url(#peb80b0ceda)" style="fill: none; stroke: #000000; stroke-width: 1.5; stroke-linecap: square"/>
   </g>
   <g id="LineCollection_10">
    <path d="M 207.625469 80.175833 
L 207.625469 51.50417 
" clip-path="url(#peb80b0ceda)" style="fill: none; stroke: #7e1700; stroke-width: 1.5"/>
    <path d="M 206.519612 102.666251 
L 206.519612 77.179245 
" clip-path="url(#peb80b0ceda)" style="fill: none; stroke: #7e1700; stroke-width: 1.5"/>
    <path d="M 206.519612 97.701842 
L 206.519612 93.654054 
" clip-path="url(#peb80b0ceda)" style="fill: none; stroke: #7e1700; stroke-width: 1.5"/>
    <path d="M 207.110164 86.805356 
L 207.110164 60.153471 
" clip-path="url(#peb80b0ceda)" style="fill: none; stroke: #7e1700; stroke-width: 1.5"/>
    <path d="M 210.335426 91.11923 
L 210.335426 66.62064 
" clip-path="url(#peb80b0ceda)" style="fill: none; stroke: #7e1700; stroke-width: 1.5"/>
    <path d="M 203.219102 100.91675 
L 203.219102 97.265948 
" clip-path="url(#peb80b0ceda)" style="fill: none; stroke: #7e1700; stroke-width: 1.5"/>
    <path d="M 207.110164 83.653752 
L 207.110164 56.499486 
" clip-path="url(#peb80b0ceda)" style="fill: none; stroke: #7e1700; stroke-width: 1.5"/>
    <path d="M 203.219102 103.892808 
L 203.219102 76.865929 
" clip-path="url(#peb80b0ceda)" style="fill: none; stroke: #7e1700; stroke-width: 1.5"/>
    <path d="M 210.335426 95.173645 
L 210.335426 86.795775 
" clip-path="url(#peb80b0ceda)" style="fill: none; stroke: #7e1700; stroke-width: 1.5"/>
   </g>
   <g id="line2d_39">
    <path d="M 172.344693 118.357104 
L 275.975307 14.72649 
" clip-path="url(#peb80b0ceda)" style="fill: none; stroke: #000000; stroke-width: 1.5; stroke-linecap: square"/>
   </g>
   <g id="line2d_40">
    <g clip-path="url(#peb80b0ceda)">
     <use xlink:href="#m55c232a057" x="241.853032" y="55.401672" style="fill: #033198; stroke: #033198"/>
     <use xlink:href="#m55c232a057" x="189.40583" y="99.489845" style="fill: #033198; stroke: #033198"/>
     <use xlink:href="#m55c232a057" x="189.40583" y="96.54918" style="fill: #033198; stroke: #033198"/>
     <use xlink:href="#m55c232a057" x="207.005256" y="84.084286" style="fill: #033198; stroke: #033198"/>
     <use xlink:href="#m55c232a057" x="224.160592" y="57.566269" style="fill: #033198; stroke: #033198"/>
     <use xlink:href="#m55c232a057" x="189.498845" y="109.790143" style="fill: #033198; stroke: #033198"/>
     <use xlink:href="#m55c232a057" x="207.005256" y="78.581339" style="fill: #033198; stroke: #033198"/>
     <use xlink:href="#m55c232a057" x="189.498845" y="110.320713" style="fill: #033198; stroke: #033198"/>
     <use xlink:href="#m55c232a057" x="224.160592" y="62.538645" style="fill: #033198; stroke: #033198"/>
    </g>
   </g>
   <g id="line2d_41">
    <g clip-path="url(#peb80b0ceda)">
     <use xlink:href="#m23b335fb07" x="221.042498" y="53.55017" style="fill: #399dc7; stroke: #399dc7"/>
     <use xlink:href="#m23b335fb07" x="199.811097" y="95.056868" style="fill: #399dc7; stroke: #399dc7"/>
     <use xlink:href="#m23b335fb07" x="199.811097" y="102.833659" style="fill: #399dc7; stroke: #399dc7"/>
     <use xlink:href="#m23b335fb07" x="210.776315" y="93.885272" style="fill: #399dc7; stroke: #399dc7"/>
     <use xlink:href="#m23b335fb07" x="224.564524" y="49.386251" style="fill: #399dc7; stroke: #399dc7"/>
     <use xlink:href="#m23b335fb07" x="185.323853" y="108.169175" style="fill: #399dc7; stroke: #399dc7"/>
     <use xlink:href="#m23b335fb07" x="210.776315" y="90.907499" style="fill: #399dc7; stroke: #399dc7"/>
     <use xlink:href="#m23b335fb07" x="185.323853" y="108.715223" style="fill: #399dc7; stroke: #399dc7"/>
     <use xlink:href="#m23b335fb07" x="224.564524" y="51.817976" style="fill: #399dc7; stroke: #399dc7"/>
    </g>
   </g>
   <g id="line2d_42">
    <g clip-path="url(#peb80b0ceda)">
     <use xlink:href="#m95204cf735" x="218.974241" y="46.340429" style="fill: #c1eac2; stroke: #c1eac2"/>
     <use xlink:href="#m95204cf735" x="200.845226" y="103.557966" style="fill: #c1eac2; stroke: #c1eac2"/>
     <use xlink:href="#m95204cf735" x="200.845226" y="101.542303" style="fill: #c1eac2; stroke: #c1eac2"/>
     <use xlink:href="#m95204cf735" x="220.776905" y="78.635932" style="fill: #c1eac2; stroke: #c1eac2"/>
     <use xlink:href="#m95204cf735" x="209.107008" y="64.133726" style="fill: #c1eac2; stroke: #c1eac2"/>
     <use xlink:href="#m95204cf735" x="190.78078" y="108.671039" style="fill: #c1eac2; stroke: #c1eac2"/>
     <use xlink:href="#m95204cf735" x="220.776905" y="77.498234" style="fill: #c1eac2; stroke: #c1eac2"/>
     <use xlink:href="#m95204cf735" x="190.78078" y="102.274729" style="fill: #c1eac2; stroke: #c1eac2"/>
     <use xlink:href="#m95204cf735" x="209.107008" y="71.667734" style="fill: #c1eac2; stroke: #c1eac2"/>
    </g>
   </g>
   <g id="line2d_43">
    <g clip-path="url(#peb80b0ceda)">
     <use xlink:href="#mfcee8866d3" x="213.637378" y="54.221402" style="fill: #b58b31; stroke: #b58b31"/>
     <use xlink:href="#mfcee8866d3" x="203.513657" y="99.173794" style="fill: #b58b31; stroke: #b58b31"/>
     <use xlink:href="#mfcee8866d3" x="203.513657" y="98.045501" style="fill: #b58b31; stroke: #b58b31"/>
     <use xlink:href="#mfcee8866d3" x="215.919684" y="75.148773" style="fill: #b58b31; stroke: #b58b31"/>
     <use xlink:href="#mfcee8866d3" x="208.602814" y="75.100673" style="fill: #b58b31; stroke: #b58b31"/>
     <use xlink:href="#mfcee8866d3" x="196.142194" y="101.191251" style="fill: #b58b31; stroke: #b58b31"/>
     <use xlink:href="#mfcee8866d3" x="215.919684" y="72.862254" style="fill: #b58b31; stroke: #b58b31"/>
     <use xlink:href="#mfcee8866d3" x="196.142194" y="103.637935" style="fill: #b58b31; stroke: #b58b31"/>
     <use xlink:href="#mfcee8866d3" x="208.602814" y="74.940509" style="fill: #b58b31; stroke: #b58b31"/>
    </g>
   </g>
   <g id="line2d_44">
    <g clip-path="url(#peb80b0ceda)">
     <use xlink:href="#m55b7ba3658" x="207.625469" y="65.840001" style="fill: #7e1700; stroke: #7e1700"/>
     <use xlink:href="#m55b7ba3658" x="206.519612" y="89.922748" style="fill: #7e1700; stroke: #7e1700"/>
     <use xlink:href="#m55b7ba3658" x="206.519612" y="95.677948" style="fill: #7e1700; stroke: #7e1700"/>
     <use xlink:href="#m55b7ba3658" x="207.110164" y="73.479413" style="fill: #7e1700; stroke: #7e1700"/>
     <use xlink:href="#m55b7ba3658" x="210.335426" y="78.869935" style="fill: #7e1700; stroke: #7e1700"/>
     <use xlink:href="#m55b7ba3658" x="203.219102" y="99.091349" style="fill: #7e1700; stroke: #7e1700"/>
     <use xlink:href="#m55b7ba3658" x="207.110164" y="70.076619" style="fill: #7e1700; stroke: #7e1700"/>
     <use xlink:href="#m55b7ba3658" x="203.219102" y="90.379368" style="fill: #7e1700; stroke: #7e1700"/>
     <use xlink:href="#m55b7ba3658" x="210.335426" y="90.98471" style="fill: #7e1700; stroke: #7e1700"/>
    </g>
   </g>
   <g id="patch_6">
    <path d="M 172.344693 118.357104 
L 172.344693 14.72649 
" style="fill: none; stroke: #000000; stroke-width: 0.8; stroke-linejoin: miter; stroke-linecap: square"/>
   </g>
   <g id="patch_7">
    <path d="M 172.344693 118.357104 
L 275.975307 118.357104 
" style="fill: none; stroke: #000000; stroke-width: 0.8; stroke-linejoin: miter; stroke-linecap: square"/>
   </g>
   <g id="text_29">
    <!-- Spearman ρ = 0.87 -->
    <g transform="translate(224.699682 105.636948) scale(0.06 -0.06)">
     <defs>
      <path id="ArialMT-37" d="M 303 3981 
L 303 4522 
L 3269 4522 
L 3269 4084 
Q 2831 3619 2401 2847 
Q 1972 2075 1738 1259 
Q 1569 684 1522 0 
L 944 0 
Q 953 541 1156 1306 
Q 1359 2072 1739 2783 
Q 2119 3494 2547 3981 
L 303 3981 
z
" transform="scale(0.015625)"/>
     </defs>
     <use xlink:href="#ArialMT-53"/>
     <use xlink:href="#ArialMT-70" x="66.699219"/>
     <use xlink:href="#ArialMT-65" x="122.314453"/>
     <use xlink:href="#ArialMT-61" x="177.929688"/>
     <use xlink:href="#ArialMT-72" x="233.544922"/>
     <use xlink:href="#ArialMT-6d" x="266.845703"/>
     <use xlink:href="#ArialMT-61" x="350.146484"/>
     <use xlink:href="#ArialMT-6e" x="405.761719"/>
     <use xlink:href="#ArialMT-20" x="461.376953"/>
     <use xlink:href="#ArialMT-3c1" x="489.160156"/>
     <use xlink:href="#ArialMT-20" x="546.044922"/>
     <use xlink:href="#ArialMT-3d" x="573.828125"/>
     <use xlink:href="#ArialMT-20" x="632.226562"/>
     <use xlink:href="#ArialMT-30" x="660.009766"/>
     <use xlink:href="#ArialMT-2e" x="715.625"/>
     <use xlink:href="#ArialMT-38" x="743.408203"/>
     <use xlink:href="#ArialMT-37" x="799.023438"/>
    </g>
    <!-- RMSE = 0.10 -->
    <g transform="translate(240.125307 111.983073) scale(0.06 -0.06)">
     <use xlink:href="#ArialMT-52"/>
     <use xlink:href="#ArialMT-4d" x="72.216797"/>
     <use xlink:href="#ArialMT-53" x="155.517578"/>
     <use xlink:href="#ArialMT-45" x="222.216797"/>
     <use xlink:href="#ArialMT-20" x="288.916016"/>
     <use xlink:href="#ArialMT-3d" x="316.699219"/>
     <use xlink:href="#ArialMT-20" x="375.097656"/>
     <use xlink:href="#ArialMT-30" x="402.880859"/>
     <use xlink:href="#ArialMT-2e" x="458.496094"/>
     <use xlink:href="#ArialMT-31" x="486.279297"/>
     <use xlink:href="#ArialMT-30" x="541.894531"/>
    </g>
   </g>
   <g id="text_30">
    <!-- Spearman ρ = 0.87 -->
    <g transform="translate(224.699682 105.636948) scale(0.06 -0.06)">
     <use xlink:href="#ArialMT-53"/>
     <use xlink:href="#ArialMT-70" x="66.699219"/>
     <use xlink:href="#ArialMT-65" x="122.314453"/>
     <use xlink:href="#ArialMT-61" x="177.929688"/>
     <use xlink:href="#ArialMT-72" x="233.544922"/>
     <use xlink:href="#ArialMT-6d" x="266.845703"/>
     <use xlink:href="#ArialMT-61" x="350.146484"/>
     <use xlink:href="#ArialMT-6e" x="405.761719"/>
     <use xlink:href="#ArialMT-20" x="461.376953"/>
     <use xlink:href="#ArialMT-3c1" x="489.160156"/>
     <use xlink:href="#ArialMT-20" x="546.044922"/>
     <use xlink:href="#ArialMT-3d" x="573.828125"/>
     <use xlink:href="#ArialMT-20" x="632.226562"/>
     <use xlink:href="#ArialMT-30" x="660.009766"/>
     <use xlink:href="#ArialMT-2e" x="715.625"/>
     <use xlink:href="#ArialMT-38" x="743.408203"/>
     <use xlink:href="#ArialMT-37" x="799.023438"/>
    </g>
    <!-- RMSE = 0.10 -->
    <g transform="translate(240.125307 111.983073) scale(0.06 -0.06)">
     <use xlink:href="#ArialMT-52"/>
     <use xlink:href="#ArialMT-4d" x="72.216797"/>
     <use xlink:href="#ArialMT-53" x="155.517578"/>
     <use xlink:href="#ArialMT-45" x="222.216797"/>
     <use xlink:href="#ArialMT-20" x="288.916016"/>
     <use xlink:href="#ArialMT-3d" x="316.699219"/>
     <use xlink:href="#ArialMT-20" x="375.097656"/>
     <use xlink:href="#ArialMT-30" x="402.880859"/>
     <use xlink:href="#ArialMT-2e" x="458.496094"/>
     <use xlink:href="#ArialMT-31" x="486.279297"/>
     <use xlink:href="#ArialMT-30" x="541.894531"/>
    </g>
   </g>
   <g id="text_31">
    <!-- Spearman ρ = 0.87 -->
    <g transform="translate(224.699682 105.636948) scale(0.06 -0.06)">
     <use xlink:href="#ArialMT-53"/>
     <use xlink:href="#ArialMT-70" x="66.699219"/>
     <use xlink:href="#ArialMT-65" x="122.314453"/>
     <use xlink:href="#ArialMT-61" x="177.929688"/>
     <use xlink:href="#ArialMT-72" x="233.544922"/>
     <use xlink:href="#ArialMT-6d" x="266.845703"/>
     <use xlink:href="#ArialMT-61" x="350.146484"/>
     <use xlink:href="#ArialMT-6e" x="405.761719"/>
     <use xlink:href="#ArialMT-20" x="461.376953"/>
     <use xlink:href="#ArialMT-3c1" x="489.160156"/>
     <use xlink:href="#ArialMT-20" x="546.044922"/>
     <use xlink:href="#ArialMT-3d" x="573.828125"/>
     <use xlink:href="#ArialMT-20" x="632.226562"/>
     <use xlink:href="#ArialMT-30" x="660.009766"/>
     <use xlink:href="#ArialMT-2e" x="715.625"/>
     <use xlink:href="#ArialMT-38" x="743.408203"/>
     <use xlink:href="#ArialMT-37" x="799.023438"/>
    </g>
    <!-- RMSE = 0.10 -->
    <g transform="translate(240.125307 111.983073) scale(0.06 -0.06)">
     <use xlink:href="#ArialMT-52"/>
     <use xlink:href="#ArialMT-4d" x="72.216797"/>
     <use xlink:href="#ArialMT-53" x="155.517578"/>
     <use xlink:href="#ArialMT-45" x="222.216797"/>
     <use xlink:href="#ArialMT-20" x="288.916016"/>
     <use xlink:href="#ArialMT-3d" x="316.699219"/>
     <use xlink:href="#ArialMT-20" x="375.097656"/>
     <use xlink:href="#ArialMT-30" x="402.880859"/>
     <use xlink:href="#ArialMT-2e" x="458.496094"/>
     <use xlink:href="#ArialMT-31" x="486.279297"/>
     <use xlink:href="#ArialMT-30" x="541.894531"/>
    </g>
   </g>
   <g id="text_32">
    <!-- Spearman ρ = 0.87 -->
    <g transform="translate(224.699682 105.636948) scale(0.06 -0.06)">
     <use xlink:href="#ArialMT-53"/>
     <use xlink:href="#ArialMT-70" x="66.699219"/>
     <use xlink:href="#ArialMT-65" x="122.314453"/>
     <use xlink:href="#ArialMT-61" x="177.929688"/>
     <use xlink:href="#ArialMT-72" x="233.544922"/>
     <use xlink:href="#ArialMT-6d" x="266.845703"/>
     <use xlink:href="#ArialMT-61" x="350.146484"/>
     <use xlink:href="#ArialMT-6e" x="405.761719"/>
     <use xlink:href="#ArialMT-20" x="461.376953"/>
     <use xlink:href="#ArialMT-3c1" x="489.160156"/>
     <use xlink:href="#ArialMT-20" x="546.044922"/>
     <use xlink:href="#ArialMT-3d" x="573.828125"/>
     <use xlink:href="#ArialMT-20" x="632.226562"/>
     <use xlink:href="#ArialMT-30" x="660.009766"/>
     <use xlink:href="#ArialMT-2e" x="715.625"/>
     <use xlink:href="#ArialMT-38" x="743.408203"/>
     <use xlink:href="#ArialMT-37" x="799.023438"/>
    </g>
    <!-- RMSE = 0.10 -->
    <g transform="translate(240.125307 111.983073) scale(0.06 -0.06)">
     <use xlink:href="#ArialMT-52"/>
     <use xlink:href="#ArialMT-4d" x="72.216797"/>
     <use xlink:href="#ArialMT-53" x="155.517578"/>
     <use xlink:href="#ArialMT-45" x="222.216797"/>
     <use xlink:href="#ArialMT-20" x="288.916016"/>
     <use xlink:href="#ArialMT-3d" x="316.699219"/>
     <use xlink:href="#ArialMT-20" x="375.097656"/>
     <use xlink:href="#ArialMT-30" x="402.880859"/>
     <use xlink:href="#ArialMT-2e" x="458.496094"/>
     <use xlink:href="#ArialMT-31" x="486.279297"/>
     <use xlink:href="#ArialMT-30" x="541.894531"/>
    </g>
   </g>
   <g id="text_33">
    <!-- Spearman ρ = 0.87 -->
    <g transform="translate(224.699682 105.636948) scale(0.06 -0.06)">
     <use xlink:href="#ArialMT-53"/>
     <use xlink:href="#ArialMT-70" x="66.699219"/>
     <use xlink:href="#ArialMT-65" x="122.314453"/>
     <use xlink:href="#ArialMT-61" x="177.929688"/>
     <use xlink:href="#ArialMT-72" x="233.544922"/>
     <use xlink:href="#ArialMT-6d" x="266.845703"/>
     <use xlink:href="#ArialMT-61" x="350.146484"/>
     <use xlink:href="#ArialMT-6e" x="405.761719"/>
     <use xlink:href="#ArialMT-20" x="461.376953"/>
     <use xlink:href="#ArialMT-3c1" x="489.160156"/>
     <use xlink:href="#ArialMT-20" x="546.044922"/>
     <use xlink:href="#ArialMT-3d" x="573.828125"/>
     <use xlink:href="#ArialMT-20" x="632.226562"/>
     <use xlink:href="#ArialMT-30" x="660.009766"/>
     <use xlink:href="#ArialMT-2e" x="715.625"/>
     <use xlink:href="#ArialMT-38" x="743.408203"/>
     <use xlink:href="#ArialMT-37" x="799.023438"/>
    </g>
    <!-- RMSE = 0.10 -->
    <g transform="translate(240.125307 111.983073) scale(0.06 -0.06)">
     <use xlink:href="#ArialMT-52"/>
     <use xlink:href="#ArialMT-4d" x="72.216797"/>
     <use xlink:href="#ArialMT-53" x="155.517578"/>
     <use xlink:href="#ArialMT-45" x="222.216797"/>
     <use xlink:href="#ArialMT-20" x="288.916016"/>
     <use xlink:href="#ArialMT-3d" x="316.699219"/>
     <use xlink:href="#ArialMT-20" x="375.097656"/>
     <use xlink:href="#ArialMT-30" x="402.880859"/>
     <use xlink:href="#ArialMT-2e" x="458.496094"/>
     <use xlink:href="#ArialMT-31" x="486.279297"/>
     <use xlink:href="#ArialMT-30" x="541.894531"/>
    </g>
   </g>
   <g id="text_34">
    <!-- rescaled neural data -->
    <g transform="translate(187.916875 8.72649) scale(0.08 -0.08)">
     <defs>
      <path id="ArialMT-73" d="M 197 991 
L 753 1078 
Q 800 744 1014 566 
Q 1228 388 1613 388 
Q 2000 388 2187 545 
Q 2375 703 2375 916 
Q 2375 1106 2209 1216 
Q 2094 1291 1634 1406 
Q 1016 1563 777 1677 
Q 538 1791 414 1992 
Q 291 2194 291 2438 
Q 291 2659 392 2848 
Q 494 3038 669 3163 
Q 800 3259 1026 3326 
Q 1253 3394 1513 3394 
Q 1903 3394 2198 3281 
Q 2494 3169 2634 2976 
Q 2775 2784 2828 2463 
L 2278 2388 
Q 2241 2644 2061 2787 
Q 1881 2931 1553 2931 
Q 1166 2931 1000 2803 
Q 834 2675 834 2503 
Q 834 2394 903 2306 
Q 972 2216 1119 2156 
Q 1203 2125 1616 2013 
Q 2213 1853 2448 1751 
Q 2684 1650 2818 1456 
Q 2953 1263 2953 975 
Q 2953 694 2789 445 
Q 2625 197 2315 61 
Q 2006 -75 1616 -75 
Q 969 -75 630 194 
Q 291 463 197 991 
z
" transform="scale(0.015625)"/>
      <path id="ArialMT-63" d="M 2588 1216 
L 3141 1144 
Q 3050 572 2676 248 
Q 2303 -75 1759 -75 
Q 1078 -75 664 370 
Q 250 816 250 1647 
Q 250 2184 428 2587 
Q 606 2991 970 3192 
Q 1334 3394 1763 3394 
Q 2303 3394 2647 3120 
Q 2991 2847 3088 2344 
L 2541 2259 
Q 2463 2594 2264 2762 
Q 2066 2931 1784 2931 
Q 1359 2931 1093 2626 
Q 828 2322 828 1663 
Q 828 994 1084 691 
Q 1341 388 1753 388 
Q 2084 388 2306 591 
Q 2528 794 2588 1216 
z
" transform="scale(0.015625)"/>
     </defs>
     <use xlink:href="#ArialMT-72"/>
     <use xlink:href="#ArialMT-65" x="33.300781"/>
     <use xlink:href="#ArialMT-73" x="88.916016"/>
     <use xlink:href="#ArialMT-63" x="138.916016"/>
     <use xlink:href="#ArialMT-61" x="188.916016"/>
     <use xlink:href="#ArialMT-6c" x="244.53125"/>
     <use xlink:href="#ArialMT-65" x="266.748047"/>
     <use xlink:href="#ArialMT-64" x="322.363281"/>
     <use xlink:href="#ArialMT-20" x="377.978516"/>
     <use xlink:href="#ArialMT-6e" x="405.761719"/>
     <use xlink:href="#ArialMT-65" x="461.376953"/>
     <use xlink:href="#ArialMT-75" x="516.992188"/>
     <use xlink:href="#ArialMT-72" x="572.607422"/>
     <use xlink:href="#ArialMT-61" x="605.908203"/>
     <use xlink:href="#ArialMT-6c" x="661.523438"/>
     <use xlink:href="#ArialMT-20" x="683.740234"/>
     <use xlink:href="#ArialMT-64" x="711.523438"/>
     <use xlink:href="#ArialMT-61" x="767.138672"/>
     <use xlink:href="#ArialMT-74" x="822.753906"/>
     <use xlink:href="#ArialMT-61" x="850.537109"/>
    </g>
   </g>
  </g>
 </g>
 <defs>
  <clipPath id="pfeeb4538d9">
   <rect x="33.594693" y="14.72649" width="103.630614" height="103.630614"/>
  </clipPath>
  <clipPath id="peb80b0ceda">
   <rect x="172.344693" y="14.72649" width="103.630614" height="103.630614"/>
  </clipPath>
 </defs>
</svg>
