<?xml version="1.0" encoding="utf-8" standalone="no"?>
<!DOCTYPE svg PUBLIC "-//W3C//DTD SVG 1.1//EN"
  "http://www.w3.org/Graphics/SVG/1.1/DTD/svg11.dtd">
<svg xmlns:xlink="http://www.w3.org/1999/xlink" width="288pt" height="144pt" viewBox="0 0 288 144" xmlns="http://www.w3.org/2000/svg" version="1.1">
 <metadata>
  <rdf:RDF xmlns:dc="http://purl.org/dc/elements/1.1/" xmlns:cc="http://creativecommons.org/ns#" xmlns:rdf="http://www.w3.org/1999/02/22-rdf-syntax-ns#">
   <cc:Work>
    <dc:type rdf:resource="http://purl.org/dc/dcmitype/StillImage"/>
    <dc:date>2024-09-30T17:02:36.258469</dc:date>
    <dc:format>image/svg+xml</dc:format>
    <dc:creator>
     <cc:Agent>
      <dc:title>Matplotlib v3.8.0, https://matplotlib.org/</dc:title>
     </cc:Agent>
    </dc:creator>
   </cc:Work>
  </rdf:RDF>
 </metadata>
 <defs>
  <style type="text/css">*{stroke-linejoin: round; stroke-linecap: butt}</style>
 </defs>
 <g id="figure_1">
  <g id="patch_1">
   <path d="M 0 144 
L 288 144 
L 288 0 
L 0 0 
L 0 144 
z
" style="fill: none"/>
  </g>
  <g id="axes_1">
   <g id="patch_2">
    <path d="M 33.594693 118.357104 
L 137.225307 118.357104 
L 137.225307 14.72649 
L 33.594693 14.72649 
L 33.594693 118.357104 
z
" style="fill: none"/>
   </g>
   <g id="matplotlib.axis_1">
    <g id="xtick_1">
     <g id="line2d_1">
      <defs>
       <path id="m6daf26addd" d="M 0 0 
L 0 3.5 
" style="stroke: #000000; stroke-width: 0.8"/>
      </defs>
      <g>
       <use xlink:href="#m6daf26addd" x="33.594693" y="118.357104" style="stroke: #000000; stroke-width: 0.8"/>
      </g>
     </g>
     <g id="text_1">
      <!-- $\mathdefault{0.0}$ -->
      <g transform="translate(30.094693 128.93601) scale(0.05 -0.05)">
       <defs>
        <path id="ArialMT-30" d="M 266 2259 
Q 266 3072 433 3567 
Q 600 4063 929 4331 
Q 1259 4600 1759 4600 
Q 2128 4600 2406 4451 
Q 2684 4303 2865 4023 
Q 3047 3744 3150 3342 
Q 3253 2941 3253 2259 
Q 3253 1453 3087 958 
Q 2922 463 2592 192 
Q 2263 -78 1759 -78 
Q 1097 -78 719 397 
Q 266 969 266 2259 
z
M 844 2259 
Q 844 1131 1108 757 
Q 1372 384 1759 384 
Q 2147 384 2411 759 
Q 2675 1134 2675 2259 
Q 2675 3391 2411 3762 
Q 2147 4134 1753 4134 
Q 1366 4134 1134 3806 
Q 844 3388 844 2259 
z
" transform="scale(0.015625)"/>
        <path id="ArialMT-2e" d="M 581 0 
L 581 641 
L 1222 641 
L 1222 0 
L 581 0 
z
" transform="scale(0.015625)"/>
       </defs>
       <use xlink:href="#ArialMT-30" transform="translate(0 0.125)"/>
       <use xlink:href="#ArialMT-2e" transform="translate(55.615234 0.125)"/>
       <use xlink:href="#ArialMT-30" transform="translate(83.398438 0.125)"/>
      </g>
     </g>
    </g>
    <g id="xtick_2">
     <g id="line2d_2">
      <g>
       <use xlink:href="#m6daf26addd" x="85.41" y="118.357104" style="stroke: #000000; stroke-width: 0.8"/>
      </g>
     </g>
     <g id="text_2">
      <!-- $\mathdefault{0.5}$ -->
      <g transform="translate(81.91 128.93601) scale(0.05 -0.05)">
       <defs>
        <path id="ArialMT-35" d="M 266 1200 
L 856 1250 
Q 922 819 1161 601 
Q 1400 384 1738 384 
Q 2144 384 2425 690 
Q 2706 997 2706 1503 
Q 2706 1984 2436 2262 
Q 2166 2541 1728 2541 
Q 1456 2541 1237 2417 
Q 1019 2294 894 2097 
L 366 2166 
L 809 4519 
L 3088 4519 
L 3088 3981 
L 1259 3981 
L 1013 2750 
Q 1425 3038 1878 3038 
Q 2478 3038 2890 2622 
Q 3303 2206 3303 1553 
Q 3303 931 2941 478 
Q 2500 -78 1738 -78 
Q 1113 -78 717 272 
Q 322 622 266 1200 
z
" transform="scale(0.015625)"/>
       </defs>
       <use xlink:href="#ArialMT-30" transform="translate(0 0.125)"/>
       <use xlink:href="#ArialMT-2e" transform="translate(55.615234 0.125)"/>
       <use xlink:href="#ArialMT-35" transform="translate(83.398438 0.125)"/>
      </g>
     </g>
    </g>
    <g id="xtick_3">
     <g id="line2d_3">
      <g>
       <use xlink:href="#m6daf26addd" x="137.225307" y="118.357104" style="stroke: #000000; stroke-width: 0.8"/>
      </g>
     </g>
     <g id="text_3">
      <!-- $\mathdefault{1.0}$ -->
      <g transform="translate(133.725307 128.93601) scale(0.05 -0.05)">
       <defs>
        <path id="ArialMT-31" d="M 2384 0 
L 1822 0 
L 1822 3584 
Q 1619 3391 1289 3197 
Q 959 3003 697 2906 
L 697 3450 
Q 1169 3672 1522 3987 
Q 1875 4303 2022 4600 
L 2384 4600 
L 2384 0 
z
" transform="scale(0.015625)"/>
       </defs>
       <use xlink:href="#ArialMT-31" transform="translate(0 0.125)"/>
       <use xlink:href="#ArialMT-2e" transform="translate(55.615234 0.125)"/>
       <use xlink:href="#ArialMT-30" transform="translate(83.398438 0.125)"/>
      </g>
     </g>
    </g>
    <g id="text_4">
     <!-- $P(b_{n+1} | b_{n})$ Behavior -->
     <g transform="translate(52.265 139.31976) scale(0.07 -0.07)">
      <defs>
       <path id="DejaVuSans-Oblique-50" d="M 1081 4666 
L 2541 4666 
Q 3178 4666 3512 4369 
Q 3847 4072 3847 3500 
Q 3847 2731 3353 2303 
Q 2859 1875 1966 1875 
L 1172 1875 
L 806 0 
L 172 0 
L 1081 4666 
z
M 1613 4147 
L 1275 2394 
L 2069 2394 
Q 2606 2394 2893 2669 
Q 3181 2944 3181 3456 
Q 3181 3784 2986 3965 
Q 2791 4147 2438 4147 
L 1613 4147 
z
" transform="scale(0.015625)"/>
       <path id="DejaVuSans-28" d="M 1984 4856 
Q 1566 4138 1362 3434 
Q 1159 2731 1159 2009 
Q 1159 1288 1364 580 
Q 1569 -128 1984 -844 
L 1484 -844 
Q 1016 -109 783 600 
Q 550 1309 550 2009 
Q 550 2706 781 3412 
Q 1013 4119 1484 4856 
L 1984 4856 
z
" transform="scale(0.015625)"/>
       <path id="DejaVuSans-Oblique-62" d="M 3169 2138 
Q 3169 2591 2961 2847 
Q 2753 3103 2388 3103 
Q 2122 3103 1889 2973 
Q 1656 2844 1484 2597 
Q 1303 2338 1198 1995 
Q 1094 1653 1094 1313 
Q 1094 881 1298 636 
Q 1503 391 1863 391 
Q 2134 391 2365 517 
Q 2597 644 2772 891 
Q 2950 1147 3059 1487 
Q 3169 1828 3169 2138 
z
M 1381 2969 
Q 1594 3256 1914 3420 
Q 2234 3584 2584 3584 
Q 3122 3584 3439 3221 
Q 3756 2859 3756 2241 
Q 3756 1734 3570 1259 
Q 3384 784 3041 416 
Q 2816 172 2522 40 
Q 2228 -91 1906 -91 
Q 1566 -91 1316 65 
Q 1066 222 909 531 
L 806 0 
L 231 0 
L 1178 4863 
L 1753 4863 
L 1381 2969 
z
" transform="scale(0.015625)"/>
       <path id="DejaVuSans-Oblique-6e" d="M 3566 2113 
L 3156 0 
L 2578 0 
L 2988 2091 
Q 3016 2238 3031 2350 
Q 3047 2463 3047 2528 
Q 3047 2791 2881 2937 
Q 2716 3084 2419 3084 
Q 1956 3084 1622 2776 
Q 1288 2469 1184 1941 
L 800 0 
L 225 0 
L 903 3500 
L 1478 3500 
L 1363 2950 
Q 1603 3253 1940 3418 
Q 2278 3584 2650 3584 
Q 3113 3584 3367 3334 
Q 3622 3084 3622 2631 
Q 3622 2519 3608 2391 
Q 3594 2263 3566 2113 
z
" transform="scale(0.015625)"/>
       <path id="DejaVuSans-2b" d="M 2944 4013 
L 2944 2272 
L 4684 2272 
L 4684 1741 
L 2944 1741 
L 2944 0 
L 2419 0 
L 2419 1741 
L 678 1741 
L 678 2272 
L 2419 2272 
L 2419 4013 
L 2944 4013 
z
" transform="scale(0.015625)"/>
       <path id="DejaVuSans-31" d="M 794 531 
L 1825 531 
L 1825 4091 
L 703 3866 
L 703 4441 
L 1819 4666 
L 2450 4666 
L 2450 531 
L 3481 531 
L 3481 0 
L 794 0 
L 794 531 
z
" transform="scale(0.015625)"/>
       <path id="DejaVuSans-7c" d="M 1344 4891 
L 1344 -1509 
L 813 -1509 
L 813 4891 
L 1344 4891 
z
" transform="scale(0.015625)"/>
       <path id="DejaVuSans-29" d="M 513 4856 
L 1013 4856 
Q 1481 4119 1714 3412 
Q 1947 2706 1947 2009 
Q 1947 1309 1714 600 
Q 1481 -109 1013 -844 
L 513 -844 
Q 928 -128 1133 580 
Q 1338 1288 1338 2009 
Q 1338 2731 1133 3434 
Q 928 4138 513 4856 
z
" transform="scale(0.015625)"/>
       <path id="ArialMT-20" transform="scale(0.015625)"/>
       <path id="ArialMT-42" d="M 469 0 
L 469 4581 
L 2188 4581 
Q 2713 4581 3030 4442 
Q 3347 4303 3526 4014 
Q 3706 3725 3706 3409 
Q 3706 3116 3547 2856 
Q 3388 2597 3066 2438 
Q 3481 2316 3704 2022 
Q 3928 1728 3928 1328 
Q 3928 1006 3792 729 
Q 3656 453 3456 303 
Q 3256 153 2954 76 
Q 2653 0 2216 0 
L 469 0 
z
M 1075 2656 
L 2066 2656 
Q 2469 2656 2644 2709 
Q 2875 2778 2992 2937 
Q 3109 3097 3109 3338 
Q 3109 3566 3000 3739 
Q 2891 3913 2687 3977 
Q 2484 4041 1991 4041 
L 1075 4041 
L 1075 2656 
z
M 1075 541 
L 2216 541 
Q 2509 541 2628 563 
Q 2838 600 2978 687 
Q 3119 775 3209 942 
Q 3300 1109 3300 1328 
Q 3300 1584 3169 1773 
Q 3038 1963 2805 2039 
Q 2572 2116 2134 2116 
L 1075 2116 
L 1075 541 
z
" transform="scale(0.015625)"/>
       <path id="ArialMT-65" d="M 2694 1069 
L 3275 997 
Q 3138 488 2766 206 
Q 2394 -75 1816 -75 
Q 1088 -75 661 373 
Q 234 822 234 1631 
Q 234 2469 665 2931 
Q 1097 3394 1784 3394 
Q 2450 3394 2872 2941 
Q 3294 2488 3294 1666 
Q 3294 1616 3291 1516 
L 816 1516 
Q 847 969 1125 678 
Q 1403 388 1819 388 
Q 2128 388 2347 550 
Q 2566 713 2694 1069 
z
M 847 1978 
L 2700 1978 
Q 2663 2397 2488 2606 
Q 2219 2931 1791 2931 
Q 1403 2931 1139 2672 
Q 875 2413 847 1978 
z
" transform="scale(0.015625)"/>
       <path id="ArialMT-68" d="M 422 0 
L 422 4581 
L 984 4581 
L 984 2938 
Q 1378 3394 1978 3394 
Q 2347 3394 2619 3248 
Q 2891 3103 3008 2847 
Q 3125 2591 3125 2103 
L 3125 0 
L 2563 0 
L 2563 2103 
Q 2563 2525 2380 2717 
Q 2197 2909 1863 2909 
Q 1613 2909 1392 2779 
Q 1172 2650 1078 2428 
Q 984 2206 984 1816 
L 984 0 
L 422 0 
z
" transform="scale(0.015625)"/>
       <path id="ArialMT-61" d="M 2588 409 
Q 2275 144 1986 34 
Q 1697 -75 1366 -75 
Q 819 -75 525 192 
Q 231 459 231 875 
Q 231 1119 342 1320 
Q 453 1522 633 1644 
Q 813 1766 1038 1828 
Q 1203 1872 1538 1913 
Q 2219 1994 2541 2106 
Q 2544 2222 2544 2253 
Q 2544 2597 2384 2738 
Q 2169 2928 1744 2928 
Q 1347 2928 1158 2789 
Q 969 2650 878 2297 
L 328 2372 
Q 403 2725 575 2942 
Q 747 3159 1072 3276 
Q 1397 3394 1825 3394 
Q 2250 3394 2515 3294 
Q 2781 3194 2906 3042 
Q 3031 2891 3081 2659 
Q 3109 2516 3109 2141 
L 3109 1391 
Q 3109 606 3145 398 
Q 3181 191 3288 0 
L 2700 0 
Q 2613 175 2588 409 
z
M 2541 1666 
Q 2234 1541 1622 1453 
Q 1275 1403 1131 1340 
Q 988 1278 909 1158 
Q 831 1038 831 891 
Q 831 666 1001 516 
Q 1172 366 1500 366 
Q 1825 366 2078 508 
Q 2331 650 2450 897 
Q 2541 1088 2541 1459 
L 2541 1666 
z
" transform="scale(0.015625)"/>
       <path id="ArialMT-76" d="M 1344 0 
L 81 3319 
L 675 3319 
L 1388 1331 
Q 1503 1009 1600 663 
Q 1675 925 1809 1294 
L 2547 3319 
L 3125 3319 
L 1869 0 
L 1344 0 
z
" transform="scale(0.015625)"/>
       <path id="ArialMT-69" d="M 425 3934 
L 425 4581 
L 988 4581 
L 988 3934 
L 425 3934 
z
M 425 0 
L 425 3319 
L 988 3319 
L 988 0 
L 425 0 
z
" transform="scale(0.015625)"/>
       <path id="ArialMT-6f" d="M 213 1659 
Q 213 2581 725 3025 
Q 1153 3394 1769 3394 
Q 2453 3394 2887 2945 
Q 3322 2497 3322 1706 
Q 3322 1066 3130 698 
Q 2938 331 2570 128 
Q 2203 -75 1769 -75 
Q 1072 -75 642 372 
Q 213 819 213 1659 
z
M 791 1659 
Q 791 1022 1069 705 
Q 1347 388 1769 388 
Q 2188 388 2466 706 
Q 2744 1025 2744 1678 
Q 2744 2294 2464 2611 
Q 2184 2928 1769 2928 
Q 1347 2928 1069 2612 
Q 791 2297 791 1659 
z
" transform="scale(0.015625)"/>
       <path id="ArialMT-72" d="M 416 0 
L 416 3319 
L 922 3319 
L 922 2816 
Q 1116 3169 1280 3281 
Q 1444 3394 1641 3394 
Q 1925 3394 2219 3213 
L 2025 2691 
Q 1819 2813 1613 2813 
Q 1428 2813 1281 2702 
Q 1134 2591 1072 2394 
Q 978 2094 978 1738 
L 978 0 
L 416 0 
z
" transform="scale(0.015625)"/>
      </defs>
      <use xlink:href="#DejaVuSans-Oblique-50" transform="translate(0 0.578125)"/>
      <use xlink:href="#DejaVuSans-28" transform="translate(60.302734 0.578125)"/>
      <use xlink:href="#DejaVuSans-Oblique-62" transform="translate(99.316406 0.578125)"/>
      <use xlink:href="#DejaVuSans-Oblique-6e" transform="translate(162.792969 -15.828125) scale(0.7)"/>
      <use xlink:href="#DejaVuSans-2b" transform="translate(220.795898 -15.828125) scale(0.7)"/>
      <use xlink:href="#DejaVuSans-31" transform="translate(293.085938 -15.828125) scale(0.7)"/>
      <use xlink:href="#DejaVuSans-7c" transform="translate(340.356445 0.578125)"/>
      <use xlink:href="#DejaVuSans-Oblique-62" transform="translate(374.047852 0.578125)"/>
      <use xlink:href="#DejaVuSans-Oblique-6e" transform="translate(437.524414 -15.828125) scale(0.7)"/>
      <use xlink:href="#DejaVuSans-29" transform="translate(484.624023 0.578125)"/>
      <use xlink:href="#ArialMT-20" transform="translate(523.637695 0.578125)"/>
      <use xlink:href="#ArialMT-42" transform="translate(551.420898 0.578125)"/>
      <use xlink:href="#ArialMT-65" transform="translate(618.120117 0.578125)"/>
      <use xlink:href="#ArialMT-68" transform="translate(673.735352 0.578125)"/>
      <use xlink:href="#ArialMT-61" transform="translate(729.350586 0.578125)"/>
      <use xlink:href="#ArialMT-76" transform="translate(784.96582 0.578125)"/>
      <use xlink:href="#ArialMT-69" transform="translate(834.96582 0.578125)"/>
      <use xlink:href="#ArialMT-6f" transform="translate(857.182617 0.578125)"/>
      <use xlink:href="#ArialMT-72" transform="translate(912.797852 0.578125)"/>
     </g>
    </g>
   </g>
   <g id="matplotlib.axis_2">
    <g id="ytick_1">
     <g id="line2d_4">
      <defs>
       <path id="ma5bcf9feca" d="M 0 0 
L -3.5 0 
" style="stroke: #000000; stroke-width: 0.8"/>
      </defs>
      <g>
       <use xlink:href="#ma5bcf9feca" x="33.594693" y="118.357104" style="stroke: #000000; stroke-width: 0.8"/>
      </g>
     </g>
     <g id="text_5">
      <!-- $\mathdefault{0.0}$ -->
      <g transform="translate(19.594693 120.146557) scale(0.05 -0.05)">
       <use xlink:href="#ArialMT-30" transform="translate(0 0.125)"/>
       <use xlink:href="#ArialMT-2e" transform="translate(55.615234 0.125)"/>
       <use xlink:href="#ArialMT-30" transform="translate(83.398438 0.125)"/>
      </g>
     </g>
    </g>
    <g id="ytick_2">
     <g id="line2d_5">
      <g>
       <use xlink:href="#ma5bcf9feca" x="33.594693" y="66.541797" style="stroke: #000000; stroke-width: 0.8"/>
      </g>
     </g>
     <g id="text_6">
      <!-- $\mathdefault{0.5}$ -->
      <g transform="translate(19.594693 68.33125) scale(0.05 -0.05)">
       <use xlink:href="#ArialMT-30" transform="translate(0 0.125)"/>
       <use xlink:href="#ArialMT-2e" transform="translate(55.615234 0.125)"/>
       <use xlink:href="#ArialMT-35" transform="translate(83.398438 0.125)"/>
      </g>
     </g>
    </g>
    <g id="ytick_3">
     <g id="line2d_6">
      <g>
       <use xlink:href="#ma5bcf9feca" x="33.594693" y="14.72649" style="stroke: #000000; stroke-width: 0.8"/>
      </g>
     </g>
     <g id="text_7">
      <!-- $\mathdefault{1.0}$ -->
      <g transform="translate(19.594693 16.515943) scale(0.05 -0.05)">
       <use xlink:href="#ArialMT-31" transform="translate(0 0.125)"/>
       <use xlink:href="#ArialMT-2e" transform="translate(55.615234 0.125)"/>
       <use xlink:href="#ArialMT-30" transform="translate(83.398438 0.125)"/>
      </g>
     </g>
    </g>
    <g id="text_8">
     <!-- $P(b_{n+1} | b_{n})$ Neuro -->
     <g transform="translate(13.914693 95.381797) rotate(-90) scale(0.07 -0.07)">
      <defs>
       <path id="ArialMT-4e" d="M 488 0 
L 488 4581 
L 1109 4581 
L 3516 984 
L 3516 4581 
L 4097 4581 
L 4097 0 
L 3475 0 
L 1069 3600 
L 1069 0 
L 488 0 
z
" transform="scale(0.015625)"/>
       <path id="ArialMT-75" d="M 2597 0 
L 2597 488 
Q 2209 -75 1544 -75 
Q 1250 -75 995 37 
Q 741 150 617 320 
Q 494 491 444 738 
Q 409 903 409 1263 
L 409 3319 
L 972 3319 
L 972 1478 
Q 972 1038 1006 884 
Q 1059 663 1231 536 
Q 1403 409 1656 409 
Q 1909 409 2131 539 
Q 2353 669 2445 892 
Q 2538 1116 2538 1541 
L 2538 3319 
L 3100 3319 
L 3100 0 
L 2597 0 
z
" transform="scale(0.015625)"/>
      </defs>
      <use xlink:href="#DejaVuSans-Oblique-50" transform="translate(0 0.578125)"/>
      <use xlink:href="#DejaVuSans-28" transform="translate(60.302734 0.578125)"/>
      <use xlink:href="#DejaVuSans-Oblique-62" transform="translate(99.316406 0.578125)"/>
      <use xlink:href="#DejaVuSans-Oblique-6e" transform="translate(162.792969 -15.828125) scale(0.7)"/>
      <use xlink:href="#DejaVuSans-2b" transform="translate(220.795898 -15.828125) scale(0.7)"/>
      <use xlink:href="#DejaVuSans-31" transform="translate(293.085938 -15.828125) scale(0.7)"/>
      <use xlink:href="#DejaVuSans-7c" transform="translate(340.356445 0.578125)"/>
      <use xlink:href="#DejaVuSans-Oblique-62" transform="translate(374.047852 0.578125)"/>
      <use xlink:href="#DejaVuSans-Oblique-6e" transform="translate(437.524414 -15.828125) scale(0.7)"/>
      <use xlink:href="#DejaVuSans-29" transform="translate(484.624023 0.578125)"/>
      <use xlink:href="#ArialMT-20" transform="translate(523.637695 0.578125)"/>
      <use xlink:href="#ArialMT-4e" transform="translate(551.420898 0.578125)"/>
      <use xlink:href="#ArialMT-65" transform="translate(623.637695 0.578125)"/>
      <use xlink:href="#ArialMT-75" transform="translate(679.25293 0.578125)"/>
      <use xlink:href="#ArialMT-72" transform="translate(734.868164 0.578125)"/>
      <use xlink:href="#ArialMT-6f" transform="translate(768.168945 0.578125)"/>
     </g>
    </g>
   </g>
   <g id="LineCollection_1">
    <path d="M 103.103032 43.583476 
L 103.103032 34.89995 
" clip-path="url(#p8c3110d0a9)" style="fill: none; stroke: #033198; stroke-width: 1.5"/>
    <path d="M 50.65583 110.137502 
L 50.65583 104.547156 
" clip-path="url(#p8c3110d0a9)" style="fill: none; stroke: #033198; stroke-width: 1.5"/>
    <path d="M 50.65583 110.394247 
L 50.65583 99.319064 
" clip-path="url(#p8c3110d0a9)" style="fill: none; stroke: #033198; stroke-width: 1.5"/>
    <path d="M 68.255256 105.60452 
L 68.255256 89.752523 
" clip-path="url(#p8c3110d0a9)" style="fill: none; stroke: #033198; stroke-width: 1.5"/>
    <path d="M 85.410592 47.03375 
L 85.410592 29.202672 
" clip-path="url(#p8c3110d0a9)" style="fill: none; stroke: #033198; stroke-width: 1.5"/>
    <path d="M 50.748845 116.814041 
L 50.748845 114.473889 
" clip-path="url(#p8c3110d0a9)" style="fill: none; stroke: #033198; stroke-width: 1.5"/>
    <path d="M 68.255256 99.140975 
L 68.255256 89.563501 
" clip-path="url(#p8c3110d0a9)" style="fill: none; stroke: #033198; stroke-width: 1.5"/>
    <path d="M 50.748845 117.096483 
L 50.748845 114.551322 
" clip-path="url(#p8c3110d0a9)" style="fill: none; stroke: #033198; stroke-width: 1.5"/>
    <path d="M 85.410592 46.930319 
L 85.410592 35.598796 
" clip-path="url(#p8c3110d0a9)" style="fill: none; stroke: #033198; stroke-width: 1.5"/>
   </g>
   <g id="line2d_7">
    <path d="M 33.594693 118.357104 
L 137.225307 14.72649 
" clip-path="url(#p8c3110d0a9)" style="fill: none; stroke: #000000; stroke-width: 1.5; stroke-linecap: square"/>
   </g>
   <g id="LineCollection_2">
    <path d="M 82.292498 44.322468 
L 82.292498 30.667219 
" clip-path="url(#p8c3110d0a9)" style="fill: none; stroke: #399dc7; stroke-width: 1.5"/>
    <path d="M 61.061097 110.199594 
L 61.061097 96.655292 
" clip-path="url(#p8c3110d0a9)" style="fill: none; stroke: #399dc7; stroke-width: 1.5"/>
    <path d="M 61.061097 111.546676 
L 61.061097 109.490145 
" clip-path="url(#p8c3110d0a9)" style="fill: none; stroke: #399dc7; stroke-width: 1.5"/>
    <path d="M 72.026315 108.234254 
L 72.026315 103.623704 
" clip-path="url(#p8c3110d0a9)" style="fill: none; stroke: #399dc7; stroke-width: 1.5"/>
    <path d="M 85.814524 33.536061 
L 85.814524 30.18124 
" clip-path="url(#p8c3110d0a9)" style="fill: none; stroke: #399dc7; stroke-width: 1.5"/>
    <path d="M 46.573853 115.198831 
L 46.573853 112.107304 
" clip-path="url(#p8c3110d0a9)" style="fill: none; stroke: #399dc7; stroke-width: 1.5"/>
    <path d="M 72.026315 107.575523 
L 72.026315 99.235725 
" clip-path="url(#p8c3110d0a9)" style="fill: none; stroke: #399dc7; stroke-width: 1.5"/>
    <path d="M 46.573853 116.763745 
L 46.573853 111.900869 
" clip-path="url(#p8c3110d0a9)" style="fill: none; stroke: #399dc7; stroke-width: 1.5"/>
    <path d="M 85.814524 37.467179 
L 85.814524 29.938353 
" clip-path="url(#p8c3110d0a9)" style="fill: none; stroke: #399dc7; stroke-width: 1.5"/>
   </g>
   <g id="line2d_8">
    <path d="M 33.594693 118.357104 
L 137.225307 14.72649 
" clip-path="url(#p8c3110d0a9)" style="fill: none; stroke: #000000; stroke-width: 1.5; stroke-linecap: square"/>
   </g>
   <g id="LineCollection_3">
    <path d="M 80.224241 34.973131 
L 80.224241 29.573313 
" clip-path="url(#p8c3110d0a9)" style="fill: none; stroke: #c1eac2; stroke-width: 1.5"/>
    <path d="M 62.095226 112.898829 
L 62.095226 107.999529 
" clip-path="url(#p8c3110d0a9)" style="fill: none; stroke: #c1eac2; stroke-width: 1.5"/>
    <path d="M 62.095226 109.845258 
L 62.095226 107.591335 
" clip-path="url(#p8c3110d0a9)" style="fill: none; stroke: #c1eac2; stroke-width: 1.5"/>
    <path d="M 82.026905 100.529808 
L 82.026905 89.230485 
" clip-path="url(#p8c3110d0a9)" style="fill: none; stroke: #c1eac2; stroke-width: 1.5"/>
    <path d="M 70.357008 47.879129 
L 70.357008 37.128057 
" clip-path="url(#p8c3110d0a9)" style="fill: none; stroke: #c1eac2; stroke-width: 1.5"/>
    <path d="M 52.03078 115.429676 
L 52.03078 112.68424 
" clip-path="url(#p8c3110d0a9)" style="fill: none; stroke: #c1eac2; stroke-width: 1.5"/>
    <path d="M 82.026905 99.112066 
L 82.026905 90.975213 
" clip-path="url(#p8c3110d0a9)" style="fill: none; stroke: #c1eac2; stroke-width: 1.5"/>
    <path d="M 52.03078 113.956304 
L 52.03078 106.911545 
" clip-path="url(#p8c3110d0a9)" style="fill: none; stroke: #c1eac2; stroke-width: 1.5"/>
    <path d="M 70.357008 48.100198 
L 70.357008 43.826069 
" clip-path="url(#p8c3110d0a9)" style="fill: none; stroke: #c1eac2; stroke-width: 1.5"/>
   </g>
   <g id="line2d_9">
    <path d="M 33.594693 118.357104 
L 137.225307 14.72649 
" clip-path="url(#p8c3110d0a9)" style="fill: none; stroke: #000000; stroke-width: 1.5; stroke-linecap: square"/>
   </g>
   <g id="LineCollection_4">
    <path d="M 74.887378 41.910773 
L 74.887378 35.403338 
" clip-path="url(#p8c3110d0a9)" style="fill: none; stroke: #b58b31; stroke-width: 1.5"/>
    <path d="M 64.763657 109.141084 
L 64.763657 104.816003 
" clip-path="url(#p8c3110d0a9)" style="fill: none; stroke: #b58b31; stroke-width: 1.5"/>
    <path d="M 64.763657 107.93686 
L 64.763657 103.673336 
" clip-path="url(#p8c3110d0a9)" style="fill: none; stroke: #b58b31; stroke-width: 1.5"/>
    <path d="M 77.169684 97.168801 
L 77.169684 85.433833 
" clip-path="url(#p8c3110d0a9)" style="fill: none; stroke: #b58b31; stroke-width: 1.5"/>
    <path d="M 69.852814 55.625441 
L 69.852814 45.779337 
" clip-path="url(#p8c3110d0a9)" style="fill: none; stroke: #b58b31; stroke-width: 1.5"/>
    <path d="M 57.392194 112.91372 
L 57.392194 105.960262 
" clip-path="url(#p8c3110d0a9)" style="fill: none; stroke: #b58b31; stroke-width: 1.5"/>
    <path d="M 77.169684 94.495795 
L 77.169684 83.035125 
" clip-path="url(#p8c3110d0a9)" style="fill: none; stroke: #b58b31; stroke-width: 1.5"/>
    <path d="M 57.392194 112.907529 
L 57.392194 110.119727 
" clip-path="url(#p8c3110d0a9)" style="fill: none; stroke: #b58b31; stroke-width: 1.5"/>
    <path d="M 69.852814 56.198987 
L 69.852814 46.124232 
" clip-path="url(#p8c3110d0a9)" style="fill: none; stroke: #b58b31; stroke-width: 1.5"/>
   </g>
   <g id="line2d_10">
    <path d="M 33.594693 118.357104 
L 137.225307 14.72649 
" clip-path="url(#p8c3110d0a9)" style="fill: none; stroke: #000000; stroke-width: 1.5; stroke-linecap: square"/>
   </g>
   <g id="LineCollection_5">
    <path d="M 68.875469 67.672432 
L 68.875469 41.399328 
" clip-path="url(#p8c3110d0a9)" style="fill: none; stroke: #7e1700; stroke-width: 1.5"/>
    <path d="M 67.769612 107.614506 
L 67.769612 90.467452 
" clip-path="url(#p8c3110d0a9)" style="fill: none; stroke: #7e1700; stroke-width: 1.5"/>
    <path d="M 67.769612 102.479111 
L 67.769612 93.248567 
" clip-path="url(#p8c3110d0a9)" style="fill: none; stroke: #7e1700; stroke-width: 1.5"/>
    <path d="M 68.360164 97.497294 
L 68.360164 75.897175 
" clip-path="url(#p8c3110d0a9)" style="fill: none; stroke: #7e1700; stroke-width: 1.5"/>
    <path d="M 71.585426 68.447767 
L 71.585426 49.026301 
" clip-path="url(#p8c3110d0a9)" style="fill: none; stroke: #7e1700; stroke-width: 1.5"/>
    <path d="M 64.469102 108.247897 
L 64.469102 103.76496 
" clip-path="url(#p8c3110d0a9)" style="fill: none; stroke: #7e1700; stroke-width: 1.5"/>
    <path d="M 68.360164 89.90464 
L 68.360164 70.231348 
" clip-path="url(#p8c3110d0a9)" style="fill: none; stroke: #7e1700; stroke-width: 1.5"/>
    <path d="M 64.469102 109.937401 
L 64.469102 87.527251 
" clip-path="url(#p8c3110d0a9)" style="fill: none; stroke: #7e1700; stroke-width: 1.5"/>
    <path d="M 71.585426 78.901814 
L 71.585426 66.378941 
" clip-path="url(#p8c3110d0a9)" style="fill: none; stroke: #7e1700; stroke-width: 1.5"/>
   </g>
   <g id="line2d_11">
    <path d="M 33.594693 118.357104 
L 137.225307 14.72649 
" clip-path="url(#p8c3110d0a9)" style="fill: none; stroke: #000000; stroke-width: 1.5; stroke-linecap: square"/>
   </g>
   <g id="line2d_12">
    <defs>
     <path id="md340c1c1c6" d="M 0 1.5 
C 0.397805 1.5 0.77937 1.341951 1.06066 1.06066 
C 1.341951 0.77937 1.5 0.397805 1.5 0 
C 1.5 -0.397805 1.341951 -0.77937 1.06066 -1.06066 
C 0.77937 -1.341951 0.397805 -1.5 0 -1.5 
C -0.397805 -1.5 -0.77937 -1.341951 -1.06066 -1.06066 
C -1.341951 -0.77937 -1.5 -0.397805 -1.5 0 
C -1.5 0.397805 -1.341951 0.77937 -1.06066 1.06066 
C -0.77937 1.341951 -0.397805 1.5 0 1.5 
z
" style="stroke: #033198"/>
    </defs>
    <g clip-path="url(#p8c3110d0a9)">
     <use xlink:href="#md340c1c1c6" x="103.103032" y="39.241713" style="fill: #033198; stroke: #033198"/>
     <use xlink:href="#md340c1c1c6" x="50.65583" y="107.342329" style="fill: #033198; stroke: #033198"/>
     <use xlink:href="#md340c1c1c6" x="50.65583" y="104.856655" style="fill: #033198; stroke: #033198"/>
     <use xlink:href="#md340c1c1c6" x="68.255256" y="97.678521" style="fill: #033198; stroke: #033198"/>
     <use xlink:href="#md340c1c1c6" x="85.410592" y="38.118211" style="fill: #033198; stroke: #033198"/>
     <use xlink:href="#md340c1c1c6" x="50.748845" y="115.643965" style="fill: #033198; stroke: #033198"/>
     <use xlink:href="#md340c1c1c6" x="68.255256" y="94.352238" style="fill: #033198; stroke: #033198"/>
     <use xlink:href="#md340c1c1c6" x="50.748845" y="115.823902" style="fill: #033198; stroke: #033198"/>
     <use xlink:href="#md340c1c1c6" x="85.410592" y="41.264557" style="fill: #033198; stroke: #033198"/>
    </g>
   </g>
   <g id="line2d_13">
    <defs>
     <path id="md4a75b7ac5" d="M 0 1.5 
C 0.397805 1.5 0.77937 1.341951 1.06066 1.06066 
C 1.341951 0.77937 1.5 0.397805 1.5 0 
C 1.5 -0.397805 1.341951 -0.77937 1.06066 -1.06066 
C 0.77937 -1.341951 0.397805 -1.5 0 -1.5 
C -0.397805 -1.5 -0.77937 -1.341951 -1.06066 -1.06066 
C -1.341951 -0.77937 -1.5 -0.397805 -1.5 0 
C -1.5 0.397805 -1.341951 0.77937 -1.06066 1.06066 
C -0.77937 1.341951 -0.397805 1.5 0 1.5 
z
" style="stroke: #399dc7"/>
    </defs>
    <g clip-path="url(#p8c3110d0a9)">
     <use xlink:href="#md4a75b7ac5" x="82.292498" y="37.494844" style="fill: #399dc7; stroke: #399dc7"/>
     <use xlink:href="#md4a75b7ac5" x="61.061097" y="103.427443" style="fill: #399dc7; stroke: #399dc7"/>
     <use xlink:href="#md4a75b7ac5" x="61.061097" y="110.518411" style="fill: #399dc7; stroke: #399dc7"/>
     <use xlink:href="#md4a75b7ac5" x="72.026315" y="105.928979" style="fill: #399dc7; stroke: #399dc7"/>
     <use xlink:href="#md4a75b7ac5" x="85.814524" y="31.858651" style="fill: #399dc7; stroke: #399dc7"/>
     <use xlink:href="#md4a75b7ac5" x="46.573853" y="113.653068" style="fill: #399dc7; stroke: #399dc7"/>
     <use xlink:href="#md4a75b7ac5" x="72.026315" y="103.405624" style="fill: #399dc7; stroke: #399dc7"/>
     <use xlink:href="#md4a75b7ac5" x="46.573853" y="114.332307" style="fill: #399dc7; stroke: #399dc7"/>
     <use xlink:href="#md4a75b7ac5" x="85.814524" y="33.702766" style="fill: #399dc7; stroke: #399dc7"/>
    </g>
   </g>
   <g id="line2d_14">
    <defs>
     <path id="m212548bcd0" d="M 0 1.5 
C 0.397805 1.5 0.77937 1.341951 1.06066 1.06066 
C 1.341951 0.77937 1.5 0.397805 1.5 0 
C 1.5 -0.397805 1.341951 -0.77937 1.06066 -1.06066 
C 0.77937 -1.341951 0.397805 -1.5 0 -1.5 
C -0.397805 -1.5 -0.77937 -1.341951 -1.06066 -1.06066 
C -1.341951 -0.77937 -1.5 -0.397805 -1.5 0 
C -1.5 0.397805 -1.341951 0.77937 -1.06066 1.06066 
C -0.77937 1.341951 -0.397805 1.5 0 1.5 
z
" style="stroke: #c1eac2"/>
    </defs>
    <g clip-path="url(#p8c3110d0a9)">
     <use xlink:href="#m212548bcd0" x="80.224241" y="32.273222" style="fill: #c1eac2; stroke: #c1eac2"/>
     <use xlink:href="#m212548bcd0" x="62.095226" y="110.449179" style="fill: #c1eac2; stroke: #c1eac2"/>
     <use xlink:href="#m212548bcd0" x="62.095226" y="108.718297" style="fill: #c1eac2; stroke: #c1eac2"/>
     <use xlink:href="#m212548bcd0" x="82.026905" y="94.880147" style="fill: #c1eac2; stroke: #c1eac2"/>
     <use xlink:href="#m212548bcd0" x="70.357008" y="42.503593" style="fill: #c1eac2; stroke: #c1eac2"/>
     <use xlink:href="#m212548bcd0" x="52.03078" y="114.056958" style="fill: #c1eac2; stroke: #c1eac2"/>
     <use xlink:href="#m212548bcd0" x="82.026905" y="95.043639" style="fill: #c1eac2; stroke: #c1eac2"/>
     <use xlink:href="#m212548bcd0" x="52.03078" y="110.433924" style="fill: #c1eac2; stroke: #c1eac2"/>
     <use xlink:href="#m212548bcd0" x="70.357008" y="45.963134" style="fill: #c1eac2; stroke: #c1eac2"/>
    </g>
   </g>
   <g id="line2d_15">
    <defs>
     <path id="m548514374c" d="M 0 1.5 
C 0.397805 1.5 0.77937 1.341951 1.06066 1.06066 
C 1.341951 0.77937 1.5 0.397805 1.5 0 
C 1.5 -0.397805 1.341951 -0.77937 1.06066 -1.06066 
C 0.77937 -1.341951 0.397805 -1.5 0 -1.5 
C -0.397805 -1.5 -0.77937 -1.341951 -1.06066 -1.06066 
C -1.341951 -0.77937 -1.5 -0.397805 -1.5 0 
C -1.5 0.397805 -1.341951 0.77937 -1.06066 1.06066 
C -0.77937 1.341951 -0.397805 1.5 0 1.5 
z
" style="stroke: #b58b31"/>
    </defs>
    <g clip-path="url(#p8c3110d0a9)">
     <use xlink:href="#m548514374c" x="74.887378" y="38.657056" style="fill: #b58b31; stroke: #b58b31"/>
     <use xlink:href="#m548514374c" x="64.763657" y="106.978544" style="fill: #b58b31; stroke: #b58b31"/>
     <use xlink:href="#m548514374c" x="64.763657" y="105.805098" style="fill: #b58b31; stroke: #b58b31"/>
     <use xlink:href="#m548514374c" x="77.169684" y="91.301317" style="fill: #b58b31; stroke: #b58b31"/>
     <use xlink:href="#m548514374c" x="69.852814" y="50.702389" style="fill: #b58b31; stroke: #b58b31"/>
     <use xlink:href="#m548514374c" x="57.392194" y="109.436991" style="fill: #b58b31; stroke: #b58b31"/>
     <use xlink:href="#m548514374c" x="77.169684" y="88.76546" style="fill: #b58b31; stroke: #b58b31"/>
     <use xlink:href="#m548514374c" x="57.392194" y="111.513628" style="fill: #b58b31; stroke: #b58b31"/>
     <use xlink:href="#m548514374c" x="69.852814" y="51.16161" style="fill: #b58b31; stroke: #b58b31"/>
    </g>
   </g>
   <g id="line2d_16">
    <defs>
     <path id="mf8ecf73ab9" d="M 0 1.5 
C 0.397805 1.5 0.77937 1.341951 1.06066 1.06066 
C 1.341951 0.77937 1.5 0.397805 1.5 0 
C 1.5 -0.397805 1.341951 -0.77937 1.06066 -1.06066 
C 0.77937 -1.341951 0.397805 -1.5 0 -1.5 
C -0.397805 -1.5 -0.77937 -1.341951 -1.06066 -1.06066 
C -1.341951 -0.77937 -1.5 -0.397805 -1.5 0 
C -1.5 0.397805 -1.341951 0.77937 -1.06066 1.06066 
C -0.77937 1.341951 -0.397805 1.5 0 1.5 
z
" style="stroke: #7e1700"/>
    </defs>
    <g clip-path="url(#p8c3110d0a9)">
     <use xlink:href="#mf8ecf73ab9" x="68.875469" y="54.53588" style="fill: #7e1700; stroke: #7e1700"/>
     <use xlink:href="#mf8ecf73ab9" x="67.769612" y="99.040979" style="fill: #7e1700; stroke: #7e1700"/>
     <use xlink:href="#mf8ecf73ab9" x="67.769612" y="97.863839" style="fill: #7e1700; stroke: #7e1700"/>
     <use xlink:href="#mf8ecf73ab9" x="68.360164" y="86.697235" style="fill: #7e1700; stroke: #7e1700"/>
     <use xlink:href="#mf8ecf73ab9" x="71.585426" y="58.737034" style="fill: #7e1700; stroke: #7e1700"/>
     <use xlink:href="#mf8ecf73ab9" x="64.469102" y="106.006429" style="fill: #7e1700; stroke: #7e1700"/>
     <use xlink:href="#mf8ecf73ab9" x="68.360164" y="80.067994" style="fill: #7e1700; stroke: #7e1700"/>
     <use xlink:href="#mf8ecf73ab9" x="64.469102" y="98.732326" style="fill: #7e1700; stroke: #7e1700"/>
     <use xlink:href="#mf8ecf73ab9" x="71.585426" y="72.640378" style="fill: #7e1700; stroke: #7e1700"/>
    </g>
   </g>
   <g id="patch_3">
    <path d="M 33.594693 118.357104 
L 33.594693 14.72649 
" style="fill: none; stroke: #000000; stroke-width: 0.8; stroke-linejoin: miter; stroke-linecap: square"/>
   </g>
   <g id="patch_4">
    <path d="M 33.594693 118.357104 
L 137.225307 118.357104 
" style="fill: none; stroke: #000000; stroke-width: 0.8; stroke-linejoin: miter; stroke-linecap: square"/>
   </g>
   <g id="text_9">
    <!-- Spearman ρ = 0.86 -->
    <g transform="translate(85.949682 105.636948) scale(0.06 -0.06)">
     <defs>
      <path id="ArialMT-53" d="M 288 1472 
L 859 1522 
Q 900 1178 1048 958 
Q 1197 738 1509 602 
Q 1822 466 2213 466 
Q 2559 466 2825 569 
Q 3091 672 3220 851 
Q 3350 1031 3350 1244 
Q 3350 1459 3225 1620 
Q 3100 1781 2813 1891 
Q 2628 1963 1997 2114 
Q 1366 2266 1113 2400 
Q 784 2572 623 2826 
Q 463 3081 463 3397 
Q 463 3744 659 4045 
Q 856 4347 1234 4503 
Q 1613 4659 2075 4659 
Q 2584 4659 2973 4495 
Q 3363 4331 3572 4012 
Q 3781 3694 3797 3291 
L 3216 3247 
Q 3169 3681 2898 3903 
Q 2628 4125 2100 4125 
Q 1550 4125 1298 3923 
Q 1047 3722 1047 3438 
Q 1047 3191 1225 3031 
Q 1400 2872 2139 2705 
Q 2878 2538 3153 2413 
Q 3553 2228 3743 1945 
Q 3934 1663 3934 1294 
Q 3934 928 3725 604 
Q 3516 281 3123 101 
Q 2731 -78 2241 -78 
Q 1619 -78 1198 103 
Q 778 284 539 648 
Q 300 1013 288 1472 
z
" transform="scale(0.015625)"/>
      <path id="ArialMT-70" d="M 422 -1272 
L 422 3319 
L 934 3319 
L 934 2888 
Q 1116 3141 1344 3267 
Q 1572 3394 1897 3394 
Q 2322 3394 2647 3175 
Q 2972 2956 3137 2557 
Q 3303 2159 3303 1684 
Q 3303 1175 3120 767 
Q 2938 359 2589 142 
Q 2241 -75 1856 -75 
Q 1575 -75 1351 44 
Q 1128 163 984 344 
L 984 -1272 
L 422 -1272 
z
M 931 1641 
Q 931 1000 1190 694 
Q 1450 388 1819 388 
Q 2194 388 2461 705 
Q 2728 1022 2728 1688 
Q 2728 2322 2467 2637 
Q 2206 2953 1844 2953 
Q 1484 2953 1207 2617 
Q 931 2281 931 1641 
z
" transform="scale(0.015625)"/>
      <path id="ArialMT-6d" d="M 422 0 
L 422 3319 
L 925 3319 
L 925 2853 
Q 1081 3097 1340 3245 
Q 1600 3394 1931 3394 
Q 2300 3394 2536 3241 
Q 2772 3088 2869 2813 
Q 3263 3394 3894 3394 
Q 4388 3394 4653 3120 
Q 4919 2847 4919 2278 
L 4919 0 
L 4359 0 
L 4359 2091 
Q 4359 2428 4304 2576 
Q 4250 2725 4106 2815 
Q 3963 2906 3769 2906 
Q 3419 2906 3187 2673 
Q 2956 2441 2956 1928 
L 2956 0 
L 2394 0 
L 2394 2156 
Q 2394 2531 2256 2718 
Q 2119 2906 1806 2906 
Q 1569 2906 1367 2781 
Q 1166 2656 1075 2415 
Q 984 2175 984 1722 
L 984 0 
L 422 0 
z
" transform="scale(0.015625)"/>
      <path id="ArialMT-6e" d="M 422 0 
L 422 3319 
L 928 3319 
L 928 2847 
Q 1294 3394 1984 3394 
Q 2284 3394 2536 3286 
Q 2788 3178 2913 3003 
Q 3038 2828 3088 2588 
Q 3119 2431 3119 2041 
L 3119 0 
L 2556 0 
L 2556 2019 
Q 2556 2363 2490 2533 
Q 2425 2703 2258 2804 
Q 2091 2906 1866 2906 
Q 1506 2906 1245 2678 
Q 984 2450 984 1813 
L 984 0 
L 422 0 
z
" transform="scale(0.015625)"/>
      <path id="ArialMT-3c1" d="M 409 -1272 
L 409 1544 
Q 409 2488 781 2941 
Q 1153 3394 1863 3394 
Q 2569 3394 2992 2912 
Q 3416 2431 3416 1663 
Q 3416 891 3011 408 
Q 2606 -75 1947 -75 
Q 1331 -75 972 316 
L 972 -1272 
L 409 -1272 
z
M 1881 2928 
Q 1472 2928 1225 2614 
Q 978 2300 978 1616 
Q 978 1000 1222 694 
Q 1466 388 1884 388 
Q 2306 388 2572 705 
Q 2838 1022 2838 1631 
Q 2838 2325 2553 2626 
Q 2269 2928 1881 2928 
z
" transform="scale(0.015625)"/>
      <path id="ArialMT-3d" d="M 3381 2694 
L 356 2694 
L 356 3219 
L 3381 3219 
L 3381 2694 
z
M 3381 1303 
L 356 1303 
L 356 1828 
L 3381 1828 
L 3381 1303 
z
" transform="scale(0.015625)"/>
      <path id="ArialMT-38" d="M 1131 2484 
Q 781 2613 612 2850 
Q 444 3088 444 3419 
Q 444 3919 803 4259 
Q 1163 4600 1759 4600 
Q 2359 4600 2725 4251 
Q 3091 3903 3091 3403 
Q 3091 3084 2923 2848 
Q 2756 2613 2416 2484 
Q 2838 2347 3058 2040 
Q 3278 1734 3278 1309 
Q 3278 722 2862 322 
Q 2447 -78 1769 -78 
Q 1091 -78 675 323 
Q 259 725 259 1325 
Q 259 1772 486 2073 
Q 713 2375 1131 2484 
z
M 1019 3438 
Q 1019 3113 1228 2906 
Q 1438 2700 1772 2700 
Q 2097 2700 2305 2904 
Q 2513 3109 2513 3406 
Q 2513 3716 2298 3927 
Q 2084 4138 1766 4138 
Q 1444 4138 1231 3931 
Q 1019 3725 1019 3438 
z
M 838 1322 
Q 838 1081 952 856 
Q 1066 631 1291 507 
Q 1516 384 1775 384 
Q 2178 384 2440 643 
Q 2703 903 2703 1303 
Q 2703 1709 2433 1975 
Q 2163 2241 1756 2241 
Q 1359 2241 1098 1978 
Q 838 1716 838 1322 
z
" transform="scale(0.015625)"/>
      <path id="ArialMT-36" d="M 3184 3459 
L 2625 3416 
Q 2550 3747 2413 3897 
Q 2184 4138 1850 4138 
Q 1581 4138 1378 3988 
Q 1113 3794 959 3422 
Q 806 3050 800 2363 
Q 1003 2672 1297 2822 
Q 1591 2972 1913 2972 
Q 2475 2972 2870 2558 
Q 3266 2144 3266 1488 
Q 3266 1056 3080 686 
Q 2894 316 2569 119 
Q 2244 -78 1831 -78 
Q 1128 -78 684 439 
Q 241 956 241 2144 
Q 241 3472 731 4075 
Q 1159 4600 1884 4600 
Q 2425 4600 2770 4297 
Q 3116 3994 3184 3459 
z
M 888 1484 
Q 888 1194 1011 928 
Q 1134 663 1356 523 
Q 1578 384 1822 384 
Q 2178 384 2434 671 
Q 2691 959 2691 1453 
Q 2691 1928 2437 2201 
Q 2184 2475 1800 2475 
Q 1419 2475 1153 2201 
Q 888 1928 888 1484 
z
" transform="scale(0.015625)"/>
     </defs>
     <use xlink:href="#ArialMT-53"/>
     <use xlink:href="#ArialMT-70" x="66.699219"/>
     <use xlink:href="#ArialMT-65" x="122.314453"/>
     <use xlink:href="#ArialMT-61" x="177.929688"/>
     <use xlink:href="#ArialMT-72" x="233.544922"/>
     <use xlink:href="#ArialMT-6d" x="266.845703"/>
     <use xlink:href="#ArialMT-61" x="350.146484"/>
     <use xlink:href="#ArialMT-6e" x="405.761719"/>
     <use xlink:href="#ArialMT-20" x="461.376953"/>
     <use xlink:href="#ArialMT-3c1" x="489.160156"/>
     <use xlink:href="#ArialMT-20" x="546.044922"/>
     <use xlink:href="#ArialMT-3d" x="573.828125"/>
     <use xlink:href="#ArialMT-20" x="632.226562"/>
     <use xlink:href="#ArialMT-30" x="660.009766"/>
     <use xlink:href="#ArialMT-2e" x="715.625"/>
     <use xlink:href="#ArialMT-38" x="743.408203"/>
     <use xlink:href="#ArialMT-36" x="799.023438"/>
    </g>
    <!-- RMSE = 0.21 -->
    <g transform="translate(101.375307 111.983073) scale(0.06 -0.06)">
     <defs>
      <path id="ArialMT-52" d="M 503 0 
L 503 4581 
L 2534 4581 
Q 3147 4581 3465 4457 
Q 3784 4334 3975 4021 
Q 4166 3709 4166 3331 
Q 4166 2844 3850 2509 
Q 3534 2175 2875 2084 
Q 3116 1969 3241 1856 
Q 3506 1613 3744 1247 
L 4541 0 
L 3778 0 
L 3172 953 
Q 2906 1366 2734 1584 
Q 2563 1803 2427 1890 
Q 2291 1978 2150 2013 
Q 2047 2034 1813 2034 
L 1109 2034 
L 1109 0 
L 503 0 
z
M 1109 2559 
L 2413 2559 
Q 2828 2559 3062 2645 
Q 3297 2731 3419 2920 
Q 3541 3109 3541 3331 
Q 3541 3656 3305 3865 
Q 3069 4075 2559 4075 
L 1109 4075 
L 1109 2559 
z
" transform="scale(0.015625)"/>
      <path id="ArialMT-4d" d="M 475 0 
L 475 4581 
L 1388 4581 
L 2472 1338 
Q 2622 884 2691 659 
Q 2769 909 2934 1394 
L 4031 4581 
L 4847 4581 
L 4847 0 
L 4263 0 
L 4263 3834 
L 2931 0 
L 2384 0 
L 1059 3900 
L 1059 0 
L 475 0 
z
" transform="scale(0.015625)"/>
      <path id="ArialMT-45" d="M 506 0 
L 506 4581 
L 3819 4581 
L 3819 4041 
L 1113 4041 
L 1113 2638 
L 3647 2638 
L 3647 2100 
L 1113 2100 
L 1113 541 
L 3925 541 
L 3925 0 
L 506 0 
z
" transform="scale(0.015625)"/>
      <path id="ArialMT-32" d="M 3222 541 
L 3222 0 
L 194 0 
Q 188 203 259 391 
Q 375 700 629 1000 
Q 884 1300 1366 1694 
Q 2113 2306 2375 2664 
Q 2638 3022 2638 3341 
Q 2638 3675 2398 3904 
Q 2159 4134 1775 4134 
Q 1369 4134 1125 3890 
Q 881 3647 878 3216 
L 300 3275 
Q 359 3922 746 4261 
Q 1134 4600 1788 4600 
Q 2447 4600 2831 4234 
Q 3216 3869 3216 3328 
Q 3216 3053 3103 2787 
Q 2991 2522 2730 2228 
Q 2469 1934 1863 1422 
Q 1356 997 1212 845 
Q 1069 694 975 541 
L 3222 541 
z
" transform="scale(0.015625)"/>
     </defs>
     <use xlink:href="#ArialMT-52"/>
     <use xlink:href="#ArialMT-4d" x="72.216797"/>
     <use xlink:href="#ArialMT-53" x="155.517578"/>
     <use xlink:href="#ArialMT-45" x="222.216797"/>
     <use xlink:href="#ArialMT-20" x="288.916016"/>
     <use xlink:href="#ArialMT-3d" x="316.699219"/>
     <use xlink:href="#ArialMT-20" x="375.097656"/>
     <use xlink:href="#ArialMT-30" x="402.880859"/>
     <use xlink:href="#ArialMT-2e" x="458.496094"/>
     <use xlink:href="#ArialMT-32" x="486.279297"/>
     <use xlink:href="#ArialMT-31" x="541.894531"/>
    </g>
   </g>
   <g id="text_10">
    <!-- Spearman ρ = 0.86 -->
    <g transform="translate(85.949682 105.636948) scale(0.06 -0.06)">
     <use xlink:href="#ArialMT-53"/>
     <use xlink:href="#ArialMT-70" x="66.699219"/>
     <use xlink:href="#ArialMT-65" x="122.314453"/>
     <use xlink:href="#ArialMT-61" x="177.929688"/>
     <use xlink:href="#ArialMT-72" x="233.544922"/>
     <use xlink:href="#ArialMT-6d" x="266.845703"/>
     <use xlink:href="#ArialMT-61" x="350.146484"/>
     <use xlink:href="#ArialMT-6e" x="405.761719"/>
     <use xlink:href="#ArialMT-20" x="461.376953"/>
     <use xlink:href="#ArialMT-3c1" x="489.160156"/>
     <use xlink:href="#ArialMT-20" x="546.044922"/>
     <use xlink:href="#ArialMT-3d" x="573.828125"/>
     <use xlink:href="#ArialMT-20" x="632.226562"/>
     <use xlink:href="#ArialMT-30" x="660.009766"/>
     <use xlink:href="#ArialMT-2e" x="715.625"/>
     <use xlink:href="#ArialMT-38" x="743.408203"/>
     <use xlink:href="#ArialMT-36" x="799.023438"/>
    </g>
    <!-- RMSE = 0.21 -->
    <g transform="translate(101.375307 111.983073) scale(0.06 -0.06)">
     <use xlink:href="#ArialMT-52"/>
     <use xlink:href="#ArialMT-4d" x="72.216797"/>
     <use xlink:href="#ArialMT-53" x="155.517578"/>
     <use xlink:href="#ArialMT-45" x="222.216797"/>
     <use xlink:href="#ArialMT-20" x="288.916016"/>
     <use xlink:href="#ArialMT-3d" x="316.699219"/>
     <use xlink:href="#ArialMT-20" x="375.097656"/>
     <use xlink:href="#ArialMT-30" x="402.880859"/>
     <use xlink:href="#ArialMT-2e" x="458.496094"/>
     <use xlink:href="#ArialMT-32" x="486.279297"/>
     <use xlink:href="#ArialMT-31" x="541.894531"/>
    </g>
   </g>
   <g id="text_11">
    <!-- Spearman ρ = 0.86 -->
    <g transform="translate(85.949682 105.636948) scale(0.06 -0.06)">
     <use xlink:href="#ArialMT-53"/>
     <use xlink:href="#ArialMT-70" x="66.699219"/>
     <use xlink:href="#ArialMT-65" x="122.314453"/>
     <use xlink:href="#ArialMT-61" x="177.929688"/>
     <use xlink:href="#ArialMT-72" x="233.544922"/>
     <use xlink:href="#ArialMT-6d" x="266.845703"/>
     <use xlink:href="#ArialMT-61" x="350.146484"/>
     <use xlink:href="#ArialMT-6e" x="405.761719"/>
     <use xlink:href="#ArialMT-20" x="461.376953"/>
     <use xlink:href="#ArialMT-3c1" x="489.160156"/>
     <use xlink:href="#ArialMT-20" x="546.044922"/>
     <use xlink:href="#ArialMT-3d" x="573.828125"/>
     <use xlink:href="#ArialMT-20" x="632.226562"/>
     <use xlink:href="#ArialMT-30" x="660.009766"/>
     <use xlink:href="#ArialMT-2e" x="715.625"/>
     <use xlink:href="#ArialMT-38" x="743.408203"/>
     <use xlink:href="#ArialMT-36" x="799.023438"/>
    </g>
    <!-- RMSE = 0.21 -->
    <g transform="translate(101.375307 111.983073) scale(0.06 -0.06)">
     <use xlink:href="#ArialMT-52"/>
     <use xlink:href="#ArialMT-4d" x="72.216797"/>
     <use xlink:href="#ArialMT-53" x="155.517578"/>
     <use xlink:href="#ArialMT-45" x="222.216797"/>
     <use xlink:href="#ArialMT-20" x="288.916016"/>
     <use xlink:href="#ArialMT-3d" x="316.699219"/>
     <use xlink:href="#ArialMT-20" x="375.097656"/>
     <use xlink:href="#ArialMT-30" x="402.880859"/>
     <use xlink:href="#ArialMT-2e" x="458.496094"/>
     <use xlink:href="#ArialMT-32" x="486.279297"/>
     <use xlink:href="#ArialMT-31" x="541.894531"/>
    </g>
   </g>
   <g id="text_12">
    <!-- Spearman ρ = 0.86 -->
    <g transform="translate(85.949682 105.636948) scale(0.06 -0.06)">
     <use xlink:href="#ArialMT-53"/>
     <use xlink:href="#ArialMT-70" x="66.699219"/>
     <use xlink:href="#ArialMT-65" x="122.314453"/>
     <use xlink:href="#ArialMT-61" x="177.929688"/>
     <use xlink:href="#ArialMT-72" x="233.544922"/>
     <use xlink:href="#ArialMT-6d" x="266.845703"/>
     <use xlink:href="#ArialMT-61" x="350.146484"/>
     <use xlink:href="#ArialMT-6e" x="405.761719"/>
     <use xlink:href="#ArialMT-20" x="461.376953"/>
     <use xlink:href="#ArialMT-3c1" x="489.160156"/>
     <use xlink:href="#ArialMT-20" x="546.044922"/>
     <use xlink:href="#ArialMT-3d" x="573.828125"/>
     <use xlink:href="#ArialMT-20" x="632.226562"/>
     <use xlink:href="#ArialMT-30" x="660.009766"/>
     <use xlink:href="#ArialMT-2e" x="715.625"/>
     <use xlink:href="#ArialMT-38" x="743.408203"/>
     <use xlink:href="#ArialMT-36" x="799.023438"/>
    </g>
    <!-- RMSE = 0.21 -->
    <g transform="translate(101.375307 111.983073) scale(0.06 -0.06)">
     <use xlink:href="#ArialMT-52"/>
     <use xlink:href="#ArialMT-4d" x="72.216797"/>
     <use xlink:href="#ArialMT-53" x="155.517578"/>
     <use xlink:href="#ArialMT-45" x="222.216797"/>
     <use xlink:href="#ArialMT-20" x="288.916016"/>
     <use xlink:href="#ArialMT-3d" x="316.699219"/>
     <use xlink:href="#ArialMT-20" x="375.097656"/>
     <use xlink:href="#ArialMT-30" x="402.880859"/>
     <use xlink:href="#ArialMT-2e" x="458.496094"/>
     <use xlink:href="#ArialMT-32" x="486.279297"/>
     <use xlink:href="#ArialMT-31" x="541.894531"/>
    </g>
   </g>
   <g id="text_13">
    <!-- Spearman ρ = 0.86 -->
    <g transform="translate(85.949682 105.636948) scale(0.06 -0.06)">
     <use xlink:href="#ArialMT-53"/>
     <use xlink:href="#ArialMT-70" x="66.699219"/>
     <use xlink:href="#ArialMT-65" x="122.314453"/>
     <use xlink:href="#ArialMT-61" x="177.929688"/>
     <use xlink:href="#ArialMT-72" x="233.544922"/>
     <use xlink:href="#ArialMT-6d" x="266.845703"/>
     <use xlink:href="#ArialMT-61" x="350.146484"/>
     <use xlink:href="#ArialMT-6e" x="405.761719"/>
     <use xlink:href="#ArialMT-20" x="461.376953"/>
     <use xlink:href="#ArialMT-3c1" x="489.160156"/>
     <use xlink:href="#ArialMT-20" x="546.044922"/>
     <use xlink:href="#ArialMT-3d" x="573.828125"/>
     <use xlink:href="#ArialMT-20" x="632.226562"/>
     <use xlink:href="#ArialMT-30" x="660.009766"/>
     <use xlink:href="#ArialMT-2e" x="715.625"/>
     <use xlink:href="#ArialMT-38" x="743.408203"/>
     <use xlink:href="#ArialMT-36" x="799.023438"/>
    </g>
    <!-- RMSE = 0.21 -->
    <g transform="translate(101.375307 111.983073) scale(0.06 -0.06)">
     <use xlink:href="#ArialMT-52"/>
     <use xlink:href="#ArialMT-4d" x="72.216797"/>
     <use xlink:href="#ArialMT-53" x="155.517578"/>
     <use xlink:href="#ArialMT-45" x="222.216797"/>
     <use xlink:href="#ArialMT-20" x="288.916016"/>
     <use xlink:href="#ArialMT-3d" x="316.699219"/>
     <use xlink:href="#ArialMT-20" x="375.097656"/>
     <use xlink:href="#ArialMT-30" x="402.880859"/>
     <use xlink:href="#ArialMT-2e" x="458.496094"/>
     <use xlink:href="#ArialMT-32" x="486.279297"/>
     <use xlink:href="#ArialMT-31" x="541.894531"/>
    </g>
   </g>
   <g id="text_14">
    <!-- original time rescaled -->
    <g transform="translate(47.6175 8.72649) scale(0.08 -0.08)">
     <defs>
      <path id="ArialMT-67" d="M 319 -275 
L 866 -356 
Q 900 -609 1056 -725 
Q 1266 -881 1628 -881 
Q 2019 -881 2231 -725 
Q 2444 -569 2519 -288 
Q 2563 -116 2559 434 
Q 2191 0 1641 0 
Q 956 0 581 494 
Q 206 988 206 1678 
Q 206 2153 378 2554 
Q 550 2956 876 3175 
Q 1203 3394 1644 3394 
Q 2231 3394 2613 2919 
L 2613 3319 
L 3131 3319 
L 3131 450 
Q 3131 -325 2973 -648 
Q 2816 -972 2473 -1159 
Q 2131 -1347 1631 -1347 
Q 1038 -1347 672 -1080 
Q 306 -813 319 -275 
z
M 784 1719 
Q 784 1066 1043 766 
Q 1303 466 1694 466 
Q 2081 466 2343 764 
Q 2606 1063 2606 1700 
Q 2606 2309 2336 2618 
Q 2066 2928 1684 2928 
Q 1309 2928 1046 2623 
Q 784 2319 784 1719 
z
" transform="scale(0.015625)"/>
      <path id="ArialMT-6c" d="M 409 0 
L 409 4581 
L 972 4581 
L 972 0 
L 409 0 
z
" transform="scale(0.015625)"/>
      <path id="ArialMT-74" d="M 1650 503 
L 1731 6 
Q 1494 -44 1306 -44 
Q 1000 -44 831 53 
Q 663 150 594 308 
Q 525 466 525 972 
L 525 2881 
L 113 2881 
L 113 3319 
L 525 3319 
L 525 4141 
L 1084 4478 
L 1084 3319 
L 1650 3319 
L 1650 2881 
L 1084 2881 
L 1084 941 
Q 1084 700 1114 631 
Q 1144 563 1211 522 
Q 1278 481 1403 481 
Q 1497 481 1650 503 
z
" transform="scale(0.015625)"/>
      <path id="ArialMT-73" d="M 197 991 
L 753 1078 
Q 800 744 1014 566 
Q 1228 388 1613 388 
Q 2000 388 2187 545 
Q 2375 703 2375 916 
Q 2375 1106 2209 1216 
Q 2094 1291 1634 1406 
Q 1016 1563 777 1677 
Q 538 1791 414 1992 
Q 291 2194 291 2438 
Q 291 2659 392 2848 
Q 494 3038 669 3163 
Q 800 3259 1026 3326 
Q 1253 3394 1513 3394 
Q 1903 3394 2198 3281 
Q 2494 3169 2634 2976 
Q 2775 2784 2828 2463 
L 2278 2388 
Q 2241 2644 2061 2787 
Q 1881 2931 1553 2931 
Q 1166 2931 1000 2803 
Q 834 2675 834 2503 
Q 834 2394 903 2306 
Q 972 2216 1119 2156 
Q 1203 2125 1616 2013 
Q 2213 1853 2448 1751 
Q 2684 1650 2818 1456 
Q 2953 1263 2953 975 
Q 2953 694 2789 445 
Q 2625 197 2315 61 
Q 2006 -75 1616 -75 
Q 969 -75 630 194 
Q 291 463 197 991 
z
" transform="scale(0.015625)"/>
      <path id="ArialMT-63" d="M 2588 1216 
L 3141 1144 
Q 3050 572 2676 248 
Q 2303 -75 1759 -75 
Q 1078 -75 664 370 
Q 250 816 250 1647 
Q 250 2184 428 2587 
Q 606 2991 970 3192 
Q 1334 3394 1763 3394 
Q 2303 3394 2647 3120 
Q 2991 2847 3088 2344 
L 2541 2259 
Q 2463 2594 2264 2762 
Q 2066 2931 1784 2931 
Q 1359 2931 1093 2626 
Q 828 2322 828 1663 
Q 828 994 1084 691 
Q 1341 388 1753 388 
Q 2084 388 2306 591 
Q 2528 794 2588 1216 
z
" transform="scale(0.015625)"/>
      <path id="ArialMT-64" d="M 2575 0 
L 2575 419 
Q 2259 -75 1647 -75 
Q 1250 -75 917 144 
Q 584 363 401 755 
Q 219 1147 219 1656 
Q 219 2153 384 2558 
Q 550 2963 881 3178 
Q 1213 3394 1622 3394 
Q 1922 3394 2156 3267 
Q 2391 3141 2538 2938 
L 2538 4581 
L 3097 4581 
L 3097 0 
L 2575 0 
z
M 797 1656 
Q 797 1019 1065 703 
Q 1334 388 1700 388 
Q 2069 388 2326 689 
Q 2584 991 2584 1609 
Q 2584 2291 2321 2609 
Q 2059 2928 1675 2928 
Q 1300 2928 1048 2622 
Q 797 2316 797 1656 
z
" transform="scale(0.015625)"/>
     </defs>
     <use xlink:href="#ArialMT-6f"/>
     <use xlink:href="#ArialMT-72" x="55.615234"/>
     <use xlink:href="#ArialMT-69" x="88.916016"/>
     <use xlink:href="#ArialMT-67" x="111.132812"/>
     <use xlink:href="#ArialMT-69" x="166.748047"/>
     <use xlink:href="#ArialMT-6e" x="188.964844"/>
     <use xlink:href="#ArialMT-61" x="244.580078"/>
     <use xlink:href="#ArialMT-6c" x="300.195312"/>
     <use xlink:href="#ArialMT-20" x="322.412109"/>
     <use xlink:href="#ArialMT-74" x="350.195312"/>
     <use xlink:href="#ArialMT-69" x="377.978516"/>
     <use xlink:href="#ArialMT-6d" x="400.195312"/>
     <use xlink:href="#ArialMT-65" x="483.496094"/>
     <use xlink:href="#ArialMT-20" x="539.111328"/>
     <use xlink:href="#ArialMT-72" x="566.894531"/>
     <use xlink:href="#ArialMT-65" x="600.195312"/>
     <use xlink:href="#ArialMT-73" x="655.810547"/>
     <use xlink:href="#ArialMT-63" x="705.810547"/>
     <use xlink:href="#ArialMT-61" x="755.810547"/>
     <use xlink:href="#ArialMT-6c" x="811.425781"/>
     <use xlink:href="#ArialMT-65" x="833.642578"/>
     <use xlink:href="#ArialMT-64" x="889.257812"/>
    </g>
   </g>
  </g>
  <g id="axes_2">
   <g id="patch_5">
    <path d="M 172.344693 118.357104 
L 275.975307 118.357104 
L 275.975307 14.72649 
L 172.344693 14.72649 
L 172.344693 118.357104 
z
" style="fill: none"/>
   </g>
   <g id="matplotlib.axis_3">
    <g id="xtick_4">
     <g id="line2d_17">
      <g>
       <use xlink:href="#m6daf26addd" x="172.344693" y="118.357104" style="stroke: #000000; stroke-width: 0.8"/>
      </g>
     </g>
     <g id="text_15">
      <!-- $\mathdefault{0.0}$ -->
      <g transform="translate(168.844693 128.93601) scale(0.05 -0.05)">
       <use xlink:href="#ArialMT-30" transform="translate(0 0.125)"/>
       <use xlink:href="#ArialMT-2e" transform="translate(55.615234 0.125)"/>
       <use xlink:href="#ArialMT-30" transform="translate(83.398438 0.125)"/>
      </g>
     </g>
    </g>
    <g id="xtick_5">
     <g id="line2d_18">
      <g>
       <use xlink:href="#m6daf26addd" x="224.16" y="118.357104" style="stroke: #000000; stroke-width: 0.8"/>
      </g>
     </g>
     <g id="text_16">
      <!-- $\mathdefault{0.5}$ -->
      <g transform="translate(220.66 128.93601) scale(0.05 -0.05)">
       <use xlink:href="#ArialMT-30" transform="translate(0 0.125)"/>
       <use xlink:href="#ArialMT-2e" transform="translate(55.615234 0.125)"/>
       <use xlink:href="#ArialMT-35" transform="translate(83.398438 0.125)"/>
      </g>
     </g>
    </g>
    <g id="xtick_6">
     <g id="line2d_19">
      <g>
       <use xlink:href="#m6daf26addd" x="275.975307" y="118.357104" style="stroke: #000000; stroke-width: 0.8"/>
      </g>
     </g>
     <g id="text_17">
      <!-- $\mathdefault{1.0}$ -->
      <g transform="translate(272.475307 128.93601) scale(0.05 -0.05)">
       <use xlink:href="#ArialMT-31" transform="translate(0 0.125)"/>
       <use xlink:href="#ArialMT-2e" transform="translate(55.615234 0.125)"/>
       <use xlink:href="#ArialMT-30" transform="translate(83.398438 0.125)"/>
      </g>
     </g>
    </g>
    <g id="text_18">
     <!-- $P(b_{n+1} | b_{n})$ Behavior -->
     <g transform="translate(191.015 139.31976) scale(0.07 -0.07)">
      <use xlink:href="#DejaVuSans-Oblique-50" transform="translate(0 0.578125)"/>
      <use xlink:href="#DejaVuSans-28" transform="translate(60.302734 0.578125)"/>
      <use xlink:href="#DejaVuSans-Oblique-62" transform="translate(99.316406 0.578125)"/>
      <use xlink:href="#DejaVuSans-Oblique-6e" transform="translate(162.792969 -15.828125) scale(0.7)"/>
      <use xlink:href="#DejaVuSans-2b" transform="translate(220.795898 -15.828125) scale(0.7)"/>
      <use xlink:href="#DejaVuSans-31" transform="translate(293.085938 -15.828125) scale(0.7)"/>
      <use xlink:href="#DejaVuSans-7c" transform="translate(340.356445 0.578125)"/>
      <use xlink:href="#DejaVuSans-Oblique-62" transform="translate(374.047852 0.578125)"/>
      <use xlink:href="#DejaVuSans-Oblique-6e" transform="translate(437.524414 -15.828125) scale(0.7)"/>
      <use xlink:href="#DejaVuSans-29" transform="translate(484.624023 0.578125)"/>
      <use xlink:href="#ArialMT-20" transform="translate(523.637695 0.578125)"/>
      <use xlink:href="#ArialMT-42" transform="translate(551.420898 0.578125)"/>
      <use xlink:href="#ArialMT-65" transform="translate(618.120117 0.578125)"/>
      <use xlink:href="#ArialMT-68" transform="translate(673.735352 0.578125)"/>
      <use xlink:href="#ArialMT-61" transform="translate(729.350586 0.578125)"/>
      <use xlink:href="#ArialMT-76" transform="translate(784.96582 0.578125)"/>
      <use xlink:href="#ArialMT-69" transform="translate(834.96582 0.578125)"/>
      <use xlink:href="#ArialMT-6f" transform="translate(857.182617 0.578125)"/>
      <use xlink:href="#ArialMT-72" transform="translate(912.797852 0.578125)"/>
     </g>
    </g>
   </g>
   <g id="matplotlib.axis_4">
    <g id="ytick_4">
     <g id="line2d_20">
      <g>
       <use xlink:href="#ma5bcf9feca" x="172.344693" y="118.357104" style="stroke: #000000; stroke-width: 0.8"/>
      </g>
     </g>
    </g>
    <g id="ytick_5">
     <g id="line2d_21">
      <g>
       <use xlink:href="#ma5bcf9feca" x="172.344693" y="66.541797" style="stroke: #000000; stroke-width: 0.8"/>
      </g>
     </g>
    </g>
    <g id="ytick_6">
     <g id="line2d_22">
      <g>
       <use xlink:href="#ma5bcf9feca" x="172.344693" y="14.72649" style="stroke: #000000; stroke-width: 0.8"/>
      </g>
     </g>
    </g>
    <g id="text_19">
     <!-- $P(b_{n+1} | b_{n})$ Neuro -->
     <g transform="translate(163.164693 95.381797) rotate(-90) scale(0.07 -0.07)">
      <use xlink:href="#DejaVuSans-Oblique-50" transform="translate(0 0.578125)"/>
      <use xlink:href="#DejaVuSans-28" transform="translate(60.302734 0.578125)"/>
      <use xlink:href="#DejaVuSans-Oblique-62" transform="translate(99.316406 0.578125)"/>
      <use xlink:href="#DejaVuSans-Oblique-6e" transform="translate(162.792969 -15.828125) scale(0.7)"/>
      <use xlink:href="#DejaVuSans-2b" transform="translate(220.795898 -15.828125) scale(0.7)"/>
      <use xlink:href="#DejaVuSans-31" transform="translate(293.085938 -15.828125) scale(0.7)"/>
      <use xlink:href="#DejaVuSans-7c" transform="translate(340.356445 0.578125)"/>
      <use xlink:href="#DejaVuSans-Oblique-62" transform="translate(374.047852 0.578125)"/>
      <use xlink:href="#DejaVuSans-Oblique-6e" transform="translate(437.524414 -15.828125) scale(0.7)"/>
      <use xlink:href="#DejaVuSans-29" transform="translate(484.624023 0.578125)"/>
      <use xlink:href="#ArialMT-20" transform="translate(523.637695 0.578125)"/>
      <use xlink:href="#ArialMT-4e" transform="translate(551.420898 0.578125)"/>
      <use xlink:href="#ArialMT-65" transform="translate(623.637695 0.578125)"/>
      <use xlink:href="#ArialMT-75" transform="translate(679.25293 0.578125)"/>
      <use xlink:href="#ArialMT-72" transform="translate(734.868164 0.578125)"/>
      <use xlink:href="#ArialMT-6f" transform="translate(768.168945 0.578125)"/>
     </g>
    </g>
   </g>
   <g id="LineCollection_6">
    <path d="M 241.853032 58.964848 
L 241.853032 48.820585 
" clip-path="url(#pe569ad42a1)" style="fill: none; stroke: #033198; stroke-width: 1.5"/>
    <path d="M 189.40583 103.78719 
L 189.40583 96.76989 
" clip-path="url(#pe569ad42a1)" style="fill: none; stroke: #033198; stroke-width: 1.5"/>
    <path d="M 189.40583 104.88874 
L 189.40583 89.650141 
" clip-path="url(#pe569ad42a1)" style="fill: none; stroke: #033198; stroke-width: 1.5"/>
    <path d="M 207.005256 95.423015 
L 207.005256 75.322386 
" clip-path="url(#pe569ad42a1)" style="fill: none; stroke: #033198; stroke-width: 1.5"/>
    <path d="M 224.160592 67.777417 
L 224.160592 43.07497 
" clip-path="url(#pe569ad42a1)" style="fill: none; stroke: #033198; stroke-width: 1.5"/>
    <path d="M 189.498845 113.688507 
L 189.498845 107.595099 
" clip-path="url(#pe569ad42a1)" style="fill: none; stroke: #033198; stroke-width: 1.5"/>
    <path d="M 207.005256 86.011447 
L 207.005256 74.047128 
" clip-path="url(#pe569ad42a1)" style="fill: none; stroke: #033198; stroke-width: 1.5"/>
    <path d="M 189.498845 113.937427 
L 189.498845 108.308506 
" clip-path="url(#pe569ad42a1)" style="fill: none; stroke: #033198; stroke-width: 1.5"/>
    <path d="M 224.160592 68.536802 
L 224.160592 52.040085 
" clip-path="url(#pe569ad42a1)" style="fill: none; stroke: #033198; stroke-width: 1.5"/>
   </g>
   <g id="line2d_23">
    <path d="M 172.344693 118.357104 
L 275.975307 14.72649 
" clip-path="url(#pe569ad42a1)" style="fill: none; stroke: #000000; stroke-width: 1.5; stroke-linecap: square"/>
   </g>
   <g id="LineCollection_7">
    <path d="M 221.042498 60.79915 
L 221.042498 43.92149 
" clip-path="url(#pe569ad42a1)" style="fill: none; stroke: #399dc7; stroke-width: 1.5"/>
    <path d="M 199.811097 103.985138 
L 199.811097 87.294526 
" clip-path="url(#pe569ad42a1)" style="fill: none; stroke: #399dc7; stroke-width: 1.5"/>
    <path d="M 199.811097 105.344651 
L 199.811097 101.536441 
" clip-path="url(#pe569ad42a1)" style="fill: none; stroke: #399dc7; stroke-width: 1.5"/>
    <path d="M 210.776315 98.769148 
L 210.776315 91.065046 
" clip-path="url(#pe569ad42a1)" style="fill: none; stroke: #399dc7; stroke-width: 1.5"/>
    <path d="M 224.564524 50.763943 
L 224.564524 44.864723 
" clip-path="url(#pe569ad42a1)" style="fill: none; stroke: #399dc7; stroke-width: 1.5"/>
    <path d="M 185.323853 111.120529 
L 185.323853 106.298006 
" clip-path="url(#pe569ad42a1)" style="fill: none; stroke: #399dc7; stroke-width: 1.5"/>
    <path d="M 210.776315 98.178528 
L 210.776315 85.580833 
" clip-path="url(#pe569ad42a1)" style="fill: none; stroke: #399dc7; stroke-width: 1.5"/>
    <path d="M 185.323853 113.923593 
L 185.323853 104.914883 
" clip-path="url(#pe569ad42a1)" style="fill: none; stroke: #399dc7; stroke-width: 1.5"/>
    <path d="M 224.564524 55.690557 
L 224.564524 44.593 
" clip-path="url(#pe569ad42a1)" style="fill: none; stroke: #399dc7; stroke-width: 1.5"/>
   </g>
   <g id="line2d_24">
    <path d="M 172.344693 118.357104 
L 275.975307 14.72649 
" clip-path="url(#pe569ad42a1)" style="fill: none; stroke: #000000; stroke-width: 1.5; stroke-linecap: square"/>
   </g>
   <g id="LineCollection_8">
    <path d="M 218.974241 49.542676 
L 218.974241 41.221032 
" clip-path="url(#pe569ad42a1)" style="fill: none; stroke: #c1eac2; stroke-width: 1.5"/>
    <path d="M 200.845226 107.861839 
L 200.845226 100.366017 
" clip-path="url(#pe569ad42a1)" style="fill: none; stroke: #c1eac2; stroke-width: 1.5"/>
    <path d="M 200.845226 103.907385 
L 200.845226 99.982447 
" clip-path="url(#pe569ad42a1)" style="fill: none; stroke: #c1eac2; stroke-width: 1.5"/>
    <path d="M 220.776905 88.156932 
L 220.776905 71.103452 
" clip-path="url(#pe569ad42a1)" style="fill: none; stroke: #c1eac2; stroke-width: 1.5"/>
    <path d="M 209.107008 70.754851 
L 209.107008 54.638951 
" clip-path="url(#pe569ad42a1)" style="fill: none; stroke: #c1eac2; stroke-width: 1.5"/>
    <path d="M 190.78078 111.073168 
L 190.78078 107.15404 
" clip-path="url(#pe569ad42a1)" style="fill: none; stroke: #c1eac2; stroke-width: 1.5"/>
    <path d="M 220.776905 85.4552 
L 220.776905 71.802727 
" clip-path="url(#pe569ad42a1)" style="fill: none; stroke: #c1eac2; stroke-width: 1.5"/>
    <path d="M 190.78078 108.684803 
L 190.78078 97.064781 
" clip-path="url(#pe569ad42a1)" style="fill: none; stroke: #c1eac2; stroke-width: 1.5"/>
    <path d="M 209.107008 72.966416 
L 209.107008 66.907468 
" clip-path="url(#pe569ad42a1)" style="fill: none; stroke: #c1eac2; stroke-width: 1.5"/>
   </g>
   <g id="line2d_25">
    <path d="M 172.344693 118.357104 
L 275.975307 14.72649 
" clip-path="url(#pe569ad42a1)" style="fill: none; stroke: #000000; stroke-width: 1.5; stroke-linecap: square"/>
   </g>
   <g id="LineCollection_9">
    <path d="M 213.637378 59.172338 
L 213.637378 47.532007 
" clip-path="url(#pe569ad42a1)" style="fill: none; stroke: #b58b31; stroke-width: 1.5"/>
    <path d="M 203.513657 103.622567 
L 203.513657 95.493208 
" clip-path="url(#pe569ad42a1)" style="fill: none; stroke: #b58b31; stroke-width: 1.5"/>
    <path d="M 203.513657 102.024873 
L 203.513657 95.036404 
" clip-path="url(#pe569ad42a1)" style="fill: none; stroke: #b58b31; stroke-width: 1.5"/>
    <path d="M 215.919684 84.663044 
L 215.919684 67.94933 
" clip-path="url(#pe569ad42a1)" style="fill: none; stroke: #b58b31; stroke-width: 1.5"/>
    <path d="M 208.602814 79.918788 
L 208.602814 66.65729 
" clip-path="url(#pe569ad42a1)" style="fill: none; stroke: #b58b31; stroke-width: 1.5"/>
    <path d="M 196.142194 106.733641 
L 196.142194 96.959303 
" clip-path="url(#pe569ad42a1)" style="fill: none; stroke: #b58b31; stroke-width: 1.5"/>
    <path d="M 215.919684 81.764625 
L 215.919684 66.041948 
" clip-path="url(#pe569ad42a1)" style="fill: none; stroke: #b58b31; stroke-width: 1.5"/>
    <path d="M 196.142194 106.85087 
L 196.142194 101.499071 
" clip-path="url(#pe569ad42a1)" style="fill: none; stroke: #b58b31; stroke-width: 1.5"/>
    <path d="M 208.602814 79.518583 
L 208.602814 67.206298 
" clip-path="url(#pe569ad42a1)" style="fill: none; stroke: #b58b31; stroke-width: 1.5"/>
   </g>
   <g id="line2d_26">
    <path d="M 172.344693 118.357104 
L 275.975307 14.72649 
" clip-path="url(#pe569ad42a1)" style="fill: none; stroke: #000000; stroke-width: 1.5; stroke-linecap: square"/>
   </g>
   <g id="LineCollection_10">
    <path d="M 207.625469 79.494827 
L 207.625469 50.774959 
" clip-path="url(#pe569ad42a1)" style="fill: none; stroke: #7e1700; stroke-width: 1.5"/>
    <path d="M 206.519612 103.069939 
L 206.519612 77.99228 
" clip-path="url(#pe569ad42a1)" style="fill: none; stroke: #7e1700; stroke-width: 1.5"/>
    <path d="M 206.519612 97.911935 
L 206.519612 93.637455 
" clip-path="url(#pe569ad42a1)" style="fill: none; stroke: #7e1700; stroke-width: 1.5"/>
    <path d="M 207.110164 87.652898 
L 207.110164 61.390327 
" clip-path="url(#pe569ad42a1)" style="fill: none; stroke: #7e1700; stroke-width: 1.5"/>
    <path d="M 210.335426 89.175966 
L 210.335426 65.19279 
" clip-path="url(#pe569ad42a1)" style="fill: none; stroke: #7e1700; stroke-width: 1.5"/>
    <path d="M 203.219102 101.595242 
L 203.219102 97.874171 
" clip-path="url(#pe569ad42a1)" style="fill: none; stroke: #7e1700; stroke-width: 1.5"/>
    <path d="M 207.110164 84.003261 
L 207.110164 57.333234 
" clip-path="url(#pe569ad42a1)" style="fill: none; stroke: #7e1700; stroke-width: 1.5"/>
    <path d="M 203.219102 104.503494 
L 203.219102 77.553247 
" clip-path="url(#pe569ad42a1)" style="fill: none; stroke: #7e1700; stroke-width: 1.5"/>
    <path d="M 210.335426 94.203933 
L 210.335426 85.284226 
" clip-path="url(#pe569ad42a1)" style="fill: none; stroke: #7e1700; stroke-width: 1.5"/>
   </g>
   <g id="line2d_27">
    <path d="M 172.344693 118.357104 
L 275.975307 14.72649 
" clip-path="url(#pe569ad42a1)" style="fill: none; stroke: #000000; stroke-width: 1.5; stroke-linecap: square"/>
   </g>
   <g id="line2d_28">
    <g clip-path="url(#pe569ad42a1)">
     <use xlink:href="#md340c1c1c6" x="241.853032" y="53.892716" style="fill: #033198; stroke: #033198"/>
     <use xlink:href="#md340c1c1c6" x="189.40583" y="100.27854" style="fill: #033198; stroke: #033198"/>
     <use xlink:href="#md340c1c1c6" x="189.40583" y="97.269441" style="fill: #033198; stroke: #033198"/>
     <use xlink:href="#md340c1c1c6" x="207.005256" y="85.372701" style="fill: #033198; stroke: #033198"/>
     <use xlink:href="#md340c1c1c6" x="224.160592" y="55.426194" style="fill: #033198; stroke: #033198"/>
     <use xlink:href="#md340c1c1c6" x="189.498845" y="110.641803" style="fill: #033198; stroke: #033198"/>
     <use xlink:href="#md340c1c1c6" x="207.005256" y="80.029288" style="fill: #033198; stroke: #033198"/>
     <use xlink:href="#md340c1c1c6" x="189.498845" y="111.122966" style="fill: #033198; stroke: #033198"/>
     <use xlink:href="#md340c1c1c6" x="224.160592" y="60.288443" style="fill: #033198; stroke: #033198"/>
    </g>
   </g>
   <g id="line2d_29">
    <g clip-path="url(#pe569ad42a1)">
     <use xlink:href="#md4a75b7ac5" x="221.042498" y="52.36032" style="fill: #399dc7; stroke: #399dc7"/>
     <use xlink:href="#md4a75b7ac5" x="199.811097" y="95.639832" style="fill: #399dc7; stroke: #399dc7"/>
     <use xlink:href="#md4a75b7ac5" x="199.811097" y="103.440546" style="fill: #399dc7; stroke: #399dc7"/>
     <use xlink:href="#md4a75b7ac5" x="210.776315" y="94.917097" style="fill: #399dc7; stroke: #399dc7"/>
     <use xlink:href="#md4a75b7ac5" x="224.564524" y="47.814333" style="fill: #399dc7; stroke: #399dc7"/>
     <use xlink:href="#md4a75b7ac5" x="185.323853" y="108.709268" style="fill: #399dc7; stroke: #399dc7"/>
     <use xlink:href="#md4a75b7ac5" x="210.776315" y="91.879681" style="fill: #399dc7; stroke: #399dc7"/>
     <use xlink:href="#md4a75b7ac5" x="185.323853" y="109.419238" style="fill: #399dc7; stroke: #399dc7"/>
     <use xlink:href="#md4a75b7ac5" x="224.564524" y="50.141779" style="fill: #399dc7; stroke: #399dc7"/>
    </g>
   </g>
   <g id="line2d_30">
    <g clip-path="url(#pe569ad42a1)">
     <use xlink:href="#m212548bcd0" x="218.974241" y="45.381854" style="fill: #c1eac2; stroke: #c1eac2"/>
     <use xlink:href="#m212548bcd0" x="200.845226" y="104.113928" style="fill: #c1eac2; stroke: #c1eac2"/>
     <use xlink:href="#m212548bcd0" x="200.845226" y="101.944916" style="fill: #c1eac2; stroke: #c1eac2"/>
     <use xlink:href="#m212548bcd0" x="220.776905" y="79.630192" style="fill: #c1eac2; stroke: #c1eac2"/>
     <use xlink:href="#m212548bcd0" x="209.107008" y="62.696901" style="fill: #c1eac2; stroke: #c1eac2"/>
     <use xlink:href="#m212548bcd0" x="190.78078" y="109.113604" style="fill: #c1eac2; stroke: #c1eac2"/>
     <use xlink:href="#m212548bcd0" x="220.776905" y="78.628964" style="fill: #c1eac2; stroke: #c1eac2"/>
     <use xlink:href="#m212548bcd0" x="190.78078" y="102.874792" style="fill: #c1eac2; stroke: #c1eac2"/>
     <use xlink:href="#m212548bcd0" x="209.107008" y="69.936942" style="fill: #c1eac2; stroke: #c1eac2"/>
    </g>
   </g>
   <g id="line2d_31">
    <g clip-path="url(#pe569ad42a1)">
     <use xlink:href="#m548514374c" x="213.637378" y="53.352172" style="fill: #b58b31; stroke: #b58b31"/>
     <use xlink:href="#m548514374c" x="203.513657" y="99.557887" style="fill: #b58b31; stroke: #b58b31"/>
     <use xlink:href="#m548514374c" x="203.513657" y="98.530638" style="fill: #b58b31; stroke: #b58b31"/>
     <use xlink:href="#m548514374c" x="215.919684" y="76.306187" style="fill: #b58b31; stroke: #b58b31"/>
     <use xlink:href="#m548514374c" x="208.602814" y="73.288039" style="fill: #b58b31; stroke: #b58b31"/>
     <use xlink:href="#m548514374c" x="196.142194" y="101.846472" style="fill: #b58b31; stroke: #b58b31"/>
     <use xlink:href="#m548514374c" x="215.919684" y="73.903286" style="fill: #b58b31; stroke: #b58b31"/>
     <use xlink:href="#m548514374c" x="196.142194" y="104.174971" style="fill: #b58b31; stroke: #b58b31"/>
     <use xlink:href="#m548514374c" x="208.602814" y="73.36244" style="fill: #b58b31; stroke: #b58b31"/>
    </g>
   </g>
   <g id="line2d_32">
    <g clip-path="url(#pe569ad42a1)">
     <use xlink:href="#mf8ecf73ab9" x="207.625469" y="65.134893" style="fill: #7e1700; stroke: #7e1700"/>
     <use xlink:href="#mf8ecf73ab9" x="206.519612" y="90.531109" style="fill: #7e1700; stroke: #7e1700"/>
     <use xlink:href="#mf8ecf73ab9" x="206.519612" y="95.774695" style="fill: #7e1700; stroke: #7e1700"/>
     <use xlink:href="#mf8ecf73ab9" x="207.110164" y="74.521613" style="fill: #7e1700; stroke: #7e1700"/>
     <use xlink:href="#mf8ecf73ab9" x="210.335426" y="77.184378" style="fill: #7e1700; stroke: #7e1700"/>
     <use xlink:href="#mf8ecf73ab9" x="203.219102" y="99.734706" style="fill: #7e1700; stroke: #7e1700"/>
     <use xlink:href="#mf8ecf73ab9" x="207.110164" y="70.668248" style="fill: #7e1700; stroke: #7e1700"/>
     <use xlink:href="#mf8ecf73ab9" x="203.219102" y="91.02837" style="fill: #7e1700; stroke: #7e1700"/>
     <use xlink:href="#mf8ecf73ab9" x="210.335426" y="89.744079" style="fill: #7e1700; stroke: #7e1700"/>
    </g>
   </g>
   <g id="patch_6">
    <path d="M 172.344693 118.357104 
L 172.344693 14.72649 
" style="fill: none; stroke: #000000; stroke-width: 0.8; stroke-linejoin: miter; stroke-linecap: square"/>
   </g>
   <g id="patch_7">
    <path d="M 172.344693 118.357104 
L 275.975307 118.357104 
" style="fill: none; stroke: #000000; stroke-width: 0.8; stroke-linejoin: miter; stroke-linecap: square"/>
   </g>
   <g id="text_20">
    <!-- Spearman ρ = 0.88 -->
    <g transform="translate(224.699682 105.636948) scale(0.06 -0.06)">
     <use xlink:href="#ArialMT-53"/>
     <use xlink:href="#ArialMT-70" x="66.699219"/>
     <use xlink:href="#ArialMT-65" x="122.314453"/>
     <use xlink:href="#ArialMT-61" x="177.929688"/>
     <use xlink:href="#ArialMT-72" x="233.544922"/>
     <use xlink:href="#ArialMT-6d" x="266.845703"/>
     <use xlink:href="#ArialMT-61" x="350.146484"/>
     <use xlink:href="#ArialMT-6e" x="405.761719"/>
     <use xlink:href="#ArialMT-20" x="461.376953"/>
     <use xlink:href="#ArialMT-3c1" x="489.160156"/>
     <use xlink:href="#ArialMT-20" x="546.044922"/>
     <use xlink:href="#ArialMT-3d" x="573.828125"/>
     <use xlink:href="#ArialMT-20" x="632.226562"/>
     <use xlink:href="#ArialMT-30" x="660.009766"/>
     <use xlink:href="#ArialMT-2e" x="715.625"/>
     <use xlink:href="#ArialMT-38" x="743.408203"/>
     <use xlink:href="#ArialMT-38" x="799.023438"/>
    </g>
    <!-- RMSE = 0.11 -->
    <g transform="translate(240.567807 111.983073) scale(0.06 -0.06)">
     <use xlink:href="#ArialMT-52"/>
     <use xlink:href="#ArialMT-4d" x="72.216797"/>
     <use xlink:href="#ArialMT-53" x="155.517578"/>
     <use xlink:href="#ArialMT-45" x="222.216797"/>
     <use xlink:href="#ArialMT-20" x="288.916016"/>
     <use xlink:href="#ArialMT-3d" x="316.699219"/>
     <use xlink:href="#ArialMT-20" x="375.097656"/>
     <use xlink:href="#ArialMT-30" x="402.880859"/>
     <use xlink:href="#ArialMT-2e" x="458.496094"/>
     <use xlink:href="#ArialMT-31" x="486.279297"/>
     <use xlink:href="#ArialMT-31" x="534.519531"/>
    </g>
   </g>
   <g id="text_21">
    <!-- Spearman ρ = 0.88 -->
    <g transform="translate(224.699682 105.636948) scale(0.06 -0.06)">
     <use xlink:href="#ArialMT-53"/>
     <use xlink:href="#ArialMT-70" x="66.699219"/>
     <use xlink:href="#ArialMT-65" x="122.314453"/>
     <use xlink:href="#ArialMT-61" x="177.929688"/>
     <use xlink:href="#ArialMT-72" x="233.544922"/>
     <use xlink:href="#ArialMT-6d" x="266.845703"/>
     <use xlink:href="#ArialMT-61" x="350.146484"/>
     <use xlink:href="#ArialMT-6e" x="405.761719"/>
     <use xlink:href="#ArialMT-20" x="461.376953"/>
     <use xlink:href="#ArialMT-3c1" x="489.160156"/>
     <use xlink:href="#ArialMT-20" x="546.044922"/>
     <use xlink:href="#ArialMT-3d" x="573.828125"/>
     <use xlink:href="#ArialMT-20" x="632.226562"/>
     <use xlink:href="#ArialMT-30" x="660.009766"/>
     <use xlink:href="#ArialMT-2e" x="715.625"/>
     <use xlink:href="#ArialMT-38" x="743.408203"/>
     <use xlink:href="#ArialMT-38" x="799.023438"/>
    </g>
    <!-- RMSE = 0.11 -->
    <g transform="translate(240.567807 111.983073) scale(0.06 -0.06)">
     <use xlink:href="#ArialMT-52"/>
     <use xlink:href="#ArialMT-4d" x="72.216797"/>
     <use xlink:href="#ArialMT-53" x="155.517578"/>
     <use xlink:href="#ArialMT-45" x="222.216797"/>
     <use xlink:href="#ArialMT-20" x="288.916016"/>
     <use xlink:href="#ArialMT-3d" x="316.699219"/>
     <use xlink:href="#ArialMT-20" x="375.097656"/>
     <use xlink:href="#ArialMT-30" x="402.880859"/>
     <use xlink:href="#ArialMT-2e" x="458.496094"/>
     <use xlink:href="#ArialMT-31" x="486.279297"/>
     <use xlink:href="#ArialMT-31" x="534.519531"/>
    </g>
   </g>
   <g id="text_22">
    <!-- Spearman ρ = 0.88 -->
    <g transform="translate(224.699682 105.636948) scale(0.06 -0.06)">
     <use xlink:href="#ArialMT-53"/>
     <use xlink:href="#ArialMT-70" x="66.699219"/>
     <use xlink:href="#ArialMT-65" x="122.314453"/>
     <use xlink:href="#ArialMT-61" x="177.929688"/>
     <use xlink:href="#ArialMT-72" x="233.544922"/>
     <use xlink:href="#ArialMT-6d" x="266.845703"/>
     <use xlink:href="#ArialMT-61" x="350.146484"/>
     <use xlink:href="#ArialMT-6e" x="405.761719"/>
     <use xlink:href="#ArialMT-20" x="461.376953"/>
     <use xlink:href="#ArialMT-3c1" x="489.160156"/>
     <use xlink:href="#ArialMT-20" x="546.044922"/>
     <use xlink:href="#ArialMT-3d" x="573.828125"/>
     <use xlink:href="#ArialMT-20" x="632.226562"/>
     <use xlink:href="#ArialMT-30" x="660.009766"/>
     <use xlink:href="#ArialMT-2e" x="715.625"/>
     <use xlink:href="#ArialMT-38" x="743.408203"/>
     <use xlink:href="#ArialMT-38" x="799.023438"/>
    </g>
    <!-- RMSE = 0.11 -->
    <g transform="translate(240.567807 111.983073) scale(0.06 -0.06)">
     <use xlink:href="#ArialMT-52"/>
     <use xlink:href="#ArialMT-4d" x="72.216797"/>
     <use xlink:href="#ArialMT-53" x="155.517578"/>
     <use xlink:href="#ArialMT-45" x="222.216797"/>
     <use xlink:href="#ArialMT-20" x="288.916016"/>
     <use xlink:href="#ArialMT-3d" x="316.699219"/>
     <use xlink:href="#ArialMT-20" x="375.097656"/>
     <use xlink:href="#ArialMT-30" x="402.880859"/>
     <use xlink:href="#ArialMT-2e" x="458.496094"/>
     <use xlink:href="#ArialMT-31" x="486.279297"/>
     <use xlink:href="#ArialMT-31" x="534.519531"/>
    </g>
   </g>
   <g id="text_23">
    <!-- Spearman ρ = 0.88 -->
    <g transform="translate(224.699682 105.636948) scale(0.06 -0.06)">
     <use xlink:href="#ArialMT-53"/>
     <use xlink:href="#ArialMT-70" x="66.699219"/>
     <use xlink:href="#ArialMT-65" x="122.314453"/>
     <use xlink:href="#ArialMT-61" x="177.929688"/>
     <use xlink:href="#ArialMT-72" x="233.544922"/>
     <use xlink:href="#ArialMT-6d" x="266.845703"/>
     <use xlink:href="#ArialMT-61" x="350.146484"/>
     <use xlink:href="#ArialMT-6e" x="405.761719"/>
     <use xlink:href="#ArialMT-20" x="461.376953"/>
     <use xlink:href="#ArialMT-3c1" x="489.160156"/>
     <use xlink:href="#ArialMT-20" x="546.044922"/>
     <use xlink:href="#ArialMT-3d" x="573.828125"/>
     <use xlink:href="#ArialMT-20" x="632.226562"/>
     <use xlink:href="#ArialMT-30" x="660.009766"/>
     <use xlink:href="#ArialMT-2e" x="715.625"/>
     <use xlink:href="#ArialMT-38" x="743.408203"/>
     <use xlink:href="#ArialMT-38" x="799.023438"/>
    </g>
    <!-- RMSE = 0.11 -->
    <g transform="translate(240.567807 111.983073) scale(0.06 -0.06)">
     <use xlink:href="#ArialMT-52"/>
     <use xlink:href="#ArialMT-4d" x="72.216797"/>
     <use xlink:href="#ArialMT-53" x="155.517578"/>
     <use xlink:href="#ArialMT-45" x="222.216797"/>
     <use xlink:href="#ArialMT-20" x="288.916016"/>
     <use xlink:href="#ArialMT-3d" x="316.699219"/>
     <use xlink:href="#ArialMT-20" x="375.097656"/>
     <use xlink:href="#ArialMT-30" x="402.880859"/>
     <use xlink:href="#ArialMT-2e" x="458.496094"/>
     <use xlink:href="#ArialMT-31" x="486.279297"/>
     <use xlink:href="#ArialMT-31" x="534.519531"/>
    </g>
   </g>
   <g id="text_24">
    <!-- Spearman ρ = 0.88 -->
    <g transform="translate(224.699682 105.636948) scale(0.06 -0.06)">
     <use xlink:href="#ArialMT-53"/>
     <use xlink:href="#ArialMT-70" x="66.699219"/>
     <use xlink:href="#ArialMT-65" x="122.314453"/>
     <use xlink:href="#ArialMT-61" x="177.929688"/>
     <use xlink:href="#ArialMT-72" x="233.544922"/>
     <use xlink:href="#ArialMT-6d" x="266.845703"/>
     <use xlink:href="#ArialMT-61" x="350.146484"/>
     <use xlink:href="#ArialMT-6e" x="405.761719"/>
     <use xlink:href="#ArialMT-20" x="461.376953"/>
     <use xlink:href="#ArialMT-3c1" x="489.160156"/>
     <use xlink:href="#ArialMT-20" x="546.044922"/>
     <use xlink:href="#ArialMT-3d" x="573.828125"/>
     <use xlink:href="#ArialMT-20" x="632.226562"/>
     <use xlink:href="#ArialMT-30" x="660.009766"/>
     <use xlink:href="#ArialMT-2e" x="715.625"/>
     <use xlink:href="#ArialMT-38" x="743.408203"/>
     <use xlink:href="#ArialMT-38" x="799.023438"/>
    </g>
    <!-- RMSE = 0.11 -->
    <g transform="translate(240.567807 111.983073) scale(0.06 -0.06)">
     <use xlink:href="#ArialMT-52"/>
     <use xlink:href="#ArialMT-4d" x="72.216797"/>
     <use xlink:href="#ArialMT-53" x="155.517578"/>
     <use xlink:href="#ArialMT-45" x="222.216797"/>
     <use xlink:href="#ArialMT-20" x="288.916016"/>
     <use xlink:href="#ArialMT-3d" x="316.699219"/>
     <use xlink:href="#ArialMT-20" x="375.097656"/>
     <use xlink:href="#ArialMT-30" x="402.880859"/>
     <use xlink:href="#ArialMT-2e" x="458.496094"/>
     <use xlink:href="#ArialMT-31" x="486.279297"/>
     <use xlink:href="#ArialMT-31" x="534.519531"/>
    </g>
   </g>
   <g id="text_25">
    <!-- rescaled neural data -->
    <g transform="translate(187.916875 8.72649) scale(0.08 -0.08)">
     <use xlink:href="#ArialMT-72"/>
     <use xlink:href="#ArialMT-65" x="33.300781"/>
     <use xlink:href="#ArialMT-73" x="88.916016"/>
     <use xlink:href="#ArialMT-63" x="138.916016"/>
     <use xlink:href="#ArialMT-61" x="188.916016"/>
     <use xlink:href="#ArialMT-6c" x="244.53125"/>
     <use xlink:href="#ArialMT-65" x="266.748047"/>
     <use xlink:href="#ArialMT-64" x="322.363281"/>
     <use xlink:href="#ArialMT-20" x="377.978516"/>
     <use xlink:href="#ArialMT-6e" x="405.761719"/>
     <use xlink:href="#ArialMT-65" x="461.376953"/>
     <use xlink:href="#ArialMT-75" x="516.992188"/>
     <use xlink:href="#ArialMT-72" x="572.607422"/>
     <use xlink:href="#ArialMT-61" x="605.908203"/>
     <use xlink:href="#ArialMT-6c" x="661.523438"/>
     <use xlink:href="#ArialMT-20" x="683.740234"/>
     <use xlink:href="#ArialMT-64" x="711.523438"/>
     <use xlink:href="#ArialMT-61" x="767.138672"/>
     <use xlink:href="#ArialMT-74" x="822.753906"/>
     <use xlink:href="#ArialMT-61" x="850.537109"/>
    </g>
   </g>
  </g>
 </g>
 <defs>
  <clipPath id="p8c3110d0a9">
   <rect x="33.594693" y="14.72649" width="103.630614" height="103.630614"/>
  </clipPath>
  <clipPath id="pe569ad42a1">
   <rect x="172.344693" y="14.72649" width="103.630614" height="103.630614"/>
  </clipPath>
 </defs>
</svg>
