<?xml version="1.0" encoding="utf-8" standalone="no"?>
<!DOCTYPE svg PUBLIC "-//W3C//DTD SVG 1.1//EN"
  "http://www.w3.org/Graphics/SVG/1.1/DTD/svg11.dtd">
<svg xmlns:xlink="http://www.w3.org/1999/xlink" width="72pt" height="72pt" viewBox="0 0 72 72" xmlns="http://www.w3.org/2000/svg" version="1.1">
 <metadata>
  <rdf:RDF xmlns:dc="http://purl.org/dc/elements/1.1/" xmlns:cc="http://creativecommons.org/ns#" xmlns:rdf="http://www.w3.org/1999/02/22-rdf-syntax-ns#">
   <cc:Work>
    <dc:type rdf:resource="http://purl.org/dc/dcmitype/StillImage"/>
    <dc:date>2024-07-19T11:28:38.065839</dc:date>
    <dc:format>image/svg+xml</dc:format>
    <dc:creator>
     <cc:Agent>
      <dc:title>Matplotlib v3.8.0, https://matplotlib.org/</dc:title>
     </cc:Agent>
    </dc:creator>
   </cc:Work>
  </rdf:RDF>
 </metadata>
 <defs>
  <style type="text/css">*{stroke-linejoin: round; stroke-linecap: butt}</style>
 </defs>
 <g id="figure_1">
  <g id="patch_1">
   <path d="M 0 72 
L 72 72 
L 72 0 
L 0 0 
L 0 72 
z
" style="fill: none"/>
  </g>
  <g id="axes_1">
   <g id="patch_2">
    <path d="M 27.48399 46.637104 
L 68.99976 46.637104 
L 68.99976 3.00024 
L 27.48399 3.00024 
L 27.48399 46.637104 
z
" style="fill: none"/>
   </g>
   <g id="matplotlib.axis_1">
    <g id="xtick_1">
     <g id="line2d_1">
      <defs>
       <path id="m976a5c79ec" d="M 0 0 
L 0 3.5 
" style="stroke: #000000; stroke-width: 0.8"/>
      </defs>
      <g>
       <use xlink:href="#m976a5c79ec" x="29.37107" y="46.637104" style="stroke: #000000; stroke-width: 0.8"/>
      </g>
     </g>
     <g id="text_1">
      <!-- $\mathdefault{0}$ -->
      <g transform="translate(27.97107 57.21601) scale(0.05 -0.05)">
       <defs>
        <path id="ArialMT-30" d="M 266 2259 
Q 266 3072 433 3567 
Q 600 4063 929 4331 
Q 1259 4600 1759 4600 
Q 2128 4600 2406 4451 
Q 2684 4303 2865 4023 
Q 3047 3744 3150 3342 
Q 3253 2941 3253 2259 
Q 3253 1453 3087 958 
Q 2922 463 2592 192 
Q 2263 -78 1759 -78 
Q 1097 -78 719 397 
Q 266 969 266 2259 
z
M 844 2259 
Q 844 1131 1108 757 
Q 1372 384 1759 384 
Q 2147 384 2411 759 
Q 2675 1134 2675 2259 
Q 2675 3391 2411 3762 
Q 2147 4134 1753 4134 
Q 1366 4134 1134 3806 
Q 844 3388 844 2259 
z
" transform="scale(0.015625)"/>
       </defs>
       <use xlink:href="#ArialMT-30" transform="translate(0 0.125)"/>
      </g>
     </g>
    </g>
    <g id="xtick_2">
     <g id="line2d_2">
      <g>
       <use xlink:href="#m976a5c79ec" x="48.241875" y="46.637104" style="stroke: #000000; stroke-width: 0.8"/>
      </g>
     </g>
     <g id="text_2">
      <!-- $\mathdefault{4}$ -->
      <g transform="translate(46.841875 57.21601) scale(0.05 -0.05)">
       <defs>
        <path id="ArialMT-34" d="M 2069 0 
L 2069 1097 
L 81 1097 
L 81 1613 
L 2172 4581 
L 2631 4581 
L 2631 1613 
L 3250 1613 
L 3250 1097 
L 2631 1097 
L 2631 0 
L 2069 0 
z
M 2069 1613 
L 2069 3678 
L 634 1613 
L 2069 1613 
z
" transform="scale(0.015625)"/>
       </defs>
       <use xlink:href="#ArialMT-34" transform="translate(0 0.421875)"/>
      </g>
     </g>
    </g>
    <g id="xtick_3">
     <g id="line2d_3">
      <g>
       <use xlink:href="#m976a5c79ec" x="67.11268" y="46.637104" style="stroke: #000000; stroke-width: 0.8"/>
      </g>
     </g>
     <g id="text_3">
      <!-- $\mathdefault{8}$ -->
      <g transform="translate(65.71268 57.21601) scale(0.05 -0.05)">
       <defs>
        <path id="ArialMT-38" d="M 1131 2484 
Q 781 2613 612 2850 
Q 444 3088 444 3419 
Q 444 3919 803 4259 
Q 1163 4600 1759 4600 
Q 2359 4600 2725 4251 
Q 3091 3903 3091 3403 
Q 3091 3084 2923 2848 
Q 2756 2613 2416 2484 
Q 2838 2347 3058 2040 
Q 3278 1734 3278 1309 
Q 3278 722 2862 322 
Q 2447 -78 1769 -78 
Q 1091 -78 675 323 
Q 259 725 259 1325 
Q 259 1772 486 2073 
Q 713 2375 1131 2484 
z
M 1019 3438 
Q 1019 3113 1228 2906 
Q 1438 2700 1772 2700 
Q 2097 2700 2305 2904 
Q 2513 3109 2513 3406 
Q 2513 3716 2298 3927 
Q 2084 4138 1766 4138 
Q 1444 4138 1231 3931 
Q 1019 3725 1019 3438 
z
M 838 1322 
Q 838 1081 952 856 
Q 1066 631 1291 507 
Q 1516 384 1775 384 
Q 2178 384 2440 643 
Q 2703 903 2703 1303 
Q 2703 1709 2433 1975 
Q 2163 2241 1756 2241 
Q 1359 2241 1098 1978 
Q 838 1716 838 1322 
z
" transform="scale(0.015625)"/>
       </defs>
       <use xlink:href="#ArialMT-38" transform="translate(0 0.125)"/>
      </g>
     </g>
    </g>
    <g id="text_4">
     <!-- $\delta t_n$ (s) -->
     <g transform="translate(38.021875 67.45976) scale(0.07 -0.07)">
      <defs>
       <path id="DejaVuSans-Oblique-3b4" d="M 3472 4053 
Q 3197 4272 2450 4272 
Q 1659 4272 1588 3906 
Q 1531 3619 2328 3469 
Q 2953 3353 3253 3003 
Q 3616 2581 3447 1716 
Q 3284 888 2763 400 
Q 2238 -91 1488 -91 
Q 741 -91 406 400 
Q 72 888 241 1747 
Q 363 2384 891 2900 
Q 1097 3100 1353 3213 
Q 913 3459 1000 3900 
Q 1166 4750 2544 4750 
Q 3234 4750 3566 4531 
L 3472 4053 
z
M 1753 3056 
Q 1525 2966 1306 2738 
Q 969 2384 847 1747 
Q 722 1113 919 756 
Q 1119 397 1584 397 
Q 2044 397 2381 759 
Q 2722 1122 2838 1716 
Q 2956 2338 2731 2638 
Q 2491 2959 2103 2994 
Q 1906 3013 1753 3056 
z
" transform="scale(0.015625)"/>
       <path id="DejaVuSans-Oblique-74" d="M 2706 3500 
L 2619 3053 
L 1472 3053 
L 1100 1153 
Q 1081 1047 1072 975 
Q 1063 903 1063 863 
Q 1063 663 1183 572 
Q 1303 481 1569 481 
L 2150 481 
L 2053 0 
L 1503 0 
Q 991 0 739 200 
Q 488 400 488 806 
Q 488 878 497 964 
Q 506 1050 525 1153 
L 897 3053 
L 409 3053 
L 500 3500 
L 978 3500 
L 1172 4494 
L 1747 4494 
L 1556 3500 
L 2706 3500 
z
" transform="scale(0.015625)"/>
       <path id="DejaVuSans-Oblique-6e" d="M 3566 2113 
L 3156 0 
L 2578 0 
L 2988 2091 
Q 3016 2238 3031 2350 
Q 3047 2463 3047 2528 
Q 3047 2791 2881 2937 
Q 2716 3084 2419 3084 
Q 1956 3084 1622 2776 
Q 1288 2469 1184 1941 
L 800 0 
L 225 0 
L 903 3500 
L 1478 3500 
L 1363 2950 
Q 1603 3253 1940 3418 
Q 2278 3584 2650 3584 
Q 3113 3584 3367 3334 
Q 3622 3084 3622 2631 
Q 3622 2519 3608 2391 
Q 3594 2263 3566 2113 
z
" transform="scale(0.015625)"/>
       <path id="ArialMT-20" transform="scale(0.015625)"/>
       <path id="ArialMT-28" d="M 1497 -1347 
Q 1031 -759 709 28 
Q 388 816 388 1659 
Q 388 2403 628 3084 
Q 909 3875 1497 4659 
L 1900 4659 
Q 1522 4009 1400 3731 
Q 1209 3300 1100 2831 
Q 966 2247 966 1656 
Q 966 153 1900 -1347 
L 1497 -1347 
z
" transform="scale(0.015625)"/>
       <path id="ArialMT-73" d="M 197 991 
L 753 1078 
Q 800 744 1014 566 
Q 1228 388 1613 388 
Q 2000 388 2187 545 
Q 2375 703 2375 916 
Q 2375 1106 2209 1216 
Q 2094 1291 1634 1406 
Q 1016 1563 777 1677 
Q 538 1791 414 1992 
Q 291 2194 291 2438 
Q 291 2659 392 2848 
Q 494 3038 669 3163 
Q 800 3259 1026 3326 
Q 1253 3394 1513 3394 
Q 1903 3394 2198 3281 
Q 2494 3169 2634 2976 
Q 2775 2784 2828 2463 
L 2278 2388 
Q 2241 2644 2061 2787 
Q 1881 2931 1553 2931 
Q 1166 2931 1000 2803 
Q 834 2675 834 2503 
Q 834 2394 903 2306 
Q 972 2216 1119 2156 
Q 1203 2125 1616 2013 
Q 2213 1853 2448 1751 
Q 2684 1650 2818 1456 
Q 2953 1263 2953 975 
Q 2953 694 2789 445 
Q 2625 197 2315 61 
Q 2006 -75 1616 -75 
Q 969 -75 630 194 
Q 291 463 197 991 
z
" transform="scale(0.015625)"/>
       <path id="ArialMT-29" d="M 791 -1347 
L 388 -1347 
Q 1322 153 1322 1656 
Q 1322 2244 1188 2822 
Q 1081 3291 891 3722 
Q 769 4003 388 4659 
L 791 4659 
Q 1378 3875 1659 3084 
Q 1900 2403 1900 1659 
Q 1900 816 1576 28 
Q 1253 -759 791 -1347 
z
" transform="scale(0.015625)"/>
      </defs>
      <use xlink:href="#DejaVuSans-Oblique-3b4" transform="translate(0 0.78125)"/>
      <use xlink:href="#DejaVuSans-Oblique-74" transform="translate(61.181641 0.78125)"/>
      <use xlink:href="#DejaVuSans-Oblique-6e" transform="translate(100.390625 -15.625) scale(0.7)"/>
      <use xlink:href="#ArialMT-20" transform="translate(147.490234 0.78125)"/>
      <use xlink:href="#ArialMT-28" transform="translate(175.273438 0.78125)"/>
      <use xlink:href="#ArialMT-73" transform="translate(208.574219 0.78125)"/>
      <use xlink:href="#ArialMT-29" transform="translate(258.574219 0.78125)"/>
     </g>
    </g>
   </g>
   <g id="matplotlib.axis_2">
    <g id="ytick_1">
     <g id="line2d_4">
      <defs>
       <path id="m2c7acc225f" d="M 0 0 
L -3.5 0 
" style="stroke: #000000; stroke-width: 0.8"/>
      </defs>
      <g>
       <use xlink:href="#m2c7acc225f" x="27.48399" y="46.637104" style="stroke: #000000; stroke-width: 0.8"/>
      </g>
     </g>
     <g id="text_5">
      <!-- $\mathdefault{0.0}$ -->
      <g transform="translate(13.48399 48.426557) scale(0.05 -0.05)">
       <defs>
        <path id="ArialMT-2e" d="M 581 0 
L 581 641 
L 1222 641 
L 1222 0 
L 581 0 
z
" transform="scale(0.015625)"/>
       </defs>
       <use xlink:href="#ArialMT-30" transform="translate(0 0.125)"/>
       <use xlink:href="#ArialMT-2e" transform="translate(55.615234 0.125)"/>
       <use xlink:href="#ArialMT-30" transform="translate(83.398438 0.125)"/>
      </g>
     </g>
    </g>
    <g id="ytick_2">
     <g id="line2d_5">
      <g>
       <use xlink:href="#m2c7acc225f" x="27.48399" y="18.667707" style="stroke: #000000; stroke-width: 0.8"/>
      </g>
     </g>
     <g id="text_6">
      <!-- $\mathdefault{0.5}$ -->
      <g transform="translate(13.48399 20.45716) scale(0.05 -0.05)">
       <defs>
        <path id="ArialMT-35" d="M 266 1200 
L 856 1250 
Q 922 819 1161 601 
Q 1400 384 1738 384 
Q 2144 384 2425 690 
Q 2706 997 2706 1503 
Q 2706 1984 2436 2262 
Q 2166 2541 1728 2541 
Q 1456 2541 1237 2417 
Q 1019 2294 894 2097 
L 366 2166 
L 809 4519 
L 3088 4519 
L 3088 3981 
L 1259 3981 
L 1013 2750 
Q 1425 3038 1878 3038 
Q 2478 3038 2890 2622 
Q 3303 2206 3303 1553 
Q 3303 931 2941 478 
Q 2500 -78 1738 -78 
Q 1113 -78 717 272 
Q 322 622 266 1200 
z
" transform="scale(0.015625)"/>
       </defs>
       <use xlink:href="#ArialMT-30" transform="translate(0 0.125)"/>
       <use xlink:href="#ArialMT-2e" transform="translate(55.615234 0.125)"/>
       <use xlink:href="#ArialMT-35" transform="translate(83.398438 0.125)"/>
      </g>
     </g>
    </g>
    <g id="text_7">
     <!-- Density -->
     <g transform="translate(8.010709 36.488984) rotate(-90) scale(0.07 -0.07)">
      <defs>
       <path id="ArialMT-44" d="M 494 0 
L 494 4581 
L 2072 4581 
Q 2606 4581 2888 4516 
Q 3281 4425 3559 4188 
Q 3922 3881 4101 3404 
Q 4281 2928 4281 2316 
Q 4281 1794 4159 1391 
Q 4038 988 3847 723 
Q 3656 459 3429 307 
Q 3203 156 2883 78 
Q 2563 0 2147 0 
L 494 0 
z
M 1100 541 
L 2078 541 
Q 2531 541 2789 625 
Q 3047 709 3200 863 
Q 3416 1078 3536 1442 
Q 3656 1806 3656 2325 
Q 3656 3044 3420 3430 
Q 3184 3816 2847 3947 
Q 2603 4041 2063 4041 
L 1100 4041 
L 1100 541 
z
" transform="scale(0.015625)"/>
       <path id="ArialMT-65" d="M 2694 1069 
L 3275 997 
Q 3138 488 2766 206 
Q 2394 -75 1816 -75 
Q 1088 -75 661 373 
Q 234 822 234 1631 
Q 234 2469 665 2931 
Q 1097 3394 1784 3394 
Q 2450 3394 2872 2941 
Q 3294 2488 3294 1666 
Q 3294 1616 3291 1516 
L 816 1516 
Q 847 969 1125 678 
Q 1403 388 1819 388 
Q 2128 388 2347 550 
Q 2566 713 2694 1069 
z
M 847 1978 
L 2700 1978 
Q 2663 2397 2488 2606 
Q 2219 2931 1791 2931 
Q 1403 2931 1139 2672 
Q 875 2413 847 1978 
z
" transform="scale(0.015625)"/>
       <path id="ArialMT-6e" d="M 422 0 
L 422 3319 
L 928 3319 
L 928 2847 
Q 1294 3394 1984 3394 
Q 2284 3394 2536 3286 
Q 2788 3178 2913 3003 
Q 3038 2828 3088 2588 
Q 3119 2431 3119 2041 
L 3119 0 
L 2556 0 
L 2556 2019 
Q 2556 2363 2490 2533 
Q 2425 2703 2258 2804 
Q 2091 2906 1866 2906 
Q 1506 2906 1245 2678 
Q 984 2450 984 1813 
L 984 0 
L 422 0 
z
" transform="scale(0.015625)"/>
       <path id="ArialMT-69" d="M 425 3934 
L 425 4581 
L 988 4581 
L 988 3934 
L 425 3934 
z
M 425 0 
L 425 3319 
L 988 3319 
L 988 0 
L 425 0 
z
" transform="scale(0.015625)"/>
       <path id="ArialMT-74" d="M 1650 503 
L 1731 6 
Q 1494 -44 1306 -44 
Q 1000 -44 831 53 
Q 663 150 594 308 
Q 525 466 525 972 
L 525 2881 
L 113 2881 
L 113 3319 
L 525 3319 
L 525 4141 
L 1084 4478 
L 1084 3319 
L 1650 3319 
L 1650 2881 
L 1084 2881 
L 1084 941 
Q 1084 700 1114 631 
Q 1144 563 1211 522 
Q 1278 481 1403 481 
Q 1497 481 1650 503 
z
" transform="scale(0.015625)"/>
       <path id="ArialMT-79" d="M 397 -1278 
L 334 -750 
Q 519 -800 656 -800 
Q 844 -800 956 -737 
Q 1069 -675 1141 -563 
Q 1194 -478 1313 -144 
Q 1328 -97 1363 -6 
L 103 3319 
L 709 3319 
L 1400 1397 
Q 1534 1031 1641 628 
Q 1738 1016 1872 1384 
L 2581 3319 
L 3144 3319 
L 1881 -56 
Q 1678 -603 1566 -809 
Q 1416 -1088 1222 -1217 
Q 1028 -1347 759 -1347 
Q 597 -1347 397 -1278 
z
" transform="scale(0.015625)"/>
      </defs>
      <use xlink:href="#ArialMT-44"/>
      <use xlink:href="#ArialMT-65" x="72.216797"/>
      <use xlink:href="#ArialMT-6e" x="127.832031"/>
      <use xlink:href="#ArialMT-73" x="183.447266"/>
      <use xlink:href="#ArialMT-69" x="233.447266"/>
      <use xlink:href="#ArialMT-74" x="255.664062"/>
      <use xlink:href="#ArialMT-79" x="283.447266"/>
     </g>
    </g>
   </g>
   <g id="patch_3">
    <path d="M 29.37107 46.637104 
L 29.446705 38.649252 
L 29.522339 38.649252 
L 29.522339 39.49589 
L 29.597974 38.870114 
L 29.673608 38.870114 
L 29.749243 39.532701 
L 29.824877 39.532701 
L 29.824877 39.164597 
L 29.900512 39.49589 
L 29.976146 39.49589 
L 30.051781 35.925283 
L 30.127415 35.925283 
L 30.127415 36.219767 
L 30.20305 35.962094 
L 30.278684 35.962094 
L 30.354319 33.422178 
L 30.505588 33.348557 
L 30.581222 29.925192 
L 30.656857 29.925192 
L 30.732491 26.096912 
L 30.808126 26.096912 
L 30.88376 22.820789 
L 30.959395 22.820789 
L 31.035029 19.250182 
L 31.110664 19.250182 
L 31.186298 16.231731 
L 31.261933 16.231731 
L 31.337567 14.575264 
L 31.413202 14.575264 
L 31.413202 11.630433 
L 31.488836 14.059918 
L 31.564471 14.059918 
L 31.640105 9.863535 
L 31.791374 9.753104 
L 31.791374 9.605863 
L 31.867009 12.477072 
L 31.942643 12.477072 
L 31.942643 7.176377 
L 32.018278 8.832845 
L 32.093912 8.832845 
L 32.093912 9.495431 
L 32.169546 7.802154 
L 32.245181 7.802154 
L 32.320815 6.47698 
L 32.39645 6.47698 
L 32.472084 7.838964 
L 32.547719 7.838964 
L 32.623353 5.740773 
L 32.698988 5.740773 
L 32.698988 7.39724 
L 32.774622 5.078186 
L 32.850257 5.078186 
L 32.925891 8.722413 
L 32.925891 7.213188 
L 33.001526 7.213188 
L 33.001526 8.796034 
L 33.07716 6.035256 
L 33.152795 6.035256 
L 33.152795 9.495431 
L 33.228429 9.385 
L 33.304064 9.385 
L 33.304064 5.851204 
L 33.379698 9.127328 
L 33.455333 9.127328 
L 33.455333 5.851204 
L 33.530967 11.151898 
L 33.606602 11.151898 
L 33.606602 9.679483 
L 33.682236 11.041467 
L 33.757871 11.041467 
L 33.757871 9.053707 
L 33.833505 10.047587 
L 33.984774 9.937156 
L 34.060409 10.820605 
L 34.060409 7.065946 
L 34.136043 7.065946 
L 34.136043 12.035348 
L 34.211678 11.409571 
L 34.287312 11.409571 
L 34.287312 10.047587 
L 34.362947 10.231639 
L 34.438581 10.231639 
L 34.514216 12.035348 
L 34.58985 12.035348 
L 34.58985 12.550693 
L 34.665485 11.630433 
L 34.741119 11.630433 
L 34.741119 13.323711 
L 34.816754 12.513882 
L 34.892388 12.513882 
L 34.968023 14.24397 
L 35.043657 14.24397 
L 35.043657 15.495523 
L 35.119291 15.053799 
L 35.194926 15.053799 
L 35.194926 15.532334 
L 35.27056 15.016988 
L 35.346195 15.016988 
L 35.421829 16.378972 
L 35.497464 16.378972 
L 35.497464 15.679575 
L 35.573098 15.900437 
L 35.648733 15.900437 
L 35.724367 17.520094 
L 35.800002 17.520094 
L 35.875636 19.949579 
L 35.951271 19.949579 
L 35.951271 18.14587 
L 36.026905 18.734836 
L 36.178174 18.661216 
L 36.253809 20.98027 
L 36.329443 20.98027 
L 36.329443 23.188892 
L 36.405078 22.783978 
L 36.480712 22.783978 
L 36.480712 22.158202 
L 36.556347 22.489495 
L 36.631981 22.489495 
L 36.631981 26.649068 
L 36.707616 25.103032 
L 36.78325 25.103032 
L 36.858885 24.661308 
L 36.934519 24.661308 
L 37.010154 28.489587 
L 37.161423 28.563208 
L 37.237057 29.299415 
L 37.388326 29.299415 
L 37.463961 30.808641 
L 37.539595 30.808641 
L 37.539595 30.403727 
L 37.61523 31.65528 
L 37.690864 31.65528 
L 37.690864 32.68597 
L 37.766499 32.244246 
L 37.842133 32.244246 
L 37.917768 32.870022 
L 37.993402 32.870022 
L 38.069036 35.704421 
L 38.144671 35.704421 
L 38.144671 34.968214 
L 38.220305 35.925283 
L 38.29594 35.925283 
L 38.29594 34.526489 
L 38.371574 35.888473 
L 38.447209 35.888473 
L 38.522843 36.51425 
L 38.598478 36.51425 
L 38.598478 37.986665 
L 38.674112 36.035715 
L 38.749747 36.035715 
L 38.825381 37.029595 
L 38.901016 37.029595 
L 38.901016 38.060285 
L 38.97665 37.50813 
L 39.052285 37.50813 
L 39.127919 39.238218 
L 39.354823 39.311838 
L 39.354823 40.45296 
L 39.430457 40.195287 
L 39.581726 40.195287 
L 39.581726 40.894685 
L 39.657361 40.821064 
L 39.80863 40.821064 
L 39.884264 41.520461 
L 40.035533 41.44684 
L 40.035533 41.005116 
L 40.111168 41.925375 
L 40.186802 41.925375 
L 40.186802 42.882445 
L 40.262437 42.514341 
L 40.338071 42.514341 
L 40.338071 42.219858 
L 40.413706 42.698393 
L 40.48934 42.698393 
L 40.48934 42.551152 
L 40.564975 42.919255 
L 40.640609 42.919255 
L 40.640609 43.250549 
L 40.716244 43.103307 
L 40.791878 43.103307 
L 40.867513 42.882445 
L 40.943147 42.882445 
L 41.018781 43.655463 
L 41.094416 43.655463 
L 41.094416 43.471411 
L 41.17005 43.839515 
L 41.321319 43.913136 
L 41.321319 43.287359 
L 41.396954 43.986756 
L 41.472588 43.986756 
L 41.548223 44.428481 
L 41.623857 44.428481 
L 41.699492 44.907016 
L 41.775126 44.907016 
L 41.775126 44.538912 
L 41.850761 44.649343 
L 41.926395 44.649343 
L 42.00203 44.870206 
L 42.153299 44.870206 
L 42.153299 44.391671 
L 42.228933 44.759774 
L 42.304568 44.759774 
L 42.380202 45.422361 
L 42.455837 45.422361 
L 42.455837 44.907016 
L 42.531471 45.054257 
L 42.758375 45.054257 
L 42.758375 45.422361 
L 42.834009 45.27512 
L 42.985278 45.27512 
L 42.985278 45.532792 
L 43.060913 45.459172 
L 43.212182 45.532792 
L 43.212182 45.680034 
L 43.287816 45.422361 
L 43.590354 45.532792 
L 43.590354 45.716844 
L 43.665989 45.34874 
L 43.741623 45.34874 
L 43.741623 45.827275 
L 43.817258 45.385551 
L 43.968526 45.422361 
L 43.968526 45.827275 
L 44.044161 45.643224 
L 44.119795 45.643224 
L 44.19543 46.084948 
L 44.573602 46.011327 
L 44.573602 45.827275 
L 44.649237 45.937707 
L 45.178678 46.048138 
L 45.178678 46.269 
L 45.254313 46.158569 
L 45.405582 46.084948 
L 45.405582 46.453052 
L 45.481216 46.342621 
L 45.70812 46.23219 
L 45.783754 46.195379 
L 45.935023 46.269 
L 45.935023 46.379431 
L 46.010658 46.30581 
L 46.313196 46.269 
L 46.313196 46.526673 
L 46.38883 46.379431 
L 47.447713 46.453052 
L 47.447713 46.526673 
L 47.523347 46.489862 
L 47.90152 46.526673 
L 47.90152 46.30581 
L 47.977154 46.600293 
L 48.204058 46.563483 
L 48.204058 46.453052 
L 48.279692 46.489862 
L 49.641113 46.600293 
L 49.641113 46.637104 
L 49.716747 46.526673 
L 67.11268 46.637104 
L 67.11268 46.637104 
" clip-path="url(#p24544ae8ec)" style="fill: none; stroke: #000000; stroke-linejoin: miter"/>
   </g>
   <g id="patch_4">
    <path d="M 29.37107 46.637104 
L 29.446705 43.495628 
L 29.522339 43.495628 
L 29.522339 42.830374 
L 29.597974 43.126042 
L 29.673608 43.126042 
L 29.749243 43.68042 
L 29.824877 43.68042 
L 29.824877 43.052125 
L 29.900512 43.717379 
L 29.976146 43.717379 
L 29.976146 43.052125 
L 30.051781 43.199959 
L 30.20305 43.236918 
L 30.278684 43.865213 
L 30.354319 43.865213 
L 30.354319 43.163001 
L 30.429953 43.273876 
L 30.505588 43.273876 
L 30.581222 43.754337 
L 30.656857 43.754337 
L 30.656857 42.978208 
L 30.732491 43.68042 
L 30.808126 43.68042 
L 30.88376 42.202078 
L 30.959395 42.202078 
L 30.959395 41.795535 
L 31.035029 42.16512 
L 31.186298 42.239037 
L 31.261933 41.499866 
L 31.337567 41.499866 
L 31.337567 42.645581 
L 31.413202 41.130281 
L 31.488836 41.130281 
L 31.488836 40.945488 
L 31.564471 41.130281 
L 31.640105 41.130281 
L 31.71574 40.834612 
L 31.867009 40.723737 
L 31.942643 39.947607 
L 32.018278 39.947607 
L 32.018278 40.686778 
L 32.093912 39.87369 
L 32.169546 39.87369 
L 32.169546 38.654058 
L 32.245181 39.578022 
L 32.320815 39.578022 
L 32.320815 38.506224 
L 32.39645 39.578022 
L 32.472084 39.578022 
L 32.547719 37.212675 
L 32.623353 37.212675 
L 32.623353 37.397468 
L 32.698988 36.953965 
L 32.774622 36.953965 
L 32.774622 37.471385 
L 32.850257 36.103919 
L 32.925891 36.103919 
L 32.925891 34.847328 
L 33.001526 35.253872 
L 33.07716 35.253872 
L 33.07716 34.662536 
L 33.152795 34.995162 
L 33.228429 34.995162 
L 33.304064 33.405945 
L 33.379698 33.405945 
L 33.455333 34.03424 
L 33.530967 34.03424 
L 33.606602 32.740691 
L 33.682236 32.740691 
L 33.682236 34.255992 
L 33.757871 32.186313 
L 33.833505 32.186313 
L 33.833505 32.888525 
L 33.90914 32.297189 
L 33.984774 32.297189 
L 33.984774 30.781888 
L 34.060409 31.668894 
L 34.136043 31.668894 
L 34.136043 31.927603 
L 34.211678 31.373225 
L 34.287312 31.373225 
L 34.287312 32.555899 
L 34.362947 31.114515 
L 34.438581 31.114515 
L 34.514216 30.264469 
L 34.58985 30.264469 
L 34.58985 30.042718 
L 34.665485 31.410184 
L 34.741119 31.410184 
L 34.816754 29.525298 
L 34.892388 29.525298 
L 34.892388 31.26235 
L 34.968023 29.488339 
L 35.043657 29.488339 
L 35.119291 32.297189 
L 35.194926 32.297189 
L 35.194926 28.823086 
L 35.27056 29.525298 
L 35.497464 29.599215 
L 35.497464 31.077557 
L 35.573098 30.338386 
L 35.648733 30.338386 
L 35.648733 29.710091 
L 35.724367 30.892764 
L 35.800002 30.892764 
L 35.800002 27.862164 
L 35.875636 29.155713 
L 35.951271 29.155713 
L 35.951271 28.897003 
L 36.026905 31.077557 
L 36.10254 31.077557 
L 36.178174 26.827324 
L 36.253809 26.827324 
L 36.329443 30.671013 
L 36.405078 30.671013 
L 36.405078 28.638293 
L 36.480712 30.560137 
L 36.556347 30.560137 
L 36.556347 28.749169 
L 36.631981 28.823086 
L 36.78325 28.749169 
L 36.78325 28.416542 
L 36.858885 28.527417 
L 36.934519 28.527417 
L 37.010154 29.747049 
L 37.085788 29.747049 
L 37.085788 27.936081 
L 37.161423 28.416542 
L 37.237057 28.416542 
L 37.312692 30.264469 
L 37.388326 30.264469 
L 37.463961 27.344744 
L 37.539595 27.344744 
L 37.539595 31.188432 
L 37.61523 30.449262 
L 37.766499 30.375344 
L 37.842133 27.825205 
L 37.917768 27.825205 
L 37.993402 30.153593 
L 38.069036 30.153593 
L 38.144671 30.966681 
L 38.144671 29.599215 
L 38.220305 29.599215 
L 38.220305 30.116635 
L 38.29594 28.97092 
L 38.371574 28.97092 
L 38.371574 28.749169 
L 38.447209 29.636174 
L 38.522843 29.636174 
L 38.522843 30.671013 
L 38.598478 29.155713 
L 38.674112 29.155713 
L 38.674112 29.414422 
L 38.749747 27.751288 
L 38.825381 27.751288 
L 38.825381 31.816728 
L 38.901016 30.190552 
L 38.97665 30.190552 
L 38.97665 30.707971 
L 39.052285 29.968801 
L 39.127919 29.968801 
L 39.203554 30.929723 
L 39.279188 30.929723 
L 39.279188 30.634054 
L 39.354823 31.077557 
L 39.430457 31.077557 
L 39.430457 29.007878 
L 39.506092 30.412303 
L 39.732995 30.338386 
L 39.732995 30.190552 
L 39.80863 31.484101 
L 39.959899 31.521059 
L 39.959899 29.525298 
L 40.035533 29.710091 
L 40.111168 29.710091 
L 40.111168 28.601334 
L 40.186802 31.299308 
L 40.338071 31.188432 
L 40.338071 30.412303 
L 40.413706 30.449262 
L 40.48934 30.449262 
L 40.564975 31.816728 
L 40.564975 30.338386 
L 40.640609 30.338386 
L 40.640609 30.781888 
L 40.716244 30.781888 
L 40.791878 30.781888 
L 40.791878 29.894883 
L 40.867513 31.521059 
L 40.943147 31.521059 
L 41.018781 30.671013 
L 41.094416 30.671013 
L 41.094416 31.558018 
L 41.17005 31.558018 
L 41.245685 31.558018 
L 41.245685 30.634054 
L 41.321319 32.592857 
L 41.396954 32.592857 
L 41.396954 30.781888 
L 41.472588 31.040598 
L 41.548223 31.040598 
L 41.623857 32.77765 
L 41.699492 32.77765 
L 41.775126 30.597096 
L 41.850761 30.597096 
L 41.850761 32.223272 
L 41.926395 31.705852 
L 42.00203 31.705852 
L 42.077664 32.814608 
L 42.153299 32.814608 
L 42.153299 32.26023 
L 42.228933 32.371106 
L 42.304568 32.371106 
L 42.304568 32.112396 
L 42.380202 33.664655 
L 42.455837 33.664655 
L 42.455837 32.445023 
L 42.531471 32.888525 
L 42.607106 32.888525 
L 42.607106 31.151474 
L 42.68274 34.55166 
L 42.758375 34.55166 
L 42.834009 33.03636 
L 42.909644 33.03636 
L 42.909644 32.26023 
L 42.985278 32.888525 
L 43.136547 32.925484 
L 43.136547 32.26023 
L 43.212182 34.440784 
L 43.287816 34.440784 
L 43.287816 32.851567 
L 43.363451 33.701613 
L 43.439085 33.701613 
L 43.439085 32.740691 
L 43.51472 32.999401 
L 43.590354 32.999401 
L 43.590354 33.184194 
L 43.665989 33.073318 
L 43.741623 33.073318 
L 43.817258 34.477743 
L 43.892892 34.477743 
L 43.892892 33.221152 
L 43.968526 34.440784 
L 44.044161 34.440784 
L 44.044161 34.773411 
L 44.119795 34.773411 
L 44.271064 34.662536 
L 44.346699 33.516821 
L 44.422333 33.516821 
L 44.422333 34.514701 
L 44.497968 34.403826 
L 44.649237 34.329909 
L 44.649237 34.773411 
L 44.724871 34.255992 
L 44.87614 34.182074 
L 44.87614 35.660416 
L 44.951775 34.403826 
L 45.027409 34.403826 
L 45.103044 36.030002 
L 45.178678 36.030002 
L 45.178678 37.175717 
L 45.254313 35.475624 
L 45.329947 35.475624 
L 45.405582 36.58438 
L 45.481216 36.58438 
L 45.481216 35.179955 
L 45.556851 36.32567 
L 45.632485 36.32567 
L 45.632485 35.438665 
L 45.70812 35.438665 
L 45.783754 35.438665 
L 45.859389 37.804012 
L 45.935023 37.804012 
L 46.010658 38.284473 
L 46.086292 38.284473 
L 46.086292 36.103919 
L 46.161927 37.508343 
L 46.237561 37.508343 
L 46.237561 36.84309 
L 46.313196 36.880048 
L 46.38883 36.880048 
L 46.38883 37.360509 
L 46.464465 36.473504 
L 46.540099 36.473504 
L 46.615734 38.136639 
L 46.691368 38.136639 
L 46.691368 37.360509 
L 46.767003 38.543183 
L 46.842637 38.543183 
L 46.842637 39.171478 
L 46.918271 38.87581 
L 46.993906 38.87581 
L 46.993906 38.136639 
L 47.06954 38.654058 
L 47.145175 38.654058 
L 47.145175 39.245395 
L 47.220809 38.247514 
L 47.296444 38.247514 
L 47.296444 39.688898 
L 47.372078 38.6171 
L 47.447713 38.6171 
L 47.447713 39.762815 
L 47.523347 38.35839 
L 47.598982 38.35839 
L 47.598982 39.467146 
L 47.674616 39.467146 
L 47.750251 39.467146 
L 47.750251 38.949727 
L 47.825885 40.058483 
L 47.90152 40.058483 
L 47.90152 39.504105 
L 47.977154 39.799773 
L 48.052789 39.799773 
L 48.052789 39.578022 
L 48.128423 39.61498 
L 48.204058 39.61498 
L 48.279692 40.354151 
L 48.355327 40.354151 
L 48.355327 40.612861 
L 48.430961 40.612861 
L 48.506596 40.612861 
L 48.506596 39.947607 
L 48.58223 40.095441 
L 48.657865 40.095441 
L 48.657865 40.871571 
L 48.733499 40.39111 
L 48.809134 40.39111 
L 48.809134 40.206317 
L 48.884768 40.686778 
L 48.960403 40.686778 
L 48.960403 40.317193 
L 49.036037 41.462908 
L 49.111672 41.462908 
L 49.111672 41.943369 
L 49.187306 41.90641 
L 49.262941 41.90641 
L 49.262941 41.352032 
L 49.338575 41.832493 
L 49.41421 41.832493 
L 49.41421 41.278115 
L 49.489844 42.16512 
L 49.565479 42.16512 
L 49.641113 41.056364 
L 49.716747 41.056364 
L 49.792382 42.054244 
L 49.868016 42.054244 
L 49.943651 41.388991 
L 50.019285 41.388991 
L 50.09492 42.645581 
L 50.170554 42.645581 
L 50.246189 42.017286 
L 50.321823 42.017286 
L 50.321823 43.052125 
L 50.397458 42.756457 
L 50.473092 42.756457 
L 50.473092 42.091203 
L 50.548727 42.202078 
L 50.624361 42.202078 
L 50.624361 41.943369 
L 50.699996 42.054244 
L 50.77563 42.054244 
L 50.851265 42.312954 
L 51.002534 42.202078 
L 51.002534 43.310835 
L 51.078168 42.608622 
L 51.153803 42.608622 
L 51.153803 42.349913 
L 51.229437 42.608622 
L 51.305072 42.608622 
L 51.380706 43.310835 
L 51.456341 43.310835 
L 51.456341 43.495628 
L 51.531975 43.015166 
L 51.60761 43.015166 
L 51.60761 43.458669 
L 51.683244 42.793415 
L 51.758879 42.793415 
L 51.834513 43.93913 
L 51.910148 43.93913 
L 51.910148 43.199959 
L 51.985782 43.495628 
L 52.061417 43.495628 
L 52.137051 44.013047 
L 52.212686 44.013047 
L 52.212686 43.865213 
L 52.28832 43.865213 
L 52.439589 43.828254 
L 52.439589 44.013047 
L 52.515224 43.458669 
L 52.590858 43.458669 
L 52.666492 44.19784 
L 52.817761 44.160881 
L 52.817761 43.828254 
L 52.893396 43.902172 
L 52.96903 43.902172 
L 52.96903 44.419591 
L 53.044665 44.086964 
L 53.120299 44.086964 
L 53.120299 43.93913 
L 53.195934 44.493508 
L 53.271568 44.493508 
L 53.271568 43.643462 
L 53.347203 45.010928 
L 53.422837 45.010928 
L 53.422837 44.050006 
L 53.498472 44.604384 
L 53.574106 44.604384 
L 53.574106 44.271757 
L 53.649741 44.308715 
L 53.80101 44.345674 
L 53.80101 44.493508 
L 53.876644 44.493508 
L 53.952279 44.493508 
L 54.027913 45.121803 
L 54.103548 45.121803 
L 54.103548 44.567425 
L 54.179182 44.826135 
L 54.254817 44.826135 
L 54.254817 44.678301 
L 54.330451 44.937011 
L 54.406086 44.937011 
L 54.406086 44.567425 
L 54.48172 44.604384 
L 54.557355 44.604384 
L 54.557355 45.232679 
L 54.632989 45.047886 
L 54.708624 45.047886 
L 54.784258 44.641342 
L 54.859893 44.641342 
L 54.935527 45.010928 
L 55.011162 45.010928 
L 55.086796 45.380513 
L 55.162431 45.380513 
L 55.162431 44.715259 
L 55.238065 45.343555 
L 55.3137 45.343555 
L 55.3137 44.863094 
L 55.389334 45.195721 
L 55.540603 45.121803 
L 55.540603 44.900052 
L 55.616237 45.158762 
L 55.691872 45.158762 
L 55.691872 44.900052 
L 55.767506 45.343555 
L 55.918775 45.45443 
L 55.918775 45.195721 
L 55.99441 45.269638 
L 56.070044 45.269638 
L 56.070044 45.750099 
L 56.145679 44.752218 
L 56.221313 44.752218 
L 56.296948 45.602265 
L 56.372582 45.602265 
L 56.372582 45.121803 
L 56.448217 45.639223 
L 56.523851 45.639223 
L 56.599486 44.973969 
L 56.67512 44.973969 
L 56.67512 45.45443 
L 56.750755 45.417472 
L 56.826389 45.417472 
L 56.826389 45.676182 
L 56.902024 45.602265 
L 57.053293 45.565306 
L 57.053293 45.417472 
L 57.128927 45.860974 
L 57.204562 45.860974 
L 57.280196 45.639223 
L 57.355831 45.639223 
L 57.355831 46.008809 
L 57.431465 45.750099 
L 57.734003 45.787057 
L 57.734003 46.008809 
L 57.809638 45.639223 
L 57.960907 45.750099 
L 57.960907 45.860974 
L 58.036541 45.750099 
L 58.18781 45.787057 
L 58.18781 46.045767 
L 58.263445 45.934891 
L 58.414714 45.824016 
L 58.414714 45.528347 
L 58.490348 45.676182 
L 58.641617 45.565306 
L 58.641617 45.934891 
L 58.717251 45.860974 
L 58.792886 45.860974 
L 58.792886 46.082726 
L 58.86852 46.045767 
L 58.944155 46.045767 
L 58.944155 46.341435 
L 59.019789 45.97185 
L 59.171058 45.934891 
L 59.171058 45.787057 
L 59.246693 45.860974 
L 59.322327 45.860974 
L 59.322327 46.082726 
L 59.397962 45.824016 
L 59.473596 45.824016 
L 59.473596 45.676182 
L 59.549231 46.045767 
L 59.7005 46.119684 
L 59.7005 45.824016 
L 59.776134 45.897933 
L 59.851769 45.897933 
L 59.927403 46.193601 
L 60.003038 46.193601 
L 60.003038 45.934891 
L 60.078672 46.008809 
L 60.38121 46.008809 
L 60.456845 46.267518 
L 60.532479 46.267518 
L 60.532479 45.97185 
L 60.608114 46.267518 
L 60.759383 46.156643 
L 60.835017 46.082726 
L 60.910652 46.082726 
L 60.910652 46.267518 
L 60.986286 46.23056 
L 61.061921 46.23056 
L 61.061921 46.008809 
L 61.137555 46.082726 
L 61.288824 46.008809 
L 61.288824 46.341435 
L 61.364459 46.082726 
L 61.515727 46.156643 
L 61.515727 46.23056 
L 61.591362 46.156643 
L 62.57461 46.119684 
L 62.57461 46.415352 
L 62.650245 46.156643 
L 63.104052 46.267518 
L 63.104052 46.452311 
L 63.179686 46.341435 
L 63.709128 46.304477 
L 63.709128 46.563187 
L 63.784762 46.23056 
L 63.860397 46.23056 
L 63.860397 46.415352 
L 63.936031 46.378394 
L 64.465472 46.378394 
L 64.465472 46.119684 
L 64.541107 46.48927 
L 64.616741 46.48927 
L 64.616741 46.193601 
L 64.692376 46.526228 
L 64.76801 46.526228 
L 64.76801 46.267518 
L 64.843645 46.304477 
L 64.919279 46.304477 
L 64.919279 46.48927 
L 64.994914 46.341435 
L 65.297452 46.304477 
L 65.297452 46.563187 
L 65.373086 46.378394 
L 65.751259 46.304477 
L 65.826893 46.637104 
L 65.902528 46.637104 
L 65.902528 46.452311 
L 65.978162 46.563187 
L 66.053797 46.563187 
L 66.053797 46.415352 
L 66.129431 46.452311 
L 67.11268 46.563187 
L 67.11268 46.637104 
L 67.11268 46.637104 
" clip-path="url(#p24544ae8ec)" style="fill: none; stroke: #ff00ff; stroke-linejoin: miter"/>
   </g>
   <g id="patch_5">
    <path d="M 27.48399 46.637104 
L 27.48399 3.00024 
" style="fill: none; stroke: #000000; stroke-width: 0.8; stroke-linejoin: miter; stroke-linecap: square"/>
   </g>
   <g id="patch_6">
    <path d="M 27.48399 46.637104 
L 68.99976 46.637104 
" style="fill: none; stroke: #000000; stroke-width: 0.8; stroke-linejoin: miter; stroke-linecap: square"/>
   </g>
  </g>
 </g>
 <defs>
  <clipPath id="p24544ae8ec">
   <rect x="27.48399" y="3.00024" width="41.51577" height="43.636864"/>
  </clipPath>
 </defs>
</svg>
