<?xml version="1.0" encoding="utf-8" standalone="no"?>
<!DOCTYPE svg PUBLIC "-//W3C//DTD SVG 1.1//EN"
  "http://www.w3.org/Graphics/SVG/1.1/DTD/svg11.dtd">
<svg xmlns:xlink="http://www.w3.org/1999/xlink" width="424.8pt" height="144pt" viewBox="0 0 424.8 144" xmlns="http://www.w3.org/2000/svg" version="1.1">
 <metadata>
  <rdf:RDF xmlns:dc="http://purl.org/dc/elements/1.1/" xmlns:cc="http://creativecommons.org/ns#" xmlns:rdf="http://www.w3.org/1999/02/22-rdf-syntax-ns#">
   <cc:Work>
    <dc:type rdf:resource="http://purl.org/dc/dcmitype/StillImage"/>
    <dc:date>2024-11-17T19:29:45.936573</dc:date>
    <dc:format>image/svg+xml</dc:format>
    <dc:creator>
     <cc:Agent>
      <dc:title>Matplotlib v3.8.0, https://matplotlib.org/</dc:title>
     </cc:Agent>
    </dc:creator>
   </cc:Work>
  </rdf:RDF>
 </metadata>
 <defs>
  <style type="text/css">*{stroke-linejoin: round; stroke-linecap: butt}</style>
 </defs>
 <g id="figure_1">
  <g id="patch_1">
   <path d="M 0 144 
L 424.8 144 
L 424.8 0 
L 0 0 
L 0 144 
z
" style="fill: none"/>
  </g>
  <g id="axes_1">
   <g id="patch_2">
    <path d="M 23.201959 118.858041 
L 95.321135 118.858041 
L 95.321135 14.72649 
L 23.201959 14.72649 
L 23.201959 118.858041 
z
" style="fill: none"/>
   </g>
   <g id="line2d_1">
    <path d="M 26.480103 117.987096 
L 30.850962 116.583091 
L 35.221821 114.833924 
L 39.592681 112.861158 
L 43.96354 110.74145 
L 48.334399 108.525953 
L 52.705258 106.248282 
L 57.076117 103.932456 
L 61.446976 101.590027 
L 65.817836 99.229483 
L 70.188695 96.858306 
L 74.559554 94.478231 
L 78.930413 92.091358 
L 83.301272 89.700333 
L 87.672131 87.308731 
L 92.042991 84.916301 
" clip-path="url(#p9275a2c2e5)" style="fill: none; stroke: #ff00ff; stroke-linecap: square"/>
   </g>
   <g id="line2d_2">
    <path d="M 26.480103 118.004842 
L 30.850962 116.708279 
L 35.221821 115.152665 
L 39.592681 113.440264 
L 43.96354 111.631564 
L 48.334399 109.762373 
L 52.705258 107.855161 
L 57.076117 105.924797 
L 61.446976 103.982115 
L 65.817836 102.031593 
L 70.188695 100.074655 
L 74.559554 98.11103 
L 78.930413 96.143087 
L 83.301272 94.166692 
L 87.672131 92.189567 
L 92.042991 90.213429 
" clip-path="url(#p9275a2c2e5)" style="fill: none; stroke: #ff00ff; stroke-linecap: square"/>
   </g>
   <g id="line2d_3">
    <path d="M 26.480103 118.138783 
L 30.850962 117.123564 
L 35.221821 115.976748 
L 39.592681 114.770313 
L 43.96354 113.537413 
L 48.334399 112.292298 
L 52.705258 111.042222 
L 57.076117 109.790523 
L 61.446976 108.540865 
L 65.817836 107.293524 
L 70.188695 106.04922 
L 74.559554 104.806115 
L 78.930413 103.562 
L 83.301272 102.319269 
L 87.672131 101.077451 
L 92.042991 99.832992 
" clip-path="url(#p9275a2c2e5)" style="fill: none; stroke: #ff00ff; stroke-linecap: square"/>
   </g>
   <g id="matplotlib.axis_1">
    <g id="xtick_1">
     <g id="line2d_4">
      <defs>
       <path id="m215dd632af" d="M 0 0 
L 0 3.5 
" style="stroke: #000000; stroke-width: 0.8"/>
      </defs>
      <g>
       <use xlink:href="#m215dd632af" x="26.480103" y="118.858041" style="stroke: #000000; stroke-width: 0.8"/>
      </g>
     </g>
     <g id="text_1">
      <!-- $\mathdefault{0}$ -->
      <g transform="translate(25.080103 129.436948) scale(0.05 -0.05)">
       <defs>
        <path id="ArialMT-30" d="M 266 2259 
Q 266 3072 433 3567 
Q 600 4063 929 4331 
Q 1259 4600 1759 4600 
Q 2128 4600 2406 4451 
Q 2684 4303 2865 4023 
Q 3047 3744 3150 3342 
Q 3253 2941 3253 2259 
Q 3253 1453 3087 958 
Q 2922 463 2592 192 
Q 2263 -78 1759 -78 
Q 1097 -78 719 397 
Q 266 969 266 2259 
z
M 844 2259 
Q 844 1131 1108 757 
Q 1372 384 1759 384 
Q 2147 384 2411 759 
Q 2675 1134 2675 2259 
Q 2675 3391 2411 3762 
Q 2147 4134 1753 4134 
Q 1366 4134 1134 3806 
Q 844 3388 844 2259 
z
" transform="scale(0.015625)"/>
       </defs>
       <use xlink:href="#ArialMT-30" transform="translate(0 0.125)"/>
      </g>
     </g>
    </g>
    <g id="xtick_2">
     <g id="line2d_5">
      <g>
       <use xlink:href="#m215dd632af" x="48.334399" y="118.858041" style="stroke: #000000; stroke-width: 0.8"/>
      </g>
     </g>
     <g id="text_2">
      <!-- $\mathdefault{5}$ -->
      <g transform="translate(46.934399 129.436948) scale(0.05 -0.05)">
       <defs>
        <path id="ArialMT-35" d="M 266 1200 
L 856 1250 
Q 922 819 1161 601 
Q 1400 384 1738 384 
Q 2144 384 2425 690 
Q 2706 997 2706 1503 
Q 2706 1984 2436 2262 
Q 2166 2541 1728 2541 
Q 1456 2541 1237 2417 
Q 1019 2294 894 2097 
L 366 2166 
L 809 4519 
L 3088 4519 
L 3088 3981 
L 1259 3981 
L 1013 2750 
Q 1425 3038 1878 3038 
Q 2478 3038 2890 2622 
Q 3303 2206 3303 1553 
Q 3303 931 2941 478 
Q 2500 -78 1738 -78 
Q 1113 -78 717 272 
Q 322 622 266 1200 
z
" transform="scale(0.015625)"/>
       </defs>
       <use xlink:href="#ArialMT-35" transform="translate(0 0.390625)"/>
      </g>
     </g>
    </g>
    <g id="xtick_3">
     <g id="line2d_6">
      <g>
       <use xlink:href="#m215dd632af" x="70.188695" y="118.858041" style="stroke: #000000; stroke-width: 0.8"/>
      </g>
     </g>
     <g id="text_3">
      <!-- $\mathdefault{10}$ -->
      <g transform="translate(67.388695 129.436948) scale(0.05 -0.05)">
       <defs>
        <path id="ArialMT-31" d="M 2384 0 
L 1822 0 
L 1822 3584 
Q 1619 3391 1289 3197 
Q 959 3003 697 2906 
L 697 3450 
Q 1169 3672 1522 3987 
Q 1875 4303 2022 4600 
L 2384 4600 
L 2384 0 
z
" transform="scale(0.015625)"/>
       </defs>
       <use xlink:href="#ArialMT-31" transform="translate(0 0.125)"/>
       <use xlink:href="#ArialMT-30" transform="translate(55.615234 0.125)"/>
      </g>
     </g>
    </g>
    <g id="xtick_4">
     <g id="line2d_7">
      <g>
       <use xlink:href="#m215dd632af" x="92.042991" y="118.858041" style="stroke: #000000; stroke-width: 0.8"/>
      </g>
     </g>
     <g id="text_4">
      <!-- $\mathdefault{15}$ -->
      <g transform="translate(89.242991 129.436948) scale(0.05 -0.05)">
       <use xlink:href="#ArialMT-31" transform="translate(0 0.125)"/>
       <use xlink:href="#ArialMT-35" transform="translate(55.615234 0.125)"/>
      </g>
     </g>
    </g>
    <g id="text_5">
     <!-- Streak length , q -->
     <g transform="translate(33.775531 139.526479) scale(0.07 -0.07)">
      <defs>
       <path id="ArialMT-53" d="M 288 1472 
L 859 1522 
Q 900 1178 1048 958 
Q 1197 738 1509 602 
Q 1822 466 2213 466 
Q 2559 466 2825 569 
Q 3091 672 3220 851 
Q 3350 1031 3350 1244 
Q 3350 1459 3225 1620 
Q 3100 1781 2813 1891 
Q 2628 1963 1997 2114 
Q 1366 2266 1113 2400 
Q 784 2572 623 2826 
Q 463 3081 463 3397 
Q 463 3744 659 4045 
Q 856 4347 1234 4503 
Q 1613 4659 2075 4659 
Q 2584 4659 2973 4495 
Q 3363 4331 3572 4012 
Q 3781 3694 3797 3291 
L 3216 3247 
Q 3169 3681 2898 3903 
Q 2628 4125 2100 4125 
Q 1550 4125 1298 3923 
Q 1047 3722 1047 3438 
Q 1047 3191 1225 3031 
Q 1400 2872 2139 2705 
Q 2878 2538 3153 2413 
Q 3553 2228 3743 1945 
Q 3934 1663 3934 1294 
Q 3934 928 3725 604 
Q 3516 281 3123 101 
Q 2731 -78 2241 -78 
Q 1619 -78 1198 103 
Q 778 284 539 648 
Q 300 1013 288 1472 
z
" transform="scale(0.015625)"/>
       <path id="ArialMT-74" d="M 1650 503 
L 1731 6 
Q 1494 -44 1306 -44 
Q 1000 -44 831 53 
Q 663 150 594 308 
Q 525 466 525 972 
L 525 2881 
L 113 2881 
L 113 3319 
L 525 3319 
L 525 4141 
L 1084 4478 
L 1084 3319 
L 1650 3319 
L 1650 2881 
L 1084 2881 
L 1084 941 
Q 1084 700 1114 631 
Q 1144 563 1211 522 
Q 1278 481 1403 481 
Q 1497 481 1650 503 
z
" transform="scale(0.015625)"/>
       <path id="ArialMT-72" d="M 416 0 
L 416 3319 
L 922 3319 
L 922 2816 
Q 1116 3169 1280 3281 
Q 1444 3394 1641 3394 
Q 1925 3394 2219 3213 
L 2025 2691 
Q 1819 2813 1613 2813 
Q 1428 2813 1281 2702 
Q 1134 2591 1072 2394 
Q 978 2094 978 1738 
L 978 0 
L 416 0 
z
" transform="scale(0.015625)"/>
       <path id="ArialMT-65" d="M 2694 1069 
L 3275 997 
Q 3138 488 2766 206 
Q 2394 -75 1816 -75 
Q 1088 -75 661 373 
Q 234 822 234 1631 
Q 234 2469 665 2931 
Q 1097 3394 1784 3394 
Q 2450 3394 2872 2941 
Q 3294 2488 3294 1666 
Q 3294 1616 3291 1516 
L 816 1516 
Q 847 969 1125 678 
Q 1403 388 1819 388 
Q 2128 388 2347 550 
Q 2566 713 2694 1069 
z
M 847 1978 
L 2700 1978 
Q 2663 2397 2488 2606 
Q 2219 2931 1791 2931 
Q 1403 2931 1139 2672 
Q 875 2413 847 1978 
z
" transform="scale(0.015625)"/>
       <path id="ArialMT-61" d="M 2588 409 
Q 2275 144 1986 34 
Q 1697 -75 1366 -75 
Q 819 -75 525 192 
Q 231 459 231 875 
Q 231 1119 342 1320 
Q 453 1522 633 1644 
Q 813 1766 1038 1828 
Q 1203 1872 1538 1913 
Q 2219 1994 2541 2106 
Q 2544 2222 2544 2253 
Q 2544 2597 2384 2738 
Q 2169 2928 1744 2928 
Q 1347 2928 1158 2789 
Q 969 2650 878 2297 
L 328 2372 
Q 403 2725 575 2942 
Q 747 3159 1072 3276 
Q 1397 3394 1825 3394 
Q 2250 3394 2515 3294 
Q 2781 3194 2906 3042 
Q 3031 2891 3081 2659 
Q 3109 2516 3109 2141 
L 3109 1391 
Q 3109 606 3145 398 
Q 3181 191 3288 0 
L 2700 0 
Q 2613 175 2588 409 
z
M 2541 1666 
Q 2234 1541 1622 1453 
Q 1275 1403 1131 1340 
Q 988 1278 909 1158 
Q 831 1038 831 891 
Q 831 666 1001 516 
Q 1172 366 1500 366 
Q 1825 366 2078 508 
Q 2331 650 2450 897 
Q 2541 1088 2541 1459 
L 2541 1666 
z
" transform="scale(0.015625)"/>
       <path id="ArialMT-6b" d="M 425 0 
L 425 4581 
L 988 4581 
L 988 1969 
L 2319 3319 
L 3047 3319 
L 1778 2088 
L 3175 0 
L 2481 0 
L 1384 1697 
L 988 1316 
L 988 0 
L 425 0 
z
" transform="scale(0.015625)"/>
       <path id="ArialMT-20" transform="scale(0.015625)"/>
       <path id="ArialMT-6c" d="M 409 0 
L 409 4581 
L 972 4581 
L 972 0 
L 409 0 
z
" transform="scale(0.015625)"/>
       <path id="ArialMT-6e" d="M 422 0 
L 422 3319 
L 928 3319 
L 928 2847 
Q 1294 3394 1984 3394 
Q 2284 3394 2536 3286 
Q 2788 3178 2913 3003 
Q 3038 2828 3088 2588 
Q 3119 2431 3119 2041 
L 3119 0 
L 2556 0 
L 2556 2019 
Q 2556 2363 2490 2533 
Q 2425 2703 2258 2804 
Q 2091 2906 1866 2906 
Q 1506 2906 1245 2678 
Q 984 2450 984 1813 
L 984 0 
L 422 0 
z
" transform="scale(0.015625)"/>
       <path id="ArialMT-67" d="M 319 -275 
L 866 -356 
Q 900 -609 1056 -725 
Q 1266 -881 1628 -881 
Q 2019 -881 2231 -725 
Q 2444 -569 2519 -288 
Q 2563 -116 2559 434 
Q 2191 0 1641 0 
Q 956 0 581 494 
Q 206 988 206 1678 
Q 206 2153 378 2554 
Q 550 2956 876 3175 
Q 1203 3394 1644 3394 
Q 2231 3394 2613 2919 
L 2613 3319 
L 3131 3319 
L 3131 450 
Q 3131 -325 2973 -648 
Q 2816 -972 2473 -1159 
Q 2131 -1347 1631 -1347 
Q 1038 -1347 672 -1080 
Q 306 -813 319 -275 
z
M 784 1719 
Q 784 1066 1043 766 
Q 1303 466 1694 466 
Q 2081 466 2343 764 
Q 2606 1063 2606 1700 
Q 2606 2309 2336 2618 
Q 2066 2928 1684 2928 
Q 1309 2928 1046 2623 
Q 784 2319 784 1719 
z
" transform="scale(0.015625)"/>
       <path id="ArialMT-68" d="M 422 0 
L 422 4581 
L 984 4581 
L 984 2938 
Q 1378 3394 1978 3394 
Q 2347 3394 2619 3248 
Q 2891 3103 3008 2847 
Q 3125 2591 3125 2103 
L 3125 0 
L 2563 0 
L 2563 2103 
Q 2563 2525 2380 2717 
Q 2197 2909 1863 2909 
Q 1613 2909 1392 2779 
Q 1172 2650 1078 2428 
Q 984 2206 984 1816 
L 984 0 
L 422 0 
z
" transform="scale(0.015625)"/>
       <path id="ArialMT-2c" d="M 569 0 
L 569 641 
L 1209 641 
L 1209 0 
Q 1209 -353 1084 -570 
Q 959 -788 688 -906 
L 531 -666 
Q 709 -588 793 -436 
Q 878 -284 888 0 
L 569 0 
z
" transform="scale(0.015625)"/>
       <path id="ArialMT-71" d="M 2538 -1272 
L 2538 353 
Q 2406 169 2170 47 
Q 1934 -75 1669 -75 
Q 1078 -75 651 397 
Q 225 869 225 1691 
Q 225 2191 398 2587 
Q 572 2984 901 3189 
Q 1231 3394 1625 3394 
Q 2241 3394 2594 2875 
L 2594 3319 
L 3100 3319 
L 3100 -1272 
L 2538 -1272 
z
M 803 1669 
Q 803 1028 1072 708 
Q 1341 388 1716 388 
Q 2075 388 2334 692 
Q 2594 997 2594 1619 
Q 2594 2281 2320 2615 
Q 2047 2950 1678 2950 
Q 1313 2950 1058 2639 
Q 803 2328 803 1669 
z
" transform="scale(0.015625)"/>
      </defs>
      <use xlink:href="#ArialMT-53"/>
      <use xlink:href="#ArialMT-74" x="66.699219"/>
      <use xlink:href="#ArialMT-72" x="94.482422"/>
      <use xlink:href="#ArialMT-65" x="127.783203"/>
      <use xlink:href="#ArialMT-61" x="183.398438"/>
      <use xlink:href="#ArialMT-6b" x="239.013672"/>
      <use xlink:href="#ArialMT-20" x="289.013672"/>
      <use xlink:href="#ArialMT-6c" x="316.796875"/>
      <use xlink:href="#ArialMT-65" x="339.013672"/>
      <use xlink:href="#ArialMT-6e" x="394.628906"/>
      <use xlink:href="#ArialMT-67" x="450.244141"/>
      <use xlink:href="#ArialMT-74" x="505.859375"/>
      <use xlink:href="#ArialMT-68" x="533.642578"/>
      <use xlink:href="#ArialMT-20" x="589.257812"/>
      <use xlink:href="#ArialMT-2c" x="617.041016"/>
      <use xlink:href="#ArialMT-20" x="644.824219"/>
      <use xlink:href="#ArialMT-71" x="672.607422"/>
     </g>
    </g>
   </g>
   <g id="matplotlib.axis_2">
    <g id="ytick_1">
     <g id="line2d_8">
      <defs>
       <path id="mcdaf146393" d="M 0 0 
L -3.5 0 
" style="stroke: #000000; stroke-width: 0.8"/>
      </defs>
      <g>
       <use xlink:href="#mcdaf146393" x="23.201959" y="118.858041" style="stroke: #000000; stroke-width: 0.8"/>
      </g>
     </g>
     <g id="text_6">
      <!-- $\mathdefault{0}$ -->
      <g transform="translate(13.401959 120.647494) scale(0.05 -0.05)">
       <use xlink:href="#ArialMT-30" transform="translate(0 0.125)"/>
      </g>
     </g>
    </g>
    <g id="ytick_2">
     <g id="line2d_9">
      <g>
       <use xlink:href="#mcdaf146393" x="23.201959" y="92.82889" style="stroke: #000000; stroke-width: 0.8"/>
      </g>
     </g>
     <g id="text_7">
      <!-- $\mathdefault{1}$ -->
      <g transform="translate(13.401959 94.618343) scale(0.05 -0.05)">
       <use xlink:href="#ArialMT-31" transform="translate(0 0.125)"/>
      </g>
     </g>
    </g>
    <g id="ytick_3">
     <g id="line2d_10">
      <g>
       <use xlink:href="#mcdaf146393" x="23.201959" y="66.799739" style="stroke: #000000; stroke-width: 0.8"/>
      </g>
     </g>
     <g id="text_8">
      <!-- $\mathdefault{2}$ -->
      <g transform="translate(13.401959 68.589192) scale(0.05 -0.05)">
       <defs>
        <path id="ArialMT-32" d="M 3222 541 
L 3222 0 
L 194 0 
Q 188 203 259 391 
Q 375 700 629 1000 
Q 884 1300 1366 1694 
Q 2113 2306 2375 2664 
Q 2638 3022 2638 3341 
Q 2638 3675 2398 3904 
Q 2159 4134 1775 4134 
Q 1369 4134 1125 3890 
Q 881 3647 878 3216 
L 300 3275 
Q 359 3922 746 4261 
Q 1134 4600 1788 4600 
Q 2447 4600 2831 4234 
Q 3216 3869 3216 3328 
Q 3216 3053 3103 2787 
Q 2991 2522 2730 2228 
Q 2469 1934 1863 1422 
Q 1356 997 1212 845 
Q 1069 694 975 541 
L 3222 541 
z
" transform="scale(0.015625)"/>
       </defs>
       <use xlink:href="#ArialMT-32" transform="translate(0 0.125)"/>
      </g>
     </g>
    </g>
    <g id="ytick_4">
     <g id="line2d_11">
      <g>
       <use xlink:href="#mcdaf146393" x="23.201959" y="40.770588" style="stroke: #000000; stroke-width: 0.8"/>
      </g>
     </g>
     <g id="text_9">
      <!-- $\mathdefault{3}$ -->
      <g transform="translate(13.401959 42.560041) scale(0.05 -0.05)">
       <defs>
        <path id="ArialMT-33" d="M 269 1209 
L 831 1284 
Q 928 806 1161 595 
Q 1394 384 1728 384 
Q 2125 384 2398 659 
Q 2672 934 2672 1341 
Q 2672 1728 2419 1979 
Q 2166 2231 1775 2231 
Q 1616 2231 1378 2169 
L 1441 2663 
Q 1497 2656 1531 2656 
Q 1891 2656 2178 2843 
Q 2466 3031 2466 3422 
Q 2466 3731 2256 3934 
Q 2047 4138 1716 4138 
Q 1388 4138 1169 3931 
Q 950 3725 888 3313 
L 325 3413 
Q 428 3978 793 4289 
Q 1159 4600 1703 4600 
Q 2078 4600 2393 4439 
Q 2709 4278 2876 4000 
Q 3044 3722 3044 3409 
Q 3044 3113 2884 2869 
Q 2725 2625 2413 2481 
Q 2819 2388 3044 2092 
Q 3269 1797 3269 1353 
Q 3269 753 2831 336 
Q 2394 -81 1725 -81 
Q 1122 -81 723 278 
Q 325 638 269 1209 
z
" transform="scale(0.015625)"/>
       </defs>
       <use xlink:href="#ArialMT-33" transform="translate(0 0.125)"/>
      </g>
     </g>
    </g>
    <g id="ytick_5">
     <g id="line2d_12">
      <g>
       <use xlink:href="#mcdaf146393" x="23.201959" y="14.741437" style="stroke: #000000; stroke-width: 0.8"/>
      </g>
     </g>
     <g id="text_10">
      <!-- $\mathdefault{4}$ -->
      <g transform="translate(13.401959 16.53089) scale(0.05 -0.05)">
       <defs>
        <path id="ArialMT-34" d="M 2069 0 
L 2069 1097 
L 81 1097 
L 81 1613 
L 2172 4581 
L 2631 4581 
L 2631 1613 
L 3250 1613 
L 3250 1097 
L 2631 1097 
L 2631 0 
L 2069 0 
z
M 2069 1613 
L 2069 3678 
L 634 1613 
L 2069 1613 
z
" transform="scale(0.015625)"/>
       </defs>
       <use xlink:href="#ArialMT-34" transform="translate(0 0.421875)"/>
      </g>
     </g>
    </g>
    <g id="text_11">
     <!-- MSR -->
     <g transform="translate(8.010709 74.569922) rotate(-90) scale(0.07 -0.07)">
      <defs>
       <path id="ArialMT-4d" d="M 475 0 
L 475 4581 
L 1388 4581 
L 2472 1338 
Q 2622 884 2691 659 
Q 2769 909 2934 1394 
L 4031 4581 
L 4847 4581 
L 4847 0 
L 4263 0 
L 4263 3834 
L 2931 0 
L 2384 0 
L 1059 3900 
L 1059 0 
L 475 0 
z
" transform="scale(0.015625)"/>
       <path id="ArialMT-52" d="M 503 0 
L 503 4581 
L 2534 4581 
Q 3147 4581 3465 4457 
Q 3784 4334 3975 4021 
Q 4166 3709 4166 3331 
Q 4166 2844 3850 2509 
Q 3534 2175 2875 2084 
Q 3116 1969 3241 1856 
Q 3506 1613 3744 1247 
L 4541 0 
L 3778 0 
L 3172 953 
Q 2906 1366 2734 1584 
Q 2563 1803 2427 1890 
Q 2291 1978 2150 2013 
Q 2047 2034 1813 2034 
L 1109 2034 
L 1109 0 
L 503 0 
z
M 1109 2559 
L 2413 2559 
Q 2828 2559 3062 2645 
Q 3297 2731 3419 2920 
Q 3541 3109 3541 3331 
Q 3541 3656 3305 3865 
Q 3069 4075 2559 4075 
L 1109 4075 
L 1109 2559 
z
" transform="scale(0.015625)"/>
      </defs>
      <use xlink:href="#ArialMT-4d"/>
      <use xlink:href="#ArialMT-53" x="83.300781"/>
      <use xlink:href="#ArialMT-52" x="150"/>
     </g>
    </g>
    <g id="text_12">
     <!-- $\times\mathdefault{10^{4}}\mathdefault{}$ -->
     <g transform="translate(23.201959 11.72649) scale(0.05 -0.05)">
      <defs>
       <path id="DejaVuSans-d7" d="M 4488 3438 
L 3059 2003 
L 4488 575 
L 4116 197 
L 2681 1631 
L 1247 197 
L 878 575 
L 2303 2003 
L 878 3438 
L 1247 3816 
L 2681 2381 
L 4116 3816 
L 4488 3438 
z
" transform="scale(0.015625)"/>
      </defs>
      <use xlink:href="#DejaVuSans-d7" transform="translate(0 0.201563)"/>
      <use xlink:href="#ArialMT-31" transform="translate(83.789062 0.201563)"/>
      <use xlink:href="#ArialMT-30" transform="translate(139.404297 0.201563)"/>
      <use xlink:href="#ArialMT-34" transform="translate(196.761875 69.895313) scale(0.7)"/>
     </g>
    </g>
   </g>
   <g id="line2d_13">
    <path d="M 26.480103 118.077945 
L 30.850962 117.102704 
L 35.221821 115.995889 
L 39.592681 114.803159 
L 43.96354 113.53575 
L 48.334399 112.209544 
L 52.705258 110.834093 
L 57.076117 109.408943 
L 61.446976 107.9354 
L 65.817836 106.420519 
L 70.188695 104.849836 
L 74.559554 103.255346 
L 78.930413 101.62954 
L 83.301272 99.956841 
L 87.672131 98.260627 
L 92.042991 96.551088 
" clip-path="url(#p9275a2c2e5)" style="fill: none; stroke: #808080; stroke-width: 3; stroke-linecap: square"/>
   </g>
   <g id="line2d_14">
    <path d="M 26.480103 118.048552 
L 30.850962 117.241025 
L 35.221821 116.418183 
L 39.592681 115.580576 
L 43.96354 114.74024 
L 48.334399 113.916621 
L 52.705258 113.094933 
L 57.076117 112.264498 
L 61.446976 111.433204 
L 65.817836 110.597693 
L 70.188695 109.755995 
L 74.559554 108.892948 
L 78.930413 108.077877 
L 83.301272 107.254292 
L 87.672131 106.434106 
L 92.042991 105.60238 
" clip-path="url(#p9275a2c2e5)" style="fill: none; stroke-dasharray: 5.55,2.4; stroke-dashoffset: 0; stroke: #0000ff; stroke-width: 1.5"/>
   </g>
   <g id="patch_3">
    <path d="M 23.201959 118.858041 
L 23.201959 14.72649 
" style="fill: none; stroke: #000000; stroke-width: 0.8; stroke-linejoin: miter; stroke-linecap: square"/>
   </g>
   <g id="patch_4">
    <path d="M 23.201959 118.858041 
L 95.321135 118.858041 
" style="fill: none; stroke: #000000; stroke-width: 0.8; stroke-linejoin: miter; stroke-linecap: square"/>
   </g>
   <g id="text_13">
    <!-- T=18°C -->
    <g transform="translate(45.545297 8.72649) scale(0.08 -0.08)">
     <defs>
      <path id="ArialMT-54" d="M 1659 0 
L 1659 4041 
L 150 4041 
L 150 4581 
L 3781 4581 
L 3781 4041 
L 2266 4041 
L 2266 0 
L 1659 0 
z
" transform="scale(0.015625)"/>
      <path id="ArialMT-3d" d="M 3381 2694 
L 356 2694 
L 356 3219 
L 3381 3219 
L 3381 2694 
z
M 3381 1303 
L 356 1303 
L 356 1828 
L 3381 1828 
L 3381 1303 
z
" transform="scale(0.015625)"/>
      <path id="ArialMT-38" d="M 1131 2484 
Q 781 2613 612 2850 
Q 444 3088 444 3419 
Q 444 3919 803 4259 
Q 1163 4600 1759 4600 
Q 2359 4600 2725 4251 
Q 3091 3903 3091 3403 
Q 3091 3084 2923 2848 
Q 2756 2613 2416 2484 
Q 2838 2347 3058 2040 
Q 3278 1734 3278 1309 
Q 3278 722 2862 322 
Q 2447 -78 1769 -78 
Q 1091 -78 675 323 
Q 259 725 259 1325 
Q 259 1772 486 2073 
Q 713 2375 1131 2484 
z
M 1019 3438 
Q 1019 3113 1228 2906 
Q 1438 2700 1772 2700 
Q 2097 2700 2305 2904 
Q 2513 3109 2513 3406 
Q 2513 3716 2298 3927 
Q 2084 4138 1766 4138 
Q 1444 4138 1231 3931 
Q 1019 3725 1019 3438 
z
M 838 1322 
Q 838 1081 952 856 
Q 1066 631 1291 507 
Q 1516 384 1775 384 
Q 2178 384 2440 643 
Q 2703 903 2703 1303 
Q 2703 1709 2433 1975 
Q 2163 2241 1756 2241 
Q 1359 2241 1098 1978 
Q 838 1716 838 1322 
z
" transform="scale(0.015625)"/>
      <path id="ArialMT-b0" d="M 400 3794 
Q 400 4153 654 4406 
Q 909 4659 1266 4659 
Q 1628 4659 1881 4406 
Q 2134 4153 2134 3794 
Q 2134 3434 1879 3179 
Q 1625 2925 1266 2925 
Q 909 2925 654 3178 
Q 400 3431 400 3794 
z
M 741 3794 
Q 741 3575 895 3420 
Q 1050 3266 1269 3266 
Q 1484 3266 1639 3420 
Q 1794 3575 1794 3794 
Q 1794 4013 1639 4167 
Q 1484 4322 1269 4322 
Q 1050 4322 895 4167 
Q 741 4013 741 3794 
z
" transform="scale(0.015625)"/>
      <path id="ArialMT-43" d="M 3763 1606 
L 4369 1453 
Q 4178 706 3683 314 
Q 3188 -78 2472 -78 
Q 1731 -78 1267 223 
Q 803 525 561 1097 
Q 319 1669 319 2325 
Q 319 3041 592 3573 
Q 866 4106 1370 4382 
Q 1875 4659 2481 4659 
Q 3169 4659 3637 4309 
Q 4106 3959 4291 3325 
L 3694 3184 
Q 3534 3684 3231 3912 
Q 2928 4141 2469 4141 
Q 1941 4141 1586 3887 
Q 1231 3634 1087 3207 
Q 944 2781 944 2328 
Q 944 1744 1114 1308 
Q 1284 872 1643 656 
Q 2003 441 2422 441 
Q 2931 441 3284 734 
Q 3638 1028 3763 1606 
z
" transform="scale(0.015625)"/>
     </defs>
     <use xlink:href="#ArialMT-54"/>
     <use xlink:href="#ArialMT-3d" x="61.083984"/>
     <use xlink:href="#ArialMT-31" x="119.482422"/>
     <use xlink:href="#ArialMT-38" x="175.097656"/>
     <use xlink:href="#ArialMT-b0" x="230.712891"/>
     <use xlink:href="#ArialMT-43" x="270.703125"/>
    </g>
   </g>
  </g>
  <g id="axes_2">
   <g id="patch_5">
    <path d="M 104.821615 118.858041 
L 176.940791 118.858041 
L 176.940791 14.72649 
L 104.821615 14.72649 
L 104.821615 118.858041 
z
" style="fill: none"/>
   </g>
   <g id="line2d_15">
    <path d="M 108.099759 117.147411 
L 112.470619 114.349606 
L 116.841478 110.856828 
L 121.212337 106.920118 
L 125.583196 102.699722 
L 129.954055 98.292666 
L 134.324914 93.773097 
L 138.695774 89.174027 
L 143.066633 84.523351 
L 147.437492 79.843142 
L 151.808351 75.142828 
L 156.17921 70.435468 
L 160.550069 65.720991 
L 164.920929 61.007228 
L 169.291788 56.294038 
L 173.662647 51.583212 
" clip-path="url(#p17de5ee631)" style="fill: none; stroke: #ff00ff; stroke-linecap: square"/>
   </g>
   <g id="line2d_16">
    <path d="M 108.099759 116.274101 
L 112.470619 112.546778 
L 116.841478 108.303092 
L 121.212337 103.817706 
L 125.583196 99.221398 
L 129.954055 94.579695 
L 134.324914 89.906666 
L 138.695774 85.227802 
L 143.066633 80.544113 
L 147.437492 75.856551 
L 151.808351 71.165191 
L 156.17921 66.464538 
L 160.550069 61.759862 
L 164.920929 57.055791 
L 169.291788 52.35419 
L 173.662647 47.652907 
" clip-path="url(#p17de5ee631)" style="fill: none; stroke: #ff00ff; stroke-linecap: square"/>
   </g>
   <g id="line2d_17">
    <path d="M 108.099759 116.130732 
L 112.470619 111.732154 
L 116.841478 106.313705 
L 121.212337 100.271346 
L 125.583196 93.842673 
L 129.954055 87.179501 
L 134.324914 80.375072 
L 138.695774 73.481552 
L 143.066633 66.527424 
L 147.437492 59.539865 
L 151.808351 52.533236 
L 156.17921 45.506411 
L 160.550069 38.461038 
L 164.920929 31.401556 
L 169.291788 24.330019 
L 173.662647 17.25096 
" clip-path="url(#p17de5ee631)" style="fill: none; stroke: #ff00ff; stroke-linecap: square"/>
   </g>
   <g id="line2d_18">
    <path d="M 108.099759 117.279067 
L 112.470619 114.656939 
L 116.841478 111.352242 
L 121.212337 107.5976 
L 125.583196 103.548898 
L 129.954055 99.304524 
L 134.324914 94.931698 
L 138.695774 90.478221 
L 143.066633 85.967151 
L 147.437492 81.421372 
L 151.808351 76.855772 
L 156.17921 72.276824 
L 160.550069 67.688659 
L 164.920929 63.096024 
L 169.291788 58.503234 
L 173.662647 53.913521 
" clip-path="url(#p17de5ee631)" style="fill: none; stroke: #ff00ff; stroke-linecap: square"/>
   </g>
   <g id="line2d_19">
    <path d="M 108.099759 117.493596 
L 112.470619 115.48228 
L 116.841478 113.132103 
L 121.212337 110.599803 
L 125.583196 107.972599 
L 129.954055 105.294815 
L 134.324914 102.587007 
L 138.695774 99.863185 
L 143.066633 97.129404 
L 147.437492 94.384995 
L 151.808351 91.634968 
L 156.17921 88.884468 
L 160.550069 86.13408 
L 164.920929 83.390404 
L 169.291788 80.64942 
L 173.662647 77.908154 
" clip-path="url(#p17de5ee631)" style="fill: none; stroke: #ff00ff; stroke-linecap: square"/>
   </g>
   <g id="line2d_20">
    <path d="M 108.099759 117.434148 
L 112.470619 115.141911 
L 116.841478 112.309607 
L 121.212337 109.133885 
L 125.583196 105.737914 
L 129.954055 102.199488 
L 134.324914 98.57064 
L 138.695774 94.88542 
L 143.066633 91.157401 
L 147.437492 87.398183 
L 151.808351 83.613042 
L 156.17921 79.813912 
L 160.550069 76.001936 
L 164.920929 72.183232 
L 169.291788 68.364374 
L 173.662647 64.546534 
" clip-path="url(#p17de5ee631)" style="fill: none; stroke: #ff00ff; stroke-linecap: square"/>
   </g>
   <g id="line2d_21">
    <path d="M 108.099759 117.420424 
L 112.470619 115.414095 
L 116.841478 113.127765 
L 121.212337 110.705512 
L 125.583196 108.216198 
L 129.954055 105.691857 
L 134.324914 103.148639 
L 138.695774 100.597556 
L 143.066633 98.047088 
L 147.437492 95.492122 
L 151.808351 92.939588 
L 156.17921 90.377572 
L 160.550069 87.812799 
L 164.920929 85.245843 
L 169.291788 82.676264 
L 173.662647 80.104153 
" clip-path="url(#p17de5ee631)" style="fill: none; stroke: #ff00ff; stroke-linecap: square"/>
   </g>
   <g id="line2d_22">
    <path d="M 108.099759 117.521074 
L 112.470619 115.450478 
L 116.841478 112.960483 
L 121.212337 110.230334 
L 125.583196 107.357814 
L 129.954055 104.405341 
L 134.324914 101.406837 
L 138.695774 98.385877 
L 143.066633 95.353847 
L 147.437492 92.319471 
L 151.808351 89.283498 
L 156.17921 86.246322 
L 160.550069 83.207829 
L 164.920929 80.168343 
L 169.291788 77.126106 
L 173.662647 74.082115 
" clip-path="url(#p17de5ee631)" style="fill: none; stroke: #ff00ff; stroke-linecap: square"/>
   </g>
   <g id="matplotlib.axis_3">
    <g id="xtick_5">
     <g id="line2d_23">
      <g>
       <use xlink:href="#m215dd632af" x="108.099759" y="118.858041" style="stroke: #000000; stroke-width: 0.8"/>
      </g>
     </g>
     <g id="text_14">
      <!-- $\mathdefault{0}$ -->
      <g transform="translate(106.699759 129.436948) scale(0.05 -0.05)">
       <use xlink:href="#ArialMT-30" transform="translate(0 0.125)"/>
      </g>
     </g>
    </g>
    <g id="xtick_6">
     <g id="line2d_24">
      <g>
       <use xlink:href="#m215dd632af" x="129.954055" y="118.858041" style="stroke: #000000; stroke-width: 0.8"/>
      </g>
     </g>
     <g id="text_15">
      <!-- $\mathdefault{5}$ -->
      <g transform="translate(128.554055 129.436948) scale(0.05 -0.05)">
       <use xlink:href="#ArialMT-35" transform="translate(0 0.390625)"/>
      </g>
     </g>
    </g>
    <g id="xtick_7">
     <g id="line2d_25">
      <g>
       <use xlink:href="#m215dd632af" x="151.808351" y="118.858041" style="stroke: #000000; stroke-width: 0.8"/>
      </g>
     </g>
     <g id="text_16">
      <!-- $\mathdefault{10}$ -->
      <g transform="translate(149.008351 129.436948) scale(0.05 -0.05)">
       <use xlink:href="#ArialMT-31" transform="translate(0 0.125)"/>
       <use xlink:href="#ArialMT-30" transform="translate(55.615234 0.125)"/>
      </g>
     </g>
    </g>
    <g id="xtick_8">
     <g id="line2d_26">
      <g>
       <use xlink:href="#m215dd632af" x="173.662647" y="118.858041" style="stroke: #000000; stroke-width: 0.8"/>
      </g>
     </g>
     <g id="text_17">
      <!-- $\mathdefault{15}$ -->
      <g transform="translate(170.862647 129.436948) scale(0.05 -0.05)">
       <use xlink:href="#ArialMT-31" transform="translate(0 0.125)"/>
       <use xlink:href="#ArialMT-35" transform="translate(55.615234 0.125)"/>
      </g>
     </g>
    </g>
   </g>
   <g id="matplotlib.axis_4">
    <g id="ytick_6">
     <g id="line2d_27">
      <g>
       <use xlink:href="#mcdaf146393" x="104.821615" y="118.858041" style="stroke: #000000; stroke-width: 0.8"/>
      </g>
     </g>
    </g>
    <g id="ytick_7">
     <g id="line2d_28">
      <g>
       <use xlink:href="#mcdaf146393" x="104.821615" y="92.82889" style="stroke: #000000; stroke-width: 0.8"/>
      </g>
     </g>
    </g>
    <g id="ytick_8">
     <g id="line2d_29">
      <g>
       <use xlink:href="#mcdaf146393" x="104.821615" y="66.799739" style="stroke: #000000; stroke-width: 0.8"/>
      </g>
     </g>
    </g>
    <g id="ytick_9">
     <g id="line2d_30">
      <g>
       <use xlink:href="#mcdaf146393" x="104.821615" y="40.770588" style="stroke: #000000; stroke-width: 0.8"/>
      </g>
     </g>
    </g>
    <g id="ytick_10">
     <g id="line2d_31">
      <g>
       <use xlink:href="#mcdaf146393" x="104.821615" y="14.741437" style="stroke: #000000; stroke-width: 0.8"/>
      </g>
     </g>
    </g>
   </g>
   <g id="line2d_32">
    <path d="M 108.099759 117.345608 
L 112.470619 115.273483 
L 116.841478 112.830164 
L 121.212337 110.111422 
L 125.583196 107.172313 
L 129.954055 104.038274 
L 134.324914 100.739387 
L 138.695774 97.266284 
L 143.066633 93.634172 
L 147.437492 89.872145 
L 151.808351 85.986434 
L 156.17921 82.009719 
L 160.550069 77.907526 
L 164.920929 73.715387 
L 169.291788 69.435771 
L 173.662647 65.030903 
" clip-path="url(#p17de5ee631)" style="fill: none; stroke: #808080; stroke-width: 3; stroke-linecap: square"/>
   </g>
   <g id="line2d_33">
    <path d="M 108.099759 117.353225 
L 112.470619 115.842819 
L 116.841478 114.333149 
L 121.212337 112.806095 
L 125.583196 111.274992 
L 129.954055 109.746747 
L 134.324914 108.218136 
L 138.695774 106.681518 
L 143.066633 105.154039 
L 147.437492 103.606936 
L 151.808351 102.048626 
L 156.17921 100.489892 
L 160.550069 98.905017 
L 164.920929 97.319454 
L 169.291788 95.727912 
L 173.662647 94.132476 
" clip-path="url(#p17de5ee631)" style="fill: none; stroke-dasharray: 5.55,2.4; stroke-dashoffset: 0; stroke: #0000ff; stroke-width: 1.5"/>
   </g>
   <g id="patch_6">
    <path d="M 104.821615 118.858041 
L 104.821615 14.72649 
" style="fill: none; stroke: #000000; stroke-width: 0.8; stroke-linejoin: miter; stroke-linecap: square"/>
   </g>
   <g id="patch_7">
    <path d="M 104.821615 118.858041 
L 176.940791 118.858041 
" style="fill: none; stroke: #000000; stroke-width: 0.8; stroke-linejoin: miter; stroke-linecap: square"/>
   </g>
   <g id="text_18">
    <!-- T=22°C -->
    <g transform="translate(127.164953 8.72649) scale(0.08 -0.08)">
     <use xlink:href="#ArialMT-54"/>
     <use xlink:href="#ArialMT-3d" x="61.083984"/>
     <use xlink:href="#ArialMT-32" x="119.482422"/>
     <use xlink:href="#ArialMT-32" x="175.097656"/>
     <use xlink:href="#ArialMT-b0" x="230.712891"/>
     <use xlink:href="#ArialMT-43" x="270.703125"/>
    </g>
   </g>
  </g>
  <g id="axes_3">
   <g id="patch_8">
    <path d="M 186.441271 118.858041 
L 258.560447 118.858041 
L 258.560447 14.72649 
L 186.441271 14.72649 
L 186.441271 118.858041 
z
" style="fill: none"/>
   </g>
   <g id="line2d_34">
    <path d="M 189.719416 115.021477 
L 194.090275 109.433923 
L 198.461134 103.257629 
L 202.831993 96.893967 
L 207.202852 90.463096 
L 211.573711 84.007145 
L 215.944571 77.542004 
L 220.31543 71.088502 
L 224.686289 64.64106 
L 229.057148 58.201691 
L 233.428007 51.761874 
L 237.798866 45.322745 
L 242.169726 38.879962 
L 246.540585 32.431026 
L 250.911444 25.981513 
L 255.282303 19.532114 
" clip-path="url(#p3fada20b4f)" style="fill: none; stroke: #ff00ff; stroke-linecap: square"/>
   </g>
   <g id="line2d_35">
    <path d="M 189.719416 117.634712 
L 194.090275 115.6216 
L 198.461134 113.236884 
L 202.831993 110.679416 
L 207.202852 108.040865 
L 211.573711 105.363559 
L 215.944571 102.668606 
L 220.31543 99.965275 
L 224.686289 97.257758 
L 229.057148 94.547338 
L 233.428007 91.837167 
L 237.798866 89.130485 
L 242.169726 86.424969 
L 246.540585 83.720063 
L 250.911444 81.017344 
L 255.282303 78.316195 
" clip-path="url(#p3fada20b4f)" style="fill: none; stroke: #ff00ff; stroke-linecap: square"/>
   </g>
   <g id="line2d_36">
    <path d="M 189.719416 117.870459 
L 194.090275 116.256423 
L 198.461134 114.344786 
L 202.831993 112.288347 
L 207.202852 110.15609 
L 211.573711 107.989505 
L 215.944571 105.803382 
L 220.31543 103.607949 
L 224.686289 101.408335 
L 229.057148 99.207973 
L 233.428007 97.007654 
L 237.798866 94.807761 
L 242.169726 92.609677 
L 246.540585 90.414049 
L 250.911444 88.220709 
L 255.282303 86.029877 
" clip-path="url(#p3fada20b4f)" style="fill: none; stroke: #ff00ff; stroke-linecap: square"/>
   </g>
   <g id="line2d_37">
    <path d="M 189.719416 115.1627 
L 194.090275 109.059844 
L 198.461134 101.800866 
L 202.831993 93.958 
L 207.202852 85.827022 
L 211.573711 77.542163 
L 215.944571 69.174614 
L 220.31543 60.755399 
L 224.686289 52.318584 
L 229.057148 43.874711 
L 233.428007 35.424623 
L 237.798866 26.976395 
L 242.169726 18.526971 
L 246.540585 10.075959 
L 250.911444 1.614633 
L 252.262808 -1 
" clip-path="url(#p3fada20b4f)" style="fill: none; stroke: #ff00ff; stroke-linecap: square"/>
   </g>
   <g id="line2d_38">
    <path d="M 189.719416 117.056598 
L 194.090275 114.223881 
L 198.461134 110.965898 
L 202.831993 107.534455 
L 207.202852 104.029366 
L 211.573711 100.494405 
L 215.944571 96.949833 
L 220.31543 93.401587 
L 224.686289 89.856131 
L 229.057148 86.309129 
L 233.428007 82.757635 
L 237.798866 79.200859 
L 242.169726 75.637459 
L 246.540585 72.068144 
L 250.911444 68.495505 
L 255.282303 64.923478 
" clip-path="url(#p3fada20b4f)" style="fill: none; stroke: #ff00ff; stroke-linecap: square"/>
   </g>
   <g id="line2d_39">
    <path d="M 189.719416 117.584088 
L 194.090275 115.852909 
L 198.461134 113.995481 
L 202.831993 112.102668 
L 207.202852 110.200291 
L 211.573711 108.297087 
L 215.944571 106.394097 
L 220.31543 104.497022 
L 224.686289 102.603813 
L 229.057148 100.71504 
L 233.428007 98.827432 
L 237.798866 96.937084 
L 242.169726 95.047244 
L 246.540585 93.160656 
L 250.911444 91.273052 
L 255.282303 89.386624 
" clip-path="url(#p3fada20b4f)" style="fill: none; stroke: #ff00ff; stroke-linecap: square"/>
   </g>
   <g id="line2d_40">
    <path d="M 189.719416 117.560878 
L 194.090275 115.410632 
L 198.461134 112.85813 
L 202.831993 110.116581 
L 207.202852 107.291374 
L 211.573711 104.428251 
L 215.944571 101.545396 
L 220.31543 98.648325 
L 224.686289 95.742001 
L 229.057148 92.826533 
L 233.428007 89.906221 
L 237.798866 86.985099 
L 242.169726 84.06556 
L 246.540585 81.153466 
L 250.911444 78.245221 
L 255.282303 75.338574 
" clip-path="url(#p3fada20b4f)" style="fill: none; stroke: #ff00ff; stroke-linecap: square"/>
   </g>
   <g id="line2d_41">
    <path d="M 189.719416 117.483802 
L 194.090275 115.269243 
L 198.461134 112.685964 
L 202.831993 109.942507 
L 207.202852 107.12621 
L 211.573711 104.27867 
L 215.944571 101.417396 
L 220.31543 98.546698 
L 224.686289 95.669966 
L 229.057148 92.790465 
L 233.428007 89.912456 
L 237.798866 87.037732 
L 242.169726 84.160604 
L 246.540585 81.282755 
L 250.911444 78.404972 
L 255.282303 75.530896 
" clip-path="url(#p3fada20b4f)" style="fill: none; stroke: #ff00ff; stroke-linecap: square"/>
   </g>
   <g id="line2d_42">
    <path d="M 189.719416 115.963618 
L 194.090275 110.478478 
L 198.461134 103.337791 
L 202.831993 95.143733 
L 207.202852 86.275258 
L 211.573711 76.979032 
L 215.944571 67.411199 
L 220.31543 57.666833 
L 224.686289 47.812055 
L 229.057148 37.885789 
L 233.428007 27.918736 
L 237.798866 17.917739 
L 242.169726 7.888121 
L 246.036123 -1 
" clip-path="url(#p3fada20b4f)" style="fill: none; stroke: #ff00ff; stroke-linecap: square"/>
   </g>
   <g id="matplotlib.axis_5">
    <g id="xtick_9">
     <g id="line2d_43">
      <g>
       <use xlink:href="#m215dd632af" x="189.719416" y="118.858041" style="stroke: #000000; stroke-width: 0.8"/>
      </g>
     </g>
     <g id="text_19">
      <!-- $\mathdefault{0}$ -->
      <g transform="translate(188.319416 129.436948) scale(0.05 -0.05)">
       <use xlink:href="#ArialMT-30" transform="translate(0 0.125)"/>
      </g>
     </g>
    </g>
    <g id="xtick_10">
     <g id="line2d_44">
      <g>
       <use xlink:href="#m215dd632af" x="211.573711" y="118.858041" style="stroke: #000000; stroke-width: 0.8"/>
      </g>
     </g>
     <g id="text_20">
      <!-- $\mathdefault{5}$ -->
      <g transform="translate(210.173711 129.436948) scale(0.05 -0.05)">
       <use xlink:href="#ArialMT-35" transform="translate(0 0.390625)"/>
      </g>
     </g>
    </g>
    <g id="xtick_11">
     <g id="line2d_45">
      <g>
       <use xlink:href="#m215dd632af" x="233.428007" y="118.858041" style="stroke: #000000; stroke-width: 0.8"/>
      </g>
     </g>
     <g id="text_21">
      <!-- $\mathdefault{10}$ -->
      <g transform="translate(230.628007 129.436948) scale(0.05 -0.05)">
       <use xlink:href="#ArialMT-31" transform="translate(0 0.125)"/>
       <use xlink:href="#ArialMT-30" transform="translate(55.615234 0.125)"/>
      </g>
     </g>
    </g>
    <g id="xtick_12">
     <g id="line2d_46">
      <g>
       <use xlink:href="#m215dd632af" x="255.282303" y="118.858041" style="stroke: #000000; stroke-width: 0.8"/>
      </g>
     </g>
     <g id="text_22">
      <!-- $\mathdefault{15}$ -->
      <g transform="translate(252.482303 129.436948) scale(0.05 -0.05)">
       <use xlink:href="#ArialMT-31" transform="translate(0 0.125)"/>
       <use xlink:href="#ArialMT-35" transform="translate(55.615234 0.125)"/>
      </g>
     </g>
    </g>
   </g>
   <g id="matplotlib.axis_6">
    <g id="ytick_11">
     <g id="line2d_47">
      <g>
       <use xlink:href="#mcdaf146393" x="186.441271" y="118.858041" style="stroke: #000000; stroke-width: 0.8"/>
      </g>
     </g>
    </g>
    <g id="ytick_12">
     <g id="line2d_48">
      <g>
       <use xlink:href="#mcdaf146393" x="186.441271" y="92.82889" style="stroke: #000000; stroke-width: 0.8"/>
      </g>
     </g>
    </g>
    <g id="ytick_13">
     <g id="line2d_49">
      <g>
       <use xlink:href="#mcdaf146393" x="186.441271" y="66.799739" style="stroke: #000000; stroke-width: 0.8"/>
      </g>
     </g>
    </g>
    <g id="ytick_14">
     <g id="line2d_50">
      <g>
       <use xlink:href="#mcdaf146393" x="186.441271" y="40.770588" style="stroke: #000000; stroke-width: 0.8"/>
      </g>
     </g>
    </g>
    <g id="ytick_15">
     <g id="line2d_51">
      <g>
       <use xlink:href="#mcdaf146393" x="186.441271" y="14.741437" style="stroke: #000000; stroke-width: 0.8"/>
      </g>
     </g>
    </g>
   </g>
   <g id="line2d_52">
    <path d="M 189.719416 116.297152 
L 194.090275 113.244416 
L 198.461134 110.128583 
L 202.831993 106.876057 
L 207.202852 103.500021 
L 211.573711 100.098988 
L 215.944571 96.750484 
L 220.31543 93.476989 
L 224.686289 90.310468 
L 229.057148 87.164969 
L 233.428007 84.000415 
L 237.798866 80.850549 
L 242.169726 77.786435 
L 246.540585 74.706305 
L 250.911444 71.376195 
L 255.282303 67.886812 
" clip-path="url(#p3fada20b4f)" style="fill: none; stroke: #008000; stroke-width: 0.5; stroke-linecap: square"/>
   </g>
   <g id="line2d_53">
    <path d="M 189.719416 117.346795 
L 194.090275 115.473267 
L 198.461134 113.326697 
L 202.831993 111.012734 
L 207.202852 108.544871 
L 211.573711 106.026288 
L 215.944571 103.342385 
L 220.31543 100.407067 
L 224.686289 97.432871 
L 229.057148 94.393927 
L 233.428007 91.449662 
L 237.798866 88.430971 
L 242.169726 85.246953 
L 246.540585 81.815105 
L 250.911444 78.231289 
L 255.282303 74.515956 
" clip-path="url(#p3fada20b4f)" style="fill: none; stroke: #008000; stroke-width: 0.5; stroke-linecap: square"/>
   </g>
   <g id="line2d_54">
    <path d="M 189.719416 116.758192 
L 194.090275 114.374591 
L 198.461134 111.899668 
L 202.831993 109.430566 
L 207.202852 107.276808 
L 211.573711 105.20456 
L 215.944571 103.091979 
L 220.31543 101.171049 
L 224.686289 99.359285 
L 229.057148 97.823485 
L 233.428007 96.082782 
L 237.798866 94.199556 
L 242.169726 91.941244 
L 246.540585 89.448054 
L 250.911444 87.125436 
L 255.282303 84.978805 
" clip-path="url(#p3fada20b4f)" style="fill: none; stroke: #008000; stroke-width: 0.5; stroke-linecap: square"/>
   </g>
   <g id="line2d_55">
    <path d="M 189.719416 116.829547 
L 194.090275 114.643788 
L 198.461134 112.479238 
L 202.831993 110.394934 
L 207.202852 108.377608 
L 211.573711 106.405895 
L 215.944571 104.448209 
L 220.31543 102.452314 
L 224.686289 100.326442 
L 229.057148 98.160649 
L 233.428007 95.894249 
L 237.798866 93.577553 
L 242.169726 91.231726 
L 246.540585 88.958273 
L 250.911444 86.727844 
L 255.282303 84.365353 
" clip-path="url(#p3fada20b4f)" style="fill: none; stroke: #008000; stroke-width: 0.5; stroke-linecap: square"/>
   </g>
   <g id="line2d_56">
    <path d="M 189.719416 117.265626 
L 194.090275 115.581549 
L 198.461134 114.00001 
L 202.831993 112.211566 
L 207.202852 110.400498 
L 211.573711 108.60495 
L 215.944571 106.689741 
L 220.31543 104.931706 
L 224.686289 103.065441 
L 229.057148 101.340463 
L 233.428007 99.537216 
L 237.798866 97.427587 
L 242.169726 95.416378 
L 246.540585 93.435458 
L 250.911444 91.132657 
L 255.282303 88.97629 
" clip-path="url(#p3fada20b4f)" style="fill: none; stroke: #008000; stroke-width: 0.5; stroke-linecap: square"/>
   </g>
   <g id="line2d_57">
    <path d="M 189.719416 115.966024 
L 194.090275 112.880298 
L 198.461134 109.947342 
L 202.831993 107.237711 
L 207.202852 104.643107 
L 211.573711 102.198835 
L 215.944571 99.745707 
L 220.31543 97.207756 
L 224.686289 94.541436 
L 229.057148 91.982899 
L 233.428007 89.468133 
L 237.798866 86.823931 
L 242.169726 84.102116 
L 246.540585 81.282094 
L 250.911444 78.425427 
L 255.282303 75.663523 
" clip-path="url(#p3fada20b4f)" style="fill: none; stroke: #008000; stroke-width: 0.5; stroke-linecap: square"/>
   </g>
   <g id="line2d_58">
    <path d="M 189.719416 116.265663 
L 194.090275 113.314841 
L 198.461134 110.754878 
L 202.831993 108.408154 
L 207.202852 106.172329 
L 211.573711 103.951324 
L 215.944571 101.918796 
L 220.31543 99.963113 
L 224.686289 98.173008 
L 229.057148 96.368685 
L 233.428007 94.561137 
L 237.798866 92.994094 
L 242.169726 91.445312 
L 246.540585 89.839494 
L 250.911444 88.225022 
L 255.282303 86.507357 
" clip-path="url(#p3fada20b4f)" style="fill: none; stroke: #008000; stroke-width: 0.5; stroke-linecap: square"/>
   </g>
   <g id="line2d_59">
    <path d="M 189.719416 116.289793 
L 194.090275 113.636434 
L 198.461134 110.852491 
L 202.831993 108.038159 
L 207.202852 104.98326 
L 211.573711 101.950126 
L 215.944571 98.659668 
L 220.31543 95.172245 
L 224.686289 91.691141 
L 229.057148 88.192943 
L 233.428007 84.662932 
L 237.798866 81.303879 
L 242.169726 77.94109 
L 246.540585 74.611697 
L 250.911444 71.328064 
L 255.282303 68.224544 
" clip-path="url(#p3fada20b4f)" style="fill: none; stroke: #008000; stroke-width: 0.5; stroke-linecap: square"/>
   </g>
   <g id="line2d_60">
    <path d="M 189.719416 116.41426 
L 194.090275 113.333846 
L 198.461134 110.141682 
L 202.831993 106.98932 
L 207.202852 103.965024 
L 211.573711 101.054065 
L 215.944571 98.347185 
L 220.31543 95.77536 
L 224.686289 93.433026 
L 229.057148 91.125141 
L 233.428007 88.952815 
L 237.798866 86.756015 
L 242.169726 84.41368 
L 246.540585 82.076989 
L 250.911444 79.737426 
L 255.282303 77.545956 
" clip-path="url(#p3fada20b4f)" style="fill: none; stroke: #008000; stroke-width: 0.5; stroke-linecap: square"/>
   </g>
   <g id="line2d_61">
    <path d="M 189.719416 116.466496 
L 194.090275 113.927153 
L 198.461134 111.585917 
L 202.831993 109.47132 
L 207.202852 107.474816 
L 211.573711 105.540617 
L 215.944571 103.63637 
L 220.31543 101.61403 
L 224.686289 99.451998 
L 229.057148 97.284971 
L 233.428007 95.148494 
L 237.798866 92.941334 
L 242.169726 90.767314 
L 246.540585 88.560137 
L 250.911444 86.211508 
L 255.282303 83.870622 
" clip-path="url(#p3fada20b4f)" style="fill: none; stroke: #008000; stroke-width: 0.5; stroke-linecap: square"/>
   </g>
   <g id="line2d_62">
    <path d="M 189.719416 117.018238 
L 194.090275 115.094583 
L 198.461134 113.31462 
L 202.831993 111.600516 
L 207.202852 109.858174 
L 211.573711 108.11586 
L 215.944571 106.313695 
L 220.31543 104.532524 
L 224.686289 102.610486 
L 229.057148 100.652868 
L 233.428007 98.584028 
L 237.798866 96.463774 
L 242.169726 94.309656 
L 246.540585 92.070126 
L 250.911444 89.752432 
L 255.282303 87.431291 
" clip-path="url(#p3fada20b4f)" style="fill: none; stroke: #008000; stroke-width: 0.5; stroke-linecap: square"/>
   </g>
   <g id="line2d_63">
    <path d="M 189.719416 116.407008 
L 194.090275 113.896826 
L 198.461134 111.496976 
L 202.831993 109.260043 
L 207.202852 107.052876 
L 211.573711 104.786649 
L 215.944571 102.596899 
L 220.31543 100.509555 
L 224.686289 98.556436 
L 229.057148 96.562287 
L 233.428007 94.512791 
L 237.798866 92.387486 
L 242.169726 90.282898 
L 246.540585 88.026017 
L 250.911444 85.688069 
L 255.282303 83.373206 
" clip-path="url(#p3fada20b4f)" style="fill: none; stroke: #008000; stroke-width: 0.5; stroke-linecap: square"/>
   </g>
   <g id="line2d_64">
    <path d="M 189.719416 116.911552 
L 194.090275 114.748699 
L 198.461134 112.698766 
L 202.831993 110.635331 
L 207.202852 108.615448 
L 211.573711 106.591474 
L 215.944571 104.511111 
L 220.31543 102.391206 
L 224.686289 100.179474 
L 229.057148 98.017057 
L 233.428007 95.76121 
L 237.798866 93.429604 
L 242.169726 90.955765 
L 246.540585 88.25127 
L 250.911444 85.507092 
L 255.282303 82.836292 
" clip-path="url(#p3fada20b4f)" style="fill: none; stroke: #008000; stroke-width: 0.5; stroke-linecap: square"/>
   </g>
   <g id="line2d_65">
    <path d="M 189.719416 117.3088 
L 194.090275 115.786198 
L 198.461134 114.319552 
L 202.831993 112.919717 
L 207.202852 111.557918 
L 211.573711 110.098699 
L 215.944571 108.60125 
L 220.31543 107.058393 
L 224.686289 105.465572 
L 229.057148 103.854722 
L 233.428007 102.244056 
L 237.798866 100.622876 
L 242.169726 98.907898 
L 246.540585 97.103643 
L 250.911444 95.327806 
L 255.282303 93.487041 
" clip-path="url(#p3fada20b4f)" style="fill: none; stroke: #008000; stroke-width: 0.5; stroke-linecap: square"/>
   </g>
   <g id="line2d_66">
    <path d="M 189.719416 116.923533 
L 194.090275 114.915222 
L 198.461134 113.105331 
L 202.831993 111.296016 
L 207.202852 109.341073 
L 211.573711 107.402381 
L 215.944571 105.588308 
L 220.31543 103.743079 
L 224.686289 101.752997 
L 229.057148 99.843408 
L 233.428007 98.039155 
L 237.798866 96.132006 
L 242.169726 94.191305 
L 246.540585 92.351054 
L 250.911444 90.483183 
L 255.282303 88.654482 
" clip-path="url(#p3fada20b4f)" style="fill: none; stroke: #008000; stroke-width: 0.5; stroke-linecap: square"/>
   </g>
   <g id="line2d_67">
    <path d="M 189.719416 117.053305 
L 194.090275 114.907524 
L 198.461134 112.796644 
L 202.831993 110.82599 
L 207.202852 108.867983 
L 211.573711 106.856994 
L 215.944571 104.874629 
L 220.31543 102.8219 
L 224.686289 100.790849 
L 229.057148 98.755829 
L 233.428007 96.704467 
L 237.798866 94.632339 
L 242.169726 92.508561 
L 246.540585 90.353692 
L 250.911444 88.217837 
L 255.282303 86.133777 
" clip-path="url(#p3fada20b4f)" style="fill: none; stroke: #008000; stroke-width: 0.5; stroke-linecap: square"/>
   </g>
   <g id="line2d_68">
    <path d="M 189.719416 117.10002 
L 194.090275 114.939278 
L 198.461134 112.549222 
L 202.831993 110.089305 
L 207.202852 107.672332 
L 211.573711 105.244302 
L 215.944571 102.745823 
L 220.31543 100.165546 
L 224.686289 97.530829 
L 229.057148 94.827145 
L 233.428007 92.104444 
L 237.798866 89.310736 
L 242.169726 86.436765 
L 246.540585 83.446887 
L 250.911444 80.415332 
L 255.282303 77.236449 
" clip-path="url(#p3fada20b4f)" style="fill: none; stroke: #008000; stroke-width: 0.5; stroke-linecap: square"/>
   </g>
   <g id="line2d_69">
    <path d="M 189.719416 116.461281 
L 194.090275 113.346015 
L 198.461134 110.02152 
L 202.831993 106.776957 
L 207.202852 103.649113 
L 211.573711 100.419519 
L 215.944571 97.335669 
L 220.31543 94.275884 
L 224.686289 91.33455 
L 229.057148 88.424505 
L 233.428007 85.536338 
L 237.798866 82.557233 
L 242.169726 79.299851 
L 246.540585 75.873466 
L 250.911444 72.261695 
L 255.282303 68.634286 
" clip-path="url(#p3fada20b4f)" style="fill: none; stroke: #008000; stroke-width: 0.5; stroke-linecap: square"/>
   </g>
   <g id="line2d_70">
    <path d="M 189.719416 116.433639 
L 194.090275 113.304734 
L 198.461134 109.907278 
L 202.831993 106.346339 
L 207.202852 102.639529 
L 211.573711 98.788933 
L 215.944571 94.818059 
L 220.31543 90.763783 
L 224.686289 86.626319 
L 229.057148 82.408558 
L 233.428007 78.095576 
L 237.798866 73.659269 
L 242.169726 69.136211 
L 246.540585 64.502658 
L 250.911444 59.749762 
L 255.282303 54.899176 
" clip-path="url(#p3fada20b4f)" style="fill: none; stroke: #808080; stroke-width: 3; stroke-linecap: square"/>
   </g>
   <g id="line2d_71">
    <path d="M 189.719416 116.399932 
L 194.090275 113.968528 
L 198.461134 111.527963 
L 202.831993 109.072288 
L 207.202852 106.590559 
L 211.573711 104.095709 
L 215.944571 101.61318 
L 220.31543 99.126408 
L 224.686289 96.614462 
L 229.057148 94.07936 
L 233.428007 91.544881 
L 237.798866 89.022513 
L 242.169726 86.501285 
L 246.540585 83.949566 
L 250.911444 81.377959 
L 255.282303 78.795355 
" clip-path="url(#p3fada20b4f)" style="fill: none; stroke-dasharray: 5.55,2.4; stroke-dashoffset: 0; stroke: #0000ff; stroke-width: 1.5"/>
   </g>
   <g id="patch_9">
    <path d="M 186.441271 118.858041 
L 186.441271 14.72649 
" style="fill: none; stroke: #000000; stroke-width: 0.8; stroke-linejoin: miter; stroke-linecap: square"/>
   </g>
   <g id="patch_10">
    <path d="M 186.441271 118.858041 
L 258.560447 118.858041 
" style="fill: none; stroke: #000000; stroke-width: 0.8; stroke-linejoin: miter; stroke-linecap: square"/>
   </g>
   <g id="text_23">
    <!-- T=26°C -->
    <g transform="translate(208.784609 8.72649) scale(0.08 -0.08)">
     <defs>
      <path id="ArialMT-36" d="M 3184 3459 
L 2625 3416 
Q 2550 3747 2413 3897 
Q 2184 4138 1850 4138 
Q 1581 4138 1378 3988 
Q 1113 3794 959 3422 
Q 806 3050 800 2363 
Q 1003 2672 1297 2822 
Q 1591 2972 1913 2972 
Q 2475 2972 2870 2558 
Q 3266 2144 3266 1488 
Q 3266 1056 3080 686 
Q 2894 316 2569 119 
Q 2244 -78 1831 -78 
Q 1128 -78 684 439 
Q 241 956 241 2144 
Q 241 3472 731 4075 
Q 1159 4600 1884 4600 
Q 2425 4600 2770 4297 
Q 3116 3994 3184 3459 
z
M 888 1484 
Q 888 1194 1011 928 
Q 1134 663 1356 523 
Q 1578 384 1822 384 
Q 2178 384 2434 671 
Q 2691 959 2691 1453 
Q 2691 1928 2437 2201 
Q 2184 2475 1800 2475 
Q 1419 2475 1153 2201 
Q 888 1928 888 1484 
z
" transform="scale(0.015625)"/>
     </defs>
     <use xlink:href="#ArialMT-54"/>
     <use xlink:href="#ArialMT-3d" x="61.083984"/>
     <use xlink:href="#ArialMT-32" x="119.482422"/>
     <use xlink:href="#ArialMT-36" x="175.097656"/>
     <use xlink:href="#ArialMT-b0" x="230.712891"/>
     <use xlink:href="#ArialMT-43" x="270.703125"/>
    </g>
   </g>
  </g>
  <g id="axes_4">
   <g id="patch_11">
    <path d="M 268.060927 118.858041 
L 340.180104 118.858041 
L 340.180104 14.72649 
L 268.060927 14.72649 
L 268.060927 118.858041 
z
" style="fill: none"/>
   </g>
   <g id="line2d_72">
    <path d="M 271.339072 115.778715 
L 275.709931 110.84509 
L 280.08079 105.053746 
L 284.451649 98.866611 
L 288.822509 92.496154 
L 293.193368 86.054818 
L 297.564227 79.572707 
L 301.935086 73.080437 
L 306.305945 66.581358 
L 310.676804 60.073666 
L 315.047664 53.551931 
L 319.418523 47.017542 
L 323.789382 40.466678 
L 328.160241 33.902552 
L 332.5311 27.333537 
L 336.901959 20.752715 
" clip-path="url(#padd2c2de14)" style="fill: none; stroke: #ff00ff; stroke-linecap: square"/>
   </g>
   <g id="line2d_73">
    <path d="M 271.339072 115.348688 
L 275.709931 108.659386 
L 280.08079 100.029275 
L 284.451649 90.223994 
L 288.822509 79.699577 
L 293.193368 68.730055 
L 297.564227 57.479915 
L 301.935086 46.054292 
L 306.305945 34.517638 
L 310.676804 22.907862 
L 315.047664 11.255011 
L 319.418523 -0.420354 
L 319.635446 -1 
" clip-path="url(#padd2c2de14)" style="fill: none; stroke: #ff00ff; stroke-linecap: square"/>
   </g>
   <g id="line2d_74">
    <path d="M 271.339072 117.254742 
L 275.709931 114.742637 
L 280.08079 111.878065 
L 284.451649 108.867872 
L 288.822509 105.796428 
L 293.193368 102.699701 
L 297.564227 99.592919 
L 301.935086 96.485028 
L 306.305945 93.372519 
L 310.676804 90.261518 
L 315.047664 87.151997 
L 319.418523 84.043894 
L 323.789382 80.938133 
L 328.160241 77.834033 
L 332.5311 74.735533 
L 336.901959 71.638118 
" clip-path="url(#padd2c2de14)" style="fill: none; stroke: #ff00ff; stroke-linecap: square"/>
   </g>
   <g id="line2d_75">
    <path d="M 271.339072 115.898738 
L 275.709931 111.27555 
L 280.08079 106.015232 
L 284.451649 100.502639 
L 288.822509 94.890001 
L 293.193368 89.231073 
L 297.564227 83.552055 
L 301.935086 77.85922 
L 306.305945 72.151962 
L 310.676804 66.436671 
L 315.047664 60.71705 
L 319.418523 54.992453 
L 323.789382 49.269535 
L 328.160241 43.547925 
L 332.5311 37.835023 
L 336.901959 32.129042 
" clip-path="url(#padd2c2de14)" style="fill: none; stroke: #ff00ff; stroke-linecap: square"/>
   </g>
   <g id="line2d_76">
    <path d="M 271.339072 116.582775 
L 275.709931 113.569297 
L 280.08079 110.396651 
L 284.451649 107.192479 
L 288.822509 103.990628 
L 293.193368 100.796787 
L 297.564227 97.607211 
L 301.935086 94.410151 
L 306.305945 91.21505 
L 310.676804 88.021674 
L 315.047664 84.83785 
L 319.418523 81.654093 
L 323.789382 78.470753 
L 328.160241 75.294248 
L 332.5311 72.121766 
L 336.901959 68.95052 
" clip-path="url(#padd2c2de14)" style="fill: none; stroke: #ff00ff; stroke-linecap: square"/>
   </g>
   <g id="line2d_77">
    <path d="M 271.339072 116.076714 
L 275.709931 111.992079 
L 280.08079 107.501214 
L 284.451649 102.877498 
L 288.822509 98.214791 
L 293.193368 93.542961 
L 297.564227 88.858214 
L 301.935086 84.169516 
L 306.305945 79.481535 
L 310.676804 74.797484 
L 315.047664 70.104872 
L 319.418523 65.408745 
L 323.789382 60.70409 
L 328.160241 55.992108 
L 332.5311 51.276755 
L 336.901959 46.557142 
" clip-path="url(#padd2c2de14)" style="fill: none; stroke: #ff00ff; stroke-linecap: square"/>
   </g>
   <g id="line2d_78">
    <path d="M 271.339072 117.132851 
L 275.709931 114.348591 
L 280.08079 111.122361 
L 284.451649 107.707526 
L 288.822509 104.211985 
L 293.193368 100.682875 
L 297.564227 97.14003 
L 301.935086 93.585807 
L 306.305945 90.027732 
L 310.676804 86.472126 
L 315.047664 82.924231 
L 319.418523 79.382206 
L 323.789382 75.843868 
L 328.160241 72.307189 
L 332.5311 68.775683 
L 336.901959 65.247017 
" clip-path="url(#padd2c2de14)" style="fill: none; stroke: #ff00ff; stroke-linecap: square"/>
   </g>
   <g id="line2d_79">
    <path d="M 271.339072 116.689633 
L 275.709931 113.22339 
L 280.08079 109.225475 
L 284.451649 105.008712 
L 288.822509 100.704451 
L 293.193368 96.365142 
L 297.564227 92.012702 
L 301.935086 87.645174 
L 306.305945 83.271274 
L 310.676804 78.891736 
L 315.047664 74.508649 
L 319.418523 70.126961 
L 323.789382 65.751266 
L 328.160241 61.37869 
L 332.5311 57.00478 
L 336.901959 52.631219 
" clip-path="url(#padd2c2de14)" style="fill: none; stroke: #ff00ff; stroke-linecap: square"/>
   </g>
   <g id="matplotlib.axis_7">
    <g id="xtick_13">
     <g id="line2d_80">
      <g>
       <use xlink:href="#m215dd632af" x="271.339072" y="118.858041" style="stroke: #000000; stroke-width: 0.8"/>
      </g>
     </g>
     <g id="text_24">
      <!-- $\mathdefault{0}$ -->
      <g transform="translate(269.939072 129.436948) scale(0.05 -0.05)">
       <use xlink:href="#ArialMT-30" transform="translate(0 0.125)"/>
      </g>
     </g>
    </g>
    <g id="xtick_14">
     <g id="line2d_81">
      <g>
       <use xlink:href="#m215dd632af" x="293.193368" y="118.858041" style="stroke: #000000; stroke-width: 0.8"/>
      </g>
     </g>
     <g id="text_25">
      <!-- $\mathdefault{5}$ -->
      <g transform="translate(291.793368 129.436948) scale(0.05 -0.05)">
       <use xlink:href="#ArialMT-35" transform="translate(0 0.390625)"/>
      </g>
     </g>
    </g>
    <g id="xtick_15">
     <g id="line2d_82">
      <g>
       <use xlink:href="#m215dd632af" x="315.047664" y="118.858041" style="stroke: #000000; stroke-width: 0.8"/>
      </g>
     </g>
     <g id="text_26">
      <!-- $\mathdefault{10}$ -->
      <g transform="translate(312.247664 129.436948) scale(0.05 -0.05)">
       <use xlink:href="#ArialMT-31" transform="translate(0 0.125)"/>
       <use xlink:href="#ArialMT-30" transform="translate(55.615234 0.125)"/>
      </g>
     </g>
    </g>
    <g id="xtick_16">
     <g id="line2d_83">
      <g>
       <use xlink:href="#m215dd632af" x="336.901959" y="118.858041" style="stroke: #000000; stroke-width: 0.8"/>
      </g>
     </g>
     <g id="text_27">
      <!-- $\mathdefault{15}$ -->
      <g transform="translate(334.101959 129.436948) scale(0.05 -0.05)">
       <use xlink:href="#ArialMT-31" transform="translate(0 0.125)"/>
       <use xlink:href="#ArialMT-35" transform="translate(55.615234 0.125)"/>
      </g>
     </g>
    </g>
   </g>
   <g id="matplotlib.axis_8">
    <g id="ytick_16">
     <g id="line2d_84">
      <g>
       <use xlink:href="#mcdaf146393" x="268.060927" y="118.858041" style="stroke: #000000; stroke-width: 0.8"/>
      </g>
     </g>
    </g>
    <g id="ytick_17">
     <g id="line2d_85">
      <g>
       <use xlink:href="#mcdaf146393" x="268.060927" y="92.82889" style="stroke: #000000; stroke-width: 0.8"/>
      </g>
     </g>
    </g>
    <g id="ytick_18">
     <g id="line2d_86">
      <g>
       <use xlink:href="#mcdaf146393" x="268.060927" y="66.799739" style="stroke: #000000; stroke-width: 0.8"/>
      </g>
     </g>
    </g>
    <g id="ytick_19">
     <g id="line2d_87">
      <g>
       <use xlink:href="#mcdaf146393" x="268.060927" y="40.770588" style="stroke: #000000; stroke-width: 0.8"/>
      </g>
     </g>
    </g>
    <g id="ytick_20">
     <g id="line2d_88">
      <g>
       <use xlink:href="#mcdaf146393" x="268.060927" y="14.741437" style="stroke: #000000; stroke-width: 0.8"/>
      </g>
     </g>
    </g>
   </g>
   <g id="line2d_89">
    <path d="M 271.339072 115.457911 
L 275.709931 111.244806 
L 280.08079 106.686166 
L 284.451649 101.912044 
L 288.822509 96.956183 
L 293.193368 91.835628 
L 297.564227 86.535369 
L 301.935086 81.050599 
L 306.305945 75.447946 
L 310.676804 69.715115 
L 315.047664 63.972617 
L 319.418523 58.099529 
L 323.789382 52.127162 
L 328.160241 46.118853 
L 332.5311 40.015252 
L 336.901959 33.811494 
" clip-path="url(#padd2c2de14)" style="fill: none; stroke: #808080; stroke-width: 3; stroke-linecap: square"/>
   </g>
   <g id="line2d_90">
    <path d="M 271.339072 115.455521 
L 275.709931 112.042594 
L 280.08079 108.612653 
L 284.451649 105.199935 
L 288.822509 101.786028 
L 293.193368 98.372606 
L 297.564227 94.95484 
L 301.935086 91.550942 
L 306.305945 88.132084 
L 310.676804 84.712854 
L 315.047664 81.309263 
L 319.418523 77.929275 
L 323.789382 74.528866 
L 328.160241 71.137417 
L 332.5311 67.768747 
L 336.901959 64.384009 
" clip-path="url(#padd2c2de14)" style="fill: none; stroke-dasharray: 5.55,2.4; stroke-dashoffset: 0; stroke: #0000ff; stroke-width: 1.5"/>
   </g>
   <g id="patch_12">
    <path d="M 268.060927 118.858041 
L 268.060927 14.72649 
" style="fill: none; stroke: #000000; stroke-width: 0.8; stroke-linejoin: miter; stroke-linecap: square"/>
   </g>
   <g id="patch_13">
    <path d="M 268.060927 118.858041 
L 340.180104 118.858041 
" style="fill: none; stroke: #000000; stroke-width: 0.8; stroke-linejoin: miter; stroke-linecap: square"/>
   </g>
   <g id="text_28">
    <!-- T=30°C -->
    <g transform="translate(290.404266 8.72649) scale(0.08 -0.08)">
     <use xlink:href="#ArialMT-54"/>
     <use xlink:href="#ArialMT-3d" x="61.083984"/>
     <use xlink:href="#ArialMT-33" x="119.482422"/>
     <use xlink:href="#ArialMT-30" x="175.097656"/>
     <use xlink:href="#ArialMT-b0" x="230.712891"/>
     <use xlink:href="#ArialMT-43" x="270.703125"/>
    </g>
   </g>
  </g>
  <g id="axes_5">
   <g id="patch_14">
    <path d="M 349.680584 118.858041 
L 421.79976 118.858041 
L 421.79976 14.72649 
L 349.680584 14.72649 
L 349.680584 118.858041 
z
" style="fill: none"/>
   </g>
   <g id="line2d_91">
    <path d="M 352.958728 115.993678 
L 357.329587 111.394733 
L 361.700446 106.013884 
L 366.071306 100.248743 
L 370.442165 94.29174 
L 374.813024 88.23601 
L 379.183883 82.138098 
L 383.554742 76.023304 
L 387.925601 69.887522 
L 392.296461 63.745136 
L 396.66732 57.609128 
L 401.038179 51.480994 
L 405.409038 45.364603 
L 409.779897 39.24941 
L 414.150756 33.138823 
L 418.521616 27.027112 
" clip-path="url(#pf15ca476a4)" style="fill: none; stroke: #ff00ff; stroke-linecap: square"/>
   </g>
   <g id="line2d_92">
    <path d="M 352.958728 115.753107 
L 357.329587 110.635546 
L 361.700446 104.648302 
L 366.071306 98.280151 
L 370.442165 91.747697 
L 374.813024 85.137083 
L 379.183883 78.503316 
L 383.554742 71.865373 
L 387.925601 65.233 
L 392.296461 58.605833 
L 396.66732 51.977605 
L 401.038179 45.344577 
L 405.409038 38.70522 
L 409.779897 32.071084 
L 414.150756 25.439572 
L 418.521616 18.799327 
" clip-path="url(#pf15ca476a4)" style="fill: none; stroke: #ff00ff; stroke-linecap: square"/>
   </g>
   <g id="line2d_93">
    <path d="M 352.958728 116.659918 
L 357.329587 113.834718 
L 361.700446 110.889937 
L 366.071306 107.918747 
L 370.442165 104.946842 
L 374.813024 101.965674 
L 379.183883 98.984268 
L 383.554742 96.007769 
L 387.925601 93.035077 
L 392.296461 90.067199 
L 396.66732 87.103652 
L 401.038179 84.13619 
L 405.409038 81.156669 
L 409.779897 78.169565 
L 414.150756 75.173349 
L 418.521616 72.171216 
" clip-path="url(#pf15ca476a4)" style="fill: none; stroke: #ff00ff; stroke-linecap: square"/>
   </g>
   <g id="line2d_94">
    <path d="M 352.958728 113.51714 
L 357.329587 106.045796 
L 361.700446 97.954097 
L 366.071306 89.660343 
L 370.442165 81.300784 
L 374.813024 72.920314 
L 379.183883 64.525087 
L 383.554742 56.086924 
L 387.925601 47.639477 
L 392.296461 39.191293 
L 396.66732 30.757797 
L 401.038179 22.329381 
L 405.409038 13.910545 
L 409.779897 5.492309 
L 413.149637 -1 
" clip-path="url(#pf15ca476a4)" style="fill: none; stroke: #ff00ff; stroke-linecap: square"/>
   </g>
   <g id="matplotlib.axis_9">
    <g id="xtick_17">
     <g id="line2d_95">
      <g>
       <use xlink:href="#m215dd632af" x="352.958728" y="118.858041" style="stroke: #000000; stroke-width: 0.8"/>
      </g>
     </g>
     <g id="text_29">
      <!-- $\mathdefault{0}$ -->
      <g transform="translate(351.558728 129.436948) scale(0.05 -0.05)">
       <use xlink:href="#ArialMT-30" transform="translate(0 0.125)"/>
      </g>
     </g>
    </g>
    <g id="xtick_18">
     <g id="line2d_96">
      <g>
       <use xlink:href="#m215dd632af" x="374.813024" y="118.858041" style="stroke: #000000; stroke-width: 0.8"/>
      </g>
     </g>
     <g id="text_30">
      <!-- $\mathdefault{5}$ -->
      <g transform="translate(373.413024 129.436948) scale(0.05 -0.05)">
       <use xlink:href="#ArialMT-35" transform="translate(0 0.390625)"/>
      </g>
     </g>
    </g>
    <g id="xtick_19">
     <g id="line2d_97">
      <g>
       <use xlink:href="#m215dd632af" x="396.66732" y="118.858041" style="stroke: #000000; stroke-width: 0.8"/>
      </g>
     </g>
     <g id="text_31">
      <!-- $\mathdefault{10}$ -->
      <g transform="translate(393.86732 129.436948) scale(0.05 -0.05)">
       <use xlink:href="#ArialMT-31" transform="translate(0 0.125)"/>
       <use xlink:href="#ArialMT-30" transform="translate(55.615234 0.125)"/>
      </g>
     </g>
    </g>
    <g id="xtick_20">
     <g id="line2d_98">
      <g>
       <use xlink:href="#m215dd632af" x="418.521616" y="118.858041" style="stroke: #000000; stroke-width: 0.8"/>
      </g>
     </g>
     <g id="text_32">
      <!-- $\mathdefault{15}$ -->
      <g transform="translate(415.721616 129.436948) scale(0.05 -0.05)">
       <use xlink:href="#ArialMT-31" transform="translate(0 0.125)"/>
       <use xlink:href="#ArialMT-35" transform="translate(55.615234 0.125)"/>
      </g>
     </g>
    </g>
   </g>
   <g id="matplotlib.axis_10">
    <g id="ytick_21">
     <g id="line2d_99">
      <g>
       <use xlink:href="#mcdaf146393" x="349.680584" y="118.858041" style="stroke: #000000; stroke-width: 0.8"/>
      </g>
     </g>
    </g>
    <g id="ytick_22">
     <g id="line2d_100">
      <g>
       <use xlink:href="#mcdaf146393" x="349.680584" y="92.82889" style="stroke: #000000; stroke-width: 0.8"/>
      </g>
     </g>
    </g>
    <g id="ytick_23">
     <g id="line2d_101">
      <g>
       <use xlink:href="#mcdaf146393" x="349.680584" y="66.799739" style="stroke: #000000; stroke-width: 0.8"/>
      </g>
     </g>
    </g>
    <g id="ytick_24">
     <g id="line2d_102">
      <g>
       <use xlink:href="#mcdaf146393" x="349.680584" y="40.770588" style="stroke: #000000; stroke-width: 0.8"/>
      </g>
     </g>
    </g>
    <g id="ytick_25">
     <g id="line2d_103">
      <g>
       <use xlink:href="#mcdaf146393" x="349.680584" y="14.741437" style="stroke: #000000; stroke-width: 0.8"/>
      </g>
     </g>
    </g>
   </g>
   <g id="line2d_104">
    <path d="M 352.958728 114.23682 
L 357.329587 108.849553 
L 361.700446 103.208313 
L 366.071306 97.32822 
L 370.442165 91.293285 
L 374.813024 85.072419 
L 379.183883 78.744966 
L 383.554742 72.287143 
L 387.925601 65.658172 
L 392.296461 58.858766 
L 396.66732 51.901389 
L 401.038179 44.73381 
L 405.409038 37.444742 
L 409.779897 30.05975 
L 414.150756 22.529532 
L 418.521616 14.72649 
" clip-path="url(#pf15ca476a4)" style="fill: none; stroke: #808080; stroke-width: 3; stroke-linecap: square"/>
   </g>
   <g id="line2d_105">
    <path d="M 352.958728 114.251115 
L 357.329587 109.638447 
L 361.700446 104.957123 
L 366.071306 100.253828 
L 370.442165 95.517591 
L 374.813024 90.733407 
L 379.183883 85.924806 
L 383.554742 81.069928 
L 387.925601 76.280802 
L 392.296461 71.545025 
L 396.66732 66.814656 
L 401.038179 62.112945 
L 405.409038 57.453669 
L 409.779897 52.70682 
L 414.150756 47.886492 
L 418.521616 43.072117 
" clip-path="url(#pf15ca476a4)" style="fill: none; stroke-dasharray: 5.55,2.4; stroke-dashoffset: 0; stroke: #0000ff; stroke-width: 1.5"/>
   </g>
   <g id="patch_15">
    <path d="M 349.680584 118.858041 
L 349.680584 14.72649 
" style="fill: none; stroke: #000000; stroke-width: 0.8; stroke-linejoin: miter; stroke-linecap: square"/>
   </g>
   <g id="patch_16">
    <path d="M 349.680584 118.858041 
L 421.79976 118.858041 
" style="fill: none; stroke: #000000; stroke-width: 0.8; stroke-linejoin: miter; stroke-linecap: square"/>
   </g>
   <g id="text_33">
    <!-- T=33°C -->
    <g transform="translate(372.023922 8.72649) scale(0.08 -0.08)">
     <use xlink:href="#ArialMT-54"/>
     <use xlink:href="#ArialMT-3d" x="61.083984"/>
     <use xlink:href="#ArialMT-33" x="119.482422"/>
     <use xlink:href="#ArialMT-33" x="175.097656"/>
     <use xlink:href="#ArialMT-b0" x="230.712891"/>
     <use xlink:href="#ArialMT-43" x="270.703125"/>
    </g>
   </g>
  </g>
 </g>
 <defs>
  <clipPath id="p9275a2c2e5">
   <rect x="23.201959" y="14.72649" width="72.119176" height="104.131551"/>
  </clipPath>
  <clipPath id="p17de5ee631">
   <rect x="104.821615" y="14.72649" width="72.119176" height="104.131551"/>
  </clipPath>
  <clipPath id="p3fada20b4f">
   <rect x="186.441271" y="14.72649" width="72.119176" height="104.131551"/>
  </clipPath>
  <clipPath id="padd2c2de14">
   <rect x="268.060927" y="14.72649" width="72.119176" height="104.131551"/>
  </clipPath>
  <clipPath id="pf15ca476a4">
   <rect x="349.680584" y="14.72649" width="72.119176" height="104.131551"/>
  </clipPath>
 </defs>
</svg>
