<?xml version="1.0" encoding="utf-8" standalone="no"?>
<!DOCTYPE svg PUBLIC "-//W3C//DTD SVG 1.1//EN"
  "http://www.w3.org/Graphics/SVG/1.1/DTD/svg11.dtd">
<svg xmlns:xlink="http://www.w3.org/1999/xlink" width="424.8pt" height="144pt" viewBox="0 0 424.8 144" xmlns="http://www.w3.org/2000/svg" version="1.1">
 <metadata>
  <rdf:RDF xmlns:dc="http://purl.org/dc/elements/1.1/" xmlns:cc="http://creativecommons.org/ns#" xmlns:rdf="http://www.w3.org/1999/02/22-rdf-syntax-ns#">
   <cc:Work>
    <dc:type rdf:resource="http://purl.org/dc/dcmitype/StillImage"/>
    <dc:date>2024-11-17T17:15:15.891149</dc:date>
    <dc:format>image/svg+xml</dc:format>
    <dc:creator>
     <cc:Agent>
      <dc:title>Matplotlib v3.8.0, https://matplotlib.org/</dc:title>
     </cc:Agent>
    </dc:creator>
   </cc:Work>
  </rdf:RDF>
 </metadata>
 <defs>
  <style type="text/css">*{stroke-linejoin: round; stroke-linecap: butt}</style>
 </defs>
 <g id="figure_1">
  <g id="patch_1">
   <path d="M 0 144 
L 424.8 144 
L 424.8 0 
L 0 0 
L 0 144 
z
" style="fill: none"/>
  </g>
  <g id="axes_1">
   <g id="patch_2">
    <path d="M 23.201959 118.858041 
L 95.321135 118.858041 
L 95.321135 14.72649 
L 23.201959 14.72649 
L 23.201959 118.858041 
z
" style="fill: none"/>
   </g>
   <g id="PolyCollection_1">
    <defs>
     <path id="ma583370fcd" d="M 26.480103 -26.024138 
L 26.480103 -25.888715 
L 30.850962 -26.964023 
L 35.221821 -28.197368 
L 39.592681 -29.510168 
L 43.96354 -30.863573 
L 48.334399 -32.23892 
L 52.705258 -33.625869 
L 57.076117 -35.018774 
L 61.446976 -36.412409 
L 65.817836 -37.805672 
L 70.188695 -39.19786 
L 74.559554 -40.590532 
L 78.930413 -41.984871 
L 83.301272 -43.380156 
L 87.672131 -44.7749 
L 92.042991 -46.171411 
L 92.042991 -58.520108 
L 92.042991 -58.520108 
L 87.672131 -56.174601 
L 83.301272 -53.828982 
L 78.930413 -51.484167 
L 74.559554 -49.145884 
L 70.188695 -46.814019 
L 65.817836 -44.491261 
L 61.446976 -42.178919 
L 57.076117 -39.882709 
L 52.705258 -37.610355 
L 48.334399 -35.373998 
L 43.96354 -33.196142 
L 39.592681 -31.108676 
L 35.221821 -29.160408 
L 30.850962 -27.426021 
L 26.480103 -26.024138 
z
"/>
    </defs>
    <g clip-path="url(#p4f05681e9a)">
     <use xlink:href="#ma583370fcd" x="0" y="144" style="fill: #ff7fff"/>
    </g>
   </g>
   <g id="matplotlib.axis_1">
    <g id="xtick_1">
     <g id="line2d_1">
      <defs>
       <path id="m65ac21001b" d="M 0 0 
L 0 3.5 
" style="stroke: #000000; stroke-width: 0.8"/>
      </defs>
      <g>
       <use xlink:href="#m65ac21001b" x="26.480103" y="118.858041" style="stroke: #000000; stroke-width: 0.8"/>
      </g>
     </g>
     <g id="text_1">
      <!-- $\mathdefault{0}$ -->
      <g transform="translate(25.080103 129.436948) scale(0.05 -0.05)">
       <defs>
        <path id="ArialMT-30" d="M 266 2259 
Q 266 3072 433 3567 
Q 600 4063 929 4331 
Q 1259 4600 1759 4600 
Q 2128 4600 2406 4451 
Q 2684 4303 2865 4023 
Q 3047 3744 3150 3342 
Q 3253 2941 3253 2259 
Q 3253 1453 3087 958 
Q 2922 463 2592 192 
Q 2263 -78 1759 -78 
Q 1097 -78 719 397 
Q 266 969 266 2259 
z
M 844 2259 
Q 844 1131 1108 757 
Q 1372 384 1759 384 
Q 2147 384 2411 759 
Q 2675 1134 2675 2259 
Q 2675 3391 2411 3762 
Q 2147 4134 1753 4134 
Q 1366 4134 1134 3806 
Q 844 3388 844 2259 
z
" transform="scale(0.015625)"/>
       </defs>
       <use xlink:href="#ArialMT-30" transform="translate(0 0.125)"/>
      </g>
     </g>
    </g>
    <g id="xtick_2">
     <g id="line2d_2">
      <g>
       <use xlink:href="#m65ac21001b" x="48.334399" y="118.858041" style="stroke: #000000; stroke-width: 0.8"/>
      </g>
     </g>
     <g id="text_2">
      <!-- $\mathdefault{5}$ -->
      <g transform="translate(46.934399 129.436948) scale(0.05 -0.05)">
       <defs>
        <path id="ArialMT-35" d="M 266 1200 
L 856 1250 
Q 922 819 1161 601 
Q 1400 384 1738 384 
Q 2144 384 2425 690 
Q 2706 997 2706 1503 
Q 2706 1984 2436 2262 
Q 2166 2541 1728 2541 
Q 1456 2541 1237 2417 
Q 1019 2294 894 2097 
L 366 2166 
L 809 4519 
L 3088 4519 
L 3088 3981 
L 1259 3981 
L 1013 2750 
Q 1425 3038 1878 3038 
Q 2478 3038 2890 2622 
Q 3303 2206 3303 1553 
Q 3303 931 2941 478 
Q 2500 -78 1738 -78 
Q 1113 -78 717 272 
Q 322 622 266 1200 
z
" transform="scale(0.015625)"/>
       </defs>
       <use xlink:href="#ArialMT-35" transform="translate(0 0.390625)"/>
      </g>
     </g>
    </g>
    <g id="xtick_3">
     <g id="line2d_3">
      <g>
       <use xlink:href="#m65ac21001b" x="70.188695" y="118.858041" style="stroke: #000000; stroke-width: 0.8"/>
      </g>
     </g>
     <g id="text_3">
      <!-- $\mathdefault{10}$ -->
      <g transform="translate(67.388695 129.436948) scale(0.05 -0.05)">
       <defs>
        <path id="ArialMT-31" d="M 2384 0 
L 1822 0 
L 1822 3584 
Q 1619 3391 1289 3197 
Q 959 3003 697 2906 
L 697 3450 
Q 1169 3672 1522 3987 
Q 1875 4303 2022 4600 
L 2384 4600 
L 2384 0 
z
" transform="scale(0.015625)"/>
       </defs>
       <use xlink:href="#ArialMT-31" transform="translate(0 0.125)"/>
       <use xlink:href="#ArialMT-30" transform="translate(55.615234 0.125)"/>
      </g>
     </g>
    </g>
    <g id="xtick_4">
     <g id="line2d_4">
      <g>
       <use xlink:href="#m65ac21001b" x="92.042991" y="118.858041" style="stroke: #000000; stroke-width: 0.8"/>
      </g>
     </g>
     <g id="text_4">
      <!-- $\mathdefault{15}$ -->
      <g transform="translate(89.242991 129.436948) scale(0.05 -0.05)">
       <use xlink:href="#ArialMT-31" transform="translate(0 0.125)"/>
       <use xlink:href="#ArialMT-35" transform="translate(55.615234 0.125)"/>
      </g>
     </g>
    </g>
    <g id="text_5">
     <!-- Streak length , q -->
     <g transform="translate(33.775531 139.526479) scale(0.07 -0.07)">
      <defs>
       <path id="ArialMT-53" d="M 288 1472 
L 859 1522 
Q 900 1178 1048 958 
Q 1197 738 1509 602 
Q 1822 466 2213 466 
Q 2559 466 2825 569 
Q 3091 672 3220 851 
Q 3350 1031 3350 1244 
Q 3350 1459 3225 1620 
Q 3100 1781 2813 1891 
Q 2628 1963 1997 2114 
Q 1366 2266 1113 2400 
Q 784 2572 623 2826 
Q 463 3081 463 3397 
Q 463 3744 659 4045 
Q 856 4347 1234 4503 
Q 1613 4659 2075 4659 
Q 2584 4659 2973 4495 
Q 3363 4331 3572 4012 
Q 3781 3694 3797 3291 
L 3216 3247 
Q 3169 3681 2898 3903 
Q 2628 4125 2100 4125 
Q 1550 4125 1298 3923 
Q 1047 3722 1047 3438 
Q 1047 3191 1225 3031 
Q 1400 2872 2139 2705 
Q 2878 2538 3153 2413 
Q 3553 2228 3743 1945 
Q 3934 1663 3934 1294 
Q 3934 928 3725 604 
Q 3516 281 3123 101 
Q 2731 -78 2241 -78 
Q 1619 -78 1198 103 
Q 778 284 539 648 
Q 300 1013 288 1472 
z
" transform="scale(0.015625)"/>
       <path id="ArialMT-74" d="M 1650 503 
L 1731 6 
Q 1494 -44 1306 -44 
Q 1000 -44 831 53 
Q 663 150 594 308 
Q 525 466 525 972 
L 525 2881 
L 113 2881 
L 113 3319 
L 525 3319 
L 525 4141 
L 1084 4478 
L 1084 3319 
L 1650 3319 
L 1650 2881 
L 1084 2881 
L 1084 941 
Q 1084 700 1114 631 
Q 1144 563 1211 522 
Q 1278 481 1403 481 
Q 1497 481 1650 503 
z
" transform="scale(0.015625)"/>
       <path id="ArialMT-72" d="M 416 0 
L 416 3319 
L 922 3319 
L 922 2816 
Q 1116 3169 1280 3281 
Q 1444 3394 1641 3394 
Q 1925 3394 2219 3213 
L 2025 2691 
Q 1819 2813 1613 2813 
Q 1428 2813 1281 2702 
Q 1134 2591 1072 2394 
Q 978 2094 978 1738 
L 978 0 
L 416 0 
z
" transform="scale(0.015625)"/>
       <path id="ArialMT-65" d="M 2694 1069 
L 3275 997 
Q 3138 488 2766 206 
Q 2394 -75 1816 -75 
Q 1088 -75 661 373 
Q 234 822 234 1631 
Q 234 2469 665 2931 
Q 1097 3394 1784 3394 
Q 2450 3394 2872 2941 
Q 3294 2488 3294 1666 
Q 3294 1616 3291 1516 
L 816 1516 
Q 847 969 1125 678 
Q 1403 388 1819 388 
Q 2128 388 2347 550 
Q 2566 713 2694 1069 
z
M 847 1978 
L 2700 1978 
Q 2663 2397 2488 2606 
Q 2219 2931 1791 2931 
Q 1403 2931 1139 2672 
Q 875 2413 847 1978 
z
" transform="scale(0.015625)"/>
       <path id="ArialMT-61" d="M 2588 409 
Q 2275 144 1986 34 
Q 1697 -75 1366 -75 
Q 819 -75 525 192 
Q 231 459 231 875 
Q 231 1119 342 1320 
Q 453 1522 633 1644 
Q 813 1766 1038 1828 
Q 1203 1872 1538 1913 
Q 2219 1994 2541 2106 
Q 2544 2222 2544 2253 
Q 2544 2597 2384 2738 
Q 2169 2928 1744 2928 
Q 1347 2928 1158 2789 
Q 969 2650 878 2297 
L 328 2372 
Q 403 2725 575 2942 
Q 747 3159 1072 3276 
Q 1397 3394 1825 3394 
Q 2250 3394 2515 3294 
Q 2781 3194 2906 3042 
Q 3031 2891 3081 2659 
Q 3109 2516 3109 2141 
L 3109 1391 
Q 3109 606 3145 398 
Q 3181 191 3288 0 
L 2700 0 
Q 2613 175 2588 409 
z
M 2541 1666 
Q 2234 1541 1622 1453 
Q 1275 1403 1131 1340 
Q 988 1278 909 1158 
Q 831 1038 831 891 
Q 831 666 1001 516 
Q 1172 366 1500 366 
Q 1825 366 2078 508 
Q 2331 650 2450 897 
Q 2541 1088 2541 1459 
L 2541 1666 
z
" transform="scale(0.015625)"/>
       <path id="ArialMT-6b" d="M 425 0 
L 425 4581 
L 988 4581 
L 988 1969 
L 2319 3319 
L 3047 3319 
L 1778 2088 
L 3175 0 
L 2481 0 
L 1384 1697 
L 988 1316 
L 988 0 
L 425 0 
z
" transform="scale(0.015625)"/>
       <path id="ArialMT-20" transform="scale(0.015625)"/>
       <path id="ArialMT-6c" d="M 409 0 
L 409 4581 
L 972 4581 
L 972 0 
L 409 0 
z
" transform="scale(0.015625)"/>
       <path id="ArialMT-6e" d="M 422 0 
L 422 3319 
L 928 3319 
L 928 2847 
Q 1294 3394 1984 3394 
Q 2284 3394 2536 3286 
Q 2788 3178 2913 3003 
Q 3038 2828 3088 2588 
Q 3119 2431 3119 2041 
L 3119 0 
L 2556 0 
L 2556 2019 
Q 2556 2363 2490 2533 
Q 2425 2703 2258 2804 
Q 2091 2906 1866 2906 
Q 1506 2906 1245 2678 
Q 984 2450 984 1813 
L 984 0 
L 422 0 
z
" transform="scale(0.015625)"/>
       <path id="ArialMT-67" d="M 319 -275 
L 866 -356 
Q 900 -609 1056 -725 
Q 1266 -881 1628 -881 
Q 2019 -881 2231 -725 
Q 2444 -569 2519 -288 
Q 2563 -116 2559 434 
Q 2191 0 1641 0 
Q 956 0 581 494 
Q 206 988 206 1678 
Q 206 2153 378 2554 
Q 550 2956 876 3175 
Q 1203 3394 1644 3394 
Q 2231 3394 2613 2919 
L 2613 3319 
L 3131 3319 
L 3131 450 
Q 3131 -325 2973 -648 
Q 2816 -972 2473 -1159 
Q 2131 -1347 1631 -1347 
Q 1038 -1347 672 -1080 
Q 306 -813 319 -275 
z
M 784 1719 
Q 784 1066 1043 766 
Q 1303 466 1694 466 
Q 2081 466 2343 764 
Q 2606 1063 2606 1700 
Q 2606 2309 2336 2618 
Q 2066 2928 1684 2928 
Q 1309 2928 1046 2623 
Q 784 2319 784 1719 
z
" transform="scale(0.015625)"/>
       <path id="ArialMT-68" d="M 422 0 
L 422 4581 
L 984 4581 
L 984 2938 
Q 1378 3394 1978 3394 
Q 2347 3394 2619 3248 
Q 2891 3103 3008 2847 
Q 3125 2591 3125 2103 
L 3125 0 
L 2563 0 
L 2563 2103 
Q 2563 2525 2380 2717 
Q 2197 2909 1863 2909 
Q 1613 2909 1392 2779 
Q 1172 2650 1078 2428 
Q 984 2206 984 1816 
L 984 0 
L 422 0 
z
" transform="scale(0.015625)"/>
       <path id="ArialMT-2c" d="M 569 0 
L 569 641 
L 1209 641 
L 1209 0 
Q 1209 -353 1084 -570 
Q 959 -788 688 -906 
L 531 -666 
Q 709 -588 793 -436 
Q 878 -284 888 0 
L 569 0 
z
" transform="scale(0.015625)"/>
       <path id="ArialMT-71" d="M 2538 -1272 
L 2538 353 
Q 2406 169 2170 47 
Q 1934 -75 1669 -75 
Q 1078 -75 651 397 
Q 225 869 225 1691 
Q 225 2191 398 2587 
Q 572 2984 901 3189 
Q 1231 3394 1625 3394 
Q 2241 3394 2594 2875 
L 2594 3319 
L 3100 3319 
L 3100 -1272 
L 2538 -1272 
z
M 803 1669 
Q 803 1028 1072 708 
Q 1341 388 1716 388 
Q 2075 388 2334 692 
Q 2594 997 2594 1619 
Q 2594 2281 2320 2615 
Q 2047 2950 1678 2950 
Q 1313 2950 1058 2639 
Q 803 2328 803 1669 
z
" transform="scale(0.015625)"/>
      </defs>
      <use xlink:href="#ArialMT-53"/>
      <use xlink:href="#ArialMT-74" x="66.699219"/>
      <use xlink:href="#ArialMT-72" x="94.482422"/>
      <use xlink:href="#ArialMT-65" x="127.783203"/>
      <use xlink:href="#ArialMT-61" x="183.398438"/>
      <use xlink:href="#ArialMT-6b" x="239.013672"/>
      <use xlink:href="#ArialMT-20" x="289.013672"/>
      <use xlink:href="#ArialMT-6c" x="316.796875"/>
      <use xlink:href="#ArialMT-65" x="339.013672"/>
      <use xlink:href="#ArialMT-6e" x="394.628906"/>
      <use xlink:href="#ArialMT-67" x="450.244141"/>
      <use xlink:href="#ArialMT-74" x="505.859375"/>
      <use xlink:href="#ArialMT-68" x="533.642578"/>
      <use xlink:href="#ArialMT-20" x="589.257812"/>
      <use xlink:href="#ArialMT-2c" x="617.041016"/>
      <use xlink:href="#ArialMT-20" x="644.824219"/>
      <use xlink:href="#ArialMT-71" x="672.607422"/>
     </g>
    </g>
   </g>
   <g id="matplotlib.axis_2">
    <g id="ytick_1">
     <g id="line2d_5">
      <defs>
       <path id="m7e6683681e" d="M 0 0 
L -3.5 0 
" style="stroke: #000000; stroke-width: 0.8"/>
      </defs>
      <g>
       <use xlink:href="#m7e6683681e" x="23.201959" y="118.858041" style="stroke: #000000; stroke-width: 0.8"/>
      </g>
     </g>
     <g id="text_6">
      <!-- $\mathdefault{0}$ -->
      <g transform="translate(13.401959 120.647494) scale(0.05 -0.05)">
       <use xlink:href="#ArialMT-30" transform="translate(0 0.125)"/>
      </g>
     </g>
    </g>
    <g id="ytick_2">
     <g id="line2d_6">
      <g>
       <use xlink:href="#m7e6683681e" x="23.201959" y="92.82889" style="stroke: #000000; stroke-width: 0.8"/>
      </g>
     </g>
     <g id="text_7">
      <!-- $\mathdefault{1}$ -->
      <g transform="translate(13.401959 94.618343) scale(0.05 -0.05)">
       <use xlink:href="#ArialMT-31" transform="translate(0 0.125)"/>
      </g>
     </g>
    </g>
    <g id="ytick_3">
     <g id="line2d_7">
      <g>
       <use xlink:href="#m7e6683681e" x="23.201959" y="66.799739" style="stroke: #000000; stroke-width: 0.8"/>
      </g>
     </g>
     <g id="text_8">
      <!-- $\mathdefault{2}$ -->
      <g transform="translate(13.401959 68.589192) scale(0.05 -0.05)">
       <defs>
        <path id="ArialMT-32" d="M 3222 541 
L 3222 0 
L 194 0 
Q 188 203 259 391 
Q 375 700 629 1000 
Q 884 1300 1366 1694 
Q 2113 2306 2375 2664 
Q 2638 3022 2638 3341 
Q 2638 3675 2398 3904 
Q 2159 4134 1775 4134 
Q 1369 4134 1125 3890 
Q 881 3647 878 3216 
L 300 3275 
Q 359 3922 746 4261 
Q 1134 4600 1788 4600 
Q 2447 4600 2831 4234 
Q 3216 3869 3216 3328 
Q 3216 3053 3103 2787 
Q 2991 2522 2730 2228 
Q 2469 1934 1863 1422 
Q 1356 997 1212 845 
Q 1069 694 975 541 
L 3222 541 
z
" transform="scale(0.015625)"/>
       </defs>
       <use xlink:href="#ArialMT-32" transform="translate(0 0.125)"/>
      </g>
     </g>
    </g>
    <g id="ytick_4">
     <g id="line2d_8">
      <g>
       <use xlink:href="#m7e6683681e" x="23.201959" y="40.770588" style="stroke: #000000; stroke-width: 0.8"/>
      </g>
     </g>
     <g id="text_9">
      <!-- $\mathdefault{3}$ -->
      <g transform="translate(13.401959 42.560041) scale(0.05 -0.05)">
       <defs>
        <path id="ArialMT-33" d="M 269 1209 
L 831 1284 
Q 928 806 1161 595 
Q 1394 384 1728 384 
Q 2125 384 2398 659 
Q 2672 934 2672 1341 
Q 2672 1728 2419 1979 
Q 2166 2231 1775 2231 
Q 1616 2231 1378 2169 
L 1441 2663 
Q 1497 2656 1531 2656 
Q 1891 2656 2178 2843 
Q 2466 3031 2466 3422 
Q 2466 3731 2256 3934 
Q 2047 4138 1716 4138 
Q 1388 4138 1169 3931 
Q 950 3725 888 3313 
L 325 3413 
Q 428 3978 793 4289 
Q 1159 4600 1703 4600 
Q 2078 4600 2393 4439 
Q 2709 4278 2876 4000 
Q 3044 3722 3044 3409 
Q 3044 3113 2884 2869 
Q 2725 2625 2413 2481 
Q 2819 2388 3044 2092 
Q 3269 1797 3269 1353 
Q 3269 753 2831 336 
Q 2394 -81 1725 -81 
Q 1122 -81 723 278 
Q 325 638 269 1209 
z
" transform="scale(0.015625)"/>
       </defs>
       <use xlink:href="#ArialMT-33" transform="translate(0 0.125)"/>
      </g>
     </g>
    </g>
    <g id="ytick_5">
     <g id="line2d_9">
      <g>
       <use xlink:href="#m7e6683681e" x="23.201959" y="14.741437" style="stroke: #000000; stroke-width: 0.8"/>
      </g>
     </g>
     <g id="text_10">
      <!-- $\mathdefault{4}$ -->
      <g transform="translate(13.401959 16.53089) scale(0.05 -0.05)">
       <defs>
        <path id="ArialMT-34" d="M 2069 0 
L 2069 1097 
L 81 1097 
L 81 1613 
L 2172 4581 
L 2631 4581 
L 2631 1613 
L 3250 1613 
L 3250 1097 
L 2631 1097 
L 2631 0 
L 2069 0 
z
M 2069 1613 
L 2069 3678 
L 634 1613 
L 2069 1613 
z
" transform="scale(0.015625)"/>
       </defs>
       <use xlink:href="#ArialMT-34" transform="translate(0 0.421875)"/>
      </g>
     </g>
    </g>
    <g id="text_11">
     <!-- MSR -->
     <g transform="translate(8.010709 74.569922) rotate(-90) scale(0.07 -0.07)">
      <defs>
       <path id="ArialMT-4d" d="M 475 0 
L 475 4581 
L 1388 4581 
L 2472 1338 
Q 2622 884 2691 659 
Q 2769 909 2934 1394 
L 4031 4581 
L 4847 4581 
L 4847 0 
L 4263 0 
L 4263 3834 
L 2931 0 
L 2384 0 
L 1059 3900 
L 1059 0 
L 475 0 
z
" transform="scale(0.015625)"/>
       <path id="ArialMT-52" d="M 503 0 
L 503 4581 
L 2534 4581 
Q 3147 4581 3465 4457 
Q 3784 4334 3975 4021 
Q 4166 3709 4166 3331 
Q 4166 2844 3850 2509 
Q 3534 2175 2875 2084 
Q 3116 1969 3241 1856 
Q 3506 1613 3744 1247 
L 4541 0 
L 3778 0 
L 3172 953 
Q 2906 1366 2734 1584 
Q 2563 1803 2427 1890 
Q 2291 1978 2150 2013 
Q 2047 2034 1813 2034 
L 1109 2034 
L 1109 0 
L 503 0 
z
M 1109 2559 
L 2413 2559 
Q 2828 2559 3062 2645 
Q 3297 2731 3419 2920 
Q 3541 3109 3541 3331 
Q 3541 3656 3305 3865 
Q 3069 4075 2559 4075 
L 1109 4075 
L 1109 2559 
z
" transform="scale(0.015625)"/>
      </defs>
      <use xlink:href="#ArialMT-4d"/>
      <use xlink:href="#ArialMT-53" x="83.300781"/>
      <use xlink:href="#ArialMT-52" x="150"/>
     </g>
    </g>
    <g id="text_12">
     <!-- $\times\mathdefault{10^{4}}\mathdefault{}$ -->
     <g transform="translate(23.201959 11.72649) scale(0.05 -0.05)">
      <defs>
       <path id="DejaVuSans-d7" d="M 4488 3438 
L 3059 2003 
L 4488 575 
L 4116 197 
L 2681 1631 
L 1247 197 
L 878 575 
L 2303 2003 
L 878 3438 
L 1247 3816 
L 2681 2381 
L 4116 3816 
L 4488 3438 
z
" transform="scale(0.015625)"/>
      </defs>
      <use xlink:href="#DejaVuSans-d7" transform="translate(0 0.201563)"/>
      <use xlink:href="#ArialMT-31" transform="translate(83.789062 0.201563)"/>
      <use xlink:href="#ArialMT-30" transform="translate(139.404297 0.201563)"/>
      <use xlink:href="#ArialMT-34" transform="translate(196.761875 69.895313) scale(0.7)"/>
     </g>
    </g>
   </g>
   <g id="line2d_10">
    <path d="M 26.480103 118.043574 
L 30.850962 116.804978 
L 35.221821 115.321112 
L 39.592681 113.690578 
L 43.96354 111.970143 
L 48.334399 110.193541 
L 52.705258 108.381888 
L 57.076117 106.549258 
L 61.446976 104.704336 
L 65.817836 102.851533 
L 70.188695 100.99406 
L 74.559554 99.131792 
L 78.930413 97.265481 
L 83.301272 95.395431 
L 87.672131 93.52525 
L 92.042991 91.654241 
" clip-path="url(#p4f05681e9a)" style="fill: none; stroke: #ff00ff; stroke-width: 1.5; stroke-linecap: square"/>
   </g>
   <g id="line2d_11">
    <path d="M 26.480103 118.077945 
L 30.850962 117.102704 
L 35.221821 115.995889 
L 39.592681 114.803159 
L 43.96354 113.53575 
L 48.334399 112.209544 
L 52.705258 110.834093 
L 57.076117 109.408943 
L 61.446976 107.9354 
L 65.817836 106.420519 
L 70.188695 104.849836 
L 74.559554 103.255346 
L 78.930413 101.62954 
L 83.301272 99.956841 
L 87.672131 98.260627 
L 92.042991 96.551088 
" clip-path="url(#p4f05681e9a)" style="fill: none; stroke: #808080; stroke-width: 1.5; stroke-linecap: square"/>
   </g>
   <g id="line2d_12">
    <path d="M 26.480103 118.048552 
L 30.850962 117.241025 
L 35.221821 116.418183 
L 39.592681 115.580576 
L 43.96354 114.74024 
L 48.334399 113.916621 
L 52.705258 113.094933 
L 57.076117 112.264498 
L 61.446976 111.433204 
L 65.817836 110.597693 
L 70.188695 109.755995 
L 74.559554 108.892948 
L 78.930413 108.077877 
L 83.301272 107.254292 
L 87.672131 106.434106 
L 92.042991 105.60238 
" clip-path="url(#p4f05681e9a)" style="fill: none; stroke-dasharray: 5.55,2.4; stroke-dashoffset: 0; stroke: #0000ff; stroke-width: 1.5"/>
   </g>
   <g id="patch_3">
    <path d="M 23.201959 118.858041 
L 23.201959 14.72649 
" style="fill: none; stroke: #000000; stroke-width: 0.8; stroke-linejoin: miter; stroke-linecap: square"/>
   </g>
   <g id="patch_4">
    <path d="M 23.201959 118.858041 
L 95.321135 118.858041 
" style="fill: none; stroke: #000000; stroke-width: 0.8; stroke-linejoin: miter; stroke-linecap: square"/>
   </g>
   <g id="text_13">
    <!-- T=18째C -->
    <g transform="translate(45.545297 8.72649) scale(0.08 -0.08)">
     <defs>
      <path id="ArialMT-54" d="M 1659 0 
L 1659 4041 
L 150 4041 
L 150 4581 
L 3781 4581 
L 3781 4041 
L 2266 4041 
L 2266 0 
L 1659 0 
z
" transform="scale(0.015625)"/>
      <path id="ArialMT-3d" d="M 3381 2694 
L 356 2694 
L 356 3219 
L 3381 3219 
L 3381 2694 
z
M 3381 1303 
L 356 1303 
L 356 1828 
L 3381 1828 
L 3381 1303 
z
" transform="scale(0.015625)"/>
      <path id="ArialMT-38" d="M 1131 2484 
Q 781 2613 612 2850 
Q 444 3088 444 3419 
Q 444 3919 803 4259 
Q 1163 4600 1759 4600 
Q 2359 4600 2725 4251 
Q 3091 3903 3091 3403 
Q 3091 3084 2923 2848 
Q 2756 2613 2416 2484 
Q 2838 2347 3058 2040 
Q 3278 1734 3278 1309 
Q 3278 722 2862 322 
Q 2447 -78 1769 -78 
Q 1091 -78 675 323 
Q 259 725 259 1325 
Q 259 1772 486 2073 
Q 713 2375 1131 2484 
z
M 1019 3438 
Q 1019 3113 1228 2906 
Q 1438 2700 1772 2700 
Q 2097 2700 2305 2904 
Q 2513 3109 2513 3406 
Q 2513 3716 2298 3927 
Q 2084 4138 1766 4138 
Q 1444 4138 1231 3931 
Q 1019 3725 1019 3438 
z
M 838 1322 
Q 838 1081 952 856 
Q 1066 631 1291 507 
Q 1516 384 1775 384 
Q 2178 384 2440 643 
Q 2703 903 2703 1303 
Q 2703 1709 2433 1975 
Q 2163 2241 1756 2241 
Q 1359 2241 1098 1978 
Q 838 1716 838 1322 
z
" transform="scale(0.015625)"/>
      <path id="ArialMT-b0" d="M 400 3794 
Q 400 4153 654 4406 
Q 909 4659 1266 4659 
Q 1628 4659 1881 4406 
Q 2134 4153 2134 3794 
Q 2134 3434 1879 3179 
Q 1625 2925 1266 2925 
Q 909 2925 654 3178 
Q 400 3431 400 3794 
z
M 741 3794 
Q 741 3575 895 3420 
Q 1050 3266 1269 3266 
Q 1484 3266 1639 3420 
Q 1794 3575 1794 3794 
Q 1794 4013 1639 4167 
Q 1484 4322 1269 4322 
Q 1050 4322 895 4167 
Q 741 4013 741 3794 
z
" transform="scale(0.015625)"/>
      <path id="ArialMT-43" d="M 3763 1606 
L 4369 1453 
Q 4178 706 3683 314 
Q 3188 -78 2472 -78 
Q 1731 -78 1267 223 
Q 803 525 561 1097 
Q 319 1669 319 2325 
Q 319 3041 592 3573 
Q 866 4106 1370 4382 
Q 1875 4659 2481 4659 
Q 3169 4659 3637 4309 
Q 4106 3959 4291 3325 
L 3694 3184 
Q 3534 3684 3231 3912 
Q 2928 4141 2469 4141 
Q 1941 4141 1586 3887 
Q 1231 3634 1087 3207 
Q 944 2781 944 2328 
Q 944 1744 1114 1308 
Q 1284 872 1643 656 
Q 2003 441 2422 441 
Q 2931 441 3284 734 
Q 3638 1028 3763 1606 
z
" transform="scale(0.015625)"/>
     </defs>
     <use xlink:href="#ArialMT-54"/>
     <use xlink:href="#ArialMT-3d" x="61.083984"/>
     <use xlink:href="#ArialMT-31" x="119.482422"/>
     <use xlink:href="#ArialMT-38" x="175.097656"/>
     <use xlink:href="#ArialMT-b0" x="230.712891"/>
     <use xlink:href="#ArialMT-43" x="270.703125"/>
    </g>
   </g>
  </g>
  <g id="axes_2">
   <g id="patch_5">
    <path d="M 104.821615 118.858041 
L 176.940791 118.858041 
L 176.940791 14.72649 
L 104.821615 14.72649 
L 104.821615 118.858041 
z
" style="fill: none"/>
   </g>
   <g id="PolyCollection_2">
    <defs>
     <path id="md2bfffce30" d="M 108.099759 -27.43698 
L 108.099759 -26.387882 
L 112.470619 -28.309188 
L 116.841478 -30.610441 
L 121.212337 -33.124531 
L 125.583196 -35.757555 
L 129.954055 -38.458506 
L 134.324914 -41.198497 
L 138.695774 -43.95862 
L 143.066633 -46.729708 
L 147.437492 -49.509244 
L 151.808351 -52.293313 
L 156.17921 -55.080446 
L 160.550069 -57.868545 
L 164.920929 -60.654245 
L 169.291788 -63.437954 
L 173.662647 -66.220435 
L 173.662647 -105.019175 
L 173.662647 -105.019175 
L 169.291788 -99.487634 
L 164.920929 -93.95865 
L 160.550069 -88.434656 
L 156.17921 -82.918175 
L 151.808351 -77.414656 
L 147.437492 -71.926831 
L 143.066633 -66.457847 
L 138.695774 -61.01797 
L 134.324914 -55.626589 
L 129.954055 -50.304522 
L 125.583196 -45.09314 
L 121.212337 -40.056393 
L 116.841478 -35.300603 
L 112.470619 -30.997252 
L 108.099759 -27.43698 
z
"/>
    </defs>
    <g clip-path="url(#p7eeb278c80)">
     <use xlink:href="#md2bfffce30" x="0" y="144" style="fill: #ff7fff"/>
    </g>
   </g>
   <g id="matplotlib.axis_3">
    <g id="xtick_5">
     <g id="line2d_13">
      <g>
       <use xlink:href="#m65ac21001b" x="108.099759" y="118.858041" style="stroke: #000000; stroke-width: 0.8"/>
      </g>
     </g>
     <g id="text_14">
      <!-- $\mathdefault{0}$ -->
      <g transform="translate(106.699759 129.436948) scale(0.05 -0.05)">
       <use xlink:href="#ArialMT-30" transform="translate(0 0.125)"/>
      </g>
     </g>
    </g>
    <g id="xtick_6">
     <g id="line2d_14">
      <g>
       <use xlink:href="#m65ac21001b" x="129.954055" y="118.858041" style="stroke: #000000; stroke-width: 0.8"/>
      </g>
     </g>
     <g id="text_15">
      <!-- $\mathdefault{5}$ -->
      <g transform="translate(128.554055 129.436948) scale(0.05 -0.05)">
       <use xlink:href="#ArialMT-35" transform="translate(0 0.390625)"/>
      </g>
     </g>
    </g>
    <g id="xtick_7">
     <g id="line2d_15">
      <g>
       <use xlink:href="#m65ac21001b" x="151.808351" y="118.858041" style="stroke: #000000; stroke-width: 0.8"/>
      </g>
     </g>
     <g id="text_16">
      <!-- $\mathdefault{10}$ -->
      <g transform="translate(149.008351 129.436948) scale(0.05 -0.05)">
       <use xlink:href="#ArialMT-31" transform="translate(0 0.125)"/>
       <use xlink:href="#ArialMT-30" transform="translate(55.615234 0.125)"/>
      </g>
     </g>
    </g>
    <g id="xtick_8">
     <g id="line2d_16">
      <g>
       <use xlink:href="#m65ac21001b" x="173.662647" y="118.858041" style="stroke: #000000; stroke-width: 0.8"/>
      </g>
     </g>
     <g id="text_17">
      <!-- $\mathdefault{15}$ -->
      <g transform="translate(170.862647 129.436948) scale(0.05 -0.05)">
       <use xlink:href="#ArialMT-31" transform="translate(0 0.125)"/>
       <use xlink:href="#ArialMT-35" transform="translate(55.615234 0.125)"/>
      </g>
     </g>
    </g>
   </g>
   <g id="matplotlib.axis_4">
    <g id="ytick_6">
     <g id="line2d_17">
      <g>
       <use xlink:href="#m7e6683681e" x="104.821615" y="118.858041" style="stroke: #000000; stroke-width: 0.8"/>
      </g>
     </g>
    </g>
    <g id="ytick_7">
     <g id="line2d_18">
      <g>
       <use xlink:href="#m7e6683681e" x="104.821615" y="92.82889" style="stroke: #000000; stroke-width: 0.8"/>
      </g>
     </g>
    </g>
    <g id="ytick_8">
     <g id="line2d_19">
      <g>
       <use xlink:href="#m7e6683681e" x="104.821615" y="66.799739" style="stroke: #000000; stroke-width: 0.8"/>
      </g>
     </g>
    </g>
    <g id="ytick_9">
     <g id="line2d_20">
      <g>
       <use xlink:href="#m7e6683681e" x="104.821615" y="40.770588" style="stroke: #000000; stroke-width: 0.8"/>
      </g>
     </g>
    </g>
    <g id="ytick_10">
     <g id="line2d_21">
      <g>
       <use xlink:href="#m7e6683681e" x="104.821615" y="14.741437" style="stroke: #000000; stroke-width: 0.8"/>
      </g>
     </g>
    </g>
   </g>
   <g id="line2d_22">
    <path d="M 108.099759 117.087569 
L 112.470619 114.34678 
L 116.841478 111.044478 
L 121.212337 107.409538 
L 125.583196 103.574652 
L 129.954055 99.618486 
L 134.324914 95.587457 
L 138.695774 91.511705 
L 143.066633 87.406222 
L 147.437492 83.281962 
L 151.808351 79.146016 
L 156.17921 75.000689 
L 160.550069 70.848399 
L 164.920929 66.693553 
L 169.291788 62.537206 
L 173.662647 58.380195 
" clip-path="url(#p7eeb278c80)" style="fill: none; stroke: #ff00ff; stroke-width: 1.5; stroke-linecap: square"/>
   </g>
   <g id="line2d_23">
    <path d="M 108.099759 117.345608 
L 112.470619 115.273483 
L 116.841478 112.830164 
L 121.212337 110.111422 
L 125.583196 107.172313 
L 129.954055 104.038274 
L 134.324914 100.739387 
L 138.695774 97.266284 
L 143.066633 93.634172 
L 147.437492 89.872145 
L 151.808351 85.986434 
L 156.17921 82.009719 
L 160.550069 77.907526 
L 164.920929 73.715387 
L 169.291788 69.435771 
L 173.662647 65.030903 
" clip-path="url(#p7eeb278c80)" style="fill: none; stroke: #808080; stroke-width: 1.5; stroke-linecap: square"/>
   </g>
   <g id="line2d_24">
    <path d="M 108.099759 117.353225 
L 112.470619 115.842819 
L 116.841478 114.333149 
L 121.212337 112.806095 
L 125.583196 111.274992 
L 129.954055 109.746747 
L 134.324914 108.218136 
L 138.695774 106.681518 
L 143.066633 105.154039 
L 147.437492 103.606936 
L 151.808351 102.048626 
L 156.17921 100.489892 
L 160.550069 98.905017 
L 164.920929 97.319454 
L 169.291788 95.727912 
L 173.662647 94.132476 
" clip-path="url(#p7eeb278c80)" style="fill: none; stroke-dasharray: 5.55,2.4; stroke-dashoffset: 0; stroke: #0000ff; stroke-width: 1.5"/>
   </g>
   <g id="patch_6">
    <path d="M 104.821615 118.858041 
L 104.821615 14.72649 
" style="fill: none; stroke: #000000; stroke-width: 0.8; stroke-linejoin: miter; stroke-linecap: square"/>
   </g>
   <g id="patch_7">
    <path d="M 104.821615 118.858041 
L 176.940791 118.858041 
" style="fill: none; stroke: #000000; stroke-width: 0.8; stroke-linejoin: miter; stroke-linecap: square"/>
   </g>
   <g id="text_18">
    <!-- T=22째C -->
    <g transform="translate(127.164953 8.72649) scale(0.08 -0.08)">
     <use xlink:href="#ArialMT-54"/>
     <use xlink:href="#ArialMT-3d" x="61.083984"/>
     <use xlink:href="#ArialMT-32" x="119.482422"/>
     <use xlink:href="#ArialMT-32" x="175.097656"/>
     <use xlink:href="#ArialMT-b0" x="230.712891"/>
     <use xlink:href="#ArialMT-43" x="270.703125"/>
    </g>
   </g>
  </g>
  <g id="axes_3">
   <g id="patch_8">
    <path d="M 186.441271 118.858041 
L 258.560447 118.858041 
L 258.560447 14.72649 
L 186.441271 14.72649 
L 186.441271 118.858041 
z
" style="fill: none"/>
   </g>
   <g id="PolyCollection_3">
    <defs>
     <path id="m049da374d5" d="M 189.719416 -28.244561 
L 189.719416 -26.124699 
L 194.090275 -27.692959 
L 198.461134 -29.476679 
L 202.831993 -31.319777 
L 207.202852 -33.165683 
L 211.573711 -34.994736 
L 215.944571 -36.805512 
L 220.31543 -38.600044 
L 224.686289 -40.382602 
L 229.057148 -42.156816 
L 233.428007 -43.92508 
L 237.798866 -45.688308 
L 242.169726 -47.447594 
L 246.540585 -49.202184 
L 250.911444 -50.954328 
L 255.282303 -52.70319 
L 255.282303 -133.084183 
L 255.282303 -133.084183 
L 250.911444 -125.702029 
L 246.540585 -118.320826 
L 242.169726 -110.943391 
L 237.798866 -103.574826 
L 233.428007 -96.218521 
L 229.057148 -88.87459 
L 224.686289 -81.548575 
L 220.31543 -74.24938 
L 215.944571 -66.993038 
L 211.573711 -59.809749 
L 207.202852 -52.743301 
L 202.831993 -45.866962 
L 198.461134 -39.304781 
L 194.090275 -33.283279 
L 189.719416 -28.244561 
z
"/>
    </defs>
    <g clip-path="url(#p0e8d98f3ec)">
     <use xlink:href="#m049da374d5" x="0" y="144" style="fill: #ff7fff"/>
    </g>
   </g>
   <g id="PolyCollection_4">
    <defs>
     <path id="m1b3ca5039d" d="M 189.719416 -27.676875 
L 189.719416 -26.869427 
L 194.090275 -28.782178 
L 198.461134 -30.655661 
L 202.831993 -32.507475 
L 207.202852 -34.334076 
L 211.573711 -36.153482 
L 215.944571 -37.988679 
L 220.31543 -39.818753 
L 224.686289 -41.702067 
L 229.057148 -43.535881 
L 233.428007 -45.393683 
L 237.798866 -47.3219 
L 242.169726 -49.297572 
L 246.540585 -51.327065 
L 250.911444 -53.377858 
L 255.282303 -55.398892 
L 255.282303 -70.343103 
L 255.282303 -70.343103 
L 250.911444 -67.26944 
L 246.540585 -64.205184 
L 242.169726 -61.237433 
L 237.798866 -58.362375 
L 233.428007 -55.57917 
L 229.057148 -52.822347 
L 224.686289 -50.075009 
L 220.31543 -47.329057 
L 215.944571 -44.544887 
L 211.573711 -41.785237 
L 207.202852 -39.004451 
L 202.831993 -36.217592 
L 198.461134 -33.408879 
L 194.090275 -30.546208 
L 189.719416 -27.676875 
z
"/>
    </defs>
    <g clip-path="url(#p0e8d98f3ec)">
     <use xlink:href="#m1b3ca5039d" x="0" y="144" style="fill: #7fbf7f"/>
    </g>
   </g>
   <g id="matplotlib.axis_5">
    <g id="xtick_9">
     <g id="line2d_25">
      <g>
       <use xlink:href="#m65ac21001b" x="189.719416" y="118.858041" style="stroke: #000000; stroke-width: 0.8"/>
      </g>
     </g>
     <g id="text_19">
      <!-- $\mathdefault{0}$ -->
      <g transform="translate(188.319416 129.436948) scale(0.05 -0.05)">
       <use xlink:href="#ArialMT-30" transform="translate(0 0.125)"/>
      </g>
     </g>
    </g>
    <g id="xtick_10">
     <g id="line2d_26">
      <g>
       <use xlink:href="#m65ac21001b" x="211.573711" y="118.858041" style="stroke: #000000; stroke-width: 0.8"/>
      </g>
     </g>
     <g id="text_20">
      <!-- $\mathdefault{5}$ -->
      <g transform="translate(210.173711 129.436948) scale(0.05 -0.05)">
       <use xlink:href="#ArialMT-35" transform="translate(0 0.390625)"/>
      </g>
     </g>
    </g>
    <g id="xtick_11">
     <g id="line2d_27">
      <g>
       <use xlink:href="#m65ac21001b" x="233.428007" y="118.858041" style="stroke: #000000; stroke-width: 0.8"/>
      </g>
     </g>
     <g id="text_21">
      <!-- $\mathdefault{10}$ -->
      <g transform="translate(230.628007 129.436948) scale(0.05 -0.05)">
       <use xlink:href="#ArialMT-31" transform="translate(0 0.125)"/>
       <use xlink:href="#ArialMT-30" transform="translate(55.615234 0.125)"/>
      </g>
     </g>
    </g>
    <g id="xtick_12">
     <g id="line2d_28">
      <g>
       <use xlink:href="#m65ac21001b" x="255.282303" y="118.858041" style="stroke: #000000; stroke-width: 0.8"/>
      </g>
     </g>
     <g id="text_22">
      <!-- $\mathdefault{15}$ -->
      <g transform="translate(252.482303 129.436948) scale(0.05 -0.05)">
       <use xlink:href="#ArialMT-31" transform="translate(0 0.125)"/>
       <use xlink:href="#ArialMT-35" transform="translate(55.615234 0.125)"/>
      </g>
     </g>
    </g>
   </g>
   <g id="matplotlib.axis_6">
    <g id="ytick_11">
     <g id="line2d_29">
      <g>
       <use xlink:href="#m7e6683681e" x="186.441271" y="118.858041" style="stroke: #000000; stroke-width: 0.8"/>
      </g>
     </g>
    </g>
    <g id="ytick_12">
     <g id="line2d_30">
      <g>
       <use xlink:href="#m7e6683681e" x="186.441271" y="92.82889" style="stroke: #000000; stroke-width: 0.8"/>
      </g>
     </g>
    </g>
    <g id="ytick_13">
     <g id="line2d_31">
      <g>
       <use xlink:href="#m7e6683681e" x="186.441271" y="66.799739" style="stroke: #000000; stroke-width: 0.8"/>
      </g>
     </g>
    </g>
    <g id="ytick_14">
     <g id="line2d_32">
      <g>
       <use xlink:href="#m7e6683681e" x="186.441271" y="40.770588" style="stroke: #000000; stroke-width: 0.8"/>
      </g>
     </g>
    </g>
    <g id="ytick_15">
     <g id="line2d_33">
      <g>
       <use xlink:href="#m7e6683681e" x="186.441271" y="14.741437" style="stroke: #000000; stroke-width: 0.8"/>
      </g>
     </g>
    </g>
   </g>
   <g id="line2d_34">
    <path d="M 189.719416 116.81537 
L 194.090275 113.511881 
L 198.461134 109.60927 
L 202.831993 105.406631 
L 207.202852 101.045508 
L 211.573711 96.597757 
L 215.944571 92.100725 
L 220.31543 87.575288 
L 224.686289 83.034412 
L 229.057148 78.484297 
L 233.428007 73.9282 
L 237.798866 69.368433 
L 242.169726 64.804507 
L 246.540585 60.238495 
L 250.911444 55.671822 
L 255.282303 51.106314 
" clip-path="url(#p0e8d98f3ec)" style="fill: none; stroke: #ff00ff; stroke-width: 1.5; stroke-linecap: square"/>
   </g>
   <g id="line2d_35">
    <path d="M 189.719416 116.726849 
L 194.090275 114.335807 
L 198.461134 111.96773 
L 202.831993 109.637466 
L 207.202852 107.330737 
L 211.573711 105.03064 
L 215.944571 102.733217 
L 220.31543 100.426095 
L 224.686289 98.111462 
L 229.057148 95.820886 
L 233.428007 93.513573 
L 237.798866 91.157862 
L 242.169726 88.732497 
L 246.540585 86.233876 
L 250.911444 83.676351 
L 255.282303 81.129002 
" clip-path="url(#p0e8d98f3ec)" style="fill: none; stroke: #008000; stroke-width: 1.5; stroke-linecap: square"/>
   </g>
   <g id="line2d_36">
    <path d="M 189.719416 116.433639 
L 194.090275 113.304734 
L 198.461134 109.907278 
L 202.831993 106.346339 
L 207.202852 102.639529 
L 211.573711 98.788933 
L 215.944571 94.818059 
L 220.31543 90.763783 
L 224.686289 86.626319 
L 229.057148 82.408558 
L 233.428007 78.095576 
L 237.798866 73.659269 
L 242.169726 69.136211 
L 246.540585 64.502658 
L 250.911444 59.749762 
L 255.282303 54.899176 
" clip-path="url(#p0e8d98f3ec)" style="fill: none; stroke: #808080; stroke-width: 1.5; stroke-linecap: square"/>
   </g>
   <g id="line2d_37">
    <path d="M 189.719416 116.399932 
L 194.090275 113.968528 
L 198.461134 111.527963 
L 202.831993 109.072288 
L 207.202852 106.590559 
L 211.573711 104.095709 
L 215.944571 101.61318 
L 220.31543 99.126408 
L 224.686289 96.614462 
L 229.057148 94.07936 
L 233.428007 91.544881 
L 237.798866 89.022513 
L 242.169726 86.501285 
L 246.540585 83.949566 
L 250.911444 81.377959 
L 255.282303 78.795355 
" clip-path="url(#p0e8d98f3ec)" style="fill: none; stroke-dasharray: 5.55,2.4; stroke-dashoffset: 0; stroke: #0000ff; stroke-width: 1.5"/>
   </g>
   <g id="patch_9">
    <path d="M 186.441271 118.858041 
L 186.441271 14.72649 
" style="fill: none; stroke: #000000; stroke-width: 0.8; stroke-linejoin: miter; stroke-linecap: square"/>
   </g>
   <g id="patch_10">
    <path d="M 186.441271 118.858041 
L 258.560447 118.858041 
" style="fill: none; stroke: #000000; stroke-width: 0.8; stroke-linejoin: miter; stroke-linecap: square"/>
   </g>
   <g id="text_23">
    <!-- T=26째C -->
    <g transform="translate(208.784609 8.72649) scale(0.08 -0.08)">
     <defs>
      <path id="ArialMT-36" d="M 3184 3459 
L 2625 3416 
Q 2550 3747 2413 3897 
Q 2184 4138 1850 4138 
Q 1581 4138 1378 3988 
Q 1113 3794 959 3422 
Q 806 3050 800 2363 
Q 1003 2672 1297 2822 
Q 1591 2972 1913 2972 
Q 2475 2972 2870 2558 
Q 3266 2144 3266 1488 
Q 3266 1056 3080 686 
Q 2894 316 2569 119 
Q 2244 -78 1831 -78 
Q 1128 -78 684 439 
Q 241 956 241 2144 
Q 241 3472 731 4075 
Q 1159 4600 1884 4600 
Q 2425 4600 2770 4297 
Q 3116 3994 3184 3459 
z
M 888 1484 
Q 888 1194 1011 928 
Q 1134 663 1356 523 
Q 1578 384 1822 384 
Q 2178 384 2434 671 
Q 2691 959 2691 1453 
Q 2691 1928 2437 2201 
Q 2184 2475 1800 2475 
Q 1419 2475 1153 2201 
Q 888 1928 888 1484 
z
" transform="scale(0.015625)"/>
     </defs>
     <use xlink:href="#ArialMT-54"/>
     <use xlink:href="#ArialMT-3d" x="61.083984"/>
     <use xlink:href="#ArialMT-32" x="119.482422"/>
     <use xlink:href="#ArialMT-36" x="175.097656"/>
     <use xlink:href="#ArialMT-b0" x="230.712891"/>
     <use xlink:href="#ArialMT-43" x="270.703125"/>
    </g>
   </g>
  </g>
  <g id="axes_4">
   <g id="patch_11">
    <path d="M 268.060927 118.858041 
L 340.180104 118.858041 
L 340.180104 14.72649 
L 268.060927 14.72649 
L 268.060927 118.858041 
z
" style="fill: none"/>
   </g>
   <g id="PolyCollection_5">
    <defs>
     <path id="mf57bd38da2" d="M 271.339072 -28.287898 
L 271.339072 -27.021388 
L 275.709931 -29.759663 
L 280.08079 -32.68203 
L 284.451649 -35.601475 
L 288.822509 -38.472242 
L 293.193368 -41.292913 
L 297.564227 -44.076124 
L 301.935086 -46.836725 
L 306.305945 -49.58077 
L 310.676804 -52.311209 
L 315.047664 -55.032047 
L 319.418523 -57.74807 
L 323.789382 -60.462357 
L 328.160241 -63.175276 
L 332.5311 -65.885396 
L 336.901959 -68.596271 
L 336.901959 -141.706505 
L 336.901959 -141.706505 
L 332.5311 -133.70687 
L 328.160241 -125.705093 
L 323.789382 -117.701514 
L 319.418523 -109.700545 
L 315.047664 -101.705055 
L 310.676804 -93.723107 
L 306.305945 -85.764462 
L 301.935086 -77.840869 
L 297.564227 -69.969937 
L 293.193368 -62.181235 
L 288.822509 -54.526754 
L 284.451649 -47.086692 
L 280.08079 -40.012465 
L 275.709931 -33.576332 
L 271.339072 -28.287898 
z
"/>
    </defs>
    <g clip-path="url(#pe96db90136)">
     <use xlink:href="#mf57bd38da2" x="0" y="144" style="fill: #ff7fff"/>
    </g>
   </g>
   <g id="matplotlib.axis_7">
    <g id="xtick_13">
     <g id="line2d_38">
      <g>
       <use xlink:href="#m65ac21001b" x="271.339072" y="118.858041" style="stroke: #000000; stroke-width: 0.8"/>
      </g>
     </g>
     <g id="text_24">
      <!-- $\mathdefault{0}$ -->
      <g transform="translate(269.939072 129.436948) scale(0.05 -0.05)">
       <use xlink:href="#ArialMT-30" transform="translate(0 0.125)"/>
      </g>
     </g>
    </g>
    <g id="xtick_14">
     <g id="line2d_39">
      <g>
       <use xlink:href="#m65ac21001b" x="293.193368" y="118.858041" style="stroke: #000000; stroke-width: 0.8"/>
      </g>
     </g>
     <g id="text_25">
      <!-- $\mathdefault{5}$ -->
      <g transform="translate(291.793368 129.436948) scale(0.05 -0.05)">
       <use xlink:href="#ArialMT-35" transform="translate(0 0.390625)"/>
      </g>
     </g>
    </g>
    <g id="xtick_15">
     <g id="line2d_40">
      <g>
       <use xlink:href="#m65ac21001b" x="315.047664" y="118.858041" style="stroke: #000000; stroke-width: 0.8"/>
      </g>
     </g>
     <g id="text_26">
      <!-- $\mathdefault{10}$ -->
      <g transform="translate(312.247664 129.436948) scale(0.05 -0.05)">
       <use xlink:href="#ArialMT-31" transform="translate(0 0.125)"/>
       <use xlink:href="#ArialMT-30" transform="translate(55.615234 0.125)"/>
      </g>
     </g>
    </g>
    <g id="xtick_16">
     <g id="line2d_41">
      <g>
       <use xlink:href="#m65ac21001b" x="336.901959" y="118.858041" style="stroke: #000000; stroke-width: 0.8"/>
      </g>
     </g>
     <g id="text_27">
      <!-- $\mathdefault{15}$ -->
      <g transform="translate(334.101959 129.436948) scale(0.05 -0.05)">
       <use xlink:href="#ArialMT-31" transform="translate(0 0.125)"/>
       <use xlink:href="#ArialMT-35" transform="translate(55.615234 0.125)"/>
      </g>
     </g>
    </g>
   </g>
   <g id="matplotlib.axis_8">
    <g id="ytick_16">
     <g id="line2d_42">
      <g>
       <use xlink:href="#m7e6683681e" x="268.060927" y="118.858041" style="stroke: #000000; stroke-width: 0.8"/>
      </g>
     </g>
    </g>
    <g id="ytick_17">
     <g id="line2d_43">
      <g>
       <use xlink:href="#m7e6683681e" x="268.060927" y="92.82889" style="stroke: #000000; stroke-width: 0.8"/>
      </g>
     </g>
    </g>
    <g id="ytick_18">
     <g id="line2d_44">
      <g>
       <use xlink:href="#m7e6683681e" x="268.060927" y="66.799739" style="stroke: #000000; stroke-width: 0.8"/>
      </g>
     </g>
    </g>
    <g id="ytick_19">
     <g id="line2d_45">
      <g>
       <use xlink:href="#m7e6683681e" x="268.060927" y="40.770588" style="stroke: #000000; stroke-width: 0.8"/>
      </g>
     </g>
    </g>
    <g id="ytick_20">
     <g id="line2d_46">
      <g>
       <use xlink:href="#m7e6683681e" x="268.060927" y="14.741437" style="stroke: #000000; stroke-width: 0.8"/>
      </g>
     </g>
    </g>
   </g>
   <g id="line2d_47">
    <path d="M 271.339072 116.345357 
L 275.709931 112.332003 
L 280.08079 107.652752 
L 284.451649 102.655916 
L 288.822509 97.500502 
L 293.193368 92.262926 
L 297.564227 86.976969 
L 301.935086 81.661203 
L 306.305945 76.327384 
L 310.676804 70.982842 
L 315.047664 65.631449 
L 319.418523 60.275693 
L 323.789382 54.918064 
L 328.160241 49.559816 
L 332.5311 44.203867 
L 336.901959 38.848612 
" clip-path="url(#pe96db90136)" style="fill: none; stroke: #ff00ff; stroke-width: 1.5; stroke-linecap: square"/>
   </g>
   <g id="line2d_48">
    <path d="M 271.339072 115.457911 
L 275.709931 111.244806 
L 280.08079 106.686166 
L 284.451649 101.912044 
L 288.822509 96.956183 
L 293.193368 91.835628 
L 297.564227 86.535369 
L 301.935086 81.050599 
L 306.305945 75.447946 
L 310.676804 69.715115 
L 315.047664 63.972617 
L 319.418523 58.099529 
L 323.789382 52.127162 
L 328.160241 46.118853 
L 332.5311 40.015252 
L 336.901959 33.811494 
" clip-path="url(#pe96db90136)" style="fill: none; stroke: #808080; stroke-width: 1.5; stroke-linecap: square"/>
   </g>
   <g id="line2d_49">
    <path d="M 271.339072 115.455521 
L 275.709931 112.042594 
L 280.08079 108.612653 
L 284.451649 105.199935 
L 288.822509 101.786028 
L 293.193368 98.372606 
L 297.564227 94.95484 
L 301.935086 91.550942 
L 306.305945 88.132084 
L 310.676804 84.712854 
L 315.047664 81.309263 
L 319.418523 77.929275 
L 323.789382 74.528866 
L 328.160241 71.137417 
L 332.5311 67.768747 
L 336.901959 64.384009 
" clip-path="url(#pe96db90136)" style="fill: none; stroke-dasharray: 5.55,2.4; stroke-dashoffset: 0; stroke: #0000ff; stroke-width: 1.5"/>
   </g>
   <g id="patch_12">
    <path d="M 268.060927 118.858041 
L 268.060927 14.72649 
" style="fill: none; stroke: #000000; stroke-width: 0.8; stroke-linejoin: miter; stroke-linecap: square"/>
   </g>
   <g id="patch_13">
    <path d="M 268.060927 118.858041 
L 340.180104 118.858041 
" style="fill: none; stroke: #000000; stroke-width: 0.8; stroke-linejoin: miter; stroke-linecap: square"/>
   </g>
   <g id="text_28">
    <!-- T=30째C -->
    <g transform="translate(290.404266 8.72649) scale(0.08 -0.08)">
     <use xlink:href="#ArialMT-54"/>
     <use xlink:href="#ArialMT-3d" x="61.083984"/>
     <use xlink:href="#ArialMT-33" x="119.482422"/>
     <use xlink:href="#ArialMT-30" x="175.097656"/>
     <use xlink:href="#ArialMT-b0" x="230.712891"/>
     <use xlink:href="#ArialMT-43" x="270.703125"/>
    </g>
   </g>
  </g>
  <g id="axes_5">
   <g id="patch_14">
    <path d="M 349.680584 118.858041 
L 421.79976 118.858041 
L 421.79976 14.72649 
L 349.680584 14.72649 
L 349.680584 118.858041 
z
" style="fill: none"/>
   </g>
   <g id="PolyCollection_6">
    <defs>
     <path id="mf3eba5d71c" d="M 352.958728 -29.700508 
L 352.958728 -27.337571 
L 357.329587 -30.703738 
L 361.700446 -34.502114 
L 366.071306 -38.47593 
L 370.442165 -42.519683 
L 374.813024 -46.600938 
L 379.183883 -50.690596 
L 383.554742 -54.774753 
L 387.925601 -58.85768 
L 392.296461 -62.936457 
L 396.66732 -67.010843 
L 401.038179 -71.085921 
L 405.409038 -75.166677 
L 409.779897 -79.250401 
L 414.150756 -83.337587 
L 418.521616 -87.42954 
L 418.521616 -147.2506 
L 418.521616 -147.2506 
L 414.150756 -139.250945 
L 409.779897 -131.258414 
L 405.409038 -123.264805 
L 401.038179 -115.268508 
L 396.66732 -107.265066 
L 392.296461 -99.258813 
L 387.925601 -91.244782 
L 383.554742 -83.233562 
L 379.183883 -75.23402 
L 374.813024 -67.269522 
L 370.442165 -59.336786 
L 366.071306 -51.470078 
L 361.700446 -43.744776 
L 357.329587 -36.340866 
L 352.958728 -29.700508 
z
"/>
    </defs>
    <g clip-path="url(#pa32b6a221b)">
     <use xlink:href="#mf3eba5d71c" x="0" y="144" style="fill: #ff7fff"/>
    </g>
   </g>
   <g id="matplotlib.axis_9">
    <g id="xtick_17">
     <g id="line2d_50">
      <g>
       <use xlink:href="#m65ac21001b" x="352.958728" y="118.858041" style="stroke: #000000; stroke-width: 0.8"/>
      </g>
     </g>
     <g id="text_29">
      <!-- $\mathdefault{0}$ -->
      <g transform="translate(351.558728 129.436948) scale(0.05 -0.05)">
       <use xlink:href="#ArialMT-30" transform="translate(0 0.125)"/>
      </g>
     </g>
    </g>
    <g id="xtick_18">
     <g id="line2d_51">
      <g>
       <use xlink:href="#m65ac21001b" x="374.813024" y="118.858041" style="stroke: #000000; stroke-width: 0.8"/>
      </g>
     </g>
     <g id="text_30">
      <!-- $\mathdefault{5}$ -->
      <g transform="translate(373.413024 129.436948) scale(0.05 -0.05)">
       <use xlink:href="#ArialMT-35" transform="translate(0 0.390625)"/>
      </g>
     </g>
    </g>
    <g id="xtick_19">
     <g id="line2d_52">
      <g>
       <use xlink:href="#m65ac21001b" x="396.66732" y="118.858041" style="stroke: #000000; stroke-width: 0.8"/>
      </g>
     </g>
     <g id="text_31">
      <!-- $\mathdefault{10}$ -->
      <g transform="translate(393.86732 129.436948) scale(0.05 -0.05)">
       <use xlink:href="#ArialMT-31" transform="translate(0 0.125)"/>
       <use xlink:href="#ArialMT-30" transform="translate(55.615234 0.125)"/>
      </g>
     </g>
    </g>
    <g id="xtick_20">
     <g id="line2d_53">
      <g>
       <use xlink:href="#m65ac21001b" x="418.521616" y="118.858041" style="stroke: #000000; stroke-width: 0.8"/>
      </g>
     </g>
     <g id="text_32">
      <!-- $\mathdefault{15}$ -->
      <g transform="translate(415.721616 129.436948) scale(0.05 -0.05)">
       <use xlink:href="#ArialMT-31" transform="translate(0 0.125)"/>
       <use xlink:href="#ArialMT-35" transform="translate(55.615234 0.125)"/>
      </g>
     </g>
    </g>
   </g>
   <g id="matplotlib.axis_10">
    <g id="ytick_21">
     <g id="line2d_54">
      <g>
       <use xlink:href="#m7e6683681e" x="349.680584" y="118.858041" style="stroke: #000000; stroke-width: 0.8"/>
      </g>
     </g>
    </g>
    <g id="ytick_22">
     <g id="line2d_55">
      <g>
       <use xlink:href="#m7e6683681e" x="349.680584" y="92.82889" style="stroke: #000000; stroke-width: 0.8"/>
      </g>
     </g>
    </g>
    <g id="ytick_23">
     <g id="line2d_56">
      <g>
       <use xlink:href="#m7e6683681e" x="349.680584" y="66.799739" style="stroke: #000000; stroke-width: 0.8"/>
      </g>
     </g>
    </g>
    <g id="ytick_24">
     <g id="line2d_57">
      <g>
       <use xlink:href="#m7e6683681e" x="349.680584" y="40.770588" style="stroke: #000000; stroke-width: 0.8"/>
      </g>
     </g>
    </g>
    <g id="ytick_25">
     <g id="line2d_58">
      <g>
       <use xlink:href="#m7e6683681e" x="349.680584" y="14.741437" style="stroke: #000000; stroke-width: 0.8"/>
      </g>
     </g>
    </g>
   </g>
   <g id="line2d_59">
    <path d="M 352.958728 115.480961 
L 357.329587 110.477698 
L 361.700446 104.876555 
L 366.071306 99.026996 
L 370.442165 93.071766 
L 374.813024 87.06477 
L 379.183883 81.037692 
L 383.554742 74.995843 
L 387.925601 68.948769 
L 392.296461 62.902365 
L 396.66732 56.862045 
L 401.038179 50.822786 
L 405.409038 44.784259 
L 409.779897 38.745592 
L 414.150756 32.705734 
L 418.521616 26.65993 
" clip-path="url(#pa32b6a221b)" style="fill: none; stroke: #ff00ff; stroke-width: 1.5; stroke-linecap: square"/>
   </g>
   <g id="line2d_60">
    <path d="M 352.958728 114.23682 
L 357.329587 108.849553 
L 361.700446 103.208313 
L 366.071306 97.32822 
L 370.442165 91.293285 
L 374.813024 85.072419 
L 379.183883 78.744966 
L 383.554742 72.287143 
L 387.925601 65.658172 
L 392.296461 58.858766 
L 396.66732 51.901389 
L 401.038179 44.73381 
L 405.409038 37.444742 
L 409.779897 30.05975 
L 414.150756 22.529532 
L 418.521616 14.72649 
" clip-path="url(#pa32b6a221b)" style="fill: none; stroke: #808080; stroke-width: 1.5; stroke-linecap: square"/>
   </g>
   <g id="line2d_61">
    <path d="M 352.958728 114.251115 
L 357.329587 109.638447 
L 361.700446 104.957123 
L 366.071306 100.253828 
L 370.442165 95.517591 
L 374.813024 90.733407 
L 379.183883 85.924806 
L 383.554742 81.069928 
L 387.925601 76.280802 
L 392.296461 71.545025 
L 396.66732 66.814656 
L 401.038179 62.112945 
L 405.409038 57.453669 
L 409.779897 52.70682 
L 414.150756 47.886492 
L 418.521616 43.072117 
" clip-path="url(#pa32b6a221b)" style="fill: none; stroke-dasharray: 5.55,2.4; stroke-dashoffset: 0; stroke: #0000ff; stroke-width: 1.5"/>
   </g>
   <g id="patch_15">
    <path d="M 349.680584 118.858041 
L 349.680584 14.72649 
" style="fill: none; stroke: #000000; stroke-width: 0.8; stroke-linejoin: miter; stroke-linecap: square"/>
   </g>
   <g id="patch_16">
    <path d="M 349.680584 118.858041 
L 421.79976 118.858041 
" style="fill: none; stroke: #000000; stroke-width: 0.8; stroke-linejoin: miter; stroke-linecap: square"/>
   </g>
   <g id="text_33">
    <!-- T=33째C -->
    <g transform="translate(372.023922 8.72649) scale(0.08 -0.08)">
     <use xlink:href="#ArialMT-54"/>
     <use xlink:href="#ArialMT-3d" x="61.083984"/>
     <use xlink:href="#ArialMT-33" x="119.482422"/>
     <use xlink:href="#ArialMT-33" x="175.097656"/>
     <use xlink:href="#ArialMT-b0" x="230.712891"/>
     <use xlink:href="#ArialMT-43" x="270.703125"/>
    </g>
   </g>
  </g>
 </g>
 <defs>
  <clipPath id="p4f05681e9a">
   <rect x="23.201959" y="14.72649" width="72.119176" height="104.131551"/>
  </clipPath>
  <clipPath id="p7eeb278c80">
   <rect x="104.821615" y="14.72649" width="72.119176" height="104.131551"/>
  </clipPath>
  <clipPath id="p0e8d98f3ec">
   <rect x="186.441271" y="14.72649" width="72.119176" height="104.131551"/>
  </clipPath>
  <clipPath id="pe96db90136">
   <rect x="268.060927" y="14.72649" width="72.119176" height="104.131551"/>
  </clipPath>
  <clipPath id="pa32b6a221b">
   <rect x="349.680584" y="14.72649" width="72.119176" height="104.131551"/>
  </clipPath>
 </defs>
</svg>
