<?xml version="1.0" encoding="utf-8" standalone="no"?>
<!DOCTYPE svg PUBLIC "-//W3C//DTD SVG 1.1//EN"
  "http://www.w3.org/Graphics/SVG/1.1/DTD/svg11.dtd">
<svg xmlns:xlink="http://www.w3.org/1999/xlink" width="424.8pt" height="144pt" viewBox="0 0 424.8 144" xmlns="http://www.w3.org/2000/svg" version="1.1">
 <metadata>
  <rdf:RDF xmlns:dc="http://purl.org/dc/elements/1.1/" xmlns:cc="http://creativecommons.org/ns#" xmlns:rdf="http://www.w3.org/1999/02/22-rdf-syntax-ns#">
   <cc:Work>
    <dc:type rdf:resource="http://purl.org/dc/dcmitype/StillImage"/>
    <dc:date>2024-11-17T19:28:14.100291</dc:date>
    <dc:format>image/svg+xml</dc:format>
    <dc:creator>
     <cc:Agent>
      <dc:title>Matplotlib v3.8.0, https://matplotlib.org/</dc:title>
     </cc:Agent>
    </dc:creator>
   </cc:Work>
  </rdf:RDF>
 </metadata>
 <defs>
  <style type="text/css">*{stroke-linejoin: round; stroke-linecap: butt}</style>
 </defs>
 <g id="figure_1">
  <g id="patch_1">
   <path d="M 0 144 
L 424.8 144 
L 424.8 0 
L 0 0 
L 0 144 
z
" style="fill: none"/>
  </g>
  <g id="axes_1">
   <g id="patch_2">
    <path d="M 26.001959 118.858041 
L 97.561135 118.858041 
L 97.561135 14.72649 
L 26.001959 14.72649 
L 26.001959 118.858041 
z
" style="fill: none"/>
   </g>
   <g id="line2d_1">
    <path d="M 29.254649 116.254752 
L 33.591568 112.058127 
L 37.928488 106.829797 
L 42.265408 100.933122 
L 46.602328 94.597233 
L 50.939247 87.975024 
L 55.276167 81.166976 
L 59.613087 74.244882 
L 63.950007 67.243271 
L 68.286927 60.187512 
L 72.623846 53.099971 
L 76.960766 45.985834 
L 81.297686 38.851377 
L 85.634606 31.704511 
L 89.971525 24.555918 
L 94.308445 17.404853 
" clip-path="url(#pbd5eef7164)" style="fill: none; stroke: #ff00ff; stroke-linecap: square"/>
   </g>
   <g id="line2d_2">
    <path d="M 29.254649 116.254752 
L 33.591568 112.29867 
L 37.928488 107.552167 
L 42.265408 102.327275 
L 46.602328 96.808556 
L 50.939247 91.105263 
L 55.276167 85.285964 
L 59.613087 79.396021 
L 63.950007 73.468493 
L 68.286927 67.517046 
L 72.623846 61.54602 
L 76.960766 55.554592 
L 81.297686 49.549988 
L 85.634606 43.519594 
L 89.971525 37.486975 
L 94.308445 31.457366 
" clip-path="url(#pbd5eef7164)" style="fill: none; stroke: #ff00ff; stroke-linecap: square"/>
   </g>
   <g id="line2d_3">
    <path d="M 29.254649 116.254752 
L 33.591568 112.580263 
L 37.928488 108.429468 
L 42.265408 104.062888 
L 46.602328 99.600523 
L 50.939247 95.093944 
L 55.276167 90.56941 
L 59.613087 86.039 
L 63.950007 81.515982 
L 68.286927 77.001346 
L 72.623846 72.497705 
L 76.960766 67.998402 
L 81.297686 63.495441 
L 85.634606 58.997493 
L 89.971525 54.502847 
L 94.308445 49.998643 
" clip-path="url(#pbd5eef7164)" style="fill: none; stroke: #ff00ff; stroke-linecap: square"/>
   </g>
   <g id="matplotlib.axis_1">
    <g id="xtick_1">
     <g id="line2d_4">
      <defs>
       <path id="m5138dd07ef" d="M 0 0 
L 0 3.5 
" style="stroke: #000000; stroke-width: 0.8"/>
      </defs>
      <g>
       <use xlink:href="#m5138dd07ef" x="29.254649" y="118.858041" style="stroke: #000000; stroke-width: 0.8"/>
      </g>
     </g>
     <g id="text_1">
      <!-- $\mathdefault{0}$ -->
      <g transform="translate(27.854649 129.436948) scale(0.05 -0.05)">
       <defs>
        <path id="ArialMT-30" d="M 266 2259 
Q 266 3072 433 3567 
Q 600 4063 929 4331 
Q 1259 4600 1759 4600 
Q 2128 4600 2406 4451 
Q 2684 4303 2865 4023 
Q 3047 3744 3150 3342 
Q 3253 2941 3253 2259 
Q 3253 1453 3087 958 
Q 2922 463 2592 192 
Q 2263 -78 1759 -78 
Q 1097 -78 719 397 
Q 266 969 266 2259 
z
M 844 2259 
Q 844 1131 1108 757 
Q 1372 384 1759 384 
Q 2147 384 2411 759 
Q 2675 1134 2675 2259 
Q 2675 3391 2411 3762 
Q 2147 4134 1753 4134 
Q 1366 4134 1134 3806 
Q 844 3388 844 2259 
z
" transform="scale(0.015625)"/>
       </defs>
       <use xlink:href="#ArialMT-30" transform="translate(0 0.125)"/>
      </g>
     </g>
    </g>
    <g id="xtick_2">
     <g id="line2d_5">
      <g>
       <use xlink:href="#m5138dd07ef" x="50.939247" y="118.858041" style="stroke: #000000; stroke-width: 0.8"/>
      </g>
     </g>
     <g id="text_2">
      <!-- $\mathdefault{5}$ -->
      <g transform="translate(49.539247 129.436948) scale(0.05 -0.05)">
       <defs>
        <path id="ArialMT-35" d="M 266 1200 
L 856 1250 
Q 922 819 1161 601 
Q 1400 384 1738 384 
Q 2144 384 2425 690 
Q 2706 997 2706 1503 
Q 2706 1984 2436 2262 
Q 2166 2541 1728 2541 
Q 1456 2541 1237 2417 
Q 1019 2294 894 2097 
L 366 2166 
L 809 4519 
L 3088 4519 
L 3088 3981 
L 1259 3981 
L 1013 2750 
Q 1425 3038 1878 3038 
Q 2478 3038 2890 2622 
Q 3303 2206 3303 1553 
Q 3303 931 2941 478 
Q 2500 -78 1738 -78 
Q 1113 -78 717 272 
Q 322 622 266 1200 
z
" transform="scale(0.015625)"/>
       </defs>
       <use xlink:href="#ArialMT-35" transform="translate(0 0.390625)"/>
      </g>
     </g>
    </g>
    <g id="xtick_3">
     <g id="line2d_6">
      <g>
       <use xlink:href="#m5138dd07ef" x="72.623846" y="118.858041" style="stroke: #000000; stroke-width: 0.8"/>
      </g>
     </g>
     <g id="text_3">
      <!-- $\mathdefault{10}$ -->
      <g transform="translate(69.823846 129.436948) scale(0.05 -0.05)">
       <defs>
        <path id="ArialMT-31" d="M 2384 0 
L 1822 0 
L 1822 3584 
Q 1619 3391 1289 3197 
Q 959 3003 697 2906 
L 697 3450 
Q 1169 3672 1522 3987 
Q 1875 4303 2022 4600 
L 2384 4600 
L 2384 0 
z
" transform="scale(0.015625)"/>
       </defs>
       <use xlink:href="#ArialMT-31" transform="translate(0 0.125)"/>
       <use xlink:href="#ArialMT-30" transform="translate(55.615234 0.125)"/>
      </g>
     </g>
    </g>
    <g id="xtick_4">
     <g id="line2d_7">
      <g>
       <use xlink:href="#m5138dd07ef" x="94.308445" y="118.858041" style="stroke: #000000; stroke-width: 0.8"/>
      </g>
     </g>
     <g id="text_4">
      <!-- $\mathdefault{15}$ -->
      <g transform="translate(91.508445 129.436948) scale(0.05 -0.05)">
       <use xlink:href="#ArialMT-31" transform="translate(0 0.125)"/>
       <use xlink:href="#ArialMT-35" transform="translate(55.615234 0.125)"/>
      </g>
     </g>
    </g>
    <g id="text_5">
     <!-- Streak length , q -->
     <g transform="translate(36.295531 139.526479) scale(0.07 -0.07)">
      <defs>
       <path id="ArialMT-53" d="M 288 1472 
L 859 1522 
Q 900 1178 1048 958 
Q 1197 738 1509 602 
Q 1822 466 2213 466 
Q 2559 466 2825 569 
Q 3091 672 3220 851 
Q 3350 1031 3350 1244 
Q 3350 1459 3225 1620 
Q 3100 1781 2813 1891 
Q 2628 1963 1997 2114 
Q 1366 2266 1113 2400 
Q 784 2572 623 2826 
Q 463 3081 463 3397 
Q 463 3744 659 4045 
Q 856 4347 1234 4503 
Q 1613 4659 2075 4659 
Q 2584 4659 2973 4495 
Q 3363 4331 3572 4012 
Q 3781 3694 3797 3291 
L 3216 3247 
Q 3169 3681 2898 3903 
Q 2628 4125 2100 4125 
Q 1550 4125 1298 3923 
Q 1047 3722 1047 3438 
Q 1047 3191 1225 3031 
Q 1400 2872 2139 2705 
Q 2878 2538 3153 2413 
Q 3553 2228 3743 1945 
Q 3934 1663 3934 1294 
Q 3934 928 3725 604 
Q 3516 281 3123 101 
Q 2731 -78 2241 -78 
Q 1619 -78 1198 103 
Q 778 284 539 648 
Q 300 1013 288 1472 
z
" transform="scale(0.015625)"/>
       <path id="ArialMT-74" d="M 1650 503 
L 1731 6 
Q 1494 -44 1306 -44 
Q 1000 -44 831 53 
Q 663 150 594 308 
Q 525 466 525 972 
L 525 2881 
L 113 2881 
L 113 3319 
L 525 3319 
L 525 4141 
L 1084 4478 
L 1084 3319 
L 1650 3319 
L 1650 2881 
L 1084 2881 
L 1084 941 
Q 1084 700 1114 631 
Q 1144 563 1211 522 
Q 1278 481 1403 481 
Q 1497 481 1650 503 
z
" transform="scale(0.015625)"/>
       <path id="ArialMT-72" d="M 416 0 
L 416 3319 
L 922 3319 
L 922 2816 
Q 1116 3169 1280 3281 
Q 1444 3394 1641 3394 
Q 1925 3394 2219 3213 
L 2025 2691 
Q 1819 2813 1613 2813 
Q 1428 2813 1281 2702 
Q 1134 2591 1072 2394 
Q 978 2094 978 1738 
L 978 0 
L 416 0 
z
" transform="scale(0.015625)"/>
       <path id="ArialMT-65" d="M 2694 1069 
L 3275 997 
Q 3138 488 2766 206 
Q 2394 -75 1816 -75 
Q 1088 -75 661 373 
Q 234 822 234 1631 
Q 234 2469 665 2931 
Q 1097 3394 1784 3394 
Q 2450 3394 2872 2941 
Q 3294 2488 3294 1666 
Q 3294 1616 3291 1516 
L 816 1516 
Q 847 969 1125 678 
Q 1403 388 1819 388 
Q 2128 388 2347 550 
Q 2566 713 2694 1069 
z
M 847 1978 
L 2700 1978 
Q 2663 2397 2488 2606 
Q 2219 2931 1791 2931 
Q 1403 2931 1139 2672 
Q 875 2413 847 1978 
z
" transform="scale(0.015625)"/>
       <path id="ArialMT-61" d="M 2588 409 
Q 2275 144 1986 34 
Q 1697 -75 1366 -75 
Q 819 -75 525 192 
Q 231 459 231 875 
Q 231 1119 342 1320 
Q 453 1522 633 1644 
Q 813 1766 1038 1828 
Q 1203 1872 1538 1913 
Q 2219 1994 2541 2106 
Q 2544 2222 2544 2253 
Q 2544 2597 2384 2738 
Q 2169 2928 1744 2928 
Q 1347 2928 1158 2789 
Q 969 2650 878 2297 
L 328 2372 
Q 403 2725 575 2942 
Q 747 3159 1072 3276 
Q 1397 3394 1825 3394 
Q 2250 3394 2515 3294 
Q 2781 3194 2906 3042 
Q 3031 2891 3081 2659 
Q 3109 2516 3109 2141 
L 3109 1391 
Q 3109 606 3145 398 
Q 3181 191 3288 0 
L 2700 0 
Q 2613 175 2588 409 
z
M 2541 1666 
Q 2234 1541 1622 1453 
Q 1275 1403 1131 1340 
Q 988 1278 909 1158 
Q 831 1038 831 891 
Q 831 666 1001 516 
Q 1172 366 1500 366 
Q 1825 366 2078 508 
Q 2331 650 2450 897 
Q 2541 1088 2541 1459 
L 2541 1666 
z
" transform="scale(0.015625)"/>
       <path id="ArialMT-6b" d="M 425 0 
L 425 4581 
L 988 4581 
L 988 1969 
L 2319 3319 
L 3047 3319 
L 1778 2088 
L 3175 0 
L 2481 0 
L 1384 1697 
L 988 1316 
L 988 0 
L 425 0 
z
" transform="scale(0.015625)"/>
       <path id="ArialMT-20" transform="scale(0.015625)"/>
       <path id="ArialMT-6c" d="M 409 0 
L 409 4581 
L 972 4581 
L 972 0 
L 409 0 
z
" transform="scale(0.015625)"/>
       <path id="ArialMT-6e" d="M 422 0 
L 422 3319 
L 928 3319 
L 928 2847 
Q 1294 3394 1984 3394 
Q 2284 3394 2536 3286 
Q 2788 3178 2913 3003 
Q 3038 2828 3088 2588 
Q 3119 2431 3119 2041 
L 3119 0 
L 2556 0 
L 2556 2019 
Q 2556 2363 2490 2533 
Q 2425 2703 2258 2804 
Q 2091 2906 1866 2906 
Q 1506 2906 1245 2678 
Q 984 2450 984 1813 
L 984 0 
L 422 0 
z
" transform="scale(0.015625)"/>
       <path id="ArialMT-67" d="M 319 -275 
L 866 -356 
Q 900 -609 1056 -725 
Q 1266 -881 1628 -881 
Q 2019 -881 2231 -725 
Q 2444 -569 2519 -288 
Q 2563 -116 2559 434 
Q 2191 0 1641 0 
Q 956 0 581 494 
Q 206 988 206 1678 
Q 206 2153 378 2554 
Q 550 2956 876 3175 
Q 1203 3394 1644 3394 
Q 2231 3394 2613 2919 
L 2613 3319 
L 3131 3319 
L 3131 450 
Q 3131 -325 2973 -648 
Q 2816 -972 2473 -1159 
Q 2131 -1347 1631 -1347 
Q 1038 -1347 672 -1080 
Q 306 -813 319 -275 
z
M 784 1719 
Q 784 1066 1043 766 
Q 1303 466 1694 466 
Q 2081 466 2343 764 
Q 2606 1063 2606 1700 
Q 2606 2309 2336 2618 
Q 2066 2928 1684 2928 
Q 1309 2928 1046 2623 
Q 784 2319 784 1719 
z
" transform="scale(0.015625)"/>
       <path id="ArialMT-68" d="M 422 0 
L 422 4581 
L 984 4581 
L 984 2938 
Q 1378 3394 1978 3394 
Q 2347 3394 2619 3248 
Q 2891 3103 3008 2847 
Q 3125 2591 3125 2103 
L 3125 0 
L 2563 0 
L 2563 2103 
Q 2563 2525 2380 2717 
Q 2197 2909 1863 2909 
Q 1613 2909 1392 2779 
Q 1172 2650 1078 2428 
Q 984 2206 984 1816 
L 984 0 
L 422 0 
z
" transform="scale(0.015625)"/>
       <path id="ArialMT-2c" d="M 569 0 
L 569 641 
L 1209 641 
L 1209 0 
Q 1209 -353 1084 -570 
Q 959 -788 688 -906 
L 531 -666 
Q 709 -588 793 -436 
Q 878 -284 888 0 
L 569 0 
z
" transform="scale(0.015625)"/>
       <path id="ArialMT-71" d="M 2538 -1272 
L 2538 353 
Q 2406 169 2170 47 
Q 1934 -75 1669 -75 
Q 1078 -75 651 397 
Q 225 869 225 1691 
Q 225 2191 398 2587 
Q 572 2984 901 3189 
Q 1231 3394 1625 3394 
Q 2241 3394 2594 2875 
L 2594 3319 
L 3100 3319 
L 3100 -1272 
L 2538 -1272 
z
M 803 1669 
Q 803 1028 1072 708 
Q 1341 388 1716 388 
Q 2075 388 2334 692 
Q 2594 997 2594 1619 
Q 2594 2281 2320 2615 
Q 2047 2950 1678 2950 
Q 1313 2950 1058 2639 
Q 803 2328 803 1669 
z
" transform="scale(0.015625)"/>
      </defs>
      <use xlink:href="#ArialMT-53"/>
      <use xlink:href="#ArialMT-74" x="66.699219"/>
      <use xlink:href="#ArialMT-72" x="94.482422"/>
      <use xlink:href="#ArialMT-65" x="127.783203"/>
      <use xlink:href="#ArialMT-61" x="183.398438"/>
      <use xlink:href="#ArialMT-6b" x="239.013672"/>
      <use xlink:href="#ArialMT-20" x="289.013672"/>
      <use xlink:href="#ArialMT-6c" x="316.796875"/>
      <use xlink:href="#ArialMT-65" x="339.013672"/>
      <use xlink:href="#ArialMT-6e" x="394.628906"/>
      <use xlink:href="#ArialMT-67" x="450.244141"/>
      <use xlink:href="#ArialMT-74" x="505.859375"/>
      <use xlink:href="#ArialMT-68" x="533.642578"/>
      <use xlink:href="#ArialMT-20" x="589.257812"/>
      <use xlink:href="#ArialMT-2c" x="617.041016"/>
      <use xlink:href="#ArialMT-20" x="644.824219"/>
      <use xlink:href="#ArialMT-71" x="672.607422"/>
     </g>
    </g>
   </g>
   <g id="matplotlib.axis_2">
    <g id="ytick_1">
     <g id="line2d_8">
      <defs>
       <path id="m6848f3b8df" d="M 0 0 
L -3.5 0 
" style="stroke: #000000; stroke-width: 0.8"/>
      </defs>
      <g>
       <use xlink:href="#m6848f3b8df" x="26.001959" y="118.858041" style="stroke: #000000; stroke-width: 0.8"/>
      </g>
     </g>
     <g id="text_6">
      <!-- $\mathdefault{0}$ -->
      <g transform="translate(16.201959 120.647494) scale(0.05 -0.05)">
       <use xlink:href="#ArialMT-30" transform="translate(0 0.125)"/>
      </g>
     </g>
    </g>
    <g id="ytick_2">
     <g id="line2d_9">
      <g>
       <use xlink:href="#m6848f3b8df" x="26.001959" y="105.841597" style="stroke: #000000; stroke-width: 0.8"/>
      </g>
     </g>
     <g id="text_7">
      <!-- $\mathdefault{5}$ -->
      <g transform="translate(16.201959 107.63105) scale(0.05 -0.05)">
       <use xlink:href="#ArialMT-35" transform="translate(0 0.390625)"/>
      </g>
     </g>
    </g>
    <g id="ytick_3">
     <g id="line2d_10">
      <g>
       <use xlink:href="#m6848f3b8df" x="26.001959" y="92.825153" style="stroke: #000000; stroke-width: 0.8"/>
      </g>
     </g>
     <g id="text_8">
      <!-- $\mathdefault{10}$ -->
      <g transform="translate(13.401959 94.614607) scale(0.05 -0.05)">
       <use xlink:href="#ArialMT-31" transform="translate(0 0.125)"/>
       <use xlink:href="#ArialMT-30" transform="translate(55.615234 0.125)"/>
      </g>
     </g>
    </g>
    <g id="ytick_4">
     <g id="line2d_11">
      <g>
       <use xlink:href="#m6848f3b8df" x="26.001959" y="79.80871" style="stroke: #000000; stroke-width: 0.8"/>
      </g>
     </g>
     <g id="text_9">
      <!-- $\mathdefault{15}$ -->
      <g transform="translate(13.401959 81.598163) scale(0.05 -0.05)">
       <use xlink:href="#ArialMT-31" transform="translate(0 0.125)"/>
       <use xlink:href="#ArialMT-35" transform="translate(55.615234 0.125)"/>
      </g>
     </g>
    </g>
    <g id="ytick_5">
     <g id="line2d_12">
      <g>
       <use xlink:href="#m6848f3b8df" x="26.001959" y="66.792266" style="stroke: #000000; stroke-width: 0.8"/>
      </g>
     </g>
     <g id="text_10">
      <!-- $\mathdefault{20}$ -->
      <g transform="translate(13.401959 68.581719) scale(0.05 -0.05)">
       <defs>
        <path id="ArialMT-32" d="M 3222 541 
L 3222 0 
L 194 0 
Q 188 203 259 391 
Q 375 700 629 1000 
Q 884 1300 1366 1694 
Q 2113 2306 2375 2664 
Q 2638 3022 2638 3341 
Q 2638 3675 2398 3904 
Q 2159 4134 1775 4134 
Q 1369 4134 1125 3890 
Q 881 3647 878 3216 
L 300 3275 
Q 359 3922 746 4261 
Q 1134 4600 1788 4600 
Q 2447 4600 2831 4234 
Q 3216 3869 3216 3328 
Q 3216 3053 3103 2787 
Q 2991 2522 2730 2228 
Q 2469 1934 1863 1422 
Q 1356 997 1212 845 
Q 1069 694 975 541 
L 3222 541 
z
" transform="scale(0.015625)"/>
       </defs>
       <use xlink:href="#ArialMT-32" transform="translate(0 0.125)"/>
       <use xlink:href="#ArialMT-30" transform="translate(55.615234 0.125)"/>
      </g>
     </g>
    </g>
    <g id="ytick_6">
     <g id="line2d_13">
      <g>
       <use xlink:href="#m6848f3b8df" x="26.001959" y="53.775822" style="stroke: #000000; stroke-width: 0.8"/>
      </g>
     </g>
     <g id="text_11">
      <!-- $\mathdefault{25}$ -->
      <g transform="translate(13.401959 55.565275) scale(0.05 -0.05)">
       <use xlink:href="#ArialMT-32" transform="translate(0 0.125)"/>
       <use xlink:href="#ArialMT-35" transform="translate(55.615234 0.125)"/>
      </g>
     </g>
    </g>
    <g id="ytick_7">
     <g id="line2d_14">
      <g>
       <use xlink:href="#m6848f3b8df" x="26.001959" y="40.759378" style="stroke: #000000; stroke-width: 0.8"/>
      </g>
     </g>
     <g id="text_12">
      <!-- $\mathdefault{30}$ -->
      <g transform="translate(13.401959 42.548831) scale(0.05 -0.05)">
       <defs>
        <path id="ArialMT-33" d="M 269 1209 
L 831 1284 
Q 928 806 1161 595 
Q 1394 384 1728 384 
Q 2125 384 2398 659 
Q 2672 934 2672 1341 
Q 2672 1728 2419 1979 
Q 2166 2231 1775 2231 
Q 1616 2231 1378 2169 
L 1441 2663 
Q 1497 2656 1531 2656 
Q 1891 2656 2178 2843 
Q 2466 3031 2466 3422 
Q 2466 3731 2256 3934 
Q 2047 4138 1716 4138 
Q 1388 4138 1169 3931 
Q 950 3725 888 3313 
L 325 3413 
Q 428 3978 793 4289 
Q 1159 4600 1703 4600 
Q 2078 4600 2393 4439 
Q 2709 4278 2876 4000 
Q 3044 3722 3044 3409 
Q 3044 3113 2884 2869 
Q 2725 2625 2413 2481 
Q 2819 2388 3044 2092 
Q 3269 1797 3269 1353 
Q 3269 753 2831 336 
Q 2394 -81 1725 -81 
Q 1122 -81 723 278 
Q 325 638 269 1209 
z
" transform="scale(0.015625)"/>
       </defs>
       <use xlink:href="#ArialMT-33" transform="translate(0 0.125)"/>
       <use xlink:href="#ArialMT-30" transform="translate(55.615234 0.125)"/>
      </g>
     </g>
    </g>
    <g id="ytick_8">
     <g id="line2d_15">
      <g>
       <use xlink:href="#m6848f3b8df" x="26.001959" y="27.742934" style="stroke: #000000; stroke-width: 0.8"/>
      </g>
     </g>
     <g id="text_13">
      <!-- $\mathdefault{35}$ -->
      <g transform="translate(13.401959 29.532387) scale(0.05 -0.05)">
       <use xlink:href="#ArialMT-33" transform="translate(0 0.125)"/>
       <use xlink:href="#ArialMT-35" transform="translate(55.615234 0.125)"/>
      </g>
     </g>
    </g>
    <g id="ytick_9">
     <g id="line2d_16">
      <g>
       <use xlink:href="#m6848f3b8df" x="26.001959" y="14.72649" style="stroke: #000000; stroke-width: 0.8"/>
      </g>
     </g>
     <g id="text_14">
      <!-- $\mathdefault{40}$ -->
      <g transform="translate(13.401959 16.515943) scale(0.05 -0.05)">
       <defs>
        <path id="ArialMT-34" d="M 2069 0 
L 2069 1097 
L 81 1097 
L 81 1613 
L 2172 4581 
L 2631 4581 
L 2631 1613 
L 3250 1613 
L 3250 1097 
L 2631 1097 
L 2631 0 
L 2069 0 
z
M 2069 1613 
L 2069 3678 
L 634 1613 
L 2069 1613 
z
" transform="scale(0.015625)"/>
       </defs>
       <use xlink:href="#ArialMT-34" transform="translate(0 0.125)"/>
       <use xlink:href="#ArialMT-30" transform="translate(55.615234 0.125)"/>
      </g>
     </g>
    </g>
    <g id="text_15">
     <!-- std. MSR -->
     <g transform="translate(8.010709 81.183281) rotate(-90) scale(0.07 -0.07)">
      <defs>
       <path id="ArialMT-73" d="M 197 991 
L 753 1078 
Q 800 744 1014 566 
Q 1228 388 1613 388 
Q 2000 388 2187 545 
Q 2375 703 2375 916 
Q 2375 1106 2209 1216 
Q 2094 1291 1634 1406 
Q 1016 1563 777 1677 
Q 538 1791 414 1992 
Q 291 2194 291 2438 
Q 291 2659 392 2848 
Q 494 3038 669 3163 
Q 800 3259 1026 3326 
Q 1253 3394 1513 3394 
Q 1903 3394 2198 3281 
Q 2494 3169 2634 2976 
Q 2775 2784 2828 2463 
L 2278 2388 
Q 2241 2644 2061 2787 
Q 1881 2931 1553 2931 
Q 1166 2931 1000 2803 
Q 834 2675 834 2503 
Q 834 2394 903 2306 
Q 972 2216 1119 2156 
Q 1203 2125 1616 2013 
Q 2213 1853 2448 1751 
Q 2684 1650 2818 1456 
Q 2953 1263 2953 975 
Q 2953 694 2789 445 
Q 2625 197 2315 61 
Q 2006 -75 1616 -75 
Q 969 -75 630 194 
Q 291 463 197 991 
z
" transform="scale(0.015625)"/>
       <path id="ArialMT-64" d="M 2575 0 
L 2575 419 
Q 2259 -75 1647 -75 
Q 1250 -75 917 144 
Q 584 363 401 755 
Q 219 1147 219 1656 
Q 219 2153 384 2558 
Q 550 2963 881 3178 
Q 1213 3394 1622 3394 
Q 1922 3394 2156 3267 
Q 2391 3141 2538 2938 
L 2538 4581 
L 3097 4581 
L 3097 0 
L 2575 0 
z
M 797 1656 
Q 797 1019 1065 703 
Q 1334 388 1700 388 
Q 2069 388 2326 689 
Q 2584 991 2584 1609 
Q 2584 2291 2321 2609 
Q 2059 2928 1675 2928 
Q 1300 2928 1048 2622 
Q 797 2316 797 1656 
z
" transform="scale(0.015625)"/>
       <path id="ArialMT-2e" d="M 581 0 
L 581 641 
L 1222 641 
L 1222 0 
L 581 0 
z
" transform="scale(0.015625)"/>
       <path id="ArialMT-4d" d="M 475 0 
L 475 4581 
L 1388 4581 
L 2472 1338 
Q 2622 884 2691 659 
Q 2769 909 2934 1394 
L 4031 4581 
L 4847 4581 
L 4847 0 
L 4263 0 
L 4263 3834 
L 2931 0 
L 2384 0 
L 1059 3900 
L 1059 0 
L 475 0 
z
" transform="scale(0.015625)"/>
       <path id="ArialMT-52" d="M 503 0 
L 503 4581 
L 2534 4581 
Q 3147 4581 3465 4457 
Q 3784 4334 3975 4021 
Q 4166 3709 4166 3331 
Q 4166 2844 3850 2509 
Q 3534 2175 2875 2084 
Q 3116 1969 3241 1856 
Q 3506 1613 3744 1247 
L 4541 0 
L 3778 0 
L 3172 953 
Q 2906 1366 2734 1584 
Q 2563 1803 2427 1890 
Q 2291 1978 2150 2013 
Q 2047 2034 1813 2034 
L 1109 2034 
L 1109 0 
L 503 0 
z
M 1109 2559 
L 2413 2559 
Q 2828 2559 3062 2645 
Q 3297 2731 3419 2920 
Q 3541 3109 3541 3331 
Q 3541 3656 3305 3865 
Q 3069 4075 2559 4075 
L 1109 4075 
L 1109 2559 
z
" transform="scale(0.015625)"/>
      </defs>
      <use xlink:href="#ArialMT-73"/>
      <use xlink:href="#ArialMT-74" x="50"/>
      <use xlink:href="#ArialMT-64" x="77.783203"/>
      <use xlink:href="#ArialMT-2e" x="133.398438"/>
      <use xlink:href="#ArialMT-20" x="161.181641"/>
      <use xlink:href="#ArialMT-4d" x="188.964844"/>
      <use xlink:href="#ArialMT-53" x="272.265625"/>
      <use xlink:href="#ArialMT-52" x="338.964844"/>
     </g>
    </g>
   </g>
   <g id="line2d_17">
    <path d="M 29.254649 116.254752 
L 33.591568 113.000239 
L 37.928488 109.306647 
L 42.265408 105.326346 
L 46.602328 101.096826 
L 50.939247 96.671096 
L 55.276167 92.081028 
L 59.613087 87.325108 
L 63.950007 82.407693 
L 68.286927 77.35233 
L 72.623846 72.110745 
L 76.960766 66.789714 
L 81.297686 61.364174 
L 85.634606 55.78215 
L 89.971525 50.121652 
L 94.308445 44.416688 
" clip-path="url(#pbd5eef7164)" style="fill: none; stroke: #808080; stroke-width: 3; stroke-linecap: square"/>
   </g>
   <g id="line2d_18">
    <path d="M 29.254649 116.207495 
L 33.591568 113.563371 
L 37.928488 110.869103 
L 42.265408 108.126489 
L 46.602328 105.374937 
L 50.939247 102.678124 
L 55.276167 99.987635 
L 59.613087 97.268505 
L 63.950007 94.546561 
L 68.286927 91.810807 
L 72.623846 89.054799 
L 76.960766 86.228882 
L 81.297686 83.560061 
L 85.634606 80.863357 
L 89.971525 78.177787 
L 94.308445 75.454426 
" clip-path="url(#pbd5eef7164)" style="fill: none; stroke-dasharray: 5.55,2.4; stroke-dashoffset: 0; stroke: #0000ff; stroke-width: 1.5"/>
   </g>
   <g id="patch_3">
    <path d="M 26.001959 118.858041 
L 26.001959 14.72649 
" style="fill: none; stroke: #000000; stroke-width: 0.8; stroke-linejoin: miter; stroke-linecap: square"/>
   </g>
   <g id="patch_4">
    <path d="M 26.001959 118.858041 
L 97.561135 118.858041 
" style="fill: none; stroke: #000000; stroke-width: 0.8; stroke-linejoin: miter; stroke-linecap: square"/>
   </g>
   <g id="text_16">
    <!-- T=18°C -->
    <g transform="translate(48.065297 8.72649) scale(0.08 -0.08)">
     <defs>
      <path id="ArialMT-54" d="M 1659 0 
L 1659 4041 
L 150 4041 
L 150 4581 
L 3781 4581 
L 3781 4041 
L 2266 4041 
L 2266 0 
L 1659 0 
z
" transform="scale(0.015625)"/>
      <path id="ArialMT-3d" d="M 3381 2694 
L 356 2694 
L 356 3219 
L 3381 3219 
L 3381 2694 
z
M 3381 1303 
L 356 1303 
L 356 1828 
L 3381 1828 
L 3381 1303 
z
" transform="scale(0.015625)"/>
      <path id="ArialMT-38" d="M 1131 2484 
Q 781 2613 612 2850 
Q 444 3088 444 3419 
Q 444 3919 803 4259 
Q 1163 4600 1759 4600 
Q 2359 4600 2725 4251 
Q 3091 3903 3091 3403 
Q 3091 3084 2923 2848 
Q 2756 2613 2416 2484 
Q 2838 2347 3058 2040 
Q 3278 1734 3278 1309 
Q 3278 722 2862 322 
Q 2447 -78 1769 -78 
Q 1091 -78 675 323 
Q 259 725 259 1325 
Q 259 1772 486 2073 
Q 713 2375 1131 2484 
z
M 1019 3438 
Q 1019 3113 1228 2906 
Q 1438 2700 1772 2700 
Q 2097 2700 2305 2904 
Q 2513 3109 2513 3406 
Q 2513 3716 2298 3927 
Q 2084 4138 1766 4138 
Q 1444 4138 1231 3931 
Q 1019 3725 1019 3438 
z
M 838 1322 
Q 838 1081 952 856 
Q 1066 631 1291 507 
Q 1516 384 1775 384 
Q 2178 384 2440 643 
Q 2703 903 2703 1303 
Q 2703 1709 2433 1975 
Q 2163 2241 1756 2241 
Q 1359 2241 1098 1978 
Q 838 1716 838 1322 
z
" transform="scale(0.015625)"/>
      <path id="ArialMT-b0" d="M 400 3794 
Q 400 4153 654 4406 
Q 909 4659 1266 4659 
Q 1628 4659 1881 4406 
Q 2134 4153 2134 3794 
Q 2134 3434 1879 3179 
Q 1625 2925 1266 2925 
Q 909 2925 654 3178 
Q 400 3431 400 3794 
z
M 741 3794 
Q 741 3575 895 3420 
Q 1050 3266 1269 3266 
Q 1484 3266 1639 3420 
Q 1794 3575 1794 3794 
Q 1794 4013 1639 4167 
Q 1484 4322 1269 4322 
Q 1050 4322 895 4167 
Q 741 4013 741 3794 
z
" transform="scale(0.015625)"/>
      <path id="ArialMT-43" d="M 3763 1606 
L 4369 1453 
Q 4178 706 3683 314 
Q 3188 -78 2472 -78 
Q 1731 -78 1267 223 
Q 803 525 561 1097 
Q 319 1669 319 2325 
Q 319 3041 592 3573 
Q 866 4106 1370 4382 
Q 1875 4659 2481 4659 
Q 3169 4659 3637 4309 
Q 4106 3959 4291 3325 
L 3694 3184 
Q 3534 3684 3231 3912 
Q 2928 4141 2469 4141 
Q 1941 4141 1586 3887 
Q 1231 3634 1087 3207 
Q 944 2781 944 2328 
Q 944 1744 1114 1308 
Q 1284 872 1643 656 
Q 2003 441 2422 441 
Q 2931 441 3284 734 
Q 3638 1028 3763 1606 
z
" transform="scale(0.015625)"/>
     </defs>
     <use xlink:href="#ArialMT-54"/>
     <use xlink:href="#ArialMT-3d" x="61.083984"/>
     <use xlink:href="#ArialMT-31" x="119.482422"/>
     <use xlink:href="#ArialMT-38" x="175.097656"/>
     <use xlink:href="#ArialMT-b0" x="230.712891"/>
     <use xlink:href="#ArialMT-43" x="270.703125"/>
    </g>
   </g>
  </g>
  <g id="axes_2">
   <g id="patch_5">
    <path d="M 107.061615 118.858041 
L 178.620791 118.858041 
L 178.620791 14.72649 
L 107.061615 14.72649 
L 107.061615 118.858041 
z
" style="fill: none"/>
   </g>
   <g id="line2d_19">
    <path d="M 110.314305 116.254752 
L 114.651225 111.996967 
L 118.988144 106.681551 
L 123.325064 100.690546 
L 127.661984 94.267819 
L 131.998904 87.561026 
L 136.335823 80.683007 
L 140.672743 73.684003 
L 145.009663 66.606462 
L 149.346583 59.483976 
L 153.683503 52.330896 
L 158.020422 45.167092 
L 162.357342 37.992457 
L 166.694262 30.818908 
L 171.031182 23.646232 
L 175.368101 16.477154 
" clip-path="url(#p5ad48dac55)" style="fill: none; stroke: #ff00ff; stroke-linecap: square"/>
   </g>
   <g id="line2d_20">
    <path d="M 110.314305 116.254752 
L 114.651225 112.499521 
L 118.988144 108.224058 
L 123.325064 103.705086 
L 127.661984 99.074363 
L 131.998904 94.397902 
L 136.335823 89.689883 
L 140.672743 84.975984 
L 145.009663 80.257224 
L 149.346583 75.534563 
L 153.683503 70.808075 
L 158.020422 66.072224 
L 162.357342 61.33232 
L 166.694262 56.593027 
L 171.031182 51.85622 
L 175.368101 47.119735 
" clip-path="url(#p5ad48dac55)" style="fill: none; stroke: #ff00ff; stroke-linecap: square"/>
   </g>
   <g id="line2d_21">
    <path d="M 110.314305 116.254752 
L 114.651225 112.056193 
L 118.988144 106.88414 
L 123.325064 101.116548 
L 127.661984 94.980209 
L 131.998904 88.620035 
L 136.335823 82.125027 
L 140.672743 75.544979 
L 145.009663 68.907081 
L 149.346583 62.23727 
L 153.683503 55.549257 
L 158.020422 48.841966 
L 162.357342 42.116971 
L 166.694262 35.378508 
L 171.031182 28.628539 
L 175.368101 21.87139 
" clip-path="url(#p5ad48dac55)" style="fill: none; stroke: #ff00ff; stroke-linecap: square"/>
   </g>
   <g id="line2d_22">
    <path d="M 110.314305 116.254752 
L 114.651225 111.931593 
L 118.988144 106.483068 
L 123.325064 100.292708 
L 127.661984 93.617527 
L 131.998904 86.619736 
L 136.335823 79.410162 
L 140.672743 72.067618 
L 145.009663 64.63012 
L 149.346583 57.135396 
L 153.683503 49.607993 
L 158.020422 42.058583 
L 162.357342 34.493976 
L 166.694262 26.921999 
L 171.031182 19.349767 
L 175.368101 11.782607 
" clip-path="url(#p5ad48dac55)" style="fill: none; stroke: #ff00ff; stroke-linecap: square"/>
   </g>
   <g id="line2d_23">
    <path d="M 110.314305 116.254752 
L 114.651225 112.417269 
L 118.988144 107.933258 
L 123.325064 103.101765 
L 127.661984 98.089202 
L 131.998904 92.980132 
L 136.335823 87.813781 
L 140.672743 82.616874 
L 145.009663 77.400967 
L 149.346583 72.164782 
L 153.683503 66.917878 
L 158.020422 61.670071 
L 162.357342 56.422478 
L 166.694262 51.187692 
L 171.031182 45.958041 
L 175.368101 40.727853 
" clip-path="url(#p5ad48dac55)" style="fill: none; stroke: #ff00ff; stroke-linecap: square"/>
   </g>
   <g id="line2d_24">
    <path d="M 110.314305 116.254752 
L 114.651225 112.063878 
L 118.988144 106.885606 
L 123.325064 101.079466 
L 127.661984 94.870646 
L 131.998904 88.401379 
L 136.335823 81.766791 
L 140.672743 75.029143 
L 145.009663 68.213243 
L 149.346583 61.340302 
L 153.683503 54.419969 
L 158.020422 47.474058 
L 162.357342 40.50466 
L 166.694262 33.522963 
L 171.031182 26.540984 
L 175.368101 19.560866 
" clip-path="url(#p5ad48dac55)" style="fill: none; stroke: #ff00ff; stroke-linecap: square"/>
   </g>
   <g id="line2d_25">
    <path d="M 110.314305 116.254752 
L 114.651225 112.62162 
L 118.988144 108.481452 
L 123.325064 104.09515 
L 127.661984 99.587411 
L 131.998904 95.016244 
L 136.335823 90.410895 
L 140.672743 85.791302 
L 145.009663 81.172822 
L 149.346583 76.5462 
L 153.683503 71.92398 
L 158.020422 67.28459 
L 162.357342 62.640206 
L 166.694262 57.99187 
L 171.031182 53.338785 
L 175.368101 48.681115 
" clip-path="url(#p5ad48dac55)" style="fill: none; stroke: #ff00ff; stroke-linecap: square"/>
   </g>
   <g id="line2d_26">
    <path d="M 110.314305 116.254752 
L 114.651225 112.222972 
L 118.988144 107.374554 
L 123.325064 102.058518 
L 127.661984 96.465262 
L 131.998904 90.716326 
L 136.335823 84.877759 
L 140.672743 78.995468 
L 145.009663 73.091621 
L 149.346583 67.183206 
L 153.683503 61.271682 
L 158.020422 55.357816 
L 162.357342 49.441385 
L 166.694262 43.52302 
L 171.031182 37.5993 
L 175.368101 31.672163 
" clip-path="url(#p5ad48dac55)" style="fill: none; stroke: #ff00ff; stroke-linecap: square"/>
   </g>
   <g id="matplotlib.axis_3">
    <g id="xtick_5">
     <g id="line2d_27">
      <g>
       <use xlink:href="#m5138dd07ef" x="110.314305" y="118.858041" style="stroke: #000000; stroke-width: 0.8"/>
      </g>
     </g>
     <g id="text_17">
      <!-- $\mathdefault{0}$ -->
      <g transform="translate(108.914305 129.436948) scale(0.05 -0.05)">
       <use xlink:href="#ArialMT-30" transform="translate(0 0.125)"/>
      </g>
     </g>
    </g>
    <g id="xtick_6">
     <g id="line2d_28">
      <g>
       <use xlink:href="#m5138dd07ef" x="131.998904" y="118.858041" style="stroke: #000000; stroke-width: 0.8"/>
      </g>
     </g>
     <g id="text_18">
      <!-- $\mathdefault{5}$ -->
      <g transform="translate(130.598904 129.436948) scale(0.05 -0.05)">
       <use xlink:href="#ArialMT-35" transform="translate(0 0.390625)"/>
      </g>
     </g>
    </g>
    <g id="xtick_7">
     <g id="line2d_29">
      <g>
       <use xlink:href="#m5138dd07ef" x="153.683503" y="118.858041" style="stroke: #000000; stroke-width: 0.8"/>
      </g>
     </g>
     <g id="text_19">
      <!-- $\mathdefault{10}$ -->
      <g transform="translate(150.883503 129.436948) scale(0.05 -0.05)">
       <use xlink:href="#ArialMT-31" transform="translate(0 0.125)"/>
       <use xlink:href="#ArialMT-30" transform="translate(55.615234 0.125)"/>
      </g>
     </g>
    </g>
    <g id="xtick_8">
     <g id="line2d_30">
      <g>
       <use xlink:href="#m5138dd07ef" x="175.368101" y="118.858041" style="stroke: #000000; stroke-width: 0.8"/>
      </g>
     </g>
     <g id="text_20">
      <!-- $\mathdefault{15}$ -->
      <g transform="translate(172.568101 129.436948) scale(0.05 -0.05)">
       <use xlink:href="#ArialMT-31" transform="translate(0 0.125)"/>
       <use xlink:href="#ArialMT-35" transform="translate(55.615234 0.125)"/>
      </g>
     </g>
    </g>
   </g>
   <g id="matplotlib.axis_4">
    <g id="ytick_10">
     <g id="line2d_31">
      <g>
       <use xlink:href="#m6848f3b8df" x="107.061615" y="118.858041" style="stroke: #000000; stroke-width: 0.8"/>
      </g>
     </g>
    </g>
    <g id="ytick_11">
     <g id="line2d_32">
      <g>
       <use xlink:href="#m6848f3b8df" x="107.061615" y="105.841597" style="stroke: #000000; stroke-width: 0.8"/>
      </g>
     </g>
    </g>
    <g id="ytick_12">
     <g id="line2d_33">
      <g>
       <use xlink:href="#m6848f3b8df" x="107.061615" y="92.825153" style="stroke: #000000; stroke-width: 0.8"/>
      </g>
     </g>
    </g>
    <g id="ytick_13">
     <g id="line2d_34">
      <g>
       <use xlink:href="#m6848f3b8df" x="107.061615" y="79.80871" style="stroke: #000000; stroke-width: 0.8"/>
      </g>
     </g>
    </g>
    <g id="ytick_14">
     <g id="line2d_35">
      <g>
       <use xlink:href="#m6848f3b8df" x="107.061615" y="66.792266" style="stroke: #000000; stroke-width: 0.8"/>
      </g>
     </g>
    </g>
    <g id="ytick_15">
     <g id="line2d_36">
      <g>
       <use xlink:href="#m6848f3b8df" x="107.061615" y="53.775822" style="stroke: #000000; stroke-width: 0.8"/>
      </g>
     </g>
    </g>
    <g id="ytick_16">
     <g id="line2d_37">
      <g>
       <use xlink:href="#m6848f3b8df" x="107.061615" y="40.759378" style="stroke: #000000; stroke-width: 0.8"/>
      </g>
     </g>
    </g>
    <g id="ytick_17">
     <g id="line2d_38">
      <g>
       <use xlink:href="#m6848f3b8df" x="107.061615" y="27.742934" style="stroke: #000000; stroke-width: 0.8"/>
      </g>
     </g>
    </g>
    <g id="ytick_18">
     <g id="line2d_39">
      <g>
       <use xlink:href="#m6848f3b8df" x="107.061615" y="14.72649" style="stroke: #000000; stroke-width: 0.8"/>
      </g>
     </g>
    </g>
   </g>
   <g id="line2d_40">
    <path d="M 110.314305 116.254752 
L 114.651225 112.68809 
L 118.988144 108.482508 
L 123.325064 103.80285 
L 127.661984 98.743883 
L 131.998904 93.349392 
L 136.335823 87.671156 
L 140.672743 81.693049 
L 145.009663 75.441245 
L 149.346583 68.965825 
L 153.683503 62.277512 
L 158.020422 55.432557 
L 162.357342 48.371624 
L 166.694262 41.155869 
L 171.031182 33.789544 
L 175.368101 26.207629 
" clip-path="url(#p5ad48dac55)" style="fill: none; stroke: #808080; stroke-width: 3; stroke-linecap: square"/>
   </g>
   <g id="line2d_41">
    <path d="M 110.314305 116.281407 
L 114.651225 113.695199 
L 118.988144 111.110253 
L 123.325064 108.495541 
L 127.661984 105.873896 
L 131.998904 103.257145 
L 136.335823 100.639766 
L 140.672743 98.008677 
L 145.009663 95.393238 
L 149.346583 92.744196 
L 153.683503 90.075966 
L 158.020422 87.407009 
L 162.357342 84.693293 
L 166.694262 81.978397 
L 171.031182 79.253265 
L 175.368101 76.521464 
" clip-path="url(#p5ad48dac55)" style="fill: none; stroke-dasharray: 5.55,2.4; stroke-dashoffset: 0; stroke: #0000ff; stroke-width: 1.5"/>
   </g>
   <g id="patch_6">
    <path d="M 107.061615 118.858041 
L 107.061615 14.72649 
" style="fill: none; stroke: #000000; stroke-width: 0.8; stroke-linejoin: miter; stroke-linecap: square"/>
   </g>
   <g id="patch_7">
    <path d="M 107.061615 118.858041 
L 178.620791 118.858041 
" style="fill: none; stroke: #000000; stroke-width: 0.8; stroke-linejoin: miter; stroke-linecap: square"/>
   </g>
   <g id="text_21">
    <!-- T=22°C -->
    <g transform="translate(129.124953 8.72649) scale(0.08 -0.08)">
     <use xlink:href="#ArialMT-54"/>
     <use xlink:href="#ArialMT-3d" x="61.083984"/>
     <use xlink:href="#ArialMT-32" x="119.482422"/>
     <use xlink:href="#ArialMT-32" x="175.097656"/>
     <use xlink:href="#ArialMT-b0" x="230.712891"/>
     <use xlink:href="#ArialMT-43" x="270.703125"/>
    </g>
   </g>
  </g>
  <g id="axes_3">
   <g id="patch_8">
    <path d="M 188.121271 118.858041 
L 259.680447 118.858041 
L 259.680447 14.72649 
L 188.121271 14.72649 
L 188.121271 118.858041 
z
" style="fill: none"/>
   </g>
   <g id="line2d_42">
    <path d="M 191.373961 116.254752 
L 195.710881 112.463334 
L 200.047801 108.272429 
L 204.38472 103.954386 
L 208.72164 99.590737 
L 213.05856 95.210071 
L 217.39548 90.82317 
L 221.732399 86.444166 
L 226.069319 82.069273 
L 230.406239 77.69986 
L 234.743159 73.330141 
L 239.080079 68.96089 
L 243.416998 64.589159 
L 247.753918 60.213253 
L 252.090838 55.836956 
L 256.427758 51.460735 
" clip-path="url(#p28826caf1e)" style="fill: none; stroke: #ff00ff; stroke-linecap: square"/>
   </g>
   <g id="line2d_43">
    <path d="M 191.373961 116.254752 
L 195.710881 111.970776 
L 200.047801 106.896014 
L 204.38472 101.453628 
L 208.72164 95.838695 
L 213.05856 90.14129 
L 217.39548 84.406331 
L 221.732399 78.653544 
L 226.069319 72.891849 
L 230.406239 67.123976 
L 234.743159 61.356633 
L 239.080079 55.596714 
L 243.416998 49.839276 
L 247.753918 44.083139 
L 252.090838 38.331654 
L 256.427758 32.583511 
" clip-path="url(#p28826caf1e)" style="fill: none; stroke: #ff00ff; stroke-linecap: square"/>
   </g>
   <g id="line2d_44">
    <path d="M 191.373961 116.254752 
L 195.710881 112.000119 
L 200.047801 106.961 
L 204.38472 101.54018 
L 208.72164 95.919505 
L 213.05856 90.208338 
L 217.39548 84.44567 
L 221.732399 78.658458 
L 226.069319 72.860227 
L 230.406239 67.060022 
L 234.743159 61.259933 
L 239.080079 55.460967 
L 243.416998 49.666767 
L 247.753918 43.879045 
L 252.090838 38.097351 
L 256.427758 32.322269 
" clip-path="url(#p28826caf1e)" style="fill: none; stroke: #ff00ff; stroke-linecap: square"/>
   </g>
   <g id="line2d_45">
    <path d="M 191.373961 116.254752 
L 195.710881 111.955421 
L 200.047801 106.841626 
L 204.38472 101.316495 
L 208.72164 95.588394 
L 213.05856 89.751889 
L 217.39548 83.857129 
L 221.732399 77.925972 
L 226.069319 71.982416 
L 230.406239 66.033889 
L 234.743159 60.080982 
L 239.080079 54.129386 
L 243.416998 48.176948 
L 247.753918 42.22339 
L 252.090838 36.262567 
L 256.427758 30.304942 
" clip-path="url(#p28826caf1e)" style="fill: none; stroke: #ff00ff; stroke-linecap: square"/>
   </g>
   <g id="line2d_46">
    <path d="M 191.373961 116.254752 
L 195.710881 112.161157 
L 200.047801 107.453005 
L 204.38472 102.494184 
L 208.72164 97.428935 
L 213.05856 92.320518 
L 217.39548 87.198212 
L 221.732399 82.070597 
L 226.069319 76.947014 
L 230.406239 71.821196 
L 234.743159 66.688888 
L 239.080079 61.548945 
L 243.416998 56.399432 
L 247.753918 51.24137 
L 252.090838 46.078504 
L 256.427758 40.916521 
" clip-path="url(#p28826caf1e)" style="fill: none; stroke: #ff00ff; stroke-linecap: square"/>
   </g>
   <g id="line2d_47">
    <path d="M 191.373961 116.254752 
L 195.710881 112.717132 
L 200.047801 108.921528 
L 204.38472 105.053615 
L 208.72164 101.166157 
L 213.05856 97.277012 
L 217.39548 93.388302 
L 221.732399 89.511679 
L 226.069319 85.642957 
L 230.406239 81.783299 
L 234.743159 77.926022 
L 239.080079 74.063146 
L 243.416998 70.201308 
L 247.753918 66.346115 
L 252.090838 62.488846 
L 256.427758 58.633981 
" clip-path="url(#p28826caf1e)" style="fill: none; stroke: #ff00ff; stroke-linecap: square"/>
   </g>
   <g id="line2d_48">
    <path d="M 191.373961 116.254752 
L 195.710881 111.939405 
L 200.047801 106.816765 
L 204.38472 101.314725 
L 208.72164 95.644791 
L 213.05856 89.898764 
L 217.39548 84.113135 
L 221.732399 78.298977 
L 226.069319 72.466249 
L 230.406239 66.615171 
L 234.743159 60.754369 
L 239.080079 54.891943 
L 243.416998 49.032693 
L 247.753918 43.188386 
L 252.090838 37.351802 
L 256.427758 31.518427 
" clip-path="url(#p28826caf1e)" style="fill: none; stroke: #ff00ff; stroke-linecap: square"/>
   </g>
   <g id="line2d_49">
    <path d="M 191.373961 116.254752 
L 195.710881 112.059605 
L 200.047801 107.165974 
L 204.38472 101.96891 
L 208.72164 96.633861 
L 213.05856 91.239627 
L 217.39548 85.819376 
L 221.732399 80.381272 
L 226.069319 74.931739 
L 230.406239 69.47696 
L 234.743159 64.025006 
L 239.080079 58.579276 
L 243.416998 53.128992 
L 247.753918 47.677343 
L 252.090838 42.225819 
L 256.427758 36.781316 
" clip-path="url(#p28826caf1e)" style="fill: none; stroke: #ff00ff; stroke-linecap: square"/>
   </g>
   <g id="line2d_50">
    <path d="M 191.373961 116.254752 
L 195.710881 111.321332 
L 200.047801 104.898888 
L 204.38472 97.529026 
L 208.72164 89.552582 
L 213.05856 81.191413 
L 217.39548 72.585957 
L 221.732399 63.821723 
L 226.069319 54.958184 
L 230.406239 46.030347 
L 234.743159 37.065825 
L 239.080079 28.070773 
L 243.416998 19.04998 
L 247.753918 10.012848 
L 252.090838 0.97652 
L 253.038951 -1 
" clip-path="url(#p28826caf1e)" style="fill: none; stroke: #ff00ff; stroke-linecap: square"/>
   </g>
   <g id="matplotlib.axis_5">
    <g id="xtick_9">
     <g id="line2d_51">
      <g>
       <use xlink:href="#m5138dd07ef" x="191.373961" y="118.858041" style="stroke: #000000; stroke-width: 0.8"/>
      </g>
     </g>
     <g id="text_22">
      <!-- $\mathdefault{0}$ -->
      <g transform="translate(189.973961 129.436948) scale(0.05 -0.05)">
       <use xlink:href="#ArialMT-30" transform="translate(0 0.125)"/>
      </g>
     </g>
    </g>
    <g id="xtick_10">
     <g id="line2d_52">
      <g>
       <use xlink:href="#m5138dd07ef" x="213.05856" y="118.858041" style="stroke: #000000; stroke-width: 0.8"/>
      </g>
     </g>
     <g id="text_23">
      <!-- $\mathdefault{5}$ -->
      <g transform="translate(211.65856 129.436948) scale(0.05 -0.05)">
       <use xlink:href="#ArialMT-35" transform="translate(0 0.390625)"/>
      </g>
     </g>
    </g>
    <g id="xtick_11">
     <g id="line2d_53">
      <g>
       <use xlink:href="#m5138dd07ef" x="234.743159" y="118.858041" style="stroke: #000000; stroke-width: 0.8"/>
      </g>
     </g>
     <g id="text_24">
      <!-- $\mathdefault{10}$ -->
      <g transform="translate(231.943159 129.436948) scale(0.05 -0.05)">
       <use xlink:href="#ArialMT-31" transform="translate(0 0.125)"/>
       <use xlink:href="#ArialMT-30" transform="translate(55.615234 0.125)"/>
      </g>
     </g>
    </g>
    <g id="xtick_12">
     <g id="line2d_54">
      <g>
       <use xlink:href="#m5138dd07ef" x="256.427758" y="118.858041" style="stroke: #000000; stroke-width: 0.8"/>
      </g>
     </g>
     <g id="text_25">
      <!-- $\mathdefault{15}$ -->
      <g transform="translate(253.627758 129.436948) scale(0.05 -0.05)">
       <use xlink:href="#ArialMT-31" transform="translate(0 0.125)"/>
       <use xlink:href="#ArialMT-35" transform="translate(55.615234 0.125)"/>
      </g>
     </g>
    </g>
   </g>
   <g id="matplotlib.axis_6">
    <g id="ytick_19">
     <g id="line2d_55">
      <g>
       <use xlink:href="#m6848f3b8df" x="188.121271" y="118.858041" style="stroke: #000000; stroke-width: 0.8"/>
      </g>
     </g>
    </g>
    <g id="ytick_20">
     <g id="line2d_56">
      <g>
       <use xlink:href="#m6848f3b8df" x="188.121271" y="105.841597" style="stroke: #000000; stroke-width: 0.8"/>
      </g>
     </g>
    </g>
    <g id="ytick_21">
     <g id="line2d_57">
      <g>
       <use xlink:href="#m6848f3b8df" x="188.121271" y="92.825153" style="stroke: #000000; stroke-width: 0.8"/>
      </g>
     </g>
    </g>
    <g id="ytick_22">
     <g id="line2d_58">
      <g>
       <use xlink:href="#m6848f3b8df" x="188.121271" y="79.80871" style="stroke: #000000; stroke-width: 0.8"/>
      </g>
     </g>
    </g>
    <g id="ytick_23">
     <g id="line2d_59">
      <g>
       <use xlink:href="#m6848f3b8df" x="188.121271" y="66.792266" style="stroke: #000000; stroke-width: 0.8"/>
      </g>
     </g>
    </g>
    <g id="ytick_24">
     <g id="line2d_60">
      <g>
       <use xlink:href="#m6848f3b8df" x="188.121271" y="53.775822" style="stroke: #000000; stroke-width: 0.8"/>
      </g>
     </g>
    </g>
    <g id="ytick_25">
     <g id="line2d_61">
      <g>
       <use xlink:href="#m6848f3b8df" x="188.121271" y="40.759378" style="stroke: #000000; stroke-width: 0.8"/>
      </g>
     </g>
    </g>
    <g id="ytick_26">
     <g id="line2d_62">
      <g>
       <use xlink:href="#m6848f3b8df" x="188.121271" y="27.742934" style="stroke: #000000; stroke-width: 0.8"/>
      </g>
     </g>
    </g>
    <g id="ytick_27">
     <g id="line2d_63">
      <g>
       <use xlink:href="#m6848f3b8df" x="188.121271" y="14.72649" style="stroke: #000000; stroke-width: 0.8"/>
      </g>
     </g>
    </g>
   </g>
   <g id="line2d_64">
    <path d="M 191.373961 116.254752 
L 195.710881 113.151473 
L 200.047801 109.984052 
L 204.38472 106.677674 
L 208.72164 103.245743 
L 213.05856 99.788399 
L 217.39548 96.384455 
L 221.732399 93.056761 
L 226.069319 89.837813 
L 230.406239 86.640234 
L 234.743159 83.423285 
L 239.080079 80.221269 
L 243.416998 77.106422 
L 247.753918 73.975296 
L 252.090838 70.59005 
L 256.427758 67.042894 
" clip-path="url(#p28826caf1e)" style="fill: none; stroke: #008000; stroke-width: 0.5; stroke-linecap: square"/>
   </g>
   <g id="line2d_65">
    <path d="M 191.373961 116.254752 
L 195.710881 113.027393 
L 200.047801 109.329687 
L 204.38472 105.343629 
L 208.72164 101.092461 
L 213.05856 96.753923 
L 217.39548 92.130602 
L 221.732399 87.074191 
L 226.069319 81.950809 
L 230.406239 76.71589 
L 234.743159 71.644066 
L 239.080079 66.444036 
L 243.416998 60.959212 
L 247.753918 55.047474 
L 252.090838 48.873953 
L 256.427758 42.473879 
" clip-path="url(#p28826caf1e)" style="fill: none; stroke: #008000; stroke-width: 0.5; stroke-linecap: square"/>
   </g>
   <g id="line2d_66">
    <path d="M 191.373961 116.254752 
L 195.710881 113.299682 
L 200.047801 110.231396 
L 204.38472 107.170326 
L 208.72164 104.500204 
L 213.05856 101.931135 
L 217.39548 99.312061 
L 221.732399 96.930587 
L 226.069319 94.684453 
L 230.406239 92.780444 
L 234.743159 90.622407 
L 239.080079 88.287678 
L 243.416998 85.487935 
L 247.753918 82.397002 
L 252.090838 79.517535 
L 256.427758 76.856249 
" clip-path="url(#p28826caf1e)" style="fill: none; stroke: #008000; stroke-width: 0.5; stroke-linecap: square"/>
   </g>
   <g id="line2d_67">
    <path d="M 191.373961 116.254752 
L 195.710881 113.449635 
L 200.047801 110.671737 
L 204.38472 107.996823 
L 208.72164 105.407867 
L 213.05856 102.877449 
L 217.39548 100.365033 
L 221.732399 97.80358 
L 226.069319 95.075319 
L 230.406239 92.295826 
L 234.743159 89.387217 
L 239.080079 86.414062 
L 243.416998 83.40352 
L 247.753918 80.48586 
L 252.090838 77.623416 
L 256.427758 74.591488 
" clip-path="url(#p28826caf1e)" style="fill: none; stroke: #008000; stroke-width: 0.5; stroke-linecap: square"/>
   </g>
   <g id="line2d_68">
    <path d="M 191.373961 116.254752 
L 195.710881 113.501614 
L 200.047801 110.916106 
L 204.38472 107.992348 
L 208.72164 105.031605 
L 213.05856 102.096234 
L 217.39548 98.96524 
L 221.732399 96.091195 
L 226.069319 93.040216 
L 230.406239 90.220213 
L 234.743159 87.272254 
L 239.080079 83.823422 
L 243.416998 80.535486 
L 247.753918 77.297069 
L 252.090838 73.532437 
L 256.427758 70.007197 
" clip-path="url(#p28826caf1e)" style="fill: none; stroke: #008000; stroke-width: 0.5; stroke-linecap: square"/>
   </g>
   <g id="line2d_69">
    <path d="M 191.373961 116.254752 
L 195.710881 113.477093 
L 200.047801 110.836953 
L 204.38472 108.397842 
L 208.72164 106.062273 
L 213.05856 103.862027 
L 217.39548 101.653811 
L 221.732399 99.369239 
L 226.069319 96.969115 
L 230.406239 94.666013 
L 234.743159 92.402311 
L 239.080079 90.022097 
L 243.416998 87.572018 
L 247.753918 85.033536 
L 252.090838 82.462068 
L 256.427758 79.975902 
" clip-path="url(#p28826caf1e)" style="fill: none; stroke: #008000; stroke-width: 0.5; stroke-linecap: square"/>
   </g>
   <g id="line2d_70">
    <path d="M 191.373961 116.254752 
L 195.710881 113.291511 
L 200.047801 110.720774 
L 204.38472 108.364173 
L 208.72164 106.118937 
L 213.05856 103.888584 
L 217.39548 101.847502 
L 221.732399 99.883588 
L 226.069319 98.085949 
L 230.406239 96.274032 
L 234.743159 94.458876 
L 239.080079 92.885238 
L 243.416998 91.329937 
L 247.753918 89.71736 
L 252.090838 88.096094 
L 256.427758 86.3712 
" clip-path="url(#p28826caf1e)" style="fill: none; stroke: #008000; stroke-width: 0.5; stroke-linecap: square"/>
   </g>
   <g id="line2d_71">
    <path d="M 191.373961 116.254752 
L 195.710881 113.565192 
L 200.047801 110.743264 
L 204.38472 107.890535 
L 208.72164 104.793955 
L 213.05856 101.719438 
L 217.39548 98.384085 
L 221.732399 94.84908 
L 226.069319 91.320481 
L 230.406239 87.774555 
L 234.743159 84.196381 
L 239.080079 80.791498 
L 243.416998 77.382828 
L 247.753918 74.008009 
L 252.090838 70.679575 
L 256.427758 67.533711 
" clip-path="url(#p28826caf1e)" style="fill: none; stroke: #008000; stroke-width: 0.5; stroke-linecap: square"/>
   </g>
   <g id="line2d_72">
    <path d="M 191.373961 116.254752 
L 195.710881 112.973278 
L 200.047801 109.572759 
L 204.38472 106.214639 
L 208.72164 102.992946 
L 213.05856 99.891987 
L 217.39548 97.008427 
L 221.732399 94.268737 
L 226.069319 91.773517 
L 230.406239 89.314994 
L 234.743159 87.000879 
L 239.080079 84.660693 
L 243.416998 82.165472 
L 247.753918 79.676263 
L 252.090838 77.183995 
L 256.427758 74.849487 
" clip-path="url(#p28826caf1e)" style="fill: none; stroke: #008000; stroke-width: 0.5; stroke-linecap: square"/>
   </g>
   <g id="line2d_73">
    <path d="M 191.373961 116.254752 
L 195.710881 113.490579 
L 200.047801 110.942054 
L 204.38472 108.640233 
L 208.72164 106.466962 
L 213.05856 104.361512 
L 217.39548 102.288665 
L 221.732399 100.08727 
L 226.069319 97.733815 
L 230.406239 95.374923 
L 234.743159 93.049285 
L 239.080079 90.646706 
L 243.416998 88.280201 
L 247.753918 85.877604 
L 252.090838 83.321031 
L 256.427758 80.772886 
" clip-path="url(#p28826caf1e)" style="fill: none; stroke: #008000; stroke-width: 0.5; stroke-linecap: square"/>
   </g>
   <g id="line2d_74">
    <path d="M 191.373961 116.254752 
L 195.710881 113.532814 
L 200.047801 111.014199 
L 204.38472 108.588772 
L 208.72164 106.123388 
L 213.05856 103.658045 
L 217.39548 101.108013 
L 221.732399 98.587688 
L 226.069319 95.868039 
L 230.406239 93.098043 
L 234.743159 90.170671 
L 239.080079 87.17055 
L 243.416998 84.12251 
L 247.753918 80.953615 
L 252.090838 77.674119 
L 256.427758 74.389746 
" clip-path="url(#p28826caf1e)" style="fill: none; stroke: #008000; stroke-width: 0.5; stroke-linecap: square"/>
   </g>
   <g id="line2d_75">
    <path d="M 191.373961 116.254752 
L 195.710881 113.588641 
L 200.047801 111.039715 
L 204.38472 108.663827 
L 208.72164 106.319553 
L 213.05856 103.912552 
L 217.39548 101.586776 
L 221.732399 99.36977 
L 226.069319 97.295326 
L 230.406239 95.177302 
L 234.743159 93.000494 
L 239.080079 90.743168 
L 243.416998 88.507846 
L 247.753918 86.110769 
L 252.090838 83.627591 
L 256.427758 81.168931 
" clip-path="url(#p28826caf1e)" style="fill: none; stroke: #008000; stroke-width: 0.5; stroke-linecap: square"/>
   </g>
   <g id="line2d_76">
    <path d="M 191.373961 116.254752 
L 195.710881 113.362092 
L 200.047801 110.620454 
L 204.38472 107.860759 
L 208.72164 105.159311 
L 213.05856 102.452392 
L 217.39548 99.670056 
L 221.732399 96.834836 
L 226.069319 93.876804 
L 230.406239 90.984728 
L 234.743159 87.967695 
L 239.080079 84.84934 
L 243.416998 81.540759 
L 247.753918 77.923692 
L 252.090838 74.253552 
L 256.427758 70.681549 
" clip-path="url(#p28826caf1e)" style="fill: none; stroke: #008000; stroke-width: 0.5; stroke-linecap: square"/>
   </g>
   <g id="line2d_77">
    <path d="M 191.373961 116.254752 
L 195.710881 113.696228 
L 200.047801 111.23173 
L 204.38472 108.879498 
L 208.72164 106.591182 
L 213.05856 104.139163 
L 217.39548 101.622904 
L 221.732399 99.030343 
L 226.069319 96.353825 
L 230.406239 93.647012 
L 234.743159 90.940508 
L 239.080079 88.216336 
L 243.416998 85.33455 
L 247.753918 82.302747 
L 252.090838 79.318694 
L 256.427758 76.22554 
" clip-path="url(#p28826caf1e)" style="fill: none; stroke: #008000; stroke-width: 0.5; stroke-linecap: square"/>
   </g>
   <g id="line2d_78">
    <path d="M 191.373961 116.254752 
L 195.710881 113.552146 
L 200.047801 111.116556 
L 204.38472 108.681741 
L 208.72164 106.050953 
L 213.05856 103.442033 
L 217.39548 101.000814 
L 221.732399 98.51767 
L 226.069319 95.839594 
L 230.406239 93.269839 
L 234.743159 90.841836 
L 239.080079 88.275365 
L 243.416998 85.663743 
L 247.753918 83.187296 
L 252.090838 80.673681 
L 256.427758 78.212778 
" clip-path="url(#p28826caf1e)" style="fill: none; stroke: #008000; stroke-width: 0.5; stroke-linecap: square"/>
   </g>
   <g id="line2d_79">
    <path d="M 191.373961 116.254752 
L 195.710881 113.159514 
L 200.047801 110.114619 
L 204.38472 107.271998 
L 208.72164 104.44762 
L 213.05856 101.546815 
L 217.39548 98.687302 
L 221.732399 95.726289 
L 226.069319 92.796546 
L 230.406239 89.861078 
L 234.743159 86.902036 
L 239.080079 83.913042 
L 243.416998 80.849542 
L 247.753918 77.741195 
L 252.090838 74.660275 
L 256.427758 71.654067 
" clip-path="url(#p28826caf1e)" style="fill: none; stroke: #008000; stroke-width: 0.5; stroke-linecap: square"/>
   </g>
   <g id="line2d_80">
    <path d="M 191.373961 116.254752 
L 195.710881 113.055114 
L 200.047801 109.515905 
L 204.38472 105.873245 
L 208.72164 102.294178 
L 213.05856 98.698736 
L 217.39548 94.998975 
L 221.732399 91.178085 
L 226.069319 87.276582 
L 230.406239 83.27295 
L 234.743159 79.241159 
L 239.080079 75.104219 
L 243.416998 70.848427 
L 247.753918 66.420998 
L 252.090838 61.931854 
L 256.427758 57.224545 
" clip-path="url(#p28826caf1e)" style="fill: none; stroke: #008000; stroke-width: 0.5; stroke-linecap: square"/>
   </g>
   <g id="line2d_81">
    <path d="M 191.373961 116.254752 
L 195.710881 112.871045 
L 200.047801 109.26008 
L 204.38472 105.735935 
L 208.72164 102.338565 
L 213.05856 98.830678 
L 217.39548 95.481094 
L 221.732399 92.157647 
L 226.069319 88.96286 
L 230.406239 85.802058 
L 234.743159 82.665018 
L 239.080079 79.429204 
L 243.416998 75.891135 
L 247.753918 72.169499 
L 252.090838 68.246503 
L 256.427758 64.306522 
" clip-path="url(#p28826caf1e)" style="fill: none; stroke: #008000; stroke-width: 0.5; stroke-linecap: square"/>
   </g>
   <g id="line2d_82">
    <path d="M 191.373961 116.254752 
L 195.710881 112.894979 
L 200.047801 109.246838 
L 204.38472 105.423152 
L 208.72164 101.442833 
L 213.05856 97.308118 
L 217.39548 93.04425 
L 221.732399 88.690825 
L 226.069319 84.248075 
L 230.406239 79.719104 
L 234.743159 75.087885 
L 239.080079 70.324241 
L 243.416998 65.467445 
L 247.753918 60.492002 
L 252.090838 55.388409 
L 256.427758 50.179919 
" clip-path="url(#p28826caf1e)" style="fill: none; stroke: #808080; stroke-width: 3; stroke-linecap: square"/>
   </g>
   <g id="line2d_83">
    <path d="M 191.373961 116.223555 
L 195.710881 113.617691 
L 200.047801 111.002008 
L 204.38472 108.370131 
L 208.72164 105.710331 
L 213.05856 103.036468 
L 217.39548 100.37581 
L 221.732399 97.710606 
L 226.069319 95.01842 
L 230.406239 92.301418 
L 234.743159 89.585082 
L 239.080079 86.881727 
L 243.416998 84.179593 
L 247.753918 81.444781 
L 252.090838 78.688653 
L 256.427758 75.92074 
" clip-path="url(#p28826caf1e)" style="fill: none; stroke-dasharray: 5.55,2.4; stroke-dashoffset: 0; stroke: #0000ff; stroke-width: 1.5"/>
   </g>
   <g id="patch_9">
    <path d="M 188.121271 118.858041 
L 188.121271 14.72649 
" style="fill: none; stroke: #000000; stroke-width: 0.8; stroke-linejoin: miter; stroke-linecap: square"/>
   </g>
   <g id="patch_10">
    <path d="M 188.121271 118.858041 
L 259.680447 118.858041 
" style="fill: none; stroke: #000000; stroke-width: 0.8; stroke-linejoin: miter; stroke-linecap: square"/>
   </g>
   <g id="text_26">
    <!-- T=26°C -->
    <g transform="translate(210.184609 8.72649) scale(0.08 -0.08)">
     <defs>
      <path id="ArialMT-36" d="M 3184 3459 
L 2625 3416 
Q 2550 3747 2413 3897 
Q 2184 4138 1850 4138 
Q 1581 4138 1378 3988 
Q 1113 3794 959 3422 
Q 806 3050 800 2363 
Q 1003 2672 1297 2822 
Q 1591 2972 1913 2972 
Q 2475 2972 2870 2558 
Q 3266 2144 3266 1488 
Q 3266 1056 3080 686 
Q 2894 316 2569 119 
Q 2244 -78 1831 -78 
Q 1128 -78 684 439 
Q 241 956 241 2144 
Q 241 3472 731 4075 
Q 1159 4600 1884 4600 
Q 2425 4600 2770 4297 
Q 3116 3994 3184 3459 
z
M 888 1484 
Q 888 1194 1011 928 
Q 1134 663 1356 523 
Q 1578 384 1822 384 
Q 2178 384 2434 671 
Q 2691 959 2691 1453 
Q 2691 1928 2437 2201 
Q 2184 2475 1800 2475 
Q 1419 2475 1153 2201 
Q 888 1928 888 1484 
z
" transform="scale(0.015625)"/>
     </defs>
     <use xlink:href="#ArialMT-54"/>
     <use xlink:href="#ArialMT-3d" x="61.083984"/>
     <use xlink:href="#ArialMT-32" x="119.482422"/>
     <use xlink:href="#ArialMT-36" x="175.097656"/>
     <use xlink:href="#ArialMT-b0" x="230.712891"/>
     <use xlink:href="#ArialMT-43" x="270.703125"/>
    </g>
   </g>
  </g>
  <g id="axes_4">
   <g id="patch_11">
    <path d="M 269.180927 118.858041 
L 340.740104 118.858041 
L 340.740104 14.72649 
L 269.180927 14.72649 
L 269.180927 118.858041 
z
" style="fill: none"/>
   </g>
   <g id="line2d_84">
    <path d="M 272.433617 116.254752 
L 276.770537 112.083824 
L 281.107457 107.187773 
L 285.444377 101.957115 
L 289.781296 96.571477 
L 294.118216 91.125917 
L 298.455136 85.645884 
L 302.792056 80.157264 
L 307.128976 74.662888 
L 311.465895 69.161229 
L 315.802815 63.647699 
L 320.139735 58.123471 
L 324.476655 52.585314 
L 328.813574 47.035946 
L 333.150494 41.482445 
L 337.487414 35.918962 
" clip-path="url(#p7fac5d5b57)" style="fill: none; stroke: #ff00ff; stroke-linecap: square"/>
   </g>
   <g id="line2d_85">
    <path d="M 272.433617 116.254752 
L 276.770537 111.292533 
L 281.107457 104.890593 
L 285.444377 97.616895 
L 289.781296 89.809731 
L 294.118216 81.672383 
L 298.455136 73.326867 
L 302.792056 64.851177 
L 307.128976 56.293121 
L 311.465895 47.680823 
L 315.802815 39.036571 
L 320.139735 30.375618 
L 324.476655 21.711632 
L 328.813574 13.048417 
L 333.150494 4.388537 
L 335.851231 -1 
" clip-path="url(#p7fac5d5b57)" style="fill: none; stroke: #ff00ff; stroke-linecap: square"/>
   </g>
   <g id="line2d_86">
    <path d="M 272.433617 116.254752 
L 276.770537 112.175827 
L 281.107457 107.524599 
L 285.444377 102.636926 
L 289.781296 97.649798 
L 294.118216 92.621618 
L 298.455136 87.577112 
L 302.792056 82.530804 
L 307.128976 77.477 
L 311.465895 72.425643 
L 315.802815 67.376689 
L 320.139735 62.330038 
L 324.476655 57.28719 
L 328.813574 52.247037 
L 333.150494 47.21598 
L 337.487414 42.186682 
" clip-path="url(#p7fac5d5b57)" style="fill: none; stroke: #ff00ff; stroke-linecap: square"/>
   </g>
   <g id="line2d_87">
    <path d="M 272.433617 116.254752 
L 276.770537 112.187749 
L 281.107457 107.560265 
L 285.444377 102.710855 
L 289.781296 97.773437 
L 294.118216 92.795296 
L 298.455136 87.799483 
L 302.792056 82.791515 
L 307.128976 77.77086 
L 311.465895 72.743138 
L 315.802815 67.711606 
L 320.139735 62.675697 
L 324.476655 57.641265 
L 328.813574 52.607984 
L 333.150494 47.582363 
L 337.487414 42.562831 
" clip-path="url(#p7fac5d5b57)" style="fill: none; stroke: #ff00ff; stroke-linecap: square"/>
   </g>
   <g id="line2d_88">
    <path d="M 272.433617 116.254752 
L 276.770537 112.806824 
L 281.107457 109.176781 
L 285.444377 105.510667 
L 289.781296 101.847208 
L 294.118216 98.192914 
L 298.455136 94.5435 
L 302.792056 90.885524 
L 307.128976 87.229788 
L 311.465895 83.576027 
L 315.802815 79.933194 
L 320.139735 76.290438 
L 324.476655 72.648159 
L 328.813574 69.0137 
L 333.150494 65.383844 
L 337.487414 61.755403 
" clip-path="url(#p7fac5d5b57)" style="fill: none; stroke: #ff00ff; stroke-linecap: square"/>
   </g>
   <g id="line2d_89">
    <path d="M 272.433617 116.254752 
L 276.770537 112.431584 
L 281.107457 108.228188 
L 285.444377 103.900446 
L 289.781296 99.536209 
L 294.118216 95.163433 
L 298.455136 90.778566 
L 302.792056 86.390001 
L 307.128976 82.002109 
L 311.465895 77.617893 
L 315.802815 73.225665 
L 320.139735 68.830147 
L 324.476655 64.426647 
L 328.813574 60.016289 
L 333.150494 55.602776 
L 337.487414 51.185275 
" clip-path="url(#p7fac5d5b57)" style="fill: none; stroke: #ff00ff; stroke-linecap: square"/>
   </g>
   <g id="line2d_90">
    <path d="M 272.433617 116.254752 
L 276.770537 112.053341 
L 281.107457 107.185003 
L 285.444377 102.032063 
L 289.781296 96.757338 
L 294.118216 91.431958 
L 298.455136 86.085854 
L 302.792056 80.722578 
L 307.128976 75.353491 
L 311.465895 69.98813 
L 315.802815 64.634403 
L 320.139735 59.289535 
L 324.476655 53.950231 
L 328.813574 48.61343 
L 333.150494 43.284433 
L 337.487414 37.959723 
" clip-path="url(#p7fac5d5b57)" style="fill: none; stroke: #ff00ff; stroke-linecap: square"/>
   </g>
   <g id="line2d_91">
    <path d="M 272.433617 116.254752 
L 276.770537 112.093344 
L 281.107457 107.293635 
L 285.444377 102.231187 
L 289.781296 97.063693 
L 294.118216 91.854123 
L 298.455136 86.628788 
L 302.792056 81.385339 
L 307.128976 76.13424 
L 311.465895 70.876372 
L 315.802815 65.614245 
L 320.139735 60.353795 
L 324.476655 55.100541 
L 328.813574 49.851033 
L 333.150494 44.599921 
L 337.487414 39.349229 
" clip-path="url(#p7fac5d5b57)" style="fill: none; stroke: #ff00ff; stroke-linecap: square"/>
   </g>
   <g id="matplotlib.axis_7">
    <g id="xtick_13">
     <g id="line2d_92">
      <g>
       <use xlink:href="#m5138dd07ef" x="272.433617" y="118.858041" style="stroke: #000000; stroke-width: 0.8"/>
      </g>
     </g>
     <g id="text_27">
      <!-- $\mathdefault{0}$ -->
      <g transform="translate(271.033617 129.436948) scale(0.05 -0.05)">
       <use xlink:href="#ArialMT-30" transform="translate(0 0.125)"/>
      </g>
     </g>
    </g>
    <g id="xtick_14">
     <g id="line2d_93">
      <g>
       <use xlink:href="#m5138dd07ef" x="294.118216" y="118.858041" style="stroke: #000000; stroke-width: 0.8"/>
      </g>
     </g>
     <g id="text_28">
      <!-- $\mathdefault{5}$ -->
      <g transform="translate(292.718216 129.436948) scale(0.05 -0.05)">
       <use xlink:href="#ArialMT-35" transform="translate(0 0.390625)"/>
      </g>
     </g>
    </g>
    <g id="xtick_15">
     <g id="line2d_94">
      <g>
       <use xlink:href="#m5138dd07ef" x="315.802815" y="118.858041" style="stroke: #000000; stroke-width: 0.8"/>
      </g>
     </g>
     <g id="text_29">
      <!-- $\mathdefault{10}$ -->
      <g transform="translate(313.002815 129.436948) scale(0.05 -0.05)">
       <use xlink:href="#ArialMT-31" transform="translate(0 0.125)"/>
       <use xlink:href="#ArialMT-30" transform="translate(55.615234 0.125)"/>
      </g>
     </g>
    </g>
    <g id="xtick_16">
     <g id="line2d_95">
      <g>
       <use xlink:href="#m5138dd07ef" x="337.487414" y="118.858041" style="stroke: #000000; stroke-width: 0.8"/>
      </g>
     </g>
     <g id="text_30">
      <!-- $\mathdefault{15}$ -->
      <g transform="translate(334.687414 129.436948) scale(0.05 -0.05)">
       <use xlink:href="#ArialMT-31" transform="translate(0 0.125)"/>
       <use xlink:href="#ArialMT-35" transform="translate(55.615234 0.125)"/>
      </g>
     </g>
    </g>
   </g>
   <g id="matplotlib.axis_8">
    <g id="ytick_28">
     <g id="line2d_96">
      <g>
       <use xlink:href="#m6848f3b8df" x="269.180927" y="118.858041" style="stroke: #000000; stroke-width: 0.8"/>
      </g>
     </g>
    </g>
    <g id="ytick_29">
     <g id="line2d_97">
      <g>
       <use xlink:href="#m6848f3b8df" x="269.180927" y="105.841597" style="stroke: #000000; stroke-width: 0.8"/>
      </g>
     </g>
    </g>
    <g id="ytick_30">
     <g id="line2d_98">
      <g>
       <use xlink:href="#m6848f3b8df" x="269.180927" y="92.825153" style="stroke: #000000; stroke-width: 0.8"/>
      </g>
     </g>
    </g>
    <g id="ytick_31">
     <g id="line2d_99">
      <g>
       <use xlink:href="#m6848f3b8df" x="269.180927" y="79.80871" style="stroke: #000000; stroke-width: 0.8"/>
      </g>
     </g>
    </g>
    <g id="ytick_32">
     <g id="line2d_100">
      <g>
       <use xlink:href="#m6848f3b8df" x="269.180927" y="66.792266" style="stroke: #000000; stroke-width: 0.8"/>
      </g>
     </g>
    </g>
    <g id="ytick_33">
     <g id="line2d_101">
      <g>
       <use xlink:href="#m6848f3b8df" x="269.180927" y="53.775822" style="stroke: #000000; stroke-width: 0.8"/>
      </g>
     </g>
    </g>
    <g id="ytick_34">
     <g id="line2d_102">
      <g>
       <use xlink:href="#m6848f3b8df" x="269.180927" y="40.759378" style="stroke: #000000; stroke-width: 0.8"/>
      </g>
     </g>
    </g>
    <g id="ytick_35">
     <g id="line2d_103">
      <g>
       <use xlink:href="#m6848f3b8df" x="269.180927" y="27.742934" style="stroke: #000000; stroke-width: 0.8"/>
      </g>
     </g>
    </g>
    <g id="ytick_36">
     <g id="line2d_104">
      <g>
       <use xlink:href="#m6848f3b8df" x="269.180927" y="14.72649" style="stroke: #000000; stroke-width: 0.8"/>
      </g>
     </g>
    </g>
   </g>
   <g id="line2d_105">
    <path d="M 272.433617 116.254752 
L 276.770537 113.029015 
L 281.107457 109.53872 
L 285.444377 105.883443 
L 289.781296 102.089018 
L 294.118216 98.168497 
L 298.455136 94.110386 
L 302.792056 89.911005 
L 307.128976 85.621368 
L 311.465895 81.232061 
L 315.802815 76.835353 
L 320.139735 72.338659 
L 324.476655 67.765953 
L 328.813574 63.165729 
L 333.150494 58.492544 
L 337.487414 53.742675 
" clip-path="url(#p7fac5d5b57)" style="fill: none; stroke: #808080; stroke-width: 3; stroke-linecap: square"/>
   </g>
   <g id="line2d_106">
    <path d="M 272.433617 116.273673 
L 276.770537 113.6814 
L 281.107457 111.076204 
L 285.444377 108.484091 
L 289.781296 105.891073 
L 294.118216 103.298424 
L 298.455136 100.702476 
L 302.792056 98.117062 
L 307.128976 95.520283 
L 311.465895 92.923224 
L 315.802815 90.338042 
L 320.139735 87.770787 
L 324.476655 85.188023 
L 328.813574 82.612063 
L 333.150494 80.053406 
L 337.487414 77.482544 
" clip-path="url(#p7fac5d5b57)" style="fill: none; stroke-dasharray: 5.55,2.4; stroke-dashoffset: 0; stroke: #0000ff; stroke-width: 1.5"/>
   </g>
   <g id="patch_12">
    <path d="M 269.180927 118.858041 
L 269.180927 14.72649 
" style="fill: none; stroke: #000000; stroke-width: 0.8; stroke-linejoin: miter; stroke-linecap: square"/>
   </g>
   <g id="patch_13">
    <path d="M 269.180927 118.858041 
L 340.740104 118.858041 
" style="fill: none; stroke: #000000; stroke-width: 0.8; stroke-linejoin: miter; stroke-linecap: square"/>
   </g>
   <g id="text_31">
    <!-- T=30°C -->
    <g transform="translate(291.244266 8.72649) scale(0.08 -0.08)">
     <use xlink:href="#ArialMT-54"/>
     <use xlink:href="#ArialMT-3d" x="61.083984"/>
     <use xlink:href="#ArialMT-33" x="119.482422"/>
     <use xlink:href="#ArialMT-30" x="175.097656"/>
     <use xlink:href="#ArialMT-b0" x="230.712891"/>
     <use xlink:href="#ArialMT-43" x="270.703125"/>
    </g>
   </g>
  </g>
  <g id="axes_5">
   <g id="patch_14">
    <path d="M 350.240584 118.858041 
L 421.79976 118.858041 
L 421.79976 14.72649 
L 350.240584 14.72649 
L 350.240584 118.858041 
z
" style="fill: none"/>
   </g>
   <g id="line2d_107">
    <path d="M 353.493274 116.254752 
L 357.830193 112.074982 
L 362.167113 107.184575 
L 366.504033 101.944903 
L 370.840953 96.530856 
L 375.177872 91.02708 
L 379.514792 85.484967 
L 383.851712 79.927511 
L 388.188632 74.350979 
L 392.525552 68.768446 
L 396.862471 63.19171 
L 401.199391 57.62213 
L 405.536311 52.063222 
L 409.873231 46.505403 
L 414.21015 40.951771 
L 418.54707 35.397117 
" clip-path="url(#pc9d53ceb12)" style="fill: none; stroke: #ff00ff; stroke-linecap: square"/>
   </g>
   <g id="line2d_108">
    <path d="M 353.493274 116.254752 
L 357.830193 111.964006 
L 362.167113 106.944085 
L 366.504033 101.604798 
L 370.840953 96.127754 
L 375.177872 90.585178 
L 379.514792 85.023189 
L 383.851712 79.457699 
L 388.188632 73.896879 
L 392.525552 68.340424 
L 396.862471 62.783079 
L 401.199391 57.22171 
L 405.536311 51.655035 
L 409.873231 46.092737 
L 414.21015 40.532639 
L 418.54707 34.965218 
" clip-path="url(#pc9d53ceb12)" style="fill: none; stroke: #ff00ff; stroke-linecap: square"/>
   </g>
   <g id="line2d_109">
    <path d="M 353.493274 116.254752 
L 357.830193 112.908803 
L 362.167113 109.421231 
L 366.504033 105.902382 
L 370.840953 102.382685 
L 375.177872 98.852019 
L 379.514792 95.321071 
L 383.851712 91.795935 
L 388.188632 88.275307 
L 392.525552 84.76038 
L 396.862471 81.250583 
L 401.199391 77.736149 
L 405.536311 74.207433 
L 409.873231 70.669737 
L 414.21015 67.121249 
L 418.54707 63.565753 
" clip-path="url(#pc9d53ceb12)" style="fill: none; stroke: #ff00ff; stroke-linecap: square"/>
   </g>
   <g id="line2d_110">
    <path d="M 353.493274 116.254752 
L 357.830193 112.613032 
L 362.167113 108.668935 
L 366.504033 104.626352 
L 370.840953 100.551693 
L 375.177872 96.466843 
L 379.514792 92.374799 
L 383.851712 88.261827 
L 388.188632 84.144329 
L 392.525552 80.026473 
L 396.862471 75.915776 
L 401.199391 71.807555 
L 405.536311 67.704003 
L 409.873231 63.600744 
L 414.21015 59.496081 
L 418.54707 55.387513 
" clip-path="url(#pc9d53ceb12)" style="fill: none; stroke: #ff00ff; stroke-linecap: square"/>
   </g>
   <g id="matplotlib.axis_9">
    <g id="xtick_17">
     <g id="line2d_111">
      <g>
       <use xlink:href="#m5138dd07ef" x="353.493274" y="118.858041" style="stroke: #000000; stroke-width: 0.8"/>
      </g>
     </g>
     <g id="text_32">
      <!-- $\mathdefault{0}$ -->
      <g transform="translate(352.093274 129.436948) scale(0.05 -0.05)">
       <use xlink:href="#ArialMT-30" transform="translate(0 0.125)"/>
      </g>
     </g>
    </g>
    <g id="xtick_18">
     <g id="line2d_112">
      <g>
       <use xlink:href="#m5138dd07ef" x="375.177872" y="118.858041" style="stroke: #000000; stroke-width: 0.8"/>
      </g>
     </g>
     <g id="text_33">
      <!-- $\mathdefault{5}$ -->
      <g transform="translate(373.777872 129.436948) scale(0.05 -0.05)">
       <use xlink:href="#ArialMT-35" transform="translate(0 0.390625)"/>
      </g>
     </g>
    </g>
    <g id="xtick_19">
     <g id="line2d_113">
      <g>
       <use xlink:href="#m5138dd07ef" x="396.862471" y="118.858041" style="stroke: #000000; stroke-width: 0.8"/>
      </g>
     </g>
     <g id="text_34">
      <!-- $\mathdefault{10}$ -->
      <g transform="translate(394.062471 129.436948) scale(0.05 -0.05)">
       <use xlink:href="#ArialMT-31" transform="translate(0 0.125)"/>
       <use xlink:href="#ArialMT-30" transform="translate(55.615234 0.125)"/>
      </g>
     </g>
    </g>
    <g id="xtick_20">
     <g id="line2d_114">
      <g>
       <use xlink:href="#m5138dd07ef" x="418.54707" y="118.858041" style="stroke: #000000; stroke-width: 0.8"/>
      </g>
     </g>
     <g id="text_35">
      <!-- $\mathdefault{15}$ -->
      <g transform="translate(415.74707 129.436948) scale(0.05 -0.05)">
       <use xlink:href="#ArialMT-31" transform="translate(0 0.125)"/>
       <use xlink:href="#ArialMT-35" transform="translate(55.615234 0.125)"/>
      </g>
     </g>
    </g>
   </g>
   <g id="matplotlib.axis_10">
    <g id="ytick_37">
     <g id="line2d_115">
      <g>
       <use xlink:href="#m6848f3b8df" x="350.240584" y="118.858041" style="stroke: #000000; stroke-width: 0.8"/>
      </g>
     </g>
    </g>
    <g id="ytick_38">
     <g id="line2d_116">
      <g>
       <use xlink:href="#m6848f3b8df" x="350.240584" y="105.841597" style="stroke: #000000; stroke-width: 0.8"/>
      </g>
     </g>
    </g>
    <g id="ytick_39">
     <g id="line2d_117">
      <g>
       <use xlink:href="#m6848f3b8df" x="350.240584" y="92.825153" style="stroke: #000000; stroke-width: 0.8"/>
      </g>
     </g>
    </g>
    <g id="ytick_40">
     <g id="line2d_118">
      <g>
       <use xlink:href="#m6848f3b8df" x="350.240584" y="79.80871" style="stroke: #000000; stroke-width: 0.8"/>
      </g>
     </g>
    </g>
    <g id="ytick_41">
     <g id="line2d_119">
      <g>
       <use xlink:href="#m6848f3b8df" x="350.240584" y="66.792266" style="stroke: #000000; stroke-width: 0.8"/>
      </g>
     </g>
    </g>
    <g id="ytick_42">
     <g id="line2d_120">
      <g>
       <use xlink:href="#m6848f3b8df" x="350.240584" y="53.775822" style="stroke: #000000; stroke-width: 0.8"/>
      </g>
     </g>
    </g>
    <g id="ytick_43">
     <g id="line2d_121">
      <g>
       <use xlink:href="#m6848f3b8df" x="350.240584" y="40.759378" style="stroke: #000000; stroke-width: 0.8"/>
      </g>
     </g>
    </g>
    <g id="ytick_44">
     <g id="line2d_122">
      <g>
       <use xlink:href="#m6848f3b8df" x="350.240584" y="27.742934" style="stroke: #000000; stroke-width: 0.8"/>
      </g>
     </g>
    </g>
    <g id="ytick_45">
     <g id="line2d_123">
      <g>
       <use xlink:href="#m6848f3b8df" x="350.240584" y="14.72649" style="stroke: #000000; stroke-width: 0.8"/>
      </g>
     </g>
    </g>
   </g>
   <g id="line2d_124">
    <path d="M 353.493274 116.254752 
L 357.830193 113.219924 
L 362.167113 110.042024 
L 366.504033 106.72957 
L 370.840953 103.329889 
L 375.177872 99.825467 
L 379.514792 96.261 
L 383.851712 92.623092 
L 388.188632 88.88877 
L 392.525552 85.058436 
L 396.862471 81.139113 
L 401.199391 77.101375 
L 405.536311 72.995198 
L 409.873231 68.834984 
L 414.21015 64.59296 
L 418.54707 60.197245 
" clip-path="url(#pc9d53ceb12)" style="fill: none; stroke: #808080; stroke-width: 3; stroke-linecap: square"/>
   </g>
   <g id="line2d_125">
    <path d="M 353.493274 116.259583 
L 357.830193 113.657886 
L 362.167113 111.017465 
L 366.504033 108.364652 
L 370.840953 105.693258 
L 375.177872 102.99482 
L 379.514792 100.28261 
L 383.851712 97.544299 
L 388.188632 94.843075 
L 392.525552 92.17194 
L 396.862471 89.503856 
L 401.199391 86.851936 
L 405.536311 84.22395 
L 409.873231 81.546571 
L 414.21015 78.827747 
L 418.54707 76.112281 
" clip-path="url(#pc9d53ceb12)" style="fill: none; stroke-dasharray: 5.55,2.4; stroke-dashoffset: 0; stroke: #0000ff; stroke-width: 1.5"/>
   </g>
   <g id="patch_15">
    <path d="M 350.240584 118.858041 
L 350.240584 14.72649 
" style="fill: none; stroke: #000000; stroke-width: 0.8; stroke-linejoin: miter; stroke-linecap: square"/>
   </g>
   <g id="patch_16">
    <path d="M 350.240584 118.858041 
L 421.79976 118.858041 
" style="fill: none; stroke: #000000; stroke-width: 0.8; stroke-linejoin: miter; stroke-linecap: square"/>
   </g>
   <g id="text_36">
    <!-- T=33°C -->
    <g transform="translate(372.303922 8.72649) scale(0.08 -0.08)">
     <use xlink:href="#ArialMT-54"/>
     <use xlink:href="#ArialMT-3d" x="61.083984"/>
     <use xlink:href="#ArialMT-33" x="119.482422"/>
     <use xlink:href="#ArialMT-33" x="175.097656"/>
     <use xlink:href="#ArialMT-b0" x="230.712891"/>
     <use xlink:href="#ArialMT-43" x="270.703125"/>
    </g>
   </g>
  </g>
 </g>
 <defs>
  <clipPath id="pbd5eef7164">
   <rect x="26.001959" y="14.72649" width="71.559176" height="104.131551"/>
  </clipPath>
  <clipPath id="p5ad48dac55">
   <rect x="107.061615" y="14.72649" width="71.559176" height="104.131551"/>
  </clipPath>
  <clipPath id="p28826caf1e">
   <rect x="188.121271" y="14.72649" width="71.559176" height="104.131551"/>
  </clipPath>
  <clipPath id="p7fac5d5b57">
   <rect x="269.180927" y="14.72649" width="71.559176" height="104.131551"/>
  </clipPath>
  <clipPath id="pc9d53ceb12">
   <rect x="350.240584" y="14.72649" width="71.559176" height="104.131551"/>
  </clipPath>
 </defs>
</svg>
