<?xml version="1.0" encoding="utf-8" standalone="no"?>
<!DOCTYPE svg PUBLIC "-//W3C//DTD SVG 1.1//EN"
  "http://www.w3.org/Graphics/SVG/1.1/DTD/svg11.dtd">
<svg xmlns:xlink="http://www.w3.org/1999/xlink" width="216pt" height="57.6pt" viewBox="0 0 216 57.6" xmlns="http://www.w3.org/2000/svg" version="1.1">
 <metadata>
  <rdf:RDF xmlns:dc="http://purl.org/dc/elements/1.1/" xmlns:cc="http://creativecommons.org/ns#" xmlns:rdf="http://www.w3.org/1999/02/22-rdf-syntax-ns#">
   <cc:Work>
    <dc:type rdf:resource="http://purl.org/dc/dcmitype/StillImage"/>
    <dc:date>2024-07-03T17:18:39.551235</dc:date>
    <dc:format>image/svg+xml</dc:format>
    <dc:creator>
     <cc:Agent>
      <dc:title>Matplotlib v3.8.0, https://matplotlib.org/</dc:title>
     </cc:Agent>
    </dc:creator>
   </cc:Work>
  </rdf:RDF>
 </metadata>
 <defs>
  <style type="text/css">*{stroke-linejoin: round; stroke-linecap: butt}</style>
 </defs>
 <g id="figure_1">
  <g id="patch_1">
   <path d="M 0 57.6 
L 216 57.6 
L 216 0 
L 0 0 
L 0 57.6 
z
" style="fill: none"/>
  </g>
  <g id="axes_1">
   <g id="patch_2">
    <path d="M 27.48399 32.625385 
L 75.875813 32.625385 
L 75.875813 3.00024 
L 27.48399 3.00024 
L 27.48399 32.625385 
z
" style="fill: none"/>
   </g>
   <g id="patch_3">
    <path d="M 29.683618 32.625385 
L 31.200603 32.625385 
L 31.200603 32.483426 
L 29.683618 32.483426 
z
" clip-path="url(#pf57e3ed775)" style="fill: #3b4cc0; opacity: 0.25"/>
   </g>
   <g id="patch_4">
    <path d="M 31.200603 32.625385 
L 32.717588 32.625385 
L 32.717588 32.376956 
L 31.200603 32.376956 
z
" clip-path="url(#pf57e3ed775)" style="fill: #3b4cc0; opacity: 0.25"/>
   </g>
   <g id="patch_5">
    <path d="M 32.717588 32.625385 
L 34.234573 32.625385 
L 34.234573 32.164017 
L 32.717588 32.164017 
z
" clip-path="url(#pf57e3ed775)" style="fill: #3b4cc0; opacity: 0.25"/>
   </g>
   <g id="patch_6">
    <path d="M 34.234573 32.625385 
L 35.751559 32.625385 
L 35.751559 31.773629 
L 34.234573 31.773629 
z
" clip-path="url(#pf57e3ed775)" style="fill: #3b4cc0; opacity: 0.25"/>
   </g>
   <g id="patch_7">
    <path d="M 35.751559 32.625385 
L 37.268544 32.625385 
L 37.268544 31.276771 
L 35.751559 31.276771 
z
" clip-path="url(#pf57e3ed775)" style="fill: #3b4cc0; opacity: 0.25"/>
   </g>
   <g id="patch_8">
    <path d="M 37.268544 32.625385 
L 38.785529 32.625385 
L 38.785529 30.566974 
L 37.268544 30.566974 
z
" clip-path="url(#pf57e3ed775)" style="fill: #3b4cc0; opacity: 0.25"/>
   </g>
   <g id="patch_9">
    <path d="M 38.785529 32.625385 
L 40.302514 32.625385 
L 40.302514 29.040911 
L 38.785529 29.040911 
z
" clip-path="url(#pf57e3ed775)" style="fill: #3b4cc0; opacity: 0.25"/>
   </g>
   <g id="patch_10">
    <path d="M 40.302514 32.625385 
L 41.819499 32.625385 
L 41.819499 26.130744 
L 40.302514 26.130744 
z
" clip-path="url(#pf57e3ed775)" style="fill: #3b4cc0; opacity: 0.25"/>
   </g>
   <g id="patch_11">
    <path d="M 41.819499 32.625385 
L 43.336484 32.625385 
L 43.336484 24.072333 
L 41.819499 24.072333 
z
" clip-path="url(#pf57e3ed775)" style="fill: #3b4cc0; opacity: 0.25"/>
   </g>
   <g id="patch_12">
    <path d="M 43.336484 32.625385 
L 44.853469 32.625385 
L 44.853469 22.084902 
L 43.336484 22.084902 
z
" clip-path="url(#pf57e3ed775)" style="fill: #3b4cc0; opacity: 0.25"/>
   </g>
   <g id="patch_13">
    <path d="M 44.853469 32.625385 
L 46.370454 32.625385 
L 46.370454 19.529634 
L 44.853469 19.529634 
z
" clip-path="url(#pf57e3ed775)" style="fill: #3b4cc0; opacity: 0.25"/>
   </g>
   <g id="patch_14">
    <path d="M 46.370454 32.625385 
L 47.887439 32.625385 
L 47.887439 14.809485 
L 46.370454 14.809485 
z
" clip-path="url(#pf57e3ed775)" style="fill: #3b4cc0; opacity: 0.25"/>
   </g>
   <g id="patch_15">
    <path d="M 47.887439 32.625385 
L 49.404424 32.625385 
L 49.404424 12.822054 
L 47.887439 12.822054 
z
" clip-path="url(#pf57e3ed775)" style="fill: #3b4cc0; opacity: 0.25"/>
   </g>
   <g id="patch_16">
    <path d="M 49.404424 32.625385 
L 50.921409 32.625385 
L 50.921409 12.786564 
L 49.404424 12.786564 
z
" clip-path="url(#pf57e3ed775)" style="fill: #3b4cc0; opacity: 0.25"/>
   </g>
   <g id="patch_17">
    <path d="M 50.921409 32.625385 
L 52.438394 32.625385 
L 52.438394 16.442017 
L 50.921409 16.442017 
z
" clip-path="url(#pf57e3ed775)" style="fill: #3b4cc0; opacity: 0.25"/>
   </g>
   <g id="patch_18">
    <path d="M 52.438394 32.625385 
L 53.955379 32.625385 
L 53.955379 18.677877 
L 52.438394 18.677877 
z
" clip-path="url(#pf57e3ed775)" style="fill: #3b4cc0; opacity: 0.25"/>
   </g>
   <g id="patch_19">
    <path d="M 53.955379 32.625385 
L 55.472364 32.625385 
L 55.472364 23.149597 
L 53.955379 23.149597 
z
" clip-path="url(#pf57e3ed775)" style="fill: #3b4cc0; opacity: 0.25"/>
   </g>
   <g id="patch_20">
    <path d="M 55.472364 32.625385 
L 56.989349 32.625385 
L 56.989349 25.598396 
L 55.472364 25.598396 
z
" clip-path="url(#pf57e3ed775)" style="fill: #3b4cc0; opacity: 0.25"/>
   </g>
   <g id="patch_21">
    <path d="M 56.989349 32.625385 
L 58.506334 32.625385 
L 58.506334 28.260135 
L 56.989349 28.260135 
z
" clip-path="url(#pf57e3ed775)" style="fill: #3b4cc0; opacity: 0.25"/>
   </g>
   <g id="patch_22">
    <path d="M 58.506334 32.625385 
L 60.023319 32.625385 
L 60.023319 30.566974 
L 58.506334 30.566974 
z
" clip-path="url(#pf57e3ed775)" style="fill: #3b4cc0; opacity: 0.25"/>
   </g>
   <g id="patch_23">
    <path d="M 60.023319 32.625385 
L 61.540304 32.625385 
L 61.540304 31.347751 
L 60.023319 31.347751 
z
" clip-path="url(#pf57e3ed775)" style="fill: #3b4cc0; opacity: 0.25"/>
   </g>
   <g id="patch_24">
    <path d="M 61.540304 32.625385 
L 63.05729 32.625385 
L 63.05729 31.844608 
L 61.540304 31.844608 
z
" clip-path="url(#pf57e3ed775)" style="fill: #3b4cc0; opacity: 0.25"/>
   </g>
   <g id="patch_25">
    <path d="M 63.05729 32.625385 
L 64.574275 32.625385 
L 64.574275 32.341466 
L 63.05729 32.341466 
z
" clip-path="url(#pf57e3ed775)" style="fill: #3b4cc0; opacity: 0.25"/>
   </g>
   <g id="patch_26">
    <path d="M 64.574275 32.625385 
L 66.09126 32.625385 
L 66.09126 32.164017 
L 64.574275 32.164017 
z
" clip-path="url(#pf57e3ed775)" style="fill: #3b4cc0; opacity: 0.25"/>
   </g>
   <g id="patch_27">
    <path d="M 66.09126 32.625385 
L 67.608245 32.625385 
L 67.608245 32.234997 
L 66.09126 32.234997 
z
" clip-path="url(#pf57e3ed775)" style="fill: #3b4cc0; opacity: 0.25"/>
   </g>
   <g id="patch_28">
    <path d="M 67.608245 32.625385 
L 69.12523 32.625385 
L 69.12523 32.305976 
L 67.608245 32.305976 
z
" clip-path="url(#pf57e3ed775)" style="fill: #3b4cc0; opacity: 0.25"/>
   </g>
   <g id="patch_29">
    <path d="M 69.12523 32.625385 
L 70.642215 32.625385 
L 70.642215 32.412446 
L 69.12523 32.412446 
z
" clip-path="url(#pf57e3ed775)" style="fill: #3b4cc0; opacity: 0.25"/>
   </g>
   <g id="patch_30">
    <path d="M 70.642215 32.625385 
L 72.1592 32.625385 
L 72.1592 32.589895 
L 70.642215 32.589895 
z
" clip-path="url(#pf57e3ed775)" style="fill: #3b4cc0; opacity: 0.25"/>
   </g>
   <g id="patch_31">
    <path d="M 72.1592 32.625385 
L 73.676185 32.625385 
L 73.676185 32.412446 
L 72.1592 32.412446 
z
" clip-path="url(#pf57e3ed775)" style="fill: #3b4cc0; opacity: 0.25"/>
   </g>
   <g id="patch_32">
    <path d="M 29.683618 32.625385 
L 31.200603 32.625385 
L 31.200603 31.395142 
L 29.683618 31.395142 
z
" clip-path="url(#pf57e3ed775)" style="fill: #b40426; opacity: 0.25"/>
   </g>
   <g id="patch_33">
    <path d="M 31.200603 32.625385 
L 32.717588 32.625385 
L 32.717588 31.671947 
L 31.200603 31.671947 
z
" clip-path="url(#pf57e3ed775)" style="fill: #b40426; opacity: 0.25"/>
   </g>
   <g id="patch_34">
    <path d="M 32.717588 32.625385 
L 34.234573 32.625385 
L 34.234573 30.718509 
L 32.717588 30.718509 
z
" clip-path="url(#pf57e3ed775)" style="fill: #b40426; opacity: 0.25"/>
   </g>
   <g id="patch_35">
    <path d="M 34.234573 32.625385 
L 35.751559 32.625385 
L 35.751559 29.918851 
L 34.234573 29.918851 
z
" clip-path="url(#pf57e3ed775)" style="fill: #b40426; opacity: 0.25"/>
   </g>
   <g id="patch_36">
    <path d="M 35.751559 32.625385 
L 37.268544 32.625385 
L 37.268544 27.919707 
L 35.751559 27.919707 
z
" clip-path="url(#pf57e3ed775)" style="fill: #b40426; opacity: 0.25"/>
   </g>
   <g id="patch_37">
    <path d="M 37.268544 32.625385 
L 38.785529 32.625385 
L 38.785529 25.24393 
L 37.268544 25.24393 
z
" clip-path="url(#pf57e3ed775)" style="fill: #b40426; opacity: 0.25"/>
   </g>
   <g id="patch_38">
    <path d="M 38.785529 32.625385 
L 40.302514 32.625385 
L 40.302514 20.076911 
L 38.785529 20.076911 
z
" clip-path="url(#pf57e3ed775)" style="fill: #b40426; opacity: 0.25"/>
   </g>
   <g id="patch_39">
    <path d="M 40.302514 32.625385 
L 41.819499 32.625385 
L 41.819499 17.216597 
L 40.302514 17.216597 
z
" clip-path="url(#pf57e3ed775)" style="fill: #b40426; opacity: 0.25"/>
   </g>
   <g id="patch_40">
    <path d="M 41.819499 32.625385 
L 43.336484 32.625385 
L 43.336484 10.23497 
L 41.819499 10.23497 
z
" clip-path="url(#pf57e3ed775)" style="fill: #b40426; opacity: 0.25"/>
   </g>
   <g id="patch_41">
    <path d="M 43.336484 32.625385 
L 44.853469 32.625385 
L 44.853469 6.359706 
L 43.336484 6.359706 
z
" clip-path="url(#pf57e3ed775)" style="fill: #b40426; opacity: 0.25"/>
   </g>
   <g id="patch_42">
    <path d="M 44.853469 32.625385 
L 46.370454 32.625385 
L 46.370454 10.850092 
L 44.853469 10.850092 
z
" clip-path="url(#pf57e3ed775)" style="fill: #b40426; opacity: 0.25"/>
   </g>
   <g id="patch_43">
    <path d="M 46.370454 32.625385 
L 47.887439 32.625385 
L 47.887439 14.725356 
L 46.370454 14.725356 
z
" clip-path="url(#pf57e3ed775)" style="fill: #b40426; opacity: 0.25"/>
   </g>
   <g id="patch_44">
    <path d="M 47.887439 32.625385 
L 49.404424 32.625385 
L 49.404424 20.261447 
L 47.887439 20.261447 
z
" clip-path="url(#pf57e3ed775)" style="fill: #b40426; opacity: 0.25"/>
   </g>
   <g id="patch_45">
    <path d="M 49.404424 32.625385 
L 50.921409 32.625385 
L 50.921409 25.520734 
L 49.404424 25.520734 
z
" clip-path="url(#pf57e3ed775)" style="fill: #b40426; opacity: 0.25"/>
   </g>
   <g id="patch_46">
    <path d="M 50.921409 32.625385 
L 52.438394 32.625385 
L 52.438394 28.196512 
L 50.921409 28.196512 
z
" clip-path="url(#pf57e3ed775)" style="fill: #b40426; opacity: 0.25"/>
   </g>
   <g id="patch_47">
    <path d="M 52.438394 32.625385 
L 53.955379 32.625385 
L 53.955379 30.718509 
L 52.438394 30.718509 
z
" clip-path="url(#pf57e3ed775)" style="fill: #b40426; opacity: 0.25"/>
   </g>
   <g id="patch_48">
    <path d="M 53.955379 32.625385 
L 55.472364 32.625385 
L 55.472364 31.917996 
L 53.955379 31.917996 
z
" clip-path="url(#pf57e3ed775)" style="fill: #b40426; opacity: 0.25"/>
   </g>
   <g id="patch_49">
    <path d="M 55.472364 32.625385 
L 56.989349 32.625385 
L 56.989349 32.471605 
L 55.472364 32.471605 
z
" clip-path="url(#pf57e3ed775)" style="fill: #b40426; opacity: 0.25"/>
   </g>
   <g id="patch_50">
    <path d="M 56.989349 32.625385 
L 58.506334 32.625385 
L 58.506334 32.594629 
L 56.989349 32.594629 
z
" clip-path="url(#pf57e3ed775)" style="fill: #b40426; opacity: 0.25"/>
   </g>
   <g id="patch_51">
    <path d="M 58.506334 32.625385 
L 60.023319 32.625385 
L 60.023319 32.625385 
L 58.506334 32.625385 
z
" clip-path="url(#pf57e3ed775)" style="fill: #b40426; opacity: 0.25"/>
   </g>
   <g id="patch_52">
    <path d="M 60.023319 32.625385 
L 61.540304 32.625385 
L 61.540304 32.625385 
L 60.023319 32.625385 
z
" clip-path="url(#pf57e3ed775)" style="fill: #b40426; opacity: 0.25"/>
   </g>
   <g id="patch_53">
    <path d="M 61.540304 32.625385 
L 63.05729 32.625385 
L 63.05729 32.625385 
L 61.540304 32.625385 
z
" clip-path="url(#pf57e3ed775)" style="fill: #b40426; opacity: 0.25"/>
   </g>
   <g id="patch_54">
    <path d="M 63.05729 32.625385 
L 64.574275 32.625385 
L 64.574275 32.625385 
L 63.05729 32.625385 
z
" clip-path="url(#pf57e3ed775)" style="fill: #b40426; opacity: 0.25"/>
   </g>
   <g id="patch_55">
    <path d="M 64.574275 32.625385 
L 66.09126 32.625385 
L 66.09126 32.625385 
L 64.574275 32.625385 
z
" clip-path="url(#pf57e3ed775)" style="fill: #b40426; opacity: 0.25"/>
   </g>
   <g id="patch_56">
    <path d="M 66.09126 32.625385 
L 67.608245 32.625385 
L 67.608245 32.625385 
L 66.09126 32.625385 
z
" clip-path="url(#pf57e3ed775)" style="fill: #b40426; opacity: 0.25"/>
   </g>
   <g id="patch_57">
    <path d="M 67.608245 32.625385 
L 69.12523 32.625385 
L 69.12523 32.625385 
L 67.608245 32.625385 
z
" clip-path="url(#pf57e3ed775)" style="fill: #b40426; opacity: 0.25"/>
   </g>
   <g id="patch_58">
    <path d="M 69.12523 32.625385 
L 70.642215 32.625385 
L 70.642215 32.625385 
L 69.12523 32.625385 
z
" clip-path="url(#pf57e3ed775)" style="fill: #b40426; opacity: 0.25"/>
   </g>
   <g id="patch_59">
    <path d="M 70.642215 32.625385 
L 72.1592 32.625385 
L 72.1592 32.625385 
L 70.642215 32.625385 
z
" clip-path="url(#pf57e3ed775)" style="fill: #b40426; opacity: 0.25"/>
   </g>
   <g id="patch_60">
    <path d="M 72.1592 32.625385 
L 73.676185 32.625385 
L 73.676185 32.625385 
L 72.1592 32.625385 
z
" clip-path="url(#pf57e3ed775)" style="fill: #b40426; opacity: 0.25"/>
   </g>
   <g id="matplotlib.axis_1">
    <g id="xtick_1">
     <g id="line2d_1">
      <defs>
       <path id="mb1a61798d4" d="M 0 0 
L 0 3.5 
" style="stroke: #000000; stroke-width: 0.8"/>
      </defs>
      <g>
       <use xlink:href="#mb1a61798d4" x="38.419222" y="32.625385" style="stroke: #000000; stroke-width: 0.8"/>
      </g>
     </g>
     <g id="text_1">
      <!-- $\mathdefault{−5}$ -->
      <g transform="translate(35.544222 43.204291) scale(0.05 -0.05)">
       <defs>
        <path id="ArialMT-2212" d="M 3381 1997 
L 356 1997 
L 356 2522 
L 3381 2522 
L 3381 1997 
z
" transform="scale(0.015625)"/>
        <path id="ArialMT-35" d="M 266 1200 
L 856 1250 
Q 922 819 1161 601 
Q 1400 384 1738 384 
Q 2144 384 2425 690 
Q 2706 997 2706 1503 
Q 2706 1984 2436 2262 
Q 2166 2541 1728 2541 
Q 1456 2541 1237 2417 
Q 1019 2294 894 2097 
L 366 2166 
L 809 4519 
L 3088 4519 
L 3088 3981 
L 1259 3981 
L 1013 2750 
Q 1425 3038 1878 3038 
Q 2478 3038 2890 2622 
Q 3303 2206 3303 1553 
Q 3303 931 2941 478 
Q 2500 -78 1738 -78 
Q 1113 -78 717 272 
Q 322 622 266 1200 
z
" transform="scale(0.015625)"/>
       </defs>
       <use xlink:href="#ArialMT-2212" transform="translate(0 0.390625)"/>
       <use xlink:href="#ArialMT-35" transform="translate(58.398438 0.390625)"/>
      </g>
     </g>
    </g>
    <g id="xtick_2">
     <g id="line2d_2">
      <g>
       <use xlink:href="#mb1a61798d4" x="51.679902" y="32.625385" style="stroke: #000000; stroke-width: 0.8"/>
      </g>
     </g>
     <g id="text_2">
      <!-- $\mathdefault{0}$ -->
      <g transform="translate(50.279902 43.204291) scale(0.05 -0.05)">
       <defs>
        <path id="ArialMT-30" d="M 266 2259 
Q 266 3072 433 3567 
Q 600 4063 929 4331 
Q 1259 4600 1759 4600 
Q 2128 4600 2406 4451 
Q 2684 4303 2865 4023 
Q 3047 3744 3150 3342 
Q 3253 2941 3253 2259 
Q 3253 1453 3087 958 
Q 2922 463 2592 192 
Q 2263 -78 1759 -78 
Q 1097 -78 719 397 
Q 266 969 266 2259 
z
M 844 2259 
Q 844 1131 1108 757 
Q 1372 384 1759 384 
Q 2147 384 2411 759 
Q 2675 1134 2675 2259 
Q 2675 3391 2411 3762 
Q 2147 4134 1753 4134 
Q 1366 4134 1134 3806 
Q 844 3388 844 2259 
z
" transform="scale(0.015625)"/>
       </defs>
       <use xlink:href="#ArialMT-30" transform="translate(0 0.125)"/>
      </g>
     </g>
    </g>
    <g id="xtick_3">
     <g id="line2d_3">
      <g>
       <use xlink:href="#mb1a61798d4" x="64.940581" y="32.625385" style="stroke: #000000; stroke-width: 0.8"/>
      </g>
     </g>
     <g id="text_3">
      <!-- $\mathdefault{5}$ -->
      <g transform="translate(63.540581 43.204291) scale(0.05 -0.05)">
       <use xlink:href="#ArialMT-35" transform="translate(0 0.390625)"/>
      </g>
     </g>
    </g>
    <g id="text_4">
     <!-- $h^L$ -->
     <g transform="translate(47.724902 53.20851) scale(0.07 -0.07)">
      <defs>
       <path id="DejaVuSans-Oblique-68" d="M 3566 2113 
L 3156 0 
L 2578 0 
L 2988 2091 
Q 3016 2238 3031 2350 
Q 3047 2463 3047 2528 
Q 3047 2791 2881 2937 
Q 2716 3084 2419 3084 
Q 1956 3084 1617 2771 
Q 1278 2459 1178 1941 
L 800 0 
L 225 0 
L 1172 4863 
L 1747 4863 
L 1375 2950 
Q 1594 3244 1934 3414 
Q 2275 3584 2650 3584 
Q 3113 3584 3367 3334 
Q 3622 3084 3622 2631 
Q 3622 2519 3608 2391 
Q 3594 2263 3566 2113 
z
" transform="scale(0.015625)"/>
       <path id="DejaVuSans-Oblique-4c" d="M 1075 4666 
L 1709 4666 
L 909 525 
L 3181 525 
L 3078 0 
L 172 0 
L 1075 4666 
z
" transform="scale(0.015625)"/>
      </defs>
      <use xlink:href="#DejaVuSans-Oblique-68" transform="translate(0 0.684375)"/>
      <use xlink:href="#DejaVuSans-Oblique-4c" transform="translate(70.826615 38.965625) scale(0.7)"/>
     </g>
    </g>
   </g>
   <g id="matplotlib.axis_2">
    <g id="ytick_1">
     <g id="line2d_4">
      <defs>
       <path id="m5656bf6cfb" d="M 0 0 
L -3.5 0 
" style="stroke: #000000; stroke-width: 0.8"/>
      </defs>
      <g>
       <use xlink:href="#m5656bf6cfb" x="27.48399" y="32.625385" style="stroke: #000000; stroke-width: 0.8"/>
      </g>
     </g>
     <g id="text_5">
      <!-- $\mathdefault{0.0}$ -->
      <g transform="translate(13.48399 34.414838) scale(0.05 -0.05)">
       <defs>
        <path id="ArialMT-2e" d="M 581 0 
L 581 641 
L 1222 641 
L 1222 0 
L 581 0 
z
" transform="scale(0.015625)"/>
       </defs>
       <use xlink:href="#ArialMT-30" transform="translate(0 0.125)"/>
       <use xlink:href="#ArialMT-2e" transform="translate(55.615234 0.125)"/>
       <use xlink:href="#ArialMT-30" transform="translate(83.398438 0.125)"/>
      </g>
     </g>
    </g>
    <g id="ytick_2">
     <g id="line2d_5">
      <g>
       <use xlink:href="#m5656bf6cfb" x="27.48399" y="14.108" style="stroke: #000000; stroke-width: 0.8"/>
      </g>
     </g>
     <g id="text_6">
      <!-- $\mathdefault{0.2}$ -->
      <g transform="translate(13.48399 15.897453) scale(0.05 -0.05)">
       <defs>
        <path id="ArialMT-32" d="M 3222 541 
L 3222 0 
L 194 0 
Q 188 203 259 391 
Q 375 700 629 1000 
Q 884 1300 1366 1694 
Q 2113 2306 2375 2664 
Q 2638 3022 2638 3341 
Q 2638 3675 2398 3904 
Q 2159 4134 1775 4134 
Q 1369 4134 1125 3890 
Q 881 3647 878 3216 
L 300 3275 
Q 359 3922 746 4261 
Q 1134 4600 1788 4600 
Q 2447 4600 2831 4234 
Q 3216 3869 3216 3328 
Q 3216 3053 3103 2787 
Q 2991 2522 2730 2228 
Q 2469 1934 1863 1422 
Q 1356 997 1212 845 
Q 1069 694 975 541 
L 3222 541 
z
" transform="scale(0.015625)"/>
       </defs>
       <use xlink:href="#ArialMT-30" transform="translate(0 0.125)"/>
       <use xlink:href="#ArialMT-2e" transform="translate(55.615234 0.125)"/>
       <use xlink:href="#ArialMT-32" transform="translate(83.398438 0.125)"/>
      </g>
     </g>
    </g>
    <g id="text_7">
     <!-- Density -->
     <g transform="translate(8.010709 29.483125) rotate(-90) scale(0.07 -0.07)">
      <defs>
       <path id="ArialMT-44" d="M 494 0 
L 494 4581 
L 2072 4581 
Q 2606 4581 2888 4516 
Q 3281 4425 3559 4188 
Q 3922 3881 4101 3404 
Q 4281 2928 4281 2316 
Q 4281 1794 4159 1391 
Q 4038 988 3847 723 
Q 3656 459 3429 307 
Q 3203 156 2883 78 
Q 2563 0 2147 0 
L 494 0 
z
M 1100 541 
L 2078 541 
Q 2531 541 2789 625 
Q 3047 709 3200 863 
Q 3416 1078 3536 1442 
Q 3656 1806 3656 2325 
Q 3656 3044 3420 3430 
Q 3184 3816 2847 3947 
Q 2603 4041 2063 4041 
L 1100 4041 
L 1100 541 
z
" transform="scale(0.015625)"/>
       <path id="ArialMT-65" d="M 2694 1069 
L 3275 997 
Q 3138 488 2766 206 
Q 2394 -75 1816 -75 
Q 1088 -75 661 373 
Q 234 822 234 1631 
Q 234 2469 665 2931 
Q 1097 3394 1784 3394 
Q 2450 3394 2872 2941 
Q 3294 2488 3294 1666 
Q 3294 1616 3291 1516 
L 816 1516 
Q 847 969 1125 678 
Q 1403 388 1819 388 
Q 2128 388 2347 550 
Q 2566 713 2694 1069 
z
M 847 1978 
L 2700 1978 
Q 2663 2397 2488 2606 
Q 2219 2931 1791 2931 
Q 1403 2931 1139 2672 
Q 875 2413 847 1978 
z
" transform="scale(0.015625)"/>
       <path id="ArialMT-6e" d="M 422 0 
L 422 3319 
L 928 3319 
L 928 2847 
Q 1294 3394 1984 3394 
Q 2284 3394 2536 3286 
Q 2788 3178 2913 3003 
Q 3038 2828 3088 2588 
Q 3119 2431 3119 2041 
L 3119 0 
L 2556 0 
L 2556 2019 
Q 2556 2363 2490 2533 
Q 2425 2703 2258 2804 
Q 2091 2906 1866 2906 
Q 1506 2906 1245 2678 
Q 984 2450 984 1813 
L 984 0 
L 422 0 
z
" transform="scale(0.015625)"/>
       <path id="ArialMT-73" d="M 197 991 
L 753 1078 
Q 800 744 1014 566 
Q 1228 388 1613 388 
Q 2000 388 2187 545 
Q 2375 703 2375 916 
Q 2375 1106 2209 1216 
Q 2094 1291 1634 1406 
Q 1016 1563 777 1677 
Q 538 1791 414 1992 
Q 291 2194 291 2438 
Q 291 2659 392 2848 
Q 494 3038 669 3163 
Q 800 3259 1026 3326 
Q 1253 3394 1513 3394 
Q 1903 3394 2198 3281 
Q 2494 3169 2634 2976 
Q 2775 2784 2828 2463 
L 2278 2388 
Q 2241 2644 2061 2787 
Q 1881 2931 1553 2931 
Q 1166 2931 1000 2803 
Q 834 2675 834 2503 
Q 834 2394 903 2306 
Q 972 2216 1119 2156 
Q 1203 2125 1616 2013 
Q 2213 1853 2448 1751 
Q 2684 1650 2818 1456 
Q 2953 1263 2953 975 
Q 2953 694 2789 445 
Q 2625 197 2315 61 
Q 2006 -75 1616 -75 
Q 969 -75 630 194 
Q 291 463 197 991 
z
" transform="scale(0.015625)"/>
       <path id="ArialMT-69" d="M 425 3934 
L 425 4581 
L 988 4581 
L 988 3934 
L 425 3934 
z
M 425 0 
L 425 3319 
L 988 3319 
L 988 0 
L 425 0 
z
" transform="scale(0.015625)"/>
       <path id="ArialMT-74" d="M 1650 503 
L 1731 6 
Q 1494 -44 1306 -44 
Q 1000 -44 831 53 
Q 663 150 594 308 
Q 525 466 525 972 
L 525 2881 
L 113 2881 
L 113 3319 
L 525 3319 
L 525 4141 
L 1084 4478 
L 1084 3319 
L 1650 3319 
L 1650 2881 
L 1084 2881 
L 1084 941 
Q 1084 700 1114 631 
Q 1144 563 1211 522 
Q 1278 481 1403 481 
Q 1497 481 1650 503 
z
" transform="scale(0.015625)"/>
       <path id="ArialMT-79" d="M 397 -1278 
L 334 -750 
Q 519 -800 656 -800 
Q 844 -800 956 -737 
Q 1069 -675 1141 -563 
Q 1194 -478 1313 -144 
Q 1328 -97 1363 -6 
L 103 3319 
L 709 3319 
L 1400 1397 
Q 1534 1031 1641 628 
Q 1738 1016 1872 1384 
L 2581 3319 
L 3144 3319 
L 1881 -56 
Q 1678 -603 1566 -809 
Q 1416 -1088 1222 -1217 
Q 1028 -1347 759 -1347 
Q 597 -1347 397 -1278 
z
" transform="scale(0.015625)"/>
      </defs>
      <use xlink:href="#ArialMT-44"/>
      <use xlink:href="#ArialMT-65" x="72.216797"/>
      <use xlink:href="#ArialMT-6e" x="127.832031"/>
      <use xlink:href="#ArialMT-73" x="183.447266"/>
      <use xlink:href="#ArialMT-69" x="233.447266"/>
      <use xlink:href="#ArialMT-74" x="255.664062"/>
      <use xlink:href="#ArialMT-79" x="283.447266"/>
     </g>
    </g>
   </g>
   <g id="line2d_6">
    <path d="M 29.683618 32.473168 
L 31.200603 32.321181 
L 32.717588 32.078195 
L 34.234573 31.700434 
L 35.751559 31.108612 
L 37.268544 30.193945 
L 38.785529 28.8689 
L 40.302514 27.126963 
L 41.819499 25.037022 
L 43.336484 22.687423 
L 44.853469 20.208485 
L 46.370454 17.898346 
L 47.887439 16.251854 
L 49.404424 15.744563 
L 50.921409 16.546974 
L 52.438394 18.447439 
L 53.955379 21.003912 
L 55.472364 23.741876 
L 56.989349 26.281619 
L 58.506334 28.387144 
L 60.023319 29.961166 
L 61.540304 31.019798 
L 63.05729 31.659032 
L 64.574275 32.00866 
L 66.09126 32.189424 
L 67.608245 32.290115 
L 69.12523 32.362422 
L 70.642215 32.42754 
L 72.1592 32.488877 
L 73.676185 32.542516 
" clip-path="url(#pf57e3ed775)" style="fill: none; stroke: #3b4cc0; stroke-width: 1.5; stroke-linecap: square"/>
   </g>
   <g id="line2d_7">
    <path d="M 29.683618 32.015876 
L 31.200603 31.532601 
L 32.717588 30.859916 
L 34.234573 29.824339 
L 35.751559 28.160198 
L 37.268544 25.633457 
L 38.785529 22.217744 
L 40.302514 18.192141 
L 41.819499 14.223885 
L 43.336484 11.530487 
L 44.853469 11.340866 
L 46.370454 13.782333 
L 47.887439 17.814913 
L 49.404424 22.14533 
L 50.921409 25.893367 
L 52.438394 28.720859 
L 53.955379 30.624235 
L 55.472364 31.73974 
L 56.989349 32.290377 
L 58.506334 32.517178 
L 60.023319 32.595917 
L 61.540304 32.618927 
L 63.05729 32.624327 
L 64.574275 32.625264 
L 66.09126 32.625376 
L 67.608245 32.625385 
L 69.12523 32.625385 
L 70.642215 32.625385 
L 72.1592 32.625385 
L 73.676185 32.625385 
" clip-path="url(#pf57e3ed775)" style="fill: none; stroke: #b40426; stroke-width: 1.5; stroke-linecap: square"/>
   </g>
   <g id="patch_61">
    <path d="M 27.48399 32.625385 
L 27.48399 3.00024 
" style="fill: none; stroke: #000000; stroke-width: 0.8; stroke-linejoin: miter; stroke-linecap: square"/>
   </g>
   <g id="patch_62">
    <path d="M 27.48399 32.625385 
L 75.875813 32.625385 
" style="fill: none; stroke: #000000; stroke-width: 0.8; stroke-linejoin: miter; stroke-linecap: square"/>
   </g>
  </g>
  <g id="axes_2">
   <g id="patch_63">
    <path d="M 85.376293 32.625385 
L 133.768116 32.625385 
L 133.768116 3.00024 
L 85.376293 3.00024 
L 85.376293 32.625385 
z
" style="fill: none"/>
   </g>
   <g id="patch_64">
    <path d="M 87.575922 32.625385 
L 89.092907 32.625385 
L 89.092907 31.48971 
L 87.575922 31.48971 
z
" clip-path="url(#p5ba624f379)" style="fill: #3b4cc0; opacity: 0.25"/>
   </g>
   <g id="patch_65">
    <path d="M 89.092907 32.625385 
L 90.609892 32.625385 
L 90.609892 31.59618 
L 89.092907 31.59618 
z
" clip-path="url(#p5ba624f379)" style="fill: #3b4cc0; opacity: 0.25"/>
   </g>
   <g id="patch_66">
    <path d="M 90.609892 32.625385 
L 92.126877 32.625385 
L 92.126877 30.779913 
L 90.609892 30.779913 
z
" clip-path="url(#p5ba624f379)" style="fill: #3b4cc0; opacity: 0.25"/>
   </g>
   <g id="patch_67">
    <path d="M 92.126877 32.625385 
L 93.643862 32.625385 
L 93.643862 29.28934 
L 92.126877 29.28934 
z
" clip-path="url(#p5ba624f379)" style="fill: #3b4cc0; opacity: 0.25"/>
   </g>
   <g id="patch_68">
    <path d="M 93.643862 32.625385 
L 95.160847 32.625385 
L 95.160847 26.024275 
L 93.643862 26.024275 
z
" clip-path="url(#p5ba624f379)" style="fill: #3b4cc0; opacity: 0.25"/>
   </g>
   <g id="patch_69">
    <path d="M 95.160847 32.625385 
L 96.677832 32.625385 
L 96.677832 24.74664 
L 95.160847 24.74664 
z
" clip-path="url(#p5ba624f379)" style="fill: #3b4cc0; opacity: 0.25"/>
   </g>
   <g id="patch_70">
    <path d="M 96.677832 32.625385 
L 98.194817 32.625385 
L 98.194817 20.665308 
L 96.677832 20.665308 
z
" clip-path="url(#p5ba624f379)" style="fill: #3b4cc0; opacity: 0.25"/>
   </g>
   <g id="patch_71">
    <path d="M 98.194817 32.625385 
L 99.711802 32.625385 
L 99.711802 17.151814 
L 98.194817 17.151814 
z
" clip-path="url(#p5ba624f379)" style="fill: #3b4cc0; opacity: 0.25"/>
   </g>
   <g id="patch_72">
    <path d="M 99.711802 32.625385 
L 101.228787 32.625385 
L 101.228787 14.773995 
L 99.711802 14.773995 
z
" clip-path="url(#p5ba624f379)" style="fill: #3b4cc0; opacity: 0.25"/>
   </g>
   <g id="patch_73">
    <path d="M 101.228787 32.625385 
L 102.745772 32.625385 
L 102.745772 15.306342 
L 101.228787 15.306342 
z
" clip-path="url(#p5ba624f379)" style="fill: #3b4cc0; opacity: 0.25"/>
   </g>
   <g id="patch_74">
    <path d="M 102.745772 32.625385 
L 104.262757 32.625385 
L 104.262757 16.122609 
L 102.745772 16.122609 
z
" clip-path="url(#p5ba624f379)" style="fill: #3b4cc0; opacity: 0.25"/>
   </g>
   <g id="patch_75">
    <path d="M 104.262757 32.625385 
L 105.779742 32.625385 
L 105.779742 20.523349 
L 104.262757 20.523349 
z
" clip-path="url(#p5ba624f379)" style="fill: #3b4cc0; opacity: 0.25"/>
   </g>
   <g id="patch_76">
    <path d="M 105.779742 32.625385 
L 107.296727 32.625385 
L 107.296727 21.730004 
L 105.779742 21.730004 
z
" clip-path="url(#p5ba624f379)" style="fill: #3b4cc0; opacity: 0.25"/>
   </g>
   <g id="patch_77">
    <path d="M 107.296727 32.625385 
L 108.813712 32.625385 
L 108.813712 22.865679 
L 107.296727 22.865679 
z
" clip-path="url(#p5ba624f379)" style="fill: #3b4cc0; opacity: 0.25"/>
   </g>
   <g id="patch_78">
    <path d="M 108.813712 32.625385 
L 110.330697 32.625385 
L 110.330697 23.291557 
L 108.813712 23.291557 
z
" clip-path="url(#p5ba624f379)" style="fill: #3b4cc0; opacity: 0.25"/>
   </g>
   <g id="patch_79">
    <path d="M 110.330697 32.625385 
L 111.847682 32.625385 
L 111.847682 24.498211 
L 110.330697 24.498211 
z
" clip-path="url(#p5ba624f379)" style="fill: #3b4cc0; opacity: 0.25"/>
   </g>
   <g id="patch_80">
    <path d="M 111.847682 32.625385 
L 113.364667 32.625385 
L 113.364667 27.905236 
L 111.847682 27.905236 
z
" clip-path="url(#p5ba624f379)" style="fill: #3b4cc0; opacity: 0.25"/>
   </g>
   <g id="patch_81">
    <path d="M 113.364667 32.625385 
L 114.881653 32.625385 
L 114.881653 29.963647 
L 113.364667 29.963647 
z
" clip-path="url(#p5ba624f379)" style="fill: #3b4cc0; opacity: 0.25"/>
   </g>
   <g id="patch_82">
    <path d="M 114.881653 32.625385 
L 116.398638 32.625385 
L 116.398638 31.41873 
L 114.881653 31.41873 
z
" clip-path="url(#p5ba624f379)" style="fill: #3b4cc0; opacity: 0.25"/>
   </g>
   <g id="patch_83">
    <path d="M 116.398638 32.625385 
L 117.915623 32.625385 
L 117.915623 31.809119 
L 116.398638 31.809119 
z
" clip-path="url(#p5ba624f379)" style="fill: #3b4cc0; opacity: 0.25"/>
   </g>
   <g id="patch_84">
    <path d="M 117.915623 32.625385 
L 119.432608 32.625385 
L 119.432608 32.164017 
L 117.915623 32.164017 
z
" clip-path="url(#p5ba624f379)" style="fill: #3b4cc0; opacity: 0.25"/>
   </g>
   <g id="patch_85">
    <path d="M 119.432608 32.625385 
L 120.949593 32.625385 
L 120.949593 32.376956 
L 119.432608 32.376956 
z
" clip-path="url(#p5ba624f379)" style="fill: #3b4cc0; opacity: 0.25"/>
   </g>
   <g id="patch_86">
    <path d="M 120.949593 32.625385 
L 122.466578 32.625385 
L 122.466578 32.412446 
L 120.949593 32.412446 
z
" clip-path="url(#p5ba624f379)" style="fill: #3b4cc0; opacity: 0.25"/>
   </g>
   <g id="patch_87">
    <path d="M 122.466578 32.625385 
L 123.983563 32.625385 
L 123.983563 32.483426 
L 122.466578 32.483426 
z
" clip-path="url(#p5ba624f379)" style="fill: #3b4cc0; opacity: 0.25"/>
   </g>
   <g id="patch_88">
    <path d="M 123.983563 32.625385 
L 125.500548 32.625385 
L 125.500548 32.447936 
L 123.983563 32.447936 
z
" clip-path="url(#p5ba624f379)" style="fill: #3b4cc0; opacity: 0.25"/>
   </g>
   <g id="patch_89">
    <path d="M 125.500548 32.625385 
L 127.017533 32.625385 
L 127.017533 32.554405 
L 125.500548 32.554405 
z
" clip-path="url(#p5ba624f379)" style="fill: #3b4cc0; opacity: 0.25"/>
   </g>
   <g id="patch_90">
    <path d="M 127.017533 32.625385 
L 128.534518 32.625385 
L 128.534518 32.625385 
L 127.017533 32.625385 
z
" clip-path="url(#p5ba624f379)" style="fill: #3b4cc0; opacity: 0.25"/>
   </g>
   <g id="patch_91">
    <path d="M 128.534518 32.625385 
L 130.051503 32.625385 
L 130.051503 32.625385 
L 128.534518 32.625385 
z
" clip-path="url(#p5ba624f379)" style="fill: #3b4cc0; opacity: 0.25"/>
   </g>
   <g id="patch_92">
    <path d="M 130.051503 32.625385 
L 131.568488 32.625385 
L 131.568488 32.625385 
L 130.051503 32.625385 
z
" clip-path="url(#p5ba624f379)" style="fill: #3b4cc0; opacity: 0.25"/>
   </g>
   <g id="patch_93">
    <path d="M 87.575922 32.625385 
L 89.092907 32.625385 
L 89.092907 31.548923 
L 87.575922 31.548923 
z
" clip-path="url(#p5ba624f379)" style="fill: #b40426; opacity: 0.25"/>
   </g>
   <g id="patch_94">
    <path d="M 89.092907 32.625385 
L 90.609892 32.625385 
L 90.609892 31.610435 
L 89.092907 31.610435 
z
" clip-path="url(#p5ba624f379)" style="fill: #b40426; opacity: 0.25"/>
   </g>
   <g id="patch_95">
    <path d="M 90.609892 32.625385 
L 92.126877 32.625385 
L 92.126877 29.949607 
L 90.609892 29.949607 
z
" clip-path="url(#p5ba624f379)" style="fill: #b40426; opacity: 0.25"/>
   </g>
   <g id="patch_96">
    <path d="M 92.126877 32.625385 
L 93.643862 32.625385 
L 93.643862 28.750121 
L 92.126877 28.750121 
z
" clip-path="url(#p5ba624f379)" style="fill: #b40426; opacity: 0.25"/>
   </g>
   <g id="patch_97">
    <path d="M 93.643862 32.625385 
L 95.160847 32.625385 
L 95.160847 26.166612 
L 93.643862 26.166612 
z
" clip-path="url(#p5ba624f379)" style="fill: #b40426; opacity: 0.25"/>
   </g>
   <g id="patch_98">
    <path d="M 95.160847 32.625385 
L 96.677832 32.625385 
L 96.677832 22.752688 
L 95.160847 22.752688 
z
" clip-path="url(#p5ba624f379)" style="fill: #b40426; opacity: 0.25"/>
   </g>
   <g id="patch_99">
    <path d="M 96.677832 32.625385 
L 98.194817 32.625385 
L 98.194817 18.354571 
L 96.677832 18.354571 
z
" clip-path="url(#p5ba624f379)" style="fill: #b40426; opacity: 0.25"/>
   </g>
   <g id="patch_100">
    <path d="M 98.194817 32.625385 
L 99.711802 32.625385 
L 99.711802 15.955598 
L 98.194817 15.955598 
z
" clip-path="url(#p5ba624f379)" style="fill: #b40426; opacity: 0.25"/>
   </g>
   <g id="patch_101">
    <path d="M 99.711802 32.625385 
L 101.228787 32.625385 
L 101.228787 17.247353 
L 99.711802 17.247353 
z
" clip-path="url(#p5ba624f379)" style="fill: #b40426; opacity: 0.25"/>
   </g>
   <g id="patch_102">
    <path d="M 101.228787 32.625385 
L 102.745772 32.625385 
L 102.745772 16.109379 
L 101.228787 16.109379 
z
" clip-path="url(#p5ba624f379)" style="fill: #b40426; opacity: 0.25"/>
   </g>
   <g id="patch_103">
    <path d="M 102.745772 32.625385 
L 104.262757 32.625385 
L 104.262757 18.7544 
L 102.745772 18.7544 
z
" clip-path="url(#p5ba624f379)" style="fill: #b40426; opacity: 0.25"/>
   </g>
   <g id="patch_104">
    <path d="M 104.262757 32.625385 
L 105.779742 32.625385 
L 105.779742 18.662132 
L 104.262757 18.662132 
z
" clip-path="url(#p5ba624f379)" style="fill: #b40426; opacity: 0.25"/>
   </g>
   <g id="patch_105">
    <path d="M 105.779742 32.625385 
L 107.296727 32.625385 
L 107.296727 22.137567 
L 105.779742 22.137567 
z
" clip-path="url(#p5ba624f379)" style="fill: #b40426; opacity: 0.25"/>
   </g>
   <g id="patch_106">
    <path d="M 107.296727 32.625385 
L 108.813712 32.625385 
L 108.813712 22.383616 
L 107.296727 22.383616 
z
" clip-path="url(#p5ba624f379)" style="fill: #b40426; opacity: 0.25"/>
   </g>
   <g id="patch_107">
    <path d="M 108.813712 32.625385 
L 110.330697 32.625385 
L 110.330697 23.921419 
L 108.813712 23.921419 
z
" clip-path="url(#p5ba624f379)" style="fill: #b40426; opacity: 0.25"/>
   </g>
   <g id="patch_108">
    <path d="M 110.330697 32.625385 
L 111.847682 32.625385 
L 111.847682 25.951319 
L 110.330697 25.951319 
z
" clip-path="url(#p5ba624f379)" style="fill: #b40426; opacity: 0.25"/>
   </g>
   <g id="patch_109">
    <path d="M 111.847682 32.625385 
L 113.364667 32.625385 
L 113.364667 28.780877 
L 111.847682 28.780877 
z
" clip-path="url(#p5ba624f379)" style="fill: #b40426; opacity: 0.25"/>
   </g>
   <g id="patch_110">
    <path d="M 113.364667 32.625385 
L 114.881653 32.625385 
L 114.881653 30.226412 
L 113.364667 30.226412 
z
" clip-path="url(#p5ba624f379)" style="fill: #b40426; opacity: 0.25"/>
   </g>
   <g id="patch_111">
    <path d="M 114.881653 32.625385 
L 116.398638 32.625385 
L 116.398638 31.671947 
L 114.881653 31.671947 
z
" clip-path="url(#p5ba624f379)" style="fill: #b40426; opacity: 0.25"/>
   </g>
   <g id="patch_112">
    <path d="M 116.398638 32.625385 
L 117.915623 32.625385 
L 117.915623 31.917996 
L 116.398638 31.917996 
z
" clip-path="url(#p5ba624f379)" style="fill: #b40426; opacity: 0.25"/>
   </g>
   <g id="patch_113">
    <path d="M 117.915623 32.625385 
L 119.432608 32.625385 
L 119.432608 31.887239 
L 117.915623 31.887239 
z
" clip-path="url(#p5ba624f379)" style="fill: #b40426; opacity: 0.25"/>
   </g>
   <g id="patch_114">
    <path d="M 119.432608 32.625385 
L 120.949593 32.625385 
L 120.949593 32.071776 
L 119.432608 32.071776 
z
" clip-path="url(#p5ba624f379)" style="fill: #b40426; opacity: 0.25"/>
   </g>
   <g id="patch_115">
    <path d="M 120.949593 32.625385 
L 122.466578 32.625385 
L 122.466578 32.34858 
L 120.949593 32.34858 
z
" clip-path="url(#p5ba624f379)" style="fill: #b40426; opacity: 0.25"/>
   </g>
   <g id="patch_116">
    <path d="M 122.466578 32.625385 
L 123.983563 32.625385 
L 123.983563 32.440849 
L 122.466578 32.440849 
z
" clip-path="url(#p5ba624f379)" style="fill: #b40426; opacity: 0.25"/>
   </g>
   <g id="patch_117">
    <path d="M 123.983563 32.625385 
L 125.500548 32.625385 
L 125.500548 32.440849 
L 123.983563 32.440849 
z
" clip-path="url(#p5ba624f379)" style="fill: #b40426; opacity: 0.25"/>
   </g>
   <g id="patch_118">
    <path d="M 125.500548 32.625385 
L 127.017533 32.625385 
L 127.017533 32.471605 
L 125.500548 32.471605 
z
" clip-path="url(#p5ba624f379)" style="fill: #b40426; opacity: 0.25"/>
   </g>
   <g id="patch_119">
    <path d="M 127.017533 32.625385 
L 128.534518 32.625385 
L 128.534518 32.625385 
L 127.017533 32.625385 
z
" clip-path="url(#p5ba624f379)" style="fill: #b40426; opacity: 0.25"/>
   </g>
   <g id="patch_120">
    <path d="M 128.534518 32.625385 
L 130.051503 32.625385 
L 130.051503 32.625385 
L 128.534518 32.625385 
z
" clip-path="url(#p5ba624f379)" style="fill: #b40426; opacity: 0.25"/>
   </g>
   <g id="patch_121">
    <path d="M 130.051503 32.625385 
L 131.568488 32.625385 
L 131.568488 32.502361 
L 130.051503 32.502361 
z
" clip-path="url(#p5ba624f379)" style="fill: #b40426; opacity: 0.25"/>
   </g>
   <g id="matplotlib.axis_3">
    <g id="xtick_4">
     <g id="line2d_8">
      <g>
       <use xlink:href="#mb1a61798d4" x="96.311526" y="32.625385" style="stroke: #000000; stroke-width: 0.8"/>
      </g>
     </g>
     <g id="text_8">
      <!-- $\mathdefault{−5}$ -->
      <g transform="translate(93.436526 43.204291) scale(0.05 -0.05)">
       <use xlink:href="#ArialMT-2212" transform="translate(0 0.390625)"/>
       <use xlink:href="#ArialMT-35" transform="translate(58.398438 0.390625)"/>
      </g>
     </g>
    </g>
    <g id="xtick_5">
     <g id="line2d_9">
      <g>
       <use xlink:href="#mb1a61798d4" x="109.572205" y="32.625385" style="stroke: #000000; stroke-width: 0.8"/>
      </g>
     </g>
     <g id="text_9">
      <!-- $\mathdefault{0}$ -->
      <g transform="translate(108.172205 43.204291) scale(0.05 -0.05)">
       <use xlink:href="#ArialMT-30" transform="translate(0 0.125)"/>
      </g>
     </g>
    </g>
    <g id="xtick_6">
     <g id="line2d_10">
      <g>
       <use xlink:href="#mb1a61798d4" x="122.832884" y="32.625385" style="stroke: #000000; stroke-width: 0.8"/>
      </g>
     </g>
     <g id="text_10">
      <!-- $\mathdefault{5}$ -->
      <g transform="translate(121.432884 43.204291) scale(0.05 -0.05)">
       <use xlink:href="#ArialMT-35" transform="translate(0 0.390625)"/>
      </g>
     </g>
    </g>
    <g id="text_11">
     <!-- $h^F$ -->
     <g transform="translate(105.582205 53.20851) scale(0.07 -0.07)">
      <defs>
       <path id="DejaVuSans-Oblique-46" d="M 1081 4666 
L 3756 4666 
L 3653 4134 
L 1606 4134 
L 1338 2759 
L 3188 2759 
L 3084 2228 
L 1234 2228 
L 800 0 
L 172 0 
L 1081 4666 
z
" transform="scale(0.015625)"/>
      </defs>
      <use xlink:href="#DejaVuSans-Oblique-68" transform="translate(0 0.684375)"/>
      <use xlink:href="#DejaVuSans-Oblique-46" transform="translate(70.826615 38.965625) scale(0.7)"/>
     </g>
    </g>
   </g>
   <g id="matplotlib.axis_4">
    <g id="ytick_3">
     <g id="line2d_11">
      <g>
       <use xlink:href="#m5656bf6cfb" x="85.376293" y="32.625385" style="stroke: #000000; stroke-width: 0.8"/>
      </g>
     </g>
    </g>
    <g id="ytick_4">
     <g id="line2d_12">
      <g>
       <use xlink:href="#m5656bf6cfb" x="85.376293" y="14.108" style="stroke: #000000; stroke-width: 0.8"/>
      </g>
     </g>
    </g>
   </g>
   <g id="line2d_13">
    <path d="M 87.575922 31.830314 
L 89.092907 31.187191 
L 90.609892 30.217311 
L 92.126877 28.839441 
L 93.643862 27.01284 
L 95.160847 24.785333 
L 96.677832 22.341729 
L 98.194817 20.032283 
L 99.711802 18.307947 
L 101.228787 17.529885 
L 102.745772 17.775404 
L 104.262757 18.809627 
L 105.779742 20.247454 
L 107.296727 21.778314 
L 108.813712 23.298507 
L 110.330697 24.867143 
L 111.847682 26.533418 
L 113.364667 28.203104 
L 114.881653 29.676138 
L 116.398638 30.795058 
L 117.915623 31.536023 
L 119.432608 31.97875 
L 120.949593 32.229003 
L 122.466578 32.371004 
L 123.983563 32.458155 
L 125.500548 32.518645 
L 127.017533 32.563251 
L 128.534518 32.594082 
L 130.051503 32.612231 
L 131.568488 32.620887 
" clip-path="url(#p5ba624f379)" style="fill: none; stroke: #3b4cc0; stroke-width: 1.5; stroke-linecap: square"/>
   </g>
   <g id="line2d_14">
    <path d="M 87.575922 31.698381 
L 89.092907 30.952088 
L 90.609892 29.841484 
L 92.126877 28.290248 
L 93.643862 26.279291 
L 95.160847 23.933436 
L 96.677832 21.569074 
L 98.194817 19.610381 
L 99.711802 18.396925 
L 101.228787 18.038278 
L 102.745772 18.426419 
L 104.262757 19.350325 
L 105.779742 20.603602 
L 107.296727 22.049461 
L 108.813712 23.63606 
L 110.330697 25.340546 
L 111.847682 27.080273 
L 113.364667 28.692295 
L 114.881653 30.010157 
L 116.398638 30.954002 
L 117.915623 31.554311 
L 119.432608 31.909755 
L 120.949593 32.125053 
L 122.466578 32.270724 
L 123.983563 32.378904 
L 125.500548 32.459838 
L 127.017533 32.517114 
L 128.534518 32.554647 
L 130.051503 32.578422 
L 131.568488 32.59473 
" clip-path="url(#p5ba624f379)" style="fill: none; stroke: #b40426; stroke-width: 1.5; stroke-linecap: square"/>
   </g>
   <g id="patch_122">
    <path d="M 85.376293 32.625385 
L 85.376293 3.00024 
" style="fill: none; stroke: #000000; stroke-width: 0.8; stroke-linejoin: miter; stroke-linecap: square"/>
   </g>
   <g id="patch_123">
    <path d="M 85.376293 32.625385 
L 133.768116 32.625385 
" style="fill: none; stroke: #000000; stroke-width: 0.8; stroke-linejoin: miter; stroke-linecap: square"/>
   </g>
  </g>
  <g id="axes_3">
   <g id="patch_124">
    <path d="M 164.607937 32.625385 
L 212.99976 32.625385 
L 212.99976 3.00024 
L 164.607937 3.00024 
L 164.607937 32.625385 
z
" style="fill: none"/>
   </g>
   <g id="patch_125">
    <path d="M 166.807565 32.625385 
L 168.32455 32.625385 
L 168.32455 29.786198 
L 166.807565 29.786198 
z
" clip-path="url(#p85d78ad1d8)" style="fill: #3b4cc0; opacity: 0.25"/>
   </g>
   <g id="patch_126">
    <path d="M 168.32455 32.625385 
L 169.841535 32.625385 
L 169.841535 32.270487 
L 168.32455 32.270487 
z
" clip-path="url(#p85d78ad1d8)" style="fill: #3b4cc0; opacity: 0.25"/>
   </g>
   <g id="patch_127">
    <path d="M 169.841535 32.625385 
L 171.35852 32.625385 
L 171.35852 30.176586 
L 169.841535 30.176586 
z
" clip-path="url(#p85d78ad1d8)" style="fill: #3b4cc0; opacity: 0.25"/>
   </g>
   <g id="patch_128">
    <path d="M 171.35852 32.625385 
L 172.875505 32.625385 
L 172.875505 28.934442 
L 171.35852 28.934442 
z
" clip-path="url(#p85d78ad1d8)" style="fill: #3b4cc0; opacity: 0.25"/>
   </g>
   <g id="patch_129">
    <path d="M 172.875505 32.625385 
L 174.39249 32.625385 
L 174.39249 26.663092 
L 172.875505 26.663092 
z
" clip-path="url(#p85d78ad1d8)" style="fill: #3b4cc0; opacity: 0.25"/>
   </g>
   <g id="patch_130">
    <path d="M 174.39249 32.625385 
L 175.909475 32.625385 
L 175.909475 25.385457 
L 174.39249 25.385457 
z
" clip-path="url(#p85d78ad1d8)" style="fill: #3b4cc0; opacity: 0.25"/>
   </g>
   <g id="patch_131">
    <path d="M 175.909475 32.625385 
L 177.42646 32.625385 
L 177.42646 21.304126 
L 175.909475 21.304126 
z
" clip-path="url(#p85d78ad1d8)" style="fill: #3b4cc0; opacity: 0.25"/>
   </g>
   <g id="patch_132">
    <path d="M 177.42646 32.625385 
L 178.943446 32.625385 
L 178.943446 13.7093 
L 177.42646 13.7093 
z
" clip-path="url(#p85d78ad1d8)" style="fill: #3b4cc0; opacity: 0.25"/>
   </g>
   <g id="patch_133">
    <path d="M 178.943446 32.625385 
L 180.460431 32.625385 
L 180.460431 8.598762 
L 178.943446 8.598762 
z
" clip-path="url(#p85d78ad1d8)" style="fill: #3b4cc0; opacity: 0.25"/>
   </g>
   <g id="patch_134">
    <path d="M 180.460431 32.625385 
L 181.977416 32.625385 
L 181.977416 4.410961 
L 180.460431 4.410961 
z
" clip-path="url(#p85d78ad1d8)" style="fill: #3b4cc0; opacity: 0.25"/>
   </g>
   <g id="patch_135">
    <path d="M 181.977416 32.625385 
L 183.494401 32.625385 
L 183.494401 11.012072 
L 181.977416 11.012072 
z
" clip-path="url(#p85d78ad1d8)" style="fill: #3b4cc0; opacity: 0.25"/>
   </g>
   <g id="patch_136">
    <path d="M 183.494401 32.625385 
L 185.011386 32.625385 
L 185.011386 18.464938 
L 183.494401 18.464938 
z
" clip-path="url(#p85d78ad1d8)" style="fill: #3b4cc0; opacity: 0.25"/>
   </g>
   <g id="patch_137">
    <path d="M 185.011386 32.625385 
L 186.528371 32.625385 
L 186.528371 21.410595 
L 185.011386 21.410595 
z
" clip-path="url(#p85d78ad1d8)" style="fill: #3b4cc0; opacity: 0.25"/>
   </g>
   <g id="patch_138">
    <path d="M 186.528371 32.625385 
L 188.045356 32.625385 
L 188.045356 26.379173 
L 186.528371 26.379173 
z
" clip-path="url(#p85d78ad1d8)" style="fill: #3b4cc0; opacity: 0.25"/>
   </g>
   <g id="patch_139">
    <path d="M 188.045356 32.625385 
L 189.562341 32.625385 
L 189.562341 30.212076 
L 188.045356 30.212076 
z
" clip-path="url(#p85d78ad1d8)" style="fill: #3b4cc0; opacity: 0.25"/>
   </g>
   <g id="patch_140">
    <path d="M 189.562341 32.625385 
L 191.079326 32.625385 
L 191.079326 31.951078 
L 189.562341 31.951078 
z
" clip-path="url(#p85d78ad1d8)" style="fill: #3b4cc0; opacity: 0.25"/>
   </g>
   <g id="patch_141">
    <path d="M 191.079326 32.625385 
L 192.596311 32.625385 
L 192.596311 32.376956 
L 191.079326 32.376956 
z
" clip-path="url(#p85d78ad1d8)" style="fill: #3b4cc0; opacity: 0.25"/>
   </g>
   <g id="patch_142">
    <path d="M 192.596311 32.625385 
L 194.113296 32.625385 
L 194.113296 32.412446 
L 192.596311 32.412446 
z
" clip-path="url(#p85d78ad1d8)" style="fill: #3b4cc0; opacity: 0.25"/>
   </g>
   <g id="patch_143">
    <path d="M 194.113296 32.625385 
L 195.630281 32.625385 
L 195.630281 32.625385 
L 194.113296 32.625385 
z
" clip-path="url(#p85d78ad1d8)" style="fill: #3b4cc0; opacity: 0.25"/>
   </g>
   <g id="patch_144">
    <path d="M 195.630281 32.625385 
L 197.147266 32.625385 
L 197.147266 32.554405 
L 195.630281 32.554405 
z
" clip-path="url(#p85d78ad1d8)" style="fill: #3b4cc0; opacity: 0.25"/>
   </g>
   <g id="patch_145">
    <path d="M 197.147266 32.625385 
L 198.664251 32.625385 
L 198.664251 32.625385 
L 197.147266 32.625385 
z
" clip-path="url(#p85d78ad1d8)" style="fill: #3b4cc0; opacity: 0.25"/>
   </g>
   <g id="patch_146">
    <path d="M 198.664251 32.625385 
L 200.181236 32.625385 
L 200.181236 32.625385 
L 198.664251 32.625385 
z
" clip-path="url(#p85d78ad1d8)" style="fill: #3b4cc0; opacity: 0.25"/>
   </g>
   <g id="patch_147">
    <path d="M 200.181236 32.625385 
L 201.698221 32.625385 
L 201.698221 32.625385 
L 200.181236 32.625385 
z
" clip-path="url(#p85d78ad1d8)" style="fill: #3b4cc0; opacity: 0.25"/>
   </g>
   <g id="patch_148">
    <path d="M 201.698221 32.625385 
L 203.215206 32.625385 
L 203.215206 32.625385 
L 201.698221 32.625385 
z
" clip-path="url(#p85d78ad1d8)" style="fill: #3b4cc0; opacity: 0.25"/>
   </g>
   <g id="patch_149">
    <path d="M 203.215206 32.625385 
L 204.732191 32.625385 
L 204.732191 32.625385 
L 203.215206 32.625385 
z
" clip-path="url(#p85d78ad1d8)" style="fill: #3b4cc0; opacity: 0.25"/>
   </g>
   <g id="patch_150">
    <path d="M 204.732191 32.625385 
L 206.249177 32.625385 
L 206.249177 32.625385 
L 204.732191 32.625385 
z
" clip-path="url(#p85d78ad1d8)" style="fill: #3b4cc0; opacity: 0.25"/>
   </g>
   <g id="patch_151">
    <path d="M 206.249177 32.625385 
L 207.766162 32.625385 
L 207.766162 32.625385 
L 206.249177 32.625385 
z
" clip-path="url(#p85d78ad1d8)" style="fill: #3b4cc0; opacity: 0.25"/>
   </g>
   <g id="patch_152">
    <path d="M 207.766162 32.625385 
L 209.283147 32.625385 
L 209.283147 32.625385 
L 207.766162 32.625385 
z
" clip-path="url(#p85d78ad1d8)" style="fill: #3b4cc0; opacity: 0.25"/>
   </g>
   <g id="patch_153">
    <path d="M 209.283147 32.625385 
L 210.800132 32.625385 
L 210.800132 32.625385 
L 209.283147 32.625385 
z
" clip-path="url(#p85d78ad1d8)" style="fill: #3b4cc0; opacity: 0.25"/>
   </g>
   <g id="patch_154">
    <path d="M 166.807565 32.625385 
L 168.32455 32.625385 
L 168.32455 32.379336 
L 166.807565 32.379336 
z
" clip-path="url(#p85d78ad1d8)" style="fill: #b40426; opacity: 0.25"/>
   </g>
   <g id="patch_155">
    <path d="M 168.32455 32.625385 
L 169.841535 32.625385 
L 169.841535 32.563873 
L 168.32455 32.563873 
z
" clip-path="url(#p85d78ad1d8)" style="fill: #b40426; opacity: 0.25"/>
   </g>
   <g id="patch_156">
    <path d="M 169.841535 32.625385 
L 171.35852 32.625385 
L 171.35852 32.379336 
L 169.841535 32.379336 
z
" clip-path="url(#p85d78ad1d8)" style="fill: #b40426; opacity: 0.25"/>
   </g>
   <g id="patch_157">
    <path d="M 171.35852 32.625385 
L 172.875505 32.625385 
L 172.875505 32.256312 
L 171.35852 32.256312 
z
" clip-path="url(#p85d78ad1d8)" style="fill: #b40426; opacity: 0.25"/>
   </g>
   <g id="patch_158">
    <path d="M 172.875505 32.625385 
L 174.39249 32.625385 
L 174.39249 31.856483 
L 172.875505 31.856483 
z
" clip-path="url(#p85d78ad1d8)" style="fill: #b40426; opacity: 0.25"/>
   </g>
   <g id="patch_159">
    <path d="M 174.39249 32.625385 
L 175.909475 32.625385 
L 175.909475 31.702703 
L 174.39249 31.702703 
z
" clip-path="url(#p85d78ad1d8)" style="fill: #b40426; opacity: 0.25"/>
   </g>
   <g id="patch_160">
    <path d="M 175.909475 32.625385 
L 177.42646 32.625385 
L 177.42646 30.872289 
L 175.909475 30.872289 
z
" clip-path="url(#p85d78ad1d8)" style="fill: #b40426; opacity: 0.25"/>
   </g>
   <g id="patch_161">
    <path d="M 177.42646 32.625385 
L 178.943446 32.625385 
L 178.943446 29.795827 
L 177.42646 29.795827 
z
" clip-path="url(#p85d78ad1d8)" style="fill: #b40426; opacity: 0.25"/>
   </g>
   <g id="patch_162">
    <path d="M 178.943446 32.625385 
L 180.460431 32.625385 
L 180.460431 26.105099 
L 178.943446 26.105099 
z
" clip-path="url(#p85d78ad1d8)" style="fill: #b40426; opacity: 0.25"/>
   </g>
   <g id="patch_163">
    <path d="M 180.460431 32.625385 
L 181.977416 32.625385 
L 181.977416 21.368665 
L 180.460431 21.368665 
z
" clip-path="url(#p85d78ad1d8)" style="fill: #b40426; opacity: 0.25"/>
   </g>
   <g id="patch_164">
    <path d="M 181.977416 32.625385 
L 183.494401 32.625385 
L 183.494401 15.740306 
L 181.977416 15.740306 
z
" clip-path="url(#p85d78ad1d8)" style="fill: #b40426; opacity: 0.25"/>
   </g>
   <g id="patch_165">
    <path d="M 183.494401 32.625385 
L 185.011386 32.625385 
L 185.011386 12.664699 
L 183.494401 12.664699 
z
" clip-path="url(#p85d78ad1d8)" style="fill: #b40426; opacity: 0.25"/>
   </g>
   <g id="patch_166">
    <path d="M 185.011386 32.625385 
L 186.528371 32.625385 
L 186.528371 10.880848 
L 185.011386 10.880848 
z
" clip-path="url(#p85d78ad1d8)" style="fill: #b40426; opacity: 0.25"/>
   </g>
   <g id="patch_167">
    <path d="M 186.528371 32.625385 
L 188.045356 32.625385 
L 188.045356 12.049578 
L 186.528371 12.049578 
z
" clip-path="url(#p85d78ad1d8)" style="fill: #b40426; opacity: 0.25"/>
   </g>
   <g id="patch_168">
    <path d="M 188.045356 32.625385 
L 189.562341 32.625385 
L 189.562341 15.955598 
L 188.045356 15.955598 
z
" clip-path="url(#p85d78ad1d8)" style="fill: #b40426; opacity: 0.25"/>
   </g>
   <g id="patch_169">
    <path d="M 189.562341 32.625385 
L 191.079326 32.625385 
L 191.079326 20.015399 
L 189.562341 20.015399 
z
" clip-path="url(#p85d78ad1d8)" style="fill: #b40426; opacity: 0.25"/>
   </g>
   <g id="patch_170">
    <path d="M 191.079326 32.625385 
L 192.596311 32.625385 
L 192.596311 22.383616 
L 191.079326 22.383616 
z
" clip-path="url(#p85d78ad1d8)" style="fill: #b40426; opacity: 0.25"/>
   </g>
   <g id="patch_171">
    <path d="M 192.596311 32.625385 
L 194.113296 32.625385 
L 194.113296 26.074343 
L 192.596311 26.074343 
z
" clip-path="url(#p85d78ad1d8)" style="fill: #b40426; opacity: 0.25"/>
   </g>
   <g id="patch_172">
    <path d="M 194.113296 32.625385 
L 195.630281 32.625385 
L 195.630281 28.596341 
L 194.113296 28.596341 
z
" clip-path="url(#p85d78ad1d8)" style="fill: #b40426; opacity: 0.25"/>
   </g>
   <g id="patch_173">
    <path d="M 195.630281 32.625385 
L 197.147266 32.625385 
L 197.147266 29.795827 
L 195.630281 29.795827 
z
" clip-path="url(#p85d78ad1d8)" style="fill: #b40426; opacity: 0.25"/>
   </g>
   <g id="patch_174">
    <path d="M 197.147266 32.625385 
L 198.664251 32.625385 
L 198.664251 30.656997 
L 197.147266 30.656997 
z
" clip-path="url(#p85d78ad1d8)" style="fill: #b40426; opacity: 0.25"/>
   </g>
   <g id="patch_175">
    <path d="M 198.664251 32.625385 
L 200.181236 32.625385 
L 200.181236 31.764215 
L 198.664251 31.764215 
z
" clip-path="url(#p85d78ad1d8)" style="fill: #b40426; opacity: 0.25"/>
   </g>
   <g id="patch_176">
    <path d="M 200.181236 32.625385 
L 201.698221 32.625385 
L 201.698221 31.764215 
L 200.181236 31.764215 
z
" clip-path="url(#p85d78ad1d8)" style="fill: #b40426; opacity: 0.25"/>
   </g>
   <g id="patch_177">
    <path d="M 201.698221 32.625385 
L 203.215206 32.625385 
L 203.215206 32.133288 
L 201.698221 32.133288 
z
" clip-path="url(#p85d78ad1d8)" style="fill: #b40426; opacity: 0.25"/>
   </g>
   <g id="patch_178">
    <path d="M 203.215206 32.625385 
L 204.732191 32.625385 
L 204.732191 32.317824 
L 203.215206 32.317824 
z
" clip-path="url(#p85d78ad1d8)" style="fill: #b40426; opacity: 0.25"/>
   </g>
   <g id="patch_179">
    <path d="M 204.732191 32.625385 
L 206.249177 32.625385 
L 206.249177 32.410093 
L 204.732191 32.410093 
z
" clip-path="url(#p85d78ad1d8)" style="fill: #b40426; opacity: 0.25"/>
   </g>
   <g id="patch_180">
    <path d="M 206.249177 32.625385 
L 207.766162 32.625385 
L 207.766162 32.625385 
L 206.249177 32.625385 
z
" clip-path="url(#p85d78ad1d8)" style="fill: #b40426; opacity: 0.25"/>
   </g>
   <g id="patch_181">
    <path d="M 207.766162 32.625385 
L 209.283147 32.625385 
L 209.283147 32.533117 
L 207.766162 32.533117 
z
" clip-path="url(#p85d78ad1d8)" style="fill: #b40426; opacity: 0.25"/>
   </g>
   <g id="patch_182">
    <path d="M 209.283147 32.625385 
L 210.800132 32.625385 
L 210.800132 32.625385 
L 209.283147 32.625385 
z
" clip-path="url(#p85d78ad1d8)" style="fill: #b40426; opacity: 0.25"/>
   </g>
   <g id="matplotlib.axis_5">
    <g id="xtick_7">
     <g id="line2d_15">
      <g>
       <use xlink:href="#mb1a61798d4" x="175.543169" y="32.625385" style="stroke: #000000; stroke-width: 0.8"/>
      </g>
     </g>
     <g id="text_12">
      <!-- $\mathdefault{−5}$ -->
      <g transform="translate(172.668169 43.204291) scale(0.05 -0.05)">
       <use xlink:href="#ArialMT-2212" transform="translate(0 0.390625)"/>
       <use xlink:href="#ArialMT-35" transform="translate(58.398438 0.390625)"/>
      </g>
     </g>
    </g>
    <g id="xtick_8">
     <g id="line2d_16">
      <g>
       <use xlink:href="#mb1a61798d4" x="188.803848" y="32.625385" style="stroke: #000000; stroke-width: 0.8"/>
      </g>
     </g>
     <g id="text_13">
      <!-- $\mathdefault{0}$ -->
      <g transform="translate(187.403848 43.204291) scale(0.05 -0.05)">
       <use xlink:href="#ArialMT-30" transform="translate(0 0.125)"/>
      </g>
     </g>
    </g>
    <g id="xtick_9">
     <g id="line2d_17">
      <g>
       <use xlink:href="#mb1a61798d4" x="202.064528" y="32.625385" style="stroke: #000000; stroke-width: 0.8"/>
      </g>
     </g>
     <g id="text_14">
      <!-- $\mathdefault{5}$ -->
      <g transform="translate(200.664528 43.204291) scale(0.05 -0.05)">
       <use xlink:href="#ArialMT-35" transform="translate(0 0.390625)"/>
      </g>
     </g>
    </g>
    <g id="text_15">
     <!-- $h^R$ -->
     <g transform="translate(184.498848 53.20851) scale(0.07 -0.07)">
      <defs>
       <path id="DejaVuSans-Oblique-52" d="M 1613 4147 
L 1294 2491 
L 2106 2491 
Q 2584 2491 2879 2755 
Q 3175 3019 3175 3444 
Q 3175 3784 2976 3965 
Q 2778 4147 2406 4147 
L 1613 4147 
z
M 2772 2241 
Q 2972 2194 3105 2009 
Q 3238 1825 3413 1275 
L 3809 0 
L 3144 0 
L 2778 1197 
Q 2638 1659 2453 1815 
Q 2269 1972 1888 1972 
L 1191 1972 
L 806 0 
L 172 0 
L 1081 4666 
L 2503 4666 
Q 3150 4666 3495 4373 
Q 3841 4081 3841 3531 
Q 3841 3044 3547 2687 
Q 3253 2331 2772 2241 
z
" transform="scale(0.015625)"/>
      </defs>
      <use xlink:href="#DejaVuSans-Oblique-68" transform="translate(0 0.684375)"/>
      <use xlink:href="#DejaVuSans-Oblique-52" transform="translate(70.826615 38.965625) scale(0.7)"/>
     </g>
    </g>
   </g>
   <g id="matplotlib.axis_6">
    <g id="ytick_5">
     <g id="line2d_18">
      <g>
       <use xlink:href="#m5656bf6cfb" x="164.607937" y="32.625385" style="stroke: #000000; stroke-width: 0.8"/>
      </g>
     </g>
    </g>
    <g id="ytick_6">
     <g id="line2d_19">
      <g>
       <use xlink:href="#m5656bf6cfb" x="164.607937" y="14.108" style="stroke: #000000; stroke-width: 0.8"/>
      </g>
     </g>
    </g>
   </g>
   <g id="line2d_20">
    <path d="M 166.807565 31.677302 
L 168.32455 31.030618 
L 169.841535 30.262439 
L 171.35852 29.165629 
L 172.875505 27.543201 
L 174.39249 25.163065 
L 175.909475 21.668123 
L 177.42646 17.125889 
L 178.943446 12.683215 
L 180.460431 10.260674 
L 181.977416 11.152356 
L 183.494401 14.782065 
L 185.011386 19.380593 
L 186.528371 23.684799 
L 188.045356 27.25873 
L 189.562341 29.873562 
L 191.079326 31.431455 
L 192.596311 32.157478 
L 194.113296 32.437795 
L 195.630281 32.544124 
L 197.147266 32.589116 
L 198.664251 32.610439 
L 200.181236 32.620556 
L 201.698221 32.624313 
L 203.215206 32.625232 
L 204.732191 32.625371 
L 206.249177 32.625384 
L 207.766162 32.625385 
L 209.283147 32.625385 
L 210.800132 32.625385 
" clip-path="url(#p85d78ad1d8)" style="fill: none; stroke: #3b4cc0; stroke-width: 1.5; stroke-linecap: square"/>
   </g>
   <g id="line2d_21">
    <path d="M 166.807565 32.527445 
L 168.32455 32.459811 
L 169.841535 32.358764 
L 171.35852 32.193006 
L 172.875505 31.90873 
L 174.39249 31.401888 
L 175.909475 30.476244 
L 177.42646 28.855511 
L 178.943446 26.322492 
L 180.460431 22.96193 
L 181.977416 19.310795 
L 183.494401 16.198396 
L 185.011386 14.362878 
L 186.528371 14.168013 
L 188.045356 15.531326 
L 189.562341 17.990882 
L 191.079326 20.926131 
L 192.596311 23.822406 
L 194.113296 26.357118 
L 195.630281 28.359591 
L 197.147266 29.803893 
L 198.664251 30.784384 
L 200.181236 31.431426 
L 201.698221 31.854409 
L 203.215206 32.134063 
L 204.732191 32.322437 
L 206.249177 32.447935 
L 207.766162 32.528154 
L 209.283147 32.576983 
L 210.800132 32.604615 
" clip-path="url(#p85d78ad1d8)" style="fill: none; stroke: #b40426; stroke-width: 1.5; stroke-linecap: square"/>
   </g>
   <g id="patch_183">
    <path d="M 164.607937 32.625385 
L 164.607937 3.00024 
" style="fill: none; stroke: #000000; stroke-width: 0.8; stroke-linejoin: miter; stroke-linecap: square"/>
   </g>
   <g id="patch_184">
    <path d="M 164.607937 32.625385 
L 212.99976 32.625385 
" style="fill: none; stroke: #000000; stroke-width: 0.8; stroke-linejoin: miter; stroke-linecap: square"/>
   </g>
   <g id="legend_1">
    <g id="patch_185">
     <path d="M 140.957729 28.485709 
L 208.09976 28.485709 
Q 209.49976 28.485709 209.49976 27.085709 
L 209.49976 7.90024 
Q 209.49976 6.50024 208.09976 6.50024 
L 140.957729 6.50024 
Q 139.557729 6.50024 139.557729 7.90024 
L 139.557729 27.085709 
Q 139.557729 28.485709 140.957729 28.485709 
z
" style="fill: #ffffff; opacity: 0.8; stroke: #cccccc; stroke-linejoin: miter"/>
    </g>
    <g id="line2d_22">
     <path d="M 142.357729 11.860709 
L 149.357729 11.860709 
L 156.357729 11.860709 
" style="fill: none; stroke: #3b4cc0; stroke-width: 1.5; stroke-linecap: square"/>
    </g>
    <g id="text_16">
     <!-- Left Neurons -->
     <g transform="translate(161.957729 14.310709) scale(0.07 -0.07)">
      <defs>
       <path id="ArialMT-4c" d="M 469 0 
L 469 4581 
L 1075 4581 
L 1075 541 
L 3331 541 
L 3331 0 
L 469 0 
z
" transform="scale(0.015625)"/>
       <path id="ArialMT-66" d="M 556 0 
L 556 2881 
L 59 2881 
L 59 3319 
L 556 3319 
L 556 3672 
Q 556 4006 616 4169 
Q 697 4388 901 4523 
Q 1106 4659 1475 4659 
Q 1713 4659 2000 4603 
L 1916 4113 
Q 1741 4144 1584 4144 
Q 1328 4144 1222 4034 
Q 1116 3925 1116 3625 
L 1116 3319 
L 1763 3319 
L 1763 2881 
L 1116 2881 
L 1116 0 
L 556 0 
z
" transform="scale(0.015625)"/>
       <path id="ArialMT-20" transform="scale(0.015625)"/>
       <path id="ArialMT-4e" d="M 488 0 
L 488 4581 
L 1109 4581 
L 3516 984 
L 3516 4581 
L 4097 4581 
L 4097 0 
L 3475 0 
L 1069 3600 
L 1069 0 
L 488 0 
z
" transform="scale(0.015625)"/>
       <path id="ArialMT-75" d="M 2597 0 
L 2597 488 
Q 2209 -75 1544 -75 
Q 1250 -75 995 37 
Q 741 150 617 320 
Q 494 491 444 738 
Q 409 903 409 1263 
L 409 3319 
L 972 3319 
L 972 1478 
Q 972 1038 1006 884 
Q 1059 663 1231 536 
Q 1403 409 1656 409 
Q 1909 409 2131 539 
Q 2353 669 2445 892 
Q 2538 1116 2538 1541 
L 2538 3319 
L 3100 3319 
L 3100 0 
L 2597 0 
z
" transform="scale(0.015625)"/>
       <path id="ArialMT-72" d="M 416 0 
L 416 3319 
L 922 3319 
L 922 2816 
Q 1116 3169 1280 3281 
Q 1444 3394 1641 3394 
Q 1925 3394 2219 3213 
L 2025 2691 
Q 1819 2813 1613 2813 
Q 1428 2813 1281 2702 
Q 1134 2591 1072 2394 
Q 978 2094 978 1738 
L 978 0 
L 416 0 
z
" transform="scale(0.015625)"/>
       <path id="ArialMT-6f" d="M 213 1659 
Q 213 2581 725 3025 
Q 1153 3394 1769 3394 
Q 2453 3394 2887 2945 
Q 3322 2497 3322 1706 
Q 3322 1066 3130 698 
Q 2938 331 2570 128 
Q 2203 -75 1769 -75 
Q 1072 -75 642 372 
Q 213 819 213 1659 
z
M 791 1659 
Q 791 1022 1069 705 
Q 1347 388 1769 388 
Q 2188 388 2466 706 
Q 2744 1025 2744 1678 
Q 2744 2294 2464 2611 
Q 2184 2928 1769 2928 
Q 1347 2928 1069 2612 
Q 791 2297 791 1659 
z
" transform="scale(0.015625)"/>
      </defs>
      <use xlink:href="#ArialMT-4c"/>
      <use xlink:href="#ArialMT-65" x="55.615234"/>
      <use xlink:href="#ArialMT-66" x="111.230469"/>
      <use xlink:href="#ArialMT-74" x="139.013672"/>
      <use xlink:href="#ArialMT-20" x="166.796875"/>
      <use xlink:href="#ArialMT-4e" x="194.580078"/>
      <use xlink:href="#ArialMT-65" x="266.796875"/>
      <use xlink:href="#ArialMT-75" x="322.412109"/>
      <use xlink:href="#ArialMT-72" x="378.027344"/>
      <use xlink:href="#ArialMT-6f" x="411.328125"/>
      <use xlink:href="#ArialMT-6e" x="466.943359"/>
      <use xlink:href="#ArialMT-73" x="522.558594"/>
     </g>
    </g>
    <g id="line2d_23">
     <path d="M 142.357729 21.762427 
L 149.357729 21.762427 
L 156.357729 21.762427 
" style="fill: none; stroke: #b40426; stroke-width: 1.5; stroke-linecap: square"/>
    </g>
    <g id="text_17">
     <!-- Right Neurons -->
     <g transform="translate(161.957729 24.212427) scale(0.07 -0.07)">
      <defs>
       <path id="ArialMT-52" d="M 503 0 
L 503 4581 
L 2534 4581 
Q 3147 4581 3465 4457 
Q 3784 4334 3975 4021 
Q 4166 3709 4166 3331 
Q 4166 2844 3850 2509 
Q 3534 2175 2875 2084 
Q 3116 1969 3241 1856 
Q 3506 1613 3744 1247 
L 4541 0 
L 3778 0 
L 3172 953 
Q 2906 1366 2734 1584 
Q 2563 1803 2427 1890 
Q 2291 1978 2150 2013 
Q 2047 2034 1813 2034 
L 1109 2034 
L 1109 0 
L 503 0 
z
M 1109 2559 
L 2413 2559 
Q 2828 2559 3062 2645 
Q 3297 2731 3419 2920 
Q 3541 3109 3541 3331 
Q 3541 3656 3305 3865 
Q 3069 4075 2559 4075 
L 1109 4075 
L 1109 2559 
z
" transform="scale(0.015625)"/>
       <path id="ArialMT-67" d="M 319 -275 
L 866 -356 
Q 900 -609 1056 -725 
Q 1266 -881 1628 -881 
Q 2019 -881 2231 -725 
Q 2444 -569 2519 -288 
Q 2563 -116 2559 434 
Q 2191 0 1641 0 
Q 956 0 581 494 
Q 206 988 206 1678 
Q 206 2153 378 2554 
Q 550 2956 876 3175 
Q 1203 3394 1644 3394 
Q 2231 3394 2613 2919 
L 2613 3319 
L 3131 3319 
L 3131 450 
Q 3131 -325 2973 -648 
Q 2816 -972 2473 -1159 
Q 2131 -1347 1631 -1347 
Q 1038 -1347 672 -1080 
Q 306 -813 319 -275 
z
M 784 1719 
Q 784 1066 1043 766 
Q 1303 466 1694 466 
Q 2081 466 2343 764 
Q 2606 1063 2606 1700 
Q 2606 2309 2336 2618 
Q 2066 2928 1684 2928 
Q 1309 2928 1046 2623 
Q 784 2319 784 1719 
z
" transform="scale(0.015625)"/>
       <path id="ArialMT-68" d="M 422 0 
L 422 4581 
L 984 4581 
L 984 2938 
Q 1378 3394 1978 3394 
Q 2347 3394 2619 3248 
Q 2891 3103 3008 2847 
Q 3125 2591 3125 2103 
L 3125 0 
L 2563 0 
L 2563 2103 
Q 2563 2525 2380 2717 
Q 2197 2909 1863 2909 
Q 1613 2909 1392 2779 
Q 1172 2650 1078 2428 
Q 984 2206 984 1816 
L 984 0 
L 422 0 
z
" transform="scale(0.015625)"/>
      </defs>
      <use xlink:href="#ArialMT-52"/>
      <use xlink:href="#ArialMT-69" x="72.216797"/>
      <use xlink:href="#ArialMT-67" x="94.433594"/>
      <use xlink:href="#ArialMT-68" x="150.048828"/>
      <use xlink:href="#ArialMT-74" x="205.664062"/>
      <use xlink:href="#ArialMT-20" x="233.447266"/>
      <use xlink:href="#ArialMT-4e" x="261.230469"/>
      <use xlink:href="#ArialMT-65" x="333.447266"/>
      <use xlink:href="#ArialMT-75" x="389.0625"/>
      <use xlink:href="#ArialMT-72" x="444.677734"/>
      <use xlink:href="#ArialMT-6f" x="477.978516"/>
      <use xlink:href="#ArialMT-6e" x="533.59375"/>
      <use xlink:href="#ArialMT-73" x="589.208984"/>
     </g>
    </g>
   </g>
  </g>
 </g>
 <defs>
  <clipPath id="pf57e3ed775">
   <rect x="27.48399" y="3.00024" width="48.391823" height="29.625145"/>
  </clipPath>
  <clipPath id="p5ba624f379">
   <rect x="85.376293" y="3.00024" width="48.391823" height="29.625145"/>
  </clipPath>
  <clipPath id="p85d78ad1d8">
   <rect x="164.607937" y="3.00024" width="48.391823" height="29.625145"/>
  </clipPath>
 </defs>
</svg>
