<?xml version="1.0" encoding="utf-8" standalone="no"?>
<!DOCTYPE svg PUBLIC "-//W3C//DTD SVG 1.1//EN"
  "http://www.w3.org/Graphics/SVG/1.1/DTD/svg11.dtd">
<svg xmlns:xlink="http://www.w3.org/1999/xlink" width="129.6pt" height="72pt" viewBox="0 0 129.6 72" xmlns="http://www.w3.org/2000/svg" version="1.1">
 <metadata>
  <rdf:RDF xmlns:dc="http://purl.org/dc/elements/1.1/" xmlns:cc="http://creativecommons.org/ns#" xmlns:rdf="http://www.w3.org/1999/02/22-rdf-syntax-ns#">
   <cc:Work>
    <dc:type rdf:resource="http://purl.org/dc/dcmitype/StillImage"/>
    <dc:date>2024-07-03T17:29:41.711173</dc:date>
    <dc:format>image/svg+xml</dc:format>
    <dc:creator>
     <cc:Agent>
      <dc:title>Matplotlib v3.8.0, https://matplotlib.org/</dc:title>
     </cc:Agent>
    </dc:creator>
   </cc:Work>
  </rdf:RDF>
 </metadata>
 <defs>
  <style type="text/css">*{stroke-linejoin: round; stroke-linecap: butt}</style>
 </defs>
 <g id="figure_1">
  <g id="patch_1">
   <path d="M 0 72 
L 129.6 72 
L 129.6 0 
L 0 0 
L 0 72 
z
" style="fill: none"/>
  </g>
  <g id="axes_1">
   <g id="patch_2">
    <path d="M 27.48399 47.025385 
L 126.59976 47.025385 
L 126.59976 3.00024 
L 27.48399 3.00024 
L 27.48399 47.025385 
z
" style="fill: none"/>
   </g>
   <g id="matplotlib.axis_1">
    <g id="xtick_1">
     <g id="line2d_1">
      <defs>
       <path id="m96f526080f" d="M 0 0 
L 0 3.5 
" style="stroke: #000000; stroke-width: 0.8"/>
      </defs>
      <g>
       <use xlink:href="#m96f526080f" x="31.989252" y="47.025385" style="stroke: #000000; stroke-width: 0.8"/>
      </g>
     </g>
     <g id="text_1">
      <!-- $\mathdefault{−1.0}$ -->
      <g transform="translate(27.039252 57.604291) scale(0.05 -0.05)">
       <defs>
        <path id="ArialMT-2212" d="M 3381 1997 
L 356 1997 
L 356 2522 
L 3381 2522 
L 3381 1997 
z
" transform="scale(0.015625)"/>
        <path id="ArialMT-31" d="M 2384 0 
L 1822 0 
L 1822 3584 
Q 1619 3391 1289 3197 
Q 959 3003 697 2906 
L 697 3450 
Q 1169 3672 1522 3987 
Q 1875 4303 2022 4600 
L 2384 4600 
L 2384 0 
z
" transform="scale(0.015625)"/>
        <path id="ArialMT-2e" d="M 581 0 
L 581 641 
L 1222 641 
L 1222 0 
L 581 0 
z
" transform="scale(0.015625)"/>
        <path id="ArialMT-30" d="M 266 2259 
Q 266 3072 433 3567 
Q 600 4063 929 4331 
Q 1259 4600 1759 4600 
Q 2128 4600 2406 4451 
Q 2684 4303 2865 4023 
Q 3047 3744 3150 3342 
Q 3253 2941 3253 2259 
Q 3253 1453 3087 958 
Q 2922 463 2592 192 
Q 2263 -78 1759 -78 
Q 1097 -78 719 397 
Q 266 969 266 2259 
z
M 844 2259 
Q 844 1131 1108 757 
Q 1372 384 1759 384 
Q 2147 384 2411 759 
Q 2675 1134 2675 2259 
Q 2675 3391 2411 3762 
Q 2147 4134 1753 4134 
Q 1366 4134 1134 3806 
Q 844 3388 844 2259 
z
" transform="scale(0.015625)"/>
       </defs>
       <use xlink:href="#ArialMT-2212" transform="translate(0 0.125)"/>
       <use xlink:href="#ArialMT-31" transform="translate(58.398438 0.125)"/>
       <use xlink:href="#ArialMT-2e" transform="translate(114.013672 0.125)"/>
       <use xlink:href="#ArialMT-30" transform="translate(141.796875 0.125)"/>
      </g>
     </g>
    </g>
    <g id="xtick_2">
     <g id="line2d_2">
      <g>
       <use xlink:href="#m96f526080f" x="54.515564" y="47.025385" style="stroke: #000000; stroke-width: 0.8"/>
      </g>
     </g>
     <g id="text_2">
      <!-- $\mathdefault{−0.5}$ -->
      <g transform="translate(49.565564 57.604291) scale(0.05 -0.05)">
       <defs>
        <path id="ArialMT-35" d="M 266 1200 
L 856 1250 
Q 922 819 1161 601 
Q 1400 384 1738 384 
Q 2144 384 2425 690 
Q 2706 997 2706 1503 
Q 2706 1984 2436 2262 
Q 2166 2541 1728 2541 
Q 1456 2541 1237 2417 
Q 1019 2294 894 2097 
L 366 2166 
L 809 4519 
L 3088 4519 
L 3088 3981 
L 1259 3981 
L 1013 2750 
Q 1425 3038 1878 3038 
Q 2478 3038 2890 2622 
Q 3303 2206 3303 1553 
Q 3303 931 2941 478 
Q 2500 -78 1738 -78 
Q 1113 -78 717 272 
Q 322 622 266 1200 
z
" transform="scale(0.015625)"/>
       </defs>
       <use xlink:href="#ArialMT-2212" transform="translate(0 0.125)"/>
       <use xlink:href="#ArialMT-30" transform="translate(58.398438 0.125)"/>
       <use xlink:href="#ArialMT-2e" transform="translate(114.013672 0.125)"/>
       <use xlink:href="#ArialMT-35" transform="translate(141.796875 0.125)"/>
      </g>
     </g>
    </g>
    <g id="xtick_3">
     <g id="line2d_3">
      <g>
       <use xlink:href="#m96f526080f" x="77.041875" y="47.025385" style="stroke: #000000; stroke-width: 0.8"/>
      </g>
     </g>
     <g id="text_3">
      <!-- $\mathdefault{0.0}$ -->
      <g transform="translate(73.541875 57.604291) scale(0.05 -0.05)">
       <use xlink:href="#ArialMT-30" transform="translate(0 0.125)"/>
       <use xlink:href="#ArialMT-2e" transform="translate(55.615234 0.125)"/>
       <use xlink:href="#ArialMT-30" transform="translate(83.398438 0.125)"/>
      </g>
     </g>
    </g>
    <g id="xtick_4">
     <g id="line2d_4">
      <g>
       <use xlink:href="#m96f526080f" x="99.568186" y="47.025385" style="stroke: #000000; stroke-width: 0.8"/>
      </g>
     </g>
     <g id="text_4">
      <!-- $\mathdefault{0.5}$ -->
      <g transform="translate(96.068186 57.604291) scale(0.05 -0.05)">
       <use xlink:href="#ArialMT-30" transform="translate(0 0.125)"/>
       <use xlink:href="#ArialMT-2e" transform="translate(55.615234 0.125)"/>
       <use xlink:href="#ArialMT-35" transform="translate(83.398438 0.125)"/>
      </g>
     </g>
    </g>
    <g id="xtick_5">
     <g id="line2d_5">
      <g>
       <use xlink:href="#m96f526080f" x="122.094498" y="47.025385" style="stroke: #000000; stroke-width: 0.8"/>
      </g>
     </g>
     <g id="text_5">
      <!-- $\mathdefault{1.0}$ -->
      <g transform="translate(118.594498 57.604291) scale(0.05 -0.05)">
       <use xlink:href="#ArialMT-31" transform="translate(0 0.125)"/>
       <use xlink:href="#ArialMT-2e" transform="translate(55.615234 0.125)"/>
       <use xlink:href="#ArialMT-30" transform="translate(83.398438 0.125)"/>
      </g>
     </g>
    </g>
    <g id="text_6">
     <!-- mL-mR -->
     <g transform="translate(65.571719 67.60851) scale(0.07 -0.07)">
      <defs>
       <path id="ArialMT-6d" d="M 422 0 
L 422 3319 
L 925 3319 
L 925 2853 
Q 1081 3097 1340 3245 
Q 1600 3394 1931 3394 
Q 2300 3394 2536 3241 
Q 2772 3088 2869 2813 
Q 3263 3394 3894 3394 
Q 4388 3394 4653 3120 
Q 4919 2847 4919 2278 
L 4919 0 
L 4359 0 
L 4359 2091 
Q 4359 2428 4304 2576 
Q 4250 2725 4106 2815 
Q 3963 2906 3769 2906 
Q 3419 2906 3187 2673 
Q 2956 2441 2956 1928 
L 2956 0 
L 2394 0 
L 2394 2156 
Q 2394 2531 2256 2718 
Q 2119 2906 1806 2906 
Q 1569 2906 1367 2781 
Q 1166 2656 1075 2415 
Q 984 2175 984 1722 
L 984 0 
L 422 0 
z
" transform="scale(0.015625)"/>
       <path id="ArialMT-4c" d="M 469 0 
L 469 4581 
L 1075 4581 
L 1075 541 
L 3331 541 
L 3331 0 
L 469 0 
z
" transform="scale(0.015625)"/>
       <path id="ArialMT-2d" d="M 203 1375 
L 203 1941 
L 1931 1941 
L 1931 1375 
L 203 1375 
z
" transform="scale(0.015625)"/>
       <path id="ArialMT-52" d="M 503 0 
L 503 4581 
L 2534 4581 
Q 3147 4581 3465 4457 
Q 3784 4334 3975 4021 
Q 4166 3709 4166 3331 
Q 4166 2844 3850 2509 
Q 3534 2175 2875 2084 
Q 3116 1969 3241 1856 
Q 3506 1613 3744 1247 
L 4541 0 
L 3778 0 
L 3172 953 
Q 2906 1366 2734 1584 
Q 2563 1803 2427 1890 
Q 2291 1978 2150 2013 
Q 2047 2034 1813 2034 
L 1109 2034 
L 1109 0 
L 503 0 
z
M 1109 2559 
L 2413 2559 
Q 2828 2559 3062 2645 
Q 3297 2731 3419 2920 
Q 3541 3109 3541 3331 
Q 3541 3656 3305 3865 
Q 3069 4075 2559 4075 
L 1109 4075 
L 1109 2559 
z
" transform="scale(0.015625)"/>
      </defs>
      <use xlink:href="#ArialMT-6d"/>
      <use xlink:href="#ArialMT-4c" x="83.300781"/>
      <use xlink:href="#ArialMT-2d" x="138.916016"/>
      <use xlink:href="#ArialMT-6d" x="172.216797"/>
      <use xlink:href="#ArialMT-52" x="255.517578"/>
     </g>
    </g>
   </g>
   <g id="matplotlib.axis_2">
    <g id="ytick_1">
     <g id="line2d_6">
      <defs>
       <path id="mbb828f08c0" d="M 0 0 
L -3.5 0 
" style="stroke: #000000; stroke-width: 0.8"/>
      </defs>
      <g>
       <use xlink:href="#mbb828f08c0" x="27.48399" y="47.025385" style="stroke: #000000; stroke-width: 0.8"/>
      </g>
     </g>
     <g id="text_7">
      <!-- $\mathdefault{0.0}$ -->
      <g transform="translate(13.48399 48.814838) scale(0.05 -0.05)">
       <use xlink:href="#ArialMT-30" transform="translate(0 0.125)"/>
       <use xlink:href="#ArialMT-2e" transform="translate(55.615234 0.125)"/>
       <use xlink:href="#ArialMT-30" transform="translate(83.398438 0.125)"/>
      </g>
     </g>
    </g>
    <g id="ytick_2">
     <g id="line2d_7">
      <g>
       <use xlink:href="#mbb828f08c0" x="27.48399" y="35.120066" style="stroke: #000000; stroke-width: 0.8"/>
      </g>
     </g>
     <g id="text_8">
      <!-- $\mathdefault{2.5}$ -->
      <g transform="translate(13.48399 36.909519) scale(0.05 -0.05)">
       <defs>
        <path id="ArialMT-32" d="M 3222 541 
L 3222 0 
L 194 0 
Q 188 203 259 391 
Q 375 700 629 1000 
Q 884 1300 1366 1694 
Q 2113 2306 2375 2664 
Q 2638 3022 2638 3341 
Q 2638 3675 2398 3904 
Q 2159 4134 1775 4134 
Q 1369 4134 1125 3890 
Q 881 3647 878 3216 
L 300 3275 
Q 359 3922 746 4261 
Q 1134 4600 1788 4600 
Q 2447 4600 2831 4234 
Q 3216 3869 3216 3328 
Q 3216 3053 3103 2787 
Q 2991 2522 2730 2228 
Q 2469 1934 1863 1422 
Q 1356 997 1212 845 
Q 1069 694 975 541 
L 3222 541 
z
" transform="scale(0.015625)"/>
       </defs>
       <use xlink:href="#ArialMT-32" transform="translate(0 0.125)"/>
       <use xlink:href="#ArialMT-2e" transform="translate(55.615234 0.125)"/>
       <use xlink:href="#ArialMT-35" transform="translate(83.398438 0.125)"/>
      </g>
     </g>
    </g>
    <g id="ytick_3">
     <g id="line2d_8">
      <g>
       <use xlink:href="#mbb828f08c0" x="27.48399" y="23.214747" style="stroke: #000000; stroke-width: 0.8"/>
      </g>
     </g>
     <g id="text_9">
      <!-- $\mathdefault{5.0}$ -->
      <g transform="translate(13.48399 25.0042) scale(0.05 -0.05)">
       <use xlink:href="#ArialMT-35" transform="translate(0 0.125)"/>
       <use xlink:href="#ArialMT-2e" transform="translate(55.615234 0.125)"/>
       <use xlink:href="#ArialMT-30" transform="translate(83.398438 0.125)"/>
      </g>
     </g>
    </g>
    <g id="ytick_4">
     <g id="line2d_9">
      <g>
       <use xlink:href="#mbb828f08c0" x="27.48399" y="11.309428" style="stroke: #000000; stroke-width: 0.8"/>
      </g>
     </g>
     <g id="text_10">
      <!-- $\mathdefault{7.5}$ -->
      <g transform="translate(13.48399 13.098881) scale(0.05 -0.05)">
       <defs>
        <path id="ArialMT-37" d="M 303 3981 
L 303 4522 
L 3269 4522 
L 3269 4084 
Q 2831 3619 2401 2847 
Q 1972 2075 1738 1259 
Q 1569 684 1522 0 
L 944 0 
Q 953 541 1156 1306 
Q 1359 2072 1739 2783 
Q 2119 3494 2547 3981 
L 303 3981 
z
" transform="scale(0.015625)"/>
       </defs>
       <use xlink:href="#ArialMT-37" transform="translate(0 0.34375)"/>
       <use xlink:href="#ArialMT-2e" transform="translate(55.615234 0.34375)"/>
       <use xlink:href="#ArialMT-35" transform="translate(83.398438 0.34375)"/>
      </g>
     </g>
    </g>
    <g id="text_11">
     <!-- Density -->
     <g transform="translate(8.010709 36.683125) rotate(-90) scale(0.07 -0.07)">
      <defs>
       <path id="ArialMT-44" d="M 494 0 
L 494 4581 
L 2072 4581 
Q 2606 4581 2888 4516 
Q 3281 4425 3559 4188 
Q 3922 3881 4101 3404 
Q 4281 2928 4281 2316 
Q 4281 1794 4159 1391 
Q 4038 988 3847 723 
Q 3656 459 3429 307 
Q 3203 156 2883 78 
Q 2563 0 2147 0 
L 494 0 
z
M 1100 541 
L 2078 541 
Q 2531 541 2789 625 
Q 3047 709 3200 863 
Q 3416 1078 3536 1442 
Q 3656 1806 3656 2325 
Q 3656 3044 3420 3430 
Q 3184 3816 2847 3947 
Q 2603 4041 2063 4041 
L 1100 4041 
L 1100 541 
z
" transform="scale(0.015625)"/>
       <path id="ArialMT-65" d="M 2694 1069 
L 3275 997 
Q 3138 488 2766 206 
Q 2394 -75 1816 -75 
Q 1088 -75 661 373 
Q 234 822 234 1631 
Q 234 2469 665 2931 
Q 1097 3394 1784 3394 
Q 2450 3394 2872 2941 
Q 3294 2488 3294 1666 
Q 3294 1616 3291 1516 
L 816 1516 
Q 847 969 1125 678 
Q 1403 388 1819 388 
Q 2128 388 2347 550 
Q 2566 713 2694 1069 
z
M 847 1978 
L 2700 1978 
Q 2663 2397 2488 2606 
Q 2219 2931 1791 2931 
Q 1403 2931 1139 2672 
Q 875 2413 847 1978 
z
" transform="scale(0.015625)"/>
       <path id="ArialMT-6e" d="M 422 0 
L 422 3319 
L 928 3319 
L 928 2847 
Q 1294 3394 1984 3394 
Q 2284 3394 2536 3286 
Q 2788 3178 2913 3003 
Q 3038 2828 3088 2588 
Q 3119 2431 3119 2041 
L 3119 0 
L 2556 0 
L 2556 2019 
Q 2556 2363 2490 2533 
Q 2425 2703 2258 2804 
Q 2091 2906 1866 2906 
Q 1506 2906 1245 2678 
Q 984 2450 984 1813 
L 984 0 
L 422 0 
z
" transform="scale(0.015625)"/>
       <path id="ArialMT-73" d="M 197 991 
L 753 1078 
Q 800 744 1014 566 
Q 1228 388 1613 388 
Q 2000 388 2187 545 
Q 2375 703 2375 916 
Q 2375 1106 2209 1216 
Q 2094 1291 1634 1406 
Q 1016 1563 777 1677 
Q 538 1791 414 1992 
Q 291 2194 291 2438 
Q 291 2659 392 2848 
Q 494 3038 669 3163 
Q 800 3259 1026 3326 
Q 1253 3394 1513 3394 
Q 1903 3394 2198 3281 
Q 2494 3169 2634 2976 
Q 2775 2784 2828 2463 
L 2278 2388 
Q 2241 2644 2061 2787 
Q 1881 2931 1553 2931 
Q 1166 2931 1000 2803 
Q 834 2675 834 2503 
Q 834 2394 903 2306 
Q 972 2216 1119 2156 
Q 1203 2125 1616 2013 
Q 2213 1853 2448 1751 
Q 2684 1650 2818 1456 
Q 2953 1263 2953 975 
Q 2953 694 2789 445 
Q 2625 197 2315 61 
Q 2006 -75 1616 -75 
Q 969 -75 630 194 
Q 291 463 197 991 
z
" transform="scale(0.015625)"/>
       <path id="ArialMT-69" d="M 425 3934 
L 425 4581 
L 988 4581 
L 988 3934 
L 425 3934 
z
M 425 0 
L 425 3319 
L 988 3319 
L 988 0 
L 425 0 
z
" transform="scale(0.015625)"/>
       <path id="ArialMT-74" d="M 1650 503 
L 1731 6 
Q 1494 -44 1306 -44 
Q 1000 -44 831 53 
Q 663 150 594 308 
Q 525 466 525 972 
L 525 2881 
L 113 2881 
L 113 3319 
L 525 3319 
L 525 4141 
L 1084 4478 
L 1084 3319 
L 1650 3319 
L 1650 2881 
L 1084 2881 
L 1084 941 
Q 1084 700 1114 631 
Q 1144 563 1211 522 
Q 1278 481 1403 481 
Q 1497 481 1650 503 
z
" transform="scale(0.015625)"/>
       <path id="ArialMT-79" d="M 397 -1278 
L 334 -750 
Q 519 -800 656 -800 
Q 844 -800 956 -737 
Q 1069 -675 1141 -563 
Q 1194 -478 1313 -144 
Q 1328 -97 1363 -6 
L 103 3319 
L 709 3319 
L 1400 1397 
Q 1534 1031 1641 628 
Q 1738 1016 1872 1384 
L 2581 3319 
L 3144 3319 
L 1881 -56 
Q 1678 -603 1566 -809 
Q 1416 -1088 1222 -1217 
Q 1028 -1347 759 -1347 
Q 597 -1347 397 -1278 
z
" transform="scale(0.015625)"/>
      </defs>
      <use xlink:href="#ArialMT-44"/>
      <use xlink:href="#ArialMT-65" x="72.216797"/>
      <use xlink:href="#ArialMT-6e" x="127.832031"/>
      <use xlink:href="#ArialMT-73" x="183.447266"/>
      <use xlink:href="#ArialMT-69" x="233.447266"/>
      <use xlink:href="#ArialMT-74" x="255.664062"/>
      <use xlink:href="#ArialMT-79" x="283.447266"/>
     </g>
    </g>
   </g>
   <g id="patch_3">
    <path d="M 31.989252 47.025385 
L 54.743102 46.925505 
L 54.743102 46.84824 
L 57.473564 46.763437 
L 57.473564 46.703132 
L 60.204026 46.635289 
L 60.204026 46.554255 
L 62.024334 46.484527 
L 62.024334 46.329997 
L 63.844642 46.258385 
L 63.844642 46.041665 
L 65.66495 45.975707 
L 65.66495 45.853213 
L 66.575104 45.853213 
L 66.575104 45.51023 
L 67.485258 45.51023 
L 67.485258 45.33497 
L 68.395412 45.33497 
L 68.395412 44.944874 
L 69.305566 44.944874 
L 69.305566 44.268331 
L 70.21572 44.268331 
L 70.21572 43.263881 
L 71.125874 43.263881 
L 71.125874 42.692871 
L 72.036028 42.692871 
L 72.036028 40.900691 
L 72.946182 40.900691 
L 72.946182 39.148087 
L 73.856336 39.148087 
L 73.856336 35.258435 
L 74.76649 35.258435 
L 74.76649 30.113693 
L 75.676644 30.113693 
L 75.676644 17.491171 
L 76.586798 17.491171 
L 76.586798 5.096675 
L 77.496952 5.096675 
L 77.496952 20.698626 
L 78.407106 20.698626 
L 78.407106 31.069145 
L 79.31726 31.069145 
L 79.31726 35.463848 
L 80.227414 35.463848 
L 80.227414 38.19075 
L 81.137568 38.19075 
L 81.137568 40.403178 
L 82.047722 40.403178 
L 82.047722 42.315967 
L 82.957876 42.315967 
L 82.957876 43.026431 
L 83.86803 43.026431 
L 83.86803 43.904618 
L 84.778184 43.904618 
L 84.778184 44.682925 
L 85.688338 44.682925 
L 85.688338 45.263358 
L 86.598492 45.263358 
L 86.598492 45.498923 
L 87.508646 45.498923 
L 87.508646 45.732604 
L 88.4188 45.732604 
L 88.4188 45.958746 
L 90.239108 46.062395 
L 90.239108 46.162274 
L 92.059416 46.209387 
L 92.059416 46.392186 
L 94.789878 46.467567 
L 94.789878 46.522218 
L 96.610186 46.544832 
L 96.610186 46.654134 
L 98.430494 46.699363 
L 98.430494 46.791704 
L 106.62188 46.891584 
L 106.62188 46.92739 
L 122.094498 47.025385 
L 122.094498 47.025385 
" clip-path="url(#p8c86040bb9)" style="fill: none; opacity: 0.75; stroke: #1a1513; stroke-linejoin: miter"/>
   </g>
   <g id="patch_4">
    <path d="M 31.989252 47.025385 
L 64.754796 46.961596 
L 64.754796 46.887734 
L 66.575104 46.787014 
L 66.575104 46.699723 
L 68.395412 46.706438 
L 68.395412 46.568787 
L 69.305566 46.568787 
L 69.305566 46.447923 
L 70.21572 46.447923 
L 70.21572 46.226339 
L 71.125874 46.226339 
L 71.125874 45.309786 
L 72.036028 45.309786 
L 72.036028 44.628247 
L 72.946182 44.628247 
L 72.946182 43.043584 
L 73.856336 43.043584 
L 73.856336 41.475708 
L 74.76649 41.475708 
L 74.76649 39.850757 
L 75.676644 39.850757 
L 75.676644 33.602753 
L 76.586798 33.602753 
L 76.586798 24.88375 
L 77.496952 24.88375 
L 77.496952 33.97206 
L 78.407106 33.97206 
L 78.407106 37.396544 
L 79.31726 37.396544 
L 79.31726 38.621971 
L 80.227414 38.621971 
L 80.227414 39.350513 
L 82.047722 39.424375 
L 82.047722 39.78361 
L 82.957876 39.78361 
L 82.957876 38.846913 
L 83.86803 38.846913 
L 83.86803 39.642602 
L 84.778184 39.642602 
L 84.778184 39.078569 
L 85.688338 39.078569 
L 85.688338 39.679532 
L 86.598492 39.679532 
L 86.598492 39.874258 
L 88.4188 39.763466 
L 88.4188 40.878102 
L 89.328954 40.878102 
L 89.328954 40.995608 
L 90.239108 40.995608 
L 90.239108 41.482422 
L 91.149262 41.482422 
L 91.149262 42.137103 
L 92.96957 42.163962 
L 92.96957 42.529911 
L 93.879724 42.529911 
L 93.879724 42.95965 
L 95.700032 42.92272 
L 95.700032 43.469966 
L 96.610186 43.469966 
L 96.610186 43.607616 
L 98.430494 43.661334 
L 98.430494 43.933278 
L 99.340648 43.933278 
L 99.340648 44.164934 
L 100.250802 44.164934 
L 100.250802 44.379804 
L 101.160956 44.379804 
L 101.160956 44.655105 
L 102.07111 44.655105 
L 102.07111 44.524169 
L 102.981264 44.524169 
L 102.981264 44.920335 
L 103.891418 44.920335 
L 103.891418 45.11506 
L 104.801572 45.11506 
L 104.801572 45.464223 
L 106.62188 45.53137 
L 106.62188 45.726096 
L 107.532034 45.726096 
L 107.532034 45.843603 
L 108.442188 45.843603 
L 108.442188 46.159192 
L 110.262496 46.165907 
L 110.262496 46.441208 
L 112.082804 46.468067 
L 112.082804 46.672865 
L 113.903112 46.753441 
L 113.903112 46.850803 
L 116.633574 46.944809 
L 116.633574 46.995169 
L 122.094498 47.025385 
L 122.094498 47.025385 
" clip-path="url(#p8c86040bb9)" style="fill: none; opacity: 0.75; stroke: #8abc53; stroke-linejoin: miter"/>
   </g>
   <g id="patch_5">
    <path d="M 31.989252 47.025385 
L 37.450176 46.934821 
L 37.450176 46.891508 
L 39.270484 46.84032 
L 39.270484 46.667068 
L 41.090792 46.635568 
L 41.090792 46.489878 
L 42.000946 46.489878 
L 42.000946 46.328439 
L 43.821254 46.257563 
L 43.821254 46.029185 
L 44.731408 46.029185 
L 44.731408 45.863808 
L 46.551716 45.761432 
L 46.551716 45.631493 
L 47.46187 45.631493 
L 47.46187 45.44249 
L 48.372024 45.44249 
L 48.372024 45.162924 
L 49.282178 45.162924 
L 49.282178 44.99361 
L 50.192332 44.99361 
L 50.192332 44.769169 
L 51.102486 44.769169 
L 51.102486 44.454165 
L 52.922794 44.454165 
L 52.922794 44.127349 
L 53.832948 44.127349 
L 53.832948 43.902908 
L 54.743102 43.902908 
L 54.743102 43.662718 
L 55.653256 43.662718 
L 55.653256 43.091773 
L 56.56341 43.091773 
L 56.56341 42.662581 
L 57.473564 42.662581 
L 57.473564 42.170387 
L 59.293872 42.083761 
L 59.293872 41.052123 
L 60.204026 41.052123 
L 60.204026 40.674118 
L 61.11418 40.674118 
L 61.11418 39.693668 
L 62.934488 39.673981 
L 62.934488 38.21315 
L 63.844642 38.21315 
L 63.844642 38.394277 
L 64.754796 38.394277 
L 64.754796 37.776082 
L 65.66495 37.776082 
L 65.66495 37.567392 
L 66.575104 37.567392 
L 66.575104 36.571192 
L 67.485258 36.571192 
L 67.485258 37.087011 
L 68.395412 37.087011 
L 68.395412 36.2365 
L 69.305566 36.2365 
L 69.305566 36.039623 
L 70.21572 36.039623 
L 70.21572 35.409615 
L 71.125874 35.409615 
L 71.125874 36.106561 
L 72.946182 36.106561 
L 72.946182 37.319326 
L 73.856336 37.319326 
L 73.856336 37.689456 
L 74.76649 37.689456 
L 74.76649 39.532229 
L 75.676644 39.532229 
L 75.676644 40.839495 
L 76.586798 40.839495 
L 76.586798 42.418452 
L 77.496952 42.418452 
L 77.496952 43.733594 
L 78.407106 43.733594 
L 78.407106 44.989672 
L 79.31726 44.989672 
L 79.31726 45.371614 
L 80.227414 45.371614 
L 80.227414 46.029185 
L 81.137568 46.029185 
L 81.137568 46.281188 
L 82.047722 46.281188 
L 82.047722 46.419002 
L 82.957876 46.419002 
L 82.957876 46.737944 
L 84.778184 46.800945 
L 84.778184 46.871821 
L 98.430494 46.982072 
L 98.430494 46.993885 
L 122.094498 47.025385 
L 122.094498 47.025385 
" clip-path="url(#p8c86040bb9)" style="fill: none; opacity: 0.75; stroke: #d889ca; stroke-linejoin: miter"/>
   </g>
   <g id="patch_6">
    <path d="M 27.48399 47.025385 
L 27.48399 3.00024 
" style="fill: none; stroke: #000000; stroke-width: 0.8; stroke-linejoin: miter; stroke-linecap: square"/>
   </g>
   <g id="patch_7">
    <path d="M 27.48399 47.025385 
L 126.59976 47.025385 
" style="fill: none; stroke: #000000; stroke-width: 0.8; stroke-linejoin: miter; stroke-linecap: square"/>
   </g>
  </g>
 </g>
 <defs>
  <clipPath id="p8c86040bb9">
   <rect x="27.48399" y="3.00024" width="99.11577" height="44.025145"/>
  </clipPath>
 </defs>
</svg>
