<?xml version="1.0" encoding="utf-8" standalone="no"?>
<!DOCTYPE svg PUBLIC "-//W3C//DTD SVG 1.1//EN"
  "http://www.w3.org/Graphics/SVG/1.1/DTD/svg11.dtd">
<svg xmlns:xlink="http://www.w3.org/1999/xlink" width="144pt" height="144pt" viewBox="0 0 144 144" xmlns="http://www.w3.org/2000/svg" version="1.1">
 <metadata>
  <rdf:RDF xmlns:dc="http://purl.org/dc/elements/1.1/" xmlns:cc="http://creativecommons.org/ns#" xmlns:rdf="http://www.w3.org/1999/02/22-rdf-syntax-ns#">
   <cc:Work>
    <dc:type rdf:resource="http://purl.org/dc/dcmitype/StillImage"/>
    <dc:date>2024-05-09T12:30:08.110446</dc:date>
    <dc:format>image/svg+xml</dc:format>
    <dc:creator>
     <cc:Agent>
      <dc:title>Matplotlib v3.8.0, https://matplotlib.org/</dc:title>
     </cc:Agent>
    </dc:creator>
   </cc:Work>
  </rdf:RDF>
 </metadata>
 <defs>
  <style type="text/css">*{stroke-linejoin: round; stroke-linecap: butt}</style>
 </defs>
 <g id="figure_1">
  <g id="patch_1">
   <path d="M 0 144 
L 144 144 
L 144 0 
L 0 0 
L 0 144 
z
" style="fill: none"/>
  </g>
  <g id="axes_1">
   <g id="patch_2">
    <path d="M 30.38399 119.025385 
L 140.99976 119.025385 
L 140.99976 3.00024 
L 30.38399 3.00024 
L 30.38399 119.025385 
z
" style="fill: none"/>
   </g>
   <g id="matplotlib.axis_1">
    <g id="xtick_1">
     <g id="line2d_1">
      <defs>
       <path id="m4d61c0fb75" d="M 0 0 
L 0 3.5 
" style="stroke: #000000; stroke-width: 0.8"/>
      </defs>
      <g>
       <use xlink:href="#m4d61c0fb75" x="34.385859" y="119.025385" style="stroke: #000000; stroke-width: 0.8"/>
      </g>
     </g>
     <g id="text_1">
      <!-- $\mathdefault{−1.0}$ -->
      <g transform="translate(29.435859 129.604291) scale(0.05 -0.05)">
       <defs>
        <path id="ArialMT-2212" d="M 3381 1997 
L 356 1997 
L 356 2522 
L 3381 2522 
L 3381 1997 
z
" transform="scale(0.015625)"/>
        <path id="ArialMT-31" d="M 2384 0 
L 1822 0 
L 1822 3584 
Q 1619 3391 1289 3197 
Q 959 3003 697 2906 
L 697 3450 
Q 1169 3672 1522 3987 
Q 1875 4303 2022 4600 
L 2384 4600 
L 2384 0 
z
" transform="scale(0.015625)"/>
        <path id="ArialMT-2e" d="M 581 0 
L 581 641 
L 1222 641 
L 1222 0 
L 581 0 
z
" transform="scale(0.015625)"/>
        <path id="ArialMT-30" d="M 266 2259 
Q 266 3072 433 3567 
Q 600 4063 929 4331 
Q 1259 4600 1759 4600 
Q 2128 4600 2406 4451 
Q 2684 4303 2865 4023 
Q 3047 3744 3150 3342 
Q 3253 2941 3253 2259 
Q 3253 1453 3087 958 
Q 2922 463 2592 192 
Q 2263 -78 1759 -78 
Q 1097 -78 719 397 
Q 266 969 266 2259 
z
M 844 2259 
Q 844 1131 1108 757 
Q 1372 384 1759 384 
Q 2147 384 2411 759 
Q 2675 1134 2675 2259 
Q 2675 3391 2411 3762 
Q 2147 4134 1753 4134 
Q 1366 4134 1134 3806 
Q 844 3388 844 2259 
z
" transform="scale(0.015625)"/>
       </defs>
       <use xlink:href="#ArialMT-2212" transform="translate(0 0.125)"/>
       <use xlink:href="#ArialMT-31" transform="translate(58.398438 0.125)"/>
       <use xlink:href="#ArialMT-2e" transform="translate(114.013672 0.125)"/>
       <use xlink:href="#ArialMT-30" transform="translate(141.796875 0.125)"/>
      </g>
     </g>
    </g>
    <g id="xtick_2">
     <g id="line2d_2">
      <g>
       <use xlink:href="#m4d61c0fb75" x="59.782337" y="119.025385" style="stroke: #000000; stroke-width: 0.8"/>
      </g>
     </g>
     <g id="text_2">
      <!-- $\mathdefault{−0.5}$ -->
      <g transform="translate(54.832337 129.604291) scale(0.05 -0.05)">
       <defs>
        <path id="ArialMT-35" d="M 266 1200 
L 856 1250 
Q 922 819 1161 601 
Q 1400 384 1738 384 
Q 2144 384 2425 690 
Q 2706 997 2706 1503 
Q 2706 1984 2436 2262 
Q 2166 2541 1728 2541 
Q 1456 2541 1237 2417 
Q 1019 2294 894 2097 
L 366 2166 
L 809 4519 
L 3088 4519 
L 3088 3981 
L 1259 3981 
L 1013 2750 
Q 1425 3038 1878 3038 
Q 2478 3038 2890 2622 
Q 3303 2206 3303 1553 
Q 3303 931 2941 478 
Q 2500 -78 1738 -78 
Q 1113 -78 717 272 
Q 322 622 266 1200 
z
" transform="scale(0.015625)"/>
       </defs>
       <use xlink:href="#ArialMT-2212" transform="translate(0 0.125)"/>
       <use xlink:href="#ArialMT-30" transform="translate(58.398438 0.125)"/>
       <use xlink:href="#ArialMT-2e" transform="translate(114.013672 0.125)"/>
       <use xlink:href="#ArialMT-35" transform="translate(141.796875 0.125)"/>
      </g>
     </g>
    </g>
    <g id="xtick_3">
     <g id="line2d_3">
      <g>
       <use xlink:href="#m4d61c0fb75" x="85.178815" y="119.025385" style="stroke: #000000; stroke-width: 0.8"/>
      </g>
     </g>
     <g id="text_3">
      <!-- $\mathdefault{0.0}$ -->
      <g transform="translate(81.678815 129.604291) scale(0.05 -0.05)">
       <use xlink:href="#ArialMT-30" transform="translate(0 0.125)"/>
       <use xlink:href="#ArialMT-2e" transform="translate(55.615234 0.125)"/>
       <use xlink:href="#ArialMT-30" transform="translate(83.398438 0.125)"/>
      </g>
     </g>
    </g>
    <g id="xtick_4">
     <g id="line2d_4">
      <g>
       <use xlink:href="#m4d61c0fb75" x="110.575293" y="119.025385" style="stroke: #000000; stroke-width: 0.8"/>
      </g>
     </g>
     <g id="text_4">
      <!-- $\mathdefault{0.5}$ -->
      <g transform="translate(107.075293 129.604291) scale(0.05 -0.05)">
       <use xlink:href="#ArialMT-30" transform="translate(0 0.125)"/>
       <use xlink:href="#ArialMT-2e" transform="translate(55.615234 0.125)"/>
       <use xlink:href="#ArialMT-35" transform="translate(83.398438 0.125)"/>
      </g>
     </g>
    </g>
    <g id="xtick_5">
     <g id="line2d_5">
      <g>
       <use xlink:href="#m4d61c0fb75" x="135.97177" y="119.025385" style="stroke: #000000; stroke-width: 0.8"/>
      </g>
     </g>
     <g id="text_5">
      <!-- $\mathdefault{1.0}$ -->
      <g transform="translate(132.47177 129.604291) scale(0.05 -0.05)">
       <use xlink:href="#ArialMT-31" transform="translate(0 0.125)"/>
       <use xlink:href="#ArialMT-2e" transform="translate(55.615234 0.125)"/>
       <use xlink:href="#ArialMT-30" transform="translate(83.398438 0.125)"/>
      </g>
     </g>
    </g>
    <g id="text_6">
     <!-- $m_L - m_R$ -->
     <g transform="translate(71.306875 139.60851) scale(0.07 -0.07)">
      <defs>
       <path id="DejaVuSans-Oblique-6d" d="M 5747 2113 
L 5338 0 
L 4763 0 
L 5166 2094 
Q 5191 2228 5203 2325 
Q 5216 2422 5216 2491 
Q 5216 2772 5059 2928 
Q 4903 3084 4622 3084 
Q 4203 3084 3875 2770 
Q 3547 2456 3450 1953 
L 3066 0 
L 2491 0 
L 2900 2094 
Q 2925 2209 2937 2307 
Q 2950 2406 2950 2484 
Q 2950 2769 2794 2926 
Q 2638 3084 2363 3084 
Q 1938 3084 1609 2770 
Q 1281 2456 1184 1953 
L 800 0 
L 225 0 
L 909 3500 
L 1484 3500 
L 1375 2956 
Q 1609 3263 1923 3423 
Q 2238 3584 2597 3584 
Q 2978 3584 3223 3384 
Q 3469 3184 3519 2828 
Q 3781 3197 4126 3390 
Q 4472 3584 4856 3584 
Q 5306 3584 5551 3325 
Q 5797 3066 5797 2591 
Q 5797 2488 5784 2364 
Q 5772 2241 5747 2113 
z
" transform="scale(0.015625)"/>
       <path id="DejaVuSans-Oblique-4c" d="M 1075 4666 
L 1709 4666 
L 909 525 
L 3181 525 
L 3078 0 
L 172 0 
L 1075 4666 
z
" transform="scale(0.015625)"/>
       <path id="DejaVuSans-2212" d="M 678 2272 
L 4684 2272 
L 4684 1741 
L 678 1741 
L 678 2272 
z
" transform="scale(0.015625)"/>
       <path id="DejaVuSans-Oblique-52" d="M 1613 4147 
L 1294 2491 
L 2106 2491 
Q 2584 2491 2879 2755 
Q 3175 3019 3175 3444 
Q 3175 3784 2976 3965 
Q 2778 4147 2406 4147 
L 1613 4147 
z
M 2772 2241 
Q 2972 2194 3105 2009 
Q 3238 1825 3413 1275 
L 3809 0 
L 3144 0 
L 2778 1197 
Q 2638 1659 2453 1815 
Q 2269 1972 1888 1972 
L 1191 1972 
L 806 0 
L 172 0 
L 1081 4666 
L 2503 4666 
Q 3150 4666 3495 4373 
Q 3841 4081 3841 3531 
Q 3841 3044 3547 2687 
Q 3253 2331 2772 2241 
z
" transform="scale(0.015625)"/>
      </defs>
      <use xlink:href="#DejaVuSans-Oblique-6d"/>
      <use xlink:href="#DejaVuSans-Oblique-4c" transform="translate(97.412109 -16.40625) scale(0.7)"/>
      <use xlink:href="#DejaVuSans-2212" transform="translate(158.62793 0)"/>
      <use xlink:href="#DejaVuSans-Oblique-6d" transform="translate(261.899414 0)"/>
      <use xlink:href="#DejaVuSans-Oblique-52" transform="translate(359.311523 -16.40625) scale(0.7)"/>
     </g>
    </g>
   </g>
   <g id="matplotlib.axis_2">
    <g id="ytick_1">
     <g id="line2d_6">
      <defs>
       <path id="m34aa761bf2" d="M 0 0 
L -3.5 0 
" style="stroke: #000000; stroke-width: 0.8"/>
      </defs>
      <g>
       <use xlink:href="#m34aa761bf2" x="30.38399" y="119.025385" style="stroke: #000000; stroke-width: 0.8"/>
      </g>
     </g>
     <g id="text_7">
      <!-- $\mathdefault{10^{-2}}$ -->
      <g transform="translate(13.48399 121.60351) scale(0.05 -0.05)">
       <defs>
        <path id="ArialMT-32" d="M 3222 541 
L 3222 0 
L 194 0 
Q 188 203 259 391 
Q 375 700 629 1000 
Q 884 1300 1366 1694 
Q 2113 2306 2375 2664 
Q 2638 3022 2638 3341 
Q 2638 3675 2398 3904 
Q 2159 4134 1775 4134 
Q 1369 4134 1125 3890 
Q 881 3647 878 3216 
L 300 3275 
Q 359 3922 746 4261 
Q 1134 4600 1788 4600 
Q 2447 4600 2831 4234 
Q 3216 3869 3216 3328 
Q 3216 3053 3103 2787 
Q 2991 2522 2730 2228 
Q 2469 1934 1863 1422 
Q 1356 997 1212 845 
Q 1069 694 975 541 
L 3222 541 
z
" transform="scale(0.015625)"/>
       </defs>
       <use xlink:href="#ArialMT-31" transform="translate(0 0.99375)"/>
       <use xlink:href="#ArialMT-30" transform="translate(55.615234 0.99375)"/>
       <use xlink:href="#ArialMT-2212" transform="translate(112.972813 70.6875) scale(0.7)"/>
       <use xlink:href="#ArialMT-32" transform="translate(153.851719 70.6875) scale(0.7)"/>
      </g>
     </g>
    </g>
    <g id="ytick_2">
     <g id="line2d_7">
      <g>
       <use xlink:href="#m34aa761bf2" x="30.38399" y="81.344867" style="stroke: #000000; stroke-width: 0.8"/>
      </g>
     </g>
     <g id="text_8">
      <!-- $\mathdefault{10^{-1}}$ -->
      <g transform="translate(13.48399 83.922992) scale(0.05 -0.05)">
       <use xlink:href="#ArialMT-31" transform="translate(0 0.99375)"/>
       <use xlink:href="#ArialMT-30" transform="translate(55.615234 0.99375)"/>
       <use xlink:href="#ArialMT-2212" transform="translate(112.972813 70.6875) scale(0.7)"/>
       <use xlink:href="#ArialMT-31" transform="translate(153.851719 70.6875) scale(0.7)"/>
      </g>
     </g>
    </g>
    <g id="ytick_3">
     <g id="line2d_8">
      <g>
       <use xlink:href="#m34aa761bf2" x="30.38399" y="43.664349" style="stroke: #000000; stroke-width: 0.8"/>
      </g>
     </g>
     <g id="text_9">
      <!-- $\mathdefault{10^{0}}$ -->
      <g transform="translate(15.53399 46.242474) scale(0.05 -0.05)">
       <use xlink:href="#ArialMT-31" transform="translate(0 0.99375)"/>
       <use xlink:href="#ArialMT-30" transform="translate(55.615234 0.99375)"/>
       <use xlink:href="#ArialMT-30" transform="translate(112.972813 70.6875) scale(0.7)"/>
      </g>
     </g>
    </g>
    <g id="ytick_4">
     <g id="line2d_9">
      <g>
       <use xlink:href="#m34aa761bf2" x="30.38399" y="5.98383" style="stroke: #000000; stroke-width: 0.8"/>
      </g>
     </g>
     <g id="text_10">
      <!-- $\mathdefault{10^{1}}$ -->
      <g transform="translate(15.53399 8.561955) scale(0.05 -0.05)">
       <use xlink:href="#ArialMT-31" transform="translate(0 0.99375)"/>
       <use xlink:href="#ArialMT-30" transform="translate(55.615234 0.99375)"/>
       <use xlink:href="#ArialMT-31" transform="translate(112.972813 70.6875) scale(0.7)"/>
      </g>
     </g>
    </g>
    <g id="ytick_5">
     <g id="line2d_10">
      <defs>
       <path id="ma3259da57a" d="M 0 0 
L -2 0 
" style="stroke: #000000; stroke-width: 0.6"/>
      </defs>
      <g>
       <use xlink:href="#ma3259da57a" x="30.38399" y="107.682419" style="stroke: #000000; stroke-width: 0.6"/>
      </g>
     </g>
    </g>
    <g id="ytick_6">
     <g id="line2d_11">
      <g>
       <use xlink:href="#ma3259da57a" x="30.38399" y="101.047209" style="stroke: #000000; stroke-width: 0.6"/>
      </g>
     </g>
    </g>
    <g id="ytick_7">
     <g id="line2d_12">
      <g>
       <use xlink:href="#ma3259da57a" x="30.38399" y="96.339453" style="stroke: #000000; stroke-width: 0.6"/>
      </g>
     </g>
    </g>
    <g id="ytick_8">
     <g id="line2d_13">
      <g>
       <use xlink:href="#ma3259da57a" x="30.38399" y="92.687833" style="stroke: #000000; stroke-width: 0.6"/>
      </g>
     </g>
    </g>
    <g id="ytick_9">
     <g id="line2d_14">
      <g>
       <use xlink:href="#ma3259da57a" x="30.38399" y="89.704243" style="stroke: #000000; stroke-width: 0.6"/>
      </g>
     </g>
    </g>
    <g id="ytick_10">
     <g id="line2d_15">
      <g>
       <use xlink:href="#ma3259da57a" x="30.38399" y="87.181653" style="stroke: #000000; stroke-width: 0.6"/>
      </g>
     </g>
    </g>
    <g id="ytick_11">
     <g id="line2d_16">
      <g>
       <use xlink:href="#ma3259da57a" x="30.38399" y="84.996486" style="stroke: #000000; stroke-width: 0.6"/>
      </g>
     </g>
    </g>
    <g id="ytick_12">
     <g id="line2d_17">
      <g>
       <use xlink:href="#ma3259da57a" x="30.38399" y="83.069033" style="stroke: #000000; stroke-width: 0.6"/>
      </g>
     </g>
    </g>
    <g id="ytick_13">
     <g id="line2d_18">
      <g>
       <use xlink:href="#ma3259da57a" x="30.38399" y="70.001901" style="stroke: #000000; stroke-width: 0.6"/>
      </g>
     </g>
    </g>
    <g id="ytick_14">
     <g id="line2d_19">
      <g>
       <use xlink:href="#ma3259da57a" x="30.38399" y="63.366691" style="stroke: #000000; stroke-width: 0.6"/>
      </g>
     </g>
    </g>
    <g id="ytick_15">
     <g id="line2d_20">
      <g>
       <use xlink:href="#ma3259da57a" x="30.38399" y="58.658934" style="stroke: #000000; stroke-width: 0.6"/>
      </g>
     </g>
    </g>
    <g id="ytick_16">
     <g id="line2d_21">
      <g>
       <use xlink:href="#ma3259da57a" x="30.38399" y="55.007315" style="stroke: #000000; stroke-width: 0.6"/>
      </g>
     </g>
    </g>
    <g id="ytick_17">
     <g id="line2d_22">
      <g>
       <use xlink:href="#ma3259da57a" x="30.38399" y="52.023724" style="stroke: #000000; stroke-width: 0.6"/>
      </g>
     </g>
    </g>
    <g id="ytick_18">
     <g id="line2d_23">
      <g>
       <use xlink:href="#ma3259da57a" x="30.38399" y="49.501135" style="stroke: #000000; stroke-width: 0.6"/>
      </g>
     </g>
    </g>
    <g id="ytick_19">
     <g id="line2d_24">
      <g>
       <use xlink:href="#ma3259da57a" x="30.38399" y="47.315968" style="stroke: #000000; stroke-width: 0.6"/>
      </g>
     </g>
    </g>
    <g id="ytick_20">
     <g id="line2d_25">
      <g>
       <use xlink:href="#ma3259da57a" x="30.38399" y="45.388515" style="stroke: #000000; stroke-width: 0.6"/>
      </g>
     </g>
    </g>
    <g id="ytick_21">
     <g id="line2d_26">
      <g>
       <use xlink:href="#ma3259da57a" x="30.38399" y="32.321382" style="stroke: #000000; stroke-width: 0.6"/>
      </g>
     </g>
    </g>
    <g id="ytick_22">
     <g id="line2d_27">
      <g>
       <use xlink:href="#ma3259da57a" x="30.38399" y="25.686172" style="stroke: #000000; stroke-width: 0.6"/>
      </g>
     </g>
    </g>
    <g id="ytick_23">
     <g id="line2d_28">
      <g>
       <use xlink:href="#ma3259da57a" x="30.38399" y="20.978416" style="stroke: #000000; stroke-width: 0.6"/>
      </g>
     </g>
    </g>
    <g id="ytick_24">
     <g id="line2d_29">
      <g>
       <use xlink:href="#ma3259da57a" x="30.38399" y="17.326797" style="stroke: #000000; stroke-width: 0.6"/>
      </g>
     </g>
    </g>
    <g id="ytick_25">
     <g id="line2d_30">
      <g>
       <use xlink:href="#ma3259da57a" x="30.38399" y="14.343206" style="stroke: #000000; stroke-width: 0.6"/>
      </g>
     </g>
    </g>
    <g id="ytick_26">
     <g id="line2d_31">
      <g>
       <use xlink:href="#ma3259da57a" x="30.38399" y="11.820617" style="stroke: #000000; stroke-width: 0.6"/>
      </g>
     </g>
    </g>
    <g id="ytick_27">
     <g id="line2d_32">
      <g>
       <use xlink:href="#ma3259da57a" x="30.38399" y="9.63545" style="stroke: #000000; stroke-width: 0.6"/>
      </g>
     </g>
    </g>
    <g id="ytick_28">
     <g id="line2d_33">
      <g>
       <use xlink:href="#ma3259da57a" x="30.38399" y="7.707996" style="stroke: #000000; stroke-width: 0.6"/>
      </g>
     </g>
    </g>
    <g id="text_11">
     <!-- Density -->
     <g transform="translate(8.010709 72.683125) rotate(-90) scale(0.07 -0.07)">
      <defs>
       <path id="ArialMT-44" d="M 494 0 
L 494 4581 
L 2072 4581 
Q 2606 4581 2888 4516 
Q 3281 4425 3559 4188 
Q 3922 3881 4101 3404 
Q 4281 2928 4281 2316 
Q 4281 1794 4159 1391 
Q 4038 988 3847 723 
Q 3656 459 3429 307 
Q 3203 156 2883 78 
Q 2563 0 2147 0 
L 494 0 
z
M 1100 541 
L 2078 541 
Q 2531 541 2789 625 
Q 3047 709 3200 863 
Q 3416 1078 3536 1442 
Q 3656 1806 3656 2325 
Q 3656 3044 3420 3430 
Q 3184 3816 2847 3947 
Q 2603 4041 2063 4041 
L 1100 4041 
L 1100 541 
z
" transform="scale(0.015625)"/>
       <path id="ArialMT-65" d="M 2694 1069 
L 3275 997 
Q 3138 488 2766 206 
Q 2394 -75 1816 -75 
Q 1088 -75 661 373 
Q 234 822 234 1631 
Q 234 2469 665 2931 
Q 1097 3394 1784 3394 
Q 2450 3394 2872 2941 
Q 3294 2488 3294 1666 
Q 3294 1616 3291 1516 
L 816 1516 
Q 847 969 1125 678 
Q 1403 388 1819 388 
Q 2128 388 2347 550 
Q 2566 713 2694 1069 
z
M 847 1978 
L 2700 1978 
Q 2663 2397 2488 2606 
Q 2219 2931 1791 2931 
Q 1403 2931 1139 2672 
Q 875 2413 847 1978 
z
" transform="scale(0.015625)"/>
       <path id="ArialMT-6e" d="M 422 0 
L 422 3319 
L 928 3319 
L 928 2847 
Q 1294 3394 1984 3394 
Q 2284 3394 2536 3286 
Q 2788 3178 2913 3003 
Q 3038 2828 3088 2588 
Q 3119 2431 3119 2041 
L 3119 0 
L 2556 0 
L 2556 2019 
Q 2556 2363 2490 2533 
Q 2425 2703 2258 2804 
Q 2091 2906 1866 2906 
Q 1506 2906 1245 2678 
Q 984 2450 984 1813 
L 984 0 
L 422 0 
z
" transform="scale(0.015625)"/>
       <path id="ArialMT-73" d="M 197 991 
L 753 1078 
Q 800 744 1014 566 
Q 1228 388 1613 388 
Q 2000 388 2187 545 
Q 2375 703 2375 916 
Q 2375 1106 2209 1216 
Q 2094 1291 1634 1406 
Q 1016 1563 777 1677 
Q 538 1791 414 1992 
Q 291 2194 291 2438 
Q 291 2659 392 2848 
Q 494 3038 669 3163 
Q 800 3259 1026 3326 
Q 1253 3394 1513 3394 
Q 1903 3394 2198 3281 
Q 2494 3169 2634 2976 
Q 2775 2784 2828 2463 
L 2278 2388 
Q 2241 2644 2061 2787 
Q 1881 2931 1553 2931 
Q 1166 2931 1000 2803 
Q 834 2675 834 2503 
Q 834 2394 903 2306 
Q 972 2216 1119 2156 
Q 1203 2125 1616 2013 
Q 2213 1853 2448 1751 
Q 2684 1650 2818 1456 
Q 2953 1263 2953 975 
Q 2953 694 2789 445 
Q 2625 197 2315 61 
Q 2006 -75 1616 -75 
Q 969 -75 630 194 
Q 291 463 197 991 
z
" transform="scale(0.015625)"/>
       <path id="ArialMT-69" d="M 425 3934 
L 425 4581 
L 988 4581 
L 988 3934 
L 425 3934 
z
M 425 0 
L 425 3319 
L 988 3319 
L 988 0 
L 425 0 
z
" transform="scale(0.015625)"/>
       <path id="ArialMT-74" d="M 1650 503 
L 1731 6 
Q 1494 -44 1306 -44 
Q 1000 -44 831 53 
Q 663 150 594 308 
Q 525 466 525 972 
L 525 2881 
L 113 2881 
L 113 3319 
L 525 3319 
L 525 4141 
L 1084 4478 
L 1084 3319 
L 1650 3319 
L 1650 2881 
L 1084 2881 
L 1084 941 
Q 1084 700 1114 631 
Q 1144 563 1211 522 
Q 1278 481 1403 481 
Q 1497 481 1650 503 
z
" transform="scale(0.015625)"/>
       <path id="ArialMT-79" d="M 397 -1278 
L 334 -750 
Q 519 -800 656 -800 
Q 844 -800 956 -737 
Q 1069 -675 1141 -563 
Q 1194 -478 1313 -144 
Q 1328 -97 1363 -6 
L 103 3319 
L 709 3319 
L 1400 1397 
Q 1534 1031 1641 628 
Q 1738 1016 1872 1384 
L 2581 3319 
L 3144 3319 
L 1881 -56 
Q 1678 -603 1566 -809 
Q 1416 -1088 1222 -1217 
Q 1028 -1347 759 -1347 
Q 597 -1347 397 -1278 
z
" transform="scale(0.015625)"/>
      </defs>
      <use xlink:href="#ArialMT-44"/>
      <use xlink:href="#ArialMT-65" x="72.216797"/>
      <use xlink:href="#ArialMT-6e" x="127.832031"/>
      <use xlink:href="#ArialMT-73" x="183.447266"/>
      <use xlink:href="#ArialMT-69" x="233.447266"/>
      <use xlink:href="#ArialMT-74" x="255.664062"/>
      <use xlink:href="#ArialMT-79" x="283.447266"/>
     </g>
    </g>
   </g>
   <g id="line2d_34">
    <path d="M 39.515624 145 
L 39.516461 114.325498 
L 40.542581 98.869912 
L 41.568701 98.869912 
L 42.594822 97.985132 
L 43.620942 91.065316 
L 44.647062 95.586048 
L 45.673183 90.510536 
L 46.699303 92.234702 
L 47.725423 92.234702 
L 48.751544 92.852301 
L 49.777664 90.510536 
L 50.803784 96.347322 
L 51.829905 93.494126 
L 52.856025 92.234702 
L 53.882145 94.162155 
L 54.908266 83.875326 
L 55.934386 87.526945 
L 56.960506 78.630982 
L 57.986626 75.299199 
L 59.012747 79.72235 
L 60.038867 74.459813 
L 61.064987 73.276326 
L 62.091108 67.688798 
L 63.117228 64.615293 
L 64.143348 63.742316 
L 65.169469 61.280561 
L 66.195589 58.054978 
L 67.221709 54.984044 
L 68.24783 52.667186 
L 69.27395 54.554184 
L 70.30007 47.95943 
L 71.326191 47.838361 
L 72.352311 46.086073 
L 73.378431 43.24155 
L 74.404552 42.240535 
L 75.430672 42.970559 
L 76.456792 40.303564 
L 77.482912 39.681267 
L 78.509033 37.362314 
L 79.535153 37.468646 
L 80.561273 35.633909 
L 81.587394 36.35527 
L 82.613514 35.406621 
L 83.639634 34.192542 
L 84.665755 30.253547 
L 85.691875 28.216632 
L 86.717995 28.436292 
L 87.744116 33.226158 
L 88.770236 39.105333 
L 89.796356 38.594628 
L 90.822477 41.216559 
L 91.848597 43.394062 
L 92.874717 43.828817 
L 93.900838 47.95943 
L 94.926958 45.90644 
L 95.953078 47.519821 
L 96.979198 48.163224 
L 98.005319 47.053345 
L 99.031439 49.531284 
L 100.057559 49.983369 
L 101.08368 52.39935 
L 102.1098 52.240727 
L 103.13592 53.554967 
L 104.162041 57.537774 
L 105.188161 58.902267 
L 106.214281 57.107106 
L 107.240402 61.098732 
L 108.266522 62.613286 
L 109.292642 63.322692 
L 110.318763 63.742316 
L 111.344883 64.955051 
L 112.371003 63.014888 
L 113.397124 70.808194 
L 114.423244 66.264906 
L 115.449364 68.663989 
L 116.475484 70.00977 
L 117.501605 74.256526 
L 118.527725 68.953633 
L 119.553845 73.08714 
L 120.579966 74.055732 
L 121.606086 85.004356 
L 122.632206 78.369146 
L 123.658327 90.510536 
L 124.684447 94.162155 
L 125.710567 110.212878 
L 126.736688 123.483298 
L 127.762808 134.826264 
L 128.683156 145 
" clip-path="url(#p8b6840d163)" style="fill: none; stroke: #033198; stroke-width: 1.5; stroke-linecap: square"/>
   </g>
   <g id="line2d_35">
    <path d="M 39.139192 145 
L 39.516461 136.659175 
L 40.542581 133.007555 
L 41.568701 117.371144 
L 42.594822 112.045789 
L 43.620942 95.657643 
L 44.647062 92.898226 
L 45.673183 88.475076 
L 46.699303 85.527412 
L 47.725423 86.263016 
L 48.751544 83.821239 
L 49.777664 83.660012 
L 50.803784 81.275519 
L 51.829905 80.729987 
L 52.856025 80.463893 
L 53.882145 76.918193 
L 54.908266 75.01437 
L 55.934386 75.109237 
L 56.960506 72.317045 
L 57.986626 71.306093 
L 59.012747 68.924158 
L 60.038867 69.120927 
L 61.064987 66.005894 
L 62.091108 64.396682 
L 63.117228 61.754464 
L 64.143348 60.190942 
L 65.169469 61.135307 
L 66.195589 57.483687 
L 67.221709 55.161376 
L 68.24783 54.473115 
L 69.27395 54.126341 
L 70.30007 52.423304 
L 71.326191 50.794558 
L 72.352311 50.924264 
L 73.378431 50.837679 
L 74.404552 47.00571 
L 75.430672 48.082358 
L 76.456792 46.85269 
L 77.482912 46.785138 
L 78.509033 42.560548 
L 79.535153 43.238344 
L 80.561273 40.739032 
L 81.587394 38.797349 
L 82.613514 36.432154 
L 83.639634 33.976201 
L 84.665755 25.649216 
L 85.691875 21.719285 
L 86.717995 26.920132 
L 87.744116 34.484819 
L 88.770236 35.416912 
L 89.796356 38.48993 
L 90.822477 39.195225 
L 91.848597 42.586606 
L 92.874717 41.984951 
L 93.900838 44.102029 
L 94.926958 45.350014 
L 95.953078 48.228961 
L 96.979198 48.470027 
L 98.005319 50.989504 
L 99.031439 53.864504 
L 100.057559 54.152757 
L 101.08368 54.021103 
L 102.1098 56.478261 
L 103.13592 57.162805 
L 104.162041 57.036194 
L 105.188161 57.483687 
L 106.214281 58.763864 
L 107.240402 58.589587 
L 108.266522 60.695698 
L 109.292642 60.854193 
L 110.318763 62.26723 
L 111.344883 61.421334 
L 112.371003 63.718768 
L 113.397124 63.483305 
L 114.423244 62.354275 
L 115.449364 65.052356 
L 116.475484 66.902801 
L 117.501605 68.601377 
L 118.527725 71.999279 
L 119.553845 72.723132 
L 120.579966 73.828683 
L 121.606086 76.498569 
L 122.632206 78.245767 
L 123.658327 81.275519 
L 124.684447 82.424373 
L 125.710567 90.295222 
L 126.736688 98.978656 
L 127.762808 103.149826 
L 128.788928 112.045789 
L 129.815049 117.371144 
L 130.841169 141.366931 
L 131.867289 136.659175 
L 132.89341 136.659175 
L 133.91953 133.007555 
L 133.919857 145 
" clip-path="url(#p8b6840d163)" style="fill: none; stroke: #399dc7; stroke-width: 1.5; stroke-linecap: square"/>
   </g>
   <g id="line2d_36">
    <path d="M 41.785245 145 
L 42.594822 125.580813 
L 43.620942 119.563203 
L 44.647062 114.237847 
L 45.673183 107.602637 
L 46.699303 95.959397 
L 47.725423 91.326194 
L 48.751544 84.765879 
L 49.777664 80.322987 
L 50.803784 80.322987 
L 51.829905 77.981221 
L 52.856025 75.416182 
L 53.882145 74.509104 
L 54.908266 74.509104 
L 55.934386 71.512149 
L 56.960506 71.512149 
L 57.986626 71.849572 
L 59.012747 70.986339 
L 60.038867 67.503762 
L 61.064987 69.741294 
L 62.091108 65.305529 
L 63.117228 65.489402 
L 64.143348 62.691773 
L 65.169469 63.246553 
L 66.195589 60.851133 
L 67.221709 60.269681 
L 68.24783 58.013265 
L 69.27395 55.7733 
L 70.30007 54.077241 
L 71.326191 53.962563 
L 72.352311 52.900714 
L 73.378431 52.167699 
L 74.404552 50.531839 
L 75.430672 49.967178 
L 76.456792 48.826217 
L 77.482912 45.828717 
L 78.509033 44.265228 
L 79.535153 42.024869 
L 80.561273 39.188873 
L 81.587394 36.237747 
L 82.613514 31.044024 
L 83.639634 26.77877 
L 84.665755 19.003538 
L 85.691875 15.527213 
L 86.717995 20.048342 
L 87.744116 27.143073 
L 88.770236 31.828653 
L 89.796356 36.284237 
L 90.822477 41.461643 
L 91.848597 45.926332 
L 92.874717 47.511225 
L 93.900838 51.643669 
L 94.926958 53.378859 
L 95.953078 56.665173 
L 96.979198 59.071353 
L 98.005319 58.700822 
L 99.031439 60.747011 
L 100.057559 62.383001 
L 101.08368 64.372704 
L 102.1098 66.737735 
L 103.13592 69.210509 
L 104.162041 67.92746 
L 105.188161 70.043788 
L 106.214281 72.546037 
L 107.240402 73.348018 
L 108.266522 74.997631 
L 109.292642 74.751544 
L 110.318763 76.832368 
L 111.344883 78.382823 
L 112.371003 78.382823 
L 113.397124 80.437825 
L 114.423244 81.144314 
L 115.449364 83.192539 
L 116.475484 83.747318 
L 117.501605 89.225308 
L 118.527725 89.624461 
L 119.553845 92.248379 
L 120.579966 91.780791 
L 121.606086 99.987227 
L 122.632206 103.355881 
L 123.658327 112.513681 
L 124.684447 115.173212 
L 125.710567 118.350467 
L 126.736688 114.237847 
L 127.762808 143.558989 
L 128.788928 143.558989 
L 128.788968 145 
" clip-path="url(#p8b6840d163)" style="fill: none; stroke: #c1eac2; stroke-width: 1.5; stroke-linecap: square"/>
   </g>
   <g id="line2d_37">
    <path d="M 46.398582 145 
L 46.699303 138.351516 
L 47.725423 138.351516 
L 48.751544 116.721721 
L 49.777664 113.73813 
L 50.803784 103.33053 
L 51.829905 101.510384 
L 52.856025 95.759954 
L 53.882145 89.533877 
L 54.908266 88.335944 
L 55.934386 83.532208 
L 56.960506 80.287541 
L 57.986626 81.765035 
L 59.012747 76.518613 
L 60.038867 77.382626 
L 61.064987 72.189242 
L 62.091108 70.879388 
L 63.117228 68.710793 
L 64.143348 68.423185 
L 65.169469 66.6421 
L 66.195589 62.666421 
L 67.221709 63.658509 
L 68.24783 59.972833 
L 69.27395 60.212734 
L 70.30007 56.769582 
L 71.326191 57.690145 
L 72.352311 55.713445 
L 73.378431 55.530892 
L 74.404552 53.902964 
L 75.430672 55.299133 
L 76.456792 51.283395 
L 77.482912 48.443809 
L 78.509033 45.952483 
L 79.535153 43.943387 
L 80.561273 39.603822 
L 81.587394 36.661112 
L 82.613514 31.001285 
L 83.639634 25.965211 
L 84.665755 17.590513 
L 85.691875 12.76069 
L 86.717995 21.879108 
L 87.744116 30.862847 
L 88.770236 34.422821 
L 89.796356 38.661381 
L 90.822477 41.448195 
L 91.848597 44.957847 
L 92.874717 45.273481 
L 93.900838 47.073262 
L 94.926958 48.698052 
L 95.953078 50.312503 
L 96.979198 51.545554 
L 98.005319 51.832657 
L 99.031439 55.299133 
L 100.057559 56.004494 
L 101.08368 57.4843 
L 102.1098 59.938846 
L 103.13592 60.738968 
L 104.162041 61.806993 
L 105.188161 64.178059 
L 106.214281 62.94962 
L 107.240402 67.267568 
L 108.266522 66.138539 
L 109.292642 68.944574 
L 110.318763 70.747416 
L 111.344883 71.694383 
L 112.371003 75.521025 
L 113.397124 75.787119 
L 114.423244 76.425368 
L 115.449364 80.524711 
L 116.475484 82.557017 
L 117.501605 85.192699 
L 118.527725 86.344442 
L 119.553845 90.603829 
L 120.579966 91.513199 
L 121.606086 93.765296 
L 122.632206 94.310827 
L 123.658327 100.670998 
L 124.684447 98.383872 
L 125.710567 101.946795 
L 126.736688 104.842167 
L 127.762808 111.215541 
L 128.788928 117.850751 
L 129.815049 115.665584 
L 130.841169 129.193717 
L 131.632317 145 
" clip-path="url(#p8b6840d163)" style="fill: none; stroke: #b58b31; stroke-width: 1.5; stroke-linecap: square"/>
   </g>
   <g id="line2d_38">
    <path d="M 45.673097 145 
L 45.673183 141.875786 
L 45.673268 145 
M 47.725028 145 
L 47.725423 130.532819 
L 48.751544 141.875786 
L 49.777664 141.875786 
L 50.803784 123.897609 
L 51.829905 119.189853 
L 52.856025 117.2624 
L 53.882145 105.034653 
L 54.908266 107.846887 
L 55.934386 102.63557 
L 56.960506 102.63557 
L 57.986626 101.908141 
L 59.012747 94.128098 
L 60.038867 92.053877 
L 61.064987 85.680504 
L 62.091108 85.160954 
L 63.117228 82.348721 
L 64.143348 75.570589 
L 65.169469 72.119412 
L 66.195589 74.206096 
L 67.221709 70.791837 
L 68.24783 65.872924 
L 69.27395 63.463115 
L 70.30007 62.033565 
L 71.326191 60.044007 
L 72.352311 57.263705 
L 73.378431 56.536276 
L 74.404552 53.427174 
L 75.430672 50.973022 
L 76.456792 49.375959 
L 77.482912 47.634577 
L 78.509033 45.394652 
L 79.535153 42.952652 
L 80.561273 39.566873 
L 81.587394 35.708462 
L 82.613514 30.198724 
L 83.639634 26.264952 
L 84.665755 17.320334 
L 85.691875 6.021963 
L 86.717995 19.807873 
L 87.744116 26.812499 
L 88.770236 35.169465 
L 89.796356 39.837103 
L 90.822477 44.159423 
L 91.848597 47.302422 
L 92.874717 49.491202 
L 93.900838 52.154135 
L 94.926958 53.950283 
L 95.953078 56.184339 
L 96.979198 56.359362 
L 98.005319 56.670229 
L 99.031439 59.662789 
L 100.057559 59.237714 
L 101.08368 62.86313 
L 102.1098 63.395354 
L 103.13592 62.411223 
L 104.162041 64.085939 
L 105.188161 68.699916 
L 106.214281 68.606671 
L 107.240402 71.331967 
L 108.266522 74.874125 
L 109.292642 72.586999 
L 110.318763 78.525745 
L 111.344883 85.680504 
L 112.371003 87.346121 
L 113.397124 88.558857 
L 114.423244 90.213238 
L 115.449364 94.576467 
L 116.475484 98.114837 
L 117.501605 100.543648 
L 118.527725 104.195267 
L 119.553845 113.978536 
L 120.579966 123.897609 
L 121.606086 121.37502 
L 122.367368 145 
M 123.101299 145 
L 123.658327 135.240576 
L 124.684447 135.240576 
L 125.241475 145 
" clip-path="url(#p8b6840d163)" style="fill: none; stroke: #7e1700; stroke-width: 1.5; stroke-linecap: square"/>
   </g>
   <g id="patch_3">
    <path d="M 30.38399 119.025385 
L 30.38399 3.00024 
" style="fill: none; stroke: #000000; stroke-width: 0.8; stroke-linejoin: miter; stroke-linecap: square"/>
   </g>
   <g id="patch_4">
    <path d="M 30.38399 119.025385 
L 140.99976 119.025385 
" style="fill: none; stroke: #000000; stroke-width: 0.8; stroke-linejoin: miter; stroke-linecap: square"/>
   </g>
  </g>
 </g>
 <defs>
  <clipPath id="p8b6840d163">
   <rect x="30.38399" y="3.00024" width="110.61577" height="116.025145"/>
  </clipPath>
 </defs>
</svg>
