<?xml version="1.0" encoding="utf-8" standalone="no"?>
<!DOCTYPE svg PUBLIC "-//W3C//DTD SVG 1.1//EN"
  "http://www.w3.org/Graphics/SVG/1.1/DTD/svg11.dtd">
<svg xmlns:xlink="http://www.w3.org/1999/xlink" width="144pt" height="144pt" viewBox="0 0 144 144" xmlns="http://www.w3.org/2000/svg" version="1.1">
 <metadata>
  <rdf:RDF xmlns:dc="http://purl.org/dc/elements/1.1/" xmlns:cc="http://creativecommons.org/ns#" xmlns:rdf="http://www.w3.org/1999/02/22-rdf-syntax-ns#">
   <cc:Work>
    <dc:type rdf:resource="http://purl.org/dc/dcmitype/StillImage"/>
    <dc:date>2024-02-08T16:53:04.325160</dc:date>
    <dc:format>image/svg+xml</dc:format>
    <dc:creator>
     <cc:Agent>
      <dc:title>Matplotlib v3.8.0, https://matplotlib.org/</dc:title>
     </cc:Agent>
    </dc:creator>
   </cc:Work>
  </rdf:RDF>
 </metadata>
 <defs>
  <style type="text/css">*{stroke-linejoin: round; stroke-linecap: butt}</style>
 </defs>
 <g id="figure_1">
  <g id="patch_1">
   <path d="M 0 144 
L 144 144 
L 144 0 
L 0 0 
L 0 144 
z
" style="fill: none"/>
  </g>
  <g id="axes_1">
   <g id="patch_2">
    <path d="M 30.23399 118.858041 
L 139.650693 118.858041 
L 139.650693 11.15649 
L 30.23399 11.15649 
L 30.23399 118.858041 
z
" style="fill: none"/>
   </g>
   <g id="patch_3">
    <path d="M 35.207477 118.858041 
L 35.207477 118.858041 
L 36.212221 118.858041 
L 36.212221 79.525574 
L 37.216966 79.525574 
L 37.216966 58.188353 
L 38.221711 58.188353 
L 38.221711 28.110583 
L 39.226455 28.110583 
L 39.226455 22.197859 
L 40.2312 22.197859 
L 40.2312 16.285135 
L 41.235945 16.285135 
L 41.235945 58.83104 
L 42.24069 58.83104 
L 42.24069 62.944239 
L 43.245434 62.944239 
L 43.245434 85.181223 
L 44.250179 85.181223 
L 44.250179 88.266122 
L 45.254924 88.266122 
L 45.254924 90.579797 
L 46.259669 90.579797 
L 46.259669 97.392283 
L 47.264413 97.392283 
L 47.264413 101.505482 
L 48.269158 101.505482 
L 48.269158 106.132831 
L 49.273903 106.132831 
L 49.273903 104.333306 
L 50.278648 104.333306 
L 50.278648 109.603343 
L 51.283392 109.603343 
L 51.283392 110.631643 
L 52.288137 110.631643 
L 52.288137 113.202392 
L 53.292882 113.202392 
L 53.292882 113.459467 
L 54.297627 113.459467 
L 54.297627 112.30263 
L 55.302371 112.30263 
L 55.302371 115.644604 
L 56.307116 115.644604 
L 56.307116 115.130454 
L 57.311861 115.130454 
L 57.311861 115.387529 
L 58.316606 115.387529 
L 58.316606 117.315592 
L 59.32135 117.315592 
L 59.32135 115.644604 
L 60.326095 115.644604 
L 60.326095 115.901679 
L 61.33084 115.901679 
L 61.33084 117.444129 
L 62.335585 117.444129 
L 62.335585 117.829741 
L 63.340329 117.829741 
L 63.340329 117.058517 
L 64.345074 117.058517 
L 64.345074 117.572666 
L 65.349819 117.572666 
L 65.349819 116.929979 
L 66.354564 116.929979 
L 66.354564 118.343891 
L 67.359308 118.343891 
L 67.359308 117.315592 
L 68.364053 117.315592 
L 68.364053 118.086816 
L 69.368798 118.086816 
L 69.368798 117.572666 
L 70.373543 117.572666 
L 70.373543 118.343891 
L 71.378287 118.343891 
L 71.378287 118.086816 
L 72.383032 118.086816 
L 72.383032 118.600966 
L 73.387777 118.600966 
L 73.387777 117.829741 
L 74.392522 117.829741 
L 74.392522 118.086816 
L 75.397266 118.086816 
L 75.397266 118.343891 
L 76.402011 118.343891 
L 76.402011 118.729504 
L 77.406756 118.729504 
L 77.406756 118.086816 
L 78.411501 118.086816 
L 78.411501 118.600966 
L 79.416245 118.600966 
L 79.416245 118.729504 
L 80.42099 118.729504 
L 80.42099 118.600966 
L 81.425735 118.600966 
L 81.425735 118.729504 
L 82.43048 118.729504 
L 82.43048 118.858041 
L 83.435224 118.858041 
L 83.435224 118.472429 
L 84.439969 118.472429 
L 84.439969 118.729504 
L 85.444714 118.729504 
L 85.444714 118.858041 
L 86.449459 118.858041 
L 86.449459 118.343891 
L 87.454203 118.343891 
L 87.454203 118.729504 
L 88.458948 118.729504 
L 88.458948 118.858041 
L 89.463693 118.858041 
L 89.463693 118.858041 
L 90.468438 118.858041 
L 90.468438 118.858041 
L 91.473182 118.858041 
L 91.473182 118.858041 
L 92.477927 118.858041 
L 92.477927 118.472429 
L 93.482672 118.472429 
L 93.482672 118.858041 
L 94.487417 118.858041 
L 94.487417 118.858041 
L 95.492161 118.858041 
L 95.492161 118.858041 
L 96.496906 118.858041 
L 96.496906 118.858041 
L 97.501651 118.858041 
L 97.501651 118.729504 
L 98.506396 118.729504 
L 98.506396 118.858041 
L 99.51114 118.858041 
L 99.51114 118.600966 
L 100.515885 118.600966 
L 100.515885 118.858041 
L 101.52063 118.858041 
L 101.52063 118.858041 
L 102.525375 118.858041 
L 102.525375 118.858041 
L 103.530119 118.858041 
L 103.530119 118.858041 
L 104.534864 118.858041 
L 104.534864 118.600966 
L 105.539609 118.600966 
L 105.539609 118.858041 
L 106.544354 118.858041 
L 106.544354 118.858041 
L 107.549098 118.858041 
L 107.549098 118.858041 
L 108.553843 118.858041 
L 108.553843 118.858041 
L 109.558588 118.858041 
L 109.558588 118.858041 
L 110.563333 118.858041 
L 110.563333 118.858041 
L 111.568077 118.858041 
L 111.568077 118.858041 
L 112.572822 118.858041 
L 112.572822 118.858041 
L 113.577567 118.858041 
L 113.577567 118.858041 
L 114.582312 118.858041 
L 114.582312 118.858041 
L 115.587056 118.858041 
L 115.587056 118.729504 
L 116.591801 118.729504 
L 116.591801 118.858041 
L 117.596546 118.858041 
L 117.596546 118.858041 
L 118.601291 118.858041 
L 118.601291 118.858041 
L 119.606035 118.858041 
L 119.606035 118.729504 
L 120.61078 118.729504 
L 120.61078 118.858041 
L 121.615525 118.858041 
L 121.615525 118.858041 
L 122.62027 118.858041 
L 122.62027 118.729504 
L 123.625014 118.729504 
L 123.625014 118.858041 
L 124.629759 118.858041 
L 124.629759 118.858041 
L 125.634504 118.858041 
L 125.634504 118.858041 
L 126.639249 118.858041 
L 126.639249 118.858041 
L 127.643993 118.858041 
L 127.643993 118.858041 
L 128.648738 118.858041 
L 128.648738 118.729504 
L 129.653483 118.729504 
L 129.653483 118.858041 
L 130.658228 118.858041 
L 130.658228 118.858041 
L 131.662972 118.858041 
L 131.662972 118.858041 
L 132.667717 118.858041 
L 132.667717 118.858041 
L 133.672462 118.858041 
L 133.672462 118.729504 
L 134.677207 118.729504 
L 134.677207 118.858041 
L 133.672462 118.858041 
L 133.672462 118.858041 
L 132.667717 118.858041 
L 132.667717 118.858041 
L 131.662972 118.858041 
L 131.662972 118.858041 
L 130.658228 118.858041 
L 130.658228 118.858041 
L 129.653483 118.858041 
L 129.653483 118.858041 
L 128.648738 118.858041 
L 128.648738 118.858041 
L 127.643993 118.858041 
L 127.643993 118.858041 
L 126.639249 118.858041 
L 126.639249 118.858041 
L 125.634504 118.858041 
L 125.634504 118.858041 
L 124.629759 118.858041 
L 124.629759 118.858041 
L 123.625014 118.858041 
L 123.625014 118.858041 
L 122.62027 118.858041 
L 122.62027 118.858041 
L 121.615525 118.858041 
L 121.615525 118.858041 
L 120.61078 118.858041 
L 120.61078 118.858041 
L 119.606035 118.858041 
L 119.606035 118.858041 
L 118.601291 118.858041 
L 118.601291 118.858041 
L 117.596546 118.858041 
L 117.596546 118.858041 
L 116.591801 118.858041 
L 116.591801 118.858041 
L 115.587056 118.858041 
L 115.587056 118.858041 
L 114.582312 118.858041 
L 114.582312 118.858041 
L 113.577567 118.858041 
L 113.577567 118.858041 
L 112.572822 118.858041 
L 112.572822 118.858041 
L 111.568077 118.858041 
L 111.568077 118.858041 
L 110.563333 118.858041 
L 110.563333 118.858041 
L 109.558588 118.858041 
L 109.558588 118.858041 
L 108.553843 118.858041 
L 108.553843 118.858041 
L 107.549098 118.858041 
L 107.549098 118.858041 
L 106.544354 118.858041 
L 106.544354 118.858041 
L 105.539609 118.858041 
L 105.539609 118.858041 
L 104.534864 118.858041 
L 104.534864 118.858041 
L 103.530119 118.858041 
L 103.530119 118.858041 
L 102.525375 118.858041 
L 102.525375 118.858041 
L 101.52063 118.858041 
L 101.52063 118.858041 
L 100.515885 118.858041 
L 100.515885 118.858041 
L 99.51114 118.858041 
L 99.51114 118.858041 
L 98.506396 118.858041 
L 98.506396 118.858041 
L 97.501651 118.858041 
L 97.501651 118.858041 
L 96.496906 118.858041 
L 96.496906 118.858041 
L 95.492161 118.858041 
L 95.492161 118.858041 
L 94.487417 118.858041 
L 94.487417 118.858041 
L 93.482672 118.858041 
L 93.482672 118.858041 
L 92.477927 118.858041 
L 92.477927 118.858041 
L 91.473182 118.858041 
L 91.473182 118.858041 
L 90.468438 118.858041 
L 90.468438 118.858041 
L 89.463693 118.858041 
L 89.463693 118.858041 
L 88.458948 118.858041 
L 88.458948 118.858041 
L 87.454203 118.858041 
L 87.454203 118.858041 
L 86.449459 118.858041 
L 86.449459 118.858041 
L 85.444714 118.858041 
L 85.444714 118.858041 
L 84.439969 118.858041 
L 84.439969 118.858041 
L 83.435224 118.858041 
L 83.435224 118.858041 
L 82.43048 118.858041 
L 82.43048 118.858041 
L 81.425735 118.858041 
L 81.425735 118.858041 
L 80.42099 118.858041 
L 80.42099 118.858041 
L 79.416245 118.858041 
L 79.416245 118.858041 
L 78.411501 118.858041 
L 78.411501 118.858041 
L 77.406756 118.858041 
L 77.406756 118.858041 
L 76.402011 118.858041 
L 76.402011 118.858041 
L 75.397266 118.858041 
L 75.397266 118.858041 
L 74.392522 118.858041 
L 74.392522 118.858041 
L 73.387777 118.858041 
L 73.387777 118.858041 
L 72.383032 118.858041 
L 72.383032 118.858041 
L 71.378287 118.858041 
L 71.378287 118.858041 
L 70.373543 118.858041 
L 70.373543 118.858041 
L 69.368798 118.858041 
L 69.368798 118.858041 
L 68.364053 118.858041 
L 68.364053 118.858041 
L 67.359308 118.858041 
L 67.359308 118.858041 
L 66.354564 118.858041 
L 66.354564 118.858041 
L 65.349819 118.858041 
L 65.349819 118.858041 
L 64.345074 118.858041 
L 64.345074 118.858041 
L 63.340329 118.858041 
L 63.340329 118.858041 
L 62.335585 118.858041 
L 62.335585 118.858041 
L 61.33084 118.858041 
L 61.33084 118.858041 
L 60.326095 118.858041 
L 60.326095 118.858041 
L 59.32135 118.858041 
L 59.32135 118.858041 
L 58.316606 118.858041 
L 58.316606 118.858041 
L 57.311861 118.858041 
L 57.311861 118.858041 
L 56.307116 118.858041 
L 56.307116 118.858041 
L 55.302371 118.858041 
L 55.302371 118.858041 
L 54.297627 118.858041 
L 54.297627 118.858041 
L 53.292882 118.858041 
L 53.292882 118.858041 
L 52.288137 118.858041 
L 52.288137 118.858041 
L 51.283392 118.858041 
L 51.283392 118.858041 
L 50.278648 118.858041 
L 50.278648 118.858041 
L 49.273903 118.858041 
L 49.273903 118.858041 
L 48.269158 118.858041 
L 48.269158 118.858041 
L 47.264413 118.858041 
L 47.264413 118.858041 
L 46.259669 118.858041 
L 46.259669 118.858041 
L 45.254924 118.858041 
L 45.254924 118.858041 
L 44.250179 118.858041 
L 44.250179 118.858041 
L 43.245434 118.858041 
L 43.245434 118.858041 
L 42.24069 118.858041 
L 42.24069 118.858041 
L 41.235945 118.858041 
L 41.235945 118.858041 
L 40.2312 118.858041 
L 40.2312 118.858041 
L 39.226455 118.858041 
L 39.226455 118.858041 
L 38.221711 118.858041 
L 38.221711 118.858041 
L 37.216966 118.858041 
L 37.216966 118.858041 
L 36.212221 118.858041 
L 36.212221 118.858041 
z
" clip-path="url(#p586d7852c8)"/>
   </g>
   <g id="matplotlib.axis_1">
    <g id="xtick_1">
     <g id="line2d_1">
      <defs>
       <path id="mf80c849680" d="M 0 0 
L 0 3.5 
" style="stroke: #000000; stroke-width: 0.8"/>
      </defs>
      <g>
       <use xlink:href="#mf80c849680" x="35.207477" y="118.858041" style="stroke: #000000; stroke-width: 0.8"/>
      </g>
     </g>
     <g id="text_1">
      <!-- $\mathdefault{0}$ -->
      <g transform="translate(33.807477 129.436948) scale(0.05 -0.05)">
       <defs>
        <path id="ArialMT-30" d="M 266 2259 
Q 266 3072 433 3567 
Q 600 4063 929 4331 
Q 1259 4600 1759 4600 
Q 2128 4600 2406 4451 
Q 2684 4303 2865 4023 
Q 3047 3744 3150 3342 
Q 3253 2941 3253 2259 
Q 3253 1453 3087 958 
Q 2922 463 2592 192 
Q 2263 -78 1759 -78 
Q 1097 -78 719 397 
Q 266 969 266 2259 
z
M 844 2259 
Q 844 1131 1108 757 
Q 1372 384 1759 384 
Q 2147 384 2411 759 
Q 2675 1134 2675 2259 
Q 2675 3391 2411 3762 
Q 2147 4134 1753 4134 
Q 1366 4134 1134 3806 
Q 844 3388 844 2259 
z
" transform="scale(0.015625)"/>
       </defs>
       <use xlink:href="#ArialMT-30" transform="translate(0 0.125)"/>
      </g>
     </g>
    </g>
    <g id="xtick_2">
     <g id="line2d_2">
      <g>
       <use xlink:href="#mf80c849680" x="61.803661" y="118.858041" style="stroke: #000000; stroke-width: 0.8"/>
      </g>
     </g>
     <g id="text_2">
      <!-- $\mathdefault{200}$ -->
      <g transform="translate(57.628661 129.436948) scale(0.05 -0.05)">
       <defs>
        <path id="ArialMT-32" d="M 3222 541 
L 3222 0 
L 194 0 
Q 188 203 259 391 
Q 375 700 629 1000 
Q 884 1300 1366 1694 
Q 2113 2306 2375 2664 
Q 2638 3022 2638 3341 
Q 2638 3675 2398 3904 
Q 2159 4134 1775 4134 
Q 1369 4134 1125 3890 
Q 881 3647 878 3216 
L 300 3275 
Q 359 3922 746 4261 
Q 1134 4600 1788 4600 
Q 2447 4600 2831 4234 
Q 3216 3869 3216 3328 
Q 3216 3053 3103 2787 
Q 2991 2522 2730 2228 
Q 2469 1934 1863 1422 
Q 1356 997 1212 845 
Q 1069 694 975 541 
L 3222 541 
z
" transform="scale(0.015625)"/>
       </defs>
       <use xlink:href="#ArialMT-32" transform="translate(0 0.125)"/>
       <use xlink:href="#ArialMT-30" transform="translate(55.615234 0.125)"/>
       <use xlink:href="#ArialMT-30" transform="translate(111.230469 0.125)"/>
      </g>
     </g>
    </g>
    <g id="xtick_3">
     <g id="line2d_3">
      <g>
       <use xlink:href="#mf80c849680" x="88.399846" y="118.858041" style="stroke: #000000; stroke-width: 0.8"/>
      </g>
     </g>
     <g id="text_3">
      <!-- $\mathdefault{400}$ -->
      <g transform="translate(84.224846 129.436948) scale(0.05 -0.05)">
       <defs>
        <path id="ArialMT-34" d="M 2069 0 
L 2069 1097 
L 81 1097 
L 81 1613 
L 2172 4581 
L 2631 4581 
L 2631 1613 
L 3250 1613 
L 3250 1097 
L 2631 1097 
L 2631 0 
L 2069 0 
z
M 2069 1613 
L 2069 3678 
L 634 1613 
L 2069 1613 
z
" transform="scale(0.015625)"/>
       </defs>
       <use xlink:href="#ArialMT-34" transform="translate(0 0.125)"/>
       <use xlink:href="#ArialMT-30" transform="translate(55.615234 0.125)"/>
       <use xlink:href="#ArialMT-30" transform="translate(111.230469 0.125)"/>
      </g>
     </g>
    </g>
    <g id="xtick_4">
     <g id="line2d_4">
      <g>
       <use xlink:href="#mf80c849680" x="114.99603" y="118.858041" style="stroke: #000000; stroke-width: 0.8"/>
      </g>
     </g>
     <g id="text_4">
      <!-- $\mathdefault{600}$ -->
      <g transform="translate(110.82103 129.436948) scale(0.05 -0.05)">
       <defs>
        <path id="ArialMT-36" d="M 3184 3459 
L 2625 3416 
Q 2550 3747 2413 3897 
Q 2184 4138 1850 4138 
Q 1581 4138 1378 3988 
Q 1113 3794 959 3422 
Q 806 3050 800 2363 
Q 1003 2672 1297 2822 
Q 1591 2972 1913 2972 
Q 2475 2972 2870 2558 
Q 3266 2144 3266 1488 
Q 3266 1056 3080 686 
Q 2894 316 2569 119 
Q 2244 -78 1831 -78 
Q 1128 -78 684 439 
Q 241 956 241 2144 
Q 241 3472 731 4075 
Q 1159 4600 1884 4600 
Q 2425 4600 2770 4297 
Q 3116 3994 3184 3459 
z
M 888 1484 
Q 888 1194 1011 928 
Q 1134 663 1356 523 
Q 1578 384 1822 384 
Q 2178 384 2434 671 
Q 2691 959 2691 1453 
Q 2691 1928 2437 2201 
Q 2184 2475 1800 2475 
Q 1419 2475 1153 2201 
Q 888 1928 888 1484 
z
" transform="scale(0.015625)"/>
       </defs>
       <use xlink:href="#ArialMT-36" transform="translate(0 0.125)"/>
       <use xlink:href="#ArialMT-30" transform="translate(55.615234 0.125)"/>
       <use xlink:href="#ArialMT-30" transform="translate(111.230469 0.125)"/>
      </g>
     </g>
    </g>
    <g id="text_5">
     <!-- Number of bouts per trajectory -->
     <g transform="translate(37.675388 139.526479) scale(0.07 -0.07)">
      <defs>
       <path id="ArialMT-4e" d="M 488 0 
L 488 4581 
L 1109 4581 
L 3516 984 
L 3516 4581 
L 4097 4581 
L 4097 0 
L 3475 0 
L 1069 3600 
L 1069 0 
L 488 0 
z
" transform="scale(0.015625)"/>
       <path id="ArialMT-75" d="M 2597 0 
L 2597 488 
Q 2209 -75 1544 -75 
Q 1250 -75 995 37 
Q 741 150 617 320 
Q 494 491 444 738 
Q 409 903 409 1263 
L 409 3319 
L 972 3319 
L 972 1478 
Q 972 1038 1006 884 
Q 1059 663 1231 536 
Q 1403 409 1656 409 
Q 1909 409 2131 539 
Q 2353 669 2445 892 
Q 2538 1116 2538 1541 
L 2538 3319 
L 3100 3319 
L 3100 0 
L 2597 0 
z
" transform="scale(0.015625)"/>
       <path id="ArialMT-6d" d="M 422 0 
L 422 3319 
L 925 3319 
L 925 2853 
Q 1081 3097 1340 3245 
Q 1600 3394 1931 3394 
Q 2300 3394 2536 3241 
Q 2772 3088 2869 2813 
Q 3263 3394 3894 3394 
Q 4388 3394 4653 3120 
Q 4919 2847 4919 2278 
L 4919 0 
L 4359 0 
L 4359 2091 
Q 4359 2428 4304 2576 
Q 4250 2725 4106 2815 
Q 3963 2906 3769 2906 
Q 3419 2906 3187 2673 
Q 2956 2441 2956 1928 
L 2956 0 
L 2394 0 
L 2394 2156 
Q 2394 2531 2256 2718 
Q 2119 2906 1806 2906 
Q 1569 2906 1367 2781 
Q 1166 2656 1075 2415 
Q 984 2175 984 1722 
L 984 0 
L 422 0 
z
" transform="scale(0.015625)"/>
       <path id="ArialMT-62" d="M 941 0 
L 419 0 
L 419 4581 
L 981 4581 
L 981 2947 
Q 1338 3394 1891 3394 
Q 2197 3394 2470 3270 
Q 2744 3147 2920 2923 
Q 3097 2700 3197 2384 
Q 3297 2069 3297 1709 
Q 3297 856 2875 390 
Q 2453 -75 1863 -75 
Q 1275 -75 941 416 
L 941 0 
z
M 934 1684 
Q 934 1088 1097 822 
Q 1363 388 1816 388 
Q 2184 388 2453 708 
Q 2722 1028 2722 1663 
Q 2722 2313 2464 2622 
Q 2206 2931 1841 2931 
Q 1472 2931 1203 2611 
Q 934 2291 934 1684 
z
" transform="scale(0.015625)"/>
       <path id="ArialMT-65" d="M 2694 1069 
L 3275 997 
Q 3138 488 2766 206 
Q 2394 -75 1816 -75 
Q 1088 -75 661 373 
Q 234 822 234 1631 
Q 234 2469 665 2931 
Q 1097 3394 1784 3394 
Q 2450 3394 2872 2941 
Q 3294 2488 3294 1666 
Q 3294 1616 3291 1516 
L 816 1516 
Q 847 969 1125 678 
Q 1403 388 1819 388 
Q 2128 388 2347 550 
Q 2566 713 2694 1069 
z
M 847 1978 
L 2700 1978 
Q 2663 2397 2488 2606 
Q 2219 2931 1791 2931 
Q 1403 2931 1139 2672 
Q 875 2413 847 1978 
z
" transform="scale(0.015625)"/>
       <path id="ArialMT-72" d="M 416 0 
L 416 3319 
L 922 3319 
L 922 2816 
Q 1116 3169 1280 3281 
Q 1444 3394 1641 3394 
Q 1925 3394 2219 3213 
L 2025 2691 
Q 1819 2813 1613 2813 
Q 1428 2813 1281 2702 
Q 1134 2591 1072 2394 
Q 978 2094 978 1738 
L 978 0 
L 416 0 
z
" transform="scale(0.015625)"/>
       <path id="ArialMT-20" transform="scale(0.015625)"/>
       <path id="ArialMT-6f" d="M 213 1659 
Q 213 2581 725 3025 
Q 1153 3394 1769 3394 
Q 2453 3394 2887 2945 
Q 3322 2497 3322 1706 
Q 3322 1066 3130 698 
Q 2938 331 2570 128 
Q 2203 -75 1769 -75 
Q 1072 -75 642 372 
Q 213 819 213 1659 
z
M 791 1659 
Q 791 1022 1069 705 
Q 1347 388 1769 388 
Q 2188 388 2466 706 
Q 2744 1025 2744 1678 
Q 2744 2294 2464 2611 
Q 2184 2928 1769 2928 
Q 1347 2928 1069 2612 
Q 791 2297 791 1659 
z
" transform="scale(0.015625)"/>
       <path id="ArialMT-66" d="M 556 0 
L 556 2881 
L 59 2881 
L 59 3319 
L 556 3319 
L 556 3672 
Q 556 4006 616 4169 
Q 697 4388 901 4523 
Q 1106 4659 1475 4659 
Q 1713 4659 2000 4603 
L 1916 4113 
Q 1741 4144 1584 4144 
Q 1328 4144 1222 4034 
Q 1116 3925 1116 3625 
L 1116 3319 
L 1763 3319 
L 1763 2881 
L 1116 2881 
L 1116 0 
L 556 0 
z
" transform="scale(0.015625)"/>
       <path id="ArialMT-74" d="M 1650 503 
L 1731 6 
Q 1494 -44 1306 -44 
Q 1000 -44 831 53 
Q 663 150 594 308 
Q 525 466 525 972 
L 525 2881 
L 113 2881 
L 113 3319 
L 525 3319 
L 525 4141 
L 1084 4478 
L 1084 3319 
L 1650 3319 
L 1650 2881 
L 1084 2881 
L 1084 941 
Q 1084 700 1114 631 
Q 1144 563 1211 522 
Q 1278 481 1403 481 
Q 1497 481 1650 503 
z
" transform="scale(0.015625)"/>
       <path id="ArialMT-73" d="M 197 991 
L 753 1078 
Q 800 744 1014 566 
Q 1228 388 1613 388 
Q 2000 388 2187 545 
Q 2375 703 2375 916 
Q 2375 1106 2209 1216 
Q 2094 1291 1634 1406 
Q 1016 1563 777 1677 
Q 538 1791 414 1992 
Q 291 2194 291 2438 
Q 291 2659 392 2848 
Q 494 3038 669 3163 
Q 800 3259 1026 3326 
Q 1253 3394 1513 3394 
Q 1903 3394 2198 3281 
Q 2494 3169 2634 2976 
Q 2775 2784 2828 2463 
L 2278 2388 
Q 2241 2644 2061 2787 
Q 1881 2931 1553 2931 
Q 1166 2931 1000 2803 
Q 834 2675 834 2503 
Q 834 2394 903 2306 
Q 972 2216 1119 2156 
Q 1203 2125 1616 2013 
Q 2213 1853 2448 1751 
Q 2684 1650 2818 1456 
Q 2953 1263 2953 975 
Q 2953 694 2789 445 
Q 2625 197 2315 61 
Q 2006 -75 1616 -75 
Q 969 -75 630 194 
Q 291 463 197 991 
z
" transform="scale(0.015625)"/>
       <path id="ArialMT-70" d="M 422 -1272 
L 422 3319 
L 934 3319 
L 934 2888 
Q 1116 3141 1344 3267 
Q 1572 3394 1897 3394 
Q 2322 3394 2647 3175 
Q 2972 2956 3137 2557 
Q 3303 2159 3303 1684 
Q 3303 1175 3120 767 
Q 2938 359 2589 142 
Q 2241 -75 1856 -75 
Q 1575 -75 1351 44 
Q 1128 163 984 344 
L 984 -1272 
L 422 -1272 
z
M 931 1641 
Q 931 1000 1190 694 
Q 1450 388 1819 388 
Q 2194 388 2461 705 
Q 2728 1022 2728 1688 
Q 2728 2322 2467 2637 
Q 2206 2953 1844 2953 
Q 1484 2953 1207 2617 
Q 931 2281 931 1641 
z
" transform="scale(0.015625)"/>
       <path id="ArialMT-61" d="M 2588 409 
Q 2275 144 1986 34 
Q 1697 -75 1366 -75 
Q 819 -75 525 192 
Q 231 459 231 875 
Q 231 1119 342 1320 
Q 453 1522 633 1644 
Q 813 1766 1038 1828 
Q 1203 1872 1538 1913 
Q 2219 1994 2541 2106 
Q 2544 2222 2544 2253 
Q 2544 2597 2384 2738 
Q 2169 2928 1744 2928 
Q 1347 2928 1158 2789 
Q 969 2650 878 2297 
L 328 2372 
Q 403 2725 575 2942 
Q 747 3159 1072 3276 
Q 1397 3394 1825 3394 
Q 2250 3394 2515 3294 
Q 2781 3194 2906 3042 
Q 3031 2891 3081 2659 
Q 3109 2516 3109 2141 
L 3109 1391 
Q 3109 606 3145 398 
Q 3181 191 3288 0 
L 2700 0 
Q 2613 175 2588 409 
z
M 2541 1666 
Q 2234 1541 1622 1453 
Q 1275 1403 1131 1340 
Q 988 1278 909 1158 
Q 831 1038 831 891 
Q 831 666 1001 516 
Q 1172 366 1500 366 
Q 1825 366 2078 508 
Q 2331 650 2450 897 
Q 2541 1088 2541 1459 
L 2541 1666 
z
" transform="scale(0.015625)"/>
       <path id="ArialMT-6a" d="M 419 3928 
L 419 4581 
L 981 4581 
L 981 3928 
L 419 3928 
z
M -294 -1288 
L -188 -809 
Q -19 -853 78 -853 
Q 250 -853 334 -739 
Q 419 -625 419 -169 
L 419 3319 
L 981 3319 
L 981 -181 
Q 981 -794 822 -1034 
Q 619 -1347 147 -1347 
Q -81 -1347 -294 -1288 
z
" transform="scale(0.015625)"/>
       <path id="ArialMT-63" d="M 2588 1216 
L 3141 1144 
Q 3050 572 2676 248 
Q 2303 -75 1759 -75 
Q 1078 -75 664 370 
Q 250 816 250 1647 
Q 250 2184 428 2587 
Q 606 2991 970 3192 
Q 1334 3394 1763 3394 
Q 2303 3394 2647 3120 
Q 2991 2847 3088 2344 
L 2541 2259 
Q 2463 2594 2264 2762 
Q 2066 2931 1784 2931 
Q 1359 2931 1093 2626 
Q 828 2322 828 1663 
Q 828 994 1084 691 
Q 1341 388 1753 388 
Q 2084 388 2306 591 
Q 2528 794 2588 1216 
z
" transform="scale(0.015625)"/>
       <path id="ArialMT-79" d="M 397 -1278 
L 334 -750 
Q 519 -800 656 -800 
Q 844 -800 956 -737 
Q 1069 -675 1141 -563 
Q 1194 -478 1313 -144 
Q 1328 -97 1363 -6 
L 103 3319 
L 709 3319 
L 1400 1397 
Q 1534 1031 1641 628 
Q 1738 1016 1872 1384 
L 2581 3319 
L 3144 3319 
L 1881 -56 
Q 1678 -603 1566 -809 
Q 1416 -1088 1222 -1217 
Q 1028 -1347 759 -1347 
Q 597 -1347 397 -1278 
z
" transform="scale(0.015625)"/>
      </defs>
      <use xlink:href="#ArialMT-4e"/>
      <use xlink:href="#ArialMT-75" x="72.216797"/>
      <use xlink:href="#ArialMT-6d" x="127.832031"/>
      <use xlink:href="#ArialMT-62" x="211.132812"/>
      <use xlink:href="#ArialMT-65" x="266.748047"/>
      <use xlink:href="#ArialMT-72" x="322.363281"/>
      <use xlink:href="#ArialMT-20" x="355.664062"/>
      <use xlink:href="#ArialMT-6f" x="383.447266"/>
      <use xlink:href="#ArialMT-66" x="439.0625"/>
      <use xlink:href="#ArialMT-20" x="466.845703"/>
      <use xlink:href="#ArialMT-62" x="494.628906"/>
      <use xlink:href="#ArialMT-6f" x="550.244141"/>
      <use xlink:href="#ArialMT-75" x="605.859375"/>
      <use xlink:href="#ArialMT-74" x="661.474609"/>
      <use xlink:href="#ArialMT-73" x="689.257812"/>
      <use xlink:href="#ArialMT-20" x="739.257812"/>
      <use xlink:href="#ArialMT-70" x="767.041016"/>
      <use xlink:href="#ArialMT-65" x="822.65625"/>
      <use xlink:href="#ArialMT-72" x="878.271484"/>
      <use xlink:href="#ArialMT-20" x="911.572266"/>
      <use xlink:href="#ArialMT-74" x="939.355469"/>
      <use xlink:href="#ArialMT-72" x="967.138672"/>
      <use xlink:href="#ArialMT-61" x="1000.439453"/>
      <use xlink:href="#ArialMT-6a" x="1056.054688"/>
      <use xlink:href="#ArialMT-65" x="1078.271484"/>
      <use xlink:href="#ArialMT-63" x="1133.886719"/>
      <use xlink:href="#ArialMT-74" x="1183.886719"/>
      <use xlink:href="#ArialMT-6f" x="1211.669922"/>
      <use xlink:href="#ArialMT-72" x="1267.285156"/>
      <use xlink:href="#ArialMT-79" x="1300.585938"/>
     </g>
    </g>
   </g>
   <g id="matplotlib.axis_2">
    <g id="ytick_1">
     <g id="line2d_5">
      <defs>
       <path id="m2347d16749" d="M 0 0 
L -3.5 0 
" style="stroke: #000000; stroke-width: 0.8"/>
      </defs>
      <g>
       <use xlink:href="#m2347d16749" x="30.23399" y="118.858041" style="stroke: #000000; stroke-width: 0.8"/>
      </g>
     </g>
     <g id="text_6">
      <!-- $\mathdefault{0.00}$ -->
      <g transform="translate(13.48399 120.647494) scale(0.05 -0.05)">
       <defs>
        <path id="ArialMT-2e" d="M 581 0 
L 581 641 
L 1222 641 
L 1222 0 
L 581 0 
z
" transform="scale(0.015625)"/>
       </defs>
       <use xlink:href="#ArialMT-30" transform="translate(0 0.125)"/>
       <use xlink:href="#ArialMT-2e" transform="translate(55.615234 0.125)"/>
       <use xlink:href="#ArialMT-30" transform="translate(83.398438 0.125)"/>
       <use xlink:href="#ArialMT-30" transform="translate(139.013672 0.125)"/>
      </g>
     </g>
    </g>
    <g id="ytick_2">
     <g id="line2d_6">
      <g>
       <use xlink:href="#m2347d16749" x="30.23399" y="104.92415" style="stroke: #000000; stroke-width: 0.8"/>
      </g>
     </g>
     <g id="text_7">
      <!-- $\mathdefault{0.25}$ -->
      <g transform="translate(13.48399 106.713604) scale(0.05 -0.05)">
       <defs>
        <path id="ArialMT-35" d="M 266 1200 
L 856 1250 
Q 922 819 1161 601 
Q 1400 384 1738 384 
Q 2144 384 2425 690 
Q 2706 997 2706 1503 
Q 2706 1984 2436 2262 
Q 2166 2541 1728 2541 
Q 1456 2541 1237 2417 
Q 1019 2294 894 2097 
L 366 2166 
L 809 4519 
L 3088 4519 
L 3088 3981 
L 1259 3981 
L 1013 2750 
Q 1425 3038 1878 3038 
Q 2478 3038 2890 2622 
Q 3303 2206 3303 1553 
Q 3303 931 2941 478 
Q 2500 -78 1738 -78 
Q 1113 -78 717 272 
Q 322 622 266 1200 
z
" transform="scale(0.015625)"/>
       </defs>
       <use xlink:href="#ArialMT-30" transform="translate(0 0.125)"/>
       <use xlink:href="#ArialMT-2e" transform="translate(55.615234 0.125)"/>
       <use xlink:href="#ArialMT-32" transform="translate(83.398438 0.125)"/>
       <use xlink:href="#ArialMT-35" transform="translate(139.013672 0.125)"/>
      </g>
     </g>
    </g>
    <g id="ytick_3">
     <g id="line2d_7">
      <g>
       <use xlink:href="#m2347d16749" x="30.23399" y="90.99026" style="stroke: #000000; stroke-width: 0.8"/>
      </g>
     </g>
     <g id="text_8">
      <!-- $\mathdefault{0.50}$ -->
      <g transform="translate(13.48399 92.779713) scale(0.05 -0.05)">
       <use xlink:href="#ArialMT-30" transform="translate(0 0.125)"/>
       <use xlink:href="#ArialMT-2e" transform="translate(55.615234 0.125)"/>
       <use xlink:href="#ArialMT-35" transform="translate(83.398438 0.125)"/>
       <use xlink:href="#ArialMT-30" transform="translate(139.013672 0.125)"/>
      </g>
     </g>
    </g>
    <g id="ytick_4">
     <g id="line2d_8">
      <g>
       <use xlink:href="#m2347d16749" x="30.23399" y="77.056369" style="stroke: #000000; stroke-width: 0.8"/>
      </g>
     </g>
     <g id="text_9">
      <!-- $\mathdefault{0.75}$ -->
      <g transform="translate(13.48399 78.845822) scale(0.05 -0.05)">
       <defs>
        <path id="ArialMT-37" d="M 303 3981 
L 303 4522 
L 3269 4522 
L 3269 4084 
Q 2831 3619 2401 2847 
Q 1972 2075 1738 1259 
Q 1569 684 1522 0 
L 944 0 
Q 953 541 1156 1306 
Q 1359 2072 1739 2783 
Q 2119 3494 2547 3981 
L 303 3981 
z
" transform="scale(0.015625)"/>
       </defs>
       <use xlink:href="#ArialMT-30" transform="translate(0 0.125)"/>
       <use xlink:href="#ArialMT-2e" transform="translate(55.615234 0.125)"/>
       <use xlink:href="#ArialMT-37" transform="translate(83.398438 0.125)"/>
       <use xlink:href="#ArialMT-35" transform="translate(139.013672 0.125)"/>
      </g>
     </g>
    </g>
    <g id="ytick_5">
     <g id="line2d_9">
      <g>
       <use xlink:href="#m2347d16749" x="30.23399" y="63.122478" style="stroke: #000000; stroke-width: 0.8"/>
      </g>
     </g>
     <g id="text_10">
      <!-- $\mathdefault{1.00}$ -->
      <g transform="translate(13.48399 64.911931) scale(0.05 -0.05)">
       <defs>
        <path id="ArialMT-31" d="M 2384 0 
L 1822 0 
L 1822 3584 
Q 1619 3391 1289 3197 
Q 959 3003 697 2906 
L 697 3450 
Q 1169 3672 1522 3987 
Q 1875 4303 2022 4600 
L 2384 4600 
L 2384 0 
z
" transform="scale(0.015625)"/>
       </defs>
       <use xlink:href="#ArialMT-31" transform="translate(0 0.125)"/>
       <use xlink:href="#ArialMT-2e" transform="translate(55.615234 0.125)"/>
       <use xlink:href="#ArialMT-30" transform="translate(83.398438 0.125)"/>
       <use xlink:href="#ArialMT-30" transform="translate(139.013672 0.125)"/>
      </g>
     </g>
    </g>
    <g id="ytick_6">
     <g id="line2d_10">
      <g>
       <use xlink:href="#m2347d16749" x="30.23399" y="49.188587" style="stroke: #000000; stroke-width: 0.8"/>
      </g>
     </g>
     <g id="text_11">
      <!-- $\mathdefault{1.25}$ -->
      <g transform="translate(13.48399 50.97804) scale(0.05 -0.05)">
       <use xlink:href="#ArialMT-31" transform="translate(0 0.125)"/>
       <use xlink:href="#ArialMT-2e" transform="translate(55.615234 0.125)"/>
       <use xlink:href="#ArialMT-32" transform="translate(83.398438 0.125)"/>
       <use xlink:href="#ArialMT-35" transform="translate(139.013672 0.125)"/>
      </g>
     </g>
    </g>
    <g id="ytick_7">
     <g id="line2d_11">
      <g>
       <use xlink:href="#m2347d16749" x="30.23399" y="35.254696" style="stroke: #000000; stroke-width: 0.8"/>
      </g>
     </g>
     <g id="text_12">
      <!-- $\mathdefault{1.50}$ -->
      <g transform="translate(13.48399 37.044149) scale(0.05 -0.05)">
       <use xlink:href="#ArialMT-31" transform="translate(0 0.125)"/>
       <use xlink:href="#ArialMT-2e" transform="translate(55.615234 0.125)"/>
       <use xlink:href="#ArialMT-35" transform="translate(83.398438 0.125)"/>
       <use xlink:href="#ArialMT-30" transform="translate(139.013672 0.125)"/>
      </g>
     </g>
    </g>
    <g id="ytick_8">
     <g id="line2d_12">
      <g>
       <use xlink:href="#m2347d16749" x="30.23399" y="21.320805" style="stroke: #000000; stroke-width: 0.8"/>
      </g>
     </g>
     <g id="text_13">
      <!-- $\mathdefault{1.75}$ -->
      <g transform="translate(13.48399 23.110258) scale(0.05 -0.05)">
       <use xlink:href="#ArialMT-31" transform="translate(0 0.125)"/>
       <use xlink:href="#ArialMT-2e" transform="translate(55.615234 0.125)"/>
       <use xlink:href="#ArialMT-37" transform="translate(83.398438 0.125)"/>
       <use xlink:href="#ArialMT-35" transform="translate(139.013672 0.125)"/>
      </g>
     </g>
    </g>
    <g id="text_14">
     <!-- Density -->
     <g transform="translate(8.010709 76.677578) rotate(-90) scale(0.07 -0.07)">
      <defs>
       <path id="ArialMT-44" d="M 494 0 
L 494 4581 
L 2072 4581 
Q 2606 4581 2888 4516 
Q 3281 4425 3559 4188 
Q 3922 3881 4101 3404 
Q 4281 2928 4281 2316 
Q 4281 1794 4159 1391 
Q 4038 988 3847 723 
Q 3656 459 3429 307 
Q 3203 156 2883 78 
Q 2563 0 2147 0 
L 494 0 
z
M 1100 541 
L 2078 541 
Q 2531 541 2789 625 
Q 3047 709 3200 863 
Q 3416 1078 3536 1442 
Q 3656 1806 3656 2325 
Q 3656 3044 3420 3430 
Q 3184 3816 2847 3947 
Q 2603 4041 2063 4041 
L 1100 4041 
L 1100 541 
z
" transform="scale(0.015625)"/>
       <path id="ArialMT-6e" d="M 422 0 
L 422 3319 
L 928 3319 
L 928 2847 
Q 1294 3394 1984 3394 
Q 2284 3394 2536 3286 
Q 2788 3178 2913 3003 
Q 3038 2828 3088 2588 
Q 3119 2431 3119 2041 
L 3119 0 
L 2556 0 
L 2556 2019 
Q 2556 2363 2490 2533 
Q 2425 2703 2258 2804 
Q 2091 2906 1866 2906 
Q 1506 2906 1245 2678 
Q 984 2450 984 1813 
L 984 0 
L 422 0 
z
" transform="scale(0.015625)"/>
       <path id="ArialMT-69" d="M 425 3934 
L 425 4581 
L 988 4581 
L 988 3934 
L 425 3934 
z
M 425 0 
L 425 3319 
L 988 3319 
L 988 0 
L 425 0 
z
" transform="scale(0.015625)"/>
      </defs>
      <use xlink:href="#ArialMT-44"/>
      <use xlink:href="#ArialMT-65" x="72.216797"/>
      <use xlink:href="#ArialMT-6e" x="127.832031"/>
      <use xlink:href="#ArialMT-73" x="183.447266"/>
      <use xlink:href="#ArialMT-69" x="233.447266"/>
      <use xlink:href="#ArialMT-74" x="255.664062"/>
      <use xlink:href="#ArialMT-79" x="283.447266"/>
     </g>
    </g>
    <g id="text_15">
     <!-- $\times\mathdefault{10^{−2}}\mathdefault{}$ -->
     <g transform="translate(30.23399 8.15649) scale(0.05 -0.05)">
      <defs>
       <path id="DejaVuSans-d7" d="M 4488 3438 
L 3059 2003 
L 4488 575 
L 4116 197 
L 2681 1631 
L 1247 197 
L 878 575 
L 2303 2003 
L 878 3438 
L 1247 3816 
L 2681 2381 
L 4116 3816 
L 4488 3438 
z
" transform="scale(0.015625)"/>
       <path id="ArialMT-2212" d="M 3381 1997 
L 356 1997 
L 356 2522 
L 3381 2522 
L 3381 1997 
z
" transform="scale(0.015625)"/>
      </defs>
      <use xlink:href="#DejaVuSans-d7" transform="translate(0 0.99375)"/>
      <use xlink:href="#ArialMT-31" transform="translate(83.789062 0.99375)"/>
      <use xlink:href="#ArialMT-30" transform="translate(139.404297 0.99375)"/>
      <use xlink:href="#ArialMT-2212" transform="translate(196.761875 70.6875) scale(0.7)"/>
      <use xlink:href="#ArialMT-32" transform="translate(237.640781 70.6875) scale(0.7)"/>
     </g>
    </g>
   </g>
   <g id="patch_4">
    <path d="M 30.23399 118.858041 
L 30.23399 11.15649 
" style="fill: none; stroke: #000000; stroke-width: 0.8; stroke-linejoin: miter; stroke-linecap: square"/>
   </g>
   <g id="patch_5">
    <path d="M 30.23399 118.858041 
L 139.650693 118.858041 
" style="fill: none; stroke: #000000; stroke-width: 0.8; stroke-linejoin: miter; stroke-linecap: square"/>
   </g>
   <g id="axes_2">
    <g id="patch_6">
     <path d="M 74.000671 75.777421 
L 139.650693 75.777421 
L 139.650693 11.15649 
L 74.000671 11.15649 
L 74.000671 75.777421 
z
" style="fill: none"/>
    </g>
    <g id="matplotlib.axis_3">
     <g id="xtick_5">
      <g id="line2d_13">
       <g>
        <use xlink:href="#mf80c849680" x="76.984763" y="75.777421" style="stroke: #000000; stroke-width: 0.8"/>
       </g>
      </g>
      <g id="text_16">
       <!-- $\mathdefault{0}$ -->
       <g transform="translate(75.584763 86.356327) scale(0.05 -0.05)">
        <use xlink:href="#ArialMT-30" transform="translate(0 0.125)"/>
       </g>
      </g>
     </g>
     <g id="xtick_6">
      <g id="line2d_14">
       <g>
        <use xlink:href="#mf80c849680" x="96.931902" y="75.777421" style="stroke: #000000; stroke-width: 0.8"/>
       </g>
      </g>
      <g id="text_17">
       <!-- $\mathdefault{250}$ -->
       <g transform="translate(92.756902 86.356327) scale(0.05 -0.05)">
        <use xlink:href="#ArialMT-32" transform="translate(0 0.125)"/>
        <use xlink:href="#ArialMT-35" transform="translate(55.615234 0.125)"/>
        <use xlink:href="#ArialMT-30" transform="translate(111.230469 0.125)"/>
       </g>
      </g>
     </g>
     <g id="xtick_7">
      <g id="line2d_15">
       <g>
        <use xlink:href="#mf80c849680" x="116.87904" y="75.777421" style="stroke: #000000; stroke-width: 0.8"/>
       </g>
      </g>
      <g id="text_18">
       <!-- $\mathdefault{500}$ -->
       <g transform="translate(112.70404 86.356327) scale(0.05 -0.05)">
        <use xlink:href="#ArialMT-35" transform="translate(0 0.125)"/>
        <use xlink:href="#ArialMT-30" transform="translate(55.615234 0.125)"/>
        <use xlink:href="#ArialMT-30" transform="translate(111.230469 0.125)"/>
       </g>
      </g>
     </g>
     <g id="xtick_8">
      <g id="line2d_16">
       <g>
        <use xlink:href="#mf80c849680" x="136.826178" y="75.777421" style="stroke: #000000; stroke-width: 0.8"/>
       </g>
      </g>
      <g id="text_19">
       <!-- $\mathdefault{750}$ -->
       <g transform="translate(132.651178 86.356327) scale(0.05 -0.05)">
        <use xlink:href="#ArialMT-37" transform="translate(0 0.125)"/>
        <use xlink:href="#ArialMT-35" transform="translate(55.615234 0.125)"/>
        <use xlink:href="#ArialMT-30" transform="translate(111.230469 0.125)"/>
       </g>
      </g>
     </g>
     <g id="text_20">
      <!-- Number of bouts per trajectory -->
      <g transform="translate(66.311151 95.71789) scale(0.06 -0.06)">
       <use xlink:href="#ArialMT-4e"/>
       <use xlink:href="#ArialMT-75" x="72.216797"/>
       <use xlink:href="#ArialMT-6d" x="127.832031"/>
       <use xlink:href="#ArialMT-62" x="211.132812"/>
       <use xlink:href="#ArialMT-65" x="266.748047"/>
       <use xlink:href="#ArialMT-72" x="322.363281"/>
       <use xlink:href="#ArialMT-20" x="355.664062"/>
       <use xlink:href="#ArialMT-6f" x="383.447266"/>
       <use xlink:href="#ArialMT-66" x="439.0625"/>
       <use xlink:href="#ArialMT-20" x="466.845703"/>
       <use xlink:href="#ArialMT-62" x="494.628906"/>
       <use xlink:href="#ArialMT-6f" x="550.244141"/>
       <use xlink:href="#ArialMT-75" x="605.859375"/>
       <use xlink:href="#ArialMT-74" x="661.474609"/>
       <use xlink:href="#ArialMT-73" x="689.257812"/>
       <use xlink:href="#ArialMT-20" x="739.257812"/>
       <use xlink:href="#ArialMT-70" x="767.041016"/>
       <use xlink:href="#ArialMT-65" x="822.65625"/>
       <use xlink:href="#ArialMT-72" x="878.271484"/>
       <use xlink:href="#ArialMT-20" x="911.572266"/>
       <use xlink:href="#ArialMT-74" x="939.355469"/>
       <use xlink:href="#ArialMT-72" x="967.138672"/>
       <use xlink:href="#ArialMT-61" x="1000.439453"/>
       <use xlink:href="#ArialMT-6a" x="1056.054688"/>
       <use xlink:href="#ArialMT-65" x="1078.271484"/>
       <use xlink:href="#ArialMT-63" x="1133.886719"/>
       <use xlink:href="#ArialMT-74" x="1183.886719"/>
       <use xlink:href="#ArialMT-6f" x="1211.669922"/>
       <use xlink:href="#ArialMT-72" x="1267.285156"/>
       <use xlink:href="#ArialMT-79" x="1300.585938"/>
      </g>
     </g>
    </g>
    <g id="matplotlib.axis_4">
     <g id="ytick_9">
      <g id="line2d_17">
       <g>
        <use xlink:href="#m2347d16749" x="74.000671" y="71.417375" style="stroke: #000000; stroke-width: 0.8"/>
       </g>
      </g>
      <g id="text_21">
       <!-- $\mathdefault{10^{-4}}$ -->
       <g transform="translate(57.100671 73.9705) scale(0.05 -0.05)">
        <use xlink:href="#ArialMT-31" transform="translate(0 0.201563)"/>
        <use xlink:href="#ArialMT-30" transform="translate(55.615234 0.201563)"/>
        <use xlink:href="#ArialMT-2212" transform="translate(112.972813 69.895313) scale(0.7)"/>
        <use xlink:href="#ArialMT-34" transform="translate(153.851719 69.895313) scale(0.7)"/>
       </g>
      </g>
     </g>
     <g id="ytick_10">
      <g id="line2d_18">
       <g>
        <use xlink:href="#m2347d16749" x="74.000671" y="46.932006" style="stroke: #000000; stroke-width: 0.8"/>
       </g>
      </g>
      <g id="text_22">
       <!-- $\mathdefault{10^{-3}}$ -->
       <g transform="translate(57.100671 49.510131) scale(0.05 -0.05)">
        <defs>
         <path id="ArialMT-33" d="M 269 1209 
L 831 1284 
Q 928 806 1161 595 
Q 1394 384 1728 384 
Q 2125 384 2398 659 
Q 2672 934 2672 1341 
Q 2672 1728 2419 1979 
Q 2166 2231 1775 2231 
Q 1616 2231 1378 2169 
L 1441 2663 
Q 1497 2656 1531 2656 
Q 1891 2656 2178 2843 
Q 2466 3031 2466 3422 
Q 2466 3731 2256 3934 
Q 2047 4138 1716 4138 
Q 1388 4138 1169 3931 
Q 950 3725 888 3313 
L 325 3413 
Q 428 3978 793 4289 
Q 1159 4600 1703 4600 
Q 2078 4600 2393 4439 
Q 2709 4278 2876 4000 
Q 3044 3722 3044 3409 
Q 3044 3113 2884 2869 
Q 2725 2625 2413 2481 
Q 2819 2388 3044 2092 
Q 3269 1797 3269 1353 
Q 3269 753 2831 336 
Q 2394 -81 1725 -81 
Q 1122 -81 723 278 
Q 325 638 269 1209 
z
" transform="scale(0.015625)"/>
        </defs>
        <use xlink:href="#ArialMT-31" transform="translate(0 0.99375)"/>
        <use xlink:href="#ArialMT-30" transform="translate(55.615234 0.99375)"/>
        <use xlink:href="#ArialMT-2212" transform="translate(112.972813 70.6875) scale(0.7)"/>
        <use xlink:href="#ArialMT-33" transform="translate(153.851719 70.6875) scale(0.7)"/>
       </g>
      </g>
     </g>
     <g id="ytick_11">
      <g id="line2d_19">
       <g>
        <use xlink:href="#m2347d16749" x="74.000671" y="22.446636" style="stroke: #000000; stroke-width: 0.8"/>
       </g>
      </g>
      <g id="text_23">
       <!-- $\mathdefault{10^{-2}}$ -->
       <g transform="translate(57.100671 25.024761) scale(0.05 -0.05)">
        <use xlink:href="#ArialMT-31" transform="translate(0 0.99375)"/>
        <use xlink:href="#ArialMT-30" transform="translate(55.615234 0.99375)"/>
        <use xlink:href="#ArialMT-2212" transform="translate(112.972813 70.6875) scale(0.7)"/>
        <use xlink:href="#ArialMT-32" transform="translate(153.851719 70.6875) scale(0.7)"/>
       </g>
      </g>
     </g>
     <g id="ytick_12">
      <g id="line2d_20">
       <defs>
        <path id="md7558adbd5" d="M 0 0 
L -2 0 
" style="stroke: #000000; stroke-width: 0.6"/>
       </defs>
       <g>
        <use xlink:href="#md7558adbd5" x="74.000671" y="75.210207" style="stroke: #000000; stroke-width: 0.6"/>
       </g>
      </g>
     </g>
     <g id="ytick_13">
      <g id="line2d_21">
       <g>
        <use xlink:href="#md7558adbd5" x="74.000671" y="73.790253" style="stroke: #000000; stroke-width: 0.6"/>
       </g>
      </g>
     </g>
     <g id="ytick_14">
      <g id="line2d_22">
       <g>
        <use xlink:href="#md7558adbd5" x="74.000671" y="72.537764" style="stroke: #000000; stroke-width: 0.6"/>
       </g>
      </g>
     </g>
     <g id="ytick_15">
      <g id="line2d_23">
       <g>
        <use xlink:href="#md7558adbd5" x="74.000671" y="64.046545" style="stroke: #000000; stroke-width: 0.6"/>
       </g>
      </g>
     </g>
     <g id="ytick_16">
      <g id="line2d_24">
       <g>
        <use xlink:href="#md7558adbd5" x="74.000671" y="59.734885" style="stroke: #000000; stroke-width: 0.6"/>
       </g>
      </g>
     </g>
     <g id="ytick_17">
      <g id="line2d_25">
       <g>
        <use xlink:href="#md7558adbd5" x="74.000671" y="56.675714" style="stroke: #000000; stroke-width: 0.6"/>
       </g>
      </g>
     </g>
     <g id="ytick_18">
      <g id="line2d_26">
       <g>
        <use xlink:href="#md7558adbd5" x="74.000671" y="54.302836" style="stroke: #000000; stroke-width: 0.6"/>
       </g>
      </g>
     </g>
     <g id="ytick_19">
      <g id="line2d_27">
       <g>
        <use xlink:href="#md7558adbd5" x="74.000671" y="52.364054" style="stroke: #000000; stroke-width: 0.6"/>
       </g>
      </g>
     </g>
     <g id="ytick_20">
      <g id="line2d_28">
       <g>
        <use xlink:href="#md7558adbd5" x="74.000671" y="50.724838" style="stroke: #000000; stroke-width: 0.6"/>
       </g>
      </g>
     </g>
     <g id="ytick_21">
      <g id="line2d_29">
       <g>
        <use xlink:href="#md7558adbd5" x="74.000671" y="49.304883" style="stroke: #000000; stroke-width: 0.6"/>
       </g>
      </g>
     </g>
     <g id="ytick_22">
      <g id="line2d_30">
       <g>
        <use xlink:href="#md7558adbd5" x="74.000671" y="48.052395" style="stroke: #000000; stroke-width: 0.6"/>
       </g>
      </g>
     </g>
     <g id="ytick_23">
      <g id="line2d_31">
       <g>
        <use xlink:href="#md7558adbd5" x="74.000671" y="39.561175" style="stroke: #000000; stroke-width: 0.6"/>
       </g>
      </g>
     </g>
     <g id="ytick_24">
      <g id="line2d_32">
       <g>
        <use xlink:href="#md7558adbd5" x="74.000671" y="35.249516" style="stroke: #000000; stroke-width: 0.6"/>
       </g>
      </g>
     </g>
     <g id="ytick_25">
      <g id="line2d_33">
       <g>
        <use xlink:href="#md7558adbd5" x="74.000671" y="32.190345" style="stroke: #000000; stroke-width: 0.6"/>
       </g>
      </g>
     </g>
     <g id="ytick_26">
      <g id="line2d_34">
       <g>
        <use xlink:href="#md7558adbd5" x="74.000671" y="29.817467" style="stroke: #000000; stroke-width: 0.6"/>
       </g>
      </g>
     </g>
     <g id="ytick_27">
      <g id="line2d_35">
       <g>
        <use xlink:href="#md7558adbd5" x="74.000671" y="27.878685" style="stroke: #000000; stroke-width: 0.6"/>
       </g>
      </g>
     </g>
     <g id="ytick_28">
      <g id="line2d_36">
       <g>
        <use xlink:href="#md7558adbd5" x="74.000671" y="26.239468" style="stroke: #000000; stroke-width: 0.6"/>
       </g>
      </g>
     </g>
     <g id="ytick_29">
      <g id="line2d_37">
       <g>
        <use xlink:href="#md7558adbd5" x="74.000671" y="24.819514" style="stroke: #000000; stroke-width: 0.6"/>
       </g>
      </g>
     </g>
     <g id="ytick_30">
      <g id="line2d_38">
       <g>
        <use xlink:href="#md7558adbd5" x="74.000671" y="23.567026" style="stroke: #000000; stroke-width: 0.6"/>
       </g>
      </g>
     </g>
     <g id="ytick_31">
      <g id="line2d_39">
       <g>
        <use xlink:href="#md7558adbd5" x="74.000671" y="15.075806" style="stroke: #000000; stroke-width: 0.6"/>
       </g>
      </g>
     </g>
     <g id="text_24">
      <!-- Density -->
      <g transform="translate(51.837859 53.47008) rotate(-90) scale(0.06 -0.06)">
       <use xlink:href="#ArialMT-44"/>
       <use xlink:href="#ArialMT-65" x="72.216797"/>
       <use xlink:href="#ArialMT-6e" x="127.832031"/>
       <use xlink:href="#ArialMT-73" x="183.447266"/>
       <use xlink:href="#ArialMT-69" x="233.447266"/>
       <use xlink:href="#ArialMT-74" x="255.664062"/>
       <use xlink:href="#ArialMT-79" x="283.447266"/>
      </g>
     </g>
    </g>
    <g id="patch_7">
     <path d="M 77.58761 145 
L 77.58761 24.871375 
L 78.190457 24.871375 
L 78.190457 18.011068 
L 78.793304 18.011068 
L 78.793304 16.248056 
L 79.396151 16.248056 
L 79.396151 18.732284 
L 79.998997 18.732284 
L 79.998997 17.173323 
L 80.601844 17.173323 
L 80.601844 23.043943 
L 81.204691 23.043943 
L 81.204691 23.618887 
L 81.807538 23.618887 
L 81.807538 30.989717 
L 82.410385 30.989717 
L 82.410385 31.597532 
L 83.013232 31.597532 
L 83.013232 25.557669 
L 83.616078 25.557669 
L 83.616078 32.242206 
L 84.218925 32.242206 
L 84.218925 30.414774 
L 84.821772 30.414774 
L 84.821772 42.672207 
L 85.424619 42.672207 
L 85.424619 35.301377 
L 86.027466 35.301377 
L 86.027466 44.610989 
L 86.630313 44.610989 
L 86.630313 42.672207 
L 87.836006 42.672207 
L 87.836006 54.354698 
L 88.438853 54.354698 
L 88.438853 38.360548 
L 89.0417 38.360548 
L 89.0417 54.354698 
L 89.644547 54.354698 
L 89.644547 46.983867 
L 90.247394 46.983867 
L 90.247394 54.354698 
L 90.850241 54.354698 
L 90.850241 145 
M 91.453088 145 
L 91.453088 54.354698 
L 92.055934 54.354698 
L 92.055934 61.725528 
L 92.658781 61.725528 
L 92.658781 145 
M 93.864475 145 
L 93.864475 61.725528 
L 94.467322 61.725528 
L 94.467322 145 
M 96.275862 145 
L 96.275862 61.725528 
L 96.878709 61.725528 
L 96.878709 145 
M 97.481556 145 
L 97.481556 61.725528 
L 98.68725 61.725528 
L 98.68725 145 
M 99.892943 145 
L 99.892943 54.354698 
L 100.49579 54.354698 
L 100.49579 61.725528 
L 101.098637 61.725528 
L 101.098637 145 
M 102.304331 145 
L 102.304331 61.725528 
L 103.510024 61.725528 
L 103.510024 145 
M 108.332799 145 
L 108.332799 61.725528 
L 108.935646 61.725528 
L 108.935646 145 
M 115.566961 145 
L 115.566961 61.725528 
L 116.169808 61.725528 
L 116.169808 145 
M 118.581196 145 
L 118.581196 61.725528 
L 119.184043 61.725528 
L 119.184043 145 
M 127.623898 145 
L 127.623898 61.725528 
L 128.226745 61.725528 
L 128.226745 145 
L 128.226745 145 
" clip-path="url(#p5cc8683c47)" style="fill: none; stroke: #033198; stroke-linejoin: miter"/>
    </g>
    <g id="patch_8">
     <path d="M 77.58761 145 
L 77.58761 26.59158 
L 78.190457 26.59158 
L 78.190457 21.476984 
L 78.793304 21.476984 
L 78.793304 17.101071 
L 79.396151 17.101071 
L 79.396151 18.466259 
L 79.998997 18.466259 
L 79.998997 19.782669 
L 80.601844 19.782669 
L 80.601844 24.094329 
L 81.204691 24.094329 
L 81.204691 23.493386 
L 81.807538 23.493386 
L 81.807538 27.071385 
L 82.410385 27.071385 
L 82.410385 27.746777 
L 83.013232 27.746777 
L 83.013232 29.042937 
L 83.616078 29.042937 
L 83.616078 32.503433 
L 84.218925 32.503433 
L 84.218925 32.779653 
L 84.821772 32.779653 
L 84.821772 34.607085 
L 85.424619 34.607085 
L 85.424619 33.063239 
L 86.027466 33.063239 
L 86.027466 39.08621 
L 86.630313 39.08621 
L 86.630313 40.150484 
L 87.23316 40.150484 
L 87.23316 43.39787 
L 88.438853 43.39787 
L 88.438853 40.725427 
L 89.0417 40.725427 
L 89.0417 46.975869 
L 89.644547 46.975869 
L 89.644547 45.962353 
L 90.247394 45.962353 
L 90.247394 44.185923 
L 90.850241 44.185923 
L 90.850241 54.346699 
L 91.453088 54.346699 
L 91.453088 50.7687 
L 92.055934 50.7687 
L 92.055934 54.346699 
L 92.658781 54.346699 
L 92.658781 59.778748 
L 93.261628 59.778748 
L 93.261628 64.090407 
L 93.864475 64.090407 
L 93.864475 54.346699 
L 94.467322 54.346699 
L 94.467322 64.090407 
L 95.070169 64.090407 
L 95.070169 46.975869 
L 95.673015 46.975869 
L 95.673015 64.090407 
L 96.275862 64.090407 
L 96.275862 52.407917 
L 96.878709 52.407917 
L 96.878709 54.346699 
L 97.481556 54.346699 
L 97.481556 50.7687 
L 98.084403 50.7687 
L 98.084403 145 
M 98.68725 145 
L 98.68725 64.090407 
L 99.290097 64.090407 
L 99.290097 145 
M 99.892943 145 
L 99.892943 59.778748 
L 100.49579 59.778748 
L 100.49579 145 
M 101.098637 145 
L 101.098637 56.719577 
L 101.701484 56.719577 
L 101.701484 71.461238 
L 102.304331 71.461238 
L 102.304331 56.719577 
L 102.907178 56.719577 
L 102.907178 71.461238 
L 103.510024 71.461238 
L 103.510024 145 
M 104.112871 145 
L 104.112871 71.461238 
L 104.715718 71.461238 
L 104.715718 145 
M 105.921412 145 
L 105.921412 71.461238 
L 107.127106 71.461238 
L 107.127106 145 
M 107.729952 145 
L 107.729952 64.090407 
L 108.332799 64.090407 
L 108.332799 145 
M 111.347034 145 
L 111.347034 64.090407 
L 111.94988 64.090407 
L 111.94988 145 
M 114.361268 145 
L 114.361268 71.461238 
L 114.964115 71.461238 
L 114.964115 145 
M 115.566961 145 
L 115.566961 71.461238 
L 116.169808 71.461238 
L 116.169808 145 
M 118.581196 145 
L 118.581196 71.461238 
L 119.184043 71.461238 
L 119.184043 145 
M 125.212511 145 
L 125.212511 71.461238 
L 125.815358 71.461238 
L 125.815358 145 
M 133.04952 145 
L 133.04952 71.461238 
L 133.652367 71.461238 
L 133.652367 145 
M 136.063754 145 
L 136.063754 71.461238 
L 136.666601 71.461238 
L 136.666601 145 
L 136.666601 145 
" clip-path="url(#p5cc8683c47)" style="fill: none; stroke: #399dc7; stroke-linejoin: miter"/>
    </g>
    <g id="patch_9">
     <path d="M 77.58761 145 
L 77.58761 31.898172 
L 78.190457 31.898172 
L 78.190457 24.0842 
L 78.793304 24.0842 
L 78.793304 16.659253 
L 79.396151 16.659253 
L 79.396151 15.058662 
L 79.998997 15.058662 
L 79.998997 15.293415 
L 80.601844 15.293415 
L 80.601844 20.065907 
L 81.204691 20.065907 
L 81.204691 22.759617 
L 81.807538 22.759617 
L 81.807538 28.450253 
L 82.410385 28.450253 
L 82.410385 29.66192 
L 83.013232 29.66192 
L 83.013232 30.226682 
L 83.616078 30.226682 
L 83.616078 32.360587 
L 84.218925 32.360587 
L 84.218925 33.350497 
L 84.821772 33.350497 
L 84.821772 37.405907 
L 85.424619 37.405907 
L 85.424619 38.611028 
L 86.027466 38.611028 
L 86.027466 39.970391 
L 86.630313 39.970391 
L 86.630313 40.983906 
L 87.23316 40.983906 
L 87.23316 45.564791 
L 87.836006 45.564791 
L 87.836006 48.354736 
L 88.438853 48.354736 
L 88.438853 47.341221 
L 89.0417 47.341221 
L 89.0417 55.725567 
L 89.644547 55.725567 
L 89.644547 52.147568 
L 90.247394 52.147568 
L 90.247394 61.157616 
L 91.453088 61.157616 
L 91.453088 50.727614 
L 92.055934 50.727614 
L 92.055934 52.147568 
L 92.658781 52.147568 
L 92.658781 72.840106 
L 93.261628 72.840106 
L 93.261628 61.157616 
L 93.864475 61.157616 
L 93.864475 58.098444 
L 95.070169 58.098444 
L 95.070169 61.157616 
L 95.673015 61.157616 
L 95.673015 145 
M 96.275862 145 
L 96.275862 61.157616 
L 96.878709 61.157616 
L 96.878709 72.840106 
L 97.481556 72.840106 
L 97.481556 145 
M 98.084403 145 
L 98.084403 61.157616 
L 99.290097 61.157616 
L 99.290097 65.469275 
L 100.49579 65.469275 
L 100.49579 61.157616 
L 101.098637 61.157616 
L 101.098637 145 
M 102.304331 145 
L 102.304331 72.840106 
L 102.907178 72.840106 
L 102.907178 145 
M 104.112871 145 
L 104.112871 72.840106 
L 105.318565 72.840106 
L 105.318565 145 
M 105.921412 145 
L 105.921412 72.840106 
L 106.524259 72.840106 
L 106.524259 145 
M 107.729952 145 
L 107.729952 72.840106 
L 108.332799 72.840106 
L 108.332799 145 
M 111.347034 145 
L 111.347034 72.840106 
L 111.94988 72.840106 
L 111.94988 145 
L 111.94988 145 
" clip-path="url(#p5cc8683c47)" style="fill: none; stroke: #c1eac2; stroke-linejoin: miter"/>
    </g>
    <g id="patch_10">
     <path d="M 77.58761 145 
L 77.58761 24.73796 
L 78.190457 24.73796 
L 78.190457 23.003028 
L 78.793304 23.003028 
L 78.793304 20.931676 
L 79.396151 20.931676 
L 79.396151 18.280166 
L 79.998997 18.280166 
L 79.998997 14.75468 
L 80.601844 14.75468 
L 80.601844 20.292539 
L 81.204691 20.292539 
L 81.204691 20.561765 
L 81.807538 20.561765 
L 81.807538 26.489944 
L 82.410385 26.489944 
L 82.410385 25.433231 
L 83.013232 25.433231 
L 83.013232 30.48882 
L 83.616078 30.48882 
L 83.616078 31.205982 
L 84.218925 31.205982 
L 84.218925 40.466249 
L 84.821772 40.466249 
L 84.821772 36.555915 
L 85.424619 36.555915 
L 85.424619 35.034201 
L 86.027466 35.034201 
L 86.027466 41.074064 
L 86.630313 41.074064 
L 86.630313 44.777909 
L 87.23316 44.777909 
L 87.23316 47.83708 
L 87.836006 47.83708 
L 87.836006 44.777909 
L 89.0417 44.777909 
L 89.0417 50.509522 
L 89.644547 50.509522 
L 89.644547 52.148739 
L 90.247394 52.148739 
L 90.247394 50.509522 
L 90.850241 50.509522 
L 90.850241 59.51957 
L 91.453088 59.51957 
L 91.453088 54.087521 
L 92.055934 54.087521 
L 92.055934 49.089568 
L 92.658781 49.089568 
L 92.658781 54.087521 
L 93.261628 54.087521 
L 93.261628 59.51957 
L 94.467322 59.51957 
L 94.467322 56.460399 
L 95.070169 56.460399 
L 95.070169 71.20206 
L 96.275862 71.20206 
L 96.275862 63.83123 
L 96.878709 63.83123 
L 96.878709 145 
M 97.481556 145 
L 97.481556 71.20206 
L 98.084403 71.20206 
L 98.084403 145 
M 98.68725 145 
L 98.68725 71.20206 
L 99.290097 71.20206 
L 99.290097 145 
M 100.49579 145 
L 100.49579 71.20206 
L 101.098637 71.20206 
L 101.098637 145 
M 103.510024 145 
L 103.510024 71.20206 
L 104.112871 71.20206 
L 104.112871 145 
M 105.921412 145 
L 105.921412 71.20206 
L 106.524259 71.20206 
L 106.524259 145 
M 107.729952 145 
L 107.729952 71.20206 
L 108.332799 71.20206 
L 108.332799 145 
M 129.432439 145 
L 129.432439 71.20206 
L 130.035286 71.20206 
L 130.035286 145 
L 130.035286 145 
" clip-path="url(#p5cc8683c47)" style="fill: none; stroke: #b58b31; stroke-linejoin: miter"/>
    </g>
    <g id="patch_11">
     <path d="M 77.58761 145 
L 77.58761 22.5384 
L 78.190457 22.5384 
L 78.190457 19.152007 
L 78.793304 19.152007 
L 78.793304 15.30133 
L 79.396151 15.30133 
L 79.396151 14.214646 
L 79.998997 14.214646 
L 79.998997 14.093805 
L 80.601844 14.093805 
L 80.601844 22.5384 
L 81.807538 22.5384 
L 81.807538 28.194327 
L 82.410385 28.194327 
L 82.410385 33.702062 
L 83.013232 33.702062 
L 83.013232 31.329184 
L 83.616078 31.329184 
L 83.616078 35.341279 
L 84.218925 35.341279 
L 84.218925 37.825507 
L 84.821772 37.825507 
L 84.821772 48.443723 
L 85.424619 48.443723 
L 85.424619 45.77128 
L 86.027466 45.77128 
L 86.027466 48.443723 
L 87.23316 48.443723 
L 87.23316 61.76543 
L 87.836006 61.76543 
L 87.836006 54.3946 
L 88.438853 54.3946 
L 88.438853 69.136261 
L 90.247394 69.136261 
L 90.247394 61.76543 
L 90.850241 61.76543 
L 90.850241 69.136261 
L 91.453088 69.136261 
L 91.453088 57.453771 
L 92.055934 57.453771 
L 92.055934 61.76543 
L 93.261628 61.76543 
L 93.261628 145 
M 93.864475 145 
L 93.864475 69.136261 
L 94.467322 69.136261 
L 94.467322 145 
M 95.070169 145 
L 95.070169 69.136261 
L 96.275862 69.136261 
L 96.275862 145 
M 97.481556 145 
L 97.481556 69.136261 
L 98.084403 69.136261 
L 98.084403 145 
M 99.892943 145 
L 99.892943 69.136261 
L 101.098637 69.136261 
L 101.098637 145 
L 101.098637 145 
" clip-path="url(#p5cc8683c47)" style="fill: none; stroke: #7e1700; stroke-linejoin: miter"/>
    </g>
    <g id="patch_12">
     <path d="M 74.000671 75.777421 
L 74.000671 11.15649 
" style="fill: none; stroke: #000000; stroke-width: 0.8; stroke-linejoin: miter; stroke-linecap: square"/>
    </g>
    <g id="patch_13">
     <path d="M 74.000671 75.777421 
L 139.650693 75.777421 
" style="fill: none; stroke: #000000; stroke-width: 0.8; stroke-linejoin: miter; stroke-linecap: square"/>
    </g>
   </g>
  </g>
 </g>
 <defs>
  <clipPath id="p586d7852c8">
   <rect x="30.23399" y="11.15649" width="109.416703" height="107.701551"/>
  </clipPath>
  <clipPath id="p5cc8683c47">
   <rect x="74.000671" y="11.15649" width="65.650022" height="64.620931"/>
  </clipPath>
 </defs>
</svg>
