<?xml version="1.0" encoding="utf-8" standalone="no"?>
<!DOCTYPE svg PUBLIC "-//W3C//DTD SVG 1.1//EN"
  "http://www.w3.org/Graphics/SVG/1.1/DTD/svg11.dtd">
<svg xmlns:xlink="http://www.w3.org/1999/xlink" width="468pt" height="129.6pt" viewBox="0 0 468 129.6" xmlns="http://www.w3.org/2000/svg" version="1.1">
 <metadata>
  <rdf:RDF xmlns:dc="http://purl.org/dc/elements/1.1/" xmlns:cc="http://creativecommons.org/ns#" xmlns:rdf="http://www.w3.org/1999/02/22-rdf-syntax-ns#">
   <cc:Work>
    <dc:type rdf:resource="http://purl.org/dc/dcmitype/StillImage"/>
    <dc:date>2024-07-02T17:55:55.608201</dc:date>
    <dc:format>image/svg+xml</dc:format>
    <dc:creator>
     <cc:Agent>
      <dc:title>Matplotlib v3.8.0, https://matplotlib.org/</dc:title>
     </cc:Agent>
    </dc:creator>
   </cc:Work>
  </rdf:RDF>
 </metadata>
 <defs>
  <style type="text/css">*{stroke-linejoin: round; stroke-linecap: butt}</style>
 </defs>
 <g id="figure_1">
  <g id="patch_1">
   <path d="M 0 129.6 
L 468 129.6 
L 468 0 
L 0 0 
L 0 129.6 
z
" style="fill: none"/>
  </g>
  <g id="axes_1">
   <g id="patch_2">
    <path d="M 30.151959 104.097104 
L 108.683743 104.097104 
L 108.683743 14.72649 
L 30.151959 14.72649 
L 30.151959 104.097104 
z
" style="fill: none"/>
   </g>
   <g id="line2d_1">
    <path d="M 40.716611 104.097104 
L 40.716611 14.72649 
" clip-path="url(#p8a139af2f8)" style="fill: none; stroke-dasharray: 1.85,0.8; stroke-dashoffset: 0; stroke: #000000; stroke-width: 0.5"/>
   </g>
   <g id="line2d_2">
    <path d="M 33.721585 18.788791 
L 34.80329 49.130666 
L 35.163859 57.230191 
L 35.524427 61.543251 
L 35.884995 70.896573 
L 36.245564 74.73319 
L 37.327269 90.330418 
L 37.687837 93.063695 
L 38.048405 94.593326 
L 38.769542 99.80912 
L 39.13011 100.034803 
L 105.114117 100.034803 
L 105.114117 100.034803 
" clip-path="url(#p8a139af2f8)" style="fill: none; stroke: #1a1513; stroke-width: 1.5; stroke-linecap: square"/>
   </g>
   <g id="matplotlib.axis_1">
    <g id="xtick_1">
     <g id="line2d_3">
      <defs>
       <path id="mccb4a3845c" d="M 0 0 
L 0 3.5 
" style="stroke: #000000; stroke-width: 0.8"/>
      </defs>
      <g>
       <use xlink:href="#mccb4a3845c" x="33.541301" y="104.097104" style="stroke: #000000; stroke-width: 0.8"/>
      </g>
     </g>
     <g id="text_1">
      <!-- $\mathdefault{0}$ -->
      <g transform="translate(32.141301 114.67601) scale(0.05 -0.05)">
       <defs>
        <path id="ArialMT-30" d="M 266 2259 
Q 266 3072 433 3567 
Q 600 4063 929 4331 
Q 1259 4600 1759 4600 
Q 2128 4600 2406 4451 
Q 2684 4303 2865 4023 
Q 3047 3744 3150 3342 
Q 3253 2941 3253 2259 
Q 3253 1453 3087 958 
Q 2922 463 2592 192 
Q 2263 -78 1759 -78 
Q 1097 -78 719 397 
Q 266 969 266 2259 
z
M 844 2259 
Q 844 1131 1108 757 
Q 1372 384 1759 384 
Q 2147 384 2411 759 
Q 2675 1134 2675 2259 
Q 2675 3391 2411 3762 
Q 2147 4134 1753 4134 
Q 1366 4134 1134 3806 
Q 844 3388 844 2259 
z
" transform="scale(0.015625)"/>
       </defs>
       <use xlink:href="#ArialMT-30" transform="translate(0 0.125)"/>
      </g>
     </g>
    </g>
    <g id="xtick_2">
     <g id="line2d_4">
      <g>
       <use xlink:href="#mccb4a3845c" x="51.479576" y="104.097104" style="stroke: #000000; stroke-width: 0.8"/>
      </g>
     </g>
     <g id="text_2">
      <!-- $\mathdefault{25}$ -->
      <g transform="translate(48.679576 114.67601) scale(0.05 -0.05)">
       <defs>
        <path id="ArialMT-32" d="M 3222 541 
L 3222 0 
L 194 0 
Q 188 203 259 391 
Q 375 700 629 1000 
Q 884 1300 1366 1694 
Q 2113 2306 2375 2664 
Q 2638 3022 2638 3341 
Q 2638 3675 2398 3904 
Q 2159 4134 1775 4134 
Q 1369 4134 1125 3890 
Q 881 3647 878 3216 
L 300 3275 
Q 359 3922 746 4261 
Q 1134 4600 1788 4600 
Q 2447 4600 2831 4234 
Q 3216 3869 3216 3328 
Q 3216 3053 3103 2787 
Q 2991 2522 2730 2228 
Q 2469 1934 1863 1422 
Q 1356 997 1212 845 
Q 1069 694 975 541 
L 3222 541 
z
" transform="scale(0.015625)"/>
        <path id="ArialMT-35" d="M 266 1200 
L 856 1250 
Q 922 819 1161 601 
Q 1400 384 1738 384 
Q 2144 384 2425 690 
Q 2706 997 2706 1503 
Q 2706 1984 2436 2262 
Q 2166 2541 1728 2541 
Q 1456 2541 1237 2417 
Q 1019 2294 894 2097 
L 366 2166 
L 809 4519 
L 3088 4519 
L 3088 3981 
L 1259 3981 
L 1013 2750 
Q 1425 3038 1878 3038 
Q 2478 3038 2890 2622 
Q 3303 2206 3303 1553 
Q 3303 931 2941 478 
Q 2500 -78 1738 -78 
Q 1113 -78 717 272 
Q 322 622 266 1200 
z
" transform="scale(0.015625)"/>
       </defs>
       <use xlink:href="#ArialMT-32" transform="translate(0 0.125)"/>
       <use xlink:href="#ArialMT-35" transform="translate(55.615234 0.125)"/>
      </g>
     </g>
    </g>
    <g id="xtick_3">
     <g id="line2d_5">
      <g>
       <use xlink:href="#mccb4a3845c" x="69.417851" y="104.097104" style="stroke: #000000; stroke-width: 0.8"/>
      </g>
     </g>
     <g id="text_3">
      <!-- $\mathdefault{50}$ -->
      <g transform="translate(66.617851 114.67601) scale(0.05 -0.05)">
       <use xlink:href="#ArialMT-35" transform="translate(0 0.125)"/>
       <use xlink:href="#ArialMT-30" transform="translate(55.615234 0.125)"/>
      </g>
     </g>
    </g>
    <g id="xtick_4">
     <g id="line2d_6">
      <g>
       <use xlink:href="#mccb4a3845c" x="87.356126" y="104.097104" style="stroke: #000000; stroke-width: 0.8"/>
      </g>
     </g>
     <g id="text_4">
      <!-- $\mathdefault{75}$ -->
      <g transform="translate(84.556126 114.67601) scale(0.05 -0.05)">
       <defs>
        <path id="ArialMT-37" d="M 303 3981 
L 303 4522 
L 3269 4522 
L 3269 4084 
Q 2831 3619 2401 2847 
Q 1972 2075 1738 1259 
Q 1569 684 1522 0 
L 944 0 
Q 953 541 1156 1306 
Q 1359 2072 1739 2783 
Q 2119 3494 2547 3981 
L 303 3981 
z
" transform="scale(0.015625)"/>
       </defs>
       <use xlink:href="#ArialMT-37" transform="translate(0 0.34375)"/>
       <use xlink:href="#ArialMT-35" transform="translate(55.615234 0.34375)"/>
      </g>
     </g>
    </g>
    <g id="xtick_5">
     <g id="line2d_7">
      <g>
       <use xlink:href="#mccb4a3845c" x="105.294401" y="104.097104" style="stroke: #000000; stroke-width: 0.8"/>
      </g>
     </g>
     <g id="text_5">
      <!-- $\mathdefault{100}$ -->
      <g transform="translate(101.119401 114.67601) scale(0.05 -0.05)">
       <defs>
        <path id="ArialMT-31" d="M 2384 0 
L 1822 0 
L 1822 3584 
Q 1619 3391 1289 3197 
Q 959 3003 697 2906 
L 697 3450 
Q 1169 3672 1522 3987 
Q 1875 4303 2022 4600 
L 2384 4600 
L 2384 0 
z
" transform="scale(0.015625)"/>
       </defs>
       <use xlink:href="#ArialMT-31" transform="translate(0 0.125)"/>
       <use xlink:href="#ArialMT-30" transform="translate(55.615234 0.125)"/>
       <use xlink:href="#ArialMT-30" transform="translate(111.230469 0.125)"/>
      </g>
     </g>
    </g>
    <g id="text_6">
     <!-- $\delta \theta$ (°) -->
     <g transform="translate(60.422851 125.05976) scale(0.07 -0.07)">
      <defs>
       <path id="DejaVuSans-Oblique-3b4" d="M 3472 4053 
Q 3197 4272 2450 4272 
Q 1659 4272 1588 3906 
Q 1531 3619 2328 3469 
Q 2953 3353 3253 3003 
Q 3616 2581 3447 1716 
Q 3284 888 2763 400 
Q 2238 -91 1488 -91 
Q 741 -91 406 400 
Q 72 888 241 1747 
Q 363 2384 891 2900 
Q 1097 3100 1353 3213 
Q 913 3459 1000 3900 
Q 1166 4750 2544 4750 
Q 3234 4750 3566 4531 
L 3472 4053 
z
M 1753 3056 
Q 1525 2966 1306 2738 
Q 969 2384 847 1747 
Q 722 1113 919 756 
Q 1119 397 1584 397 
Q 2044 397 2381 759 
Q 2722 1122 2838 1716 
Q 2956 2338 2731 2638 
Q 2491 2959 2103 2994 
Q 1906 3013 1753 3056 
z
" transform="scale(0.015625)"/>
       <path id="DejaVuSans-Oblique-3b8" d="M 2913 2219 
L 925 2219 
Q 791 1284 928 888 
Q 1100 400 1566 400 
Q 2034 400 2391 891 
Q 2703 1322 2913 2219 
z
M 3009 2750 
Q 3094 3638 2984 3950 
Q 2813 4444 2353 4444 
Q 1875 4444 1525 3956 
Q 1250 3563 1034 2750 
L 3009 2750 
z
M 2444 4913 
Q 3194 4913 3494 4250 
Q 3794 3591 3566 2422 
Q 3341 1256 2781 594 
Q 2225 -72 1475 -72 
Q 722 -72 425 594 
Q 128 1256 353 2422 
Q 581 3591 1134 4250 
Q 1691 4913 2444 4913 
z
" transform="scale(0.015625)"/>
       <path id="ArialMT-20" transform="scale(0.015625)"/>
       <path id="ArialMT-28" d="M 1497 -1347 
Q 1031 -759 709 28 
Q 388 816 388 1659 
Q 388 2403 628 3084 
Q 909 3875 1497 4659 
L 1900 4659 
Q 1522 4009 1400 3731 
Q 1209 3300 1100 2831 
Q 966 2247 966 1656 
Q 966 153 1900 -1347 
L 1497 -1347 
z
" transform="scale(0.015625)"/>
       <path id="ArialMT-b0" d="M 400 3794 
Q 400 4153 654 4406 
Q 909 4659 1266 4659 
Q 1628 4659 1881 4406 
Q 2134 4153 2134 3794 
Q 2134 3434 1879 3179 
Q 1625 2925 1266 2925 
Q 909 2925 654 3178 
Q 400 3431 400 3794 
z
M 741 3794 
Q 741 3575 895 3420 
Q 1050 3266 1269 3266 
Q 1484 3266 1639 3420 
Q 1794 3575 1794 3794 
Q 1794 4013 1639 4167 
Q 1484 4322 1269 4322 
Q 1050 4322 895 4167 
Q 741 4013 741 3794 
z
" transform="scale(0.015625)"/>
       <path id="ArialMT-29" d="M 791 -1347 
L 388 -1347 
Q 1322 153 1322 1656 
Q 1322 2244 1188 2822 
Q 1081 3291 891 3722 
Q 769 4003 388 4659 
L 791 4659 
Q 1378 3875 1659 3084 
Q 1900 2403 1900 1659 
Q 1900 816 1576 28 
Q 1253 -759 791 -1347 
z
" transform="scale(0.015625)"/>
      </defs>
      <use xlink:href="#DejaVuSans-Oblique-3b4" transform="translate(0 0.234375)"/>
      <use xlink:href="#DejaVuSans-Oblique-3b8" transform="translate(61.181641 0.234375)"/>
      <use xlink:href="#ArialMT-20" transform="translate(122.363281 0.234375)"/>
      <use xlink:href="#ArialMT-28" transform="translate(150.146484 0.234375)"/>
      <use xlink:href="#ArialMT-b0" transform="translate(183.447266 0.234375)"/>
      <use xlink:href="#ArialMT-29" transform="translate(223.4375 0.234375)"/>
     </g>
    </g>
   </g>
   <g id="matplotlib.axis_2">
    <g id="ytick_1">
     <g id="line2d_8">
      <defs>
       <path id="m72270ed793" d="M 0 0 
L -3.5 0 
" style="stroke: #000000; stroke-width: 0.8"/>
      </defs>
      <g>
       <use xlink:href="#m72270ed793" x="30.151959" y="100.034803" style="stroke: #000000; stroke-width: 0.8"/>
      </g>
     </g>
     <g id="text_7">
      <!-- $\mathdefault{0.00}$ -->
      <g transform="translate(13.401959 101.824256) scale(0.05 -0.05)">
       <defs>
        <path id="ArialMT-2e" d="M 581 0 
L 581 641 
L 1222 641 
L 1222 0 
L 581 0 
z
" transform="scale(0.015625)"/>
       </defs>
       <use xlink:href="#ArialMT-30" transform="translate(0 0.125)"/>
       <use xlink:href="#ArialMT-2e" transform="translate(55.615234 0.125)"/>
       <use xlink:href="#ArialMT-30" transform="translate(83.398438 0.125)"/>
       <use xlink:href="#ArialMT-30" transform="translate(139.013672 0.125)"/>
      </g>
     </g>
    </g>
    <g id="ytick_2">
     <g id="line2d_9">
      <g>
       <use xlink:href="#m72270ed793" x="30.151959" y="79.907904" style="stroke: #000000; stroke-width: 0.8"/>
      </g>
     </g>
     <g id="text_8">
      <!-- $\mathdefault{0.05}$ -->
      <g transform="translate(13.401959 81.697357) scale(0.05 -0.05)">
       <use xlink:href="#ArialMT-30" transform="translate(0 0.125)"/>
       <use xlink:href="#ArialMT-2e" transform="translate(55.615234 0.125)"/>
       <use xlink:href="#ArialMT-30" transform="translate(83.398438 0.125)"/>
       <use xlink:href="#ArialMT-35" transform="translate(139.013672 0.125)"/>
      </g>
     </g>
    </g>
    <g id="ytick_3">
     <g id="line2d_10">
      <g>
       <use xlink:href="#m72270ed793" x="30.151959" y="59.781005" style="stroke: #000000; stroke-width: 0.8"/>
      </g>
     </g>
     <g id="text_9">
      <!-- $\mathdefault{0.10}$ -->
      <g transform="translate(13.401959 61.570458) scale(0.05 -0.05)">
       <use xlink:href="#ArialMT-30" transform="translate(0 0.125)"/>
       <use xlink:href="#ArialMT-2e" transform="translate(55.615234 0.125)"/>
       <use xlink:href="#ArialMT-31" transform="translate(83.398438 0.125)"/>
       <use xlink:href="#ArialMT-30" transform="translate(139.013672 0.125)"/>
      </g>
     </g>
    </g>
    <g id="ytick_4">
     <g id="line2d_11">
      <g>
       <use xlink:href="#m72270ed793" x="30.151959" y="39.654106" style="stroke: #000000; stroke-width: 0.8"/>
      </g>
     </g>
     <g id="text_10">
      <!-- $\mathdefault{0.15}$ -->
      <g transform="translate(13.401959 41.443559) scale(0.05 -0.05)">
       <use xlink:href="#ArialMT-30" transform="translate(0 0.125)"/>
       <use xlink:href="#ArialMT-2e" transform="translate(55.615234 0.125)"/>
       <use xlink:href="#ArialMT-31" transform="translate(83.398438 0.125)"/>
       <use xlink:href="#ArialMT-35" transform="translate(139.013672 0.125)"/>
      </g>
     </g>
    </g>
    <g id="ytick_5">
     <g id="line2d_12">
      <g>
       <use xlink:href="#m72270ed793" x="30.151959" y="19.527207" style="stroke: #000000; stroke-width: 0.8"/>
      </g>
     </g>
     <g id="text_11">
      <!-- $\mathdefault{0.20}$ -->
      <g transform="translate(13.401959 21.316661) scale(0.05 -0.05)">
       <use xlink:href="#ArialMT-30" transform="translate(0 0.125)"/>
       <use xlink:href="#ArialMT-2e" transform="translate(55.615234 0.125)"/>
       <use xlink:href="#ArialMT-32" transform="translate(83.398438 0.125)"/>
       <use xlink:href="#ArialMT-30" transform="translate(139.013672 0.125)"/>
      </g>
     </g>
    </g>
    <g id="text_12">
     <!-- PDF -->
     <g transform="translate(8.010709 66.411797) rotate(-90) scale(0.07 -0.07)">
      <defs>
       <path id="ArialMT-50" d="M 494 0 
L 494 4581 
L 2222 4581 
Q 2678 4581 2919 4538 
Q 3256 4481 3484 4323 
Q 3713 4166 3852 3881 
Q 3991 3597 3991 3256 
Q 3991 2672 3619 2267 
Q 3247 1863 2275 1863 
L 1100 1863 
L 1100 0 
L 494 0 
z
M 1100 2403 
L 2284 2403 
Q 2872 2403 3119 2622 
Q 3366 2841 3366 3238 
Q 3366 3525 3220 3729 
Q 3075 3934 2838 4000 
Q 2684 4041 2272 4041 
L 1100 4041 
L 1100 2403 
z
" transform="scale(0.015625)"/>
       <path id="ArialMT-44" d="M 494 0 
L 494 4581 
L 2072 4581 
Q 2606 4581 2888 4516 
Q 3281 4425 3559 4188 
Q 3922 3881 4101 3404 
Q 4281 2928 4281 2316 
Q 4281 1794 4159 1391 
Q 4038 988 3847 723 
Q 3656 459 3429 307 
Q 3203 156 2883 78 
Q 2563 0 2147 0 
L 494 0 
z
M 1100 541 
L 2078 541 
Q 2531 541 2789 625 
Q 3047 709 3200 863 
Q 3416 1078 3536 1442 
Q 3656 1806 3656 2325 
Q 3656 3044 3420 3430 
Q 3184 3816 2847 3947 
Q 2603 4041 2063 4041 
L 1100 4041 
L 1100 541 
z
" transform="scale(0.015625)"/>
       <path id="ArialMT-46" d="M 525 0 
L 525 4581 
L 3616 4581 
L 3616 4041 
L 1131 4041 
L 1131 2622 
L 3281 2622 
L 3281 2081 
L 1131 2081 
L 1131 0 
L 525 0 
z
" transform="scale(0.015625)"/>
      </defs>
      <use xlink:href="#ArialMT-50"/>
      <use xlink:href="#ArialMT-44" x="66.699219"/>
      <use xlink:href="#ArialMT-46" x="138.916016"/>
     </g>
    </g>
   </g>
   <g id="line2d_13">
    <path d="M 33.721585 41.079736 
L 34.082154 43.069117 
L 34.442722 46.848753 
L 35.163859 58.20911 
L 36.606132 82.901528 
L 37.327269 91.110132 
L 38.048405 95.982398 
L 38.408974 97.441153 
L 38.769542 98.430811 
L 39.13011 99.076318 
L 39.851247 99.726038 
L 40.572384 99.948099 
L 42.014657 100.030274 
L 58.240232 100.034803 
L 105.114117 100.034803 
L 105.114117 100.034803 
" clip-path="url(#p8a139af2f8)" style="fill: none; stroke-dasharray: 5.55,2.4; stroke-dashoffset: 0; stroke: #1a1513; stroke-width: 1.5"/>
   </g>
   <g id="patch_3">
    <path d="M 30.151959 104.097104 
L 30.151959 14.72649 
" style="fill: none; stroke: #000000; stroke-width: 0.8; stroke-linejoin: miter; stroke-linecap: square"/>
   </g>
   <g id="patch_4">
    <path d="M 30.151959 104.097104 
L 108.683743 104.097104 
" style="fill: none; stroke: #000000; stroke-width: 0.8; stroke-linejoin: miter; stroke-linecap: square"/>
   </g>
   <g id="line2d_14">
    <path d="M 33.721585 97.301527 
L 34.80329 97.075843 
L 35.163859 97.426906 
L 35.524427 96.800008 
L 35.884995 96.574325 
L 36.245564 95.094845 
L 36.606132 94.69363 
L 37.327269 91.358531 
L 37.687837 90.480874 
L 38.408974 89.527989 
L 38.769542 87.923129 
L 39.13011 88.976318 
L 39.490679 90.857013 
L 39.851247 90.982392 
L 40.211815 92.687556 
L 40.572384 92.838011 
L 40.932952 94.442871 
L 41.29352 93.138922 
L 41.654089 94.493023 
L 42.014657 94.14196 
L 42.735794 94.969465 
L 43.096362 95.847123 
L 43.456931 95.295452 
L 43.817499 95.144997 
L 44.538636 96.448945 
L 44.899204 96.624477 
L 45.259772 96.04773 
L 45.620341 96.072806 
L 45.980909 96.524173 
L 46.341477 96.599401 
L 46.702046 96.198186 
L 47.062614 97.100919 
L 47.423182 96.599401 
L 48.144319 97.301527 
L 48.504887 97.025692 
L 48.865456 97.351679 
L 49.226024 97.451982 
L 49.586592 96.97554 
L 49.947161 97.151071 
L 50.668297 97.151071 
L 51.028866 97.426906 
L 51.389434 97.326603 
L 52.110571 97.853197 
L 52.471139 97.426906 
L 53.552844 97.752894 
L 53.913412 97.602438 
L 54.273981 97.702742 
L 54.995117 98.254412 
L 55.355686 98.078881 
L 55.716254 98.32964 
L 56.076822 97.903349 
L 56.437391 98.379792 
L 56.797959 98.103957 
L 57.158527 98.028729 
L 57.519096 98.229336 
L 57.879664 98.053805 
L 58.240232 98.304564 
L 58.600801 97.978577 
L 58.961369 98.705779 
L 59.321937 98.279488 
L 59.682506 98.730855 
L 60.043074 98.580399 
L 60.403642 98.856234 
L 60.764211 98.480095 
L 61.124779 98.480095 
L 61.485348 98.630551 
L 61.845916 98.931462 
L 62.567053 98.630551 
L 63.288189 99.00669 
L 64.009326 98.730855 
L 64.369894 98.906386 
L 65.812168 99.081918 
L 66.172736 98.906386 
L 66.893873 99.207297 
L 67.615009 99.056842 
L 67.975578 99.232373 
L 68.336146 99.533285 
L 69.057283 99.157146 
L 69.417851 99.332677 
L 69.778419 99.257449 
L 70.138988 99.458057 
L 70.499556 99.357753 
L 70.860124 99.633588 
L 71.581261 99.483133 
L 72.302398 99.583436 
L 72.662966 99.357753 
L 73.023534 99.633588 
L 73.384103 99.758968 
L 73.744671 99.633588 
L 75.547513 99.708816 
L 75.908081 99.55836 
L 76.268649 99.859272 
L 76.629218 99.658664 
L 76.989786 99.608512 
L 77.350354 99.758968 
L 77.710923 99.784044 
L 78.43206 99.583436 
L 78.792628 99.784044 
L 79.513765 99.68374 
L 79.874333 99.68374 
L 80.234901 99.934499 
L 80.956038 99.758968 
L 81.677175 99.884348 
L 82.037743 99.733892 
L 82.398311 99.934499 
L 83.840585 99.909423 
L 84.201153 99.984651 
L 84.561721 99.733892 
L 84.92229 99.708816 
L 85.282858 99.884348 
L 86.003995 99.959575 
L 86.725131 99.859272 
L 87.446268 99.984651 
L 87.806836 99.884348 
L 88.527973 99.984651 
L 89.970246 100.009727 
L 90.330815 99.80912 
L 90.691383 99.959575 
L 105.114117 100.034803 
L 105.114117 100.034803 
" clip-path="url(#p8a139af2f8)" style="fill: none; stroke: #d889ca; stroke-width: 1.5; stroke-linecap: square"/>
   </g>
   <g id="text_13">
    <!-- 18°C -->
    <g transform="translate(60.480976 8.72649) scale(0.08 -0.08)">
     <defs>
      <path id="ArialMT-38" d="M 1131 2484 
Q 781 2613 612 2850 
Q 444 3088 444 3419 
Q 444 3919 803 4259 
Q 1163 4600 1759 4600 
Q 2359 4600 2725 4251 
Q 3091 3903 3091 3403 
Q 3091 3084 2923 2848 
Q 2756 2613 2416 2484 
Q 2838 2347 3058 2040 
Q 3278 1734 3278 1309 
Q 3278 722 2862 322 
Q 2447 -78 1769 -78 
Q 1091 -78 675 323 
Q 259 725 259 1325 
Q 259 1772 486 2073 
Q 713 2375 1131 2484 
z
M 1019 3438 
Q 1019 3113 1228 2906 
Q 1438 2700 1772 2700 
Q 2097 2700 2305 2904 
Q 2513 3109 2513 3406 
Q 2513 3716 2298 3927 
Q 2084 4138 1766 4138 
Q 1444 4138 1231 3931 
Q 1019 3725 1019 3438 
z
M 838 1322 
Q 838 1081 952 856 
Q 1066 631 1291 507 
Q 1516 384 1775 384 
Q 2178 384 2440 643 
Q 2703 903 2703 1303 
Q 2703 1709 2433 1975 
Q 2163 2241 1756 2241 
Q 1359 2241 1098 1978 
Q 838 1716 838 1322 
z
" transform="scale(0.015625)"/>
      <path id="ArialMT-43" d="M 3763 1606 
L 4369 1453 
Q 4178 706 3683 314 
Q 3188 -78 2472 -78 
Q 1731 -78 1267 223 
Q 803 525 561 1097 
Q 319 1669 319 2325 
Q 319 3041 592 3573 
Q 866 4106 1370 4382 
Q 1875 4659 2481 4659 
Q 3169 4659 3637 4309 
Q 4106 3959 4291 3325 
L 3694 3184 
Q 3534 3684 3231 3912 
Q 2928 4141 2469 4141 
Q 1941 4141 1586 3887 
Q 1231 3634 1087 3207 
Q 944 2781 944 2328 
Q 944 1744 1114 1308 
Q 1284 872 1643 656 
Q 2003 441 2422 441 
Q 2931 441 3284 734 
Q 3638 1028 3763 1606 
z
" transform="scale(0.015625)"/>
     </defs>
     <use xlink:href="#ArialMT-31"/>
     <use xlink:href="#ArialMT-38" x="55.615234"/>
     <use xlink:href="#ArialMT-b0" x="111.230469"/>
     <use xlink:href="#ArialMT-43" x="151.220703"/>
    </g>
   </g>
   <g id="line2d_15">
    <path d="M 33.721585 77.131995 
L 35.524427 80.224224 
L 37.327269 82.898954 
L 39.13011 85.212555 
L 40.932952 87.213784 
L 43.096362 89.261902 
L 45.259772 90.982839 
L 47.423182 92.428862 
L 49.947161 93.826616 
L 52.471139 94.967503 
L 55.355686 96.016986 
L 58.600801 96.940197 
L 62.206484 97.719423 
L 66.172736 98.351971 
L 71.220693 98.913651 
L 77.350354 99.350114 
L 85.282858 99.673118 
L 96.460477 99.887645 
L 105.114117 99.961449 
L 105.114117 99.961449 
" clip-path="url(#p8a139af2f8)" style="fill: none; stroke-dasharray: 5.55,2.4; stroke-dashoffset: 0; stroke: #d889ca; stroke-width: 1.5"/>
   </g>
  </g>
  <g id="axes_2">
   <g id="patch_5">
    <path d="M 119.021615 104.097104 
L 197.5534 104.097104 
L 197.5534 14.72649 
L 119.021615 14.72649 
L 119.021615 104.097104 
z
" style="fill: none"/>
   </g>
   <g id="line2d_16">
    <path d="M 129.586267 104.097104 
L 129.586267 14.72649 
" clip-path="url(#pd6903ad846)" style="fill: none; stroke-dasharray: 1.85,0.8; stroke-dashoffset: 0; stroke: #000000; stroke-width: 0.5"/>
   </g>
   <g id="line2d_17">
    <path d="M 122.591242 32.98745 
L 123.312378 45.456054 
L 124.033515 58.780762 
L 124.754652 73.054813 
L 125.11522 77.411619 
L 125.836357 90.676993 
L 126.557493 97.881829 
L 126.918062 99.399082 
L 127.27863 99.992422 
L 128.360335 100.034803 
L 193.983773 100.034803 
L 193.983773 100.034803 
" clip-path="url(#pd6903ad846)" style="fill: none; stroke: #1a1513; stroke-width: 1.5; stroke-linecap: square"/>
   </g>
   <g id="matplotlib.axis_3">
    <g id="xtick_6">
     <g id="line2d_18">
      <g>
       <use xlink:href="#mccb4a3845c" x="122.410957" y="104.097104" style="stroke: #000000; stroke-width: 0.8"/>
      </g>
     </g>
     <g id="text_14">
      <!-- $\mathdefault{0}$ -->
      <g transform="translate(121.010957 114.67601) scale(0.05 -0.05)">
       <use xlink:href="#ArialMT-30" transform="translate(0 0.125)"/>
      </g>
     </g>
    </g>
    <g id="xtick_7">
     <g id="line2d_19">
      <g>
       <use xlink:href="#mccb4a3845c" x="140.349232" y="104.097104" style="stroke: #000000; stroke-width: 0.8"/>
      </g>
     </g>
     <g id="text_15">
      <!-- $\mathdefault{25}$ -->
      <g transform="translate(137.549232 114.67601) scale(0.05 -0.05)">
       <use xlink:href="#ArialMT-32" transform="translate(0 0.125)"/>
       <use xlink:href="#ArialMT-35" transform="translate(55.615234 0.125)"/>
      </g>
     </g>
    </g>
    <g id="xtick_8">
     <g id="line2d_20">
      <g>
       <use xlink:href="#mccb4a3845c" x="158.287507" y="104.097104" style="stroke: #000000; stroke-width: 0.8"/>
      </g>
     </g>
     <g id="text_16">
      <!-- $\mathdefault{50}$ -->
      <g transform="translate(155.487507 114.67601) scale(0.05 -0.05)">
       <use xlink:href="#ArialMT-35" transform="translate(0 0.125)"/>
       <use xlink:href="#ArialMT-30" transform="translate(55.615234 0.125)"/>
      </g>
     </g>
    </g>
    <g id="xtick_9">
     <g id="line2d_21">
      <g>
       <use xlink:href="#mccb4a3845c" x="176.225782" y="104.097104" style="stroke: #000000; stroke-width: 0.8"/>
      </g>
     </g>
     <g id="text_17">
      <!-- $\mathdefault{75}$ -->
      <g transform="translate(173.425782 114.67601) scale(0.05 -0.05)">
       <use xlink:href="#ArialMT-37" transform="translate(0 0.34375)"/>
       <use xlink:href="#ArialMT-35" transform="translate(55.615234 0.34375)"/>
      </g>
     </g>
    </g>
    <g id="xtick_10">
     <g id="line2d_22">
      <g>
       <use xlink:href="#mccb4a3845c" x="194.164057" y="104.097104" style="stroke: #000000; stroke-width: 0.8"/>
      </g>
     </g>
     <g id="text_18">
      <!-- $\mathdefault{100}$ -->
      <g transform="translate(189.989057 114.67601) scale(0.05 -0.05)">
       <use xlink:href="#ArialMT-31" transform="translate(0 0.125)"/>
       <use xlink:href="#ArialMT-30" transform="translate(55.615234 0.125)"/>
       <use xlink:href="#ArialMT-30" transform="translate(111.230469 0.125)"/>
      </g>
     </g>
    </g>
   </g>
   <g id="matplotlib.axis_4">
    <g id="ytick_6">
     <g id="line2d_23">
      <g>
       <use xlink:href="#m72270ed793" x="119.021615" y="100.034803" style="stroke: #000000; stroke-width: 0.8"/>
      </g>
     </g>
    </g>
    <g id="ytick_7">
     <g id="line2d_24">
      <g>
       <use xlink:href="#m72270ed793" x="119.021615" y="79.907904" style="stroke: #000000; stroke-width: 0.8"/>
      </g>
     </g>
    </g>
    <g id="ytick_8">
     <g id="line2d_25">
      <g>
       <use xlink:href="#m72270ed793" x="119.021615" y="59.781005" style="stroke: #000000; stroke-width: 0.8"/>
      </g>
     </g>
    </g>
    <g id="ytick_9">
     <g id="line2d_26">
      <g>
       <use xlink:href="#m72270ed793" x="119.021615" y="39.654106" style="stroke: #000000; stroke-width: 0.8"/>
      </g>
     </g>
    </g>
    <g id="ytick_10">
     <g id="line2d_27">
      <g>
       <use xlink:href="#m72270ed793" x="119.021615" y="19.527207" style="stroke: #000000; stroke-width: 0.8"/>
      </g>
     </g>
    </g>
   </g>
   <g id="line2d_28">
    <path d="M 122.591242 37.62307 
L 122.95181 39.980856 
L 123.312378 44.432576 
L 124.033515 57.570951 
L 125.11522 78.803578 
L 125.836357 89.002774 
L 126.557493 95.120782 
L 126.918062 96.939232 
L 127.27863 98.158427 
L 127.639198 98.940408 
L 127.999767 99.420611 
L 128.720903 99.862462 
L 129.802608 100.015613 
L 134.129428 100.034803 
L 193.983773 100.034803 
L 193.983773 100.034803 
" clip-path="url(#pd6903ad846)" style="fill: none; stroke-dasharray: 5.55,2.4; stroke-dashoffset: 0; stroke: #1a1513; stroke-width: 1.5"/>
   </g>
   <g id="patch_6">
    <path d="M 119.021615 104.097104 
L 119.021615 14.72649 
" style="fill: none; stroke: #000000; stroke-width: 0.8; stroke-linejoin: miter; stroke-linecap: square"/>
   </g>
   <g id="patch_7">
    <path d="M 119.021615 104.097104 
L 197.5534 104.097104 
" style="fill: none; stroke: #000000; stroke-width: 0.8; stroke-linejoin: miter; stroke-linecap: square"/>
   </g>
   <g id="line2d_29">
    <path d="M 122.591242 100.034803 
L 123.672947 100.034803 
L 124.033515 99.899183 
L 124.394083 96.568006 
L 124.754652 96.093334 
L 125.11522 96.288289 
L 125.836357 90.202322 
L 126.196925 89.736126 
L 126.557493 87.981537 
L 126.918062 89.151263 
L 127.27863 89.871747 
L 127.639198 90.973663 
L 127.999767 91.626336 
L 128.360335 92.804539 
L 129.44204 94.347221 
L 129.802608 94.525223 
L 130.163177 95.143991 
L 130.523745 94.787988 
L 130.884313 95.584758 
L 131.244882 95.635615 
L 131.60545 95.805141 
L 131.966018 96.169621 
L 132.687155 95.720378 
L 133.047723 96.034 
L 133.408292 96.076382 
L 134.129428 96.551053 
L 134.489997 96.279812 
L 134.850565 96.779913 
L 135.211133 96.584958 
L 136.653407 96.491719 
L 137.374544 96.635816 
L 137.735112 96.601911 
L 138.09568 96.432385 
L 138.456249 96.686674 
L 138.816817 96.534101 
L 139.177385 96.907057 
L 139.537954 96.525624 
L 139.898522 96.729055 
L 140.980227 96.754484 
L 141.340795 96.347623 
L 141.701364 96.76296 
L 142.061932 96.500196 
L 142.783069 97.144393 
L 143.143637 96.584958 
L 143.504205 96.932486 
L 144.225342 96.83077 
L 144.58591 96.974867 
L 144.946479 96.907057 
L 145.667615 96.949438 
L 146.028184 97.296966 
L 146.388752 96.873152 
L 146.74932 97.144393 
L 147.109889 97.152869 
L 147.470457 96.957915 
L 147.831025 97.085059 
L 148.191594 96.907057 
L 148.552162 97.135916 
L 148.91273 97.034201 
L 149.273299 97.178298 
L 149.633867 97.49192 
L 151.07614 97.390205 
L 151.436709 97.068106 
L 151.797277 97.432586 
L 152.157845 97.593635 
L 152.878982 97.686874 
L 153.960687 97.839447 
L 155.402961 97.898781 
L 155.763529 98.144593 
L 156.124097 97.983544 
L 157.205802 98.161546 
L 157.926939 98.331071 
L 158.287507 98.280214 
L 158.648076 98.381929 
L 159.369212 98.271737 
L 159.729781 98.178498 
L 160.090349 98.500597 
L 160.811486 98.636217 
L 161.172054 98.559931 
L 161.532622 98.712504 
L 162.253759 98.65317 
L 162.614327 99.034602 
L 162.974896 98.78879 
L 163.696032 98.992221 
L 164.056601 98.932887 
L 164.417169 99.060031 
L 165.138306 99.08546 
L 166.941147 99.280414 
L 168.022852 99.288891 
L 168.383421 99.466893 
L 169.825694 99.31432 
L 170.186262 99.509274 
L 170.546831 99.432987 
L 172.349673 99.627942 
L 173.431378 99.644894 
L 174.513083 99.74661 
L 174.873651 99.619466 
L 175.594788 99.729657 
L 175.955356 99.670323 
L 176.676493 99.780515 
L 177.758198 99.738133 
L 179.200471 99.755086 
L 179.921608 99.856801 
L 180.282176 99.772039 
L 180.642744 99.907659 
L 181.363881 99.805944 
L 182.445586 99.856801 
L 192.5415 100.026327 
L 193.262636 99.958517 
L 193.983773 100.017851 
L 193.983773 100.017851 
" clip-path="url(#pd6903ad846)" style="fill: none; stroke: #d889ca; stroke-width: 1.5; stroke-linecap: square"/>
   </g>
   <g id="text_19">
    <!-- 22°C -->
    <g transform="translate(149.350632 8.72649) scale(0.08 -0.08)">
     <use xlink:href="#ArialMT-32"/>
     <use xlink:href="#ArialMT-32" x="55.615234"/>
     <use xlink:href="#ArialMT-b0" x="111.230469"/>
     <use xlink:href="#ArialMT-43" x="151.220703"/>
    </g>
   </g>
   <g id="line2d_30">
    <path d="M 122.591242 84.557459 
L 122.95181 84.34804 
L 123.672947 84.611276 
L 125.11522 85.568949 
L 129.802608 88.837082 
L 132.687155 90.559064 
L 135.571702 92.037567 
L 138.816817 93.439402 
L 142.061932 94.602549 
L 145.667615 95.660543 
L 149.633867 96.591073 
L 153.960687 97.384056 
L 159.008644 98.083025 
L 165.138306 98.690032 
L 172.349673 99.167947 
L 181.363881 99.534582 
L 193.623205 99.798268 
L 193.983773 99.803425 
L 193.983773 99.803425 
" clip-path="url(#pd6903ad846)" style="fill: none; stroke-dasharray: 5.55,2.4; stroke-dashoffset: 0; stroke: #d889ca; stroke-width: 1.5"/>
   </g>
  </g>
  <g id="axes_3">
   <g id="patch_8">
    <path d="M 207.891271 104.097104 
L 286.423056 104.097104 
L 286.423056 14.72649 
L 207.891271 14.72649 
L 207.891271 104.097104 
z
" style="fill: none"/>
   </g>
   <g id="line2d_31">
    <path d="M 218.455924 104.097104 
L 218.455924 14.72649 
" clip-path="url(#p26b06dbd3a)" style="fill: none; stroke-dasharray: 1.85,0.8; stroke-dashoffset: 0; stroke: #000000; stroke-width: 0.5"/>
   </g>
   <g id="line2d_32">
    <path d="M 211.460898 50.085908 
L 211.821466 53.364338 
L 212.182034 59.274493 
L 212.542603 61.654722 
L 212.903171 67.070868 
L 214.345445 81.046858 
L 215.066581 86.202525 
L 216.148286 91.03484 
L 216.508855 92.085734 
L 217.229991 98.049781 
L 217.59056 99.657559 
L 217.951128 99.998875 
L 219.393401 100.034803 
L 282.853429 100.034803 
L 282.853429 100.034803 
" clip-path="url(#p26b06dbd3a)" style="fill: none; stroke: #1a1513; stroke-width: 1.5; stroke-linecap: square"/>
   </g>
   <g id="matplotlib.axis_5">
    <g id="xtick_11">
     <g id="line2d_33">
      <g>
       <use xlink:href="#mccb4a3845c" x="211.280614" y="104.097104" style="stroke: #000000; stroke-width: 0.8"/>
      </g>
     </g>
     <g id="text_20">
      <!-- $\mathdefault{0}$ -->
      <g transform="translate(209.880614 114.67601) scale(0.05 -0.05)">
       <use xlink:href="#ArialMT-30" transform="translate(0 0.125)"/>
      </g>
     </g>
    </g>
    <g id="xtick_12">
     <g id="line2d_34">
      <g>
       <use xlink:href="#mccb4a3845c" x="229.218889" y="104.097104" style="stroke: #000000; stroke-width: 0.8"/>
      </g>
     </g>
     <g id="text_21">
      <!-- $\mathdefault{25}$ -->
      <g transform="translate(226.418889 114.67601) scale(0.05 -0.05)">
       <use xlink:href="#ArialMT-32" transform="translate(0 0.125)"/>
       <use xlink:href="#ArialMT-35" transform="translate(55.615234 0.125)"/>
      </g>
     </g>
    </g>
    <g id="xtick_13">
     <g id="line2d_35">
      <g>
       <use xlink:href="#mccb4a3845c" x="247.157164" y="104.097104" style="stroke: #000000; stroke-width: 0.8"/>
      </g>
     </g>
     <g id="text_22">
      <!-- $\mathdefault{50}$ -->
      <g transform="translate(244.357164 114.67601) scale(0.05 -0.05)">
       <use xlink:href="#ArialMT-35" transform="translate(0 0.125)"/>
       <use xlink:href="#ArialMT-30" transform="translate(55.615234 0.125)"/>
      </g>
     </g>
    </g>
    <g id="xtick_14">
     <g id="line2d_36">
      <g>
       <use xlink:href="#mccb4a3845c" x="265.095438" y="104.097104" style="stroke: #000000; stroke-width: 0.8"/>
      </g>
     </g>
     <g id="text_23">
      <!-- $\mathdefault{75}$ -->
      <g transform="translate(262.295438 114.67601) scale(0.05 -0.05)">
       <use xlink:href="#ArialMT-37" transform="translate(0 0.34375)"/>
       <use xlink:href="#ArialMT-35" transform="translate(55.615234 0.34375)"/>
      </g>
     </g>
    </g>
    <g id="xtick_15">
     <g id="line2d_37">
      <g>
       <use xlink:href="#mccb4a3845c" x="283.033713" y="104.097104" style="stroke: #000000; stroke-width: 0.8"/>
      </g>
     </g>
     <g id="text_24">
      <!-- $\mathdefault{100}$ -->
      <g transform="translate(278.858713 114.67601) scale(0.05 -0.05)">
       <use xlink:href="#ArialMT-31" transform="translate(0 0.125)"/>
       <use xlink:href="#ArialMT-30" transform="translate(55.615234 0.125)"/>
       <use xlink:href="#ArialMT-30" transform="translate(111.230469 0.125)"/>
      </g>
     </g>
    </g>
   </g>
   <g id="matplotlib.axis_6">
    <g id="ytick_11">
     <g id="line2d_38">
      <g>
       <use xlink:href="#m72270ed793" x="207.891271" y="100.034803" style="stroke: #000000; stroke-width: 0.8"/>
      </g>
     </g>
    </g>
    <g id="ytick_12">
     <g id="line2d_39">
      <g>
       <use xlink:href="#m72270ed793" x="207.891271" y="79.907904" style="stroke: #000000; stroke-width: 0.8"/>
      </g>
     </g>
    </g>
    <g id="ytick_13">
     <g id="line2d_40">
      <g>
       <use xlink:href="#m72270ed793" x="207.891271" y="59.781005" style="stroke: #000000; stroke-width: 0.8"/>
      </g>
     </g>
    </g>
    <g id="ytick_14">
     <g id="line2d_41">
      <g>
       <use xlink:href="#m72270ed793" x="207.891271" y="39.654106" style="stroke: #000000; stroke-width: 0.8"/>
      </g>
     </g>
    </g>
    <g id="ytick_15">
     <g id="line2d_42">
      <g>
       <use xlink:href="#m72270ed793" x="207.891271" y="19.527207" style="stroke: #000000; stroke-width: 0.8"/>
      </g>
     </g>
    </g>
   </g>
   <g id="line2d_43">
    <path d="M 211.460898 53.675471 
L 211.821466 54.645942 
L 212.182034 56.526363 
L 212.903171 62.515194 
L 215.42715 88.560227 
L 216.148286 93.273358 
L 216.869423 96.373878 
L 217.59056 98.213465 
L 218.311696 99.202199 
L 219.032833 99.685071 
L 219.75397 99.89982 
L 221.196243 100.019203 
L 227.686473 100.034803 
L 282.853429 100.034803 
L 282.853429 100.034803 
" clip-path="url(#p26b06dbd3a)" style="fill: none; stroke-dasharray: 5.55,2.4; stroke-dashoffset: 0; stroke: #1a1513; stroke-width: 1.5"/>
   </g>
   <g id="patch_9">
    <path d="M 207.891271 104.097104 
L 207.891271 14.72649 
" style="fill: none; stroke: #000000; stroke-width: 0.8; stroke-linejoin: miter; stroke-linecap: square"/>
   </g>
   <g id="patch_10">
    <path d="M 207.891271 104.097104 
L 286.423056 104.097104 
" style="fill: none; stroke: #000000; stroke-width: 0.8; stroke-linejoin: miter; stroke-linecap: square"/>
   </g>
   <g id="line2d_44">
    <path d="M 211.460898 100.034803 
L 216.148286 100.034803 
L 216.508855 99.918037 
L 217.229991 95.067758 
L 217.59056 94.052792 
L 218.311696 95.220452 
L 218.672265 95.022848 
L 219.032833 95.03183 
L 220.114538 95.956976 
L 220.475106 95.804282 
L 221.556811 96.163562 
L 221.91738 95.7953 
L 222.638516 96.181526 
L 223.359653 96.010868 
L 223.720221 96.145598 
L 224.08079 96.567752 
L 224.441358 96.370148 
L 224.801926 96.388112 
L 225.162495 96.06476 
L 225.523063 96.06476 
L 225.883631 96.594698 
L 226.2442 96.666554 
L 226.604768 96.540806 
L 226.965336 95.813264 
L 227.325905 96.370148 
L 227.686473 96.370148 
L 228.047041 96.028832 
L 228.40761 96.46895 
L 228.768178 96.082724 
L 229.128746 96.01985 
L 229.849883 96.370148 
L 230.931588 96.271346 
L 231.292157 95.894102 
L 231.652725 96.370148 
L 232.013293 96.136616 
L 232.373862 96.325238 
L 233.094998 95.696498 
L 233.455567 95.947994 
L 233.816135 96.406076 
L 234.537272 96.181526 
L 234.89784 95.579732 
L 235.258408 96.001886 
L 235.618977 95.858174 
L 236.340113 96.073742 
L 236.700682 96.046796 
L 237.06125 96.316256 
L 237.421818 95.983922 
L 237.782387 95.921048 
L 238.142955 96.217454 
L 238.503523 96.253382 
L 238.864092 96.046796 
L 239.585228 96.397094 
L 239.945797 96.720446 
L 240.306365 96.567752 
L 240.666933 96.639608 
L 241.027502 96.226436 
L 241.38807 96.6935 
L 241.748638 96.46895 
L 242.109207 95.921048 
L 242.469775 96.37913 
L 242.830343 96.621644 
L 243.190912 96.594698 
L 243.55148 96.298292 
L 243.912048 96.657572 
L 244.633185 96.73841 
L 245.354322 97.115654 
L 245.71489 96.82823 
L 246.075458 97.034816 
L 246.796595 97.09769 
L 247.517732 97.492897 
L 247.8783 96.989906 
L 248.238869 97.564753 
L 248.599437 97.268348 
L 248.960005 97.169546 
L 249.320574 97.645591 
L 250.04171 97.690501 
L 250.402279 97.600681 
L 250.762847 97.816249 
L 251.123415 97.762357 
L 252.926257 98.238403 
L 253.286825 98.427025 
L 253.647394 98.121637 
L 254.36853 98.427025 
L 254.729099 98.229421 
L 255.089667 98.391097 
L 255.450235 98.409061 
L 255.810804 98.624629 
L 256.53194 98.597683 
L 256.892509 98.786305 
L 259.416487 98.938999 
L 260.137624 99.172531 
L 260.498192 98.992891 
L 261.579897 99.145585 
L 262.661602 99.280315 
L 263.02217 99.109657 
L 263.743307 99.388099 
L 264.103875 99.262351 
L 264.825012 99.522829 
L 265.185581 99.397081 
L 265.546149 99.504865 
L 266.627854 99.433009 
L 266.988422 99.666541 
L 267.348991 99.477919 
L 268.430696 99.585703 
L 268.791264 99.549775 
L 269.151832 99.684505 
L 269.872969 99.621631 
L 270.954674 99.711451 
L 271.315242 99.639595 
L 272.396947 99.747379 
L 273.118084 99.639595 
L 273.839221 99.810253 
L 274.560357 99.747379 
L 275.281494 99.774325 
L 275.642062 99.738397 
L 276.002631 99.873127 
L 276.363199 99.783307 
L 277.084336 99.846181 
L 282.853429 99.927019 
L 282.853429 99.927019 
" clip-path="url(#p26b06dbd3a)" style="fill: none; stroke: #d889ca; stroke-width: 1.5; stroke-linecap: square"/>
   </g>
   <g id="text_25">
    <!-- 26°C -->
    <g transform="translate(238.220289 8.72649) scale(0.08 -0.08)">
     <defs>
      <path id="ArialMT-36" d="M 3184 3459 
L 2625 3416 
Q 2550 3747 2413 3897 
Q 2184 4138 1850 4138 
Q 1581 4138 1378 3988 
Q 1113 3794 959 3422 
Q 806 3050 800 2363 
Q 1003 2672 1297 2822 
Q 1591 2972 1913 2972 
Q 2475 2972 2870 2558 
Q 3266 2144 3266 1488 
Q 3266 1056 3080 686 
Q 2894 316 2569 119 
Q 2244 -78 1831 -78 
Q 1128 -78 684 439 
Q 241 956 241 2144 
Q 241 3472 731 4075 
Q 1159 4600 1884 4600 
Q 2425 4600 2770 4297 
Q 3116 3994 3184 3459 
z
M 888 1484 
Q 888 1194 1011 928 
Q 1134 663 1356 523 
Q 1578 384 1822 384 
Q 2178 384 2434 671 
Q 2691 959 2691 1453 
Q 2691 1928 2437 2201 
Q 2184 2475 1800 2475 
Q 1419 2475 1153 2201 
Q 888 1928 888 1484 
z
" transform="scale(0.015625)"/>
     </defs>
     <use xlink:href="#ArialMT-32"/>
     <use xlink:href="#ArialMT-36" x="55.615234"/>
     <use xlink:href="#ArialMT-b0" x="111.230469"/>
     <use xlink:href="#ArialMT-43" x="151.220703"/>
    </g>
   </g>
   <g id="line2d_45">
    <path d="M 211.460898 99.995924 
L 212.182034 99.587434 
L 213.26374 98.658819 
L 217.59056 94.598221 
L 219.393401 93.317582 
L 220.835675 92.531031 
L 222.277948 91.948952 
L 224.08079 91.483225 
L 225.883631 91.269508 
L 227.686473 91.26355 
L 229.849883 91.470823 
L 232.73443 92.004476 
L 236.700682 93.009066 
L 248.238869 96.081959 
L 253.286825 97.128145 
L 258.334782 97.945485 
L 263.743307 98.597015 
L 269.872969 99.112125 
L 277.444904 99.513705 
L 282.853429 99.692751 
L 282.853429 99.692751 
" clip-path="url(#p26b06dbd3a)" style="fill: none; stroke-dasharray: 5.55,2.4; stroke-dashoffset: 0; stroke: #d889ca; stroke-width: 1.5"/>
   </g>
  </g>
  <g id="axes_4">
   <g id="patch_11">
    <path d="M 296.760927 104.097104 
L 375.292712 104.097104 
L 375.292712 14.72649 
L 296.760927 14.72649 
L 296.760927 104.097104 
z
" style="fill: none"/>
   </g>
   <g id="line2d_46">
    <path d="M 307.32558 104.097104 
L 307.32558 14.72649 
" clip-path="url(#p55e873de53)" style="fill: none; stroke-dasharray: 1.85,0.8; stroke-dashoffset: 0; stroke: #000000; stroke-width: 0.5"/>
   </g>
   <g id="line2d_47">
    <path d="M 300.330554 61.180968 
L 303.575669 85.060325 
L 303.936237 86.488466 
L 304.296806 88.903704 
L 305.017942 91.098421 
L 305.739079 93.125121 
L 306.099648 93.818189 
L 306.460216 94.049212 
L 307.181353 99.058207 
L 307.541921 99.919292 
L 308.263058 100.034803 
L 371.723085 100.034803 
L 371.723085 100.034803 
" clip-path="url(#p55e873de53)" style="fill: none; stroke: #1a1513; stroke-width: 1.5; stroke-linecap: square"/>
   </g>
   <g id="matplotlib.axis_7">
    <g id="xtick_16">
     <g id="line2d_48">
      <g>
       <use xlink:href="#mccb4a3845c" x="300.15027" y="104.097104" style="stroke: #000000; stroke-width: 0.8"/>
      </g>
     </g>
     <g id="text_26">
      <!-- $\mathdefault{0}$ -->
      <g transform="translate(298.75027 114.67601) scale(0.05 -0.05)">
       <use xlink:href="#ArialMT-30" transform="translate(0 0.125)"/>
      </g>
     </g>
    </g>
    <g id="xtick_17">
     <g id="line2d_49">
      <g>
       <use xlink:href="#mccb4a3845c" x="318.088545" y="104.097104" style="stroke: #000000; stroke-width: 0.8"/>
      </g>
     </g>
     <g id="text_27">
      <!-- $\mathdefault{25}$ -->
      <g transform="translate(315.288545 114.67601) scale(0.05 -0.05)">
       <use xlink:href="#ArialMT-32" transform="translate(0 0.125)"/>
       <use xlink:href="#ArialMT-35" transform="translate(55.615234 0.125)"/>
      </g>
     </g>
    </g>
    <g id="xtick_18">
     <g id="line2d_50">
      <g>
       <use xlink:href="#mccb4a3845c" x="336.02682" y="104.097104" style="stroke: #000000; stroke-width: 0.8"/>
      </g>
     </g>
     <g id="text_28">
      <!-- $\mathdefault{50}$ -->
      <g transform="translate(333.22682 114.67601) scale(0.05 -0.05)">
       <use xlink:href="#ArialMT-35" transform="translate(0 0.125)"/>
       <use xlink:href="#ArialMT-30" transform="translate(55.615234 0.125)"/>
      </g>
     </g>
    </g>
    <g id="xtick_19">
     <g id="line2d_51">
      <g>
       <use xlink:href="#mccb4a3845c" x="353.965095" y="104.097104" style="stroke: #000000; stroke-width: 0.8"/>
      </g>
     </g>
     <g id="text_29">
      <!-- $\mathdefault{75}$ -->
      <g transform="translate(351.165095 114.67601) scale(0.05 -0.05)">
       <use xlink:href="#ArialMT-37" transform="translate(0 0.34375)"/>
       <use xlink:href="#ArialMT-35" transform="translate(55.615234 0.34375)"/>
      </g>
     </g>
    </g>
    <g id="xtick_20">
     <g id="line2d_52">
      <g>
       <use xlink:href="#mccb4a3845c" x="371.90337" y="104.097104" style="stroke: #000000; stroke-width: 0.8"/>
      </g>
     </g>
     <g id="text_30">
      <!-- $\mathdefault{100}$ -->
      <g transform="translate(367.72837 114.67601) scale(0.05 -0.05)">
       <use xlink:href="#ArialMT-31" transform="translate(0 0.125)"/>
       <use xlink:href="#ArialMT-30" transform="translate(55.615234 0.125)"/>
       <use xlink:href="#ArialMT-30" transform="translate(111.230469 0.125)"/>
      </g>
     </g>
    </g>
   </g>
   <g id="matplotlib.axis_8">
    <g id="ytick_16">
     <g id="line2d_53">
      <g>
       <use xlink:href="#m72270ed793" x="296.760927" y="100.034803" style="stroke: #000000; stroke-width: 0.8"/>
      </g>
     </g>
    </g>
    <g id="ytick_17">
     <g id="line2d_54">
      <g>
       <use xlink:href="#m72270ed793" x="296.760927" y="79.907904" style="stroke: #000000; stroke-width: 0.8"/>
      </g>
     </g>
    </g>
    <g id="ytick_18">
     <g id="line2d_55">
      <g>
       <use xlink:href="#m72270ed793" x="296.760927" y="59.781005" style="stroke: #000000; stroke-width: 0.8"/>
      </g>
     </g>
    </g>
    <g id="ytick_19">
     <g id="line2d_56">
      <g>
       <use xlink:href="#m72270ed793" x="296.760927" y="39.654106" style="stroke: #000000; stroke-width: 0.8"/>
      </g>
     </g>
    </g>
    <g id="ytick_20">
     <g id="line2d_57">
      <g>
       <use xlink:href="#m72270ed793" x="296.760927" y="19.527207" style="stroke: #000000; stroke-width: 0.8"/>
      </g>
     </g>
    </g>
   </g>
   <g id="line2d_58">
    <path d="M 300.330554 60.452613 
L 300.691122 61.057524 
L 301.051691 62.239755 
L 301.772827 66.102231 
L 302.854532 74.317389 
L 304.296806 85.710558 
L 305.017942 90.287956 
L 305.739079 93.798843 
L 306.460216 96.283439 
L 307.181353 97.912917 
L 307.902489 98.906303 
L 308.623626 99.47048 
L 309.344763 99.769464 
L 310.426468 99.958587 
L 312.589878 100.030654 
L 336.387388 100.034803 
L 371.723085 100.034803 
L 371.723085 100.034803 
" clip-path="url(#p55e873de53)" style="fill: none; stroke-dasharray: 5.55,2.4; stroke-dashoffset: 0; stroke: #1a1513; stroke-width: 1.5"/>
   </g>
   <g id="patch_12">
    <path d="M 296.760927 104.097104 
L 296.760927 14.72649 
" style="fill: none; stroke: #000000; stroke-width: 0.8; stroke-linejoin: miter; stroke-linecap: square"/>
   </g>
   <g id="patch_13">
    <path d="M 296.760927 104.097104 
L 375.292712 104.097104 
" style="fill: none; stroke: #000000; stroke-width: 0.8; stroke-linejoin: miter; stroke-linecap: square"/>
   </g>
   <g id="line2d_59">
    <path d="M 300.330554 100.034803 
L 306.460216 100.034803 
L 307.181353 95.582364 
L 307.541921 95.382844 
L 307.902489 95.393345 
L 308.623626 95.802885 
L 308.984194 95.634869 
L 309.344763 96.233428 
L 309.705331 96.222927 
L 310.065899 96.096914 
L 311.508173 96.55896 
L 311.868741 95.603366 
L 312.229309 96.275432 
L 313.671583 96.338438 
L 314.392719 96.033908 
L 314.753288 96.275432 
L 315.474424 95.991904 
L 316.195561 96.411945 
L 316.556129 96.264931 
L 317.637834 96.275432 
L 317.998403 96.180923 
L 318.358971 95.918397 
L 318.719539 95.991904 
L 319.080108 96.296434 
L 319.440676 96.348939 
L 319.801244 96.138919 
L 320.161813 96.212426 
L 321.604086 96.023407 
L 322.685791 96.170422 
L 323.04636 96.044409 
L 323.406928 96.422447 
L 324.128065 95.792384 
L 324.488633 96.275432 
L 324.849201 95.855391 
L 325.20977 96.065411 
L 325.570338 95.802885 
L 325.930906 96.201925 
L 326.291475 96.002405 
L 327.012611 96.107415 
L 327.37318 95.771382 
L 327.733748 95.729378 
L 328.094316 95.456351 
L 328.454885 95.855391 
L 328.815453 95.760881 
L 329.176021 95.981403 
L 329.53659 95.687374 
L 330.257726 96.443449 
L 331.339431 95.802885 
L 331.7 96.107415 
L 332.060568 95.739879 
L 332.421136 96.128418 
L 332.781705 96.159921 
L 333.142273 96.411945 
L 333.502841 96.222927 
L 333.86341 96.212426 
L 334.223978 96.317436 
L 334.584546 96.25443 
L 334.945115 96.569461 
L 335.305683 96.401444 
L 335.666251 96.401444 
L 336.387388 96.569461 
L 336.747956 96.369941 
L 337.108525 96.705975 
L 337.469093 96.527457 
L 337.829661 96.768981 
L 338.19023 96.66397 
L 338.911366 96.873991 
L 339.271935 97.000004 
L 339.632503 96.9685 
L 339.993071 97.199523 
L 340.35364 97.031507 
L 340.714208 97.525055 
L 341.074777 97.021006 
L 341.795913 97.073511 
L 342.51705 97.525055 
L 343.238187 97.640567 
L 343.598755 97.462049 
L 343.959323 97.514554 
L 344.319892 98.008103 
L 344.68046 97.682571 
L 345.041028 97.87159 
L 345.401597 97.808583 
L 345.762165 98.071109 
L 346.84387 97.745577 
L 347.204438 98.071109 
L 347.565007 98.218124 
L 347.925575 98.17612 
L 348.286143 98.28113 
L 349.00728 98.344136 
L 349.367848 98.365138 
L 349.728417 98.711673 
L 350.810122 98.270629 
L 351.17069 98.543656 
L 351.531258 98.596161 
L 351.891827 98.827184 
L 352.252395 98.659167 
L 352.973532 98.848186 
L 353.694668 98.848186 
L 354.415805 99.016203 
L 354.776373 98.9952 
L 355.49751 99.247225 
L 355.858078 99.068708 
L 358.742625 99.236724 
L 359.103194 99.457246 
L 359.463762 99.215722 
L 360.184899 99.509751 
L 360.545467 99.331234 
L 363.790582 99.604261 
L 364.15115 99.572758 
L 364.511719 99.688269 
L 365.953992 99.614762 
L 366.675129 99.709271 
L 367.035697 99.751275 
L 367.396265 99.656766 
L 368.47797 99.772277 
L 368.838539 99.541254 
L 369.559675 99.793279 
L 369.920244 99.667267 
L 371.362517 99.793279 
L 371.723085 99.782778 
L 371.723085 99.782778 
" clip-path="url(#p55e873de53)" style="fill: none; stroke: #d889ca; stroke-width: 1.5; stroke-linecap: square"/>
   </g>
   <g id="text_31">
    <!-- 30°C -->
    <g transform="translate(327.089945 8.72649) scale(0.08 -0.08)">
     <defs>
      <path id="ArialMT-33" d="M 269 1209 
L 831 1284 
Q 928 806 1161 595 
Q 1394 384 1728 384 
Q 2125 384 2398 659 
Q 2672 934 2672 1341 
Q 2672 1728 2419 1979 
Q 2166 2231 1775 2231 
Q 1616 2231 1378 2169 
L 1441 2663 
Q 1497 2656 1531 2656 
Q 1891 2656 2178 2843 
Q 2466 3031 2466 3422 
Q 2466 3731 2256 3934 
Q 2047 4138 1716 4138 
Q 1388 4138 1169 3931 
Q 950 3725 888 3313 
L 325 3413 
Q 428 3978 793 4289 
Q 1159 4600 1703 4600 
Q 2078 4600 2393 4439 
Q 2709 4278 2876 4000 
Q 3044 3722 3044 3409 
Q 3044 3113 2884 2869 
Q 2725 2625 2413 2481 
Q 2819 2388 3044 2092 
Q 3269 1797 3269 1353 
Q 3269 753 2831 336 
Q 2394 -81 1725 -81 
Q 1122 -81 723 278 
Q 325 638 269 1209 
z
" transform="scale(0.015625)"/>
     </defs>
     <use xlink:href="#ArialMT-33"/>
     <use xlink:href="#ArialMT-30" x="55.615234"/>
     <use xlink:href="#ArialMT-b0" x="111.230469"/>
     <use xlink:href="#ArialMT-43" x="151.220703"/>
    </g>
   </g>
   <g id="line2d_60">
    <path d="M 300.330554 100.029837 
L 301.412259 99.818935 
L 302.493964 99.369894 
L 304.296806 98.307072 
L 310.426468 94.370942 
L 312.589878 93.380374 
L 314.392719 92.777751 
L 316.556129 92.312502 
L 318.719539 92.100029 
L 320.882949 92.100995 
L 323.406928 92.315842 
L 326.652043 92.833209 
L 331.339431 93.846933 
L 343.238187 96.518355 
L 349.00728 97.521666 
L 354.776373 98.288327 
L 360.906035 98.877023 
L 368.117402 99.339205 
L 371.723085 99.500336 
L 371.723085 99.500336 
" clip-path="url(#p55e873de53)" style="fill: none; stroke-dasharray: 5.55,2.4; stroke-dashoffset: 0; stroke: #d889ca; stroke-width: 1.5"/>
   </g>
  </g>
  <g id="axes_5">
   <g id="patch_14">
    <path d="M 385.630584 104.097104 
L 464.162368 104.097104 
L 464.162368 14.72649 
L 385.630584 14.72649 
L 385.630584 104.097104 
z
" style="fill: none"/>
   </g>
   <g id="line2d_61">
    <path d="M 396.195236 104.097104 
L 396.195236 14.72649 
" clip-path="url(#p5bfdd2cff5)" style="fill: none; stroke-dasharray: 1.85,0.8; stroke-dashoffset: 0; stroke: #000000; stroke-width: 0.5"/>
   </g>
   <g id="line2d_62">
    <path d="M 389.20021 73.668987 
L 389.560779 76.910136 
L 389.921347 77.346767 
L 390.281915 79.345195 
L 391.003052 81.595526 
L 391.724189 85.273305 
L 392.445325 86.885482 
L 393.166462 89.538857 
L 393.52703 90.143424 
L 393.887599 90.9831 
L 394.248167 92.444135 
L 394.608735 92.998321 
L 394.969304 93.115876 
L 395.329872 93.586094 
L 395.69044 94.442563 
L 396.051009 94.157074 
L 396.411577 94.845608 
L 396.772145 95.215065 
L 397.132714 96.558546 
L 397.493282 99.295889 
L 397.85385 100.001216 
L 399.296124 100.034803 
L 460.592742 100.034803 
L 460.592742 100.034803 
" clip-path="url(#p5bfdd2cff5)" style="fill: none; stroke: #1a1513; stroke-width: 1.5; stroke-linecap: square"/>
   </g>
   <g id="matplotlib.axis_9">
    <g id="xtick_21">
     <g id="line2d_63">
      <g>
       <use xlink:href="#mccb4a3845c" x="389.019926" y="104.097104" style="stroke: #000000; stroke-width: 0.8"/>
      </g>
     </g>
     <g id="text_32">
      <!-- $\mathdefault{0}$ -->
      <g transform="translate(387.619926 114.67601) scale(0.05 -0.05)">
       <use xlink:href="#ArialMT-30" transform="translate(0 0.125)"/>
      </g>
     </g>
    </g>
    <g id="xtick_22">
     <g id="line2d_64">
      <g>
       <use xlink:href="#mccb4a3845c" x="406.958201" y="104.097104" style="stroke: #000000; stroke-width: 0.8"/>
      </g>
     </g>
     <g id="text_33">
      <!-- $\mathdefault{25}$ -->
      <g transform="translate(404.158201 114.67601) scale(0.05 -0.05)">
       <use xlink:href="#ArialMT-32" transform="translate(0 0.125)"/>
       <use xlink:href="#ArialMT-35" transform="translate(55.615234 0.125)"/>
      </g>
     </g>
    </g>
    <g id="xtick_23">
     <g id="line2d_65">
      <g>
       <use xlink:href="#mccb4a3845c" x="424.896476" y="104.097104" style="stroke: #000000; stroke-width: 0.8"/>
      </g>
     </g>
     <g id="text_34">
      <!-- $\mathdefault{50}$ -->
      <g transform="translate(422.096476 114.67601) scale(0.05 -0.05)">
       <use xlink:href="#ArialMT-35" transform="translate(0 0.125)"/>
       <use xlink:href="#ArialMT-30" transform="translate(55.615234 0.125)"/>
      </g>
     </g>
    </g>
    <g id="xtick_24">
     <g id="line2d_66">
      <g>
       <use xlink:href="#mccb4a3845c" x="442.834751" y="104.097104" style="stroke: #000000; stroke-width: 0.8"/>
      </g>
     </g>
     <g id="text_35">
      <!-- $\mathdefault{75}$ -->
      <g transform="translate(440.034751 114.67601) scale(0.05 -0.05)">
       <use xlink:href="#ArialMT-37" transform="translate(0 0.34375)"/>
       <use xlink:href="#ArialMT-35" transform="translate(55.615234 0.34375)"/>
      </g>
     </g>
    </g>
    <g id="xtick_25">
     <g id="line2d_67">
      <g>
       <use xlink:href="#mccb4a3845c" x="460.773026" y="104.097104" style="stroke: #000000; stroke-width: 0.8"/>
      </g>
     </g>
     <g id="text_36">
      <!-- $\mathdefault{100}$ -->
      <g transform="translate(456.598026 114.67601) scale(0.05 -0.05)">
       <use xlink:href="#ArialMT-31" transform="translate(0 0.125)"/>
       <use xlink:href="#ArialMT-30" transform="translate(55.615234 0.125)"/>
       <use xlink:href="#ArialMT-30" transform="translate(111.230469 0.125)"/>
      </g>
     </g>
    </g>
   </g>
   <g id="matplotlib.axis_10">
    <g id="ytick_21">
     <g id="line2d_68">
      <g>
       <use xlink:href="#m72270ed793" x="385.630584" y="100.034803" style="stroke: #000000; stroke-width: 0.8"/>
      </g>
     </g>
    </g>
    <g id="ytick_22">
     <g id="line2d_69">
      <g>
       <use xlink:href="#m72270ed793" x="385.630584" y="79.907904" style="stroke: #000000; stroke-width: 0.8"/>
      </g>
     </g>
    </g>
    <g id="ytick_23">
     <g id="line2d_70">
      <g>
       <use xlink:href="#m72270ed793" x="385.630584" y="59.781005" style="stroke: #000000; stroke-width: 0.8"/>
      </g>
     </g>
    </g>
    <g id="ytick_24">
     <g id="line2d_71">
      <g>
       <use xlink:href="#m72270ed793" x="385.630584" y="39.654106" style="stroke: #000000; stroke-width: 0.8"/>
      </g>
     </g>
    </g>
    <g id="ytick_25">
     <g id="line2d_72">
      <g>
       <use xlink:href="#m72270ed793" x="385.630584" y="19.527207" style="stroke: #000000; stroke-width: 0.8"/>
      </g>
     </g>
    </g>
   </g>
   <g id="line2d_73">
    <path d="M 389.20021 69.674036 
L 389.560779 69.947448 
L 389.921347 70.486908 
L 390.642484 72.299976 
L 391.36362 74.926958 
L 392.805894 81.574761 
L 394.608735 89.781463 
L 395.69044 93.570819 
L 396.411577 95.492461 
L 397.132714 96.956265 
L 397.85385 98.022496 
L 398.574987 98.76619 
L 399.296124 99.263457 
L 400.377829 99.693088 
L 401.820102 99.933128 
L 404.344081 100.0262 
L 419.848519 100.034803 
L 460.592742 100.034803 
L 460.592742 100.034803 
" clip-path="url(#p5bfdd2cff5)" style="fill: none; stroke-dasharray: 5.55,2.4; stroke-dashoffset: 0; stroke: #1a1513; stroke-width: 1.5"/>
   </g>
   <g id="patch_15">
    <path d="M 385.630584 104.097104 
L 385.630584 14.72649 
" style="fill: none; stroke: #000000; stroke-width: 0.8; stroke-linejoin: miter; stroke-linecap: square"/>
   </g>
   <g id="patch_16">
    <path d="M 385.630584 104.097104 
L 464.162368 104.097104 
" style="fill: none; stroke: #000000; stroke-width: 0.8; stroke-linejoin: miter; stroke-linecap: square"/>
   </g>
   <g id="line2d_74">
    <path d="M 389.20021 100.034803 
L 396.772145 100.034803 
L 397.132714 98.892844 
L 397.493282 96.138708 
L 397.85385 95.634903 
L 398.214419 95.433381 
L 398.574987 96.34023 
L 398.935556 96.021153 
L 399.296124 96.239469 
L 399.656692 96.071534 
L 400.017261 96.306643 
L 400.377829 96.021153 
L 401.098966 96.491372 
L 401.459534 96.105121 
L 401.820102 96.205882 
L 402.180671 96.021153 
L 402.541239 96.222676 
L 403.262376 96.088328 
L 403.622944 96.34023 
L 403.983512 96.357024 
L 404.344081 95.970773 
L 404.704649 96.138708 
L 405.065217 96.105121 
L 405.425786 95.517348 
L 405.786354 95.886805 
L 406.146922 95.920392 
L 406.507491 96.256263 
L 406.868059 95.332619 
L 407.228627 95.786044 
L 407.589196 96.054741 
L 408.310332 96.256263 
L 408.670901 95.735664 
L 409.031469 95.634903 
L 409.392037 96.054741 
L 410.473742 95.735664 
L 411.194879 95.802838 
L 411.555447 95.802838 
L 411.916016 95.584522 
L 412.276584 95.651696 
L 412.997721 95.383 
L 413.358289 95.853218 
L 413.718857 95.332619 
L 414.079426 95.66849 
L 414.439994 95.802838 
L 415.161131 95.500555 
L 415.882267 95.953979 
L 416.242836 95.114304 
L 416.603404 95.315826 
L 416.963973 95.752457 
L 417.324541 95.248652 
L 417.685109 95.517348 
L 418.045678 95.131097 
L 418.406246 95.399793 
L 418.766814 95.147891 
L 419.127383 95.534142 
L 419.487951 95.332619 
L 419.848519 95.702077 
L 420.209088 95.09751 
L 420.930224 95.248652 
L 421.290793 95.04713 
L 421.651361 95.466968 
L 422.372498 94.996749 
L 422.733066 95.702077 
L 423.093634 95.685283 
L 423.454203 95.282239 
L 424.535908 95.66849 
L 424.896476 95.601316 
L 425.617613 95.953979 
L 426.338749 95.651696 
L 426.699318 96.189089 
L 427.059886 95.870012 
L 427.420454 95.71887 
L 427.781023 95.735664 
L 428.141591 95.601316 
L 428.862728 96.524959 
L 429.223296 96.357024 
L 429.583864 96.62572 
L 430.665569 96.256263 
L 431.026138 96.6761 
L 431.386706 96.373817 
L 431.747274 96.6761 
L 432.468411 96.827242 
L 432.828979 97.045558 
L 433.189548 97.112732 
L 433.550116 96.944797 
L 433.910685 97.045558 
L 434.271253 97.29746 
L 434.631821 97.045558 
L 434.99239 97.616537 
L 435.352958 97.58295 
L 435.713526 97.230286 
L 436.434663 97.482189 
L 436.795231 97.53257 
L 437.1558 97.700505 
L 437.516368 97.280667 
L 437.876936 98.053169 
L 438.237505 97.750885 
L 438.598073 98.187517 
L 438.958641 97.91882 
L 439.31921 97.91882 
L 439.679778 98.053169 
L 440.040346 97.885233 
L 441.122051 98.221104 
L 441.48262 97.969201 
L 441.843188 98.456213 
L 442.203756 98.523387 
L 442.564325 98.305071 
L 442.924893 98.607355 
L 443.285461 98.456213 
L 443.64603 98.573767 
L 444.006598 98.82567 
L 444.367166 98.876051 
L 444.727735 98.556974 
L 445.088303 98.876051 
L 445.448871 98.624148 
L 445.80944 98.926431 
L 446.170008 98.859257 
L 446.530576 98.926431 
L 446.891145 99.178334 
L 447.251713 99.027192 
L 447.612281 99.11116 
L 447.97285 98.943225 
L 448.693986 99.245508 
L 449.415123 99.228714 
L 449.775691 98.976812 
L 450.13626 99.312682 
L 450.496828 98.960018 
L 450.857396 99.295889 
L 451.217965 99.060779 
L 451.578533 99.329476 
L 451.939102 99.245508 
L 453.020807 99.312682 
L 453.381375 99.564585 
L 453.741943 99.346269 
L 454.823648 99.598172 
L 455.544785 99.39665 
L 455.905353 99.564585 
L 456.265922 99.564585 
L 456.62649 99.413443 
L 456.987058 99.665346 
L 457.347627 99.413443 
L 458.068763 99.598172 
L 458.429332 99.682139 
L 458.7899 99.530998 
L 459.150468 99.749313 
L 459.511037 99.581378 
L 460.592742 99.698933 
L 460.592742 99.698933 
" clip-path="url(#p5bfdd2cff5)" style="fill: none; stroke: #d889ca; stroke-width: 1.5; stroke-linecap: square"/>
   </g>
   <g id="text_37">
    <!-- 33°C -->
    <g transform="translate(415.959601 8.72649) scale(0.08 -0.08)">
     <use xlink:href="#ArialMT-33"/>
     <use xlink:href="#ArialMT-33" x="55.615234"/>
     <use xlink:href="#ArialMT-b0" x="111.230469"/>
     <use xlink:href="#ArialMT-43" x="151.220703"/>
    </g>
   </g>
   <g id="line2d_75">
    <path d="M 389.20021 100.034264 
L 390.642484 99.930522 
L 392.084757 99.605373 
L 393.887599 98.924593 
L 396.411577 97.653929 
L 401.820102 94.831967 
L 404.344081 93.826025 
L 406.507491 93.195132 
L 408.670901 92.781236 
L 410.834311 92.570107 
L 413.358289 92.547765 
L 416.242836 92.761252 
L 419.848519 93.28462 
L 424.896476 94.282702 
L 437.1558 96.787765 
L 442.924893 97.702879 
L 449.054555 98.444438 
L 455.544785 99.003664 
L 460.592742 99.310735 
L 460.592742 99.310735 
" clip-path="url(#p5bfdd2cff5)" style="fill: none; stroke-dasharray: 5.55,2.4; stroke-dashoffset: 0; stroke: #d889ca; stroke-width: 1.5"/>
   </g>
  </g>
 </g>
 <defs>
  <clipPath id="p8a139af2f8">
   <rect x="30.151959" y="14.72649" width="78.531785" height="89.370614"/>
  </clipPath>
  <clipPath id="pd6903ad846">
   <rect x="119.021615" y="14.72649" width="78.531785" height="89.370614"/>
  </clipPath>
  <clipPath id="p26b06dbd3a">
   <rect x="207.891271" y="14.72649" width="78.531785" height="89.370614"/>
  </clipPath>
  <clipPath id="p55e873de53">
   <rect x="296.760927" y="14.72649" width="78.531785" height="89.370614"/>
  </clipPath>
  <clipPath id="p5bfdd2cff5">
   <rect x="385.630584" y="14.72649" width="78.531785" height="89.370614"/>
  </clipPath>
 </defs>
</svg>
