<?xml version="1.0" encoding="utf-8" standalone="no"?>
<!DOCTYPE svg PUBLIC "-//W3C//DTD SVG 1.1//EN"
  "http://www.w3.org/Graphics/SVG/1.1/DTD/svg11.dtd">
<svg xmlns:xlink="http://www.w3.org/1999/xlink" width="288pt" height="144pt" viewBox="0 0 288 144" xmlns="http://www.w3.org/2000/svg" version="1.1">
 <metadata>
  <rdf:RDF xmlns:dc="http://purl.org/dc/elements/1.1/" xmlns:cc="http://creativecommons.org/ns#" xmlns:rdf="http://www.w3.org/1999/02/22-rdf-syntax-ns#">
   <cc:Work>
    <dc:type rdf:resource="http://purl.org/dc/dcmitype/StillImage"/>
    <dc:date>2024-07-02T17:55:14.927568</dc:date>
    <dc:format>image/svg+xml</dc:format>
    <dc:creator>
     <cc:Agent>
      <dc:title>Matplotlib v3.8.0, https://matplotlib.org/</dc:title>
     </cc:Agent>
    </dc:creator>
   </cc:Work>
  </rdf:RDF>
 </metadata>
 <defs>
  <style type="text/css">*{stroke-linejoin: round; stroke-linecap: butt}</style>
 </defs>
 <g id="figure_1">
  <g id="patch_1">
   <path d="M 0 144 
L 288 144 
L 288 0 
L 0 0 
L 0 144 
z
" style="fill: none"/>
  </g>
  <g id="axes_1">
   <g id="patch_2">
    <path d="M 27.401959 119.025385 
L 141.69976 119.025385 
L 141.69976 3.00024 
L 27.401959 3.00024 
L 27.401959 119.025385 
z
" style="fill: none"/>
   </g>
   <g id="matplotlib.axis_1">
    <g id="xtick_1">
     <g id="line2d_1">
      <defs>
       <path id="ma04908d283" d="M 0 0 
L 0 3.5 
" style="stroke: #000000; stroke-width: 0.8"/>
      </defs>
      <g>
       <use xlink:href="#ma04908d283" x="32.560502" y="119.025385" style="stroke: #000000; stroke-width: 0.8"/>
      </g>
     </g>
     <g id="text_1">
      <!-- $\mathdefault{2.5}$ -->
      <g transform="translate(29.060502 129.604291) scale(0.05 -0.05)">
       <defs>
        <path id="ArialMT-32" d="M 3222 541 
L 3222 0 
L 194 0 
Q 188 203 259 391 
Q 375 700 629 1000 
Q 884 1300 1366 1694 
Q 2113 2306 2375 2664 
Q 2638 3022 2638 3341 
Q 2638 3675 2398 3904 
Q 2159 4134 1775 4134 
Q 1369 4134 1125 3890 
Q 881 3647 878 3216 
L 300 3275 
Q 359 3922 746 4261 
Q 1134 4600 1788 4600 
Q 2447 4600 2831 4234 
Q 3216 3869 3216 3328 
Q 3216 3053 3103 2787 
Q 2991 2522 2730 2228 
Q 2469 1934 1863 1422 
Q 1356 997 1212 845 
Q 1069 694 975 541 
L 3222 541 
z
" transform="scale(0.015625)"/>
        <path id="ArialMT-2e" d="M 581 0 
L 581 641 
L 1222 641 
L 1222 0 
L 581 0 
z
" transform="scale(0.015625)"/>
        <path id="ArialMT-35" d="M 266 1200 
L 856 1250 
Q 922 819 1161 601 
Q 1400 384 1738 384 
Q 2144 384 2425 690 
Q 2706 997 2706 1503 
Q 2706 1984 2436 2262 
Q 2166 2541 1728 2541 
Q 1456 2541 1237 2417 
Q 1019 2294 894 2097 
L 366 2166 
L 809 4519 
L 3088 4519 
L 3088 3981 
L 1259 3981 
L 1013 2750 
Q 1425 3038 1878 3038 
Q 2478 3038 2890 2622 
Q 3303 2206 3303 1553 
Q 3303 931 2941 478 
Q 2500 -78 1738 -78 
Q 1113 -78 717 272 
Q 322 622 266 1200 
z
" transform="scale(0.015625)"/>
       </defs>
       <use xlink:href="#ArialMT-32" transform="translate(0 0.125)"/>
       <use xlink:href="#ArialMT-2e" transform="translate(55.615234 0.125)"/>
       <use xlink:href="#ArialMT-35" transform="translate(83.398438 0.125)"/>
      </g>
     </g>
    </g>
    <g id="xtick_2">
     <g id="line2d_2">
      <g>
       <use xlink:href="#ma04908d283" x="49.786207" y="119.025385" style="stroke: #000000; stroke-width: 0.8"/>
      </g>
     </g>
     <g id="text_2">
      <!-- $\mathdefault{3.0}$ -->
      <g transform="translate(46.286207 129.604291) scale(0.05 -0.05)">
       <defs>
        <path id="ArialMT-33" d="M 269 1209 
L 831 1284 
Q 928 806 1161 595 
Q 1394 384 1728 384 
Q 2125 384 2398 659 
Q 2672 934 2672 1341 
Q 2672 1728 2419 1979 
Q 2166 2231 1775 2231 
Q 1616 2231 1378 2169 
L 1441 2663 
Q 1497 2656 1531 2656 
Q 1891 2656 2178 2843 
Q 2466 3031 2466 3422 
Q 2466 3731 2256 3934 
Q 2047 4138 1716 4138 
Q 1388 4138 1169 3931 
Q 950 3725 888 3313 
L 325 3413 
Q 428 3978 793 4289 
Q 1159 4600 1703 4600 
Q 2078 4600 2393 4439 
Q 2709 4278 2876 4000 
Q 3044 3722 3044 3409 
Q 3044 3113 2884 2869 
Q 2725 2625 2413 2481 
Q 2819 2388 3044 2092 
Q 3269 1797 3269 1353 
Q 3269 753 2831 336 
Q 2394 -81 1725 -81 
Q 1122 -81 723 278 
Q 325 638 269 1209 
z
" transform="scale(0.015625)"/>
        <path id="ArialMT-30" d="M 266 2259 
Q 266 3072 433 3567 
Q 600 4063 929 4331 
Q 1259 4600 1759 4600 
Q 2128 4600 2406 4451 
Q 2684 4303 2865 4023 
Q 3047 3744 3150 3342 
Q 3253 2941 3253 2259 
Q 3253 1453 3087 958 
Q 2922 463 2592 192 
Q 2263 -78 1759 -78 
Q 1097 -78 719 397 
Q 266 969 266 2259 
z
M 844 2259 
Q 844 1131 1108 757 
Q 1372 384 1759 384 
Q 2147 384 2411 759 
Q 2675 1134 2675 2259 
Q 2675 3391 2411 3762 
Q 2147 4134 1753 4134 
Q 1366 4134 1134 3806 
Q 844 3388 844 2259 
z
" transform="scale(0.015625)"/>
       </defs>
       <use xlink:href="#ArialMT-33" transform="translate(0 0.125)"/>
       <use xlink:href="#ArialMT-2e" transform="translate(55.615234 0.125)"/>
       <use xlink:href="#ArialMT-30" transform="translate(83.398438 0.125)"/>
      </g>
     </g>
    </g>
    <g id="xtick_3">
     <g id="line2d_3">
      <g>
       <use xlink:href="#ma04908d283" x="67.011911" y="119.025385" style="stroke: #000000; stroke-width: 0.8"/>
      </g>
     </g>
     <g id="text_3">
      <!-- $\mathdefault{3.5}$ -->
      <g transform="translate(63.511911 129.604291) scale(0.05 -0.05)">
       <use xlink:href="#ArialMT-33" transform="translate(0 0.125)"/>
       <use xlink:href="#ArialMT-2e" transform="translate(55.615234 0.125)"/>
       <use xlink:href="#ArialMT-35" transform="translate(83.398438 0.125)"/>
      </g>
     </g>
    </g>
    <g id="xtick_4">
     <g id="line2d_4">
      <g>
       <use xlink:href="#ma04908d283" x="84.237616" y="119.025385" style="stroke: #000000; stroke-width: 0.8"/>
      </g>
     </g>
     <g id="text_4">
      <!-- $\mathdefault{4.0}$ -->
      <g transform="translate(80.737616 129.604291) scale(0.05 -0.05)">
       <defs>
        <path id="ArialMT-34" d="M 2069 0 
L 2069 1097 
L 81 1097 
L 81 1613 
L 2172 4581 
L 2631 4581 
L 2631 1613 
L 3250 1613 
L 3250 1097 
L 2631 1097 
L 2631 0 
L 2069 0 
z
M 2069 1613 
L 2069 3678 
L 634 1613 
L 2069 1613 
z
" transform="scale(0.015625)"/>
       </defs>
       <use xlink:href="#ArialMT-34" transform="translate(0 0.125)"/>
       <use xlink:href="#ArialMT-2e" transform="translate(55.615234 0.125)"/>
       <use xlink:href="#ArialMT-30" transform="translate(83.398438 0.125)"/>
      </g>
     </g>
    </g>
    <g id="xtick_5">
     <g id="line2d_5">
      <g>
       <use xlink:href="#ma04908d283" x="101.463321" y="119.025385" style="stroke: #000000; stroke-width: 0.8"/>
      </g>
     </g>
     <g id="text_5">
      <!-- $\mathdefault{4.5}$ -->
      <g transform="translate(97.963321 129.604291) scale(0.05 -0.05)">
       <use xlink:href="#ArialMT-34" transform="translate(0 0.421875)"/>
       <use xlink:href="#ArialMT-2e" transform="translate(55.615234 0.421875)"/>
       <use xlink:href="#ArialMT-35" transform="translate(83.398438 0.421875)"/>
      </g>
     </g>
    </g>
    <g id="xtick_6">
     <g id="line2d_6">
      <g>
       <use xlink:href="#ma04908d283" x="118.689026" y="119.025385" style="stroke: #000000; stroke-width: 0.8"/>
      </g>
     </g>
     <g id="text_6">
      <!-- $\mathdefault{5.0}$ -->
      <g transform="translate(115.189026 129.604291) scale(0.05 -0.05)">
       <use xlink:href="#ArialMT-35" transform="translate(0 0.125)"/>
       <use xlink:href="#ArialMT-2e" transform="translate(55.615234 0.125)"/>
       <use xlink:href="#ArialMT-30" transform="translate(83.398438 0.125)"/>
      </g>
     </g>
    </g>
    <g id="xtick_7">
     <g id="line2d_7">
      <g>
       <use xlink:href="#ma04908d283" x="135.91473" y="119.025385" style="stroke: #000000; stroke-width: 0.8"/>
      </g>
     </g>
     <g id="text_7">
      <!-- $\mathdefault{5.5}$ -->
      <g transform="translate(132.41473 129.604291) scale(0.05 -0.05)">
       <use xlink:href="#ArialMT-35" transform="translate(0 0.390625)"/>
       <use xlink:href="#ArialMT-2e" transform="translate(55.615234 0.390625)"/>
       <use xlink:href="#ArialMT-35" transform="translate(83.398438 0.390625)"/>
      </g>
     </g>
    </g>
    <g id="text_8">
     <!-- Forward $\sigma$ -->
     <g transform="translate(68.520859 139.60851) scale(0.07 -0.07)">
      <defs>
       <path id="ArialMT-46" d="M 525 0 
L 525 4581 
L 3616 4581 
L 3616 4041 
L 1131 4041 
L 1131 2622 
L 3281 2622 
L 3281 2081 
L 1131 2081 
L 1131 0 
L 525 0 
z
" transform="scale(0.015625)"/>
       <path id="ArialMT-6f" d="M 213 1659 
Q 213 2581 725 3025 
Q 1153 3394 1769 3394 
Q 2453 3394 2887 2945 
Q 3322 2497 3322 1706 
Q 3322 1066 3130 698 
Q 2938 331 2570 128 
Q 2203 -75 1769 -75 
Q 1072 -75 642 372 
Q 213 819 213 1659 
z
M 791 1659 
Q 791 1022 1069 705 
Q 1347 388 1769 388 
Q 2188 388 2466 706 
Q 2744 1025 2744 1678 
Q 2744 2294 2464 2611 
Q 2184 2928 1769 2928 
Q 1347 2928 1069 2612 
Q 791 2297 791 1659 
z
" transform="scale(0.015625)"/>
       <path id="ArialMT-72" d="M 416 0 
L 416 3319 
L 922 3319 
L 922 2816 
Q 1116 3169 1280 3281 
Q 1444 3394 1641 3394 
Q 1925 3394 2219 3213 
L 2025 2691 
Q 1819 2813 1613 2813 
Q 1428 2813 1281 2702 
Q 1134 2591 1072 2394 
Q 978 2094 978 1738 
L 978 0 
L 416 0 
z
" transform="scale(0.015625)"/>
       <path id="ArialMT-77" d="M 1034 0 
L 19 3319 
L 600 3319 
L 1128 1403 
L 1325 691 
Q 1338 744 1497 1375 
L 2025 3319 
L 2603 3319 
L 3100 1394 
L 3266 759 
L 3456 1400 
L 4025 3319 
L 4572 3319 
L 3534 0 
L 2950 0 
L 2422 1988 
L 2294 2553 
L 1622 0 
L 1034 0 
z
" transform="scale(0.015625)"/>
       <path id="ArialMT-61" d="M 2588 409 
Q 2275 144 1986 34 
Q 1697 -75 1366 -75 
Q 819 -75 525 192 
Q 231 459 231 875 
Q 231 1119 342 1320 
Q 453 1522 633 1644 
Q 813 1766 1038 1828 
Q 1203 1872 1538 1913 
Q 2219 1994 2541 2106 
Q 2544 2222 2544 2253 
Q 2544 2597 2384 2738 
Q 2169 2928 1744 2928 
Q 1347 2928 1158 2789 
Q 969 2650 878 2297 
L 328 2372 
Q 403 2725 575 2942 
Q 747 3159 1072 3276 
Q 1397 3394 1825 3394 
Q 2250 3394 2515 3294 
Q 2781 3194 2906 3042 
Q 3031 2891 3081 2659 
Q 3109 2516 3109 2141 
L 3109 1391 
Q 3109 606 3145 398 
Q 3181 191 3288 0 
L 2700 0 
Q 2613 175 2588 409 
z
M 2541 1666 
Q 2234 1541 1622 1453 
Q 1275 1403 1131 1340 
Q 988 1278 909 1158 
Q 831 1038 831 891 
Q 831 666 1001 516 
Q 1172 366 1500 366 
Q 1825 366 2078 508 
Q 2331 650 2450 897 
Q 2541 1088 2541 1459 
L 2541 1666 
z
" transform="scale(0.015625)"/>
       <path id="ArialMT-64" d="M 2575 0 
L 2575 419 
Q 2259 -75 1647 -75 
Q 1250 -75 917 144 
Q 584 363 401 755 
Q 219 1147 219 1656 
Q 219 2153 384 2558 
Q 550 2963 881 3178 
Q 1213 3394 1622 3394 
Q 1922 3394 2156 3267 
Q 2391 3141 2538 2938 
L 2538 4581 
L 3097 4581 
L 3097 0 
L 2575 0 
z
M 797 1656 
Q 797 1019 1065 703 
Q 1334 388 1700 388 
Q 2069 388 2326 689 
Q 2584 991 2584 1609 
Q 2584 2291 2321 2609 
Q 2059 2928 1675 2928 
Q 1300 2928 1048 2622 
Q 797 2316 797 1656 
z
" transform="scale(0.015625)"/>
       <path id="ArialMT-20" transform="scale(0.015625)"/>
       <path id="DejaVuSans-Oblique-3c3" d="M 2219 3044 
Q 1744 3044 1422 2700 
Q 1081 2341 969 1747 
Q 844 1119 1044 756 
Q 1241 397 1706 397 
Q 2166 397 2503 759 
Q 2844 1122 2966 1747 
Q 3075 2319 2881 2700 
Q 2700 3044 2219 3044 
z
M 2309 3503 
L 4219 3500 
L 4106 2925 
L 3463 2925 
Q 3706 2438 3575 1747 
Q 3406 888 2884 400 
Q 2359 -91 1609 -91 
Q 856 -91 525 400 
Q 194 888 363 1747 
Q 528 2609 1050 3097 
Q 1484 3503 2309 3503 
z
" transform="scale(0.015625)"/>
      </defs>
      <use xlink:href="#ArialMT-46" transform="translate(0 0.421875)"/>
      <use xlink:href="#ArialMT-6f" transform="translate(61.083984 0.421875)"/>
      <use xlink:href="#ArialMT-72" transform="translate(116.699219 0.421875)"/>
      <use xlink:href="#ArialMT-77" transform="translate(150 0.421875)"/>
      <use xlink:href="#ArialMT-61" transform="translate(222.216797 0.421875)"/>
      <use xlink:href="#ArialMT-72" transform="translate(277.832031 0.421875)"/>
      <use xlink:href="#ArialMT-64" transform="translate(311.132812 0.421875)"/>
      <use xlink:href="#ArialMT-20" transform="translate(366.748047 0.421875)"/>
      <use xlink:href="#DejaVuSans-Oblique-3c3" transform="translate(394.53125 0.421875)"/>
     </g>
    </g>
   </g>
   <g id="matplotlib.axis_2">
    <g id="ytick_1">
     <g id="line2d_8">
      <defs>
       <path id="m6db78365ac" d="M 0 0 
L -3.5 0 
" style="stroke: #000000; stroke-width: 0.8"/>
      </defs>
      <g>
       <use xlink:href="#m6db78365ac" x="27.401959" y="113.087836" style="stroke: #000000; stroke-width: 0.8"/>
      </g>
     </g>
     <g id="text_9">
      <!-- $\mathdefault{1.0}$ -->
      <g transform="translate(13.401959 114.877289) scale(0.05 -0.05)">
       <defs>
        <path id="ArialMT-31" d="M 2384 0 
L 1822 0 
L 1822 3584 
Q 1619 3391 1289 3197 
Q 959 3003 697 2906 
L 697 3450 
Q 1169 3672 1522 3987 
Q 1875 4303 2022 4600 
L 2384 4600 
L 2384 0 
z
" transform="scale(0.015625)"/>
       </defs>
       <use xlink:href="#ArialMT-31" transform="translate(0 0.125)"/>
       <use xlink:href="#ArialMT-2e" transform="translate(55.615234 0.125)"/>
       <use xlink:href="#ArialMT-30" transform="translate(83.398438 0.125)"/>
      </g>
     </g>
    </g>
    <g id="ytick_2">
     <g id="line2d_9">
      <g>
       <use xlink:href="#m6db78365ac" x="27.401959" y="93.396628" style="stroke: #000000; stroke-width: 0.8"/>
      </g>
     </g>
     <g id="text_10">
      <!-- $\mathdefault{1.5}$ -->
      <g transform="translate(13.401959 95.186081) scale(0.05 -0.05)">
       <use xlink:href="#ArialMT-31" transform="translate(0 0.125)"/>
       <use xlink:href="#ArialMT-2e" transform="translate(55.615234 0.125)"/>
       <use xlink:href="#ArialMT-35" transform="translate(83.398438 0.125)"/>
      </g>
     </g>
    </g>
    <g id="ytick_3">
     <g id="line2d_10">
      <g>
       <use xlink:href="#m6db78365ac" x="27.401959" y="73.705419" style="stroke: #000000; stroke-width: 0.8"/>
      </g>
     </g>
     <g id="text_11">
      <!-- $\mathdefault{2.0}$ -->
      <g transform="translate(13.401959 75.494872) scale(0.05 -0.05)">
       <use xlink:href="#ArialMT-32" transform="translate(0 0.125)"/>
       <use xlink:href="#ArialMT-2e" transform="translate(55.615234 0.125)"/>
       <use xlink:href="#ArialMT-30" transform="translate(83.398438 0.125)"/>
      </g>
     </g>
    </g>
    <g id="ytick_4">
     <g id="line2d_11">
      <g>
       <use xlink:href="#m6db78365ac" x="27.401959" y="54.014211" style="stroke: #000000; stroke-width: 0.8"/>
      </g>
     </g>
     <g id="text_12">
      <!-- $\mathdefault{2.5}$ -->
      <g transform="translate(13.401959 55.803664) scale(0.05 -0.05)">
       <use xlink:href="#ArialMT-32" transform="translate(0 0.125)"/>
       <use xlink:href="#ArialMT-2e" transform="translate(55.615234 0.125)"/>
       <use xlink:href="#ArialMT-35" transform="translate(83.398438 0.125)"/>
      </g>
     </g>
    </g>
    <g id="ytick_5">
     <g id="line2d_12">
      <g>
       <use xlink:href="#m6db78365ac" x="27.401959" y="34.323002" style="stroke: #000000; stroke-width: 0.8"/>
      </g>
     </g>
     <g id="text_13">
      <!-- $\mathdefault{3.0}$ -->
      <g transform="translate(13.401959 36.112455) scale(0.05 -0.05)">
       <use xlink:href="#ArialMT-33" transform="translate(0 0.125)"/>
       <use xlink:href="#ArialMT-2e" transform="translate(55.615234 0.125)"/>
       <use xlink:href="#ArialMT-30" transform="translate(83.398438 0.125)"/>
      </g>
     </g>
    </g>
    <g id="ytick_6">
     <g id="line2d_13">
      <g>
       <use xlink:href="#m6db78365ac" x="27.401959" y="14.631794" style="stroke: #000000; stroke-width: 0.8"/>
      </g>
     </g>
     <g id="text_14">
      <!-- $\mathdefault{3.5}$ -->
      <g transform="translate(13.401959 16.421247) scale(0.05 -0.05)">
       <use xlink:href="#ArialMT-33" transform="translate(0 0.125)"/>
       <use xlink:href="#ArialMT-2e" transform="translate(55.615234 0.125)"/>
       <use xlink:href="#ArialMT-35" transform="translate(83.398438 0.125)"/>
      </g>
     </g>
    </g>
    <g id="text_15">
     <!-- Turn $\alpha$ -->
     <g transform="translate(8.010709 71.512813) rotate(-90) scale(0.07 -0.07)">
      <defs>
       <path id="ArialMT-54" d="M 1659 0 
L 1659 4041 
L 150 4041 
L 150 4581 
L 3781 4581 
L 3781 4041 
L 2266 4041 
L 2266 0 
L 1659 0 
z
" transform="scale(0.015625)"/>
       <path id="ArialMT-75" d="M 2597 0 
L 2597 488 
Q 2209 -75 1544 -75 
Q 1250 -75 995 37 
Q 741 150 617 320 
Q 494 491 444 738 
Q 409 903 409 1263 
L 409 3319 
L 972 3319 
L 972 1478 
Q 972 1038 1006 884 
Q 1059 663 1231 536 
Q 1403 409 1656 409 
Q 1909 409 2131 539 
Q 2353 669 2445 892 
Q 2538 1116 2538 1541 
L 2538 3319 
L 3100 3319 
L 3100 0 
L 2597 0 
z
" transform="scale(0.015625)"/>
       <path id="ArialMT-6e" d="M 422 0 
L 422 3319 
L 928 3319 
L 928 2847 
Q 1294 3394 1984 3394 
Q 2284 3394 2536 3286 
Q 2788 3178 2913 3003 
Q 3038 2828 3088 2588 
Q 3119 2431 3119 2041 
L 3119 0 
L 2556 0 
L 2556 2019 
Q 2556 2363 2490 2533 
Q 2425 2703 2258 2804 
Q 2091 2906 1866 2906 
Q 1506 2906 1245 2678 
Q 984 2450 984 1813 
L 984 0 
L 422 0 
z
" transform="scale(0.015625)"/>
       <path id="DejaVuSans-Oblique-3b1" d="M 2619 1628 
L 2622 2350 
Q 2625 3088 2069 3091 
Q 1653 3094 1394 2747 
Q 1069 2319 959 1747 
Q 825 1059 994 731 
Q 1169 397 1547 397 
Q 1966 397 2319 1063 
L 2619 1628 
z
M 2166 3578 
Q 3141 3594 3128 2584 
Q 3128 2584 3616 3500 
L 4128 3500 
L 3119 1603 
L 3109 919 
Q 3109 766 3194 638 
Q 3291 488 3391 488 
L 3669 488 
L 3575 0 
L 3228 0 
Q 2934 0 2722 263 
Q 2622 394 2619 669 
Q 2416 334 2066 50 
Q 1900 -81 1453 -78 
Q 722 -72 456 397 
Q 184 884 353 1747 
Q 534 2675 1009 3097 
Q 1544 3569 2166 3578 
z
" transform="scale(0.015625)"/>
      </defs>
      <use xlink:href="#ArialMT-54" transform="translate(0 0.421875)"/>
      <use xlink:href="#ArialMT-75" transform="translate(61.083984 0.421875)"/>
      <use xlink:href="#ArialMT-72" transform="translate(116.699219 0.421875)"/>
      <use xlink:href="#ArialMT-6e" transform="translate(150 0.421875)"/>
      <use xlink:href="#ArialMT-20" transform="translate(205.615234 0.421875)"/>
      <use xlink:href="#DejaVuSans-Oblique-3b1" transform="translate(233.398438 0.421875)"/>
     </g>
    </g>
   </g>
   <g id="LineCollection_1">
    <path d="M 35.166503 113.087836 
L 45.213497 113.087836 
" clip-path="url(#p140f59abb1)" style="fill: none; stroke: #000000; stroke-width: 0.5"/>
    <path d="M 32.597313 111.744483 
L 36.702356 111.744483 
" clip-path="url(#p140f59abb1)" style="fill: none; stroke: #000000; stroke-width: 0.5"/>
    <path d="M 61.933348 51.496973 
L 69.106468 51.496973 
" clip-path="url(#p140f59abb1)" style="fill: none; stroke: #000000; stroke-width: 0.5"/>
    <path d="M 80.481727 34.780958 
L 90.89257 34.780958 
" clip-path="url(#p140f59abb1)" style="fill: none; stroke: #000000; stroke-width: 0.5"/>
    <path d="M 119.603001 16.142822 
L 136.504405 16.142822 
" clip-path="url(#p140f59abb1)" style="fill: none; stroke: #000000; stroke-width: 0.5"/>
   </g>
   <g id="LineCollection_2">
    <path d="M 40.19 113.087836 
L 40.19 113.087836 
" clip-path="url(#p140f59abb1)" style="fill: none; stroke: #000000; stroke-width: 0.5"/>
    <path d="M 34.649835 113.751515 
L 34.649835 109.737452 
" clip-path="url(#p140f59abb1)" style="fill: none; stroke: #000000; stroke-width: 0.5"/>
    <path d="M 65.519908 58.016195 
L 65.519908 44.977752 
" clip-path="url(#p140f59abb1)" style="fill: none; stroke: #000000; stroke-width: 0.5"/>
    <path d="M 85.687149 41.302081 
L 85.687149 28.259835 
" clip-path="url(#p140f59abb1)" style="fill: none; stroke: #000000; stroke-width: 0.5"/>
    <path d="M 128.053703 24.011534 
L 128.053703 8.27411 
" clip-path="url(#p140f59abb1)" style="fill: none; stroke: #000000; stroke-width: 0.5"/>
   </g>
   <g id="line2d_14">
    <defs>
     <path id="m0fe451e36d" d="M 0 1 
L 0 -1 
" style="stroke: #000000; stroke-width: 0.5"/>
    </defs>
    <g clip-path="url(#p140f59abb1)">
     <use xlink:href="#m0fe451e36d" x="35.166503" y="113.087836" style="stroke: #000000; stroke-width: 0.5"/>
     <use xlink:href="#m0fe451e36d" x="32.597313" y="111.744483" style="stroke: #000000; stroke-width: 0.5"/>
     <use xlink:href="#m0fe451e36d" x="61.933348" y="51.496973" style="stroke: #000000; stroke-width: 0.5"/>
     <use xlink:href="#m0fe451e36d" x="80.481727" y="34.780958" style="stroke: #000000; stroke-width: 0.5"/>
     <use xlink:href="#m0fe451e36d" x="119.603001" y="16.142822" style="stroke: #000000; stroke-width: 0.5"/>
    </g>
   </g>
   <g id="line2d_15">
    <g clip-path="url(#p140f59abb1)">
     <use xlink:href="#m0fe451e36d" x="45.213497" y="113.087836" style="stroke: #000000; stroke-width: 0.5"/>
     <use xlink:href="#m0fe451e36d" x="36.702356" y="111.744483" style="stroke: #000000; stroke-width: 0.5"/>
     <use xlink:href="#m0fe451e36d" x="69.106468" y="51.496973" style="stroke: #000000; stroke-width: 0.5"/>
     <use xlink:href="#m0fe451e36d" x="90.89257" y="34.780958" style="stroke: #000000; stroke-width: 0.5"/>
     <use xlink:href="#m0fe451e36d" x="136.504405" y="16.142822" style="stroke: #000000; stroke-width: 0.5"/>
    </g>
   </g>
   <g id="line2d_16">
    <defs>
     <path id="m1a2c209325" d="M 1 0 
L -1 -0 
" style="stroke: #000000; stroke-width: 0.5"/>
    </defs>
    <g clip-path="url(#p140f59abb1)">
     <use xlink:href="#m1a2c209325" x="40.19" y="113.087836" style="stroke: #000000; stroke-width: 0.5"/>
     <use xlink:href="#m1a2c209325" x="34.649835" y="113.751515" style="stroke: #000000; stroke-width: 0.5"/>
     <use xlink:href="#m1a2c209325" x="65.519908" y="58.016195" style="stroke: #000000; stroke-width: 0.5"/>
     <use xlink:href="#m1a2c209325" x="85.687149" y="41.302081" style="stroke: #000000; stroke-width: 0.5"/>
     <use xlink:href="#m1a2c209325" x="128.053703" y="24.011534" style="stroke: #000000; stroke-width: 0.5"/>
    </g>
   </g>
   <g id="line2d_17">
    <g clip-path="url(#p140f59abb1)">
     <use xlink:href="#m1a2c209325" x="40.19" y="113.087836" style="stroke: #000000; stroke-width: 0.5"/>
     <use xlink:href="#m1a2c209325" x="34.649835" y="109.737452" style="stroke: #000000; stroke-width: 0.5"/>
     <use xlink:href="#m1a2c209325" x="65.519908" y="44.977752" style="stroke: #000000; stroke-width: 0.5"/>
     <use xlink:href="#m1a2c209325" x="85.687149" y="28.259835" style="stroke: #000000; stroke-width: 0.5"/>
     <use xlink:href="#m1a2c209325" x="128.053703" y="8.27411" style="stroke: #000000; stroke-width: 0.5"/>
    </g>
   </g>
   <g id="line2d_18">
    <path d="M 40.19 113.087836 
L 34.649835 111.744483 
L 65.519908 51.496973 
L 85.687149 34.780958 
L 128.053703 16.142822 
" clip-path="url(#p140f59abb1)" style="fill: none; stroke: #000000; stroke-width: 0.5; stroke-linecap: square"/>
   </g>
   <g id="patch_3">
    <path d="M 27.401959 119.025385 
L 27.401959 3.00024 
" style="fill: none; stroke: #000000; stroke-width: 0.8; stroke-linejoin: miter; stroke-linecap: square"/>
   </g>
   <g id="patch_4">
    <path d="M 27.401959 119.025385 
L 141.69976 119.025385 
" style="fill: none; stroke: #000000; stroke-width: 0.8; stroke-linejoin: miter; stroke-linecap: square"/>
   </g>
   <g id="PathCollection_1">
    <path d="M 39.873373 110.851768 
L 37.637305 115.323904 
L 42.109441 115.323904 
z
" clip-path="url(#p140f59abb1)" style="fill: #033198; stroke: #000000; stroke-width: 0.5"/>
    <path d="M 34.651986 109.573869 
L 32.415918 114.046005 
L 36.888054 114.046005 
z
" clip-path="url(#p140f59abb1)" style="fill: #399dc7; stroke: #000000; stroke-width: 0.5"/>
    <path d="M 65.456998 49.300179 
L 63.22093 53.772315 
L 67.693066 53.772315 
z
" clip-path="url(#p140f59abb1)" style="fill: #c1eac2; stroke: #000000; stroke-width: 0.5"/>
    <path d="M 85.936429 32.2846 
L 83.700361 36.756736 
L 88.172497 36.756736 
z
" clip-path="url(#p140f59abb1)" style="fill: #b58b31; stroke: #000000; stroke-width: 0.5"/>
    <path d="M 128.45239 13.762489 
L 126.216322 18.234624 
L 130.688458 18.234624 
z
" clip-path="url(#p140f59abb1)" style="fill: #7e1700; stroke: #000000; stroke-width: 0.5"/>
   </g>
  </g>
  <g id="axes_2">
   <g id="patch_5">
    <path d="M 170.701959 119.025385 
L 284.99976 119.025385 
L 284.99976 3.00024 
L 170.701959 3.00024 
L 170.701959 119.025385 
z
" style="fill: none"/>
   </g>
   <g id="matplotlib.axis_3">
    <g id="xtick_8">
     <g id="line2d_19">
      <g>
       <use xlink:href="#ma04908d283" x="175.860502" y="119.025385" style="stroke: #000000; stroke-width: 0.8"/>
      </g>
     </g>
     <g id="text_16">
      <!-- $\mathdefault{2.5}$ -->
      <g transform="translate(172.360502 129.604291) scale(0.05 -0.05)">
       <use xlink:href="#ArialMT-32" transform="translate(0 0.125)"/>
       <use xlink:href="#ArialMT-2e" transform="translate(55.615234 0.125)"/>
       <use xlink:href="#ArialMT-35" transform="translate(83.398438 0.125)"/>
      </g>
     </g>
    </g>
    <g id="xtick_9">
     <g id="line2d_20">
      <g>
       <use xlink:href="#ma04908d283" x="193.086207" y="119.025385" style="stroke: #000000; stroke-width: 0.8"/>
      </g>
     </g>
     <g id="text_17">
      <!-- $\mathdefault{3.0}$ -->
      <g transform="translate(189.586207 129.604291) scale(0.05 -0.05)">
       <use xlink:href="#ArialMT-33" transform="translate(0 0.125)"/>
       <use xlink:href="#ArialMT-2e" transform="translate(55.615234 0.125)"/>
       <use xlink:href="#ArialMT-30" transform="translate(83.398438 0.125)"/>
      </g>
     </g>
    </g>
    <g id="xtick_10">
     <g id="line2d_21">
      <g>
       <use xlink:href="#ma04908d283" x="210.311911" y="119.025385" style="stroke: #000000; stroke-width: 0.8"/>
      </g>
     </g>
     <g id="text_18">
      <!-- $\mathdefault{3.5}$ -->
      <g transform="translate(206.811911 129.604291) scale(0.05 -0.05)">
       <use xlink:href="#ArialMT-33" transform="translate(0 0.125)"/>
       <use xlink:href="#ArialMT-2e" transform="translate(55.615234 0.125)"/>
       <use xlink:href="#ArialMT-35" transform="translate(83.398438 0.125)"/>
      </g>
     </g>
    </g>
    <g id="xtick_11">
     <g id="line2d_22">
      <g>
       <use xlink:href="#ma04908d283" x="227.537616" y="119.025385" style="stroke: #000000; stroke-width: 0.8"/>
      </g>
     </g>
     <g id="text_19">
      <!-- $\mathdefault{4.0}$ -->
      <g transform="translate(224.037616 129.604291) scale(0.05 -0.05)">
       <use xlink:href="#ArialMT-34" transform="translate(0 0.125)"/>
       <use xlink:href="#ArialMT-2e" transform="translate(55.615234 0.125)"/>
       <use xlink:href="#ArialMT-30" transform="translate(83.398438 0.125)"/>
      </g>
     </g>
    </g>
    <g id="xtick_12">
     <g id="line2d_23">
      <g>
       <use xlink:href="#ma04908d283" x="244.763321" y="119.025385" style="stroke: #000000; stroke-width: 0.8"/>
      </g>
     </g>
     <g id="text_20">
      <!-- $\mathdefault{4.5}$ -->
      <g transform="translate(241.263321 129.604291) scale(0.05 -0.05)">
       <use xlink:href="#ArialMT-34" transform="translate(0 0.421875)"/>
       <use xlink:href="#ArialMT-2e" transform="translate(55.615234 0.421875)"/>
       <use xlink:href="#ArialMT-35" transform="translate(83.398438 0.421875)"/>
      </g>
     </g>
    </g>
    <g id="xtick_13">
     <g id="line2d_24">
      <g>
       <use xlink:href="#ma04908d283" x="261.989026" y="119.025385" style="stroke: #000000; stroke-width: 0.8"/>
      </g>
     </g>
     <g id="text_21">
      <!-- $\mathdefault{5.0}$ -->
      <g transform="translate(258.489026 129.604291) scale(0.05 -0.05)">
       <use xlink:href="#ArialMT-35" transform="translate(0 0.125)"/>
       <use xlink:href="#ArialMT-2e" transform="translate(55.615234 0.125)"/>
       <use xlink:href="#ArialMT-30" transform="translate(83.398438 0.125)"/>
      </g>
     </g>
    </g>
    <g id="xtick_14">
     <g id="line2d_25">
      <g>
       <use xlink:href="#ma04908d283" x="279.21473" y="119.025385" style="stroke: #000000; stroke-width: 0.8"/>
      </g>
     </g>
     <g id="text_22">
      <!-- $\mathdefault{5.5}$ -->
      <g transform="translate(275.71473 129.604291) scale(0.05 -0.05)">
       <use xlink:href="#ArialMT-35" transform="translate(0 0.390625)"/>
       <use xlink:href="#ArialMT-2e" transform="translate(55.615234 0.390625)"/>
       <use xlink:href="#ArialMT-35" transform="translate(83.398438 0.390625)"/>
      </g>
     </g>
    </g>
    <g id="text_23">
     <!-- Forward $\sigma$ -->
     <g transform="translate(211.820859 139.60851) scale(0.07 -0.07)">
      <use xlink:href="#ArialMT-46" transform="translate(0 0.421875)"/>
      <use xlink:href="#ArialMT-6f" transform="translate(61.083984 0.421875)"/>
      <use xlink:href="#ArialMT-72" transform="translate(116.699219 0.421875)"/>
      <use xlink:href="#ArialMT-77" transform="translate(150 0.421875)"/>
      <use xlink:href="#ArialMT-61" transform="translate(222.216797 0.421875)"/>
      <use xlink:href="#ArialMT-72" transform="translate(277.832031 0.421875)"/>
      <use xlink:href="#ArialMT-64" transform="translate(311.132812 0.421875)"/>
      <use xlink:href="#ArialMT-20" transform="translate(366.748047 0.421875)"/>
      <use xlink:href="#DejaVuSans-Oblique-3c3" transform="translate(394.53125 0.421875)"/>
     </g>
    </g>
   </g>
   <g id="matplotlib.axis_4">
    <g id="ytick_7">
     <g id="line2d_26">
      <g>
       <use xlink:href="#m6db78365ac" x="170.701959" y="118.870175" style="stroke: #000000; stroke-width: 0.8"/>
      </g>
     </g>
     <g id="text_24">
      <!-- $\mathdefault{12}$ -->
      <g transform="translate(158.101959 120.659628) scale(0.05 -0.05)">
       <use xlink:href="#ArialMT-31" transform="translate(0 0.125)"/>
       <use xlink:href="#ArialMT-32" transform="translate(55.615234 0.125)"/>
      </g>
     </g>
    </g>
    <g id="ytick_8">
     <g id="line2d_27">
      <g>
       <use xlink:href="#m6db78365ac" x="170.701959" y="99.349815" style="stroke: #000000; stroke-width: 0.8"/>
      </g>
     </g>
     <g id="text_25">
      <!-- $\mathdefault{14}$ -->
      <g transform="translate(158.101959 101.139268) scale(0.05 -0.05)">
       <use xlink:href="#ArialMT-31" transform="translate(0 0.125)"/>
       <use xlink:href="#ArialMT-34" transform="translate(55.615234 0.125)"/>
      </g>
     </g>
    </g>
    <g id="ytick_9">
     <g id="line2d_28">
      <g>
       <use xlink:href="#m6db78365ac" x="170.701959" y="79.829454" style="stroke: #000000; stroke-width: 0.8"/>
      </g>
     </g>
     <g id="text_26">
      <!-- $\mathdefault{16}$ -->
      <g transform="translate(158.101959 81.618907) scale(0.05 -0.05)">
       <defs>
        <path id="ArialMT-36" d="M 3184 3459 
L 2625 3416 
Q 2550 3747 2413 3897 
Q 2184 4138 1850 4138 
Q 1581 4138 1378 3988 
Q 1113 3794 959 3422 
Q 806 3050 800 2363 
Q 1003 2672 1297 2822 
Q 1591 2972 1913 2972 
Q 2475 2972 2870 2558 
Q 3266 2144 3266 1488 
Q 3266 1056 3080 686 
Q 2894 316 2569 119 
Q 2244 -78 1831 -78 
Q 1128 -78 684 439 
Q 241 956 241 2144 
Q 241 3472 731 4075 
Q 1159 4600 1884 4600 
Q 2425 4600 2770 4297 
Q 3116 3994 3184 3459 
z
M 888 1484 
Q 888 1194 1011 928 
Q 1134 663 1356 523 
Q 1578 384 1822 384 
Q 2178 384 2434 671 
Q 2691 959 2691 1453 
Q 2691 1928 2437 2201 
Q 2184 2475 1800 2475 
Q 1419 2475 1153 2201 
Q 888 1928 888 1484 
z
" transform="scale(0.015625)"/>
       </defs>
       <use xlink:href="#ArialMT-31" transform="translate(0 0.125)"/>
       <use xlink:href="#ArialMT-36" transform="translate(55.615234 0.125)"/>
      </g>
     </g>
    </g>
    <g id="ytick_10">
     <g id="line2d_29">
      <g>
       <use xlink:href="#m6db78365ac" x="170.701959" y="60.309094" style="stroke: #000000; stroke-width: 0.8"/>
      </g>
     </g>
     <g id="text_27">
      <!-- $\mathdefault{18}$ -->
      <g transform="translate(158.101959 62.098547) scale(0.05 -0.05)">
       <defs>
        <path id="ArialMT-38" d="M 1131 2484 
Q 781 2613 612 2850 
Q 444 3088 444 3419 
Q 444 3919 803 4259 
Q 1163 4600 1759 4600 
Q 2359 4600 2725 4251 
Q 3091 3903 3091 3403 
Q 3091 3084 2923 2848 
Q 2756 2613 2416 2484 
Q 2838 2347 3058 2040 
Q 3278 1734 3278 1309 
Q 3278 722 2862 322 
Q 2447 -78 1769 -78 
Q 1091 -78 675 323 
Q 259 725 259 1325 
Q 259 1772 486 2073 
Q 713 2375 1131 2484 
z
M 1019 3438 
Q 1019 3113 1228 2906 
Q 1438 2700 1772 2700 
Q 2097 2700 2305 2904 
Q 2513 3109 2513 3406 
Q 2513 3716 2298 3927 
Q 2084 4138 1766 4138 
Q 1444 4138 1231 3931 
Q 1019 3725 1019 3438 
z
M 838 1322 
Q 838 1081 952 856 
Q 1066 631 1291 507 
Q 1516 384 1775 384 
Q 2178 384 2440 643 
Q 2703 903 2703 1303 
Q 2703 1709 2433 1975 
Q 2163 2241 1756 2241 
Q 1359 2241 1098 1978 
Q 838 1716 838 1322 
z
" transform="scale(0.015625)"/>
       </defs>
       <use xlink:href="#ArialMT-31" transform="translate(0 0.125)"/>
       <use xlink:href="#ArialMT-38" transform="translate(55.615234 0.125)"/>
      </g>
     </g>
    </g>
    <g id="ytick_11">
     <g id="line2d_30">
      <g>
       <use xlink:href="#m6db78365ac" x="170.701959" y="40.788733" style="stroke: #000000; stroke-width: 0.8"/>
      </g>
     </g>
     <g id="text_28">
      <!-- $\mathdefault{20}$ -->
      <g transform="translate(158.101959 42.578187) scale(0.05 -0.05)">
       <use xlink:href="#ArialMT-32" transform="translate(0 0.125)"/>
       <use xlink:href="#ArialMT-30" transform="translate(55.615234 0.125)"/>
      </g>
     </g>
    </g>
    <g id="ytick_12">
     <g id="line2d_31">
      <g>
       <use xlink:href="#m6db78365ac" x="170.701959" y="21.268373" style="stroke: #000000; stroke-width: 0.8"/>
      </g>
     </g>
     <g id="text_29">
      <!-- $\mathdefault{22}$ -->
      <g transform="translate(158.101959 23.057826) scale(0.05 -0.05)">
       <use xlink:href="#ArialMT-32" transform="translate(0 0.125)"/>
       <use xlink:href="#ArialMT-32" transform="translate(55.615234 0.125)"/>
      </g>
     </g>
    </g>
    <g id="text_30">
     <!-- Turn $\theta$ -->
     <g transform="translate(152.710709 71.337813) rotate(-90) scale(0.07 -0.07)">
      <defs>
       <path id="DejaVuSans-Oblique-3b8" d="M 2913 2219 
L 925 2219 
Q 791 1284 928 888 
Q 1100 400 1566 400 
Q 2034 400 2391 891 
Q 2703 1322 2913 2219 
z
M 3009 2750 
Q 3094 3638 2984 3950 
Q 2813 4444 2353 4444 
Q 1875 4444 1525 3956 
Q 1250 3563 1034 2750 
L 3009 2750 
z
M 2444 4913 
Q 3194 4913 3494 4250 
Q 3794 3591 3566 2422 
Q 3341 1256 2781 594 
Q 2225 -72 1475 -72 
Q 722 -72 425 594 
Q 128 1256 353 2422 
Q 581 3591 1134 4250 
Q 1691 4913 2444 4913 
z
" transform="scale(0.015625)"/>
      </defs>
      <use xlink:href="#ArialMT-54" transform="translate(0 0.234375)"/>
      <use xlink:href="#ArialMT-75" transform="translate(61.083984 0.234375)"/>
      <use xlink:href="#ArialMT-72" transform="translate(116.699219 0.234375)"/>
      <use xlink:href="#ArialMT-6e" transform="translate(150 0.234375)"/>
      <use xlink:href="#ArialMT-20" transform="translate(205.615234 0.234375)"/>
      <use xlink:href="#DejaVuSans-Oblique-3b8" transform="translate(233.398438 0.234375)"/>
     </g>
    </g>
   </g>
   <g id="LineCollection_3">
    <path d="M 178.466503 66.846236 
L 188.513497 66.846236 
" clip-path="url(#p2d5dc637a9)" style="fill: none; stroke: #000000; stroke-width: 0.5"/>
    <path d="M 175.897313 15.368896 
L 180.002356 15.368896 
" clip-path="url(#p2d5dc637a9)" style="fill: none; stroke: #000000; stroke-width: 0.5"/>
    <path d="M 205.233348 100.709214 
L 212.406468 100.709214 
" clip-path="url(#p2d5dc637a9)" style="fill: none; stroke: #000000; stroke-width: 0.5"/>
    <path d="M 223.781727 101.864068 
L 234.19257 101.864068 
" clip-path="url(#p2d5dc637a9)" style="fill: none; stroke: #000000; stroke-width: 0.5"/>
    <path d="M 262.903001 107.269493 
L 279.804405 107.269493 
" clip-path="url(#p2d5dc637a9)" style="fill: none; stroke: #000000; stroke-width: 0.5"/>
   </g>
   <g id="LineCollection_4">
    <path d="M 183.49 73.769151 
L 183.49 59.923321 
" clip-path="url(#p2d5dc637a9)" style="fill: none; stroke: #000000; stroke-width: 0.5"/>
    <path d="M 177.949835 22.463682 
L 177.949835 8.27411 
" clip-path="url(#p2d5dc637a9)" style="fill: none; stroke: #000000; stroke-width: 0.5"/>
    <path d="M 208.819908 107.413027 
L 208.819908 94.005401 
" clip-path="url(#p2d5dc637a9)" style="fill: none; stroke: #000000; stroke-width: 0.5"/>
    <path d="M 228.987149 108.418429 
L 228.987149 95.309706 
" clip-path="url(#p2d5dc637a9)" style="fill: none; stroke: #000000; stroke-width: 0.5"/>
    <path d="M 271.353703 113.751515 
L 271.353703 100.787472 
" clip-path="url(#p2d5dc637a9)" style="fill: none; stroke: #000000; stroke-width: 0.5"/>
   </g>
   <g id="line2d_32">
    <g clip-path="url(#p2d5dc637a9)">
     <use xlink:href="#m0fe451e36d" x="178.466503" y="66.846236" style="stroke: #000000; stroke-width: 0.5"/>
     <use xlink:href="#m0fe451e36d" x="175.897313" y="15.368896" style="stroke: #000000; stroke-width: 0.5"/>
     <use xlink:href="#m0fe451e36d" x="205.233348" y="100.709214" style="stroke: #000000; stroke-width: 0.5"/>
     <use xlink:href="#m0fe451e36d" x="223.781727" y="101.864068" style="stroke: #000000; stroke-width: 0.5"/>
     <use xlink:href="#m0fe451e36d" x="262.903001" y="107.269493" style="stroke: #000000; stroke-width: 0.5"/>
    </g>
   </g>
   <g id="line2d_33">
    <g clip-path="url(#p2d5dc637a9)">
     <use xlink:href="#m0fe451e36d" x="188.513497" y="66.846236" style="stroke: #000000; stroke-width: 0.5"/>
     <use xlink:href="#m0fe451e36d" x="180.002356" y="15.368896" style="stroke: #000000; stroke-width: 0.5"/>
     <use xlink:href="#m0fe451e36d" x="212.406468" y="100.709214" style="stroke: #000000; stroke-width: 0.5"/>
     <use xlink:href="#m0fe451e36d" x="234.19257" y="101.864068" style="stroke: #000000; stroke-width: 0.5"/>
     <use xlink:href="#m0fe451e36d" x="279.804405" y="107.269493" style="stroke: #000000; stroke-width: 0.5"/>
    </g>
   </g>
   <g id="line2d_34">
    <g clip-path="url(#p2d5dc637a9)">
     <use xlink:href="#m1a2c209325" x="183.49" y="73.769151" style="stroke: #000000; stroke-width: 0.5"/>
     <use xlink:href="#m1a2c209325" x="177.949835" y="22.463682" style="stroke: #000000; stroke-width: 0.5"/>
     <use xlink:href="#m1a2c209325" x="208.819908" y="107.413027" style="stroke: #000000; stroke-width: 0.5"/>
     <use xlink:href="#m1a2c209325" x="228.987149" y="108.418429" style="stroke: #000000; stroke-width: 0.5"/>
     <use xlink:href="#m1a2c209325" x="271.353703" y="113.751515" style="stroke: #000000; stroke-width: 0.5"/>
    </g>
   </g>
   <g id="line2d_35">
    <g clip-path="url(#p2d5dc637a9)">
     <use xlink:href="#m1a2c209325" x="183.49" y="59.923321" style="stroke: #000000; stroke-width: 0.5"/>
     <use xlink:href="#m1a2c209325" x="177.949835" y="8.27411" style="stroke: #000000; stroke-width: 0.5"/>
     <use xlink:href="#m1a2c209325" x="208.819908" y="94.005401" style="stroke: #000000; stroke-width: 0.5"/>
     <use xlink:href="#m1a2c209325" x="228.987149" y="95.309706" style="stroke: #000000; stroke-width: 0.5"/>
     <use xlink:href="#m1a2c209325" x="271.353703" y="100.787472" style="stroke: #000000; stroke-width: 0.5"/>
    </g>
   </g>
   <g id="line2d_36">
    <path d="M 183.49 66.846236 
L 177.949835 15.368896 
L 208.819908 100.709214 
L 228.987149 101.864068 
L 271.353703 107.269493 
" clip-path="url(#p2d5dc637a9)" style="fill: none; stroke: #000000; stroke-width: 0.5; stroke-linecap: square"/>
   </g>
   <g id="patch_6">
    <path d="M 170.701959 119.025385 
L 170.701959 3.00024 
" style="fill: none; stroke: #000000; stroke-width: 0.8; stroke-linejoin: miter; stroke-linecap: square"/>
   </g>
   <g id="patch_7">
    <path d="M 170.701959 119.025385 
L 284.99976 119.025385 
" style="fill: none; stroke: #000000; stroke-width: 0.8; stroke-linejoin: miter; stroke-linecap: square"/>
   </g>
   <g id="PathCollection_2">
    <path d="M 183.173373 64.682274 
L 180.937305 69.154409 
L 185.409441 69.154409 
z
" clip-path="url(#p2d5dc637a9)" style="fill: #033198; stroke: #000000; stroke-width: 0.5"/>
    <path d="M 177.951986 12.91066 
L 175.715918 17.382796 
L 180.188054 17.382796 
z
" clip-path="url(#p2d5dc637a9)" style="fill: #399dc7; stroke: #000000; stroke-width: 0.5"/>
    <path d="M 208.756998 98.464517 
L 206.52093 102.936653 
L 210.993066 102.936653 
z
" clip-path="url(#p2d5dc637a9)" style="fill: #c1eac2; stroke: #000000; stroke-width: 0.5"/>
    <path d="M 229.236429 99.978776 
L 227.000361 104.450912 
L 231.472497 104.450912 
z
" clip-path="url(#p2d5dc637a9)" style="fill: #b58b31; stroke: #000000; stroke-width: 0.5"/>
    <path d="M 271.75239 105.133517 
L 269.516322 109.605653 
L 273.988458 109.605653 
z
" clip-path="url(#p2d5dc637a9)" style="fill: #7e1700; stroke: #000000; stroke-width: 0.5"/>
   </g>
  </g>
 </g>
 <defs>
  <clipPath id="p140f59abb1">
   <rect x="27.401959" y="3.00024" width="114.297801" height="116.025145"/>
  </clipPath>
  <clipPath id="p2d5dc637a9">
   <rect x="170.701959" y="3.00024" width="114.297801" height="116.025145"/>
  </clipPath>
 </defs>
</svg>
