<?xml version="1.0" encoding="utf-8" standalone="no"?>
<!DOCTYPE svg PUBLIC "-//W3C//DTD SVG 1.1//EN"
  "http://www.w3.org/Graphics/SVG/1.1/DTD/svg11.dtd">
<svg xmlns:xlink="http://www.w3.org/1999/xlink" width="144pt" height="144pt" viewBox="0 0 144 144" xmlns="http://www.w3.org/2000/svg" version="1.1">
 <metadata>
  <rdf:RDF xmlns:dc="http://purl.org/dc/elements/1.1/" xmlns:cc="http://creativecommons.org/ns#" xmlns:rdf="http://www.w3.org/1999/02/22-rdf-syntax-ns#">
   <cc:Work>
    <dc:type rdf:resource="http://purl.org/dc/dcmitype/StillImage"/>
    <dc:date>2024-02-10T22:48:44.976066</dc:date>
    <dc:format>image/svg+xml</dc:format>
    <dc:creator>
     <cc:Agent>
      <dc:title>Matplotlib v3.8.0, https://matplotlib.org/</dc:title>
     </cc:Agent>
    </dc:creator>
   </cc:Work>
  </rdf:RDF>
 </metadata>
 <defs>
  <style type="text/css">*{stroke-linejoin: round; stroke-linecap: butt}</style>
 </defs>
 <g id="figure_1">
  <g id="patch_1">
   <path d="M 0 144 
L 144 144 
L 144 0 
L 0 0 
L 0 144 
z
" style="fill: none"/>
  </g>
  <g id="axes_1">
   <g id="patch_2">
    <path d="M 32.23024 118.497104 
L 138.022562 118.497104 
L 138.022562 3.488868 
L 32.23024 3.488868 
L 32.23024 118.497104 
z
" style="fill: none"/>
   </g>
   <g id="line2d_1">
    <path d="M 37.038982 113.269457 
L 133.21382 8.716516 
" clip-path="url(#pc13781666d)" style="fill: none; stroke: #000000; stroke-width: 1.5; stroke-linecap: square"/>
   </g>
   <g id="line2d_2">
    <path d="M 56.204956 92.605259 
L 59.207754 87.704264 
L 60.035496 84.472457 
L 63.09547 82.88851 
L 64.521224 81.956465 
L 65.739477 80.932063 
L 66.31592 80.123036 
L 68.372366 79.434289 
L 68.466926 78.902058 
L 68.767471 78.449809 
L 69.179728 78.125772 
L 69.466474 77.715481 
L 69.849707 77.488297 
L 70.545964 76.479491 
L 71.014858 76.252781 
L 71.751702 75.554396 
L 72.317295 75.227028 
L 72.676116 74.660956 
L 73.307111 73.931706 
L 74.45791 72.884113 
L 74.818646 72.549041 
L 75.029109 72.377465 
L 75.734976 71.491354 
L 75.918273 71.289101 
L 76.276175 70.856274 
L 76.466562 70.638348 
L 77.619559 69.181776 
L 77.790138 68.882974 
L 78.956789 67.478099 
L 79.13836 67.278471 
L 79.334386 67.056847 
L 80.308678 66.04317 
L 80.500342 65.896963 
L 80.762318 65.673336 
L 80.995138 65.410588 
L 81.169872 65.25537 
L 81.750999 64.769829 
L 86.480654 59.445026 
L 86.676717 59.153207 
L 86.786172 59.007673 
L 87.01013 58.774043 
L 87.211876 58.543981 
L 87.559373 58.203448 
L 88.006224 57.780174 
L 89.950907 55.855576 
L 90.079708 55.678053 
L 91.284158 54.480943 
L 91.472161 54.318798 
L 91.721724 54.048041 
L 92.699573 52.925788 
L 92.90139 52.656884 
L 93.311417 52.107038 
L 93.447454 51.932869 
L 93.615258 51.759609 
L 94.128242 50.946575 
L 94.50688 50.512554 
L 94.804078 50.299346 
L 94.965253 50.161133 
L 95.097353 49.981421 
L 95.466448 49.716657 
L 95.638733 49.437551 
L 96.012856 48.928122 
L 96.312545 48.300914 
L 96.627006 47.952809 
L 97.177813 47.590845 
L 97.46238 47.383437 
L 97.599237 47.040089 
L 97.83232 46.854744 
L 98.627123 46.561654 
L 98.72894 46.535349 
L 98.990414 46.169658 
L 99.346442 46.039076 
L 99.608559 45.672952 
L 99.975249 45.317856 
L 100.398135 44.895427 
L 101.20894 44.726614 
L 102.893222 43.919709 
L 103.894706 43.711522 
L 104.921212 42.919675 
L 107.70379 39.64855 
L 112.064593 38.01771 
L 114.25317 36.389485 
L 116.055203 35.477634 
L 116.055203 35.477634 
" clip-path="url(#pc13781666d)" style="fill: none; stroke: #033198; stroke-width: 1.5; stroke-linecap: square"/>
   </g>
   <g id="line2d_3">
    <path d="M 54.449115 113.269457 
L 57.110308 95.11906 
L 58.74956 92.787223 
L 60.492041 89.132769 
L 61.406572 88.003329 
L 62.780707 87.339894 
L 63.835749 86.327524 
L 64.673625 86.081183 
L 65.065971 85.507331 
L 65.729354 85.093162 
L 66.263757 84.518672 
L 67.659945 83.644663 
L 68.155272 82.913598 
L 68.947932 82.272405 
L 69.29383 81.976479 
L 70.793035 79.548611 
L 71.211835 78.826602 
L 71.80871 78.069726 
L 73.110969 76.159735 
L 76.141755 71.165303 
L 76.370845 70.717122 
L 76.662624 70.241661 
L 76.989177 69.76402 
L 77.211663 69.394806 
L 77.405991 69.120114 
L 77.602266 68.844404 
L 79.382277 66.51224 
L 79.724984 66.152103 
L 79.947684 65.936222 
L 82.739787 63.584626 
L 83.031326 63.347276 
L 83.959122 62.397331 
L 84.305655 61.910175 
L 84.535257 61.640016 
L 84.970326 61.172061 
L 85.244689 60.841096 
L 87.572342 58.389485 
L 87.866281 58.158829 
L 88.310999 57.842562 
L 88.590296 57.62799 
L 90.156738 56.225959 
L 90.804737 55.563978 
L 91.057406 55.300198 
L 92.921097 52.771542 
L 93.104125 52.475636 
L 93.353595 52.117306 
L 93.917078 51.177237 
L 94.089756 50.881468 
L 94.701565 49.824199 
L 95.628074 48.308327 
L 95.849532 47.957731 
L 97.594872 44.904697 
L 97.865392 44.532445 
L 98.333312 43.811835 
L 98.502568 43.449207 
L 99.773836 41.310054 
L 100.360117 40.536557 
L 101.686866 38.646248 
L 102.102015 38.499031 
L 102.900381 37.639746 
L 103.416574 37.373909 
L 103.983131 36.592888 
L 104.595161 36.286337 
L 106.295111 34.569778 
L 106.915779 33.97931 
L 107.554916 32.740345 
L 109.325204 32.215933 
L 110.943653 30.830833 
L 112.603625 29.262763 
L 114.286634 26.534872 
L 115.986817 18.002797 
L 115.986817 18.002797 
" clip-path="url(#pc13781666d)" style="fill: none; stroke: #399dc7; stroke-width: 1.5; stroke-linecap: square"/>
   </g>
   <g id="line2d_4">
    <path d="M 54.959929 103.378599 
L 57.077443 93.31126 
L 58.125407 90.473383 
L 59.586158 89.130572 
L 62.115946 86.021098 
L 63.617918 85.16271 
L 65.511958 83.712331 
L 66.012484 82.980516 
L 66.485383 82.570652 
L 66.750086 82.481286 
L 67.25949 81.979813 
L 67.506658 81.766629 
L 67.851328 81.271001 
L 68.807116 80.351031 
L 68.949552 80.123048 
L 69.952296 79.110741 
L 70.141168 78.846155 
L 70.530608 78.383707 
L 71.24461 77.478007 
L 71.466764 77.17561 
L 72.148911 76.273223 
L 72.369608 75.9715 
L 72.630182 75.563278 
L 72.903768 75.183454 
L 73.116534 74.895029 
L 73.304208 74.667033 
L 73.520438 74.379886 
L 74.649483 72.898037 
L 74.991096 72.460269 
L 75.234233 72.176842 
L 75.777002 71.379707 
L 76.04923 70.996164 
L 78.968281 67.354833 
L 79.450486 66.852537 
L 79.6256 66.688082 
L 80.429811 65.888363 
L 80.714307 65.612175 
L 81.288861 65.115216 
L 81.723086 64.749291 
L 82.652422 63.846471 
L 83.16322 63.27534 
L 83.452089 62.864933 
L 83.763025 62.420242 
L 84.090937 62.072208 
L 84.561828 61.613071 
L 85.00504 61.135478 
L 85.579905 60.474244 
L 86.203325 59.867788 
L 87.074318 58.742844 
L 88.445229 57.401098 
L 88.953323 56.98674 
L 90.985414 55.115135 
L 91.172223 54.906836 
L 91.963108 54.09604 
L 92.162276 53.88096 
L 92.367005 53.686476 
L 93.188857 52.647801 
L 93.379665 52.438186 
L 94.062816 51.504908 
L 94.289871 51.195662 
L 95.952008 48.924907 
L 96.107706 48.704544 
L 96.496281 48.223505 
L 96.747197 47.815462 
L 97.14737 47.326268 
L 97.437006 46.909658 
L 97.545358 46.767285 
L 98.110391 46.038987 
L 98.619384 45.436938 
L 98.98975 44.997133 
L 102.10438 41.388684 
L 102.414446 40.914216 
L 103.124216 40.42735 
L 103.430562 40.097216 
L 103.850332 39.871357 
L 105.084926 38.633321 
L 106.337487 37.906317 
L 106.804623 37.536385 
L 107.589624 37.299286 
L 108.548851 36.87199 
L 109.877191 35.127043 
L 112.111188 34.388759 
L 113.656707 33.741068 
L 115.649138 31.53808 
L 115.93626 28.555269 
L 115.93626 28.555269 
" clip-path="url(#pc13781666d)" style="fill: none; stroke: #c1eac2; stroke-width: 1.5; stroke-linecap: square"/>
   </g>
   <g id="line2d_5">
    <path d="M 54.201858 99.278059 
L 56.022492 92.367814 
L 58.114188 90.001483 
L 59.076582 89.292954 
L 59.544885 88.10726 
L 60.97171 87.543807 
L 61.813262 86.438495 
L 63.83251 84.403069 
L 64.290098 84.174964 
L 65.11187 83.17102 
L 66.335984 82.142552 
L 66.46333 81.911815 
L 67.008355 81.436287 
L 67.303355 81.008471 
L 67.705725 80.703842 
L 67.910303 80.457471 
L 68.615381 79.733855 
L 68.822809 79.372486 
L 69.375774 78.762287 
L 69.675135 78.501121 
L 70.320804 77.945168 
L 70.646682 77.425174 
L 71.27677 76.747029 
L 71.496033 76.46737 
L 73.549309 73.877305 
L 73.723967 73.629431 
L 74.23876 72.940697 
L 74.516666 72.582441 
L 74.971847 71.996399 
L 75.859276 70.820437 
L 76.109756 70.489298 
L 76.803829 69.636048 
L 76.971301 69.426139 
L 77.207596 69.155398 
L 78.265656 67.99744 
L 78.841292 67.405302 
L 79.044903 67.188544 
L 79.745008 66.518705 
L 80.004508 66.276689 
L 80.25476 66.032789 
L 81.110843 65.235165 
L 81.363121 65.015 
L 82.300816 63.984054 
L 82.56993 63.645036 
L 83.705657 62.292973 
L 84.113831 61.965628 
L 84.501274 61.616433 
L 84.784768 61.322285 
L 85.356164 60.620477 
L 85.810393 60.117253 
L 85.970512 59.941338 
L 87.228981 58.163017 
L 87.378568 57.989696 
L 87.796309 57.596772 
L 90.135164 55.563715 
L 90.388488 55.319648 
L 91.252501 54.507507 
L 91.516436 54.266982 
L 91.931403 53.826256 
L 92.076025 53.681171 
L 92.958733 52.686269 
L 93.287886 52.297634 
L 93.661136 51.867329 
L 93.808156 51.687513 
L 94.103861 51.331084 
L 94.584281 50.731456 
L 94.75911 50.520298 
L 94.912028 50.327898 
L 95.655058 49.30711 
L 96.014462 48.872261 
L 97.679742 46.57839 
L 97.896899 46.286293 
L 98.486944 45.510632 
L 98.628503 45.316119 
L 99.942413 43.648728 
L 100.193238 43.396843 
L 101.51314 41.932389 
L 101.740726 41.599172 
L 102.032833 41.201999 
L 102.729671 40.457733 
L 103.004327 39.953166 
L 103.532587 39.522707 
L 104.612691 38.333185 
L 105.225204 37.78974 
L 106.088346 37.394997 
L 107.206697 36.602803 
L 107.962579 36.067949 
L 108.365591 35.545655 
L 108.987349 35.223234 
L 109.849506 34.269955 
L 110.721788 33.611951 
L 111.571767 32.105413 
L 113.70954 30.237478 
L 115.039198 28.641628 
L 116.081158 25.115631 
L 116.081158 25.115631 
" clip-path="url(#pc13781666d)" style="fill: none; stroke: #b58b31; stroke-width: 1.5; stroke-linecap: square"/>
   </g>
   <g id="line2d_6">
    <path d="M 54.402441 100.52569 
L 55.346569 92.219003 
L 56.071622 91.534629 
L 56.443877 90.579153 
L 57.000238 89.519723 
L 58.449318 88.351797 
L 58.898968 88.101197 
L 59.554603 86.820459 
L 60.669643 86.086099 
L 61.268819 85.758608 
L 61.727954 85.227738 
L 62.004106 84.931317 
L 62.711439 84.485164 
L 62.787224 84.209033 
L 63.18045 83.86632 
L 64.083391 83.137396 
L 64.48082 82.701854 
L 64.72059 82.443568 
L 65.443817 81.889022 
L 65.78354 81.646062 
L 66.164093 81.31978 
L 66.413875 81.133734 
L 66.919487 80.624712 
L 67.503331 80.024799 
L 68.027028 79.678438 
L 68.212736 79.515971 
L 68.48806 79.305772 
L 68.64765 79.133223 
L 68.865862 78.938313 
L 69.136434 78.555537 
L 69.318948 78.410874 
L 69.553452 78.223397 
L 69.737389 78.069117 
L 70.335699 77.448954 
L 70.560206 77.20025 
L 70.748019 77.024867 
L 72.322947 75.462303 
L 72.666219 74.956336 
L 73.103946 74.424768 
L 74.513018 72.626415 
L 74.882334 72.176087 
L 75.026544 71.994464 
L 76.292842 70.401287 
L 76.599898 70.017459 
L 76.781613 69.804026 
L 76.949591 69.610485 
L 77.107215 69.437461 
L 77.289615 69.207211 
L 77.55575 68.887566 
L 79.258505 67.163858 
L 79.619237 66.811225 
L 79.818787 66.634828 
L 81.490308 64.99332 
L 82.459751 63.87696 
L 82.638134 63.663144 
L 85.54661 60.462143 
L 85.719323 60.260737 
L 86.78046 59.187739 
L 87.247118 58.594855 
L 87.436919 58.330536 
L 87.534136 58.179715 
L 87.987294 57.581479 
L 88.791247 56.757482 
L 89.01989 56.570468 
L 89.332429 56.22706 
L 89.781895 55.787302 
L 90.057792 55.505522 
L 90.607509 55.000457 
L 90.885413 54.763223 
L 91.109509 54.53025 
L 91.378092 54.310222 
L 92.253508 53.428089 
L 92.443734 53.245269 
L 92.616218 53.077849 
L 93.433922 52.153646 
L 93.666038 51.879145 
L 93.961718 51.548554 
L 94.33824 51.0974 
L 99.618203 44.687525 
L 99.784627 44.524874 
L 100.035783 44.256766 
L 101.416712 42.891708 
L 101.750985 42.607915 
L 102.314527 42.117608 
L 102.521408 41.904503 
L 102.925039 41.530663 
L 103.840391 40.692578 
L 104.089935 40.576816 
L 104.487527 40.224298 
L 105.380697 39.419485 
L 105.684085 39.089421 
L 105.935064 38.820916 
L 106.181875 38.629386 
L 106.357214 38.470876 
L 107.15463 37.597078 
L 107.66406 36.697718 
L 108.036399 36.551355 
L 108.561663 35.977655 
L 109.328931 35.384389 
L 110.506942 34.371215 
L 110.818402 33.462445 
L 112.387344 32.695171 
L 113.220814 31.754952 
L 114.167916 30.943553 
L 114.641501 29.562309 
L 115.08991 27.101729 
L 116.096614 23.359407 
L 116.096614 23.359407 
" clip-path="url(#pc13781666d)" style="fill: none; stroke: #7e1700; stroke-width: 1.5; stroke-linecap: square"/>
   </g>
   <g id="matplotlib.axis_1">
    <g id="xtick_1">
     <g id="line2d_7">
      <defs>
       <path id="m7a7a4a07c8" d="M 0 0 
L 0 3.5 
" style="stroke: #000000; stroke-width: 0.8"/>
      </defs>
      <g>
       <use xlink:href="#m7a7a4a07c8" x="33.427307" y="118.497104" style="stroke: #000000; stroke-width: 0.8"/>
      </g>
     </g>
     <g id="text_1">
      <!-- $\mathdefault{−300}$ -->
      <g transform="translate(27.777307 129.07601) scale(0.05 -0.05)">
       <defs>
        <path id="ArialMT-2212" d="M 3381 1997 
L 356 1997 
L 356 2522 
L 3381 2522 
L 3381 1997 
z
" transform="scale(0.015625)"/>
        <path id="ArialMT-33" d="M 269 1209 
L 831 1284 
Q 928 806 1161 595 
Q 1394 384 1728 384 
Q 2125 384 2398 659 
Q 2672 934 2672 1341 
Q 2672 1728 2419 1979 
Q 2166 2231 1775 2231 
Q 1616 2231 1378 2169 
L 1441 2663 
Q 1497 2656 1531 2656 
Q 1891 2656 2178 2843 
Q 2466 3031 2466 3422 
Q 2466 3731 2256 3934 
Q 2047 4138 1716 4138 
Q 1388 4138 1169 3931 
Q 950 3725 888 3313 
L 325 3413 
Q 428 3978 793 4289 
Q 1159 4600 1703 4600 
Q 2078 4600 2393 4439 
Q 2709 4278 2876 4000 
Q 3044 3722 3044 3409 
Q 3044 3113 2884 2869 
Q 2725 2625 2413 2481 
Q 2819 2388 3044 2092 
Q 3269 1797 3269 1353 
Q 3269 753 2831 336 
Q 2394 -81 1725 -81 
Q 1122 -81 723 278 
Q 325 638 269 1209 
z
" transform="scale(0.015625)"/>
        <path id="ArialMT-30" d="M 266 2259 
Q 266 3072 433 3567 
Q 600 4063 929 4331 
Q 1259 4600 1759 4600 
Q 2128 4600 2406 4451 
Q 2684 4303 2865 4023 
Q 3047 3744 3150 3342 
Q 3253 2941 3253 2259 
Q 3253 1453 3087 958 
Q 2922 463 2592 192 
Q 2263 -78 1759 -78 
Q 1097 -78 719 397 
Q 266 969 266 2259 
z
M 844 2259 
Q 844 1131 1108 757 
Q 1372 384 1759 384 
Q 2147 384 2411 759 
Q 2675 1134 2675 2259 
Q 2675 3391 2411 3762 
Q 2147 4134 1753 4134 
Q 1366 4134 1134 3806 
Q 844 3388 844 2259 
z
" transform="scale(0.015625)"/>
       </defs>
       <use xlink:href="#ArialMT-2212" transform="translate(0 0.125)"/>
       <use xlink:href="#ArialMT-33" transform="translate(58.398438 0.125)"/>
       <use xlink:href="#ArialMT-30" transform="translate(114.013672 0.125)"/>
       <use xlink:href="#ArialMT-30" transform="translate(169.628906 0.125)"/>
      </g>
     </g>
    </g>
    <g id="xtick_2">
     <g id="line2d_8">
      <g>
       <use xlink:href="#m7a7a4a07c8" x="50.660338" y="118.497104" style="stroke: #000000; stroke-width: 0.8"/>
      </g>
     </g>
     <g id="text_2">
      <!-- $\mathdefault{−200}$ -->
      <g transform="translate(45.010338 129.07601) scale(0.05 -0.05)">
       <defs>
        <path id="ArialMT-32" d="M 3222 541 
L 3222 0 
L 194 0 
Q 188 203 259 391 
Q 375 700 629 1000 
Q 884 1300 1366 1694 
Q 2113 2306 2375 2664 
Q 2638 3022 2638 3341 
Q 2638 3675 2398 3904 
Q 2159 4134 1775 4134 
Q 1369 4134 1125 3890 
Q 881 3647 878 3216 
L 300 3275 
Q 359 3922 746 4261 
Q 1134 4600 1788 4600 
Q 2447 4600 2831 4234 
Q 3216 3869 3216 3328 
Q 3216 3053 3103 2787 
Q 2991 2522 2730 2228 
Q 2469 1934 1863 1422 
Q 1356 997 1212 845 
Q 1069 694 975 541 
L 3222 541 
z
" transform="scale(0.015625)"/>
       </defs>
       <use xlink:href="#ArialMT-2212" transform="translate(0 0.125)"/>
       <use xlink:href="#ArialMT-32" transform="translate(58.398438 0.125)"/>
       <use xlink:href="#ArialMT-30" transform="translate(114.013672 0.125)"/>
       <use xlink:href="#ArialMT-30" transform="translate(169.628906 0.125)"/>
      </g>
     </g>
    </g>
    <g id="xtick_3">
     <g id="line2d_9">
      <g>
       <use xlink:href="#m7a7a4a07c8" x="67.89337" y="118.497104" style="stroke: #000000; stroke-width: 0.8"/>
      </g>
     </g>
     <g id="text_3">
      <!-- $\mathdefault{−100}$ -->
      <g transform="translate(62.24337 129.07601) scale(0.05 -0.05)">
       <defs>
        <path id="ArialMT-31" d="M 2384 0 
L 1822 0 
L 1822 3584 
Q 1619 3391 1289 3197 
Q 959 3003 697 2906 
L 697 3450 
Q 1169 3672 1522 3987 
Q 1875 4303 2022 4600 
L 2384 4600 
L 2384 0 
z
" transform="scale(0.015625)"/>
       </defs>
       <use xlink:href="#ArialMT-2212" transform="translate(0 0.125)"/>
       <use xlink:href="#ArialMT-31" transform="translate(58.398438 0.125)"/>
       <use xlink:href="#ArialMT-30" transform="translate(114.013672 0.125)"/>
       <use xlink:href="#ArialMT-30" transform="translate(169.628906 0.125)"/>
      </g>
     </g>
    </g>
    <g id="xtick_4">
     <g id="line2d_10">
      <g>
       <use xlink:href="#m7a7a4a07c8" x="85.126401" y="118.497104" style="stroke: #000000; stroke-width: 0.8"/>
      </g>
     </g>
     <g id="text_4">
      <!-- $\mathdefault{0}$ -->
      <g transform="translate(83.726401 129.07601) scale(0.05 -0.05)">
       <use xlink:href="#ArialMT-30" transform="translate(0 0.125)"/>
      </g>
     </g>
    </g>
    <g id="xtick_5">
     <g id="line2d_11">
      <g>
       <use xlink:href="#m7a7a4a07c8" x="102.359432" y="118.497104" style="stroke: #000000; stroke-width: 0.8"/>
      </g>
     </g>
     <g id="text_5">
      <!-- $\mathdefault{100}$ -->
      <g transform="translate(98.184432 129.07601) scale(0.05 -0.05)">
       <use xlink:href="#ArialMT-31" transform="translate(0 0.125)"/>
       <use xlink:href="#ArialMT-30" transform="translate(55.615234 0.125)"/>
       <use xlink:href="#ArialMT-30" transform="translate(111.230469 0.125)"/>
      </g>
     </g>
    </g>
    <g id="xtick_6">
     <g id="line2d_12">
      <g>
       <use xlink:href="#m7a7a4a07c8" x="119.592464" y="118.497104" style="stroke: #000000; stroke-width: 0.8"/>
      </g>
     </g>
     <g id="text_6">
      <!-- $\mathdefault{200}$ -->
      <g transform="translate(115.417464 129.07601) scale(0.05 -0.05)">
       <use xlink:href="#ArialMT-32" transform="translate(0 0.125)"/>
       <use xlink:href="#ArialMT-30" transform="translate(55.615234 0.125)"/>
       <use xlink:href="#ArialMT-30" transform="translate(111.230469 0.125)"/>
      </g>
     </g>
    </g>
    <g id="xtick_7">
     <g id="line2d_13">
      <g>
       <use xlink:href="#m7a7a4a07c8" x="136.825495" y="118.497104" style="stroke: #000000; stroke-width: 0.8"/>
      </g>
     </g>
     <g id="text_7">
      <!-- $\mathdefault{300}$ -->
      <g transform="translate(132.650495 129.07601) scale(0.05 -0.05)">
       <use xlink:href="#ArialMT-33" transform="translate(0 0.125)"/>
       <use xlink:href="#ArialMT-30" transform="translate(55.615234 0.125)"/>
       <use xlink:href="#ArialMT-30" transform="translate(111.230469 0.125)"/>
      </g>
     </g>
    </g>
    <g id="text_8">
     <!-- $\delta \theta$ (°) - quantiles from data -->
     <g transform="translate(43.231401 139.45976) scale(0.07 -0.07)">
      <defs>
       <path id="DejaVuSans-Oblique-3b4" d="M 3472 4053 
Q 3197 4272 2450 4272 
Q 1659 4272 1588 3906 
Q 1531 3619 2328 3469 
Q 2953 3353 3253 3003 
Q 3616 2581 3447 1716 
Q 3284 888 2763 400 
Q 2238 -91 1488 -91 
Q 741 -91 406 400 
Q 72 888 241 1747 
Q 363 2384 891 2900 
Q 1097 3100 1353 3213 
Q 913 3459 1000 3900 
Q 1166 4750 2544 4750 
Q 3234 4750 3566 4531 
L 3472 4053 
z
M 1753 3056 
Q 1525 2966 1306 2738 
Q 969 2384 847 1747 
Q 722 1113 919 756 
Q 1119 397 1584 397 
Q 2044 397 2381 759 
Q 2722 1122 2838 1716 
Q 2956 2338 2731 2638 
Q 2491 2959 2103 2994 
Q 1906 3013 1753 3056 
z
" transform="scale(0.015625)"/>
       <path id="DejaVuSans-Oblique-3b8" d="M 2913 2219 
L 925 2219 
Q 791 1284 928 888 
Q 1100 400 1566 400 
Q 2034 400 2391 891 
Q 2703 1322 2913 2219 
z
M 3009 2750 
Q 3094 3638 2984 3950 
Q 2813 4444 2353 4444 
Q 1875 4444 1525 3956 
Q 1250 3563 1034 2750 
L 3009 2750 
z
M 2444 4913 
Q 3194 4913 3494 4250 
Q 3794 3591 3566 2422 
Q 3341 1256 2781 594 
Q 2225 -72 1475 -72 
Q 722 -72 425 594 
Q 128 1256 353 2422 
Q 581 3591 1134 4250 
Q 1691 4913 2444 4913 
z
" transform="scale(0.015625)"/>
       <path id="ArialMT-20" transform="scale(0.015625)"/>
       <path id="ArialMT-28" d="M 1497 -1347 
Q 1031 -759 709 28 
Q 388 816 388 1659 
Q 388 2403 628 3084 
Q 909 3875 1497 4659 
L 1900 4659 
Q 1522 4009 1400 3731 
Q 1209 3300 1100 2831 
Q 966 2247 966 1656 
Q 966 153 1900 -1347 
L 1497 -1347 
z
" transform="scale(0.015625)"/>
       <path id="ArialMT-b0" d="M 400 3794 
Q 400 4153 654 4406 
Q 909 4659 1266 4659 
Q 1628 4659 1881 4406 
Q 2134 4153 2134 3794 
Q 2134 3434 1879 3179 
Q 1625 2925 1266 2925 
Q 909 2925 654 3178 
Q 400 3431 400 3794 
z
M 741 3794 
Q 741 3575 895 3420 
Q 1050 3266 1269 3266 
Q 1484 3266 1639 3420 
Q 1794 3575 1794 3794 
Q 1794 4013 1639 4167 
Q 1484 4322 1269 4322 
Q 1050 4322 895 4167 
Q 741 4013 741 3794 
z
" transform="scale(0.015625)"/>
       <path id="ArialMT-29" d="M 791 -1347 
L 388 -1347 
Q 1322 153 1322 1656 
Q 1322 2244 1188 2822 
Q 1081 3291 891 3722 
Q 769 4003 388 4659 
L 791 4659 
Q 1378 3875 1659 3084 
Q 1900 2403 1900 1659 
Q 1900 816 1576 28 
Q 1253 -759 791 -1347 
z
" transform="scale(0.015625)"/>
       <path id="ArialMT-2d" d="M 203 1375 
L 203 1941 
L 1931 1941 
L 1931 1375 
L 203 1375 
z
" transform="scale(0.015625)"/>
       <path id="ArialMT-71" d="M 2538 -1272 
L 2538 353 
Q 2406 169 2170 47 
Q 1934 -75 1669 -75 
Q 1078 -75 651 397 
Q 225 869 225 1691 
Q 225 2191 398 2587 
Q 572 2984 901 3189 
Q 1231 3394 1625 3394 
Q 2241 3394 2594 2875 
L 2594 3319 
L 3100 3319 
L 3100 -1272 
L 2538 -1272 
z
M 803 1669 
Q 803 1028 1072 708 
Q 1341 388 1716 388 
Q 2075 388 2334 692 
Q 2594 997 2594 1619 
Q 2594 2281 2320 2615 
Q 2047 2950 1678 2950 
Q 1313 2950 1058 2639 
Q 803 2328 803 1669 
z
" transform="scale(0.015625)"/>
       <path id="ArialMT-75" d="M 2597 0 
L 2597 488 
Q 2209 -75 1544 -75 
Q 1250 -75 995 37 
Q 741 150 617 320 
Q 494 491 444 738 
Q 409 903 409 1263 
L 409 3319 
L 972 3319 
L 972 1478 
Q 972 1038 1006 884 
Q 1059 663 1231 536 
Q 1403 409 1656 409 
Q 1909 409 2131 539 
Q 2353 669 2445 892 
Q 2538 1116 2538 1541 
L 2538 3319 
L 3100 3319 
L 3100 0 
L 2597 0 
z
" transform="scale(0.015625)"/>
       <path id="ArialMT-61" d="M 2588 409 
Q 2275 144 1986 34 
Q 1697 -75 1366 -75 
Q 819 -75 525 192 
Q 231 459 231 875 
Q 231 1119 342 1320 
Q 453 1522 633 1644 
Q 813 1766 1038 1828 
Q 1203 1872 1538 1913 
Q 2219 1994 2541 2106 
Q 2544 2222 2544 2253 
Q 2544 2597 2384 2738 
Q 2169 2928 1744 2928 
Q 1347 2928 1158 2789 
Q 969 2650 878 2297 
L 328 2372 
Q 403 2725 575 2942 
Q 747 3159 1072 3276 
Q 1397 3394 1825 3394 
Q 2250 3394 2515 3294 
Q 2781 3194 2906 3042 
Q 3031 2891 3081 2659 
Q 3109 2516 3109 2141 
L 3109 1391 
Q 3109 606 3145 398 
Q 3181 191 3288 0 
L 2700 0 
Q 2613 175 2588 409 
z
M 2541 1666 
Q 2234 1541 1622 1453 
Q 1275 1403 1131 1340 
Q 988 1278 909 1158 
Q 831 1038 831 891 
Q 831 666 1001 516 
Q 1172 366 1500 366 
Q 1825 366 2078 508 
Q 2331 650 2450 897 
Q 2541 1088 2541 1459 
L 2541 1666 
z
" transform="scale(0.015625)"/>
       <path id="ArialMT-6e" d="M 422 0 
L 422 3319 
L 928 3319 
L 928 2847 
Q 1294 3394 1984 3394 
Q 2284 3394 2536 3286 
Q 2788 3178 2913 3003 
Q 3038 2828 3088 2588 
Q 3119 2431 3119 2041 
L 3119 0 
L 2556 0 
L 2556 2019 
Q 2556 2363 2490 2533 
Q 2425 2703 2258 2804 
Q 2091 2906 1866 2906 
Q 1506 2906 1245 2678 
Q 984 2450 984 1813 
L 984 0 
L 422 0 
z
" transform="scale(0.015625)"/>
       <path id="ArialMT-74" d="M 1650 503 
L 1731 6 
Q 1494 -44 1306 -44 
Q 1000 -44 831 53 
Q 663 150 594 308 
Q 525 466 525 972 
L 525 2881 
L 113 2881 
L 113 3319 
L 525 3319 
L 525 4141 
L 1084 4478 
L 1084 3319 
L 1650 3319 
L 1650 2881 
L 1084 2881 
L 1084 941 
Q 1084 700 1114 631 
Q 1144 563 1211 522 
Q 1278 481 1403 481 
Q 1497 481 1650 503 
z
" transform="scale(0.015625)"/>
       <path id="ArialMT-69" d="M 425 3934 
L 425 4581 
L 988 4581 
L 988 3934 
L 425 3934 
z
M 425 0 
L 425 3319 
L 988 3319 
L 988 0 
L 425 0 
z
" transform="scale(0.015625)"/>
       <path id="ArialMT-6c" d="M 409 0 
L 409 4581 
L 972 4581 
L 972 0 
L 409 0 
z
" transform="scale(0.015625)"/>
       <path id="ArialMT-65" d="M 2694 1069 
L 3275 997 
Q 3138 488 2766 206 
Q 2394 -75 1816 -75 
Q 1088 -75 661 373 
Q 234 822 234 1631 
Q 234 2469 665 2931 
Q 1097 3394 1784 3394 
Q 2450 3394 2872 2941 
Q 3294 2488 3294 1666 
Q 3294 1616 3291 1516 
L 816 1516 
Q 847 969 1125 678 
Q 1403 388 1819 388 
Q 2128 388 2347 550 
Q 2566 713 2694 1069 
z
M 847 1978 
L 2700 1978 
Q 2663 2397 2488 2606 
Q 2219 2931 1791 2931 
Q 1403 2931 1139 2672 
Q 875 2413 847 1978 
z
" transform="scale(0.015625)"/>
       <path id="ArialMT-73" d="M 197 991 
L 753 1078 
Q 800 744 1014 566 
Q 1228 388 1613 388 
Q 2000 388 2187 545 
Q 2375 703 2375 916 
Q 2375 1106 2209 1216 
Q 2094 1291 1634 1406 
Q 1016 1563 777 1677 
Q 538 1791 414 1992 
Q 291 2194 291 2438 
Q 291 2659 392 2848 
Q 494 3038 669 3163 
Q 800 3259 1026 3326 
Q 1253 3394 1513 3394 
Q 1903 3394 2198 3281 
Q 2494 3169 2634 2976 
Q 2775 2784 2828 2463 
L 2278 2388 
Q 2241 2644 2061 2787 
Q 1881 2931 1553 2931 
Q 1166 2931 1000 2803 
Q 834 2675 834 2503 
Q 834 2394 903 2306 
Q 972 2216 1119 2156 
Q 1203 2125 1616 2013 
Q 2213 1853 2448 1751 
Q 2684 1650 2818 1456 
Q 2953 1263 2953 975 
Q 2953 694 2789 445 
Q 2625 197 2315 61 
Q 2006 -75 1616 -75 
Q 969 -75 630 194 
Q 291 463 197 991 
z
" transform="scale(0.015625)"/>
       <path id="ArialMT-66" d="M 556 0 
L 556 2881 
L 59 2881 
L 59 3319 
L 556 3319 
L 556 3672 
Q 556 4006 616 4169 
Q 697 4388 901 4523 
Q 1106 4659 1475 4659 
Q 1713 4659 2000 4603 
L 1916 4113 
Q 1741 4144 1584 4144 
Q 1328 4144 1222 4034 
Q 1116 3925 1116 3625 
L 1116 3319 
L 1763 3319 
L 1763 2881 
L 1116 2881 
L 1116 0 
L 556 0 
z
" transform="scale(0.015625)"/>
       <path id="ArialMT-72" d="M 416 0 
L 416 3319 
L 922 3319 
L 922 2816 
Q 1116 3169 1280 3281 
Q 1444 3394 1641 3394 
Q 1925 3394 2219 3213 
L 2025 2691 
Q 1819 2813 1613 2813 
Q 1428 2813 1281 2702 
Q 1134 2591 1072 2394 
Q 978 2094 978 1738 
L 978 0 
L 416 0 
z
" transform="scale(0.015625)"/>
       <path id="ArialMT-6f" d="M 213 1659 
Q 213 2581 725 3025 
Q 1153 3394 1769 3394 
Q 2453 3394 2887 2945 
Q 3322 2497 3322 1706 
Q 3322 1066 3130 698 
Q 2938 331 2570 128 
Q 2203 -75 1769 -75 
Q 1072 -75 642 372 
Q 213 819 213 1659 
z
M 791 1659 
Q 791 1022 1069 705 
Q 1347 388 1769 388 
Q 2188 388 2466 706 
Q 2744 1025 2744 1678 
Q 2744 2294 2464 2611 
Q 2184 2928 1769 2928 
Q 1347 2928 1069 2612 
Q 791 2297 791 1659 
z
" transform="scale(0.015625)"/>
       <path id="ArialMT-6d" d="M 422 0 
L 422 3319 
L 925 3319 
L 925 2853 
Q 1081 3097 1340 3245 
Q 1600 3394 1931 3394 
Q 2300 3394 2536 3241 
Q 2772 3088 2869 2813 
Q 3263 3394 3894 3394 
Q 4388 3394 4653 3120 
Q 4919 2847 4919 2278 
L 4919 0 
L 4359 0 
L 4359 2091 
Q 4359 2428 4304 2576 
Q 4250 2725 4106 2815 
Q 3963 2906 3769 2906 
Q 3419 2906 3187 2673 
Q 2956 2441 2956 1928 
L 2956 0 
L 2394 0 
L 2394 2156 
Q 2394 2531 2256 2718 
Q 2119 2906 1806 2906 
Q 1569 2906 1367 2781 
Q 1166 2656 1075 2415 
Q 984 2175 984 1722 
L 984 0 
L 422 0 
z
" transform="scale(0.015625)"/>
       <path id="ArialMT-64" d="M 2575 0 
L 2575 419 
Q 2259 -75 1647 -75 
Q 1250 -75 917 144 
Q 584 363 401 755 
Q 219 1147 219 1656 
Q 219 2153 384 2558 
Q 550 2963 881 3178 
Q 1213 3394 1622 3394 
Q 1922 3394 2156 3267 
Q 2391 3141 2538 2938 
L 2538 4581 
L 3097 4581 
L 3097 0 
L 2575 0 
z
M 797 1656 
Q 797 1019 1065 703 
Q 1334 388 1700 388 
Q 2069 388 2326 689 
Q 2584 991 2584 1609 
Q 2584 2291 2321 2609 
Q 2059 2928 1675 2928 
Q 1300 2928 1048 2622 
Q 797 2316 797 1656 
z
" transform="scale(0.015625)"/>
      </defs>
      <use xlink:href="#DejaVuSans-Oblique-3b4" transform="translate(0 0.234375)"/>
      <use xlink:href="#DejaVuSans-Oblique-3b8" transform="translate(61.181641 0.234375)"/>
      <use xlink:href="#ArialMT-20" transform="translate(122.363281 0.234375)"/>
      <use xlink:href="#ArialMT-28" transform="translate(150.146484 0.234375)"/>
      <use xlink:href="#ArialMT-b0" transform="translate(183.447266 0.234375)"/>
      <use xlink:href="#ArialMT-29" transform="translate(223.4375 0.234375)"/>
      <use xlink:href="#ArialMT-20" transform="translate(256.738281 0.234375)"/>
      <use xlink:href="#ArialMT-2d" transform="translate(284.521484 0.234375)"/>
      <use xlink:href="#ArialMT-20" transform="translate(317.822266 0.234375)"/>
      <use xlink:href="#ArialMT-71" transform="translate(345.605469 0.234375)"/>
      <use xlink:href="#ArialMT-75" transform="translate(401.220703 0.234375)"/>
      <use xlink:href="#ArialMT-61" transform="translate(456.835938 0.234375)"/>
      <use xlink:href="#ArialMT-6e" transform="translate(512.451172 0.234375)"/>
      <use xlink:href="#ArialMT-74" transform="translate(568.066406 0.234375)"/>
      <use xlink:href="#ArialMT-69" transform="translate(595.849609 0.234375)"/>
      <use xlink:href="#ArialMT-6c" transform="translate(618.066406 0.234375)"/>
      <use xlink:href="#ArialMT-65" transform="translate(640.283203 0.234375)"/>
      <use xlink:href="#ArialMT-73" transform="translate(695.898438 0.234375)"/>
      <use xlink:href="#ArialMT-20" transform="translate(745.898438 0.234375)"/>
      <use xlink:href="#ArialMT-66" transform="translate(773.681641 0.234375)"/>
      <use xlink:href="#ArialMT-72" transform="translate(801.464844 0.234375)"/>
      <use xlink:href="#ArialMT-6f" transform="translate(834.765625 0.234375)"/>
      <use xlink:href="#ArialMT-6d" transform="translate(890.380859 0.234375)"/>
      <use xlink:href="#ArialMT-20" transform="translate(973.681641 0.234375)"/>
      <use xlink:href="#ArialMT-64" transform="translate(1001.464844 0.234375)"/>
      <use xlink:href="#ArialMT-61" transform="translate(1057.080078 0.234375)"/>
      <use xlink:href="#ArialMT-74" transform="translate(1112.695312 0.234375)"/>
      <use xlink:href="#ArialMT-61" transform="translate(1140.478516 0.234375)"/>
     </g>
    </g>
   </g>
   <g id="matplotlib.axis_2">
    <g id="ytick_1">
     <g id="line2d_14">
      <defs>
       <path id="m44a0efd497" d="M 0 0 
L -3.5 0 
" style="stroke: #000000; stroke-width: 0.8"/>
      </defs>
      <g>
       <use xlink:href="#m44a0efd497" x="32.23024" y="117.195756" style="stroke: #000000; stroke-width: 0.8"/>
      </g>
     </g>
     <g id="text_9">
      <!-- $\mathdefault{−300}$ -->
      <g transform="translate(13.93024 118.98521) scale(0.05 -0.05)">
       <use xlink:href="#ArialMT-2212" transform="translate(0 0.125)"/>
       <use xlink:href="#ArialMT-33" transform="translate(58.398438 0.125)"/>
       <use xlink:href="#ArialMT-30" transform="translate(114.013672 0.125)"/>
       <use xlink:href="#ArialMT-30" transform="translate(169.628906 0.125)"/>
      </g>
     </g>
    </g>
    <g id="ytick_2">
     <g id="line2d_15">
      <g>
       <use xlink:href="#m44a0efd497" x="32.23024" y="98.4615" style="stroke: #000000; stroke-width: 0.8"/>
      </g>
     </g>
     <g id="text_10">
      <!-- $\mathdefault{−200}$ -->
      <g transform="translate(13.93024 100.250953) scale(0.05 -0.05)">
       <use xlink:href="#ArialMT-2212" transform="translate(0 0.125)"/>
       <use xlink:href="#ArialMT-32" transform="translate(58.398438 0.125)"/>
       <use xlink:href="#ArialMT-30" transform="translate(114.013672 0.125)"/>
       <use xlink:href="#ArialMT-30" transform="translate(169.628906 0.125)"/>
      </g>
     </g>
    </g>
    <g id="ytick_3">
     <g id="line2d_16">
      <g>
       <use xlink:href="#m44a0efd497" x="32.23024" y="79.727243" style="stroke: #000000; stroke-width: 0.8"/>
      </g>
     </g>
     <g id="text_11">
      <!-- $\mathdefault{−100}$ -->
      <g transform="translate(13.93024 81.516696) scale(0.05 -0.05)">
       <use xlink:href="#ArialMT-2212" transform="translate(0 0.125)"/>
       <use xlink:href="#ArialMT-31" transform="translate(58.398438 0.125)"/>
       <use xlink:href="#ArialMT-30" transform="translate(114.013672 0.125)"/>
       <use xlink:href="#ArialMT-30" transform="translate(169.628906 0.125)"/>
      </g>
     </g>
    </g>
    <g id="ytick_4">
     <g id="line2d_17">
      <g>
       <use xlink:href="#m44a0efd497" x="32.23024" y="60.992986" style="stroke: #000000; stroke-width: 0.8"/>
      </g>
     </g>
     <g id="text_12">
      <!-- $\mathdefault{0}$ -->
      <g transform="translate(22.43024 62.782439) scale(0.05 -0.05)">
       <use xlink:href="#ArialMT-30" transform="translate(0 0.125)"/>
      </g>
     </g>
    </g>
    <g id="ytick_5">
     <g id="line2d_18">
      <g>
       <use xlink:href="#m44a0efd497" x="32.23024" y="42.258729" style="stroke: #000000; stroke-width: 0.8"/>
      </g>
     </g>
     <g id="text_13">
      <!-- $\mathdefault{100}$ -->
      <g transform="translate(16.88024 44.048182) scale(0.05 -0.05)">
       <use xlink:href="#ArialMT-31" transform="translate(0 0.125)"/>
       <use xlink:href="#ArialMT-30" transform="translate(55.615234 0.125)"/>
       <use xlink:href="#ArialMT-30" transform="translate(111.230469 0.125)"/>
      </g>
     </g>
    </g>
    <g id="ytick_6">
     <g id="line2d_19">
      <g>
       <use xlink:href="#m44a0efd497" x="32.23024" y="23.524473" style="stroke: #000000; stroke-width: 0.8"/>
      </g>
     </g>
     <g id="text_14">
      <!-- $\mathdefault{200}$ -->
      <g transform="translate(16.88024 25.313926) scale(0.05 -0.05)">
       <use xlink:href="#ArialMT-32" transform="translate(0 0.125)"/>
       <use xlink:href="#ArialMT-30" transform="translate(55.615234 0.125)"/>
       <use xlink:href="#ArialMT-30" transform="translate(111.230469 0.125)"/>
      </g>
     </g>
    </g>
    <g id="ytick_7">
     <g id="line2d_20">
      <g>
       <use xlink:href="#m44a0efd497" x="32.23024" y="4.790216" style="stroke: #000000; stroke-width: 0.8"/>
      </g>
     </g>
     <g id="text_15">
      <!-- $\mathdefault{300}$ -->
      <g transform="translate(16.88024 6.579669) scale(0.05 -0.05)">
       <use xlink:href="#ArialMT-33" transform="translate(0 0.125)"/>
       <use xlink:href="#ArialMT-30" transform="translate(55.615234 0.125)"/>
       <use xlink:href="#ArialMT-30" transform="translate(111.230469 0.125)"/>
      </g>
     </g>
    </g>
    <g id="text_16">
     <!-- $\delta \theta$ (°) - quantiles from HMM 3-state -->
     <g transform="translate(8.39024 116.082986) rotate(-90) scale(0.07 -0.07)">
      <defs>
       <path id="ArialMT-48" d="M 513 0 
L 513 4581 
L 1119 4581 
L 1119 2700 
L 3500 2700 
L 3500 4581 
L 4106 4581 
L 4106 0 
L 3500 0 
L 3500 2159 
L 1119 2159 
L 1119 0 
L 513 0 
z
" transform="scale(0.015625)"/>
       <path id="ArialMT-4d" d="M 475 0 
L 475 4581 
L 1388 4581 
L 2472 1338 
Q 2622 884 2691 659 
Q 2769 909 2934 1394 
L 4031 4581 
L 4847 4581 
L 4847 0 
L 4263 0 
L 4263 3834 
L 2931 0 
L 2384 0 
L 1059 3900 
L 1059 0 
L 475 0 
z
" transform="scale(0.015625)"/>
      </defs>
      <use xlink:href="#DejaVuSans-Oblique-3b4" transform="translate(0 0.234375)"/>
      <use xlink:href="#DejaVuSans-Oblique-3b8" transform="translate(61.181641 0.234375)"/>
      <use xlink:href="#ArialMT-20" transform="translate(122.363281 0.234375)"/>
      <use xlink:href="#ArialMT-28" transform="translate(150.146484 0.234375)"/>
      <use xlink:href="#ArialMT-b0" transform="translate(183.447266 0.234375)"/>
      <use xlink:href="#ArialMT-29" transform="translate(223.4375 0.234375)"/>
      <use xlink:href="#ArialMT-20" transform="translate(256.738281 0.234375)"/>
      <use xlink:href="#ArialMT-2d" transform="translate(284.521484 0.234375)"/>
      <use xlink:href="#ArialMT-20" transform="translate(317.822266 0.234375)"/>
      <use xlink:href="#ArialMT-71" transform="translate(345.605469 0.234375)"/>
      <use xlink:href="#ArialMT-75" transform="translate(401.220703 0.234375)"/>
      <use xlink:href="#ArialMT-61" transform="translate(456.835938 0.234375)"/>
      <use xlink:href="#ArialMT-6e" transform="translate(512.451172 0.234375)"/>
      <use xlink:href="#ArialMT-74" transform="translate(568.066406 0.234375)"/>
      <use xlink:href="#ArialMT-69" transform="translate(595.849609 0.234375)"/>
      <use xlink:href="#ArialMT-6c" transform="translate(618.066406 0.234375)"/>
      <use xlink:href="#ArialMT-65" transform="translate(640.283203 0.234375)"/>
      <use xlink:href="#ArialMT-73" transform="translate(695.898438 0.234375)"/>
      <use xlink:href="#ArialMT-20" transform="translate(745.898438 0.234375)"/>
      <use xlink:href="#ArialMT-66" transform="translate(773.681641 0.234375)"/>
      <use xlink:href="#ArialMT-72" transform="translate(801.464844 0.234375)"/>
      <use xlink:href="#ArialMT-6f" transform="translate(834.765625 0.234375)"/>
      <use xlink:href="#ArialMT-6d" transform="translate(890.380859 0.234375)"/>
      <use xlink:href="#ArialMT-20" transform="translate(973.681641 0.234375)"/>
      <use xlink:href="#ArialMT-48" transform="translate(1001.464844 0.234375)"/>
      <use xlink:href="#ArialMT-4d" transform="translate(1073.681641 0.234375)"/>
      <use xlink:href="#ArialMT-4d" transform="translate(1156.982422 0.234375)"/>
      <use xlink:href="#ArialMT-20" transform="translate(1240.283203 0.234375)"/>
      <use xlink:href="#ArialMT-33" transform="translate(1268.066406 0.234375)"/>
      <use xlink:href="#ArialMT-2d" transform="translate(1323.681641 0.234375)"/>
      <use xlink:href="#ArialMT-73" transform="translate(1356.982422 0.234375)"/>
      <use xlink:href="#ArialMT-74" transform="translate(1406.982422 0.234375)"/>
      <use xlink:href="#ArialMT-61" transform="translate(1434.765625 0.234375)"/>
      <use xlink:href="#ArialMT-74" transform="translate(1490.380859 0.234375)"/>
      <use xlink:href="#ArialMT-65" transform="translate(1518.164062 0.234375)"/>
     </g>
    </g>
   </g>
   <g id="patch_3">
    <path d="M 32.23024 118.497104 
L 32.23024 3.488868 
" style="fill: none; stroke: #000000; stroke-width: 0.8; stroke-linejoin: miter; stroke-linecap: square"/>
   </g>
   <g id="patch_4">
    <path d="M 32.23024 118.497104 
L 138.022562 118.497104 
" style="fill: none; stroke: #000000; stroke-width: 0.8; stroke-linejoin: miter; stroke-linecap: square"/>
   </g>
   <g id="patch_5">
    <path d="M 76.509885 70.360115 
L 93.742917 70.360115 
L 93.742917 51.625858 
L 76.509885 51.625858 
L 76.509885 70.360115 
z
" clip-path="url(#pc13781666d)" style="fill: none; opacity: 0.5; stroke: #000000; stroke-linejoin: miter"/>
   </g>
   <g id="axes_2">
    <g id="patch_6">
     <path d="M 88.300171 116.196939 
L 135.906716 116.196939 
L 135.906716 64.443233 
L 88.300171 64.443233 
L 88.300171 116.196939 
z
" style="fill: none"/>
    </g>
    <g id="line2d_21">
     <path d="M 88.2676 116.867102 
L 89.398617 115.789038 
L 89.546693 115.446307 
L 91.009607 113.422085 
L 91.187958 113.225717 
L 91.533696 112.58903 
L 92.417833 111.376731 
L 92.869601 110.931944 
L 92.988338 110.714356 
L 93.214933 110.508338 
L 93.584883 110.031436 
L 93.903424 109.466943 
L 94.530476 108.647452 
L 94.880823 108.434483 
L 95.588802 107.625727 
L 95.720587 107.461307 
L 95.886793 107.30227 
L 97.817759 105.195188 
L 99.403411 103.796855 
L 99.536658 103.673318 
L 99.711977 103.482945 
L 101.315852 101.979014 
L 101.569025 101.74713 
L 101.725699 101.600814 
L 101.985303 101.373821 
L 102.722781 100.807106 
L 103.049653 100.502823 
L 104.433633 99.163322 
L 104.708536 98.94184 
L 104.864991 98.804335 
L 105.062162 98.607031 
L 105.558498 97.959396 
L 105.797228 97.736434 
L 105.955398 97.563145 
L 106.10785 97.418499 
L 106.389674 97.140751 
L 106.80096 96.61253 
L 106.941503 96.469865 
L 107.574576 95.773565 
L 107.751537 95.53228 
L 107.953453 95.279404 
L 108.391275 94.679268 
L 108.551354 94.448949 
L 108.750815 94.095475 
L 109.008266 93.716772 
L 109.147949 93.535368 
L 109.647463 92.938207 
L 109.995933 92.558726 
L 110.141198 92.412424 
L 111.153602 91.40439 
L 111.302877 91.258298 
L 111.570187 90.982163 
L 112.088987 90.357215 
L 112.347568 90.035571 
L 112.470479 89.890289 
L 113.548334 88.753082 
L 113.715036 88.585592 
L 113.962612 88.340326 
L 114.099448 88.216925 
L 114.512656 87.803726 
L 116.258751 85.416242 
L 116.411504 85.200388 
L 116.882641 84.606599 
L 117.017142 84.48816 
L 117.403315 84.095017 
L 117.68885 83.772604 
L 118.38077 83.051221 
L 119.256404 82.205563 
L 119.443701 82.02089 
L 119.694328 81.784786 
L 120.980637 80.59457 
L 121.18718 80.410331 
L 121.932263 79.750285 
L 122.062108 79.59887 
L 122.361687 79.320087 
L 123.446938 78.158736 
L 124.023952 77.593255 
L 124.915466 76.687164 
L 125.235582 76.318951 
L 125.921985 75.501908 
L 126.101532 75.352204 
L 126.389991 75.110093 
L 126.828049 74.75487 
L 126.952519 74.568296 
L 127.208605 74.288229 
L 127.454851 74.022663 
L 127.988102 73.467812 
L 128.149981 73.276565 
L 128.967547 72.411251 
L 129.371712 72.133214 
L 129.555459 71.910632 
L 129.674937 71.805038 
L 130.400072 71.04985 
L 130.766288 70.663606 
L 131.044347 70.39402 
L 131.247765 70.124803 
L 131.456629 69.950968 
L 131.918569 69.255963 
L 133.383919 67.546563 
L 133.581983 67.29146 
L 134.134033 66.577132 
L 134.372856 66.267578 
L 134.465879 66.119589 
L 134.620265 65.855364 
L 134.71469 65.772503 
L 134.878311 65.521346 
L 135.063629 65.338424 
L 135.284107 65.157599 
L 135.663583 64.605177 
L 135.88236 64.020709 
L 135.931016 63.935404 
L 135.931016 63.935404 
" clip-path="url(#p069b65bc58)" style="fill: none; stroke: #033198; stroke-width: 1.5; stroke-linecap: square"/>
    </g>
    <g id="line2d_22">
     <path d="M 88.284746 116.504883 
L 89.02251 115.452182 
L 89.397243 114.98745 
L 90.011873 113.926461 
L 90.230323 113.547731 
L 90.592534 113.025887 
L 90.855455 112.638691 
L 91.210166 112.18155 
L 95.451252 106.469844 
L 95.637199 106.233257 
L 95.874712 105.944186 
L 96.019379 105.782485 
L 96.579137 105.222895 
L 101.409849 100.63056 
L 101.821629 100.278179 
L 102.280505 99.8897 
L 105.061623 97.846505 
L 105.6063 97.39913 
L 105.887929 97.18205 
L 106.628171 96.558325 
L 107.571508 95.671669 
L 107.997084 95.254626 
L 108.273928 94.952069 
L 108.49258 94.701862 
L 108.887935 94.186319 
L 109.019285 93.991118 
L 109.764292 92.949595 
L 110.313852 92.277952 
L 110.604941 91.960849 
L 111.381706 91.129374 
L 111.528181 90.972495 
L 112.211186 90.149841 
L 112.464039 89.861248 
L 115.225243 86.474795 
L 115.391795 86.248182 
L 116.03533 85.434261 
L 116.240762 85.231167 
L 116.480596 84.952422 
L 116.760283 84.689291 
L 117.355814 84.18797 
L 118.353572 83.442912 
L 118.792049 83.175305 
L 119.447355 82.688066 
L 119.6645 82.501018 
L 119.956352 82.300231 
L 121.063913 81.507556 
L 121.935837 80.810056 
L 122.281408 80.562661 
L 122.529264 80.376046 
L 123.221952 79.748718 
L 124.089016 79.023314 
L 124.409654 78.760745 
L 124.661632 78.490572 
L 125.154169 78.014567 
L 125.356525 77.818983 
L 125.865866 77.291584 
L 129.715923 73.066478 
L 129.927658 72.768506 
L 130.135917 72.534176 
L 131.271097 71.037793 
L 131.95887 70.009465 
L 132.276876 69.612905 
L 132.560429 69.199471 
L 135.913419 64.016296 
L 135.913419 64.016296 
" clip-path="url(#p069b65bc58)" style="fill: none; stroke: #399dc7; stroke-width: 1.5; stroke-linecap: square"/>
    </g>
    <g id="line2d_23">
     <path d="M 88.297726 116.295585 
L 88.665803 115.798621 
L 95.120728 107.862394 
L 95.426522 107.521232 
L 102.317267 101.022295 
L 104.436553 99.061234 
L 104.604232 98.891458 
L 105.324266 98.151224 
L 105.500597 97.998932 
L 106.902898 96.340804 
L 107.111291 96.033305 
L 108.265907 94.349328 
L 108.911379 93.610725 
L 109.160577 93.395537 
L 109.451444 93.10046 
L 110.087094 92.501784 
L 110.271005 92.319509 
L 110.439476 92.142167 
L 111.452352 91.08897 
L 114.320592 87.915886 
L 114.670748 87.599885 
L 115.019793 87.270232 
L 115.38453 86.876454 
L 115.886549 86.297095 
L 116.492067 85.452468 
L 116.751753 85.108728 
L 118.214129 83.246428 
L 118.398323 83.057175 
L 118.64837 82.802511 
L 119.061391 82.389961 
L 119.602932 81.891065 
L 120.167753 81.389831 
L 120.348116 81.188937 
L 120.63734 80.896569 
L 121.833804 79.963894 
L 123.466679 78.610129 
L 123.755712 78.353398 
L 125.476634 76.824186 
L 125.95341 76.370552 
L 126.250825 76.114273 
L 126.974036 75.420891 
L 127.940714 74.492802 
L 128.20048 74.205779 
L 132.854371 69.142429 
L 133.041497 68.924634 
L 133.364225 68.583804 
L 133.846882 67.914004 
L 135.722962 65.592444 
L 135.911563 65.37357 
L 135.911563 65.37357 
" clip-path="url(#p069b65bc58)" style="fill: none; stroke: #c1eac2; stroke-width: 1.5; stroke-linecap: square"/>
    </g>
    <g id="line2d_24">
     <path d="M 88.296087 115.175953 
L 88.88851 114.448973 
L 89.54007 113.649719 
L 89.782615 113.390926 
L 90.010915 113.115479 
L 93.791362 108.987632 
L 94.089984 108.698018 
L 94.381077 108.39535 
L 95.139949 107.645371 
L 97.634877 105.236495 
L 97.827315 105.053598 
L 100.415098 102.620771 
L 100.835252 102.210269 
L 101.628532 101.505241 
L 101.851253 101.290395 
L 102.065105 101.035147 
L 105.375248 97.229074 
L 105.590081 96.92415 
L 105.847461 96.541757 
L 106.449349 95.71726 
L 108.566924 93.609187 
L 108.848444 93.387897 
L 109.049289 93.231441 
L 109.268818 93.04617 
L 109.605766 92.756886 
L 112.083607 90.123224 
L 112.344295 89.786589 
L 113.119204 88.867104 
L 113.401978 88.558437 
L 113.565105 88.374629 
L 113.877772 88.027114 
L 115.886427 85.600676 
L 116.514333 84.521172 
L 117.454283 83.106786 
L 117.662339 82.838894 
L 119.375349 81.0134 
L 119.60711 80.827045 
L 130.228554 71.240169 
L 130.669766 70.748463 
L 130.868888 70.554186 
L 132.221767 69.09707 
L 132.468231 68.852232 
L 132.720481 68.55663 
L 132.888825 68.38246 
L 133.527874 67.57946 
L 135.907721 64.831033 
L 135.907721 64.831033 
" clip-path="url(#p069b65bc58)" style="fill: none; stroke: #b58b31; stroke-width: 1.5; stroke-linecap: square"/>
    </g>
    <g id="line2d_25">
     <path d="M 88.291741 115.600888 
L 89.072945 114.625789 
L 89.791987 113.866796 
L 89.98673 113.597917 
L 90.153969 113.391355 
L 92.194686 111.025558 
L 92.356926 110.818375 
L 92.75404 110.40886 
L 93.59127 109.498948 
L 93.948867 109.150601 
L 94.329124 108.772408 
L 94.75052 108.435525 
L 94.933494 108.237315 
L 95.616651 107.60887 
L 95.906702 107.358886 
L 96.081809 107.185397 
L 96.253194 106.983828 
L 97.835231 105.549669 
L 98.098813 105.302765 
L 98.303769 105.106178 
L 99.250808 104.256393 
L 99.501941 104.008104 
L 100.030474 103.515649 
L 101.888544 101.592698 
L 102.141182 101.283204 
L 102.903585 100.540488 
L 103.215728 100.166902 
L 103.380188 99.964827 
L 103.618707 99.743203 
L 105.427875 97.485071 
L 105.792392 97.038408 
L 106.243883 96.347578 
L 106.513069 96.052483 
L 106.85552 95.643382 
L 107.047242 95.406904 
L 107.536984 94.904886 
L 107.889878 94.575268 
L 108.054946 94.41494 
L 108.687439 93.812574 
L 109.036018 93.479564 
L 109.313233 93.225274 
L 112.117382 90.227475 
L 112.638211 89.58849 
L 112.778644 89.402375 
L 113.166825 88.971757 
L 113.701332 88.335141 
L 114.010978 88.008308 
L 114.547807 87.482336 
L 114.947477 87.044644 
L 115.352213 86.640669 
L 115.563939 86.448063 
L 118.327978 83.183308 
L 118.520525 82.954166 
L 120.046193 80.852578 
L 120.285638 80.598914 
L 120.585871 80.26031 
L 120.851694 79.985721 
L 121.194777 79.606413 
L 121.542535 79.272279 
L 121.982011 78.858431 
L 122.758791 78.212086 
L 123.422445 77.44352 
L 124.729668 76.108442 
L 125.070933 75.833543 
L 125.53041 75.323922 
L 128.134148 72.932978 
L 128.476672 72.597237 
L 128.829683 72.307107 
L 129.070249 72.076692 
L 129.56626 71.671939 
L 129.835862 71.397578 
L 130.493536 70.708452 
L 132.441702 68.794065 
L 132.603464 68.647389 
L 132.888147 68.345896 
L 135.911188 64.88702 
L 135.911188 64.88702 
" clip-path="url(#p069b65bc58)" style="fill: none; stroke: #7e1700; stroke-width: 1.5; stroke-linecap: square"/>
    </g>
    <g id="matplotlib.axis_3">
     <g id="xtick_8"/>
     <g id="xtick_9"/>
     <g id="xtick_10"/>
    </g>
    <g id="matplotlib.axis_4">
     <g id="ytick_8"/>
     <g id="ytick_9"/>
     <g id="ytick_10"/>
     <g id="ytick_11"/>
     <g id="ytick_12"/>
    </g>
    <g id="patch_7">
     <path d="M 88.300171 116.196939 
L 88.300171 64.443233 
" style="fill: none; stroke: #000000; stroke-width: 0.8; stroke-linejoin: miter; stroke-linecap: square"/>
    </g>
    <g id="patch_8">
     <path d="M 135.906716 116.196939 
L 135.906716 64.443233 
" style="fill: none; stroke: #000000; stroke-width: 0.8; stroke-linejoin: miter; stroke-linecap: square"/>
    </g>
    <g id="patch_9">
     <path d="M 88.300171 116.196939 
L 135.906716 116.196939 
" style="fill: none; stroke: #000000; stroke-width: 0.8; stroke-linejoin: miter; stroke-linecap: square"/>
    </g>
    <g id="patch_10">
     <path d="M 88.300171 64.443233 
L 135.906716 64.443233 
" style="fill: none; stroke: #000000; stroke-width: 0.8; stroke-linejoin: miter; stroke-linecap: square"/>
    </g>
   </g>
  </g>
 </g>
 <defs>
  <clipPath id="pc13781666d">
   <rect x="32.23024" y="3.488868" width="105.792322" height="115.008235"/>
  </clipPath>
  <clipPath id="p069b65bc58">
   <rect x="88.300171" y="64.443233" width="47.606545" height="51.753706"/>
  </clipPath>
 </defs>
</svg>
