<?xml version="1.0" encoding="utf-8" standalone="no"?>
<!DOCTYPE svg PUBLIC "-//W3C//DTD SVG 1.1//EN"
  "http://www.w3.org/Graphics/SVG/1.1/DTD/svg11.dtd">
<svg xmlns:xlink="http://www.w3.org/1999/xlink" width="144pt" height="360pt" viewBox="0 0 144 360" xmlns="http://www.w3.org/2000/svg" version="1.1">
 <metadata>
  <rdf:RDF xmlns:dc="http://purl.org/dc/elements/1.1/" xmlns:cc="http://creativecommons.org/ns#" xmlns:rdf="http://www.w3.org/1999/02/22-rdf-syntax-ns#">
   <cc:Work>
    <dc:type rdf:resource="http://purl.org/dc/dcmitype/StillImage"/>
    <dc:date>2024-07-02T18:06:04.810577</dc:date>
    <dc:format>image/svg+xml</dc:format>
    <dc:creator>
     <cc:Agent>
      <dc:title>Matplotlib v3.8.0, https://matplotlib.org/</dc:title>
     </cc:Agent>
    </dc:creator>
   </cc:Work>
  </rdf:RDF>
 </metadata>
 <defs>
  <style type="text/css">*{stroke-linejoin: round; stroke-linecap: butt}</style>
 </defs>
 <g id="figure_1">
  <g id="patch_1">
   <path d="M 0 360 
L 144 360 
L 144 0 
L 0 0 
L 0 360 
z
" style="fill: none"/>
  </g>
  <g id="axes_1">
   <g id="patch_2">
    <path d="M 24.29024 61.771416 
L 140.99976 61.771416 
L 140.99976 14.72649 
L 24.29024 14.72649 
L 24.29024 61.771416 
z
" style="fill: none"/>
   </g>
   <g id="PolyCollection_1">
    <path d="M 29.595218 32.735157 
L 29.595218 35.132858 
L 44.752299 49.113577 
L 59.909379 49.839533 
L 75.06646 51.555785 
L 90.22354 52.87391 
L 105.380621 52.986045 
L 120.537701 52.592346 
L 135.694782 54.020212 
L 135.694782 51.401921 
L 135.694782 51.401921 
L 120.537701 50.077396 
L 105.380621 50.802938 
L 90.22354 51.090528 
L 75.06646 49.813021 
L 59.909379 48.187006 
L 44.752299 47.625524 
L 29.595218 32.735157 
z
" clip-path="url(#p7ba0fe71dc)" style="fill-opacity: 0.5"/>
   </g>
   <g id="line2d_1">
    <path d="M 29.595218 33.934007 
L 44.752299 48.36955 
L 59.909379 49.013269 
L 75.06646 50.684403 
L 90.22354 51.982219 
L 105.380621 51.894491 
L 120.537701 51.334871 
L 135.694782 52.711066 
" clip-path="url(#p7ba0fe71dc)" style="fill: none; stroke: #000000; stroke-width: 1.5; stroke-linecap: square"/>
   </g>
   <g id="matplotlib.axis_1">
    <g id="xtick_1">
     <g id="line2d_2">
      <defs>
       <path id="mae0c13accb" d="M 0 0 
L 0 3.5 
" style="stroke: #000000; stroke-width: 0.8"/>
      </defs>
      <g>
       <use xlink:href="#mae0c13accb" x="29.595218" y="61.771416" style="stroke: #000000; stroke-width: 0.8"/>
      </g>
     </g>
    </g>
    <g id="xtick_2">
     <g id="line2d_3">
      <g>
       <use xlink:href="#mae0c13accb" x="44.752299" y="61.771416" style="stroke: #000000; stroke-width: 0.8"/>
      </g>
     </g>
    </g>
    <g id="xtick_3">
     <g id="line2d_4">
      <g>
       <use xlink:href="#mae0c13accb" x="59.909379" y="61.771416" style="stroke: #000000; stroke-width: 0.8"/>
      </g>
     </g>
    </g>
    <g id="xtick_4">
     <g id="line2d_5">
      <g>
       <use xlink:href="#mae0c13accb" x="75.06646" y="61.771416" style="stroke: #000000; stroke-width: 0.8"/>
      </g>
     </g>
    </g>
    <g id="xtick_5">
     <g id="line2d_6">
      <g>
       <use xlink:href="#mae0c13accb" x="90.22354" y="61.771416" style="stroke: #000000; stroke-width: 0.8"/>
      </g>
     </g>
    </g>
    <g id="xtick_6">
     <g id="line2d_7">
      <g>
       <use xlink:href="#mae0c13accb" x="105.380621" y="61.771416" style="stroke: #000000; stroke-width: 0.8"/>
      </g>
     </g>
    </g>
    <g id="xtick_7">
     <g id="line2d_8">
      <g>
       <use xlink:href="#mae0c13accb" x="120.537701" y="61.771416" style="stroke: #000000; stroke-width: 0.8"/>
      </g>
     </g>
    </g>
    <g id="xtick_8">
     <g id="line2d_9">
      <g>
       <use xlink:href="#mae0c13accb" x="135.694782" y="61.771416" style="stroke: #000000; stroke-width: 0.8"/>
      </g>
     </g>
    </g>
   </g>
   <g id="matplotlib.axis_2">
    <g id="ytick_1">
     <g id="line2d_10">
      <defs>
       <path id="m3b36c2f3d5" d="M 0 0 
L -3.5 0 
" style="stroke: #000000; stroke-width: 0.8"/>
      </defs>
      <g>
       <use xlink:href="#m3b36c2f3d5" x="24.29024" y="43.08047" style="stroke: #000000; stroke-width: 0.8"/>
      </g>
     </g>
     <g id="text_1">
      <!-- $\mathdefault{2}$ -->
      <g transform="translate(14.49024 44.869924) scale(0.05 -0.05)">
       <defs>
        <path id="ArialMT-32" d="M 3222 541 
L 3222 0 
L 194 0 
Q 188 203 259 391 
Q 375 700 629 1000 
Q 884 1300 1366 1694 
Q 2113 2306 2375 2664 
Q 2638 3022 2638 3341 
Q 2638 3675 2398 3904 
Q 2159 4134 1775 4134 
Q 1369 4134 1125 3890 
Q 881 3647 878 3216 
L 300 3275 
Q 359 3922 746 4261 
Q 1134 4600 1788 4600 
Q 2447 4600 2831 4234 
Q 3216 3869 3216 3328 
Q 3216 3053 3103 2787 
Q 2991 2522 2730 2228 
Q 2469 1934 1863 1422 
Q 1356 997 1212 845 
Q 1069 694 975 541 
L 3222 541 
z
" transform="scale(0.015625)"/>
       </defs>
       <use xlink:href="#ArialMT-32" transform="translate(0 0.125)"/>
      </g>
     </g>
    </g>
    <g id="ytick_2">
     <g id="line2d_11">
      <g>
       <use xlink:href="#m3b36c2f3d5" x="24.29024" y="24.193282" style="stroke: #000000; stroke-width: 0.8"/>
      </g>
     </g>
     <g id="text_2">
      <!-- $\mathdefault{4}$ -->
      <g transform="translate(14.49024 25.982736) scale(0.05 -0.05)">
       <defs>
        <path id="ArialMT-34" d="M 2069 0 
L 2069 1097 
L 81 1097 
L 81 1613 
L 2172 4581 
L 2631 4581 
L 2631 1613 
L 3250 1613 
L 3250 1097 
L 2631 1097 
L 2631 0 
L 2069 0 
z
M 2069 1613 
L 2069 3678 
L 634 1613 
L 2069 1613 
z
" transform="scale(0.015625)"/>
       </defs>
       <use xlink:href="#ArialMT-34" transform="translate(0 0.421875)"/>
      </g>
     </g>
    </g>
   </g>
   <g id="PathCollection_1">
    <defs>
     <path id="m2c6ee5e066" d="M 0 1.581139 
C 0.419323 1.581139 0.821528 1.41454 1.118034 1.118034 
C 1.41454 0.821528 1.581139 0.419323 1.581139 0 
C 1.581139 -0.419323 1.41454 -0.821528 1.118034 -1.118034 
C 0.821528 -1.41454 0.419323 -1.581139 0 -1.581139 
C -0.419323 -1.581139 -0.821528 -1.41454 -1.118034 -1.118034 
C -1.41454 -0.821528 -1.581139 -0.419323 -1.581139 0 
C -1.581139 0.419323 -1.41454 0.821528 -1.118034 1.118034 
C -0.821528 1.41454 -0.419323 1.581139 0 1.581139 
z
" style="stroke: #000000"/>
    </defs>
    <g clip-path="url(#p7ba0fe71dc)">
     <use xlink:href="#m2c6ee5e066" x="29.595218" y="33.934007" style="stroke: #000000"/>
     <use xlink:href="#m2c6ee5e066" x="44.752299" y="48.36955" style="stroke: #000000"/>
     <use xlink:href="#m2c6ee5e066" x="59.909379" y="49.013269" style="stroke: #000000"/>
     <use xlink:href="#m2c6ee5e066" x="75.06646" y="50.684403" style="stroke: #000000"/>
     <use xlink:href="#m2c6ee5e066" x="90.22354" y="51.982219" style="stroke: #000000"/>
     <use xlink:href="#m2c6ee5e066" x="105.380621" y="51.894491" style="stroke: #000000"/>
     <use xlink:href="#m2c6ee5e066" x="120.537701" y="51.334871" style="stroke: #000000"/>
     <use xlink:href="#m2c6ee5e066" x="135.694782" y="52.711066" style="stroke: #000000"/>
    </g>
   </g>
   <g id="line2d_12">
    <path d="M 24.29024 52.524064 
L 140.99976 52.524064 
" clip-path="url(#p7ba0fe71dc)" style="fill: none; stroke: #000000; stroke-width: 1.5; stroke-linecap: square"/>
   </g>
   <g id="patch_3">
    <path d="M 24.29024 61.771416 
L 24.29024 14.72649 
" style="fill: none; stroke: #000000; stroke-width: 0.8; stroke-linejoin: miter; stroke-linecap: square"/>
   </g>
   <g id="patch_4">
    <path d="M 24.29024 61.771416 
L 140.99976 61.771416 
" style="fill: none; stroke: #000000; stroke-width: 0.8; stroke-linejoin: miter; stroke-linecap: square"/>
   </g>
   <g id="PolyCollection_2">
    <path d="M 29.595218 22.173902 
L 29.595218 24.246831 
L 44.752299 55.112712 
L 59.909379 51.865353 
L 75.06646 51.981791 
L 90.22354 52.903744 
L 105.380621 52.880164 
L 120.537701 53.710147 
L 135.694782 52.922885 
L 135.694782 49.263548 
L 135.694782 49.263548 
L 120.537701 51.169346 
L 105.380621 50.67081 
L 90.22354 50.975177 
L 75.06646 50.343338 
L 59.909379 50.507424 
L 44.752299 54.190762 
L 29.595218 22.173902 
z
" clip-path="url(#p7ba0fe71dc)" style="fill: #ffa500; fill-opacity: 0.5"/>
   </g>
   <g id="text_3">
    <!-- 18째C -->
    <g transform="translate(73.708125 8.72649) scale(0.08 -0.08)">
     <defs>
      <path id="ArialMT-31" d="M 2384 0 
L 1822 0 
L 1822 3584 
Q 1619 3391 1289 3197 
Q 959 3003 697 2906 
L 697 3450 
Q 1169 3672 1522 3987 
Q 1875 4303 2022 4600 
L 2384 4600 
L 2384 0 
z
" transform="scale(0.015625)"/>
      <path id="ArialMT-38" d="M 1131 2484 
Q 781 2613 612 2850 
Q 444 3088 444 3419 
Q 444 3919 803 4259 
Q 1163 4600 1759 4600 
Q 2359 4600 2725 4251 
Q 3091 3903 3091 3403 
Q 3091 3084 2923 2848 
Q 2756 2613 2416 2484 
Q 2838 2347 3058 2040 
Q 3278 1734 3278 1309 
Q 3278 722 2862 322 
Q 2447 -78 1769 -78 
Q 1091 -78 675 323 
Q 259 725 259 1325 
Q 259 1772 486 2073 
Q 713 2375 1131 2484 
z
M 1019 3438 
Q 1019 3113 1228 2906 
Q 1438 2700 1772 2700 
Q 2097 2700 2305 2904 
Q 2513 3109 2513 3406 
Q 2513 3716 2298 3927 
Q 2084 4138 1766 4138 
Q 1444 4138 1231 3931 
Q 1019 3725 1019 3438 
z
M 838 1322 
Q 838 1081 952 856 
Q 1066 631 1291 507 
Q 1516 384 1775 384 
Q 2178 384 2440 643 
Q 2703 903 2703 1303 
Q 2703 1709 2433 1975 
Q 2163 2241 1756 2241 
Q 1359 2241 1098 1978 
Q 838 1716 838 1322 
z
" transform="scale(0.015625)"/>
      <path id="ArialMT-b0" d="M 400 3794 
Q 400 4153 654 4406 
Q 909 4659 1266 4659 
Q 1628 4659 1881 4406 
Q 2134 4153 2134 3794 
Q 2134 3434 1879 3179 
Q 1625 2925 1266 2925 
Q 909 2925 654 3178 
Q 400 3431 400 3794 
z
M 741 3794 
Q 741 3575 895 3420 
Q 1050 3266 1269 3266 
Q 1484 3266 1639 3420 
Q 1794 3575 1794 3794 
Q 1794 4013 1639 4167 
Q 1484 4322 1269 4322 
Q 1050 4322 895 4167 
Q 741 4013 741 3794 
z
" transform="scale(0.015625)"/>
      <path id="ArialMT-43" d="M 3763 1606 
L 4369 1453 
Q 4178 706 3683 314 
Q 3188 -78 2472 -78 
Q 1731 -78 1267 223 
Q 803 525 561 1097 
Q 319 1669 319 2325 
Q 319 3041 592 3573 
Q 866 4106 1370 4382 
Q 1875 4659 2481 4659 
Q 3169 4659 3637 4309 
Q 4106 3959 4291 3325 
L 3694 3184 
Q 3534 3684 3231 3912 
Q 2928 4141 2469 4141 
Q 1941 4141 1586 3887 
Q 1231 3634 1087 3207 
Q 944 2781 944 2328 
Q 944 1744 1114 1308 
Q 1284 872 1643 656 
Q 2003 441 2422 441 
Q 2931 441 3284 734 
Q 3638 1028 3763 1606 
z
" transform="scale(0.015625)"/>
     </defs>
     <use xlink:href="#ArialMT-31"/>
     <use xlink:href="#ArialMT-38" x="55.615234"/>
     <use xlink:href="#ArialMT-b0" x="111.230469"/>
     <use xlink:href="#ArialMT-43" x="151.220703"/>
    </g>
   </g>
   <g id="line2d_13">
    <path d="M 29.595218 23.210367 
L 44.752299 54.651737 
L 59.909379 51.186388 
L 75.06646 51.162565 
L 90.22354 51.939461 
L 105.380621 51.775487 
L 120.537701 52.439747 
L 135.694782 51.093217 
" clip-path="url(#p7ba0fe71dc)" style="fill: none; stroke: #ffa500; stroke-width: 1.5; stroke-linecap: square"/>
   </g>
   <g id="PathCollection_2">
    <defs>
     <path id="mac0b31bb33" d="M 0 -1.581139 
L -1.581139 1.581139 
L 1.581139 1.581139 
z
" style="stroke: #ffa500"/>
    </defs>
    <g clip-path="url(#p7ba0fe71dc)">
     <use xlink:href="#mac0b31bb33" x="29.595218" y="23.210367" style="fill: #ffa500; stroke: #ffa500"/>
     <use xlink:href="#mac0b31bb33" x="44.752299" y="54.651737" style="fill: #ffa500; stroke: #ffa500"/>
     <use xlink:href="#mac0b31bb33" x="59.909379" y="51.186388" style="fill: #ffa500; stroke: #ffa500"/>
     <use xlink:href="#mac0b31bb33" x="75.06646" y="51.162565" style="fill: #ffa500; stroke: #ffa500"/>
     <use xlink:href="#mac0b31bb33" x="90.22354" y="51.939461" style="fill: #ffa500; stroke: #ffa500"/>
     <use xlink:href="#mac0b31bb33" x="105.380621" y="51.775487" style="fill: #ffa500; stroke: #ffa500"/>
     <use xlink:href="#mac0b31bb33" x="120.537701" y="52.439747" style="fill: #ffa500; stroke: #ffa500"/>
     <use xlink:href="#mac0b31bb33" x="135.694782" y="51.093217" style="fill: #ffa500; stroke: #ffa500"/>
    </g>
   </g>
  </g>
  <g id="axes_2">
   <g id="patch_5">
    <path d="M 24.29024 130.043072 
L 140.99976 130.043072 
L 140.99976 82.998146 
L 24.29024 82.998146 
L 24.29024 130.043072 
z
" style="fill: none"/>
   </g>
   <g id="PolyCollection_3">
    <path d="M 29.595218 98.584902 
L 29.595218 99.863966 
L 44.752299 114.809461 
L 59.909379 116.390552 
L 75.06646 117.923464 
L 90.22354 117.728364 
L 105.380621 118.857473 
L 120.537701 119.248045 
L 135.694782 121.648867 
L 135.694782 119.755572 
L 135.694782 119.755572 
L 120.537701 117.39977 
L 105.380621 117.432302 
L 90.22354 116.521932 
L 75.06646 116.994313 
L 59.909379 115.576844 
L 44.752299 114.078813 
L 29.595218 98.584902 
z
" clip-path="url(#p8000bb4cc3)" style="fill-opacity: 0.5"/>
   </g>
   <g id="line2d_14">
    <path d="M 29.595218 99.224434 
L 44.752299 114.444137 
L 59.909379 115.983698 
L 75.06646 117.458888 
L 90.22354 117.125148 
L 105.380621 118.144887 
L 120.537701 118.323907 
L 135.694782 120.70222 
" clip-path="url(#p8000bb4cc3)" style="fill: none; stroke: #000000; stroke-width: 1.5; stroke-linecap: square"/>
   </g>
   <g id="matplotlib.axis_3">
    <g id="xtick_9">
     <g id="line2d_15">
      <g>
       <use xlink:href="#mae0c13accb" x="29.595218" y="130.043072" style="stroke: #000000; stroke-width: 0.8"/>
      </g>
     </g>
    </g>
    <g id="xtick_10">
     <g id="line2d_16">
      <g>
       <use xlink:href="#mae0c13accb" x="44.752299" y="130.043072" style="stroke: #000000; stroke-width: 0.8"/>
      </g>
     </g>
    </g>
    <g id="xtick_11">
     <g id="line2d_17">
      <g>
       <use xlink:href="#mae0c13accb" x="59.909379" y="130.043072" style="stroke: #000000; stroke-width: 0.8"/>
      </g>
     </g>
    </g>
    <g id="xtick_12">
     <g id="line2d_18">
      <g>
       <use xlink:href="#mae0c13accb" x="75.06646" y="130.043072" style="stroke: #000000; stroke-width: 0.8"/>
      </g>
     </g>
    </g>
    <g id="xtick_13">
     <g id="line2d_19">
      <g>
       <use xlink:href="#mae0c13accb" x="90.22354" y="130.043072" style="stroke: #000000; stroke-width: 0.8"/>
      </g>
     </g>
    </g>
    <g id="xtick_14">
     <g id="line2d_20">
      <g>
       <use xlink:href="#mae0c13accb" x="105.380621" y="130.043072" style="stroke: #000000; stroke-width: 0.8"/>
      </g>
     </g>
    </g>
    <g id="xtick_15">
     <g id="line2d_21">
      <g>
       <use xlink:href="#mae0c13accb" x="120.537701" y="130.043072" style="stroke: #000000; stroke-width: 0.8"/>
      </g>
     </g>
    </g>
    <g id="xtick_16">
     <g id="line2d_22">
      <g>
       <use xlink:href="#mae0c13accb" x="135.694782" y="130.043072" style="stroke: #000000; stroke-width: 0.8"/>
      </g>
     </g>
    </g>
   </g>
   <g id="matplotlib.axis_4">
    <g id="ytick_3">
     <g id="line2d_23">
      <g>
       <use xlink:href="#m3b36c2f3d5" x="24.29024" y="111.352127" style="stroke: #000000; stroke-width: 0.8"/>
      </g>
     </g>
     <g id="text_4">
      <!-- $\mathdefault{2}$ -->
      <g transform="translate(14.49024 113.14158) scale(0.05 -0.05)">
       <use xlink:href="#ArialMT-32" transform="translate(0 0.125)"/>
      </g>
     </g>
    </g>
    <g id="ytick_4">
     <g id="line2d_24">
      <g>
       <use xlink:href="#m3b36c2f3d5" x="24.29024" y="92.464939" style="stroke: #000000; stroke-width: 0.8"/>
      </g>
     </g>
     <g id="text_5">
      <!-- $\mathdefault{4}$ -->
      <g transform="translate(14.49024 94.254392) scale(0.05 -0.05)">
       <use xlink:href="#ArialMT-34" transform="translate(0 0.421875)"/>
      </g>
     </g>
    </g>
   </g>
   <g id="PathCollection_3">
    <g clip-path="url(#p8000bb4cc3)">
     <use xlink:href="#m2c6ee5e066" x="29.595218" y="99.224434" style="stroke: #000000"/>
     <use xlink:href="#m2c6ee5e066" x="44.752299" y="114.444137" style="stroke: #000000"/>
     <use xlink:href="#m2c6ee5e066" x="59.909379" y="115.983698" style="stroke: #000000"/>
     <use xlink:href="#m2c6ee5e066" x="75.06646" y="117.458888" style="stroke: #000000"/>
     <use xlink:href="#m2c6ee5e066" x="90.22354" y="117.125148" style="stroke: #000000"/>
     <use xlink:href="#m2c6ee5e066" x="105.380621" y="118.144887" style="stroke: #000000"/>
     <use xlink:href="#m2c6ee5e066" x="120.537701" y="118.323907" style="stroke: #000000"/>
     <use xlink:href="#m2c6ee5e066" x="135.694782" y="120.70222" style="stroke: #000000"/>
    </g>
   </g>
   <g id="line2d_25">
    <path d="M 24.29024 120.795721 
L 140.99976 120.795721 
" clip-path="url(#p8000bb4cc3)" style="fill: none; stroke: #000000; stroke-width: 1.5; stroke-linecap: square"/>
   </g>
   <g id="patch_6">
    <path d="M 24.29024 130.043072 
L 24.29024 82.998146 
" style="fill: none; stroke: #000000; stroke-width: 0.8; stroke-linejoin: miter; stroke-linecap: square"/>
   </g>
   <g id="patch_7">
    <path d="M 24.29024 130.043072 
L 140.99976 130.043072 
" style="fill: none; stroke: #000000; stroke-width: 0.8; stroke-linejoin: miter; stroke-linecap: square"/>
   </g>
   <g id="PolyCollection_4">
    <path d="M 29.595218 85.136552 
L 29.595218 86.527233 
L 44.752299 119.231983 
L 59.909379 117.727598 
L 75.06646 118.720624 
L 90.22354 119.158888 
L 105.380621 119.907416 
L 120.537701 118.616607 
L 135.694782 123.848309 
L 135.694782 121.778856 
L 135.694782 121.778856 
L 120.537701 116.016396 
L 105.380621 118.342056 
L 90.22354 117.94367 
L 75.06646 117.776355 
L 59.909379 116.989265 
L 44.752299 118.747622 
L 29.595218 85.136552 
z
" clip-path="url(#p8000bb4cc3)" style="fill: #ffa500; fill-opacity: 0.5"/>
   </g>
   <g id="text_6">
    <!-- 22째C -->
    <g transform="translate(73.708125 76.998146) scale(0.08 -0.08)">
     <use xlink:href="#ArialMT-32"/>
     <use xlink:href="#ArialMT-32" x="55.615234"/>
     <use xlink:href="#ArialMT-b0" x="111.230469"/>
     <use xlink:href="#ArialMT-43" x="151.220703"/>
    </g>
   </g>
   <g id="line2d_26">
    <path d="M 29.595218 85.831893 
L 44.752299 118.989803 
L 59.909379 117.358431 
L 75.06646 118.248489 
L 90.22354 118.551279 
L 105.380621 119.124736 
L 120.537701 117.316502 
L 135.694782 122.813583 
" clip-path="url(#p8000bb4cc3)" style="fill: none; stroke: #ffa500; stroke-width: 1.5; stroke-linecap: square"/>
   </g>
   <g id="PathCollection_4">
    <g clip-path="url(#p8000bb4cc3)">
     <use xlink:href="#mac0b31bb33" x="29.595218" y="85.831893" style="fill: #ffa500; stroke: #ffa500"/>
     <use xlink:href="#mac0b31bb33" x="44.752299" y="118.989803" style="fill: #ffa500; stroke: #ffa500"/>
     <use xlink:href="#mac0b31bb33" x="59.909379" y="117.358431" style="fill: #ffa500; stroke: #ffa500"/>
     <use xlink:href="#mac0b31bb33" x="75.06646" y="118.248489" style="fill: #ffa500; stroke: #ffa500"/>
     <use xlink:href="#mac0b31bb33" x="90.22354" y="118.551279" style="fill: #ffa500; stroke: #ffa500"/>
     <use xlink:href="#mac0b31bb33" x="105.380621" y="119.124736" style="fill: #ffa500; stroke: #ffa500"/>
     <use xlink:href="#mac0b31bb33" x="120.537701" y="117.316502" style="fill: #ffa500; stroke: #ffa500"/>
     <use xlink:href="#mac0b31bb33" x="135.694782" y="122.813583" style="fill: #ffa500; stroke: #ffa500"/>
    </g>
   </g>
  </g>
  <g id="axes_3">
   <g id="patch_8">
    <path d="M 24.29024 198.314729 
L 140.99976 198.314729 
L 140.99976 151.269802 
L 24.29024 151.269802 
L 24.29024 198.314729 
z
" style="fill: none"/>
   </g>
   <g id="PolyCollection_5">
    <path d="M 29.595218 181.180482 
L 29.595218 181.673695 
L 44.752299 188.340465 
L 59.909379 188.761372 
L 75.06646 188.520258 
L 90.22354 189.090144 
L 105.380621 189.363525 
L 120.537701 190.208394 
L 135.694782 191.750357 
L 135.694782 189.047975 
L 135.694782 189.047975 
L 120.537701 187.92636 
L 105.380621 187.736314 
L 90.22354 187.925857 
L 75.06646 187.715391 
L 59.909379 188.218769 
L 44.752299 187.9529 
L 29.595218 181.180482 
z
" clip-path="url(#p055b9206b7)" style="fill-opacity: 0.5"/>
   </g>
   <g id="line2d_27">
    <path d="M 29.595218 181.427089 
L 44.752299 188.146683 
L 59.909379 188.49007 
L 75.06646 188.117825 
L 90.22354 188.508 
L 105.380621 188.54992 
L 120.537701 189.067377 
L 135.694782 190.399166 
" clip-path="url(#p055b9206b7)" style="fill: none; stroke: #000000; stroke-width: 1.5; stroke-linecap: square"/>
   </g>
   <g id="matplotlib.axis_5">
    <g id="xtick_17">
     <g id="line2d_28">
      <g>
       <use xlink:href="#mae0c13accb" x="29.595218" y="198.314729" style="stroke: #000000; stroke-width: 0.8"/>
      </g>
     </g>
    </g>
    <g id="xtick_18">
     <g id="line2d_29">
      <g>
       <use xlink:href="#mae0c13accb" x="44.752299" y="198.314729" style="stroke: #000000; stroke-width: 0.8"/>
      </g>
     </g>
    </g>
    <g id="xtick_19">
     <g id="line2d_30">
      <g>
       <use xlink:href="#mae0c13accb" x="59.909379" y="198.314729" style="stroke: #000000; stroke-width: 0.8"/>
      </g>
     </g>
    </g>
    <g id="xtick_20">
     <g id="line2d_31">
      <g>
       <use xlink:href="#mae0c13accb" x="75.06646" y="198.314729" style="stroke: #000000; stroke-width: 0.8"/>
      </g>
     </g>
    </g>
    <g id="xtick_21">
     <g id="line2d_32">
      <g>
       <use xlink:href="#mae0c13accb" x="90.22354" y="198.314729" style="stroke: #000000; stroke-width: 0.8"/>
      </g>
     </g>
    </g>
    <g id="xtick_22">
     <g id="line2d_33">
      <g>
       <use xlink:href="#mae0c13accb" x="105.380621" y="198.314729" style="stroke: #000000; stroke-width: 0.8"/>
      </g>
     </g>
    </g>
    <g id="xtick_23">
     <g id="line2d_34">
      <g>
       <use xlink:href="#mae0c13accb" x="120.537701" y="198.314729" style="stroke: #000000; stroke-width: 0.8"/>
      </g>
     </g>
    </g>
    <g id="xtick_24">
     <g id="line2d_35">
      <g>
       <use xlink:href="#mae0c13accb" x="135.694782" y="198.314729" style="stroke: #000000; stroke-width: 0.8"/>
      </g>
     </g>
    </g>
   </g>
   <g id="matplotlib.axis_6">
    <g id="ytick_5">
     <g id="line2d_36">
      <g>
       <use xlink:href="#m3b36c2f3d5" x="24.29024" y="179.623783" style="stroke: #000000; stroke-width: 0.8"/>
      </g>
     </g>
     <g id="text_7">
      <!-- $\mathdefault{2}$ -->
      <g transform="translate(14.49024 181.413236) scale(0.05 -0.05)">
       <use xlink:href="#ArialMT-32" transform="translate(0 0.125)"/>
      </g>
     </g>
    </g>
    <g id="ytick_6">
     <g id="line2d_37">
      <g>
       <use xlink:href="#m3b36c2f3d5" x="24.29024" y="160.736595" style="stroke: #000000; stroke-width: 0.8"/>
      </g>
     </g>
     <g id="text_8">
      <!-- $\mathdefault{4}$ -->
      <g transform="translate(14.49024 162.526048) scale(0.05 -0.05)">
       <use xlink:href="#ArialMT-34" transform="translate(0 0.421875)"/>
      </g>
     </g>
    </g>
   </g>
   <g id="PathCollection_5">
    <g clip-path="url(#p055b9206b7)">
     <use xlink:href="#m2c6ee5e066" x="29.595218" y="181.427089" style="stroke: #000000"/>
     <use xlink:href="#m2c6ee5e066" x="44.752299" y="188.146683" style="stroke: #000000"/>
     <use xlink:href="#m2c6ee5e066" x="59.909379" y="188.49007" style="stroke: #000000"/>
     <use xlink:href="#m2c6ee5e066" x="75.06646" y="188.117825" style="stroke: #000000"/>
     <use xlink:href="#m2c6ee5e066" x="90.22354" y="188.508" style="stroke: #000000"/>
     <use xlink:href="#m2c6ee5e066" x="105.380621" y="188.54992" style="stroke: #000000"/>
     <use xlink:href="#m2c6ee5e066" x="120.537701" y="189.067377" style="stroke: #000000"/>
     <use xlink:href="#m2c6ee5e066" x="135.694782" y="190.399166" style="stroke: #000000"/>
    </g>
   </g>
   <g id="line2d_38">
    <path d="M 24.29024 189.067377 
L 140.99976 189.067377 
" clip-path="url(#p055b9206b7)" style="fill: none; stroke: #000000; stroke-width: 1.5; stroke-linecap: square"/>
   </g>
   <g id="patch_9">
    <path d="M 24.29024 198.314729 
L 24.29024 151.269802 
" style="fill: none; stroke: #000000; stroke-width: 0.8; stroke-linejoin: miter; stroke-linecap: square"/>
   </g>
   <g id="patch_10">
    <path d="M 24.29024 198.314729 
L 140.99976 198.314729 
" style="fill: none; stroke: #000000; stroke-width: 0.8; stroke-linejoin: miter; stroke-linecap: square"/>
   </g>
   <g id="PolyCollection_6">
    <path d="M 29.595218 179.885051 
L 29.595218 180.388636 
L 44.752299 188.504379 
L 59.909379 188.701062 
L 75.06646 188.618163 
L 90.22354 189.460516 
L 105.380621 189.05962 
L 120.537701 189.879443 
L 135.694782 192.698062 
L 135.694782 190.015404 
L 135.694782 190.015404 
L 120.537701 187.215649 
L 105.380621 187.232482 
L 90.22354 188.28224 
L 75.06646 187.781887 
L 59.909379 188.151363 
L 44.752299 188.129604 
L 29.595218 179.885051 
z
" clip-path="url(#p055b9206b7)" style="fill: #ffa500; fill-opacity: 0.5"/>
   </g>
   <g id="text_9">
    <!-- 26째C -->
    <g transform="translate(73.708125 145.269802) scale(0.08 -0.08)">
     <defs>
      <path id="ArialMT-36" d="M 3184 3459 
L 2625 3416 
Q 2550 3747 2413 3897 
Q 2184 4138 1850 4138 
Q 1581 4138 1378 3988 
Q 1113 3794 959 3422 
Q 806 3050 800 2363 
Q 1003 2672 1297 2822 
Q 1591 2972 1913 2972 
Q 2475 2972 2870 2558 
Q 3266 2144 3266 1488 
Q 3266 1056 3080 686 
Q 2894 316 2569 119 
Q 2244 -78 1831 -78 
Q 1128 -78 684 439 
Q 241 956 241 2144 
Q 241 3472 731 4075 
Q 1159 4600 1884 4600 
Q 2425 4600 2770 4297 
Q 3116 3994 3184 3459 
z
M 888 1484 
Q 888 1194 1011 928 
Q 1134 663 1356 523 
Q 1578 384 1822 384 
Q 2178 384 2434 671 
Q 2691 959 2691 1453 
Q 2691 1928 2437 2201 
Q 2184 2475 1800 2475 
Q 1419 2475 1153 2201 
Q 888 1928 888 1484 
z
" transform="scale(0.015625)"/>
     </defs>
     <use xlink:href="#ArialMT-32"/>
     <use xlink:href="#ArialMT-36" x="55.615234"/>
     <use xlink:href="#ArialMT-b0" x="111.230469"/>
     <use xlink:href="#ArialMT-43" x="151.220703"/>
    </g>
   </g>
   <g id="line2d_39">
    <path d="M 29.595218 180.136843 
L 44.752299 188.316991 
L 59.909379 188.426212 
L 75.06646 188.200025 
L 90.22354 188.871378 
L 105.380621 188.146051 
L 120.537701 188.547546 
L 135.694782 191.356733 
" clip-path="url(#p055b9206b7)" style="fill: none; stroke: #ffa500; stroke-width: 1.5; stroke-linecap: square"/>
   </g>
   <g id="PathCollection_6">
    <g clip-path="url(#p055b9206b7)">
     <use xlink:href="#mac0b31bb33" x="29.595218" y="180.136843" style="fill: #ffa500; stroke: #ffa500"/>
     <use xlink:href="#mac0b31bb33" x="44.752299" y="188.316991" style="fill: #ffa500; stroke: #ffa500"/>
     <use xlink:href="#mac0b31bb33" x="59.909379" y="188.426212" style="fill: #ffa500; stroke: #ffa500"/>
     <use xlink:href="#mac0b31bb33" x="75.06646" y="188.200025" style="fill: #ffa500; stroke: #ffa500"/>
     <use xlink:href="#mac0b31bb33" x="90.22354" y="188.871378" style="fill: #ffa500; stroke: #ffa500"/>
     <use xlink:href="#mac0b31bb33" x="105.380621" y="188.146051" style="fill: #ffa500; stroke: #ffa500"/>
     <use xlink:href="#mac0b31bb33" x="120.537701" y="188.547546" style="fill: #ffa500; stroke: #ffa500"/>
     <use xlink:href="#mac0b31bb33" x="135.694782" y="191.356733" style="fill: #ffa500; stroke: #ffa500"/>
    </g>
   </g>
  </g>
  <g id="axes_4">
   <g id="patch_11">
    <path d="M 24.29024 266.586385 
L 140.99976 266.586385 
L 140.99976 219.541459 
L 24.29024 219.541459 
L 24.29024 266.586385 
z
" style="fill: none"/>
   </g>
   <g id="PolyCollection_7">
    <path d="M 29.595218 252.929197 
L 29.595218 253.28654 
L 44.752299 257.131231 
L 59.909379 257.379137 
L 75.06646 256.364403 
L 90.22354 257.372535 
L 105.380621 257.142317 
L 120.537701 259.199016 
L 135.694782 262.967302 
L 135.694782 260.209999 
L 135.694782 260.209999 
L 120.537701 255.793837 
L 105.380621 254.553561 
L 90.22354 255.812926 
L 75.06646 255.316803 
L 59.909379 256.806945 
L 44.752299 256.754118 
L 29.595218 252.929197 
z
" clip-path="url(#p2859218ddb)" style="fill-opacity: 0.5"/>
   </g>
   <g id="line2d_40">
    <path d="M 29.595218 253.107868 
L 44.752299 256.942675 
L 59.909379 257.093041 
L 75.06646 255.840603 
L 90.22354 256.592731 
L 105.380621 255.847939 
L 120.537701 257.496426 
L 135.694782 261.58865 
" clip-path="url(#p2859218ddb)" style="fill: none; stroke: #000000; stroke-width: 1.5; stroke-linecap: square"/>
   </g>
   <g id="matplotlib.axis_7">
    <g id="xtick_25">
     <g id="line2d_41">
      <g>
       <use xlink:href="#mae0c13accb" x="29.595218" y="266.586385" style="stroke: #000000; stroke-width: 0.8"/>
      </g>
     </g>
    </g>
    <g id="xtick_26">
     <g id="line2d_42">
      <g>
       <use xlink:href="#mae0c13accb" x="44.752299" y="266.586385" style="stroke: #000000; stroke-width: 0.8"/>
      </g>
     </g>
    </g>
    <g id="xtick_27">
     <g id="line2d_43">
      <g>
       <use xlink:href="#mae0c13accb" x="59.909379" y="266.586385" style="stroke: #000000; stroke-width: 0.8"/>
      </g>
     </g>
    </g>
    <g id="xtick_28">
     <g id="line2d_44">
      <g>
       <use xlink:href="#mae0c13accb" x="75.06646" y="266.586385" style="stroke: #000000; stroke-width: 0.8"/>
      </g>
     </g>
    </g>
    <g id="xtick_29">
     <g id="line2d_45">
      <g>
       <use xlink:href="#mae0c13accb" x="90.22354" y="266.586385" style="stroke: #000000; stroke-width: 0.8"/>
      </g>
     </g>
    </g>
    <g id="xtick_30">
     <g id="line2d_46">
      <g>
       <use xlink:href="#mae0c13accb" x="105.380621" y="266.586385" style="stroke: #000000; stroke-width: 0.8"/>
      </g>
     </g>
    </g>
    <g id="xtick_31">
     <g id="line2d_47">
      <g>
       <use xlink:href="#mae0c13accb" x="120.537701" y="266.586385" style="stroke: #000000; stroke-width: 0.8"/>
      </g>
     </g>
    </g>
    <g id="xtick_32">
     <g id="line2d_48">
      <g>
       <use xlink:href="#mae0c13accb" x="135.694782" y="266.586385" style="stroke: #000000; stroke-width: 0.8"/>
      </g>
     </g>
    </g>
   </g>
   <g id="matplotlib.axis_8">
    <g id="ytick_7">
     <g id="line2d_49">
      <g>
       <use xlink:href="#m3b36c2f3d5" x="24.29024" y="247.895439" style="stroke: #000000; stroke-width: 0.8"/>
      </g>
     </g>
     <g id="text_10">
      <!-- $\mathdefault{2}$ -->
      <g transform="translate(14.49024 249.684892) scale(0.05 -0.05)">
       <use xlink:href="#ArialMT-32" transform="translate(0 0.125)"/>
      </g>
     </g>
    </g>
    <g id="ytick_8">
     <g id="line2d_50">
      <g>
       <use xlink:href="#m3b36c2f3d5" x="24.29024" y="229.008251" style="stroke: #000000; stroke-width: 0.8"/>
      </g>
     </g>
     <g id="text_11">
      <!-- $\mathdefault{4}$ -->
      <g transform="translate(14.49024 230.797704) scale(0.05 -0.05)">
       <use xlink:href="#ArialMT-34" transform="translate(0 0.421875)"/>
      </g>
     </g>
    </g>
   </g>
   <g id="PathCollection_7">
    <g clip-path="url(#p2859218ddb)">
     <use xlink:href="#m2c6ee5e066" x="29.595218" y="253.107868" style="stroke: #000000"/>
     <use xlink:href="#m2c6ee5e066" x="44.752299" y="256.942675" style="stroke: #000000"/>
     <use xlink:href="#m2c6ee5e066" x="59.909379" y="257.093041" style="stroke: #000000"/>
     <use xlink:href="#m2c6ee5e066" x="75.06646" y="255.840603" style="stroke: #000000"/>
     <use xlink:href="#m2c6ee5e066" x="90.22354" y="256.592731" style="stroke: #000000"/>
     <use xlink:href="#m2c6ee5e066" x="105.380621" y="255.847939" style="stroke: #000000"/>
     <use xlink:href="#m2c6ee5e066" x="120.537701" y="257.496426" style="stroke: #000000"/>
     <use xlink:href="#m2c6ee5e066" x="135.694782" y="261.58865" style="stroke: #000000"/>
    </g>
   </g>
   <g id="line2d_51">
    <path d="M 24.29024 257.339033 
L 140.99976 257.339033 
" clip-path="url(#p2859218ddb)" style="fill: none; stroke: #000000; stroke-width: 1.5; stroke-linecap: square"/>
   </g>
   <g id="patch_12">
    <path d="M 24.29024 266.586385 
L 24.29024 219.541459 
" style="fill: none; stroke: #000000; stroke-width: 0.8; stroke-linejoin: miter; stroke-linecap: square"/>
   </g>
   <g id="patch_13">
    <path d="M 24.29024 266.586385 
L 140.99976 266.586385 
" style="fill: none; stroke: #000000; stroke-width: 0.8; stroke-linejoin: miter; stroke-linecap: square"/>
   </g>
   <g id="PolyCollection_8">
    <path d="M 29.595218 252.44265 
L 29.595218 252.808882 
L 44.752299 257.286915 
L 59.909379 257.344895 
L 75.06646 256.313781 
L 90.22354 257.476112 
L 105.380621 257.165079 
L 120.537701 258.716679 
L 135.694782 263.116966 
L 135.694782 260.195244 
L 135.694782 260.195244 
L 120.537701 254.892301 
L 105.380621 254.491037 
L 90.22354 255.911525 
L 75.06646 255.244419 
L 59.909379 256.767484 
L 44.752299 256.917317 
L 29.595218 252.44265 
z
" clip-path="url(#p2859218ddb)" style="fill: #ffa500; fill-opacity: 0.5"/>
   </g>
   <g id="text_12">
    <!-- 30째C -->
    <g transform="translate(73.708125 213.541459) scale(0.08 -0.08)">
     <defs>
      <path id="ArialMT-33" d="M 269 1209 
L 831 1284 
Q 928 806 1161 595 
Q 1394 384 1728 384 
Q 2125 384 2398 659 
Q 2672 934 2672 1341 
Q 2672 1728 2419 1979 
Q 2166 2231 1775 2231 
Q 1616 2231 1378 2169 
L 1441 2663 
Q 1497 2656 1531 2656 
Q 1891 2656 2178 2843 
Q 2466 3031 2466 3422 
Q 2466 3731 2256 3934 
Q 2047 4138 1716 4138 
Q 1388 4138 1169 3931 
Q 950 3725 888 3313 
L 325 3413 
Q 428 3978 793 4289 
Q 1159 4600 1703 4600 
Q 2078 4600 2393 4439 
Q 2709 4278 2876 4000 
Q 3044 3722 3044 3409 
Q 3044 3113 2884 2869 
Q 2725 2625 2413 2481 
Q 2819 2388 3044 2092 
Q 3269 1797 3269 1353 
Q 3269 753 2831 336 
Q 2394 -81 1725 -81 
Q 1122 -81 723 278 
Q 325 638 269 1209 
z
" transform="scale(0.015625)"/>
      <path id="ArialMT-30" d="M 266 2259 
Q 266 3072 433 3567 
Q 600 4063 929 4331 
Q 1259 4600 1759 4600 
Q 2128 4600 2406 4451 
Q 2684 4303 2865 4023 
Q 3047 3744 3150 3342 
Q 3253 2941 3253 2259 
Q 3253 1453 3087 958 
Q 2922 463 2592 192 
Q 2263 -78 1759 -78 
Q 1097 -78 719 397 
Q 266 969 266 2259 
z
M 844 2259 
Q 844 1131 1108 757 
Q 1372 384 1759 384 
Q 2147 384 2411 759 
Q 2675 1134 2675 2259 
Q 2675 3391 2411 3762 
Q 2147 4134 1753 4134 
Q 1366 4134 1134 3806 
Q 844 3388 844 2259 
z
" transform="scale(0.015625)"/>
     </defs>
     <use xlink:href="#ArialMT-33"/>
     <use xlink:href="#ArialMT-30" x="55.615234"/>
     <use xlink:href="#ArialMT-b0" x="111.230469"/>
     <use xlink:href="#ArialMT-43" x="151.220703"/>
    </g>
   </g>
   <g id="line2d_52">
    <path d="M 29.595218 252.625766 
L 44.752299 257.102116 
L 59.909379 257.05619 
L 75.06646 255.7791 
L 90.22354 256.693819 
L 105.380621 255.828058 
L 120.537701 256.80449 
L 135.694782 261.656105 
" clip-path="url(#p2859218ddb)" style="fill: none; stroke: #ffa500; stroke-width: 1.5; stroke-linecap: square"/>
   </g>
   <g id="PathCollection_8">
    <g clip-path="url(#p2859218ddb)">
     <use xlink:href="#mac0b31bb33" x="29.595218" y="252.625766" style="fill: #ffa500; stroke: #ffa500"/>
     <use xlink:href="#mac0b31bb33" x="44.752299" y="257.102116" style="fill: #ffa500; stroke: #ffa500"/>
     <use xlink:href="#mac0b31bb33" x="59.909379" y="257.05619" style="fill: #ffa500; stroke: #ffa500"/>
     <use xlink:href="#mac0b31bb33" x="75.06646" y="255.7791" style="fill: #ffa500; stroke: #ffa500"/>
     <use xlink:href="#mac0b31bb33" x="90.22354" y="256.693819" style="fill: #ffa500; stroke: #ffa500"/>
     <use xlink:href="#mac0b31bb33" x="105.380621" y="255.828058" style="fill: #ffa500; stroke: #ffa500"/>
     <use xlink:href="#mac0b31bb33" x="120.537701" y="256.80449" style="fill: #ffa500; stroke: #ffa500"/>
     <use xlink:href="#mac0b31bb33" x="135.694782" y="261.656105" style="fill: #ffa500; stroke: #ffa500"/>
    </g>
   </g>
  </g>
  <g id="axes_5">
   <g id="patch_14">
    <path d="M 24.29024 334.858041 
L 140.99976 334.858041 
L 140.99976 287.813115 
L 24.29024 287.813115 
L 24.29024 334.858041 
z
" style="fill: none"/>
   </g>
   <g id="PolyCollection_9">
    <path d="M 29.595218 323.473411 
L 29.595218 323.786313 
L 44.752299 326.313727 
L 59.909379 325.646866 
L 75.06646 325.712301 
L 90.22354 324.747296 
L 105.380621 328.915462 
L 120.537701 332.719636 
L 135.694782 327.389365 
L 135.694782 313.039335 
L 135.694782 313.039335 
L 120.537701 329.662354 
L 105.380621 325.520757 
L 90.22354 321.323032 
L 75.06646 324.116753 
L 59.909379 324.792095 
L 44.752299 325.884485 
L 29.595218 323.473411 
z
" clip-path="url(#p4e159bd272)" style="fill-opacity: 0.5"/>
   </g>
   <g id="line2d_53">
    <path d="M 29.595218 323.629862 
L 44.752299 326.099106 
L 59.909379 325.219481 
L 75.06646 324.914527 
L 90.22354 323.035164 
L 105.380621 327.21811 
L 120.537701 331.190995 
L 135.694782 320.21435 
" clip-path="url(#p4e159bd272)" style="fill: none; stroke: #000000; stroke-width: 1.5; stroke-linecap: square"/>
   </g>
   <g id="matplotlib.axis_9">
    <g id="xtick_33">
     <g id="line2d_54">
      <g>
       <use xlink:href="#mae0c13accb" x="29.595218" y="334.858041" style="stroke: #000000; stroke-width: 0.8"/>
      </g>
     </g>
     <g id="text_13">
      <!-- $\mathdefault{0}$ -->
      <g transform="translate(28.195218 345.436948) scale(0.05 -0.05)">
       <use xlink:href="#ArialMT-30" transform="translate(0 0.125)"/>
      </g>
     </g>
    </g>
    <g id="xtick_34">
     <g id="line2d_55">
      <g>
       <use xlink:href="#mae0c13accb" x="44.752299" y="334.858041" style="stroke: #000000; stroke-width: 0.8"/>
      </g>
     </g>
     <g id="text_14">
      <!-- $\mathdefault{1}$ -->
      <g transform="translate(43.352299 345.436948) scale(0.05 -0.05)">
       <use xlink:href="#ArialMT-31" transform="translate(0 0.125)"/>
      </g>
     </g>
    </g>
    <g id="xtick_35">
     <g id="line2d_56">
      <g>
       <use xlink:href="#mae0c13accb" x="59.909379" y="334.858041" style="stroke: #000000; stroke-width: 0.8"/>
      </g>
     </g>
     <g id="text_15">
      <!-- $\mathdefault{2}$ -->
      <g transform="translate(58.509379 345.436948) scale(0.05 -0.05)">
       <use xlink:href="#ArialMT-32" transform="translate(0 0.125)"/>
      </g>
     </g>
    </g>
    <g id="xtick_36">
     <g id="line2d_57">
      <g>
       <use xlink:href="#mae0c13accb" x="75.06646" y="334.858041" style="stroke: #000000; stroke-width: 0.8"/>
      </g>
     </g>
     <g id="text_16">
      <!-- $\mathdefault{3}$ -->
      <g transform="translate(73.66646 345.436948) scale(0.05 -0.05)">
       <use xlink:href="#ArialMT-33" transform="translate(0 0.125)"/>
      </g>
     </g>
    </g>
    <g id="xtick_37">
     <g id="line2d_58">
      <g>
       <use xlink:href="#mae0c13accb" x="90.22354" y="334.858041" style="stroke: #000000; stroke-width: 0.8"/>
      </g>
     </g>
     <g id="text_17">
      <!-- $\mathdefault{4}$ -->
      <g transform="translate(88.82354 345.436948) scale(0.05 -0.05)">
       <use xlink:href="#ArialMT-34" transform="translate(0 0.421875)"/>
      </g>
     </g>
    </g>
    <g id="xtick_38">
     <g id="line2d_59">
      <g>
       <use xlink:href="#mae0c13accb" x="105.380621" y="334.858041" style="stroke: #000000; stroke-width: 0.8"/>
      </g>
     </g>
     <g id="text_18">
      <!-- $\mathdefault{5}$ -->
      <g transform="translate(103.980621 345.436948) scale(0.05 -0.05)">
       <defs>
        <path id="ArialMT-35" d="M 266 1200 
L 856 1250 
Q 922 819 1161 601 
Q 1400 384 1738 384 
Q 2144 384 2425 690 
Q 2706 997 2706 1503 
Q 2706 1984 2436 2262 
Q 2166 2541 1728 2541 
Q 1456 2541 1237 2417 
Q 1019 2294 894 2097 
L 366 2166 
L 809 4519 
L 3088 4519 
L 3088 3981 
L 1259 3981 
L 1013 2750 
Q 1425 3038 1878 3038 
Q 2478 3038 2890 2622 
Q 3303 2206 3303 1553 
Q 3303 931 2941 478 
Q 2500 -78 1738 -78 
Q 1113 -78 717 272 
Q 322 622 266 1200 
z
" transform="scale(0.015625)"/>
       </defs>
       <use xlink:href="#ArialMT-35" transform="translate(0 0.390625)"/>
      </g>
     </g>
    </g>
    <g id="xtick_39">
     <g id="line2d_60">
      <g>
       <use xlink:href="#mae0c13accb" x="120.537701" y="334.858041" style="stroke: #000000; stroke-width: 0.8"/>
      </g>
     </g>
     <g id="text_19">
      <!-- $\mathdefault{6}$ -->
      <g transform="translate(119.137701 345.436948) scale(0.05 -0.05)">
       <use xlink:href="#ArialMT-36" transform="translate(0 0.125)"/>
      </g>
     </g>
    </g>
    <g id="xtick_40">
     <g id="line2d_61">
      <g>
       <use xlink:href="#mae0c13accb" x="135.694782" y="334.858041" style="stroke: #000000; stroke-width: 0.8"/>
      </g>
     </g>
     <g id="text_20">
      <!-- $\mathdefault{7}$ -->
      <g transform="translate(134.294782 345.436948) scale(0.05 -0.05)">
       <defs>
        <path id="ArialMT-37" d="M 303 3981 
L 303 4522 
L 3269 4522 
L 3269 4084 
Q 2831 3619 2401 2847 
Q 1972 2075 1738 1259 
Q 1569 684 1522 0 
L 944 0 
Q 953 541 1156 1306 
Q 1359 2072 1739 2783 
Q 2119 3494 2547 3981 
L 303 3981 
z
" transform="scale(0.015625)"/>
       </defs>
       <use xlink:href="#ArialMT-37" transform="translate(0 0.34375)"/>
      </g>
     </g>
    </g>
    <g id="text_21">
     <!-- Number of intermidiary forward bouts , q -->
     <g transform="translate(20.208281 355.526479) scale(0.07 -0.07)">
      <defs>
       <path id="ArialMT-4e" d="M 488 0 
L 488 4581 
L 1109 4581 
L 3516 984 
L 3516 4581 
L 4097 4581 
L 4097 0 
L 3475 0 
L 1069 3600 
L 1069 0 
L 488 0 
z
" transform="scale(0.015625)"/>
       <path id="ArialMT-75" d="M 2597 0 
L 2597 488 
Q 2209 -75 1544 -75 
Q 1250 -75 995 37 
Q 741 150 617 320 
Q 494 491 444 738 
Q 409 903 409 1263 
L 409 3319 
L 972 3319 
L 972 1478 
Q 972 1038 1006 884 
Q 1059 663 1231 536 
Q 1403 409 1656 409 
Q 1909 409 2131 539 
Q 2353 669 2445 892 
Q 2538 1116 2538 1541 
L 2538 3319 
L 3100 3319 
L 3100 0 
L 2597 0 
z
" transform="scale(0.015625)"/>
       <path id="ArialMT-6d" d="M 422 0 
L 422 3319 
L 925 3319 
L 925 2853 
Q 1081 3097 1340 3245 
Q 1600 3394 1931 3394 
Q 2300 3394 2536 3241 
Q 2772 3088 2869 2813 
Q 3263 3394 3894 3394 
Q 4388 3394 4653 3120 
Q 4919 2847 4919 2278 
L 4919 0 
L 4359 0 
L 4359 2091 
Q 4359 2428 4304 2576 
Q 4250 2725 4106 2815 
Q 3963 2906 3769 2906 
Q 3419 2906 3187 2673 
Q 2956 2441 2956 1928 
L 2956 0 
L 2394 0 
L 2394 2156 
Q 2394 2531 2256 2718 
Q 2119 2906 1806 2906 
Q 1569 2906 1367 2781 
Q 1166 2656 1075 2415 
Q 984 2175 984 1722 
L 984 0 
L 422 0 
z
" transform="scale(0.015625)"/>
       <path id="ArialMT-62" d="M 941 0 
L 419 0 
L 419 4581 
L 981 4581 
L 981 2947 
Q 1338 3394 1891 3394 
Q 2197 3394 2470 3270 
Q 2744 3147 2920 2923 
Q 3097 2700 3197 2384 
Q 3297 2069 3297 1709 
Q 3297 856 2875 390 
Q 2453 -75 1863 -75 
Q 1275 -75 941 416 
L 941 0 
z
M 934 1684 
Q 934 1088 1097 822 
Q 1363 388 1816 388 
Q 2184 388 2453 708 
Q 2722 1028 2722 1663 
Q 2722 2313 2464 2622 
Q 2206 2931 1841 2931 
Q 1472 2931 1203 2611 
Q 934 2291 934 1684 
z
" transform="scale(0.015625)"/>
       <path id="ArialMT-65" d="M 2694 1069 
L 3275 997 
Q 3138 488 2766 206 
Q 2394 -75 1816 -75 
Q 1088 -75 661 373 
Q 234 822 234 1631 
Q 234 2469 665 2931 
Q 1097 3394 1784 3394 
Q 2450 3394 2872 2941 
Q 3294 2488 3294 1666 
Q 3294 1616 3291 1516 
L 816 1516 
Q 847 969 1125 678 
Q 1403 388 1819 388 
Q 2128 388 2347 550 
Q 2566 713 2694 1069 
z
M 847 1978 
L 2700 1978 
Q 2663 2397 2488 2606 
Q 2219 2931 1791 2931 
Q 1403 2931 1139 2672 
Q 875 2413 847 1978 
z
" transform="scale(0.015625)"/>
       <path id="ArialMT-72" d="M 416 0 
L 416 3319 
L 922 3319 
L 922 2816 
Q 1116 3169 1280 3281 
Q 1444 3394 1641 3394 
Q 1925 3394 2219 3213 
L 2025 2691 
Q 1819 2813 1613 2813 
Q 1428 2813 1281 2702 
Q 1134 2591 1072 2394 
Q 978 2094 978 1738 
L 978 0 
L 416 0 
z
" transform="scale(0.015625)"/>
       <path id="ArialMT-20" transform="scale(0.015625)"/>
       <path id="ArialMT-6f" d="M 213 1659 
Q 213 2581 725 3025 
Q 1153 3394 1769 3394 
Q 2453 3394 2887 2945 
Q 3322 2497 3322 1706 
Q 3322 1066 3130 698 
Q 2938 331 2570 128 
Q 2203 -75 1769 -75 
Q 1072 -75 642 372 
Q 213 819 213 1659 
z
M 791 1659 
Q 791 1022 1069 705 
Q 1347 388 1769 388 
Q 2188 388 2466 706 
Q 2744 1025 2744 1678 
Q 2744 2294 2464 2611 
Q 2184 2928 1769 2928 
Q 1347 2928 1069 2612 
Q 791 2297 791 1659 
z
" transform="scale(0.015625)"/>
       <path id="ArialMT-66" d="M 556 0 
L 556 2881 
L 59 2881 
L 59 3319 
L 556 3319 
L 556 3672 
Q 556 4006 616 4169 
Q 697 4388 901 4523 
Q 1106 4659 1475 4659 
Q 1713 4659 2000 4603 
L 1916 4113 
Q 1741 4144 1584 4144 
Q 1328 4144 1222 4034 
Q 1116 3925 1116 3625 
L 1116 3319 
L 1763 3319 
L 1763 2881 
L 1116 2881 
L 1116 0 
L 556 0 
z
" transform="scale(0.015625)"/>
       <path id="ArialMT-69" d="M 425 3934 
L 425 4581 
L 988 4581 
L 988 3934 
L 425 3934 
z
M 425 0 
L 425 3319 
L 988 3319 
L 988 0 
L 425 0 
z
" transform="scale(0.015625)"/>
       <path id="ArialMT-6e" d="M 422 0 
L 422 3319 
L 928 3319 
L 928 2847 
Q 1294 3394 1984 3394 
Q 2284 3394 2536 3286 
Q 2788 3178 2913 3003 
Q 3038 2828 3088 2588 
Q 3119 2431 3119 2041 
L 3119 0 
L 2556 0 
L 2556 2019 
Q 2556 2363 2490 2533 
Q 2425 2703 2258 2804 
Q 2091 2906 1866 2906 
Q 1506 2906 1245 2678 
Q 984 2450 984 1813 
L 984 0 
L 422 0 
z
" transform="scale(0.015625)"/>
       <path id="ArialMT-74" d="M 1650 503 
L 1731 6 
Q 1494 -44 1306 -44 
Q 1000 -44 831 53 
Q 663 150 594 308 
Q 525 466 525 972 
L 525 2881 
L 113 2881 
L 113 3319 
L 525 3319 
L 525 4141 
L 1084 4478 
L 1084 3319 
L 1650 3319 
L 1650 2881 
L 1084 2881 
L 1084 941 
Q 1084 700 1114 631 
Q 1144 563 1211 522 
Q 1278 481 1403 481 
Q 1497 481 1650 503 
z
" transform="scale(0.015625)"/>
       <path id="ArialMT-64" d="M 2575 0 
L 2575 419 
Q 2259 -75 1647 -75 
Q 1250 -75 917 144 
Q 584 363 401 755 
Q 219 1147 219 1656 
Q 219 2153 384 2558 
Q 550 2963 881 3178 
Q 1213 3394 1622 3394 
Q 1922 3394 2156 3267 
Q 2391 3141 2538 2938 
L 2538 4581 
L 3097 4581 
L 3097 0 
L 2575 0 
z
M 797 1656 
Q 797 1019 1065 703 
Q 1334 388 1700 388 
Q 2069 388 2326 689 
Q 2584 991 2584 1609 
Q 2584 2291 2321 2609 
Q 2059 2928 1675 2928 
Q 1300 2928 1048 2622 
Q 797 2316 797 1656 
z
" transform="scale(0.015625)"/>
       <path id="ArialMT-61" d="M 2588 409 
Q 2275 144 1986 34 
Q 1697 -75 1366 -75 
Q 819 -75 525 192 
Q 231 459 231 875 
Q 231 1119 342 1320 
Q 453 1522 633 1644 
Q 813 1766 1038 1828 
Q 1203 1872 1538 1913 
Q 2219 1994 2541 2106 
Q 2544 2222 2544 2253 
Q 2544 2597 2384 2738 
Q 2169 2928 1744 2928 
Q 1347 2928 1158 2789 
Q 969 2650 878 2297 
L 328 2372 
Q 403 2725 575 2942 
Q 747 3159 1072 3276 
Q 1397 3394 1825 3394 
Q 2250 3394 2515 3294 
Q 2781 3194 2906 3042 
Q 3031 2891 3081 2659 
Q 3109 2516 3109 2141 
L 3109 1391 
Q 3109 606 3145 398 
Q 3181 191 3288 0 
L 2700 0 
Q 2613 175 2588 409 
z
M 2541 1666 
Q 2234 1541 1622 1453 
Q 1275 1403 1131 1340 
Q 988 1278 909 1158 
Q 831 1038 831 891 
Q 831 666 1001 516 
Q 1172 366 1500 366 
Q 1825 366 2078 508 
Q 2331 650 2450 897 
Q 2541 1088 2541 1459 
L 2541 1666 
z
" transform="scale(0.015625)"/>
       <path id="ArialMT-79" d="M 397 -1278 
L 334 -750 
Q 519 -800 656 -800 
Q 844 -800 956 -737 
Q 1069 -675 1141 -563 
Q 1194 -478 1313 -144 
Q 1328 -97 1363 -6 
L 103 3319 
L 709 3319 
L 1400 1397 
Q 1534 1031 1641 628 
Q 1738 1016 1872 1384 
L 2581 3319 
L 3144 3319 
L 1881 -56 
Q 1678 -603 1566 -809 
Q 1416 -1088 1222 -1217 
Q 1028 -1347 759 -1347 
Q 597 -1347 397 -1278 
z
" transform="scale(0.015625)"/>
       <path id="ArialMT-77" d="M 1034 0 
L 19 3319 
L 600 3319 
L 1128 1403 
L 1325 691 
Q 1338 744 1497 1375 
L 2025 3319 
L 2603 3319 
L 3100 1394 
L 3266 759 
L 3456 1400 
L 4025 3319 
L 4572 3319 
L 3534 0 
L 2950 0 
L 2422 1988 
L 2294 2553 
L 1622 0 
L 1034 0 
z
" transform="scale(0.015625)"/>
       <path id="ArialMT-73" d="M 197 991 
L 753 1078 
Q 800 744 1014 566 
Q 1228 388 1613 388 
Q 2000 388 2187 545 
Q 2375 703 2375 916 
Q 2375 1106 2209 1216 
Q 2094 1291 1634 1406 
Q 1016 1563 777 1677 
Q 538 1791 414 1992 
Q 291 2194 291 2438 
Q 291 2659 392 2848 
Q 494 3038 669 3163 
Q 800 3259 1026 3326 
Q 1253 3394 1513 3394 
Q 1903 3394 2198 3281 
Q 2494 3169 2634 2976 
Q 2775 2784 2828 2463 
L 2278 2388 
Q 2241 2644 2061 2787 
Q 1881 2931 1553 2931 
Q 1166 2931 1000 2803 
Q 834 2675 834 2503 
Q 834 2394 903 2306 
Q 972 2216 1119 2156 
Q 1203 2125 1616 2013 
Q 2213 1853 2448 1751 
Q 2684 1650 2818 1456 
Q 2953 1263 2953 975 
Q 2953 694 2789 445 
Q 2625 197 2315 61 
Q 2006 -75 1616 -75 
Q 969 -75 630 194 
Q 291 463 197 991 
z
" transform="scale(0.015625)"/>
       <path id="ArialMT-2c" d="M 569 0 
L 569 641 
L 1209 641 
L 1209 0 
Q 1209 -353 1084 -570 
Q 959 -788 688 -906 
L 531 -666 
Q 709 -588 793 -436 
Q 878 -284 888 0 
L 569 0 
z
" transform="scale(0.015625)"/>
       <path id="ArialMT-71" d="M 2538 -1272 
L 2538 353 
Q 2406 169 2170 47 
Q 1934 -75 1669 -75 
Q 1078 -75 651 397 
Q 225 869 225 1691 
Q 225 2191 398 2587 
Q 572 2984 901 3189 
Q 1231 3394 1625 3394 
Q 2241 3394 2594 2875 
L 2594 3319 
L 3100 3319 
L 3100 -1272 
L 2538 -1272 
z
M 803 1669 
Q 803 1028 1072 708 
Q 1341 388 1716 388 
Q 2075 388 2334 692 
Q 2594 997 2594 1619 
Q 2594 2281 2320 2615 
Q 2047 2950 1678 2950 
Q 1313 2950 1058 2639 
Q 803 2328 803 1669 
z
" transform="scale(0.015625)"/>
      </defs>
      <use xlink:href="#ArialMT-4e"/>
      <use xlink:href="#ArialMT-75" x="72.216797"/>
      <use xlink:href="#ArialMT-6d" x="127.832031"/>
      <use xlink:href="#ArialMT-62" x="211.132812"/>
      <use xlink:href="#ArialMT-65" x="266.748047"/>
      <use xlink:href="#ArialMT-72" x="322.363281"/>
      <use xlink:href="#ArialMT-20" x="355.664062"/>
      <use xlink:href="#ArialMT-6f" x="383.447266"/>
      <use xlink:href="#ArialMT-66" x="439.0625"/>
      <use xlink:href="#ArialMT-20" x="466.845703"/>
      <use xlink:href="#ArialMT-69" x="494.628906"/>
      <use xlink:href="#ArialMT-6e" x="516.845703"/>
      <use xlink:href="#ArialMT-74" x="572.460938"/>
      <use xlink:href="#ArialMT-65" x="600.244141"/>
      <use xlink:href="#ArialMT-72" x="655.859375"/>
      <use xlink:href="#ArialMT-6d" x="689.160156"/>
      <use xlink:href="#ArialMT-69" x="772.460938"/>
      <use xlink:href="#ArialMT-64" x="794.677734"/>
      <use xlink:href="#ArialMT-69" x="850.292969"/>
      <use xlink:href="#ArialMT-61" x="872.509766"/>
      <use xlink:href="#ArialMT-72" x="928.125"/>
      <use xlink:href="#ArialMT-79" x="961.425781"/>
      <use xlink:href="#ArialMT-20" x="1011.425781"/>
      <use xlink:href="#ArialMT-66" x="1039.208984"/>
      <use xlink:href="#ArialMT-6f" x="1066.992188"/>
      <use xlink:href="#ArialMT-72" x="1122.607422"/>
      <use xlink:href="#ArialMT-77" x="1155.908203"/>
      <use xlink:href="#ArialMT-61" x="1228.125"/>
      <use xlink:href="#ArialMT-72" x="1283.740234"/>
      <use xlink:href="#ArialMT-64" x="1317.041016"/>
      <use xlink:href="#ArialMT-20" x="1372.65625"/>
      <use xlink:href="#ArialMT-62" x="1400.439453"/>
      <use xlink:href="#ArialMT-6f" x="1456.054688"/>
      <use xlink:href="#ArialMT-75" x="1511.669922"/>
      <use xlink:href="#ArialMT-74" x="1567.285156"/>
      <use xlink:href="#ArialMT-73" x="1595.068359"/>
      <use xlink:href="#ArialMT-20" x="1645.068359"/>
      <use xlink:href="#ArialMT-2c" x="1672.851562"/>
      <use xlink:href="#ArialMT-20" x="1700.634766"/>
      <use xlink:href="#ArialMT-71" x="1728.417969"/>
     </g>
    </g>
   </g>
   <g id="matplotlib.axis_10">
    <g id="ytick_9">
     <g id="line2d_62">
      <g>
       <use xlink:href="#m3b36c2f3d5" x="24.29024" y="316.167095" style="stroke: #000000; stroke-width: 0.8"/>
      </g>
     </g>
     <g id="text_22">
      <!-- $\mathdefault{2}$ -->
      <g transform="translate(14.49024 317.956549) scale(0.05 -0.05)">
       <use xlink:href="#ArialMT-32" transform="translate(0 0.125)"/>
      </g>
     </g>
    </g>
    <g id="ytick_10">
     <g id="line2d_63">
      <g>
       <use xlink:href="#m3b36c2f3d5" x="24.29024" y="297.279907" style="stroke: #000000; stroke-width: 0.8"/>
      </g>
     </g>
     <g id="text_23">
      <!-- $\mathdefault{4}$ -->
      <g transform="translate(14.49024 299.069361) scale(0.05 -0.05)">
       <use xlink:href="#ArialMT-34" transform="translate(0 0.421875)"/>
      </g>
     </g>
    </g>
    <g id="text_24">
     <!-- Stubbornness Factor , $f_{q}$ -->
     <g transform="translate(8.32024 349.625578) rotate(-90) scale(0.07 -0.07)">
      <defs>
       <path id="ArialMT-53" d="M 288 1472 
L 859 1522 
Q 900 1178 1048 958 
Q 1197 738 1509 602 
Q 1822 466 2213 466 
Q 2559 466 2825 569 
Q 3091 672 3220 851 
Q 3350 1031 3350 1244 
Q 3350 1459 3225 1620 
Q 3100 1781 2813 1891 
Q 2628 1963 1997 2114 
Q 1366 2266 1113 2400 
Q 784 2572 623 2826 
Q 463 3081 463 3397 
Q 463 3744 659 4045 
Q 856 4347 1234 4503 
Q 1613 4659 2075 4659 
Q 2584 4659 2973 4495 
Q 3363 4331 3572 4012 
Q 3781 3694 3797 3291 
L 3216 3247 
Q 3169 3681 2898 3903 
Q 2628 4125 2100 4125 
Q 1550 4125 1298 3923 
Q 1047 3722 1047 3438 
Q 1047 3191 1225 3031 
Q 1400 2872 2139 2705 
Q 2878 2538 3153 2413 
Q 3553 2228 3743 1945 
Q 3934 1663 3934 1294 
Q 3934 928 3725 604 
Q 3516 281 3123 101 
Q 2731 -78 2241 -78 
Q 1619 -78 1198 103 
Q 778 284 539 648 
Q 300 1013 288 1472 
z
" transform="scale(0.015625)"/>
       <path id="ArialMT-46" d="M 525 0 
L 525 4581 
L 3616 4581 
L 3616 4041 
L 1131 4041 
L 1131 2622 
L 3281 2622 
L 3281 2081 
L 1131 2081 
L 1131 0 
L 525 0 
z
" transform="scale(0.015625)"/>
       <path id="ArialMT-63" d="M 2588 1216 
L 3141 1144 
Q 3050 572 2676 248 
Q 2303 -75 1759 -75 
Q 1078 -75 664 370 
Q 250 816 250 1647 
Q 250 2184 428 2587 
Q 606 2991 970 3192 
Q 1334 3394 1763 3394 
Q 2303 3394 2647 3120 
Q 2991 2847 3088 2344 
L 2541 2259 
Q 2463 2594 2264 2762 
Q 2066 2931 1784 2931 
Q 1359 2931 1093 2626 
Q 828 2322 828 1663 
Q 828 994 1084 691 
Q 1341 388 1753 388 
Q 2084 388 2306 591 
Q 2528 794 2588 1216 
z
" transform="scale(0.015625)"/>
       <path id="DejaVuSans-Oblique-66" d="M 3059 4863 
L 2969 4384 
L 2419 4384 
Q 2106 4384 1964 4261 
Q 1822 4138 1753 3809 
L 1691 3500 
L 2638 3500 
L 2553 3053 
L 1606 3053 
L 1013 0 
L 434 0 
L 1031 3053 
L 481 3053 
L 563 3500 
L 1113 3500 
L 1159 3744 
Q 1278 4363 1576 4613 
Q 1875 4863 2516 4863 
L 3059 4863 
z
" transform="scale(0.015625)"/>
       <path id="DejaVuSans-Oblique-71" d="M 2669 525 
Q 2438 222 2123 65 
Q 1809 -91 1428 -91 
Q 897 -91 595 267 
Q 294 625 294 1253 
Q 294 1759 480 2231 
Q 666 2703 1013 3078 
Q 1238 3322 1530 3453 
Q 1822 3584 2144 3584 
Q 2531 3584 2781 3431 
Q 3031 3278 3144 2969 
L 3244 3494 
L 3822 3494 
L 2888 -1319 
L 2309 -1319 
L 2669 525 
z
M 891 1338 
Q 891 875 1084 633 
Q 1278 391 1644 391 
Q 2188 391 2572 911 
Q 2956 1431 2956 2175 
Q 2956 2625 2757 2864 
Q 2559 3103 2188 3103 
Q 1916 3103 1684 2976 
Q 1453 2850 1281 2606 
Q 1100 2350 995 2006 
Q 891 1663 891 1338 
z
" transform="scale(0.015625)"/>
      </defs>
      <use xlink:href="#ArialMT-53" transform="translate(0 0.015625)"/>
      <use xlink:href="#ArialMT-74" transform="translate(66.699219 0.015625)"/>
      <use xlink:href="#ArialMT-75" transform="translate(94.482422 0.015625)"/>
      <use xlink:href="#ArialMT-62" transform="translate(150.097656 0.015625)"/>
      <use xlink:href="#ArialMT-62" transform="translate(205.712891 0.015625)"/>
      <use xlink:href="#ArialMT-6f" transform="translate(261.328125 0.015625)"/>
      <use xlink:href="#ArialMT-72" transform="translate(316.943359 0.015625)"/>
      <use xlink:href="#ArialMT-6e" transform="translate(350.244141 0.015625)"/>
      <use xlink:href="#ArialMT-6e" transform="translate(405.859375 0.015625)"/>
      <use xlink:href="#ArialMT-65" transform="translate(461.474609 0.015625)"/>
      <use xlink:href="#ArialMT-73" transform="translate(517.089844 0.015625)"/>
      <use xlink:href="#ArialMT-73" transform="translate(567.089844 0.015625)"/>
      <use xlink:href="#ArialMT-20" transform="translate(617.089844 0.015625)"/>
      <use xlink:href="#ArialMT-46" transform="translate(644.873047 0.015625)"/>
      <use xlink:href="#ArialMT-61" transform="translate(705.957031 0.015625)"/>
      <use xlink:href="#ArialMT-63" transform="translate(761.572266 0.015625)"/>
      <use xlink:href="#ArialMT-74" transform="translate(811.572266 0.015625)"/>
      <use xlink:href="#ArialMT-6f" transform="translate(839.355469 0.015625)"/>
      <use xlink:href="#ArialMT-72" transform="translate(894.970703 0.015625)"/>
      <use xlink:href="#ArialMT-20" transform="translate(928.271484 0.015625)"/>
      <use xlink:href="#ArialMT-2c" transform="translate(956.054688 0.015625)"/>
      <use xlink:href="#ArialMT-20" transform="translate(983.837891 0.015625)"/>
      <use xlink:href="#DejaVuSans-Oblique-66" transform="translate(1011.621094 0.015625)"/>
      <use xlink:href="#DejaVuSans-Oblique-71" transform="translate(1046.826172 -16.390625) scale(0.7)"/>
     </g>
    </g>
   </g>
   <g id="PathCollection_9">
    <g clip-path="url(#p4e159bd272)">
     <use xlink:href="#m2c6ee5e066" x="29.595218" y="323.629862" style="stroke: #000000"/>
     <use xlink:href="#m2c6ee5e066" x="44.752299" y="326.099106" style="stroke: #000000"/>
     <use xlink:href="#m2c6ee5e066" x="59.909379" y="325.219481" style="stroke: #000000"/>
     <use xlink:href="#m2c6ee5e066" x="75.06646" y="324.914527" style="stroke: #000000"/>
     <use xlink:href="#m2c6ee5e066" x="90.22354" y="323.035164" style="stroke: #000000"/>
     <use xlink:href="#m2c6ee5e066" x="105.380621" y="327.21811" style="stroke: #000000"/>
     <use xlink:href="#m2c6ee5e066" x="120.537701" y="331.190995" style="stroke: #000000"/>
     <use xlink:href="#m2c6ee5e066" x="135.694782" y="320.21435" style="stroke: #000000"/>
    </g>
   </g>
   <g id="line2d_64">
    <path d="M 24.29024 325.610689 
L 140.99976 325.610689 
" clip-path="url(#p4e159bd272)" style="fill: none; stroke: #000000; stroke-width: 1.5; stroke-linecap: square"/>
   </g>
   <g id="patch_15">
    <path d="M 24.29024 334.858041 
L 24.29024 287.813115 
" style="fill: none; stroke: #000000; stroke-width: 0.8; stroke-linejoin: miter; stroke-linecap: square"/>
   </g>
   <g id="patch_16">
    <path d="M 24.29024 334.858041 
L 140.99976 334.858041 
" style="fill: none; stroke: #000000; stroke-width: 0.8; stroke-linejoin: miter; stroke-linecap: square"/>
   </g>
   <g id="PolyCollection_10">
    <path d="M 29.595218 323.391646 
L 29.595218 323.715509 
L 44.752299 326.441578 
L 59.909379 325.681721 
L 75.06646 325.968457 
L 90.22354 324.522925 
L 105.380621 328.301475 
L 120.537701 331.372561 
L 135.694782 327.354479 
L 135.694782 314.423306 
L 135.694782 314.423306 
L 120.537701 327.839551 
L 105.380621 324.808622 
L 90.22354 321.402981 
L 75.06646 324.475214 
L 59.909379 324.857194 
L 44.752299 326.019077 
L 29.595218 323.391646 
z
" clip-path="url(#p4e159bd272)" style="fill: #ffa500; fill-opacity: 0.5"/>
   </g>
   <g id="text_25">
    <!-- 33째C -->
    <g transform="translate(73.708125 281.813115) scale(0.08 -0.08)">
     <use xlink:href="#ArialMT-33"/>
     <use xlink:href="#ArialMT-33" x="55.615234"/>
     <use xlink:href="#ArialMT-b0" x="111.230469"/>
     <use xlink:href="#ArialMT-43" x="151.220703"/>
    </g>
   </g>
   <g id="line2d_65">
    <path d="M 29.595218 323.553577 
L 44.752299 326.230327 
L 59.909379 325.269457 
L 75.06646 325.221836 
L 90.22354 322.962953 
L 105.380621 326.555049 
L 120.537701 329.606056 
L 135.694782 320.888892 
" clip-path="url(#p4e159bd272)" style="fill: none; stroke: #ffa500; stroke-width: 1.5; stroke-linecap: square"/>
   </g>
   <g id="PathCollection_10">
    <g clip-path="url(#p4e159bd272)">
     <use xlink:href="#mac0b31bb33" x="29.595218" y="323.553577" style="fill: #ffa500; stroke: #ffa500"/>
     <use xlink:href="#mac0b31bb33" x="44.752299" y="326.230327" style="fill: #ffa500; stroke: #ffa500"/>
     <use xlink:href="#mac0b31bb33" x="59.909379" y="325.269457" style="fill: #ffa500; stroke: #ffa500"/>
     <use xlink:href="#mac0b31bb33" x="75.06646" y="325.221836" style="fill: #ffa500; stroke: #ffa500"/>
     <use xlink:href="#mac0b31bb33" x="90.22354" y="322.962953" style="fill: #ffa500; stroke: #ffa500"/>
     <use xlink:href="#mac0b31bb33" x="105.380621" y="326.555049" style="fill: #ffa500; stroke: #ffa500"/>
     <use xlink:href="#mac0b31bb33" x="120.537701" y="329.606056" style="fill: #ffa500; stroke: #ffa500"/>
     <use xlink:href="#mac0b31bb33" x="135.694782" y="320.888892" style="fill: #ffa500; stroke: #ffa500"/>
    </g>
   </g>
   <g id="legend_1">
    <g id="patch_17">
     <path d="M 93.090229 313.216553 
L 136.09976 313.216553 
Q 137.49976 313.216553 137.49976 311.816553 
L 137.49976 292.713115 
Q 137.49976 291.313115 136.09976 291.313115 
L 93.090229 291.313115 
Q 91.690229 291.313115 91.690229 292.713115 
L 91.690229 311.816553 
Q 91.690229 313.216553 93.090229 313.216553 
z
" style="fill: #ffffff; opacity: 0.8; stroke: #cccccc; stroke-linejoin: miter"/>
    </g>
    <g id="line2d_66">
     <path d="M 94.490229 296.673584 
L 101.490229 296.673584 
L 108.490229 296.673584 
" style="fill: none; stroke: #000000; stroke-width: 1.5; stroke-linecap: square"/>
    </g>
    <g id="text_26">
     <!-- MC -->
     <g transform="translate(114.090229 299.123584) scale(0.07 -0.07)">
      <defs>
       <path id="ArialMT-4d" d="M 475 0 
L 475 4581 
L 1388 4581 
L 2472 1338 
Q 2622 884 2691 659 
Q 2769 909 2934 1394 
L 4031 4581 
L 4847 4581 
L 4847 0 
L 4263 0 
L 4263 3834 
L 2931 0 
L 2384 0 
L 1059 3900 
L 1059 0 
L 475 0 
z
" transform="scale(0.015625)"/>
      </defs>
      <use xlink:href="#ArialMT-4d"/>
      <use xlink:href="#ArialMT-43" x="83.300781"/>
     </g>
    </g>
    <g id="line2d_67">
     <path d="M 94.490229 306.575303 
L 101.490229 306.575303 
L 108.490229 306.575303 
" style="fill: none; stroke: #ffa500; stroke-width: 1.5; stroke-linecap: square"/>
    </g>
    <g id="text_27">
     <!-- HMM3 -->
     <g transform="translate(114.090229 309.025303) scale(0.07 -0.07)">
      <defs>
       <path id="ArialMT-48" d="M 513 0 
L 513 4581 
L 1119 4581 
L 1119 2700 
L 3500 2700 
L 3500 4581 
L 4106 4581 
L 4106 0 
L 3500 0 
L 3500 2159 
L 1119 2159 
L 1119 0 
L 513 0 
z
" transform="scale(0.015625)"/>
      </defs>
      <use xlink:href="#ArialMT-48"/>
      <use xlink:href="#ArialMT-4d" x="72.216797"/>
      <use xlink:href="#ArialMT-4d" x="155.517578"/>
      <use xlink:href="#ArialMT-33" x="238.818359"/>
     </g>
    </g>
   </g>
  </g>
 </g>
 <defs>
  <clipPath id="p7ba0fe71dc">
   <rect x="24.29024" y="14.72649" width="116.70952" height="47.044926"/>
  </clipPath>
  <clipPath id="p8000bb4cc3">
   <rect x="24.29024" y="82.998146" width="116.70952" height="47.044926"/>
  </clipPath>
  <clipPath id="p055b9206b7">
   <rect x="24.29024" y="151.269802" width="116.70952" height="47.044926"/>
  </clipPath>
  <clipPath id="p2859218ddb">
   <rect x="24.29024" y="219.541459" width="116.70952" height="47.044926"/>
  </clipPath>
  <clipPath id="p4e159bd272">
   <rect x="24.29024" y="287.813115" width="116.70952" height="47.044926"/>
  </clipPath>
 </defs>
</svg>
