<?xml version="1.0" encoding="utf-8" standalone="no"?>
<!DOCTYPE svg PUBLIC "-//W3C//DTD SVG 1.1//EN"
  "http://www.w3.org/Graphics/SVG/1.1/DTD/svg11.dtd">
<svg xmlns:xlink="http://www.w3.org/1999/xlink" width="216pt" height="144pt" viewBox="0 0 216 144" xmlns="http://www.w3.org/2000/svg" version="1.1">
 <metadata>
  <rdf:RDF xmlns:dc="http://purl.org/dc/elements/1.1/" xmlns:cc="http://creativecommons.org/ns#" xmlns:rdf="http://www.w3.org/1999/02/22-rdf-syntax-ns#">
   <cc:Work>
    <dc:type rdf:resource="http://purl.org/dc/dcmitype/StillImage"/>
    <dc:date>2024-10-11T00:10:09.851091</dc:date>
    <dc:format>image/svg+xml</dc:format>
    <dc:creator>
     <cc:Agent>
      <dc:title>Matplotlib v3.8.0, https://matplotlib.org/</dc:title>
     </cc:Agent>
    </dc:creator>
   </cc:Work>
  </rdf:RDF>
 </metadata>
 <defs>
  <style type="text/css">*{stroke-linejoin: round; stroke-linecap: butt}</style>
 </defs>
 <g id="figure_1">
  <g id="patch_1">
   <path d="M 0 144 
L 216 144 
L 216 0 
L 0 0 
L 0 144 
z
" style="fill: none"/>
  </g>
  <g id="axes_1"/>
  <g id="axes_2">
   <g id="patch_2">
    <path d="M 92.546282 56.178901 
L 147.718893 56.178901 
L 147.718893 14.72649 
L 92.546282 14.72649 
L 92.546282 56.178901 
z
" style="fill: none"/>
   </g>
   <g id="PolyCollection_1">
    <defs>
     <path id="mc14134ba7e" d="M 95.054128 -122.828599 
L 95.054128 -117.00497 
L 108.429306 -121.792986 
L 121.804485 -116.135375 
L 135.179663 -113.041048 
L 145.211047 -108.305312 
L 145.211047 -115.033132 
L 145.211047 -115.033132 
L 135.179663 -116.725138 
L 121.804485 -120.189874 
L 108.429306 -123.048251 
L 95.054128 -122.828599 
z
"/>
    </defs>
    <g clip-path="url(#p7344d405ba)">
     <use xlink:href="#mc14134ba7e" x="0" y="144" style="fill: #ffa500; fill-opacity: 0.5"/>
    </g>
   </g>
   <g id="PolyCollection_2">
    <defs>
     <path id="m650a8690a6" d="M 95.054128 -117.027472 
L 95.054128 -108.959655 
L 108.429306 -114.934673 
L 121.804485 -107.046414 
L 135.179663 -103.367788 
L 145.211047 -100.136231 
L 145.211047 -108.44428 
L 145.211047 -108.44428 
L 135.179663 -108.329806 
L 121.804485 -113.124124 
L 108.429306 -117.141968 
L 95.054128 -117.027472 
z
"/>
    </defs>
    <g clip-path="url(#p7344d405ba)">
     <use xlink:href="#m650a8690a6" x="0" y="144" style="fill: #ee82ee; fill-opacity: 0.5"/>
    </g>
   </g>
   <g id="PolyCollection_3">
    <defs>
     <path id="mc4331300fd" d="M 95.054128 -120.508678 
L 95.054128 -116.807803 
L 108.429306 -120.274449 
L 121.804485 -115.972862 
L 135.179663 -112.814582 
L 145.211047 -103.938829 
L 145.211047 -108.276896 
L 145.211047 -108.276896 
L 135.179663 -116.584226 
L 121.804485 -117.584743 
L 108.429306 -123.091489 
L 95.054128 -120.508678 
z
"/>
    </defs>
    <g clip-path="url(#p7344d405ba)">
     <use xlink:href="#mc4331300fd" x="0" y="144" style="fill: #ffa500; fill-opacity: 0.5"/>
    </g>
   </g>
   <g id="PolyCollection_4">
    <defs>
     <path id="m95d592e72a" d="M 95.054128 -113.742569 
L 95.054128 -108.354743 
L 108.429306 -113.031167 
L 121.804485 -106.04675 
L 135.179663 -103.51561 
L 145.211047 -97.72141 
L 145.211047 -100.8113 
L 145.211047 -100.8113 
L 135.179663 -108.122463 
L 121.804485 -108.331732 
L 108.429306 -117.183509 
L 95.054128 -113.742569 
z
"/>
    </defs>
    <g clip-path="url(#p7344d405ba)">
     <use xlink:href="#m95d592e72a" x="0" y="144" style="fill: #ee82ee; fill-opacity: 0.5"/>
    </g>
   </g>
   <g id="matplotlib.axis_1">
    <g id="xtick_1">
     <g id="line2d_1">
      <defs>
       <path id="m8b66ee0342" d="M 0 0 
L 0 3.5 
" style="stroke: #000000; stroke-width: 0.8"/>
      </defs>
      <g>
       <use xlink:href="#m8b66ee0342" x="95.054128" y="56.178901" style="stroke: #000000; stroke-width: 0.8"/>
      </g>
     </g>
    </g>
    <g id="xtick_2">
     <g id="line2d_2">
      <g>
       <use xlink:href="#m8b66ee0342" x="108.429306" y="56.178901" style="stroke: #000000; stroke-width: 0.8"/>
      </g>
     </g>
    </g>
    <g id="xtick_3">
     <g id="line2d_3">
      <g>
       <use xlink:href="#m8b66ee0342" x="121.804485" y="56.178901" style="stroke: #000000; stroke-width: 0.8"/>
      </g>
     </g>
    </g>
    <g id="xtick_4">
     <g id="line2d_4">
      <g>
       <use xlink:href="#m8b66ee0342" x="135.179663" y="56.178901" style="stroke: #000000; stroke-width: 0.8"/>
      </g>
     </g>
    </g>
    <g id="xtick_5">
     <g id="line2d_5">
      <g>
       <use xlink:href="#m8b66ee0342" x="145.211047" y="56.178901" style="stroke: #000000; stroke-width: 0.8"/>
      </g>
     </g>
    </g>
   </g>
   <g id="matplotlib.axis_2">
    <g id="ytick_1">
     <g id="line2d_6">
      <defs>
       <path id="m248a22dd17" d="M 0 0 
L -3.5 0 
" style="stroke: #000000; stroke-width: 0.8"/>
      </defs>
      <g>
       <use xlink:href="#m248a22dd17" x="92.546282" y="56.178901" style="stroke: #000000; stroke-width: 0.8"/>
      </g>
     </g>
    </g>
    <g id="ytick_2">
     <g id="line2d_7">
      <g>
       <use xlink:href="#m248a22dd17" x="92.546282" y="35.452695" style="stroke: #000000; stroke-width: 0.8"/>
      </g>
     </g>
    </g>
    <g id="ytick_3">
     <g id="line2d_8">
      <g>
       <use xlink:href="#m248a22dd17" x="92.546282" y="14.72649" style="stroke: #000000; stroke-width: 0.8"/>
      </g>
     </g>
    </g>
   </g>
   <g id="line2d_9">
    <path d="M 95.054128 35.452458 
L 108.429306 35.290885 
L 121.804485 41.473916 
L 135.179663 41.675594 
L 145.211047 40.982547 
" clip-path="url(#p7344d405ba)" style="fill: none; stroke: #000000; stroke-width: 1.5; stroke-linecap: square"/>
   </g>
   <g id="line2d_10">
    <path d="M 95.054128 24.083216 
L 108.429306 21.579382 
L 121.804485 25.837375 
L 135.179663 29.116907 
L 145.211047 32.330778 
" clip-path="url(#p7344d405ba)" style="fill: none; stroke: #ffa500; stroke-width: 1.5; stroke-linecap: square"/>
   </g>
   <g id="line2d_11">
    <path d="M 95.054128 31.006436 
L 108.429306 27.96168 
L 121.804485 33.914731 
L 135.179663 38.151203 
L 145.211047 39.709745 
" clip-path="url(#p7344d405ba)" style="fill: none; stroke: #ee82ee; stroke-width: 1.5; stroke-linecap: square"/>
   </g>
   <g id="line2d_12">
    <path d="M 95.054128 35.452458 
L 108.429306 35.290885 
L 121.804485 41.473916 
L 135.179663 41.675594 
L 145.211047 40.982547 
" clip-path="url(#p7344d405ba)" style="fill: none; stroke: #000000; stroke-width: 1.5; stroke-linecap: square"/>
   </g>
   <g id="line2d_13">
    <path d="M 95.054128 25.341759 
L 108.429306 22.317031 
L 121.804485 27.221197 
L 135.179663 29.300596 
L 145.211047 37.892137 
" clip-path="url(#p7344d405ba)" style="fill: none; stroke: #ffa500; stroke-width: 1.5; stroke-linecap: square"/>
   </g>
   <g id="line2d_14">
    <path d="M 95.054128 32.951344 
L 108.429306 28.892662 
L 121.804485 36.810759 
L 135.179663 38.180964 
L 145.211047 44.733645 
" clip-path="url(#p7344d405ba)" style="fill: none; stroke: #ee82ee; stroke-width: 1.5; stroke-linecap: square"/>
   </g>
   <g id="patch_3">
    <path d="M 92.546282 56.178901 
L 92.546282 14.72649 
" style="fill: none; stroke: #000000; stroke-width: 0.8; stroke-linejoin: miter; stroke-linecap: square"/>
   </g>
   <g id="patch_4">
    <path d="M 92.546282 56.178901 
L 147.718893 56.178901 
" style="fill: none; stroke: #000000; stroke-width: 0.8; stroke-linejoin: miter; stroke-linecap: square"/>
   </g>
   <g id="text_1">
    <!-- L→L , R→R -->
    <g transform="translate(98.722587 8.72649) scale(0.08 -0.08)">
     <defs>
      <path id="ArialMT-4c" d="M 469 0 
L 469 4581 
L 1075 4581 
L 1075 541 
L 3331 541 
L 3331 0 
L 469 0 
z
" transform="scale(0.015625)"/>
      <path id="ArialMT-2192" d="M 4859 2738 
Q 5275 2284 5578 2048 
Q 5881 1813 6150 1697 
L 6150 1556 
Q 5841 1406 5550 1173 
Q 5259 941 4856 491 
L 4616 491 
Q 4909 1119 5231 1456 
L 247 1456 
L 247 1772 
L 5231 1772 
Q 4994 2075 4900 2222 
Q 4806 2369 4622 2738 
L 4859 2738 
z
" transform="scale(0.015625)"/>
      <path id="ArialMT-20" transform="scale(0.015625)"/>
      <path id="ArialMT-2c" d="M 569 0 
L 569 641 
L 1209 641 
L 1209 0 
Q 1209 -353 1084 -570 
Q 959 -788 688 -906 
L 531 -666 
Q 709 -588 793 -436 
Q 878 -284 888 0 
L 569 0 
z
" transform="scale(0.015625)"/>
      <path id="ArialMT-52" d="M 503 0 
L 503 4581 
L 2534 4581 
Q 3147 4581 3465 4457 
Q 3784 4334 3975 4021 
Q 4166 3709 4166 3331 
Q 4166 2844 3850 2509 
Q 3534 2175 2875 2084 
Q 3116 1969 3241 1856 
Q 3506 1613 3744 1247 
L 4541 0 
L 3778 0 
L 3172 953 
Q 2906 1366 2734 1584 
Q 2563 1803 2427 1890 
Q 2291 1978 2150 2013 
Q 2047 2034 1813 2034 
L 1109 2034 
L 1109 0 
L 503 0 
z
M 1109 2559 
L 2413 2559 
Q 2828 2559 3062 2645 
Q 3297 2731 3419 2920 
Q 3541 3109 3541 3331 
Q 3541 3656 3305 3865 
Q 3069 4075 2559 4075 
L 1109 4075 
L 1109 2559 
z
" transform="scale(0.015625)"/>
     </defs>
     <use xlink:href="#ArialMT-4c"/>
     <use xlink:href="#ArialMT-2192" x="55.615234"/>
     <use xlink:href="#ArialMT-4c" x="155.615234"/>
     <use xlink:href="#ArialMT-20" x="207.480469"/>
     <use xlink:href="#ArialMT-2c" x="235.263672"/>
     <use xlink:href="#ArialMT-20" x="263.046875"/>
     <use xlink:href="#ArialMT-52" x="290.830078"/>
     <use xlink:href="#ArialMT-2192" x="363.046875"/>
     <use xlink:href="#ArialMT-52" x="463.046875"/>
    </g>
   </g>
  </g>
  <g id="axes_3">
   <g id="patch_5">
    <path d="M 157.523261 56.178901 
L 212.695872 56.178901 
L 212.695872 14.72649 
L 157.523261 14.72649 
L 157.523261 56.178901 
z
" style="fill: none"/>
   </g>
   <g id="PolyCollection_5">
    <defs>
     <path id="mff88249230" d="M 160.031107 -120.885401 
L 160.031107 -118.049362 
L 173.406285 -117.611459 
L 186.781464 -121.236586 
L 200.156642 -118.483811 
L 210.188026 -108.799037 
L 210.188026 -117.900344 
L 210.188026 -117.900344 
L 200.156642 -120.91868 
L 186.781464 -123.272993 
L 173.406285 -122.720805 
L 160.031107 -120.885401 
z
"/>
    </defs>
    <g clip-path="url(#p7aac213c31)">
     <use xlink:href="#mff88249230" x="0" y="144" style="fill: #ffa500; fill-opacity: 0.5"/>
    </g>
   </g>
   <g id="PolyCollection_6">
    <defs>
     <path id="m52fdeb3f3f" d="M 160.031107 -115.263515 
L 160.031107 -111.950399 
L 173.406285 -111.062385 
L 186.781464 -115.442165 
L 200.156642 -111.64546 
L 210.188026 -104.135621 
L 210.188026 -114.084516 
L 210.188026 -114.084516 
L 200.156642 -116.000891 
L 186.781464 -118.580466 
L 173.406285 -117.377452 
L 160.031107 -115.263515 
z
"/>
    </defs>
    <g clip-path="url(#p7aac213c31)">
     <use xlink:href="#m52fdeb3f3f" x="0" y="144" style="fill: #ee82ee; fill-opacity: 0.5"/>
    </g>
   </g>
   <g id="matplotlib.axis_3">
    <g id="xtick_6">
     <g id="line2d_15">
      <g>
       <use xlink:href="#m8b66ee0342" x="160.031107" y="56.178901" style="stroke: #000000; stroke-width: 0.8"/>
      </g>
     </g>
    </g>
    <g id="xtick_7">
     <g id="line2d_16">
      <g>
       <use xlink:href="#m8b66ee0342" x="173.406285" y="56.178901" style="stroke: #000000; stroke-width: 0.8"/>
      </g>
     </g>
    </g>
    <g id="xtick_8">
     <g id="line2d_17">
      <g>
       <use xlink:href="#m8b66ee0342" x="186.781464" y="56.178901" style="stroke: #000000; stroke-width: 0.8"/>
      </g>
     </g>
    </g>
    <g id="xtick_9">
     <g id="line2d_18">
      <g>
       <use xlink:href="#m8b66ee0342" x="200.156642" y="56.178901" style="stroke: #000000; stroke-width: 0.8"/>
      </g>
     </g>
    </g>
    <g id="xtick_10">
     <g id="line2d_19">
      <g>
       <use xlink:href="#m8b66ee0342" x="210.188026" y="56.178901" style="stroke: #000000; stroke-width: 0.8"/>
      </g>
     </g>
    </g>
   </g>
   <g id="matplotlib.axis_4">
    <g id="ytick_4">
     <g id="line2d_20">
      <g>
       <use xlink:href="#m248a22dd17" x="157.523261" y="56.178901" style="stroke: #000000; stroke-width: 0.8"/>
      </g>
     </g>
    </g>
    <g id="ytick_5">
     <g id="line2d_21">
      <g>
       <use xlink:href="#m248a22dd17" x="157.523261" y="35.452695" style="stroke: #000000; stroke-width: 0.8"/>
      </g>
     </g>
    </g>
    <g id="ytick_6">
     <g id="line2d_22">
      <g>
       <use xlink:href="#m248a22dd17" x="157.523261" y="14.72649" style="stroke: #000000; stroke-width: 0.8"/>
      </g>
     </g>
    </g>
   </g>
   <g id="line2d_23">
    <path d="M 160.031107 28.375454 
L 173.406285 36.699701 
L 186.781464 37.527007 
L 200.156642 39.661761 
L 210.188026 42.066534 
" clip-path="url(#p7aac213c31)" style="fill: none; stroke: #000000; stroke-width: 1.5; stroke-linecap: square"/>
   </g>
   <g id="line2d_24">
    <path d="M 160.031107 24.532618 
L 173.406285 23.833868 
L 186.781464 21.745211 
L 200.156642 24.298754 
L 210.188026 30.650309 
" clip-path="url(#p7aac213c31)" style="fill: none; stroke: #ffa500; stroke-width: 1.5; stroke-linecap: square"/>
   </g>
   <g id="line2d_25">
    <path d="M 160.031107 30.393043 
L 173.406285 29.780082 
L 186.781464 26.988684 
L 200.156642 30.176824 
L 210.188026 34.889932 
" clip-path="url(#p7aac213c31)" style="fill: none; stroke: #ee82ee; stroke-width: 1.5; stroke-linecap: square"/>
   </g>
   <g id="patch_6">
    <path d="M 157.523261 56.178901 
L 157.523261 14.72649 
" style="fill: none; stroke: #000000; stroke-width: 0.8; stroke-linejoin: miter; stroke-linecap: square"/>
   </g>
   <g id="patch_7">
    <path d="M 157.523261 56.178901 
L 212.695872 56.178901 
" style="fill: none; stroke: #000000; stroke-width: 0.8; stroke-linejoin: miter; stroke-linecap: square"/>
   </g>
   <g id="text_2">
    <!-- F→F -->
    <g transform="translate(176.223316 8.72649) scale(0.08 -0.08)">
     <defs>
      <path id="ArialMT-46" d="M 525 0 
L 525 4581 
L 3616 4581 
L 3616 4041 
L 1131 4041 
L 1131 2622 
L 3281 2622 
L 3281 2081 
L 1131 2081 
L 1131 0 
L 525 0 
z
" transform="scale(0.015625)"/>
     </defs>
     <use xlink:href="#ArialMT-46"/>
     <use xlink:href="#ArialMT-2192" x="61.083984"/>
     <use xlink:href="#ArialMT-46" x="161.083984"/>
    </g>
   </g>
  </g>
  <g id="axes_4">
   <g id="patch_8">
    <path d="M 17.00024 118.858041 
L 72.172851 118.858041 
L 72.172851 77.405631 
L 17.00024 77.405631 
L 17.00024 118.858041 
z
" style="fill: none"/>
   </g>
   <g id="PolyCollection_7">
    <defs>
     <path id="m9fd16c8617" d="M 19.508086 -36.002055 
L 19.508086 -30.824794 
L 32.883264 -29.25067 
L 46.258443 -32.40215 
L 59.633621 -33.768896 
L 69.665005 -34.064691 
L 69.665005 -41.547222 
L 69.665005 -41.547222 
L 59.633621 -38.159737 
L 46.258443 -36.663408 
L 32.883264 -30.975787 
L 19.508086 -36.002055 
z
"/>
    </defs>
    <g clip-path="url(#p8a9266815e)">
     <use xlink:href="#m9fd16c8617" x="0" y="144" style="fill: #ffa500; fill-opacity: 0.5"/>
    </g>
   </g>
   <g id="PolyCollection_8">
    <defs>
     <path id="m4e7a20ddf8" d="M 19.508086 -41.618205 
L 19.508086 -35.05334 
L 32.883264 -33.076688 
L 46.258443 -37.417137 
L 59.633621 -38.83553 
L 69.665005 -38.127396 
L 69.665005 -47.225054 
L 69.665005 -47.225054 
L 59.633621 -45.089255 
L 46.258443 -43.848433 
L 32.883264 -35.95931 
L 19.508086 -41.618205 
z
"/>
    </defs>
    <g clip-path="url(#p8a9266815e)">
     <use xlink:href="#m4e7a20ddf8" x="0" y="144" style="fill: #ee82ee; fill-opacity: 0.5"/>
    </g>
   </g>
   <g id="PolyCollection_9">
    <defs>
     <path id="m594793d246" d="M 19.508086 -36.307944 
L 19.508086 -33.179942 
L 32.883264 -29.562335 
L 46.258443 -32.933076 
L 59.633621 -34.83456 
L 69.665005 -37.050136 
L 69.665005 -43.865191 
L 69.665005 -43.865191 
L 59.633621 -39.122767 
L 46.258443 -36.001687 
L 32.883264 -32.682814 
L 19.508086 -36.307944 
z
"/>
    </defs>
    <g clip-path="url(#p8a9266815e)">
     <use xlink:href="#m594793d246" x="0" y="144" style="fill: #ffa500; fill-opacity: 0.5"/>
    </g>
   </g>
   <g id="PolyCollection_10">
    <defs>
     <path id="m8127869712" d="M 19.508086 -42.426919 
L 19.508086 -38.519373 
L 32.883264 -33.376148 
L 46.258443 -38.458933 
L 59.633621 -39.982101 
L 69.665005 -39.598174 
L 69.665005 -48.83698 
L 69.665005 -48.83698 
L 59.633621 -45.865012 
L 46.258443 -43.607623 
L 32.883264 -38.089792 
L 19.508086 -42.426919 
z
"/>
    </defs>
    <g clip-path="url(#p8a9266815e)">
     <use xlink:href="#m8127869712" x="0" y="144" style="fill: #ee82ee; fill-opacity: 0.5"/>
    </g>
   </g>
   <g id="matplotlib.axis_5">
    <g id="xtick_11">
     <g id="line2d_26">
      <g>
       <use xlink:href="#m8b66ee0342" x="19.508086" y="118.858041" style="stroke: #000000; stroke-width: 0.8"/>
      </g>
     </g>
     <g id="text_3">
      <!-- $\mathdefault{18}$ -->
      <g transform="translate(16.708086 129.436948) scale(0.05 -0.05)">
       <defs>
        <path id="ArialMT-31" d="M 2384 0 
L 1822 0 
L 1822 3584 
Q 1619 3391 1289 3197 
Q 959 3003 697 2906 
L 697 3450 
Q 1169 3672 1522 3987 
Q 1875 4303 2022 4600 
L 2384 4600 
L 2384 0 
z
" transform="scale(0.015625)"/>
        <path id="ArialMT-38" d="M 1131 2484 
Q 781 2613 612 2850 
Q 444 3088 444 3419 
Q 444 3919 803 4259 
Q 1163 4600 1759 4600 
Q 2359 4600 2725 4251 
Q 3091 3903 3091 3403 
Q 3091 3084 2923 2848 
Q 2756 2613 2416 2484 
Q 2838 2347 3058 2040 
Q 3278 1734 3278 1309 
Q 3278 722 2862 322 
Q 2447 -78 1769 -78 
Q 1091 -78 675 323 
Q 259 725 259 1325 
Q 259 1772 486 2073 
Q 713 2375 1131 2484 
z
M 1019 3438 
Q 1019 3113 1228 2906 
Q 1438 2700 1772 2700 
Q 2097 2700 2305 2904 
Q 2513 3109 2513 3406 
Q 2513 3716 2298 3927 
Q 2084 4138 1766 4138 
Q 1444 4138 1231 3931 
Q 1019 3725 1019 3438 
z
M 838 1322 
Q 838 1081 952 856 
Q 1066 631 1291 507 
Q 1516 384 1775 384 
Q 2178 384 2440 643 
Q 2703 903 2703 1303 
Q 2703 1709 2433 1975 
Q 2163 2241 1756 2241 
Q 1359 2241 1098 1978 
Q 838 1716 838 1322 
z
" transform="scale(0.015625)"/>
       </defs>
       <use xlink:href="#ArialMT-31" transform="translate(0 0.125)"/>
       <use xlink:href="#ArialMT-38" transform="translate(55.615234 0.125)"/>
      </g>
     </g>
    </g>
    <g id="xtick_12">
     <g id="line2d_27">
      <g>
       <use xlink:href="#m8b66ee0342" x="32.883264" y="118.858041" style="stroke: #000000; stroke-width: 0.8"/>
      </g>
     </g>
     <g id="text_4">
      <!-- $\mathdefault{22}$ -->
      <g transform="translate(30.083264 129.436948) scale(0.05 -0.05)">
       <defs>
        <path id="ArialMT-32" d="M 3222 541 
L 3222 0 
L 194 0 
Q 188 203 259 391 
Q 375 700 629 1000 
Q 884 1300 1366 1694 
Q 2113 2306 2375 2664 
Q 2638 3022 2638 3341 
Q 2638 3675 2398 3904 
Q 2159 4134 1775 4134 
Q 1369 4134 1125 3890 
Q 881 3647 878 3216 
L 300 3275 
Q 359 3922 746 4261 
Q 1134 4600 1788 4600 
Q 2447 4600 2831 4234 
Q 3216 3869 3216 3328 
Q 3216 3053 3103 2787 
Q 2991 2522 2730 2228 
Q 2469 1934 1863 1422 
Q 1356 997 1212 845 
Q 1069 694 975 541 
L 3222 541 
z
" transform="scale(0.015625)"/>
       </defs>
       <use xlink:href="#ArialMT-32" transform="translate(0 0.125)"/>
       <use xlink:href="#ArialMT-32" transform="translate(55.615234 0.125)"/>
      </g>
     </g>
    </g>
    <g id="xtick_13">
     <g id="line2d_28">
      <g>
       <use xlink:href="#m8b66ee0342" x="46.258443" y="118.858041" style="stroke: #000000; stroke-width: 0.8"/>
      </g>
     </g>
     <g id="text_5">
      <!-- $\mathdefault{26}$ -->
      <g transform="translate(43.458443 129.436948) scale(0.05 -0.05)">
       <defs>
        <path id="ArialMT-36" d="M 3184 3459 
L 2625 3416 
Q 2550 3747 2413 3897 
Q 2184 4138 1850 4138 
Q 1581 4138 1378 3988 
Q 1113 3794 959 3422 
Q 806 3050 800 2363 
Q 1003 2672 1297 2822 
Q 1591 2972 1913 2972 
Q 2475 2972 2870 2558 
Q 3266 2144 3266 1488 
Q 3266 1056 3080 686 
Q 2894 316 2569 119 
Q 2244 -78 1831 -78 
Q 1128 -78 684 439 
Q 241 956 241 2144 
Q 241 3472 731 4075 
Q 1159 4600 1884 4600 
Q 2425 4600 2770 4297 
Q 3116 3994 3184 3459 
z
M 888 1484 
Q 888 1194 1011 928 
Q 1134 663 1356 523 
Q 1578 384 1822 384 
Q 2178 384 2434 671 
Q 2691 959 2691 1453 
Q 2691 1928 2437 2201 
Q 2184 2475 1800 2475 
Q 1419 2475 1153 2201 
Q 888 1928 888 1484 
z
" transform="scale(0.015625)"/>
       </defs>
       <use xlink:href="#ArialMT-32" transform="translate(0 0.125)"/>
       <use xlink:href="#ArialMT-36" transform="translate(55.615234 0.125)"/>
      </g>
     </g>
    </g>
    <g id="xtick_14">
     <g id="line2d_29">
      <g>
       <use xlink:href="#m8b66ee0342" x="59.633621" y="118.858041" style="stroke: #000000; stroke-width: 0.8"/>
      </g>
     </g>
     <g id="text_6">
      <!-- $\mathdefault{30}$ -->
      <g transform="translate(56.833621 129.436948) scale(0.05 -0.05)">
       <defs>
        <path id="ArialMT-33" d="M 269 1209 
L 831 1284 
Q 928 806 1161 595 
Q 1394 384 1728 384 
Q 2125 384 2398 659 
Q 2672 934 2672 1341 
Q 2672 1728 2419 1979 
Q 2166 2231 1775 2231 
Q 1616 2231 1378 2169 
L 1441 2663 
Q 1497 2656 1531 2656 
Q 1891 2656 2178 2843 
Q 2466 3031 2466 3422 
Q 2466 3731 2256 3934 
Q 2047 4138 1716 4138 
Q 1388 4138 1169 3931 
Q 950 3725 888 3313 
L 325 3413 
Q 428 3978 793 4289 
Q 1159 4600 1703 4600 
Q 2078 4600 2393 4439 
Q 2709 4278 2876 4000 
Q 3044 3722 3044 3409 
Q 3044 3113 2884 2869 
Q 2725 2625 2413 2481 
Q 2819 2388 3044 2092 
Q 3269 1797 3269 1353 
Q 3269 753 2831 336 
Q 2394 -81 1725 -81 
Q 1122 -81 723 278 
Q 325 638 269 1209 
z
" transform="scale(0.015625)"/>
        <path id="ArialMT-30" d="M 266 2259 
Q 266 3072 433 3567 
Q 600 4063 929 4331 
Q 1259 4600 1759 4600 
Q 2128 4600 2406 4451 
Q 2684 4303 2865 4023 
Q 3047 3744 3150 3342 
Q 3253 2941 3253 2259 
Q 3253 1453 3087 958 
Q 2922 463 2592 192 
Q 2263 -78 1759 -78 
Q 1097 -78 719 397 
Q 266 969 266 2259 
z
M 844 2259 
Q 844 1131 1108 757 
Q 1372 384 1759 384 
Q 2147 384 2411 759 
Q 2675 1134 2675 2259 
Q 2675 3391 2411 3762 
Q 2147 4134 1753 4134 
Q 1366 4134 1134 3806 
Q 844 3388 844 2259 
z
" transform="scale(0.015625)"/>
       </defs>
       <use xlink:href="#ArialMT-33" transform="translate(0 0.125)"/>
       <use xlink:href="#ArialMT-30" transform="translate(55.615234 0.125)"/>
      </g>
     </g>
    </g>
    <g id="xtick_15">
     <g id="line2d_30">
      <g>
       <use xlink:href="#m8b66ee0342" x="69.665005" y="118.858041" style="stroke: #000000; stroke-width: 0.8"/>
      </g>
     </g>
     <g id="text_7">
      <!-- $\mathdefault{33}$ -->
      <g transform="translate(66.865005 129.436948) scale(0.05 -0.05)">
       <use xlink:href="#ArialMT-33" transform="translate(0 0.125)"/>
       <use xlink:href="#ArialMT-33" transform="translate(55.615234 0.125)"/>
      </g>
     </g>
    </g>
   </g>
   <g id="matplotlib.axis_6">
    <g id="ytick_7">
     <g id="line2d_31">
      <g>
       <use xlink:href="#m248a22dd17" x="17.00024" y="118.858041" style="stroke: #000000; stroke-width: 0.8"/>
      </g>
     </g>
     <g id="text_8">
      <!-- $\mathdefault{0.0}$ -->
      <g transform="translate(3.00024 120.647494) scale(0.05 -0.05)">
       <defs>
        <path id="ArialMT-2e" d="M 581 0 
L 581 641 
L 1222 641 
L 1222 0 
L 581 0 
z
" transform="scale(0.015625)"/>
       </defs>
       <use xlink:href="#ArialMT-30" transform="translate(0 0.125)"/>
       <use xlink:href="#ArialMT-2e" transform="translate(55.615234 0.125)"/>
       <use xlink:href="#ArialMT-30" transform="translate(83.398438 0.125)"/>
      </g>
     </g>
    </g>
    <g id="ytick_8">
     <g id="line2d_32">
      <g>
       <use xlink:href="#m248a22dd17" x="17.00024" y="98.131836" style="stroke: #000000; stroke-width: 0.8"/>
      </g>
     </g>
     <g id="text_9">
      <!-- $\mathdefault{0.5}$ -->
      <g transform="translate(3.00024 99.921289) scale(0.05 -0.05)">
       <defs>
        <path id="ArialMT-35" d="M 266 1200 
L 856 1250 
Q 922 819 1161 601 
Q 1400 384 1738 384 
Q 2144 384 2425 690 
Q 2706 997 2706 1503 
Q 2706 1984 2436 2262 
Q 2166 2541 1728 2541 
Q 1456 2541 1237 2417 
Q 1019 2294 894 2097 
L 366 2166 
L 809 4519 
L 3088 4519 
L 3088 3981 
L 1259 3981 
L 1013 2750 
Q 1425 3038 1878 3038 
Q 2478 3038 2890 2622 
Q 3303 2206 3303 1553 
Q 3303 931 2941 478 
Q 2500 -78 1738 -78 
Q 1113 -78 717 272 
Q 322 622 266 1200 
z
" transform="scale(0.015625)"/>
       </defs>
       <use xlink:href="#ArialMT-30" transform="translate(0 0.125)"/>
       <use xlink:href="#ArialMT-2e" transform="translate(55.615234 0.125)"/>
       <use xlink:href="#ArialMT-35" transform="translate(83.398438 0.125)"/>
      </g>
     </g>
    </g>
    <g id="ytick_9">
     <g id="line2d_33">
      <g>
       <use xlink:href="#m248a22dd17" x="17.00024" y="77.405631" style="stroke: #000000; stroke-width: 0.8"/>
      </g>
     </g>
     <g id="text_10">
      <!-- $\mathdefault{1.0}$ -->
      <g transform="translate(3.00024 79.195084) scale(0.05 -0.05)">
       <use xlink:href="#ArialMT-31" transform="translate(0 0.125)"/>
       <use xlink:href="#ArialMT-2e" transform="translate(55.615234 0.125)"/>
       <use xlink:href="#ArialMT-30" transform="translate(83.398438 0.125)"/>
      </g>
     </g>
    </g>
   </g>
   <g id="line2d_34">
    <path d="M 19.508086 104.993761 
L 32.883264 103.485331 
L 46.258443 99.485079 
L 59.633621 101.427975 
L 69.665005 104.951797 
" clip-path="url(#p8a9266815e)" style="fill: none; stroke: #000000; stroke-width: 1.5; stroke-linecap: square"/>
   </g>
   <g id="line2d_35">
    <path d="M 19.508086 110.586575 
L 32.883264 113.886772 
L 46.258443 109.467221 
L 59.633621 108.035684 
L 69.665005 106.194043 
" clip-path="url(#p8a9266815e)" style="fill: none; stroke: #ffa500; stroke-width: 1.5; stroke-linecap: square"/>
   </g>
   <g id="line2d_36">
    <path d="M 19.508086 105.664228 
L 32.883264 109.482001 
L 46.258443 103.367215 
L 59.633621 102.037607 
L 69.665005 101.323775 
" clip-path="url(#p8a9266815e)" style="fill: none; stroke: #ee82ee; stroke-width: 1.5; stroke-linecap: square"/>
   </g>
   <g id="line2d_37">
    <path d="M 19.508086 104.993761 
L 32.883264 103.485331 
L 46.258443 99.485079 
L 59.633621 101.427975 
L 69.665005 104.951797 
" clip-path="url(#p8a9266815e)" style="fill: none; stroke: #000000; stroke-width: 1.5; stroke-linecap: square"/>
   </g>
   <g id="line2d_38">
    <path d="M 19.508086 109.256057 
L 32.883264 112.877426 
L 46.258443 109.532618 
L 59.633621 107.021336 
L 69.665005 103.542336 
" clip-path="url(#p8a9266815e)" style="fill: none; stroke: #ffa500; stroke-width: 1.5; stroke-linecap: square"/>
   </g>
   <g id="line2d_39">
    <path d="M 19.508086 103.526854 
L 32.883264 108.26703 
L 46.258443 102.966722 
L 59.633621 101.076443 
L 69.665005 99.782423 
" clip-path="url(#p8a9266815e)" style="fill: none; stroke: #ee82ee; stroke-width: 1.5; stroke-linecap: square"/>
   </g>
   <g id="patch_9">
    <path d="M 17.00024 118.858041 
L 17.00024 77.405631 
" style="fill: none; stroke: #000000; stroke-width: 0.8; stroke-linejoin: miter; stroke-linecap: square"/>
   </g>
   <g id="patch_10">
    <path d="M 17.00024 118.858041 
L 72.172851 118.858041 
" style="fill: none; stroke: #000000; stroke-width: 0.8; stroke-linejoin: miter; stroke-linecap: square"/>
   </g>
   <g id="text_11">
    <!-- L→F , R→F -->
    <g transform="translate(23.253421 71.405631) scale(0.08 -0.08)">
     <use xlink:href="#ArialMT-4c"/>
     <use xlink:href="#ArialMT-2192" x="55.615234"/>
     <use xlink:href="#ArialMT-46" x="155.615234"/>
     <use xlink:href="#ArialMT-20" x="216.699219"/>
     <use xlink:href="#ArialMT-2c" x="244.482422"/>
     <use xlink:href="#ArialMT-20" x="272.265625"/>
     <use xlink:href="#ArialMT-52" x="300.048828"/>
     <use xlink:href="#ArialMT-2192" x="372.265625"/>
     <use xlink:href="#ArialMT-46" x="472.265625"/>
    </g>
   </g>
  </g>
  <g id="axes_5">
   <g id="patch_11">
    <path d="M 92.546282 118.858041 
L 147.718893 118.858041 
L 147.718893 77.405631 
L 92.546282 77.405631 
L 92.546282 118.858041 
z
" style="fill: none"/>
   </g>
   <g id="PolyCollection_11">
    <defs>
     <path id="m829ffe36ac" d="M 95.054128 -30.460789 
L 95.054128 -28.634983 
L 108.429306 -28.57993 
L 121.804485 -27.381317 
L 135.179663 -28.884249 
L 145.211047 -29.898471 
L 145.211047 -35.838408 
L 145.211047 -35.838408 
L 135.179663 -30.502553 
L 121.804485 -29.228966 
L 108.429306 -33.647764 
L 95.054128 -30.460789 
z
"/>
    </defs>
    <g clip-path="url(#p3adf29b922)">
     <use xlink:href="#m829ffe36ac" x="0" y="144" style="fill: #ffa500; fill-opacity: 0.5"/>
    </g>
   </g>
   <g id="PolyCollection_12">
    <defs>
     <path id="me77abe5a5a" d="M 95.054128 -33.519338 
L 95.054128 -31.227488 
L 108.429306 -31.106364 
L 121.804485 -29.42582 
L 135.179663 -31.140805 
L 145.211047 -31.928806 
L 145.211047 -40.615996 
L 145.211047 -40.615996 
L 135.179663 -34.182545 
L 121.804485 -32.252683 
L 108.429306 -37.351444 
L 95.054128 -33.519338 
z
"/>
    </defs>
    <g clip-path="url(#p3adf29b922)">
     <use xlink:href="#me77abe5a5a" x="0" y="144" style="fill: #ee82ee; fill-opacity: 0.5"/>
    </g>
   </g>
   <g id="PolyCollection_13">
    <defs>
     <path id="m46eea44ff8" d="M 95.054128 -32.350737 
L 95.054128 -28.733583 
L 108.429306 -27.892705 
L 121.804485 -28.572492 
L 135.179663 -29.365146 
L 145.211047 -31.740514 
L 145.211047 -34.938081 
L 145.211047 -34.938081 
L 135.179663 -30.960417 
L 121.804485 -29.422502 
L 108.429306 -28.662192 
L 95.054128 -32.350737 
z
"/>
    </defs>
    <g clip-path="url(#p3adf29b922)">
     <use xlink:href="#m46eea44ff8" x="0" y="144" style="fill: #ffa500; fill-opacity: 0.5"/>
    </g>
   </g>
   <g id="PolyCollection_14">
    <defs>
     <path id="m2b8cb2a725" d="M 95.054128 -36.06552 
L 95.054128 -31.088595 
L 108.429306 -30.396152 
L 121.804485 -30.966764 
L 135.179663 -31.765149 
L 145.211047 -33.434593 
L 145.211047 -34.915323 
L 145.211047 -34.915323 
L 135.179663 -34.380005 
L 121.804485 -32.446956 
L 108.429306 -31.821059 
L 95.054128 -36.06552 
z
"/>
    </defs>
    <g clip-path="url(#p3adf29b922)">
     <use xlink:href="#m2b8cb2a725" x="0" y="144" style="fill: #ee82ee; fill-opacity: 0.5"/>
    </g>
   </g>
   <g id="matplotlib.axis_7">
    <g id="xtick_16">
     <g id="line2d_40">
      <g>
       <use xlink:href="#m8b66ee0342" x="95.054128" y="118.858041" style="stroke: #000000; stroke-width: 0.8"/>
      </g>
     </g>
     <g id="text_12">
      <!-- $\mathdefault{18}$ -->
      <g transform="translate(92.254128 129.436948) scale(0.05 -0.05)">
       <use xlink:href="#ArialMT-31" transform="translate(0 0.125)"/>
       <use xlink:href="#ArialMT-38" transform="translate(55.615234 0.125)"/>
      </g>
     </g>
    </g>
    <g id="xtick_17">
     <g id="line2d_41">
      <g>
       <use xlink:href="#m8b66ee0342" x="108.429306" y="118.858041" style="stroke: #000000; stroke-width: 0.8"/>
      </g>
     </g>
     <g id="text_13">
      <!-- $\mathdefault{22}$ -->
      <g transform="translate(105.629306 129.436948) scale(0.05 -0.05)">
       <use xlink:href="#ArialMT-32" transform="translate(0 0.125)"/>
       <use xlink:href="#ArialMT-32" transform="translate(55.615234 0.125)"/>
      </g>
     </g>
    </g>
    <g id="xtick_18">
     <g id="line2d_42">
      <g>
       <use xlink:href="#m8b66ee0342" x="121.804485" y="118.858041" style="stroke: #000000; stroke-width: 0.8"/>
      </g>
     </g>
     <g id="text_14">
      <!-- $\mathdefault{26}$ -->
      <g transform="translate(119.004485 129.436948) scale(0.05 -0.05)">
       <use xlink:href="#ArialMT-32" transform="translate(0 0.125)"/>
       <use xlink:href="#ArialMT-36" transform="translate(55.615234 0.125)"/>
      </g>
     </g>
    </g>
    <g id="xtick_19">
     <g id="line2d_43">
      <g>
       <use xlink:href="#m8b66ee0342" x="135.179663" y="118.858041" style="stroke: #000000; stroke-width: 0.8"/>
      </g>
     </g>
     <g id="text_15">
      <!-- $\mathdefault{30}$ -->
      <g transform="translate(132.379663 129.436948) scale(0.05 -0.05)">
       <use xlink:href="#ArialMT-33" transform="translate(0 0.125)"/>
       <use xlink:href="#ArialMT-30" transform="translate(55.615234 0.125)"/>
      </g>
     </g>
    </g>
    <g id="xtick_20">
     <g id="line2d_44">
      <g>
       <use xlink:href="#m8b66ee0342" x="145.211047" y="118.858041" style="stroke: #000000; stroke-width: 0.8"/>
      </g>
     </g>
     <g id="text_16">
      <!-- $\mathdefault{33}$ -->
      <g transform="translate(142.411047 129.436948) scale(0.05 -0.05)">
       <use xlink:href="#ArialMT-33" transform="translate(0 0.125)"/>
       <use xlink:href="#ArialMT-33" transform="translate(55.615234 0.125)"/>
      </g>
     </g>
    </g>
    <g id="text_17">
     <!-- Temperature (°C) -->
     <g transform="translate(93.257509 139.526479) scale(0.07 -0.07)">
      <defs>
       <path id="ArialMT-54" d="M 1659 0 
L 1659 4041 
L 150 4041 
L 150 4581 
L 3781 4581 
L 3781 4041 
L 2266 4041 
L 2266 0 
L 1659 0 
z
" transform="scale(0.015625)"/>
       <path id="ArialMT-65" d="M 2694 1069 
L 3275 997 
Q 3138 488 2766 206 
Q 2394 -75 1816 -75 
Q 1088 -75 661 373 
Q 234 822 234 1631 
Q 234 2469 665 2931 
Q 1097 3394 1784 3394 
Q 2450 3394 2872 2941 
Q 3294 2488 3294 1666 
Q 3294 1616 3291 1516 
L 816 1516 
Q 847 969 1125 678 
Q 1403 388 1819 388 
Q 2128 388 2347 550 
Q 2566 713 2694 1069 
z
M 847 1978 
L 2700 1978 
Q 2663 2397 2488 2606 
Q 2219 2931 1791 2931 
Q 1403 2931 1139 2672 
Q 875 2413 847 1978 
z
" transform="scale(0.015625)"/>
       <path id="ArialMT-6d" d="M 422 0 
L 422 3319 
L 925 3319 
L 925 2853 
Q 1081 3097 1340 3245 
Q 1600 3394 1931 3394 
Q 2300 3394 2536 3241 
Q 2772 3088 2869 2813 
Q 3263 3394 3894 3394 
Q 4388 3394 4653 3120 
Q 4919 2847 4919 2278 
L 4919 0 
L 4359 0 
L 4359 2091 
Q 4359 2428 4304 2576 
Q 4250 2725 4106 2815 
Q 3963 2906 3769 2906 
Q 3419 2906 3187 2673 
Q 2956 2441 2956 1928 
L 2956 0 
L 2394 0 
L 2394 2156 
Q 2394 2531 2256 2718 
Q 2119 2906 1806 2906 
Q 1569 2906 1367 2781 
Q 1166 2656 1075 2415 
Q 984 2175 984 1722 
L 984 0 
L 422 0 
z
" transform="scale(0.015625)"/>
       <path id="ArialMT-70" d="M 422 -1272 
L 422 3319 
L 934 3319 
L 934 2888 
Q 1116 3141 1344 3267 
Q 1572 3394 1897 3394 
Q 2322 3394 2647 3175 
Q 2972 2956 3137 2557 
Q 3303 2159 3303 1684 
Q 3303 1175 3120 767 
Q 2938 359 2589 142 
Q 2241 -75 1856 -75 
Q 1575 -75 1351 44 
Q 1128 163 984 344 
L 984 -1272 
L 422 -1272 
z
M 931 1641 
Q 931 1000 1190 694 
Q 1450 388 1819 388 
Q 2194 388 2461 705 
Q 2728 1022 2728 1688 
Q 2728 2322 2467 2637 
Q 2206 2953 1844 2953 
Q 1484 2953 1207 2617 
Q 931 2281 931 1641 
z
" transform="scale(0.015625)"/>
       <path id="ArialMT-72" d="M 416 0 
L 416 3319 
L 922 3319 
L 922 2816 
Q 1116 3169 1280 3281 
Q 1444 3394 1641 3394 
Q 1925 3394 2219 3213 
L 2025 2691 
Q 1819 2813 1613 2813 
Q 1428 2813 1281 2702 
Q 1134 2591 1072 2394 
Q 978 2094 978 1738 
L 978 0 
L 416 0 
z
" transform="scale(0.015625)"/>
       <path id="ArialMT-61" d="M 2588 409 
Q 2275 144 1986 34 
Q 1697 -75 1366 -75 
Q 819 -75 525 192 
Q 231 459 231 875 
Q 231 1119 342 1320 
Q 453 1522 633 1644 
Q 813 1766 1038 1828 
Q 1203 1872 1538 1913 
Q 2219 1994 2541 2106 
Q 2544 2222 2544 2253 
Q 2544 2597 2384 2738 
Q 2169 2928 1744 2928 
Q 1347 2928 1158 2789 
Q 969 2650 878 2297 
L 328 2372 
Q 403 2725 575 2942 
Q 747 3159 1072 3276 
Q 1397 3394 1825 3394 
Q 2250 3394 2515 3294 
Q 2781 3194 2906 3042 
Q 3031 2891 3081 2659 
Q 3109 2516 3109 2141 
L 3109 1391 
Q 3109 606 3145 398 
Q 3181 191 3288 0 
L 2700 0 
Q 2613 175 2588 409 
z
M 2541 1666 
Q 2234 1541 1622 1453 
Q 1275 1403 1131 1340 
Q 988 1278 909 1158 
Q 831 1038 831 891 
Q 831 666 1001 516 
Q 1172 366 1500 366 
Q 1825 366 2078 508 
Q 2331 650 2450 897 
Q 2541 1088 2541 1459 
L 2541 1666 
z
" transform="scale(0.015625)"/>
       <path id="ArialMT-74" d="M 1650 503 
L 1731 6 
Q 1494 -44 1306 -44 
Q 1000 -44 831 53 
Q 663 150 594 308 
Q 525 466 525 972 
L 525 2881 
L 113 2881 
L 113 3319 
L 525 3319 
L 525 4141 
L 1084 4478 
L 1084 3319 
L 1650 3319 
L 1650 2881 
L 1084 2881 
L 1084 941 
Q 1084 700 1114 631 
Q 1144 563 1211 522 
Q 1278 481 1403 481 
Q 1497 481 1650 503 
z
" transform="scale(0.015625)"/>
       <path id="ArialMT-75" d="M 2597 0 
L 2597 488 
Q 2209 -75 1544 -75 
Q 1250 -75 995 37 
Q 741 150 617 320 
Q 494 491 444 738 
Q 409 903 409 1263 
L 409 3319 
L 972 3319 
L 972 1478 
Q 972 1038 1006 884 
Q 1059 663 1231 536 
Q 1403 409 1656 409 
Q 1909 409 2131 539 
Q 2353 669 2445 892 
Q 2538 1116 2538 1541 
L 2538 3319 
L 3100 3319 
L 3100 0 
L 2597 0 
z
" transform="scale(0.015625)"/>
       <path id="ArialMT-28" d="M 1497 -1347 
Q 1031 -759 709 28 
Q 388 816 388 1659 
Q 388 2403 628 3084 
Q 909 3875 1497 4659 
L 1900 4659 
Q 1522 4009 1400 3731 
Q 1209 3300 1100 2831 
Q 966 2247 966 1656 
Q 966 153 1900 -1347 
L 1497 -1347 
z
" transform="scale(0.015625)"/>
       <path id="ArialMT-b0" d="M 400 3794 
Q 400 4153 654 4406 
Q 909 4659 1266 4659 
Q 1628 4659 1881 4406 
Q 2134 4153 2134 3794 
Q 2134 3434 1879 3179 
Q 1625 2925 1266 2925 
Q 909 2925 654 3178 
Q 400 3431 400 3794 
z
M 741 3794 
Q 741 3575 895 3420 
Q 1050 3266 1269 3266 
Q 1484 3266 1639 3420 
Q 1794 3575 1794 3794 
Q 1794 4013 1639 4167 
Q 1484 4322 1269 4322 
Q 1050 4322 895 4167 
Q 741 4013 741 3794 
z
" transform="scale(0.015625)"/>
       <path id="ArialMT-43" d="M 3763 1606 
L 4369 1453 
Q 4178 706 3683 314 
Q 3188 -78 2472 -78 
Q 1731 -78 1267 223 
Q 803 525 561 1097 
Q 319 1669 319 2325 
Q 319 3041 592 3573 
Q 866 4106 1370 4382 
Q 1875 4659 2481 4659 
Q 3169 4659 3637 4309 
Q 4106 3959 4291 3325 
L 3694 3184 
Q 3534 3684 3231 3912 
Q 2928 4141 2469 4141 
Q 1941 4141 1586 3887 
Q 1231 3634 1087 3207 
Q 944 2781 944 2328 
Q 944 1744 1114 1308 
Q 1284 872 1643 656 
Q 2003 441 2422 441 
Q 2931 441 3284 734 
Q 3638 1028 3763 1606 
z
" transform="scale(0.015625)"/>
       <path id="ArialMT-29" d="M 791 -1347 
L 388 -1347 
Q 1322 153 1322 1656 
Q 1322 2244 1188 2822 
Q 1081 3291 891 3722 
Q 769 4003 388 4659 
L 791 4659 
Q 1378 3875 1659 3084 
Q 1900 2403 1900 1659 
Q 1900 816 1576 28 
Q 1253 -759 791 -1347 
z
" transform="scale(0.015625)"/>
      </defs>
      <use xlink:href="#ArialMT-54"/>
      <use xlink:href="#ArialMT-65" x="49.958984"/>
      <use xlink:href="#ArialMT-6d" x="105.574219"/>
      <use xlink:href="#ArialMT-70" x="188.875"/>
      <use xlink:href="#ArialMT-65" x="244.490234"/>
      <use xlink:href="#ArialMT-72" x="300.105469"/>
      <use xlink:href="#ArialMT-61" x="333.40625"/>
      <use xlink:href="#ArialMT-74" x="389.021484"/>
      <use xlink:href="#ArialMT-75" x="416.804688"/>
      <use xlink:href="#ArialMT-72" x="472.419922"/>
      <use xlink:href="#ArialMT-65" x="505.720703"/>
      <use xlink:href="#ArialMT-20" x="561.335938"/>
      <use xlink:href="#ArialMT-28" x="589.119141"/>
      <use xlink:href="#ArialMT-b0" x="622.419922"/>
      <use xlink:href="#ArialMT-43" x="662.410156"/>
      <use xlink:href="#ArialMT-29" x="734.626953"/>
     </g>
    </g>
   </g>
   <g id="matplotlib.axis_8">
    <g id="ytick_10">
     <g id="line2d_45">
      <g>
       <use xlink:href="#m248a22dd17" x="92.546282" y="118.858041" style="stroke: #000000; stroke-width: 0.8"/>
      </g>
     </g>
    </g>
    <g id="ytick_11">
     <g id="line2d_46">
      <g>
       <use xlink:href="#m248a22dd17" x="92.546282" y="98.131836" style="stroke: #000000; stroke-width: 0.8"/>
      </g>
     </g>
    </g>
    <g id="ytick_12">
     <g id="line2d_47">
      <g>
       <use xlink:href="#m248a22dd17" x="92.546282" y="77.405631" style="stroke: #000000; stroke-width: 0.8"/>
      </g>
     </g>
    </g>
    <g id="text_18">
     <!-- P(F→L) -->
     <g transform="translate(83.573 110.381289) rotate(-90) scale(0.07 -0.07)">
      <defs>
       <path id="ArialMT-50" d="M 494 0 
L 494 4581 
L 2222 4581 
Q 2678 4581 2919 4538 
Q 3256 4481 3484 4323 
Q 3713 4166 3852 3881 
Q 3991 3597 3991 3256 
Q 3991 2672 3619 2267 
Q 3247 1863 2275 1863 
L 1100 1863 
L 1100 0 
L 494 0 
z
M 1100 2403 
L 2284 2403 
Q 2872 2403 3119 2622 
Q 3366 2841 3366 3238 
Q 3366 3525 3220 3729 
Q 3075 3934 2838 4000 
Q 2684 4041 2272 4041 
L 1100 4041 
L 1100 2403 
z
" transform="scale(0.015625)"/>
      </defs>
      <use xlink:href="#ArialMT-50"/>
      <use xlink:href="#ArialMT-28" x="66.699219"/>
      <use xlink:href="#ArialMT-46" x="100"/>
      <use xlink:href="#ArialMT-2192" x="161.083984"/>
      <use xlink:href="#ArialMT-4c" x="261.083984"/>
      <use xlink:href="#ArialMT-29" x="316.699219"/>
     </g>
    </g>
   </g>
   <g id="line2d_48">
    <path d="M 95.054128 112.033559 
L 108.429306 107.871436 
L 121.804485 107.457783 
L 135.179663 106.390406 
L 145.211047 105.188019 
" clip-path="url(#p3adf29b922)" style="fill: none; stroke: #000000; stroke-width: 1.5; stroke-linecap: square"/>
   </g>
   <g id="line2d_49">
    <path d="M 95.054128 114.452114 
L 108.429306 112.886153 
L 121.804485 115.694859 
L 135.179663 114.306599 
L 145.211047 111.131561 
" clip-path="url(#p3adf29b922)" style="fill: none; stroke: #ffa500; stroke-width: 1.5; stroke-linecap: square"/>
   </g>
   <g id="line2d_50">
    <path d="M 95.054128 111.626587 
L 108.429306 109.771096 
L 121.804485 113.160748 
L 135.179663 111.338325 
L 145.211047 107.727599 
" clip-path="url(#p3adf29b922)" style="fill: none; stroke: #ee82ee; stroke-width: 1.5; stroke-linecap: square"/>
   </g>
   <g id="line2d_51">
    <path d="M 95.054128 112.033559 
L 108.429306 107.871436 
L 121.804485 107.457783 
L 135.179663 106.390406 
L 145.211047 105.188019 
" clip-path="url(#p3adf29b922)" style="fill: none; stroke: #000000; stroke-width: 1.5; stroke-linecap: square"/>
   </g>
   <g id="line2d_52">
    <path d="M 95.054128 113.45784 
L 108.429306 115.722552 
L 121.804485 115.002503 
L 135.179663 113.837219 
L 145.211047 110.660703 
" clip-path="url(#p3adf29b922)" style="fill: none; stroke: #ffa500; stroke-width: 1.5; stroke-linecap: square"/>
   </g>
   <g id="line2d_53">
    <path d="M 95.054128 110.422942 
L 108.429306 112.891394 
L 121.804485 112.29314 
L 135.179663 110.927423 
L 145.211047 109.825042 
" clip-path="url(#p3adf29b922)" style="fill: none; stroke: #ee82ee; stroke-width: 1.5; stroke-linecap: square"/>
   </g>
   <g id="patch_12">
    <path d="M 92.546282 118.858041 
L 92.546282 77.405631 
" style="fill: none; stroke: #000000; stroke-width: 0.8; stroke-linejoin: miter; stroke-linecap: square"/>
   </g>
   <g id="patch_13">
    <path d="M 92.546282 118.858041 
L 147.718893 118.858041 
" style="fill: none; stroke: #000000; stroke-width: 0.8; stroke-linejoin: miter; stroke-linecap: square"/>
   </g>
   <g id="text_19">
    <!-- F→L , F→R -->
    <g transform="translate(98.949462 71.405631) scale(0.08 -0.08)">
     <use xlink:href="#ArialMT-46"/>
     <use xlink:href="#ArialMT-2192" x="61.083984"/>
     <use xlink:href="#ArialMT-4c" x="161.083984"/>
     <use xlink:href="#ArialMT-20" x="212.949219"/>
     <use xlink:href="#ArialMT-2c" x="240.732422"/>
     <use xlink:href="#ArialMT-20" x="268.515625"/>
     <use xlink:href="#ArialMT-46" x="296.298828"/>
     <use xlink:href="#ArialMT-2192" x="357.382812"/>
     <use xlink:href="#ArialMT-52" x="457.382812"/>
    </g>
   </g>
  </g>
  <g id="axes_6">
   <g id="patch_14">
    <path d="M 157.523261 118.858041 
L 212.695872 118.858041 
L 212.695872 77.405631 
L 157.523261 77.405631 
L 157.523261 118.858041 
z
" style="fill: none"/>
   </g>
   <g id="PolyCollection_15">
    <defs>
     <path id="m0ee0ef52be" d="M 160.031107 -26.609365 
L 160.031107 -25.845072 
L 173.406285 -26.445207 
L 186.781464 -26.344337 
L 200.156642 -27.40914 
L 210.188026 -29.305778 
L 210.188026 -30.858719 
L 210.188026 -30.858719 
L 200.156642 -30.010896 
L 186.781464 -27.37971 
L 173.406285 -27.601955 
L 160.031107 -26.609365 
z
"/>
    </defs>
    <g clip-path="url(#p54e0317f4d)">
     <use xlink:href="#m0ee0ef52be" x="0" y="144" style="fill: #ffa500; fill-opacity: 0.5"/>
    </g>
   </g>
   <g id="PolyCollection_16">
    <defs>
     <path id="maef8875623" d="M 160.031107 -29.223145 
L 160.031107 -27.233038 
L 173.406285 -28.098893 
L 186.781464 -28.100372 
L 200.156642 -29.917619 
L 210.188026 -31.946436 
L 210.188026 -33.235458 
L 210.188026 -33.235458 
L 200.156642 -33.574856 
L 186.781464 -29.578374 
L 173.406285 -29.903323 
L 160.031107 -29.223145 
z
"/>
    </defs>
    <g clip-path="url(#p54e0317f4d)">
     <use xlink:href="#maef8875623" x="0" y="144" style="fill: #ee82ee; fill-opacity: 0.5"/>
    </g>
   </g>
   <g id="PolyCollection_17">
    <defs>
     <path id="m7d28df2e80" d="M 160.031107 -26.570868 
L 160.031107 -25.739619 
L 173.406285 -25.842119 
L 186.781464 -26.982865 
L 200.156642 -27.357808 
L 210.188026 -29.110334 
L 210.188026 -36.873468 
L 210.188026 -36.873468 
L 200.156642 -28.400912 
L 186.781464 -29.639621 
L 173.406285 -27.661648 
L 160.031107 -26.570868 
z
"/>
    </defs>
    <g clip-path="url(#p54e0317f4d)">
     <use xlink:href="#m7d28df2e80" x="0" y="144" style="fill: #ffa500; fill-opacity: 0.5"/>
    </g>
   </g>
   <g id="PolyCollection_18">
    <defs>
     <path id="me298c5c954" d="M 160.031107 -28.954828 
L 160.031107 -27.116423 
L 173.406285 -27.031737 
L 186.781464 -29.143807 
L 200.156642 -29.813601 
L 210.188026 -31.405557 
L 210.188026 -40.741434 
L 210.188026 -40.741434 
L 200.156642 -31.816069 
L 186.781464 -33.526009 
L 173.406285 -30.402501 
L 160.031107 -28.954828 
z
"/>
    </defs>
    <g clip-path="url(#p54e0317f4d)">
     <use xlink:href="#me298c5c954" x="0" y="144" style="fill: #ee82ee; fill-opacity: 0.5"/>
    </g>
   </g>
   <g id="matplotlib.axis_9">
    <g id="xtick_21">
     <g id="line2d_54">
      <g>
       <use xlink:href="#m8b66ee0342" x="160.031107" y="118.858041" style="stroke: #000000; stroke-width: 0.8"/>
      </g>
     </g>
     <g id="text_20">
      <!-- $\mathdefault{18}$ -->
      <g transform="translate(157.231107 129.436948) scale(0.05 -0.05)">
       <use xlink:href="#ArialMT-31" transform="translate(0 0.125)"/>
       <use xlink:href="#ArialMT-38" transform="translate(55.615234 0.125)"/>
      </g>
     </g>
    </g>
    <g id="xtick_22">
     <g id="line2d_55">
      <g>
       <use xlink:href="#m8b66ee0342" x="173.406285" y="118.858041" style="stroke: #000000; stroke-width: 0.8"/>
      </g>
     </g>
     <g id="text_21">
      <!-- $\mathdefault{22}$ -->
      <g transform="translate(170.606285 129.436948) scale(0.05 -0.05)">
       <use xlink:href="#ArialMT-32" transform="translate(0 0.125)"/>
       <use xlink:href="#ArialMT-32" transform="translate(55.615234 0.125)"/>
      </g>
     </g>
    </g>
    <g id="xtick_23">
     <g id="line2d_56">
      <g>
       <use xlink:href="#m8b66ee0342" x="186.781464" y="118.858041" style="stroke: #000000; stroke-width: 0.8"/>
      </g>
     </g>
     <g id="text_22">
      <!-- $\mathdefault{26}$ -->
      <g transform="translate(183.981464 129.436948) scale(0.05 -0.05)">
       <use xlink:href="#ArialMT-32" transform="translate(0 0.125)"/>
       <use xlink:href="#ArialMT-36" transform="translate(55.615234 0.125)"/>
      </g>
     </g>
    </g>
    <g id="xtick_24">
     <g id="line2d_57">
      <g>
       <use xlink:href="#m8b66ee0342" x="200.156642" y="118.858041" style="stroke: #000000; stroke-width: 0.8"/>
      </g>
     </g>
     <g id="text_23">
      <!-- $\mathdefault{30}$ -->
      <g transform="translate(197.356642 129.436948) scale(0.05 -0.05)">
       <use xlink:href="#ArialMT-33" transform="translate(0 0.125)"/>
       <use xlink:href="#ArialMT-30" transform="translate(55.615234 0.125)"/>
      </g>
     </g>
    </g>
    <g id="xtick_25">
     <g id="line2d_58">
      <g>
       <use xlink:href="#m8b66ee0342" x="210.188026" y="118.858041" style="stroke: #000000; stroke-width: 0.8"/>
      </g>
     </g>
     <g id="text_24">
      <!-- $\mathdefault{33}$ -->
      <g transform="translate(207.388026 129.436948) scale(0.05 -0.05)">
       <use xlink:href="#ArialMT-33" transform="translate(0 0.125)"/>
       <use xlink:href="#ArialMT-33" transform="translate(55.615234 0.125)"/>
      </g>
     </g>
    </g>
   </g>
   <g id="matplotlib.axis_10">
    <g id="ytick_13">
     <g id="line2d_59">
      <g>
       <use xlink:href="#m248a22dd17" x="157.523261" y="118.858041" style="stroke: #000000; stroke-width: 0.8"/>
      </g>
     </g>
    </g>
    <g id="ytick_14">
     <g id="line2d_60">
      <g>
       <use xlink:href="#m248a22dd17" x="157.523261" y="98.131836" style="stroke: #000000; stroke-width: 0.8"/>
      </g>
     </g>
    </g>
    <g id="ytick_15">
     <g id="line2d_61">
      <g>
       <use xlink:href="#m248a22dd17" x="157.523261" y="77.405631" style="stroke: #000000; stroke-width: 0.8"/>
      </g>
     </g>
    </g>
   </g>
   <g id="line2d_62">
    <path d="M 160.031107 111.996353 
L 173.406285 113.666356 
L 186.781464 111.483577 
L 200.156642 109.339003 
L 210.188026 106.508228 
" clip-path="url(#p54e0317f4d)" style="fill: none; stroke: #000000; stroke-width: 1.5; stroke-linecap: square"/>
   </g>
   <g id="line2d_63">
    <path d="M 160.031107 117.772781 
L 173.406285 116.976419 
L 186.781464 117.137976 
L 200.156642 115.289982 
L 210.188026 113.917752 
" clip-path="url(#p54e0317f4d)" style="fill: none; stroke: #ffa500; stroke-width: 1.5; stroke-linecap: square"/>
   </g>
   <g id="line2d_64">
    <path d="M 160.031107 115.771909 
L 173.406285 114.998892 
L 186.781464 115.160627 
L 200.156642 112.253762 
L 210.188026 111.409053 
" clip-path="url(#p54e0317f4d)" style="fill: none; stroke: #ee82ee; stroke-width: 1.5; stroke-linecap: square"/>
   </g>
   <g id="line2d_65">
    <path d="M 160.031107 111.996353 
L 173.406285 113.666356 
L 186.781464 111.483577 
L 200.156642 109.339003 
L 210.188026 106.508228 
" clip-path="url(#p54e0317f4d)" style="fill: none; stroke: #000000; stroke-width: 1.5; stroke-linecap: square"/>
   </g>
   <g id="line2d_66">
    <path d="M 160.031107 117.844757 
L 173.406285 117.248116 
L 186.781464 115.688757 
L 200.156642 116.12064 
L 210.188026 111.008099 
" clip-path="url(#p54e0317f4d)" style="fill: none; stroke: #ffa500; stroke-width: 1.5; stroke-linecap: square"/>
   </g>
   <g id="line2d_67">
    <path d="M 160.031107 115.964375 
L 173.406285 115.282881 
L 186.781464 112.665092 
L 200.156642 113.185165 
L 210.188026 107.926504 
" clip-path="url(#p54e0317f4d)" style="fill: none; stroke: #ee82ee; stroke-width: 1.5; stroke-linecap: square"/>
   </g>
   <g id="patch_15">
    <path d="M 157.523261 118.858041 
L 157.523261 77.405631 
" style="fill: none; stroke: #000000; stroke-width: 0.8; stroke-linejoin: miter; stroke-linecap: square"/>
   </g>
   <g id="patch_16">
    <path d="M 157.523261 118.858041 
L 212.695872 118.858041 
" style="fill: none; stroke: #000000; stroke-width: 0.8; stroke-linejoin: miter; stroke-linecap: square"/>
   </g>
   <g id="text_25">
    <!-- L→R , R→L -->
    <g transform="translate(163.549566 71.405631) scale(0.08 -0.08)">
     <use xlink:href="#ArialMT-4c"/>
     <use xlink:href="#ArialMT-2192" x="55.615234"/>
     <use xlink:href="#ArialMT-52" x="155.615234"/>
     <use xlink:href="#ArialMT-20" x="227.832031"/>
     <use xlink:href="#ArialMT-2c" x="255.615234"/>
     <use xlink:href="#ArialMT-20" x="283.398438"/>
     <use xlink:href="#ArialMT-52" x="311.181641"/>
     <use xlink:href="#ArialMT-2192" x="383.398438"/>
     <use xlink:href="#ArialMT-4c" x="483.398438"/>
    </g>
   </g>
  </g>
 </g>
 <defs>
  <clipPath id="p7344d405ba">
   <rect x="92.546282" y="14.72649" width="55.172611" height="41.452411"/>
  </clipPath>
  <clipPath id="p7aac213c31">
   <rect x="157.523261" y="14.72649" width="55.172611" height="41.452411"/>
  </clipPath>
  <clipPath id="p8a9266815e">
   <rect x="17.00024" y="77.405631" width="55.172611" height="41.452411"/>
  </clipPath>
  <clipPath id="p3adf29b922">
   <rect x="92.546282" y="77.405631" width="55.172611" height="41.452411"/>
  </clipPath>
  <clipPath id="p54e0317f4d">
   <rect x="157.523261" y="77.405631" width="55.172611" height="41.452411"/>
  </clipPath>
 </defs>
</svg>
