<?xml version="1.0" encoding="utf-8" standalone="no"?>
<!DOCTYPE svg PUBLIC "-//W3C//DTD SVG 1.1//EN"
  "http://www.w3.org/Graphics/SVG/1.1/DTD/svg11.dtd">
<svg xmlns:xlink="http://www.w3.org/1999/xlink" width="288pt" height="288pt" viewBox="0 0 288 288" xmlns="http://www.w3.org/2000/svg" version="1.1">
 <metadata>
  <rdf:RDF xmlns:dc="http://purl.org/dc/elements/1.1/" xmlns:cc="http://creativecommons.org/ns#" xmlns:rdf="http://www.w3.org/1999/02/22-rdf-syntax-ns#">
   <cc:Work>
    <dc:type rdf:resource="http://purl.org/dc/dcmitype/StillImage"/>
    <dc:date>2024-02-10T22:00:02.350986</dc:date>
    <dc:format>image/svg+xml</dc:format>
    <dc:creator>
     <cc:Agent>
      <dc:title>Matplotlib v3.8.0, https://matplotlib.org/</dc:title>
     </cc:Agent>
    </dc:creator>
   </cc:Work>
  </rdf:RDF>
 </metadata>
 <defs>
  <style type="text/css">*{stroke-linejoin: round; stroke-linecap: butt}</style>
 </defs>
 <g id="figure_1">
  <g id="patch_1">
   <path d="M 0 288 
L 288 288 
L 288 0 
L 0 0 
L 0 288 
z
" style="fill: none"/>
  </g>
  <g id="axes_1">
   <g id="patch_2">
    <path d="M 24.098209 259.845151 
L 265.243545 259.845151 
L 265.243545 18.699814 
L 24.098209 18.699814 
L 24.098209 259.845151 
z
" style="fill: none"/>
   </g>
   <g id="matplotlib.axis_1">
    <g id="xtick_1">
     <g id="line2d_1">
      <defs>
       <path id="mca8902a6e1" d="M 0 0 
L 0 3.5 
" style="stroke: #000000; stroke-width: 0.8"/>
      </defs>
      <g>
       <use xlink:href="#mca8902a6e1" x="64.289098" y="259.845151" style="stroke: #000000; stroke-width: 0.8"/>
      </g>
     </g>
     <g id="text_1">
      <!-- L -->
      <g transform="translate(62.898864 270.424057) scale(0.05 -0.05)">
       <defs>
        <path id="ArialMT-4c" d="M 469 0 
L 469 4581 
L 1075 4581 
L 1075 541 
L 3331 541 
L 3331 0 
L 469 0 
z
" transform="scale(0.015625)"/>
       </defs>
       <use xlink:href="#ArialMT-4c"/>
      </g>
     </g>
    </g>
    <g id="xtick_2">
     <g id="line2d_2">
      <g>
       <use xlink:href="#mca8902a6e1" x="144.670877" y="259.845151" style="stroke: #000000; stroke-width: 0.8"/>
      </g>
     </g>
     <g id="text_2">
      <!-- F -->
      <g transform="translate(143.143924 270.424057) scale(0.05 -0.05)">
       <defs>
        <path id="ArialMT-46" d="M 525 0 
L 525 4581 
L 3616 4581 
L 3616 4041 
L 1131 4041 
L 1131 2622 
L 3281 2622 
L 3281 2081 
L 1131 2081 
L 1131 0 
L 525 0 
z
" transform="scale(0.015625)"/>
       </defs>
       <use xlink:href="#ArialMT-46"/>
      </g>
     </g>
    </g>
    <g id="xtick_3">
     <g id="line2d_3">
      <g>
       <use xlink:href="#mca8902a6e1" x="225.052656" y="259.845151" style="stroke: #000000; stroke-width: 0.8"/>
      </g>
     </g>
     <g id="text_3">
      <!-- R -->
      <g transform="translate(223.247187 270.424057) scale(0.05 -0.05)">
       <defs>
        <path id="ArialMT-52" d="M 503 0 
L 503 4581 
L 2534 4581 
Q 3147 4581 3465 4457 
Q 3784 4334 3975 4021 
Q 4166 3709 4166 3331 
Q 4166 2844 3850 2509 
Q 3534 2175 2875 2084 
Q 3116 1969 3241 1856 
Q 3506 1613 3744 1247 
L 4541 0 
L 3778 0 
L 3172 953 
Q 2906 1366 2734 1584 
Q 2563 1803 2427 1890 
Q 2291 1978 2150 2013 
Q 2047 2034 1813 2034 
L 1109 2034 
L 1109 0 
L 503 0 
z
M 1109 2559 
L 2413 2559 
Q 2828 2559 3062 2645 
Q 3297 2731 3419 2920 
Q 3541 3109 3541 3331 
Q 3541 3656 3305 3865 
Q 3069 4075 2559 4075 
L 1109 4075 
L 1109 2559 
z
" transform="scale(0.015625)"/>
       </defs>
       <use xlink:href="#ArialMT-52"/>
      </g>
     </g>
    </g>
    <g id="text_4">
     <!-- Current Step , n -->
     <g transform="translate(119.965799 280.513588) scale(0.07 -0.07)">
      <defs>
       <path id="ArialMT-43" d="M 3763 1606 
L 4369 1453 
Q 4178 706 3683 314 
Q 3188 -78 2472 -78 
Q 1731 -78 1267 223 
Q 803 525 561 1097 
Q 319 1669 319 2325 
Q 319 3041 592 3573 
Q 866 4106 1370 4382 
Q 1875 4659 2481 4659 
Q 3169 4659 3637 4309 
Q 4106 3959 4291 3325 
L 3694 3184 
Q 3534 3684 3231 3912 
Q 2928 4141 2469 4141 
Q 1941 4141 1586 3887 
Q 1231 3634 1087 3207 
Q 944 2781 944 2328 
Q 944 1744 1114 1308 
Q 1284 872 1643 656 
Q 2003 441 2422 441 
Q 2931 441 3284 734 
Q 3638 1028 3763 1606 
z
" transform="scale(0.015625)"/>
       <path id="ArialMT-75" d="M 2597 0 
L 2597 488 
Q 2209 -75 1544 -75 
Q 1250 -75 995 37 
Q 741 150 617 320 
Q 494 491 444 738 
Q 409 903 409 1263 
L 409 3319 
L 972 3319 
L 972 1478 
Q 972 1038 1006 884 
Q 1059 663 1231 536 
Q 1403 409 1656 409 
Q 1909 409 2131 539 
Q 2353 669 2445 892 
Q 2538 1116 2538 1541 
L 2538 3319 
L 3100 3319 
L 3100 0 
L 2597 0 
z
" transform="scale(0.015625)"/>
       <path id="ArialMT-72" d="M 416 0 
L 416 3319 
L 922 3319 
L 922 2816 
Q 1116 3169 1280 3281 
Q 1444 3394 1641 3394 
Q 1925 3394 2219 3213 
L 2025 2691 
Q 1819 2813 1613 2813 
Q 1428 2813 1281 2702 
Q 1134 2591 1072 2394 
Q 978 2094 978 1738 
L 978 0 
L 416 0 
z
" transform="scale(0.015625)"/>
       <path id="ArialMT-65" d="M 2694 1069 
L 3275 997 
Q 3138 488 2766 206 
Q 2394 -75 1816 -75 
Q 1088 -75 661 373 
Q 234 822 234 1631 
Q 234 2469 665 2931 
Q 1097 3394 1784 3394 
Q 2450 3394 2872 2941 
Q 3294 2488 3294 1666 
Q 3294 1616 3291 1516 
L 816 1516 
Q 847 969 1125 678 
Q 1403 388 1819 388 
Q 2128 388 2347 550 
Q 2566 713 2694 1069 
z
M 847 1978 
L 2700 1978 
Q 2663 2397 2488 2606 
Q 2219 2931 1791 2931 
Q 1403 2931 1139 2672 
Q 875 2413 847 1978 
z
" transform="scale(0.015625)"/>
       <path id="ArialMT-6e" d="M 422 0 
L 422 3319 
L 928 3319 
L 928 2847 
Q 1294 3394 1984 3394 
Q 2284 3394 2536 3286 
Q 2788 3178 2913 3003 
Q 3038 2828 3088 2588 
Q 3119 2431 3119 2041 
L 3119 0 
L 2556 0 
L 2556 2019 
Q 2556 2363 2490 2533 
Q 2425 2703 2258 2804 
Q 2091 2906 1866 2906 
Q 1506 2906 1245 2678 
Q 984 2450 984 1813 
L 984 0 
L 422 0 
z
" transform="scale(0.015625)"/>
       <path id="ArialMT-74" d="M 1650 503 
L 1731 6 
Q 1494 -44 1306 -44 
Q 1000 -44 831 53 
Q 663 150 594 308 
Q 525 466 525 972 
L 525 2881 
L 113 2881 
L 113 3319 
L 525 3319 
L 525 4141 
L 1084 4478 
L 1084 3319 
L 1650 3319 
L 1650 2881 
L 1084 2881 
L 1084 941 
Q 1084 700 1114 631 
Q 1144 563 1211 522 
Q 1278 481 1403 481 
Q 1497 481 1650 503 
z
" transform="scale(0.015625)"/>
       <path id="ArialMT-20" transform="scale(0.015625)"/>
       <path id="ArialMT-53" d="M 288 1472 
L 859 1522 
Q 900 1178 1048 958 
Q 1197 738 1509 602 
Q 1822 466 2213 466 
Q 2559 466 2825 569 
Q 3091 672 3220 851 
Q 3350 1031 3350 1244 
Q 3350 1459 3225 1620 
Q 3100 1781 2813 1891 
Q 2628 1963 1997 2114 
Q 1366 2266 1113 2400 
Q 784 2572 623 2826 
Q 463 3081 463 3397 
Q 463 3744 659 4045 
Q 856 4347 1234 4503 
Q 1613 4659 2075 4659 
Q 2584 4659 2973 4495 
Q 3363 4331 3572 4012 
Q 3781 3694 3797 3291 
L 3216 3247 
Q 3169 3681 2898 3903 
Q 2628 4125 2100 4125 
Q 1550 4125 1298 3923 
Q 1047 3722 1047 3438 
Q 1047 3191 1225 3031 
Q 1400 2872 2139 2705 
Q 2878 2538 3153 2413 
Q 3553 2228 3743 1945 
Q 3934 1663 3934 1294 
Q 3934 928 3725 604 
Q 3516 281 3123 101 
Q 2731 -78 2241 -78 
Q 1619 -78 1198 103 
Q 778 284 539 648 
Q 300 1013 288 1472 
z
" transform="scale(0.015625)"/>
       <path id="ArialMT-70" d="M 422 -1272 
L 422 3319 
L 934 3319 
L 934 2888 
Q 1116 3141 1344 3267 
Q 1572 3394 1897 3394 
Q 2322 3394 2647 3175 
Q 2972 2956 3137 2557 
Q 3303 2159 3303 1684 
Q 3303 1175 3120 767 
Q 2938 359 2589 142 
Q 2241 -75 1856 -75 
Q 1575 -75 1351 44 
Q 1128 163 984 344 
L 984 -1272 
L 422 -1272 
z
M 931 1641 
Q 931 1000 1190 694 
Q 1450 388 1819 388 
Q 2194 388 2461 705 
Q 2728 1022 2728 1688 
Q 2728 2322 2467 2637 
Q 2206 2953 1844 2953 
Q 1484 2953 1207 2617 
Q 931 2281 931 1641 
z
" transform="scale(0.015625)"/>
       <path id="ArialMT-2c" d="M 569 0 
L 569 641 
L 1209 641 
L 1209 0 
Q 1209 -353 1084 -570 
Q 959 -788 688 -906 
L 531 -666 
Q 709 -588 793 -436 
Q 878 -284 888 0 
L 569 0 
z
" transform="scale(0.015625)"/>
      </defs>
      <use xlink:href="#ArialMT-43"/>
      <use xlink:href="#ArialMT-75" x="72.216797"/>
      <use xlink:href="#ArialMT-72" x="127.832031"/>
      <use xlink:href="#ArialMT-72" x="161.132812"/>
      <use xlink:href="#ArialMT-65" x="194.433594"/>
      <use xlink:href="#ArialMT-6e" x="250.048828"/>
      <use xlink:href="#ArialMT-74" x="305.664062"/>
      <use xlink:href="#ArialMT-20" x="333.447266"/>
      <use xlink:href="#ArialMT-53" x="361.230469"/>
      <use xlink:href="#ArialMT-74" x="427.929688"/>
      <use xlink:href="#ArialMT-65" x="455.712891"/>
      <use xlink:href="#ArialMT-70" x="511.328125"/>
      <use xlink:href="#ArialMT-20" x="566.943359"/>
      <use xlink:href="#ArialMT-2c" x="594.726562"/>
      <use xlink:href="#ArialMT-20" x="622.509766"/>
      <use xlink:href="#ArialMT-6e" x="650.292969"/>
     </g>
    </g>
   </g>
   <g id="matplotlib.axis_2">
    <g id="ytick_1">
     <g id="line2d_4">
      <defs>
       <path id="m009c0b6447" d="M 0 0 
L -3.5 0 
" style="stroke: #000000; stroke-width: 0.8"/>
      </defs>
      <g>
       <use xlink:href="#m009c0b6447" x="24.098209" y="219.654261" style="stroke: #000000; stroke-width: 0.8"/>
      </g>
     </g>
     <g id="text_5">
      <!-- L -->
      <g transform="translate(14.31774 221.443714) scale(0.05 -0.05)">
       <use xlink:href="#ArialMT-4c"/>
      </g>
     </g>
    </g>
    <g id="ytick_2">
     <g id="line2d_5">
      <g>
       <use xlink:href="#m009c0b6447" x="24.098209" y="139.272482" style="stroke: #000000; stroke-width: 0.8"/>
      </g>
     </g>
     <g id="text_6">
      <!-- F -->
      <g transform="translate(14.044303 141.061936) scale(0.05 -0.05)">
       <use xlink:href="#ArialMT-46"/>
      </g>
     </g>
    </g>
    <g id="ytick_3">
     <g id="line2d_6">
      <g>
       <use xlink:href="#m009c0b6447" x="24.098209" y="58.890704" style="stroke: #000000; stroke-width: 0.8"/>
      </g>
     </g>
     <g id="text_7">
      <!-- R -->
      <g transform="translate(13.487271 60.680157) scale(0.05 -0.05)">
       <use xlink:href="#ArialMT-52"/>
      </g>
     </g>
    </g>
    <g id="text_8">
     <!-- Next Step , n+1 -->
     <g transform="translate(8.096021 163.49467) rotate(-90) scale(0.07 -0.07)">
      <defs>
       <path id="ArialMT-4e" d="M 488 0 
L 488 4581 
L 1109 4581 
L 3516 984 
L 3516 4581 
L 4097 4581 
L 4097 0 
L 3475 0 
L 1069 3600 
L 1069 0 
L 488 0 
z
" transform="scale(0.015625)"/>
       <path id="ArialMT-78" d="M 47 0 
L 1259 1725 
L 138 3319 
L 841 3319 
L 1350 2541 
Q 1494 2319 1581 2169 
Q 1719 2375 1834 2534 
L 2394 3319 
L 3066 3319 
L 1919 1756 
L 3153 0 
L 2463 0 
L 1781 1031 
L 1600 1309 
L 728 0 
L 47 0 
z
" transform="scale(0.015625)"/>
       <path id="ArialMT-2b" d="M 1603 741 
L 1603 1997 
L 356 1997 
L 356 2522 
L 1603 2522 
L 1603 3769 
L 2134 3769 
L 2134 2522 
L 3381 2522 
L 3381 1997 
L 2134 1997 
L 2134 741 
L 1603 741 
z
" transform="scale(0.015625)"/>
       <path id="ArialMT-31" d="M 2384 0 
L 1822 0 
L 1822 3584 
Q 1619 3391 1289 3197 
Q 959 3003 697 2906 
L 697 3450 
Q 1169 3672 1522 3987 
Q 1875 4303 2022 4600 
L 2384 4600 
L 2384 0 
z
" transform="scale(0.015625)"/>
      </defs>
      <use xlink:href="#ArialMT-4e"/>
      <use xlink:href="#ArialMT-65" x="72.216797"/>
      <use xlink:href="#ArialMT-78" x="127.832031"/>
      <use xlink:href="#ArialMT-74" x="177.832031"/>
      <use xlink:href="#ArialMT-20" x="205.615234"/>
      <use xlink:href="#ArialMT-53" x="233.398438"/>
      <use xlink:href="#ArialMT-74" x="300.097656"/>
      <use xlink:href="#ArialMT-65" x="327.880859"/>
      <use xlink:href="#ArialMT-70" x="383.496094"/>
      <use xlink:href="#ArialMT-20" x="439.111328"/>
      <use xlink:href="#ArialMT-2c" x="466.894531"/>
      <use xlink:href="#ArialMT-20" x="494.677734"/>
      <use xlink:href="#ArialMT-6e" x="522.460938"/>
      <use xlink:href="#ArialMT-2b" x="578.076172"/>
      <use xlink:href="#ArialMT-31" x="636.474609"/>
     </g>
    </g>
   </g>
   <g id="patch_3">
    <path d="M 24.098209 259.845151 
L 24.098209 18.699814 
" style="fill: none; stroke: #000000; stroke-width: 0.8; stroke-linejoin: miter; stroke-linecap: square"/>
   </g>
   <g id="patch_4">
    <path d="M 24.098209 259.845151 
L 265.243545 259.845151 
" style="fill: none; stroke: #000000; stroke-width: 0.8; stroke-linejoin: miter; stroke-linecap: square"/>
   </g>
   <g id="axes_2">
    <g id="patch_5">
     <path d="M 112.518165 171.425194 
L 176.823588 171.425194 
L 176.823588 107.119771 
L 112.518165 107.119771 
L 112.518165 171.425194 
z
" style="fill: none"/>
    </g>
    <g id="PolyCollection_1">
     <path d="M 115.441139 122.977076 
L 115.441139 120.749514 
L 131.030333 130.488342 
L 146.619526 139.367475 
L 162.20872 144.022766 
L 173.900615 149.291691 
L 173.900615 151.503004 
L 173.900615 151.503004 
L 162.20872 145.533712 
L 146.619526 140.672865 
L 131.030333 131.778873 
L 115.441139 122.977076 
z
" clip-path="url(#pdc748a843e)" style="fill-opacity: 0.5"/>
    </g>
    <g id="PolyCollection_2">
     <path d="M 115.441139 130.589344 
L 115.441139 125.971446 
L 131.030333 140.076959 
L 146.619526 141.733428 
L 162.20872 145.041023 
L 173.900615 148.237252 
L 173.900615 150.730568 
L 173.900615 150.730568 
L 162.20872 146.5793 
L 146.619526 143.247503 
L 131.030333 142.17976 
L 115.441139 130.589344 
z
" clip-path="url(#pdc748a843e)" style="fill-opacity: 0.5"/>
    </g>
    <g id="matplotlib.axis_3">
     <g id="xtick_4">
      <g id="line2d_7">
       <g>
        <use xlink:href="#mca8902a6e1" x="115.441139" y="171.425194" style="stroke: #000000; stroke-width: 0.8"/>
       </g>
      </g>
     </g>
     <g id="xtick_5">
      <g id="line2d_8">
       <g>
        <use xlink:href="#mca8902a6e1" x="131.030333" y="171.425194" style="stroke: #000000; stroke-width: 0.8"/>
       </g>
      </g>
     </g>
     <g id="xtick_6">
      <g id="line2d_9">
       <g>
        <use xlink:href="#mca8902a6e1" x="146.619526" y="171.425194" style="stroke: #000000; stroke-width: 0.8"/>
       </g>
      </g>
     </g>
     <g id="xtick_7">
      <g id="line2d_10">
       <g>
        <use xlink:href="#mca8902a6e1" x="162.20872" y="171.425194" style="stroke: #000000; stroke-width: 0.8"/>
       </g>
      </g>
     </g>
     <g id="xtick_8">
      <g id="line2d_11">
       <g>
        <use xlink:href="#mca8902a6e1" x="173.900615" y="171.425194" style="stroke: #000000; stroke-width: 0.8"/>
       </g>
      </g>
     </g>
    </g>
    <g id="matplotlib.axis_4">
     <g id="ytick_4">
      <g id="line2d_12">
       <g>
        <use xlink:href="#m009c0b6447" x="112.518165" y="171.425194" style="stroke: #000000; stroke-width: 0.8"/>
       </g>
      </g>
     </g>
     <g id="ytick_5">
      <g id="line2d_13">
       <g>
        <use xlink:href="#m009c0b6447" x="112.518165" y="155.348838" style="stroke: #000000; stroke-width: 0.8"/>
       </g>
      </g>
     </g>
     <g id="ytick_6">
      <g id="line2d_14">
       <g>
        <use xlink:href="#m009c0b6447" x="112.518165" y="139.272482" style="stroke: #000000; stroke-width: 0.8"/>
       </g>
      </g>
     </g>
     <g id="ytick_7">
      <g id="line2d_15">
       <g>
        <use xlink:href="#m009c0b6447" x="112.518165" y="123.196127" style="stroke: #000000; stroke-width: 0.8"/>
       </g>
      </g>
     </g>
     <g id="ytick_8">
      <g id="line2d_16">
       <g>
        <use xlink:href="#m009c0b6447" x="112.518165" y="107.119771" style="stroke: #000000; stroke-width: 0.8"/>
       </g>
      </g>
     </g>
    </g>
    <g id="patch_6">
     <path d="M 112.518165 171.425194 
L 112.518165 107.119771 
" style="fill: none; stroke: #000000; stroke-width: 0.8; stroke-linejoin: miter; stroke-linecap: square"/>
    </g>
    <g id="patch_7">
     <path d="M 112.518165 171.425194 
L 176.823588 171.425194 
" style="fill: none; stroke: #000000; stroke-width: 0.8; stroke-linejoin: miter; stroke-linecap: square"/>
    </g>
    <g id="PathCollection_1">
     <defs>
      <path id="C0_0_ff4070e800" d="M 0 2.236068 
C 0.593012 2.236068 1.161816 2.000462 1.581139 1.581139 
C 2.000462 1.161816 2.236068 0.593012 2.236068 -0 
C 2.236068 -0.593012 2.000462 -1.161816 1.581139 -1.581139 
C 1.161816 -2.000462 0.593012 -2.236068 0 -2.236068 
C -0.593012 -2.236068 -1.161816 -2.000462 -1.581139 -1.581139 
C -2.000462 -1.161816 -2.236068 -0.593012 -2.236068 0 
C -2.236068 0.593012 -2.000462 1.161816 -1.581139 1.581139 
C -1.161816 2.000462 -0.593012 2.236068 0 2.236068 
z
"/>
     </defs>
     <g clip-path="url(#pdc748a843e)">
      <use xlink:href="#C0_0_ff4070e800" x="115.441139" y="121.875485" style="fill: #033198; stroke: #000000; stroke-width: 0.75"/>
     </g>
     <g clip-path="url(#pdc748a843e)">
      <use xlink:href="#C0_0_ff4070e800" x="131.030333" y="131.152545" style="fill: #399dc7; stroke: #000000; stroke-width: 0.75"/>
     </g>
     <g clip-path="url(#pdc748a843e)">
      <use xlink:href="#C0_0_ff4070e800" x="146.619526" y="140.05497" style="fill: #c1eac2; stroke: #000000; stroke-width: 0.75"/>
     </g>
     <g clip-path="url(#pdc748a843e)">
      <use xlink:href="#C0_0_ff4070e800" x="162.20872" y="144.790502" style="fill: #b58b31; stroke: #000000; stroke-width: 0.75"/>
     </g>
     <g clip-path="url(#pdc748a843e)">
      <use xlink:href="#C0_0_ff4070e800" x="173.900615" y="150.318247" style="fill: #7e1700; stroke: #000000; stroke-width: 0.75"/>
     </g>
    </g>
    <g id="PathCollection_2">
     <path d="M 115.441139 126.057439 
L 113.205071 130.529575 
L 117.677207 130.529575 
z
" clip-path="url(#pdc748a843e)" style="fill: #033198; stroke: #000000; stroke-width: 0.75"/>
     <path d="M 131.030333 138.970903 
L 128.794265 143.443039 
L 133.266401 143.443039 
z
" clip-path="url(#pdc748a843e)" style="fill: #399dc7; stroke: #000000; stroke-width: 0.75"/>
     <path d="M 146.619526 140.254309 
L 144.383458 144.726445 
L 148.855594 144.726445 
z
" clip-path="url(#pdc748a843e)" style="fill: #c1eac2; stroke: #000000; stroke-width: 0.75"/>
     <path d="M 162.20872 143.565968 
L 159.972652 148.038104 
L 164.444788 148.038104 
z
" clip-path="url(#pdc748a843e)" style="fill: #b58b31; stroke: #000000; stroke-width: 0.75"/>
     <path d="M 173.900615 147.29651 
L 171.664547 151.768646 
L 176.136683 151.768646 
z
" clip-path="url(#pdc748a843e)" style="fill: #7e1700; stroke: #000000; stroke-width: 0.75"/>
    </g>
   </g>
   <g id="axes_3">
    <g id="patch_8">
     <path d="M 112.518165 251.806973 
L 176.823588 251.806973 
L 176.823588 187.50155 
L 112.518165 187.50155 
L 112.518165 251.806973 
z
" style="fill: none"/>
    </g>
    <g id="PolyCollection_3">
     <path d="M 115.441139 244.819819 
L 115.441139 243.757793 
L 131.030333 239.230784 
L 146.619526 234.771729 
L 162.20872 231.896386 
L 173.900615 228.897636 
L 173.900615 230.548458 
L 173.900615 230.548458 
L 162.20872 232.837368 
L 146.619526 235.776666 
L 131.030333 240.092985 
L 115.441139 244.819819 
z
" clip-path="url(#pe36d948c37)" style="fill-opacity: 0.5"/>
    </g>
    <g id="PolyCollection_4">
     <path d="M 115.441139 242.381135 
L 115.441139 240.072186 
L 131.030333 234.276978 
L 146.619526 233.743107 
L 162.20872 232.077208 
L 173.900615 230.001574 
L 173.900615 231.248232 
L 173.900615 231.248232 
L 162.20872 232.846347 
L 146.619526 234.500144 
L 131.030333 235.328379 
L 115.441139 242.381135 
z
" clip-path="url(#pe36d948c37)" style="fill-opacity: 0.5"/>
    </g>
    <g id="matplotlib.axis_5">
     <g id="xtick_9">
      <g id="line2d_17">
       <g>
        <use xlink:href="#mca8902a6e1" x="115.441139" y="251.806973" style="stroke: #000000; stroke-width: 0.8"/>
       </g>
      </g>
     </g>
     <g id="xtick_10">
      <g id="line2d_18">
       <g>
        <use xlink:href="#mca8902a6e1" x="131.030333" y="251.806973" style="stroke: #000000; stroke-width: 0.8"/>
       </g>
      </g>
     </g>
     <g id="xtick_11">
      <g id="line2d_19">
       <g>
        <use xlink:href="#mca8902a6e1" x="146.619526" y="251.806973" style="stroke: #000000; stroke-width: 0.8"/>
       </g>
      </g>
     </g>
     <g id="xtick_12">
      <g id="line2d_20">
       <g>
        <use xlink:href="#mca8902a6e1" x="162.20872" y="251.806973" style="stroke: #000000; stroke-width: 0.8"/>
       </g>
      </g>
     </g>
     <g id="xtick_13">
      <g id="line2d_21">
       <g>
        <use xlink:href="#mca8902a6e1" x="173.900615" y="251.806973" style="stroke: #000000; stroke-width: 0.8"/>
       </g>
      </g>
     </g>
    </g>
    <g id="matplotlib.axis_6">
     <g id="ytick_9">
      <g id="line2d_22">
       <g>
        <use xlink:href="#m009c0b6447" x="112.518165" y="251.806973" style="stroke: #000000; stroke-width: 0.8"/>
       </g>
      </g>
     </g>
     <g id="ytick_10">
      <g id="line2d_23">
       <g>
        <use xlink:href="#m009c0b6447" x="112.518165" y="235.730617" style="stroke: #000000; stroke-width: 0.8"/>
       </g>
      </g>
     </g>
     <g id="ytick_11">
      <g id="line2d_24">
       <g>
        <use xlink:href="#m009c0b6447" x="112.518165" y="219.654261" style="stroke: #000000; stroke-width: 0.8"/>
       </g>
      </g>
     </g>
     <g id="ytick_12">
      <g id="line2d_25">
       <g>
        <use xlink:href="#m009c0b6447" x="112.518165" y="203.577905" style="stroke: #000000; stroke-width: 0.8"/>
       </g>
      </g>
     </g>
     <g id="ytick_13">
      <g id="line2d_26">
       <g>
        <use xlink:href="#m009c0b6447" x="112.518165" y="187.50155" style="stroke: #000000; stroke-width: 0.8"/>
       </g>
      </g>
     </g>
    </g>
    <g id="patch_9">
     <path d="M 112.518165 251.806973 
L 112.518165 187.50155 
" style="fill: none; stroke: #000000; stroke-width: 0.8; stroke-linejoin: miter; stroke-linecap: square"/>
    </g>
    <g id="patch_10">
     <path d="M 112.518165 251.806973 
L 176.823588 251.806973 
" style="fill: none; stroke: #000000; stroke-width: 0.8; stroke-linejoin: miter; stroke-linecap: square"/>
    </g>
    <g id="PathCollection_3">
     <defs>
      <path id="C1_0_500fa0d31b" d="M 0 2.236068 
C 0.593012 2.236068 1.161816 2.000462 1.581139 1.581139 
C 2.000462 1.161816 2.236068 0.593012 2.236068 -0 
C 2.236068 -0.593012 2.000462 -1.161816 1.581139 -1.581139 
C 1.161816 -2.000462 0.593012 -2.236068 0 -2.236068 
C -0.593012 -2.236068 -1.161816 -2.000462 -1.581139 -1.581139 
C -2.000462 -1.161816 -2.236068 -0.593012 -2.236068 0 
C -2.236068 0.593012 -2.000462 1.161816 -1.581139 1.581139 
C -1.161816 2.000462 -0.593012 2.236068 0 2.236068 
z
"/>
     </defs>
     <g clip-path="url(#pe36d948c37)">
      <use xlink:href="#C1_0_500fa0d31b" x="115.441139" y="244.29331" style="fill: #033198; stroke: #000000; stroke-width: 0.75"/>
     </g>
     <g clip-path="url(#pe36d948c37)">
      <use xlink:href="#C1_0_500fa0d31b" x="131.030333" y="239.646578" style="fill: #399dc7; stroke: #000000; stroke-width: 0.75"/>
     </g>
     <g clip-path="url(#pe36d948c37)">
      <use xlink:href="#C1_0_500fa0d31b" x="146.619526" y="235.253473" style="fill: #c1eac2; stroke: #000000; stroke-width: 0.75"/>
     </g>
     <g clip-path="url(#pe36d948c37)">
      <use xlink:href="#C1_0_500fa0d31b" x="162.20872" y="232.364971" style="fill: #b58b31; stroke: #000000; stroke-width: 0.75"/>
     </g>
     <g clip-path="url(#pe36d948c37)">
      <use xlink:href="#C1_0_500fa0d31b" x="173.900615" y="229.760571" style="fill: #7e1700; stroke: #000000; stroke-width: 0.75"/>
     </g>
    </g>
    <g id="PathCollection_4">
     <path d="M 115.441139 238.984037 
L 113.205071 243.456172 
L 117.677207 243.456172 
z
" clip-path="url(#pe36d948c37)" style="fill: #033198; stroke: #000000; stroke-width: 0.75"/>
     <path d="M 131.030333 232.527305 
L 128.794265 236.999441 
L 133.266401 236.999441 
z
" clip-path="url(#pe36d948c37)" style="fill: #399dc7; stroke: #000000; stroke-width: 0.75"/>
     <path d="M 146.619526 231.885602 
L 144.383458 236.357738 
L 148.855594 236.357738 
z
" clip-path="url(#pe36d948c37)" style="fill: #c1eac2; stroke: #000000; stroke-width: 0.75"/>
     <path d="M 162.20872 230.229772 
L 159.972652 234.701908 
L 164.444788 234.701908 
z
" clip-path="url(#pe36d948c37)" style="fill: #b58b31; stroke: #000000; stroke-width: 0.75"/>
     <path d="M 173.900615 228.364501 
L 171.664547 232.836637 
L 176.136683 232.836637 
z
" clip-path="url(#pe36d948c37)" style="fill: #7e1700; stroke: #000000; stroke-width: 0.75"/>
    </g>
   </g>
   <g id="axes_4">
    <g id="patch_11">
     <path d="M 112.518165 91.043415 
L 176.823588 91.043415 
L 176.823588 26.737992 
L 112.518165 26.737992 
L 112.518165 91.043415 
z
" style="fill: none"/>
    </g>
    <g id="PolyCollection_5">
     <path d="M 115.441139 84.594526 
L 115.441139 83.041591 
L 131.030333 78.658089 
L 146.619526 74.215576 
L 162.20872 72.189545 
L 173.900615 69.112525 
L 173.900615 70.587004 
L 173.900615 70.587004 
L 162.20872 73.460542 
L 146.619526 75.136006 
L 131.030333 79.691246 
L 115.441139 84.594526 
z
" clip-path="url(#p602ede97c3)" style="fill-opacity: 0.5"/>
    </g>
    <g id="PolyCollection_6">
     <path d="M 115.441139 81.617578 
L 115.441139 79.308629 
L 131.030333 73.513421 
L 146.619526 72.979549 
L 162.20872 71.313651 
L 173.900615 69.238017 
L 173.900615 70.484675 
L 173.900615 70.484675 
L 162.20872 72.082789 
L 146.619526 73.736587 
L 131.030333 74.564821 
L 115.441139 81.617578 
z
" clip-path="url(#p602ede97c3)" style="fill-opacity: 0.5"/>
    </g>
    <g id="matplotlib.axis_7">
     <g id="xtick_14">
      <g id="line2d_27">
       <g>
        <use xlink:href="#mca8902a6e1" x="115.441139" y="91.043415" style="stroke: #000000; stroke-width: 0.8"/>
       </g>
      </g>
     </g>
     <g id="xtick_15">
      <g id="line2d_28">
       <g>
        <use xlink:href="#mca8902a6e1" x="131.030333" y="91.043415" style="stroke: #000000; stroke-width: 0.8"/>
       </g>
      </g>
     </g>
     <g id="xtick_16">
      <g id="line2d_29">
       <g>
        <use xlink:href="#mca8902a6e1" x="146.619526" y="91.043415" style="stroke: #000000; stroke-width: 0.8"/>
       </g>
      </g>
     </g>
     <g id="xtick_17">
      <g id="line2d_30">
       <g>
        <use xlink:href="#mca8902a6e1" x="162.20872" y="91.043415" style="stroke: #000000; stroke-width: 0.8"/>
       </g>
      </g>
     </g>
     <g id="xtick_18">
      <g id="line2d_31">
       <g>
        <use xlink:href="#mca8902a6e1" x="173.900615" y="91.043415" style="stroke: #000000; stroke-width: 0.8"/>
       </g>
      </g>
     </g>
    </g>
    <g id="matplotlib.axis_8">
     <g id="ytick_14">
      <g id="line2d_32">
       <g>
        <use xlink:href="#m009c0b6447" x="112.518165" y="91.043415" style="stroke: #000000; stroke-width: 0.8"/>
       </g>
      </g>
     </g>
     <g id="ytick_15">
      <g id="line2d_33">
       <g>
        <use xlink:href="#m009c0b6447" x="112.518165" y="74.967059" style="stroke: #000000; stroke-width: 0.8"/>
       </g>
      </g>
     </g>
     <g id="ytick_16">
      <g id="line2d_34">
       <g>
        <use xlink:href="#m009c0b6447" x="112.518165" y="58.890704" style="stroke: #000000; stroke-width: 0.8"/>
       </g>
      </g>
     </g>
     <g id="ytick_17">
      <g id="line2d_35">
       <g>
        <use xlink:href="#m009c0b6447" x="112.518165" y="42.814348" style="stroke: #000000; stroke-width: 0.8"/>
       </g>
      </g>
     </g>
     <g id="ytick_18">
      <g id="line2d_36">
       <g>
        <use xlink:href="#m009c0b6447" x="112.518165" y="26.737992" style="stroke: #000000; stroke-width: 0.8"/>
       </g>
      </g>
     </g>
    </g>
    <g id="patch_12">
     <path d="M 112.518165 91.043415 
L 112.518165 26.737992 
" style="fill: none; stroke: #000000; stroke-width: 0.8; stroke-linejoin: miter; stroke-linecap: square"/>
    </g>
    <g id="patch_13">
     <path d="M 112.518165 91.043415 
L 176.823588 91.043415 
" style="fill: none; stroke: #000000; stroke-width: 0.8; stroke-linejoin: miter; stroke-linecap: square"/>
    </g>
    <g id="PathCollection_5">
     <defs>
      <path id="C2_0_dc51a5bdaf" d="M 0 2.236068 
C 0.593012 2.236068 1.161816 2.000462 1.581139 1.581139 
C 2.000462 1.161816 2.236068 0.593012 2.236068 -0 
C 2.236068 -0.593012 2.000462 -1.161816 1.581139 -1.581139 
C 1.161816 -2.000462 0.593012 -2.236068 0 -2.236068 
C -0.593012 -2.236068 -1.161816 -2.000462 -1.581139 -1.581139 
C -2.000462 -1.161816 -2.236068 -0.593012 -2.236068 0 
C -2.236068 0.593012 -2.000462 1.161816 -1.581139 1.581139 
C -1.161816 2.000462 -0.593012 2.236068 0 2.236068 
z
"/>
     </defs>
     <g clip-path="url(#p602ede97c3)">
      <use xlink:href="#C2_0_dc51a5bdaf" x="115.441139" y="83.801364" style="fill: #033198; stroke: #000000; stroke-width: 0.75"/>
     </g>
     <g clip-path="url(#p602ede97c3)">
      <use xlink:href="#C2_0_dc51a5bdaf" x="131.030333" y="79.171036" style="fill: #399dc7; stroke: #000000; stroke-width: 0.75"/>
     </g>
     <g clip-path="url(#p602ede97c3)">
      <use xlink:href="#C2_0_dc51a5bdaf" x="146.619526" y="74.661716" style="fill: #c1eac2; stroke: #000000; stroke-width: 0.75"/>
     </g>
     <g clip-path="url(#p602ede97c3)">
      <use xlink:href="#C2_0_dc51a5bdaf" x="162.20872" y="72.814686" style="fill: #b58b31; stroke: #000000; stroke-width: 0.75"/>
     </g>
     <g clip-path="url(#p602ede97c3)">
      <use xlink:href="#C2_0_dc51a5bdaf" x="173.900615" y="69.891341" style="fill: #7e1700; stroke: #000000; stroke-width: 0.75"/>
     </g>
    </g>
    <g id="PathCollection_6">
     <path d="M 115.441139 78.220479 
L 113.205071 82.692615 
L 117.677207 82.692615 
z
" clip-path="url(#p602ede97c3)" style="fill: #033198; stroke: #000000; stroke-width: 0.75"/>
     <path d="M 131.030333 71.763747 
L 128.794265 76.235883 
L 133.266401 76.235883 
z
" clip-path="url(#p602ede97c3)" style="fill: #399dc7; stroke: #000000; stroke-width: 0.75"/>
     <path d="M 146.619526 71.122044 
L 144.383458 75.59418 
L 148.855594 75.59418 
z
" clip-path="url(#p602ede97c3)" style="fill: #c1eac2; stroke: #000000; stroke-width: 0.75"/>
     <path d="M 162.20872 69.466215 
L 159.972652 73.938351 
L 164.444788 73.938351 
z
" clip-path="url(#p602ede97c3)" style="fill: #b58b31; stroke: #000000; stroke-width: 0.75"/>
     <path d="M 173.900615 67.600944 
L 171.664547 72.07308 
L 176.136683 72.07308 
z
" clip-path="url(#p602ede97c3)" style="fill: #7e1700; stroke: #000000; stroke-width: 0.75"/>
    </g>
   </g>
   <g id="axes_5">
    <g id="patch_14">
     <path d="M 32.136387 171.425194 
L 96.44181 171.425194 
L 96.44181 107.119771 
L 32.136387 107.119771 
L 32.136387 171.425194 
z
" style="fill: none"/>
    </g>
    <g id="PolyCollection_7">
     <path d="M 35.05936 131.656029 
L 35.05936 128.276004 
L 50.648554 130.495106 
L 66.237747 137.552249 
L 81.826941 142.687912 
L 93.518836 149.43402 
L 93.518836 151.233188 
L 93.518836 151.233188 
L 81.826941 144.593512 
L 66.237747 139.072765 
L 50.648554 131.79172 
L 35.05936 131.656029 
z
" clip-path="url(#p925647aad9)" style="fill-opacity: 0.5"/>
    </g>
    <g id="PolyCollection_8">
     <path d="M 35.05936 151.631892 
L 35.05936 148.056895 
L 50.648554 146.497364 
L 66.237747 140.534334 
L 81.826941 143.488835 
L 93.518836 149.002277 
L 93.518836 150.707762 
L 93.518836 150.707762 
L 81.826941 145.373263 
L 66.237747 142.307333 
L 50.648554 148.66852 
L 35.05936 151.631892 
z
" clip-path="url(#p925647aad9)" style="fill-opacity: 0.5"/>
    </g>
    <g id="matplotlib.axis_9">
     <g id="xtick_19">
      <g id="line2d_37">
       <g>
        <use xlink:href="#mca8902a6e1" x="35.05936" y="171.425194" style="stroke: #000000; stroke-width: 0.8"/>
       </g>
      </g>
     </g>
     <g id="xtick_20">
      <g id="line2d_38">
       <g>
        <use xlink:href="#mca8902a6e1" x="50.648554" y="171.425194" style="stroke: #000000; stroke-width: 0.8"/>
       </g>
      </g>
     </g>
     <g id="xtick_21">
      <g id="line2d_39">
       <g>
        <use xlink:href="#mca8902a6e1" x="66.237747" y="171.425194" style="stroke: #000000; stroke-width: 0.8"/>
       </g>
      </g>
     </g>
     <g id="xtick_22">
      <g id="line2d_40">
       <g>
        <use xlink:href="#mca8902a6e1" x="81.826941" y="171.425194" style="stroke: #000000; stroke-width: 0.8"/>
       </g>
      </g>
     </g>
     <g id="xtick_23">
      <g id="line2d_41">
       <g>
        <use xlink:href="#mca8902a6e1" x="93.518836" y="171.425194" style="stroke: #000000; stroke-width: 0.8"/>
       </g>
      </g>
     </g>
    </g>
    <g id="matplotlib.axis_10">
     <g id="ytick_19">
      <g id="line2d_42">
       <g>
        <use xlink:href="#m009c0b6447" x="32.136387" y="171.425194" style="stroke: #000000; stroke-width: 0.8"/>
       </g>
      </g>
     </g>
     <g id="ytick_20">
      <g id="line2d_43">
       <g>
        <use xlink:href="#m009c0b6447" x="32.136387" y="155.348838" style="stroke: #000000; stroke-width: 0.8"/>
       </g>
      </g>
     </g>
     <g id="ytick_21">
      <g id="line2d_44">
       <g>
        <use xlink:href="#m009c0b6447" x="32.136387" y="139.272482" style="stroke: #000000; stroke-width: 0.8"/>
       </g>
      </g>
     </g>
     <g id="ytick_22">
      <g id="line2d_45">
       <g>
        <use xlink:href="#m009c0b6447" x="32.136387" y="123.196127" style="stroke: #000000; stroke-width: 0.8"/>
       </g>
      </g>
     </g>
     <g id="ytick_23">
      <g id="line2d_46">
       <g>
        <use xlink:href="#m009c0b6447" x="32.136387" y="107.119771" style="stroke: #000000; stroke-width: 0.8"/>
       </g>
      </g>
     </g>
    </g>
    <g id="patch_15">
     <path d="M 32.136387 171.425194 
L 32.136387 107.119771 
" style="fill: none; stroke: #000000; stroke-width: 0.8; stroke-linejoin: miter; stroke-linecap: square"/>
    </g>
    <g id="patch_16">
     <path d="M 32.136387 171.425194 
L 96.44181 171.425194 
" style="fill: none; stroke: #000000; stroke-width: 0.8; stroke-linejoin: miter; stroke-linecap: square"/>
    </g>
    <g id="PathCollection_7">
     <defs>
      <path id="C3_0_2affedab1a" d="M 0 2.236068 
C 0.593012 2.236068 1.161816 2.000462 1.581139 1.581139 
C 2.000462 1.161816 2.236068 0.593012 2.236068 -0 
C 2.236068 -0.593012 2.000462 -1.161816 1.581139 -1.581139 
C 1.161816 -2.000462 0.593012 -2.236068 0 -2.236068 
C -0.593012 -2.236068 -1.161816 -2.000462 -1.581139 -1.581139 
C -2.000462 -1.161816 -2.236068 -0.593012 -2.236068 0 
C -2.236068 0.593012 -2.000462 1.161816 -1.581139 1.581139 
C -1.161816 2.000462 -0.593012 2.236068 0 2.236068 
z
"/>
     </defs>
     <g clip-path="url(#p925647aad9)">
      <use xlink:href="#C3_0_2affedab1a" x="35.05936" y="130.07186" style="fill: #033198; stroke: #000000; stroke-width: 0.75"/>
     </g>
     <g clip-path="url(#p925647aad9)">
      <use xlink:href="#C3_0_2affedab1a" x="50.648554" y="131.126888" style="fill: #399dc7; stroke: #000000; stroke-width: 0.75"/>
     </g>
     <g clip-path="url(#p925647aad9)">
      <use xlink:href="#C3_0_2affedab1a" x="66.237747" y="138.271631" style="fill: #c1eac2; stroke: #000000; stroke-width: 0.75"/>
     </g>
     <g clip-path="url(#p925647aad9)">
      <use xlink:href="#C3_0_2affedab1a" x="81.826941" y="143.664157" style="fill: #b58b31; stroke: #000000; stroke-width: 0.75"/>
     </g>
     <g clip-path="url(#p925647aad9)">
      <use xlink:href="#C3_0_2affedab1a" x="93.518836" y="150.29447" style="fill: #7e1700; stroke: #000000; stroke-width: 0.75"/>
     </g>
    </g>
    <g id="PathCollection_8">
     <path d="M 35.05936 147.681368 
L 32.823292 152.153504 
L 37.295428 152.153504 
z
" clip-path="url(#p925647aad9)" style="fill: #033198; stroke: #000000; stroke-width: 0.75"/>
     <path d="M 50.648554 145.34133 
L 48.412486 149.813466 
L 52.884622 149.813466 
z
" clip-path="url(#p925647aad9)" style="fill: #399dc7; stroke: #000000; stroke-width: 0.75"/>
     <path d="M 66.237747 139.135711 
L 64.001679 143.607847 
L 68.473815 143.607847 
z
" clip-path="url(#p925647aad9)" style="fill: #c1eac2; stroke: #000000; stroke-width: 0.75"/>
     <path d="M 81.826941 142.149739 
L 79.590873 146.621875 
L 84.063009 146.621875 
z
" clip-path="url(#p925647aad9)" style="fill: #b58b31; stroke: #000000; stroke-width: 0.75"/>
     <path d="M 93.518836 147.61627 
L 91.282768 152.088406 
L 95.754904 152.088406 
z
" clip-path="url(#p925647aad9)" style="fill: #7e1700; stroke: #000000; stroke-width: 0.75"/>
    </g>
   </g>
   <g id="axes_6">
    <g id="patch_17">
     <path d="M 32.136387 251.806973 
L 96.44181 251.806973 
L 96.44181 187.50155 
L 32.136387 187.50155 
L 32.136387 251.806973 
z
" style="fill: none"/>
    </g>
    <g id="PolyCollection_9">
     <path d="M 35.05936 235.892014 
L 35.05936 233.10784 
L 50.648554 232.40848 
L 66.237747 230.834506 
L 81.826941 229.031899 
L 93.518836 226.867958 
L 93.518836 228.559217 
L 93.518836 228.559217 
L 81.826941 230.492312 
L 66.237747 232.280533 
L 50.648554 233.865214 
L 35.05936 235.892014 
z
" clip-path="url(#pfea60b5038)" style="fill-opacity: 0.5"/>
    </g>
    <g id="PolyCollection_10">
     <path d="M 35.05936 220.8293 
L 35.05936 218.507781 
L 50.648554 218.369072 
L 66.237747 228.257902 
L 81.826941 228.61391 
L 93.518836 227.346605 
L 93.518836 229.058893 
L 93.518836 229.058893 
L 81.826941 229.9558 
L 66.237747 229.69291 
L 50.648554 220.428203 
L 35.05936 220.8293 
z
" clip-path="url(#pfea60b5038)" style="fill-opacity: 0.5"/>
    </g>
    <g id="matplotlib.axis_11">
     <g id="xtick_24">
      <g id="line2d_47">
       <g>
        <use xlink:href="#mca8902a6e1" x="35.05936" y="251.806973" style="stroke: #000000; stroke-width: 0.8"/>
       </g>
      </g>
     </g>
     <g id="xtick_25">
      <g id="line2d_48">
       <g>
        <use xlink:href="#mca8902a6e1" x="50.648554" y="251.806973" style="stroke: #000000; stroke-width: 0.8"/>
       </g>
      </g>
     </g>
     <g id="xtick_26">
      <g id="line2d_49">
       <g>
        <use xlink:href="#mca8902a6e1" x="66.237747" y="251.806973" style="stroke: #000000; stroke-width: 0.8"/>
       </g>
      </g>
     </g>
     <g id="xtick_27">
      <g id="line2d_50">
       <g>
        <use xlink:href="#mca8902a6e1" x="81.826941" y="251.806973" style="stroke: #000000; stroke-width: 0.8"/>
       </g>
      </g>
     </g>
     <g id="xtick_28">
      <g id="line2d_51">
       <g>
        <use xlink:href="#mca8902a6e1" x="93.518836" y="251.806973" style="stroke: #000000; stroke-width: 0.8"/>
       </g>
      </g>
     </g>
    </g>
    <g id="matplotlib.axis_12">
     <g id="ytick_24">
      <g id="line2d_52">
       <g>
        <use xlink:href="#m009c0b6447" x="32.136387" y="251.806973" style="stroke: #000000; stroke-width: 0.8"/>
       </g>
      </g>
     </g>
     <g id="ytick_25">
      <g id="line2d_53">
       <g>
        <use xlink:href="#m009c0b6447" x="32.136387" y="235.730617" style="stroke: #000000; stroke-width: 0.8"/>
       </g>
      </g>
     </g>
     <g id="ytick_26">
      <g id="line2d_54">
       <g>
        <use xlink:href="#m009c0b6447" x="32.136387" y="219.654261" style="stroke: #000000; stroke-width: 0.8"/>
       </g>
      </g>
     </g>
     <g id="ytick_27">
      <g id="line2d_55">
       <g>
        <use xlink:href="#m009c0b6447" x="32.136387" y="203.577905" style="stroke: #000000; stroke-width: 0.8"/>
       </g>
      </g>
     </g>
     <g id="ytick_28">
      <g id="line2d_56">
       <g>
        <use xlink:href="#m009c0b6447" x="32.136387" y="187.50155" style="stroke: #000000; stroke-width: 0.8"/>
       </g>
      </g>
     </g>
    </g>
    <g id="patch_18">
     <path d="M 32.136387 251.806973 
L 32.136387 187.50155 
" style="fill: none; stroke: #000000; stroke-width: 0.8; stroke-linejoin: miter; stroke-linecap: square"/>
    </g>
    <g id="patch_19">
     <path d="M 32.136387 251.806973 
L 96.44181 251.806973 
" style="fill: none; stroke: #000000; stroke-width: 0.8; stroke-linejoin: miter; stroke-linecap: square"/>
    </g>
    <g id="PathCollection_9">
     <defs>
      <path id="C4_0_9940479461" d="M 0 2.236068 
C 0.593012 2.236068 1.161816 2.000462 1.581139 1.581139 
C 2.000462 1.161816 2.236068 0.593012 2.236068 -0 
C 2.236068 -0.593012 2.000462 -1.161816 1.581139 -1.581139 
C 1.161816 -2.000462 0.593012 -2.236068 0 -2.236068 
C -0.593012 -2.236068 -1.161816 -2.000462 -1.581139 -1.581139 
C -2.000462 -1.161816 -2.236068 -0.593012 -2.236068 0 
C -2.236068 0.593012 -2.000462 1.161816 -1.581139 1.581139 
C -1.161816 2.000462 -0.593012 2.236068 0 2.236068 
z
"/>
     </defs>
     <g clip-path="url(#pfea60b5038)">
      <use xlink:href="#C4_0_9940479461" x="35.05936" y="234.455924" style="fill: #033198; stroke: #000000; stroke-width: 0.75"/>
     </g>
     <g clip-path="url(#pfea60b5038)">
      <use xlink:href="#C4_0_9940479461" x="50.648554" y="233.172482" style="fill: #399dc7; stroke: #000000; stroke-width: 0.75"/>
     </g>
     <g clip-path="url(#pfea60b5038)">
      <use xlink:href="#C4_0_9940479461" x="66.237747" y="231.571102" style="fill: #c1eac2; stroke: #000000; stroke-width: 0.75"/>
     </g>
     <g clip-path="url(#pfea60b5038)">
      <use xlink:href="#C4_0_9940479461" x="81.826941" y="229.764923" style="fill: #b58b31; stroke: #000000; stroke-width: 0.75"/>
     </g>
     <g clip-path="url(#pfea60b5038)">
      <use xlink:href="#C4_0_9940479461" x="93.518836" y="227.731803" style="fill: #7e1700; stroke: #000000; stroke-width: 0.75"/>
     </g>
    </g>
    <g id="PathCollection_10">
     <path d="M 35.05936 217.417826 
L 32.823292 221.889962 
L 37.295428 221.889962 
z
" clip-path="url(#pfea60b5038)" style="fill: #033198; stroke: #000000; stroke-width: 0.75"/>
     <path d="M 50.648554 217.167176 
L 48.412486 221.639312 
L 52.884622 221.639312 
z
" clip-path="url(#pfea60b5038)" style="fill: #399dc7; stroke: #000000; stroke-width: 0.75"/>
     <path d="M 66.237747 226.758956 
L 64.001679 231.231092 
L 68.473815 231.231092 
z
" clip-path="url(#pfea60b5038)" style="fill: #c1eac2; stroke: #000000; stroke-width: 0.75"/>
     <path d="M 81.826941 227.071821 
L 79.590873 231.543957 
L 84.063009 231.543957 
z
" clip-path="url(#pfea60b5038)" style="fill: #b58b31; stroke: #000000; stroke-width: 0.75"/>
     <path d="M 93.518836 225.996692 
L 91.282768 230.468828 
L 95.754904 230.468828 
z
" clip-path="url(#pfea60b5038)" style="fill: #7e1700; stroke: #000000; stroke-width: 0.75"/>
    </g>
   </g>
   <g id="axes_7">
    <g id="patch_20">
     <path d="M 32.136387 91.043415 
L 96.44181 91.043415 
L 96.44181 26.737992 
L 32.136387 26.737992 
L 32.136387 91.043415 
z
" style="fill: none"/>
    </g>
    <g id="PolyCollection_11">
     <path d="M 35.05936 86.347287 
L 35.05936 84.661144 
L 50.648554 85.334293 
L 66.237747 79.448976 
L 81.826941 75.845486 
L 93.518836 71.067131 
L 93.518836 72.778804 
L 93.518836 72.778804 
L 81.826941 77.289196 
L 66.237747 80.751289 
L 50.648554 86.045506 
L 35.05936 86.347287 
z
" clip-path="url(#pe5b35465d9)" style="fill-opacity: 0.5"/>
    </g>
    <g id="PolyCollection_12">
     <path d="M 35.05936 81.856111 
L 35.05936 79.058339 
L 50.648554 82.581098 
L 66.237747 79.042247 
L 81.826941 75.712567 
L 93.518836 71.190512 
L 93.518836 72.634269 
L 93.518836 72.634269 
L 81.826941 76.795942 
L 66.237747 80.105592 
L 50.648554 83.396061 
L 35.05936 81.856111 
z
" clip-path="url(#pe5b35465d9)" style="fill-opacity: 0.5"/>
    </g>
    <g id="matplotlib.axis_13">
     <g id="xtick_29">
      <g id="line2d_57">
       <g>
        <use xlink:href="#mca8902a6e1" x="35.05936" y="91.043415" style="stroke: #000000; stroke-width: 0.8"/>
       </g>
      </g>
     </g>
     <g id="xtick_30">
      <g id="line2d_58">
       <g>
        <use xlink:href="#mca8902a6e1" x="50.648554" y="91.043415" style="stroke: #000000; stroke-width: 0.8"/>
       </g>
      </g>
     </g>
     <g id="xtick_31">
      <g id="line2d_59">
       <g>
        <use xlink:href="#mca8902a6e1" x="66.237747" y="91.043415" style="stroke: #000000; stroke-width: 0.8"/>
       </g>
      </g>
     </g>
     <g id="xtick_32">
      <g id="line2d_60">
       <g>
        <use xlink:href="#mca8902a6e1" x="81.826941" y="91.043415" style="stroke: #000000; stroke-width: 0.8"/>
       </g>
      </g>
     </g>
     <g id="xtick_33">
      <g id="line2d_61">
       <g>
        <use xlink:href="#mca8902a6e1" x="93.518836" y="91.043415" style="stroke: #000000; stroke-width: 0.8"/>
       </g>
      </g>
     </g>
    </g>
    <g id="matplotlib.axis_14">
     <g id="ytick_29">
      <g id="line2d_62">
       <g>
        <use xlink:href="#m009c0b6447" x="32.136387" y="91.043415" style="stroke: #000000; stroke-width: 0.8"/>
       </g>
      </g>
     </g>
     <g id="ytick_30">
      <g id="line2d_63">
       <g>
        <use xlink:href="#m009c0b6447" x="32.136387" y="74.967059" style="stroke: #000000; stroke-width: 0.8"/>
       </g>
      </g>
     </g>
     <g id="ytick_31">
      <g id="line2d_64">
       <g>
        <use xlink:href="#m009c0b6447" x="32.136387" y="58.890704" style="stroke: #000000; stroke-width: 0.8"/>
       </g>
      </g>
     </g>
     <g id="ytick_32">
      <g id="line2d_65">
       <g>
        <use xlink:href="#m009c0b6447" x="32.136387" y="42.814348" style="stroke: #000000; stroke-width: 0.8"/>
       </g>
      </g>
     </g>
     <g id="ytick_33">
      <g id="line2d_66">
       <g>
        <use xlink:href="#m009c0b6447" x="32.136387" y="26.737992" style="stroke: #000000; stroke-width: 0.8"/>
       </g>
      </g>
     </g>
    </g>
    <g id="patch_21">
     <path d="M 32.136387 91.043415 
L 32.136387 26.737992 
" style="fill: none; stroke: #000000; stroke-width: 0.8; stroke-linejoin: miter; stroke-linecap: square"/>
    </g>
    <g id="patch_22">
     <path d="M 32.136387 91.043415 
L 96.44181 91.043415 
" style="fill: none; stroke: #000000; stroke-width: 0.8; stroke-linejoin: miter; stroke-linecap: square"/>
    </g>
    <g id="PathCollection_11">
     <defs>
      <path id="C5_0_a0b1fa166f" d="M 0 2.236068 
C 0.593012 2.236068 1.161816 2.000462 1.581139 1.581139 
C 2.000462 1.161816 2.236068 0.593012 2.236068 -0 
C 2.236068 -0.593012 2.000462 -1.161816 1.581139 -1.581139 
C 1.161816 -2.000462 0.593012 -2.236068 0 -2.236068 
C -0.593012 -2.236068 -1.161816 -2.000462 -1.581139 -1.581139 
C -2.000462 -1.161816 -2.236068 -0.593012 -2.236068 0 
C -2.236068 0.593012 -2.000462 1.161816 -1.581139 1.581139 
C -1.161816 2.000462 -0.593012 2.236068 0 2.236068 
z
"/>
     </defs>
     <g clip-path="url(#pe5b35465d9)">
      <use xlink:href="#C5_0_a0b1fa166f" x="35.05936" y="85.442375" style="fill: #033198; stroke: #000000; stroke-width: 0.75"/>
     </g>
     <g clip-path="url(#pe5b35465d9)">
      <use xlink:href="#C5_0_a0b1fa166f" x="50.648554" y="85.670789" style="fill: #399dc7; stroke: #000000; stroke-width: 0.75"/>
     </g>
     <g clip-path="url(#pe5b35465d9)">
      <use xlink:href="#C5_0_a0b1fa166f" x="66.237747" y="80.127425" style="fill: #c1eac2; stroke: #000000; stroke-width: 0.75"/>
     </g>
     <g clip-path="url(#pe5b35465d9)">
      <use xlink:href="#C5_0_a0b1fa166f" x="81.826941" y="76.541079" style="fill: #b58b31; stroke: #000000; stroke-width: 0.75"/>
     </g>
     <g clip-path="url(#pe5b35465d9)">
      <use xlink:href="#C5_0_a0b1fa166f" x="93.518836" y="71.943886" style="fill: #7e1700; stroke: #000000; stroke-width: 0.75"/>
     </g>
    </g>
    <g id="PathCollection_12">
     <path d="M 35.05936 78.162761 
L 32.823292 82.634897 
L 37.295428 82.634897 
z
" clip-path="url(#pe5b35465d9)" style="fill: #033198; stroke: #000000; stroke-width: 0.75"/>
     <path d="M 50.648554 80.753449 
L 48.412486 85.225585 
L 52.884622 85.225585 
z
" clip-path="url(#pe5b35465d9)" style="fill: #399dc7; stroke: #000000; stroke-width: 0.75"/>
     <path d="M 66.237747 77.367288 
L 64.001679 81.839424 
L 68.473815 81.839424 
z
" clip-path="url(#pe5b35465d9)" style="fill: #c1eac2; stroke: #000000; stroke-width: 0.75"/>
     <path d="M 81.826941 74.040394 
L 79.590873 78.51253 
L 84.063009 78.51253 
z
" clip-path="url(#pe5b35465d9)" style="fill: #b58b31; stroke: #000000; stroke-width: 0.75"/>
     <path d="M 93.518836 69.648994 
L 91.282768 74.12113 
L 95.754904 74.12113 
z
" clip-path="url(#pe5b35465d9)" style="fill: #7e1700; stroke: #000000; stroke-width: 0.75"/>
    </g>
   </g>
   <g id="axes_8">
    <g id="patch_23">
     <path d="M 192.899944 171.425194 
L 257.205367 171.425194 
L 257.205367 107.119771 
L 192.899944 107.119771 
L 192.899944 171.425194 
z
" style="fill: none"/>
    </g>
    <g id="PolyCollection_13">
     <path d="M 195.822918 130.810614 
L 195.822918 127.784513 
L 211.412111 130.660745 
L 227.001305 137.085855 
L 242.590498 141.784455 
L 254.282393 149.739009 
L 254.282393 151.530624 
L 254.282393 151.530624 
L 242.590498 143.696995 
L 227.001305 138.354856 
L 211.412111 132.307929 
L 195.822918 130.810614 
z
" clip-path="url(#p60d8e6fa57)" style="fill-opacity: 0.5"/>
    </g>
    <g id="PolyCollection_14">
     <path d="M 195.822918 151.631892 
L 195.822918 148.056895 
L 211.412111 146.497364 
L 227.001305 140.534334 
L 242.590498 143.488835 
L 254.282393 149.002277 
L 254.282393 150.707762 
L 254.282393 150.707762 
L 242.590498 145.373263 
L 227.001305 142.307333 
L 211.412111 148.66852 
L 195.822918 151.631892 
z
" clip-path="url(#p60d8e6fa57)" style="fill-opacity: 0.5"/>
    </g>
    <g id="matplotlib.axis_15">
     <g id="xtick_34">
      <g id="line2d_67">
       <g>
        <use xlink:href="#mca8902a6e1" x="195.822918" y="171.425194" style="stroke: #000000; stroke-width: 0.8"/>
       </g>
      </g>
     </g>
     <g id="xtick_35">
      <g id="line2d_68">
       <g>
        <use xlink:href="#mca8902a6e1" x="211.412111" y="171.425194" style="stroke: #000000; stroke-width: 0.8"/>
       </g>
      </g>
     </g>
     <g id="xtick_36">
      <g id="line2d_69">
       <g>
        <use xlink:href="#mca8902a6e1" x="227.001305" y="171.425194" style="stroke: #000000; stroke-width: 0.8"/>
       </g>
      </g>
     </g>
     <g id="xtick_37">
      <g id="line2d_70">
       <g>
        <use xlink:href="#mca8902a6e1" x="242.590498" y="171.425194" style="stroke: #000000; stroke-width: 0.8"/>
       </g>
      </g>
     </g>
     <g id="xtick_38">
      <g id="line2d_71">
       <g>
        <use xlink:href="#mca8902a6e1" x="254.282393" y="171.425194" style="stroke: #000000; stroke-width: 0.8"/>
       </g>
      </g>
     </g>
    </g>
    <g id="matplotlib.axis_16">
     <g id="ytick_34">
      <g id="line2d_72">
       <g>
        <use xlink:href="#m009c0b6447" x="192.899944" y="171.425194" style="stroke: #000000; stroke-width: 0.8"/>
       </g>
      </g>
     </g>
     <g id="ytick_35">
      <g id="line2d_73">
       <g>
        <use xlink:href="#m009c0b6447" x="192.899944" y="155.348838" style="stroke: #000000; stroke-width: 0.8"/>
       </g>
      </g>
     </g>
     <g id="ytick_36">
      <g id="line2d_74">
       <g>
        <use xlink:href="#m009c0b6447" x="192.899944" y="139.272482" style="stroke: #000000; stroke-width: 0.8"/>
       </g>
      </g>
     </g>
     <g id="ytick_37">
      <g id="line2d_75">
       <g>
        <use xlink:href="#m009c0b6447" x="192.899944" y="123.196127" style="stroke: #000000; stroke-width: 0.8"/>
       </g>
      </g>
     </g>
     <g id="ytick_38">
      <g id="line2d_76">
       <g>
        <use xlink:href="#m009c0b6447" x="192.899944" y="107.119771" style="stroke: #000000; stroke-width: 0.8"/>
       </g>
      </g>
     </g>
    </g>
    <g id="patch_24">
     <path d="M 192.899944 171.425194 
L 192.899944 107.119771 
" style="fill: none; stroke: #000000; stroke-width: 0.8; stroke-linejoin: miter; stroke-linecap: square"/>
    </g>
    <g id="patch_25">
     <path d="M 192.899944 171.425194 
L 257.205367 171.425194 
" style="fill: none; stroke: #000000; stroke-width: 0.8; stroke-linejoin: miter; stroke-linecap: square"/>
    </g>
    <g id="PathCollection_13">
     <defs>
      <path id="C6_0_136ca60d5d" d="M 0 2.236068 
C 0.593012 2.236068 1.161816 2.000462 1.581139 1.581139 
C 2.000462 1.161816 2.236068 0.593012 2.236068 -0 
C 2.236068 -0.593012 2.000462 -1.161816 1.581139 -1.581139 
C 1.161816 -2.000462 0.593012 -2.236068 0 -2.236068 
C -0.593012 -2.236068 -1.161816 -2.000462 -1.581139 -1.581139 
C -2.000462 -1.161816 -2.236068 -0.593012 -2.236068 0 
C -2.236068 0.593012 -2.000462 1.161816 -1.581139 1.581139 
C -1.161816 2.000462 -0.593012 2.236068 0 2.236068 
z
"/>
     </defs>
     <g clip-path="url(#p60d8e6fa57)">
      <use xlink:href="#C6_0_136ca60d5d" x="195.822918" y="129.270477" style="fill: #033198; stroke: #000000; stroke-width: 0.75"/>
     </g>
     <g clip-path="url(#p60d8e6fa57)">
      <use xlink:href="#C6_0_136ca60d5d" x="211.412111" y="131.454894" style="fill: #399dc7; stroke: #000000; stroke-width: 0.75"/>
     </g>
     <g clip-path="url(#p60d8e6fa57)">
      <use xlink:href="#C6_0_136ca60d5d" x="227.001305" y="137.716826" style="fill: #c1eac2; stroke: #000000; stroke-width: 0.75"/>
     </g>
     <g clip-path="url(#p60d8e6fa57)">
      <use xlink:href="#C6_0_136ca60d5d" x="242.590498" y="142.707371" style="fill: #b58b31; stroke: #000000; stroke-width: 0.75"/>
     </g>
     <g clip-path="url(#p60d8e6fa57)">
      <use xlink:href="#C6_0_136ca60d5d" x="254.282393" y="150.589973" style="fill: #7e1700; stroke: #000000; stroke-width: 0.75"/>
     </g>
    </g>
    <g id="PathCollection_14">
     <path d="M 195.822918 147.681368 
L 193.58685 152.153504 
L 198.058986 152.153504 
z
" clip-path="url(#p60d8e6fa57)" style="fill: #033198; stroke: #000000; stroke-width: 0.75"/>
     <path d="M 211.412111 145.34133 
L 209.176043 149.813466 
L 213.648179 149.813466 
z
" clip-path="url(#p60d8e6fa57)" style="fill: #399dc7; stroke: #000000; stroke-width: 0.75"/>
     <path d="M 227.001305 139.135711 
L 224.765237 143.607847 
L 229.237373 143.607847 
z
" clip-path="url(#p60d8e6fa57)" style="fill: #c1eac2; stroke: #000000; stroke-width: 0.75"/>
     <path d="M 242.590498 142.149739 
L 240.35443 146.621875 
L 244.826566 146.621875 
z
" clip-path="url(#p60d8e6fa57)" style="fill: #b58b31; stroke: #000000; stroke-width: 0.75"/>
     <path d="M 254.282393 147.61627 
L 252.046325 152.088406 
L 256.518461 152.088406 
z
" clip-path="url(#p60d8e6fa57)" style="fill: #7e1700; stroke: #000000; stroke-width: 0.75"/>
    </g>
   </g>
   <g id="axes_9">
    <g id="patch_26">
     <path d="M 192.899944 251.806973 
L 257.205367 251.806973 
L 257.205367 187.50155 
L 192.899944 187.50155 
L 192.899944 251.806973 
z
" style="fill: none"/>
    </g>
    <g id="PolyCollection_15">
     <path d="M 195.822918 246.830161 
L 195.822918 245.231368 
L 211.412111 245.465275 
L 227.001305 240.132119 
L 242.590498 236.27954 
L 254.282393 230.860374 
L 254.282393 232.367716 
L 254.282393 232.367716 
L 242.590498 237.436639 
L 227.001305 241.336146 
L 211.412111 246.285479 
L 195.822918 246.830161 
z
" clip-path="url(#pdde2ffa958)" style="fill-opacity: 0.5"/>
    </g>
    <g id="PolyCollection_16">
     <path d="M 195.822918 242.619669 
L 195.822918 239.821897 
L 211.412111 243.344655 
L 227.001305 239.805804 
L 242.590498 236.476125 
L 254.282393 231.95407 
L 254.282393 233.397827 
L 254.282393 233.397827 
L 242.590498 237.5595 
L 227.001305 240.869149 
L 211.412111 244.159618 
L 195.822918 242.619669 
z
" clip-path="url(#pdde2ffa958)" style="fill-opacity: 0.5"/>
    </g>
    <g id="matplotlib.axis_17">
     <g id="xtick_39">
      <g id="line2d_77">
       <g>
        <use xlink:href="#mca8902a6e1" x="195.822918" y="251.806973" style="stroke: #000000; stroke-width: 0.8"/>
       </g>
      </g>
     </g>
     <g id="xtick_40">
      <g id="line2d_78">
       <g>
        <use xlink:href="#mca8902a6e1" x="211.412111" y="251.806973" style="stroke: #000000; stroke-width: 0.8"/>
       </g>
      </g>
     </g>
     <g id="xtick_41">
      <g id="line2d_79">
       <g>
        <use xlink:href="#mca8902a6e1" x="227.001305" y="251.806973" style="stroke: #000000; stroke-width: 0.8"/>
       </g>
      </g>
     </g>
     <g id="xtick_42">
      <g id="line2d_80">
       <g>
        <use xlink:href="#mca8902a6e1" x="242.590498" y="251.806973" style="stroke: #000000; stroke-width: 0.8"/>
       </g>
      </g>
     </g>
     <g id="xtick_43">
      <g id="line2d_81">
       <g>
        <use xlink:href="#mca8902a6e1" x="254.282393" y="251.806973" style="stroke: #000000; stroke-width: 0.8"/>
       </g>
      </g>
     </g>
    </g>
    <g id="matplotlib.axis_18">
     <g id="ytick_39">
      <g id="line2d_82">
       <g>
        <use xlink:href="#m009c0b6447" x="192.899944" y="251.806973" style="stroke: #000000; stroke-width: 0.8"/>
       </g>
      </g>
     </g>
     <g id="ytick_40">
      <g id="line2d_83">
       <g>
        <use xlink:href="#m009c0b6447" x="192.899944" y="235.730617" style="stroke: #000000; stroke-width: 0.8"/>
       </g>
      </g>
     </g>
     <g id="ytick_41">
      <g id="line2d_84">
       <g>
        <use xlink:href="#m009c0b6447" x="192.899944" y="219.654261" style="stroke: #000000; stroke-width: 0.8"/>
       </g>
      </g>
     </g>
     <g id="ytick_42">
      <g id="line2d_85">
       <g>
        <use xlink:href="#m009c0b6447" x="192.899944" y="203.577905" style="stroke: #000000; stroke-width: 0.8"/>
       </g>
      </g>
     </g>
     <g id="ytick_43">
      <g id="line2d_86">
       <g>
        <use xlink:href="#m009c0b6447" x="192.899944" y="187.50155" style="stroke: #000000; stroke-width: 0.8"/>
       </g>
      </g>
     </g>
    </g>
    <g id="patch_27">
     <path d="M 192.899944 251.806973 
L 192.899944 187.50155 
" style="fill: none; stroke: #000000; stroke-width: 0.8; stroke-linejoin: miter; stroke-linecap: square"/>
    </g>
    <g id="patch_28">
     <path d="M 192.899944 251.806973 
L 257.205367 251.806973 
" style="fill: none; stroke: #000000; stroke-width: 0.8; stroke-linejoin: miter; stroke-linecap: square"/>
    </g>
    <g id="PathCollection_15">
     <defs>
      <path id="C7_0_c61f25a59d" d="M 0 2.236068 
C 0.593012 2.236068 1.161816 2.000462 1.581139 1.581139 
C 2.000462 1.161816 2.236068 0.593012 2.236068 -0 
C 2.236068 -0.593012 2.000462 -1.161816 1.581139 -1.581139 
C 1.161816 -2.000462 0.593012 -2.236068 0 -2.236068 
C -0.593012 -2.236068 -1.161816 -2.000462 -1.581139 -1.581139 
C -2.000462 -1.161816 -2.236068 -0.593012 -2.236068 0 
C -2.236068 0.593012 -2.000462 1.161816 -1.581139 1.581139 
C -1.161816 2.000462 -0.593012 2.236068 0 2.236068 
z
"/>
     </defs>
     <g clip-path="url(#pdde2ffa958)">
      <use xlink:href="#C7_0_c61f25a59d" x="195.822918" y="246.03475" style="fill: #033198; stroke: #000000; stroke-width: 0.75"/>
     </g>
     <g clip-path="url(#pdde2ffa958)">
      <use xlink:href="#C7_0_c61f25a59d" x="211.412111" y="245.887112" style="fill: #399dc7; stroke: #000000; stroke-width: 0.75"/>
     </g>
     <g clip-path="url(#pdde2ffa958)">
      <use xlink:href="#C7_0_c61f25a59d" x="227.001305" y="240.736906" style="fill: #c1eac2; stroke: #000000; stroke-width: 0.75"/>
     </g>
     <g clip-path="url(#pdde2ffa958)">
      <use xlink:href="#C7_0_c61f25a59d" x="242.590498" y="236.816411" style="fill: #b58b31; stroke: #000000; stroke-width: 0.75"/>
     </g>
     <g clip-path="url(#pdde2ffa958)">
      <use xlink:href="#C7_0_c61f25a59d" x="254.282393" y="231.676006" style="fill: #7e1700; stroke: #000000; stroke-width: 0.75"/>
     </g>
    </g>
    <g id="PathCollection_16">
     <path d="M 195.822918 238.926319 
L 193.58685 243.398455 
L 198.058986 243.398455 
z
" clip-path="url(#pdde2ffa958)" style="fill: #033198; stroke: #000000; stroke-width: 0.75"/>
     <path d="M 211.412111 241.517007 
L 209.176043 245.989143 
L 213.648179 245.989143 
z
" clip-path="url(#pdde2ffa958)" style="fill: #399dc7; stroke: #000000; stroke-width: 0.75"/>
     <path d="M 227.001305 238.130846 
L 224.765237 242.602981 
L 229.237373 242.602981 
z
" clip-path="url(#pdde2ffa958)" style="fill: #c1eac2; stroke: #000000; stroke-width: 0.75"/>
     <path d="M 242.590498 234.803952 
L 240.35443 239.276088 
L 244.826566 239.276088 
z
" clip-path="url(#pdde2ffa958)" style="fill: #b58b31; stroke: #000000; stroke-width: 0.75"/>
     <path d="M 254.282393 230.412551 
L 252.046325 234.884687 
L 256.518461 234.884687 
z
" clip-path="url(#pdde2ffa958)" style="fill: #7e1700; stroke: #000000; stroke-width: 0.75"/>
    </g>
   </g>
   <g id="axes_10">
    <g id="patch_29">
     <path d="M 192.899944 91.043415 
L 257.205367 91.043415 
L 257.205367 26.737992 
L 192.899944 26.737992 
L 192.899944 91.043415 
z
" style="fill: none"/>
    </g>
    <g id="PolyCollection_17">
     <path d="M 195.822918 76.018236 
L 195.822918 73.265426 
L 211.412111 71.707099 
L 227.001305 70.832483 
L 242.590498 69.656508 
L 254.282393 66.83298 
L 254.282393 68.609614 
L 254.282393 68.609614 
L 242.590498 71.08618 
L 227.001305 72.198859 
L 211.412111 73.51379 
L 195.822918 76.018236 
z
" clip-path="url(#pe9a43ae2a2)" style="fill-opacity: 0.5"/>
    </g>
    <g id="PolyCollection_18">
     <path d="M 195.822918 60.065742 
L 195.822918 57.744223 
L 211.412111 57.605515 
L 227.001305 67.494345 
L 242.590498 67.850353 
L 254.282393 66.583047 
L 254.282393 68.295335 
L 254.282393 68.295335 
L 242.590498 69.192243 
L 227.001305 68.929352 
L 211.412111 59.664645 
L 195.822918 60.065742 
z
" clip-path="url(#pe9a43ae2a2)" style="fill-opacity: 0.5"/>
    </g>
    <g id="matplotlib.axis_19">
     <g id="xtick_44">
      <g id="line2d_87">
       <defs>
        <path id="m1cace2ce08" d="M 0 0 
L 0 -3.5 
" style="stroke: #000000; stroke-width: 0.8"/>
       </defs>
       <g>
        <use xlink:href="#m1cace2ce08" x="195.822918" y="26.737992" style="stroke: #000000; stroke-width: 0.8"/>
       </g>
      </g>
      <g id="text_9">
       <!-- $\mathdefault{18}$ -->
       <g transform="translate(193.022918 18.744242) scale(0.05 -0.05)">
        <defs>
         <path id="ArialMT-38" d="M 1131 2484 
Q 781 2613 612 2850 
Q 444 3088 444 3419 
Q 444 3919 803 4259 
Q 1163 4600 1759 4600 
Q 2359 4600 2725 4251 
Q 3091 3903 3091 3403 
Q 3091 3084 2923 2848 
Q 2756 2613 2416 2484 
Q 2838 2347 3058 2040 
Q 3278 1734 3278 1309 
Q 3278 722 2862 322 
Q 2447 -78 1769 -78 
Q 1091 -78 675 323 
Q 259 725 259 1325 
Q 259 1772 486 2073 
Q 713 2375 1131 2484 
z
M 1019 3438 
Q 1019 3113 1228 2906 
Q 1438 2700 1772 2700 
Q 2097 2700 2305 2904 
Q 2513 3109 2513 3406 
Q 2513 3716 2298 3927 
Q 2084 4138 1766 4138 
Q 1444 4138 1231 3931 
Q 1019 3725 1019 3438 
z
M 838 1322 
Q 838 1081 952 856 
Q 1066 631 1291 507 
Q 1516 384 1775 384 
Q 2178 384 2440 643 
Q 2703 903 2703 1303 
Q 2703 1709 2433 1975 
Q 2163 2241 1756 2241 
Q 1359 2241 1098 1978 
Q 838 1716 838 1322 
z
" transform="scale(0.015625)"/>
        </defs>
        <use xlink:href="#ArialMT-31" transform="translate(0 0.125)"/>
        <use xlink:href="#ArialMT-38" transform="translate(55.615234 0.125)"/>
       </g>
      </g>
     </g>
     <g id="xtick_45">
      <g id="line2d_88">
       <g>
        <use xlink:href="#m1cace2ce08" x="211.412111" y="26.737992" style="stroke: #000000; stroke-width: 0.8"/>
       </g>
      </g>
      <g id="text_10">
       <!-- $\mathdefault{22}$ -->
       <g transform="translate(208.612111 18.744242) scale(0.05 -0.05)">
        <defs>
         <path id="ArialMT-32" d="M 3222 541 
L 3222 0 
L 194 0 
Q 188 203 259 391 
Q 375 700 629 1000 
Q 884 1300 1366 1694 
Q 2113 2306 2375 2664 
Q 2638 3022 2638 3341 
Q 2638 3675 2398 3904 
Q 2159 4134 1775 4134 
Q 1369 4134 1125 3890 
Q 881 3647 878 3216 
L 300 3275 
Q 359 3922 746 4261 
Q 1134 4600 1788 4600 
Q 2447 4600 2831 4234 
Q 3216 3869 3216 3328 
Q 3216 3053 3103 2787 
Q 2991 2522 2730 2228 
Q 2469 1934 1863 1422 
Q 1356 997 1212 845 
Q 1069 694 975 541 
L 3222 541 
z
" transform="scale(0.015625)"/>
        </defs>
        <use xlink:href="#ArialMT-32" transform="translate(0 0.125)"/>
        <use xlink:href="#ArialMT-32" transform="translate(55.615234 0.125)"/>
       </g>
      </g>
     </g>
     <g id="xtick_46">
      <g id="line2d_89">
       <g>
        <use xlink:href="#m1cace2ce08" x="227.001305" y="26.737992" style="stroke: #000000; stroke-width: 0.8"/>
       </g>
      </g>
      <g id="text_11">
       <!-- $\mathdefault{26}$ -->
       <g transform="translate(224.201305 18.744242) scale(0.05 -0.05)">
        <defs>
         <path id="ArialMT-36" d="M 3184 3459 
L 2625 3416 
Q 2550 3747 2413 3897 
Q 2184 4138 1850 4138 
Q 1581 4138 1378 3988 
Q 1113 3794 959 3422 
Q 806 3050 800 2363 
Q 1003 2672 1297 2822 
Q 1591 2972 1913 2972 
Q 2475 2972 2870 2558 
Q 3266 2144 3266 1488 
Q 3266 1056 3080 686 
Q 2894 316 2569 119 
Q 2244 -78 1831 -78 
Q 1128 -78 684 439 
Q 241 956 241 2144 
Q 241 3472 731 4075 
Q 1159 4600 1884 4600 
Q 2425 4600 2770 4297 
Q 3116 3994 3184 3459 
z
M 888 1484 
Q 888 1194 1011 928 
Q 1134 663 1356 523 
Q 1578 384 1822 384 
Q 2178 384 2434 671 
Q 2691 959 2691 1453 
Q 2691 1928 2437 2201 
Q 2184 2475 1800 2475 
Q 1419 2475 1153 2201 
Q 888 1928 888 1484 
z
" transform="scale(0.015625)"/>
        </defs>
        <use xlink:href="#ArialMT-32" transform="translate(0 0.125)"/>
        <use xlink:href="#ArialMT-36" transform="translate(55.615234 0.125)"/>
       </g>
      </g>
     </g>
     <g id="xtick_47">
      <g id="line2d_90">
       <g>
        <use xlink:href="#m1cace2ce08" x="242.590498" y="26.737992" style="stroke: #000000; stroke-width: 0.8"/>
       </g>
      </g>
      <g id="text_12">
       <!-- $\mathdefault{30}$ -->
       <g transform="translate(239.790498 18.744242) scale(0.05 -0.05)">
        <defs>
         <path id="ArialMT-33" d="M 269 1209 
L 831 1284 
Q 928 806 1161 595 
Q 1394 384 1728 384 
Q 2125 384 2398 659 
Q 2672 934 2672 1341 
Q 2672 1728 2419 1979 
Q 2166 2231 1775 2231 
Q 1616 2231 1378 2169 
L 1441 2663 
Q 1497 2656 1531 2656 
Q 1891 2656 2178 2843 
Q 2466 3031 2466 3422 
Q 2466 3731 2256 3934 
Q 2047 4138 1716 4138 
Q 1388 4138 1169 3931 
Q 950 3725 888 3313 
L 325 3413 
Q 428 3978 793 4289 
Q 1159 4600 1703 4600 
Q 2078 4600 2393 4439 
Q 2709 4278 2876 4000 
Q 3044 3722 3044 3409 
Q 3044 3113 2884 2869 
Q 2725 2625 2413 2481 
Q 2819 2388 3044 2092 
Q 3269 1797 3269 1353 
Q 3269 753 2831 336 
Q 2394 -81 1725 -81 
Q 1122 -81 723 278 
Q 325 638 269 1209 
z
" transform="scale(0.015625)"/>
         <path id="ArialMT-30" d="M 266 2259 
Q 266 3072 433 3567 
Q 600 4063 929 4331 
Q 1259 4600 1759 4600 
Q 2128 4600 2406 4451 
Q 2684 4303 2865 4023 
Q 3047 3744 3150 3342 
Q 3253 2941 3253 2259 
Q 3253 1453 3087 958 
Q 2922 463 2592 192 
Q 2263 -78 1759 -78 
Q 1097 -78 719 397 
Q 266 969 266 2259 
z
M 844 2259 
Q 844 1131 1108 757 
Q 1372 384 1759 384 
Q 2147 384 2411 759 
Q 2675 1134 2675 2259 
Q 2675 3391 2411 3762 
Q 2147 4134 1753 4134 
Q 1366 4134 1134 3806 
Q 844 3388 844 2259 
z
" transform="scale(0.015625)"/>
        </defs>
        <use xlink:href="#ArialMT-33" transform="translate(0 0.125)"/>
        <use xlink:href="#ArialMT-30" transform="translate(55.615234 0.125)"/>
       </g>
      </g>
     </g>
     <g id="xtick_48">
      <g id="line2d_91">
       <g>
        <use xlink:href="#m1cace2ce08" x="254.282393" y="26.737992" style="stroke: #000000; stroke-width: 0.8"/>
       </g>
      </g>
      <g id="text_13">
       <!-- $\mathdefault{33}$ -->
       <g transform="translate(251.482393 18.744242) scale(0.05 -0.05)">
        <use xlink:href="#ArialMT-33" transform="translate(0 0.125)"/>
        <use xlink:href="#ArialMT-33" transform="translate(55.615234 0.125)"/>
       </g>
      </g>
     </g>
     <g id="text_14">
      <!-- Temperature (C) -->
      <g transform="translate(198.177578 11.165336) scale(0.07 -0.07)">
       <defs>
        <path id="ArialMT-54" d="M 1659 0 
L 1659 4041 
L 150 4041 
L 150 4581 
L 3781 4581 
L 3781 4041 
L 2266 4041 
L 2266 0 
L 1659 0 
z
" transform="scale(0.015625)"/>
        <path id="ArialMT-6d" d="M 422 0 
L 422 3319 
L 925 3319 
L 925 2853 
Q 1081 3097 1340 3245 
Q 1600 3394 1931 3394 
Q 2300 3394 2536 3241 
Q 2772 3088 2869 2813 
Q 3263 3394 3894 3394 
Q 4388 3394 4653 3120 
Q 4919 2847 4919 2278 
L 4919 0 
L 4359 0 
L 4359 2091 
Q 4359 2428 4304 2576 
Q 4250 2725 4106 2815 
Q 3963 2906 3769 2906 
Q 3419 2906 3187 2673 
Q 2956 2441 2956 1928 
L 2956 0 
L 2394 0 
L 2394 2156 
Q 2394 2531 2256 2718 
Q 2119 2906 1806 2906 
Q 1569 2906 1367 2781 
Q 1166 2656 1075 2415 
Q 984 2175 984 1722 
L 984 0 
L 422 0 
z
" transform="scale(0.015625)"/>
        <path id="ArialMT-61" d="M 2588 409 
Q 2275 144 1986 34 
Q 1697 -75 1366 -75 
Q 819 -75 525 192 
Q 231 459 231 875 
Q 231 1119 342 1320 
Q 453 1522 633 1644 
Q 813 1766 1038 1828 
Q 1203 1872 1538 1913 
Q 2219 1994 2541 2106 
Q 2544 2222 2544 2253 
Q 2544 2597 2384 2738 
Q 2169 2928 1744 2928 
Q 1347 2928 1158 2789 
Q 969 2650 878 2297 
L 328 2372 
Q 403 2725 575 2942 
Q 747 3159 1072 3276 
Q 1397 3394 1825 3394 
Q 2250 3394 2515 3294 
Q 2781 3194 2906 3042 
Q 3031 2891 3081 2659 
Q 3109 2516 3109 2141 
L 3109 1391 
Q 3109 606 3145 398 
Q 3181 191 3288 0 
L 2700 0 
Q 2613 175 2588 409 
z
M 2541 1666 
Q 2234 1541 1622 1453 
Q 1275 1403 1131 1340 
Q 988 1278 909 1158 
Q 831 1038 831 891 
Q 831 666 1001 516 
Q 1172 366 1500 366 
Q 1825 366 2078 508 
Q 2331 650 2450 897 
Q 2541 1088 2541 1459 
L 2541 1666 
z
" transform="scale(0.015625)"/>
        <path id="ArialMT-28" d="M 1497 -1347 
Q 1031 -759 709 28 
Q 388 816 388 1659 
Q 388 2403 628 3084 
Q 909 3875 1497 4659 
L 1900 4659 
Q 1522 4009 1400 3731 
Q 1209 3300 1100 2831 
Q 966 2247 966 1656 
Q 966 153 1900 -1347 
L 1497 -1347 
z
" transform="scale(0.015625)"/>
        <path id="ArialMT-b0" d="M 400 3794 
Q 400 4153 654 4406 
Q 909 4659 1266 4659 
Q 1628 4659 1881 4406 
Q 2134 4153 2134 3794 
Q 2134 3434 1879 3179 
Q 1625 2925 1266 2925 
Q 909 2925 654 3178 
Q 400 3431 400 3794 
z
M 741 3794 
Q 741 3575 895 3420 
Q 1050 3266 1269 3266 
Q 1484 3266 1639 3420 
Q 1794 3575 1794 3794 
Q 1794 4013 1639 4167 
Q 1484 4322 1269 4322 
Q 1050 4322 895 4167 
Q 741 4013 741 3794 
z
" transform="scale(0.015625)"/>
        <path id="ArialMT-29" d="M 791 -1347 
L 388 -1347 
Q 1322 153 1322 1656 
Q 1322 2244 1188 2822 
Q 1081 3291 891 3722 
Q 769 4003 388 4659 
L 791 4659 
Q 1378 3875 1659 3084 
Q 1900 2403 1900 1659 
Q 1900 816 1576 28 
Q 1253 -759 791 -1347 
z
" transform="scale(0.015625)"/>
       </defs>
       <use xlink:href="#ArialMT-54"/>
       <use xlink:href="#ArialMT-65" x="49.958984"/>
       <use xlink:href="#ArialMT-6d" x="105.574219"/>
       <use xlink:href="#ArialMT-70" x="188.875"/>
       <use xlink:href="#ArialMT-65" x="244.490234"/>
       <use xlink:href="#ArialMT-72" x="300.105469"/>
       <use xlink:href="#ArialMT-61" x="333.40625"/>
       <use xlink:href="#ArialMT-74" x="389.021484"/>
       <use xlink:href="#ArialMT-75" x="416.804688"/>
       <use xlink:href="#ArialMT-72" x="472.419922"/>
       <use xlink:href="#ArialMT-65" x="505.720703"/>
       <use xlink:href="#ArialMT-20" x="561.335938"/>
       <use xlink:href="#ArialMT-28" x="589.119141"/>
       <use xlink:href="#ArialMT-b0" x="622.419922"/>
       <use xlink:href="#ArialMT-43" x="662.410156"/>
       <use xlink:href="#ArialMT-29" x="734.626953"/>
      </g>
     </g>
    </g>
    <g id="matplotlib.axis_20">
     <g id="ytick_44">
      <g id="line2d_92">
       <defs>
        <path id="m38acfa7231" d="M 0 0 
L 3.5 0 
" style="stroke: #000000; stroke-width: 0.8"/>
       </defs>
       <g>
        <use xlink:href="#m38acfa7231" x="257.205367" y="91.043415" style="stroke: #000000; stroke-width: 0.8"/>
       </g>
      </g>
      <g id="text_15">
       <!-- $\mathdefault{0.00}$ -->
       <g transform="translate(264.205367 92.832868) scale(0.05 -0.05)">
        <defs>
         <path id="ArialMT-2e" d="M 581 0 
L 581 641 
L 1222 641 
L 1222 0 
L 581 0 
z
" transform="scale(0.015625)"/>
        </defs>
        <use xlink:href="#ArialMT-30" transform="translate(0 0.125)"/>
        <use xlink:href="#ArialMT-2e" transform="translate(55.615234 0.125)"/>
        <use xlink:href="#ArialMT-30" transform="translate(83.398438 0.125)"/>
        <use xlink:href="#ArialMT-30" transform="translate(139.013672 0.125)"/>
       </g>
      </g>
     </g>
     <g id="ytick_45">
      <g id="line2d_93">
       <g>
        <use xlink:href="#m38acfa7231" x="257.205367" y="74.967059" style="stroke: #000000; stroke-width: 0.8"/>
       </g>
      </g>
      <g id="text_16">
       <!-- $\mathdefault{0.25}$ -->
       <g transform="translate(264.205367 76.756513) scale(0.05 -0.05)">
        <defs>
         <path id="ArialMT-35" d="M 266 1200 
L 856 1250 
Q 922 819 1161 601 
Q 1400 384 1738 384 
Q 2144 384 2425 690 
Q 2706 997 2706 1503 
Q 2706 1984 2436 2262 
Q 2166 2541 1728 2541 
Q 1456 2541 1237 2417 
Q 1019 2294 894 2097 
L 366 2166 
L 809 4519 
L 3088 4519 
L 3088 3981 
L 1259 3981 
L 1013 2750 
Q 1425 3038 1878 3038 
Q 2478 3038 2890 2622 
Q 3303 2206 3303 1553 
Q 3303 931 2941 478 
Q 2500 -78 1738 -78 
Q 1113 -78 717 272 
Q 322 622 266 1200 
z
" transform="scale(0.015625)"/>
        </defs>
        <use xlink:href="#ArialMT-30" transform="translate(0 0.125)"/>
        <use xlink:href="#ArialMT-2e" transform="translate(55.615234 0.125)"/>
        <use xlink:href="#ArialMT-32" transform="translate(83.398438 0.125)"/>
        <use xlink:href="#ArialMT-35" transform="translate(139.013672 0.125)"/>
       </g>
      </g>
     </g>
     <g id="ytick_46">
      <g id="line2d_94">
       <g>
        <use xlink:href="#m38acfa7231" x="257.205367" y="58.890704" style="stroke: #000000; stroke-width: 0.8"/>
       </g>
      </g>
      <g id="text_17">
       <!-- $\mathdefault{0.50}$ -->
       <g transform="translate(264.205367 60.680157) scale(0.05 -0.05)">
        <use xlink:href="#ArialMT-30" transform="translate(0 0.125)"/>
        <use xlink:href="#ArialMT-2e" transform="translate(55.615234 0.125)"/>
        <use xlink:href="#ArialMT-35" transform="translate(83.398438 0.125)"/>
        <use xlink:href="#ArialMT-30" transform="translate(139.013672 0.125)"/>
       </g>
      </g>
     </g>
     <g id="ytick_47">
      <g id="line2d_95">
       <g>
        <use xlink:href="#m38acfa7231" x="257.205367" y="42.814348" style="stroke: #000000; stroke-width: 0.8"/>
       </g>
      </g>
      <g id="text_18">
       <!-- $\mathdefault{0.75}$ -->
       <g transform="translate(264.205367 44.603801) scale(0.05 -0.05)">
        <defs>
         <path id="ArialMT-37" d="M 303 3981 
L 303 4522 
L 3269 4522 
L 3269 4084 
Q 2831 3619 2401 2847 
Q 1972 2075 1738 1259 
Q 1569 684 1522 0 
L 944 0 
Q 953 541 1156 1306 
Q 1359 2072 1739 2783 
Q 2119 3494 2547 3981 
L 303 3981 
z
" transform="scale(0.015625)"/>
        </defs>
        <use xlink:href="#ArialMT-30" transform="translate(0 0.125)"/>
        <use xlink:href="#ArialMT-2e" transform="translate(55.615234 0.125)"/>
        <use xlink:href="#ArialMT-37" transform="translate(83.398438 0.125)"/>
        <use xlink:href="#ArialMT-35" transform="translate(139.013672 0.125)"/>
       </g>
      </g>
     </g>
     <g id="ytick_48">
      <g id="line2d_96">
       <g>
        <use xlink:href="#m38acfa7231" x="257.205367" y="26.737992" style="stroke: #000000; stroke-width: 0.8"/>
       </g>
      </g>
      <g id="text_19">
       <!-- $\mathdefault{1.00}$ -->
       <g transform="translate(264.205367 28.527445) scale(0.05 -0.05)">
        <use xlink:href="#ArialMT-31" transform="translate(0 0.125)"/>
        <use xlink:href="#ArialMT-2e" transform="translate(55.615234 0.125)"/>
        <use xlink:href="#ArialMT-30" transform="translate(83.398438 0.125)"/>
        <use xlink:href="#ArialMT-30" transform="translate(139.013672 0.125)"/>
       </g>
      </g>
     </g>
     <g id="text_20">
      <!--  $P(b_{n+1}|b_{n})$ -->
      <g transform="translate(283.345367 78.210704) rotate(-90) scale(0.07 -0.07)">
       <defs>
        <path id="DejaVuSans-Oblique-50" d="M 1081 4666 
L 2541 4666 
Q 3178 4666 3512 4369 
Q 3847 4072 3847 3500 
Q 3847 2731 3353 2303 
Q 2859 1875 1966 1875 
L 1172 1875 
L 806 0 
L 172 0 
L 1081 4666 
z
M 1613 4147 
L 1275 2394 
L 2069 2394 
Q 2606 2394 2893 2669 
Q 3181 2944 3181 3456 
Q 3181 3784 2986 3965 
Q 2791 4147 2438 4147 
L 1613 4147 
z
" transform="scale(0.015625)"/>
        <path id="DejaVuSans-28" d="M 1984 4856 
Q 1566 4138 1362 3434 
Q 1159 2731 1159 2009 
Q 1159 1288 1364 580 
Q 1569 -128 1984 -844 
L 1484 -844 
Q 1016 -109 783 600 
Q 550 1309 550 2009 
Q 550 2706 781 3412 
Q 1013 4119 1484 4856 
L 1984 4856 
z
" transform="scale(0.015625)"/>
        <path id="DejaVuSans-Oblique-62" d="M 3169 2138 
Q 3169 2591 2961 2847 
Q 2753 3103 2388 3103 
Q 2122 3103 1889 2973 
Q 1656 2844 1484 2597 
Q 1303 2338 1198 1995 
Q 1094 1653 1094 1313 
Q 1094 881 1298 636 
Q 1503 391 1863 391 
Q 2134 391 2365 517 
Q 2597 644 2772 891 
Q 2950 1147 3059 1487 
Q 3169 1828 3169 2138 
z
M 1381 2969 
Q 1594 3256 1914 3420 
Q 2234 3584 2584 3584 
Q 3122 3584 3439 3221 
Q 3756 2859 3756 2241 
Q 3756 1734 3570 1259 
Q 3384 784 3041 416 
Q 2816 172 2522 40 
Q 2228 -91 1906 -91 
Q 1566 -91 1316 65 
Q 1066 222 909 531 
L 806 0 
L 231 0 
L 1178 4863 
L 1753 4863 
L 1381 2969 
z
" transform="scale(0.015625)"/>
        <path id="DejaVuSans-Oblique-6e" d="M 3566 2113 
L 3156 0 
L 2578 0 
L 2988 2091 
Q 3016 2238 3031 2350 
Q 3047 2463 3047 2528 
Q 3047 2791 2881 2937 
Q 2716 3084 2419 3084 
Q 1956 3084 1622 2776 
Q 1288 2469 1184 1941 
L 800 0 
L 225 0 
L 903 3500 
L 1478 3500 
L 1363 2950 
Q 1603 3253 1940 3418 
Q 2278 3584 2650 3584 
Q 3113 3584 3367 3334 
Q 3622 3084 3622 2631 
Q 3622 2519 3608 2391 
Q 3594 2263 3566 2113 
z
" transform="scale(0.015625)"/>
        <path id="DejaVuSans-2b" d="M 2944 4013 
L 2944 2272 
L 4684 2272 
L 4684 1741 
L 2944 1741 
L 2944 0 
L 2419 0 
L 2419 1741 
L 678 1741 
L 678 2272 
L 2419 2272 
L 2419 4013 
L 2944 4013 
z
" transform="scale(0.015625)"/>
        <path id="DejaVuSans-31" d="M 794 531 
L 1825 531 
L 1825 4091 
L 703 3866 
L 703 4441 
L 1819 4666 
L 2450 4666 
L 2450 531 
L 3481 531 
L 3481 0 
L 794 0 
L 794 531 
z
" transform="scale(0.015625)"/>
        <path id="DejaVuSans-7c" d="M 1344 4891 
L 1344 -1509 
L 813 -1509 
L 813 4891 
L 1344 4891 
z
" transform="scale(0.015625)"/>
        <path id="DejaVuSans-29" d="M 513 4856 
L 1013 4856 
Q 1481 4119 1714 3412 
Q 1947 2706 1947 2009 
Q 1947 1309 1714 600 
Q 1481 -109 1013 -844 
L 513 -844 
Q 928 -128 1133 580 
Q 1338 1288 1338 2009 
Q 1338 2731 1133 3434 
Q 928 4138 513 4856 
z
" transform="scale(0.015625)"/>
       </defs>
       <use xlink:href="#ArialMT-20" transform="translate(0 0.578125)"/>
       <use xlink:href="#DejaVuSans-Oblique-50" transform="translate(27.783203 0.578125)"/>
       <use xlink:href="#DejaVuSans-28" transform="translate(88.085938 0.578125)"/>
       <use xlink:href="#DejaVuSans-Oblique-62" transform="translate(127.099609 0.578125)"/>
       <use xlink:href="#DejaVuSans-Oblique-6e" transform="translate(190.576172 -15.828125) scale(0.7)"/>
       <use xlink:href="#DejaVuSans-2b" transform="translate(248.579102 -15.828125) scale(0.7)"/>
       <use xlink:href="#DejaVuSans-31" transform="translate(320.869141 -15.828125) scale(0.7)"/>
       <use xlink:href="#DejaVuSans-7c" transform="translate(368.139648 0.578125)"/>
       <use xlink:href="#DejaVuSans-Oblique-62" transform="translate(401.831055 0.578125)"/>
       <use xlink:href="#DejaVuSans-Oblique-6e" transform="translate(465.307617 -15.828125) scale(0.7)"/>
       <use xlink:href="#DejaVuSans-29" transform="translate(512.407227 0.578125)"/>
      </g>
     </g>
    </g>
    <g id="patch_30">
     <path d="M 257.205367 91.043415 
L 257.205367 26.737992 
" style="fill: none; stroke: #000000; stroke-width: 0.8; stroke-linejoin: miter; stroke-linecap: square"/>
    </g>
    <g id="patch_31">
     <path d="M 192.899944 26.737992 
L 257.205367 26.737992 
" style="fill: none; stroke: #000000; stroke-width: 0.8; stroke-linejoin: miter; stroke-linecap: square"/>
    </g>
    <g id="PathCollection_17">
     <defs>
      <path id="C8_0_5bf88e3b72" d="M 0 2.236068 
C 0.593012 2.236068 1.161816 2.000462 1.581139 1.581139 
C 2.000462 1.161816 2.236068 0.593012 2.236068 -0 
C 2.236068 -0.593012 2.000462 -1.161816 1.581139 -1.581139 
C 1.161816 -2.000462 0.593012 -2.236068 0 -2.236068 
C -0.593012 -2.236068 -1.161816 -2.000462 -1.581139 -1.581139 
C -2.000462 -1.161816 -2.236068 -0.593012 -2.236068 0 
C -2.236068 0.593012 -2.000462 1.161816 -1.581139 1.581139 
C -1.161816 2.000462 -0.593012 2.236068 0 2.236068 
z
"/>
     </defs>
     <g clip-path="url(#pe9a43ae2a2)">
      <use xlink:href="#C8_0_5bf88e3b72" x="195.822918" y="74.664932" style="fill: #033198; stroke: #000000; stroke-width: 0.75"/>
     </g>
     <g clip-path="url(#pe9a43ae2a2)">
      <use xlink:href="#C8_0_5bf88e3b72" x="211.412111" y="72.628152" style="fill: #399dc7; stroke: #000000; stroke-width: 0.75"/>
     </g>
     <g clip-path="url(#pe9a43ae2a2)">
      <use xlink:href="#C8_0_5bf88e3b72" x="227.001305" y="71.516426" style="fill: #c1eac2; stroke: #000000; stroke-width: 0.75"/>
     </g>
     <g clip-path="url(#pe9a43ae2a2)">
      <use xlink:href="#C8_0_5bf88e3b72" x="242.590498" y="70.446377" style="fill: #b58b31; stroke: #000000; stroke-width: 0.75"/>
     </g>
     <g clip-path="url(#pe9a43ae2a2)">
      <use xlink:href="#C8_0_5bf88e3b72" x="254.282393" y="67.704179" style="fill: #7e1700; stroke: #000000; stroke-width: 0.75"/>
     </g>
    </g>
    <g id="PathCollection_18">
     <path d="M 195.822918 56.654268 
L 193.58685 61.126404 
L 198.058986 61.126404 
z
" clip-path="url(#pe9a43ae2a2)" style="fill: #033198; stroke: #000000; stroke-width: 0.75"/>
     <path d="M 211.412111 56.403618 
L 209.176043 60.875754 
L 213.648179 60.875754 
z
" clip-path="url(#pe9a43ae2a2)" style="fill: #399dc7; stroke: #000000; stroke-width: 0.75"/>
     <path d="M 227.001305 65.995399 
L 224.765237 70.467535 
L 229.237373 70.467535 
z
" clip-path="url(#pe9a43ae2a2)" style="fill: #c1eac2; stroke: #000000; stroke-width: 0.75"/>
     <path d="M 242.590498 66.308264 
L 240.35443 70.7804 
L 244.826566 70.7804 
z
" clip-path="url(#pe9a43ae2a2)" style="fill: #b58b31; stroke: #000000; stroke-width: 0.75"/>
     <path d="M 254.282393 65.233134 
L 252.046325 69.70527 
L 256.518461 69.70527 
z
" clip-path="url(#pe9a43ae2a2)" style="fill: #7e1700; stroke: #000000; stroke-width: 0.75"/>
    </g>
   </g>
  </g>
 </g>
 <defs>
  <clipPath id="pdc748a843e">
   <rect x="112.518165" y="107.119771" width="64.305423" height="64.305423"/>
  </clipPath>
  <clipPath id="pe36d948c37">
   <rect x="112.518165" y="187.50155" width="64.305423" height="64.305423"/>
  </clipPath>
  <clipPath id="p602ede97c3">
   <rect x="112.518165" y="26.737992" width="64.305423" height="64.305423"/>
  </clipPath>
  <clipPath id="p925647aad9">
   <rect x="32.136387" y="107.119771" width="64.305423" height="64.305423"/>
  </clipPath>
  <clipPath id="pfea60b5038">
   <rect x="32.136387" y="187.50155" width="64.305423" height="64.305423"/>
  </clipPath>
  <clipPath id="pe5b35465d9">
   <rect x="32.136387" y="26.737992" width="64.305423" height="64.305423"/>
  </clipPath>
  <clipPath id="p60d8e6fa57">
   <rect x="192.899944" y="107.119771" width="64.305423" height="64.305423"/>
  </clipPath>
  <clipPath id="pdde2ffa958">
   <rect x="192.899944" y="187.50155" width="64.305423" height="64.305423"/>
  </clipPath>
  <clipPath id="pe9a43ae2a2">
   <rect x="192.899944" y="26.737992" width="64.305423" height="64.305423"/>
  </clipPath>
 </defs>
</svg>
