<?xml version="1.0" encoding="utf-8" standalone="no"?>
<!DOCTYPE svg PUBLIC "-//W3C//DTD SVG 1.1//EN"
  "http://www.w3.org/Graphics/SVG/1.1/DTD/svg11.dtd">
<svg xmlns:xlink="http://www.w3.org/1999/xlink" width="144pt" height="144pt" viewBox="0 0 144 144" xmlns="http://www.w3.org/2000/svg" version="1.1">
 <metadata>
  <rdf:RDF xmlns:dc="http://purl.org/dc/elements/1.1/" xmlns:cc="http://creativecommons.org/ns#" xmlns:rdf="http://www.w3.org/1999/02/22-rdf-syntax-ns#">
   <cc:Work>
    <dc:type rdf:resource="http://purl.org/dc/dcmitype/StillImage"/>
    <dc:date>2024-02-10T20:38:21.536612</dc:date>
    <dc:format>image/svg+xml</dc:format>
    <dc:creator>
     <cc:Agent>
      <dc:title>Matplotlib v3.8.0, https://matplotlib.org/</dc:title>
     </cc:Agent>
    </dc:creator>
   </cc:Work>
  </rdf:RDF>
 </metadata>
 <defs>
  <style type="text/css">*{stroke-linejoin: round; stroke-linecap: butt}</style>
 </defs>
 <g id="figure_1">
  <g id="patch_1">
   <path d="M 0 144 
L 144 144 
L 144 0 
L 0 0 
L 0 144 
z
" style="fill: none"/>
  </g>
  <g id="axes_1">
   <g id="patch_2">
    <path d="M 30.38399 118.497104 
L 140.99976 118.497104 
L 140.99976 5.578365 
L 30.38399 5.578365 
L 30.38399 118.497104 
z
" style="fill: none"/>
   </g>
   <g id="PolyCollection_1">
    <defs>
     <path id="m41cbc397c4" d="M 88.389848 -25.502896 
L 82.791975 -25.502896 
L 82.791975 -138.421635 
L 88.389848 -138.421635 
L 88.389848 -138.421635 
L 88.389848 -25.502896 
z
"/>
    </defs>
    <g clip-path="url(#p8b760026a8)">
     <use xlink:href="#m41cbc397c4" x="0" y="144" style="fill: #808080; fill-opacity: 0.5"/>
    </g>
   </g>
   <g id="matplotlib.axis_1">
    <g id="xtick_1">
     <g id="line2d_1">
      <defs>
       <path id="m86d80277cd" d="M 0 0 
L 0 3.5 
" style="stroke: #000000; stroke-width: 0.8"/>
      </defs>
      <g>
       <use xlink:href="#m86d80277cd" x="57.601545" y="118.497104" style="stroke: #000000; stroke-width: 0.8"/>
      </g>
     </g>
     <g id="text_1">
      <!-- $\mathdefault{−100}$ -->
      <g transform="translate(51.951545 129.07601) scale(0.05 -0.05)">
       <defs>
        <path id="ArialMT-2212" d="M 3381 1997 
L 356 1997 
L 356 2522 
L 3381 2522 
L 3381 1997 
z
" transform="scale(0.015625)"/>
        <path id="ArialMT-31" d="M 2384 0 
L 1822 0 
L 1822 3584 
Q 1619 3391 1289 3197 
Q 959 3003 697 2906 
L 697 3450 
Q 1169 3672 1522 3987 
Q 1875 4303 2022 4600 
L 2384 4600 
L 2384 0 
z
" transform="scale(0.015625)"/>
        <path id="ArialMT-30" d="M 266 2259 
Q 266 3072 433 3567 
Q 600 4063 929 4331 
Q 1259 4600 1759 4600 
Q 2128 4600 2406 4451 
Q 2684 4303 2865 4023 
Q 3047 3744 3150 3342 
Q 3253 2941 3253 2259 
Q 3253 1453 3087 958 
Q 2922 463 2592 192 
Q 2263 -78 1759 -78 
Q 1097 -78 719 397 
Q 266 969 266 2259 
z
M 844 2259 
Q 844 1131 1108 757 
Q 1372 384 1759 384 
Q 2147 384 2411 759 
Q 2675 1134 2675 2259 
Q 2675 3391 2411 3762 
Q 2147 4134 1753 4134 
Q 1366 4134 1134 3806 
Q 844 3388 844 2259 
z
" transform="scale(0.015625)"/>
       </defs>
       <use xlink:href="#ArialMT-2212" transform="translate(0 0.125)"/>
       <use xlink:href="#ArialMT-31" transform="translate(58.398438 0.125)"/>
       <use xlink:href="#ArialMT-30" transform="translate(114.013672 0.125)"/>
       <use xlink:href="#ArialMT-30" transform="translate(169.628906 0.125)"/>
      </g>
     </g>
    </g>
    <g id="xtick_2">
     <g id="line2d_2">
      <g>
       <use xlink:href="#m86d80277cd" x="85.590911" y="118.497104" style="stroke: #000000; stroke-width: 0.8"/>
      </g>
     </g>
     <g id="text_2">
      <!-- $\mathdefault{0}$ -->
      <g transform="translate(84.190911 129.07601) scale(0.05 -0.05)">
       <use xlink:href="#ArialMT-30" transform="translate(0 0.125)"/>
      </g>
     </g>
    </g>
    <g id="xtick_3">
     <g id="line2d_3">
      <g>
       <use xlink:href="#m86d80277cd" x="113.580278" y="118.497104" style="stroke: #000000; stroke-width: 0.8"/>
      </g>
     </g>
     <g id="text_3">
      <!-- $\mathdefault{100}$ -->
      <g transform="translate(109.405278 129.07601) scale(0.05 -0.05)">
       <use xlink:href="#ArialMT-31" transform="translate(0 0.125)"/>
       <use xlink:href="#ArialMT-30" transform="translate(55.615234 0.125)"/>
       <use xlink:href="#ArialMT-30" transform="translate(111.230469 0.125)"/>
      </g>
     </g>
    </g>
    <g id="text_4">
     <!-- $\delta \theta$ (°) -->
     <g transform="translate(76.696875 139.45976) scale(0.07 -0.07)">
      <defs>
       <path id="DejaVuSans-Oblique-3b4" d="M 3472 4053 
Q 3197 4272 2450 4272 
Q 1659 4272 1588 3906 
Q 1531 3619 2328 3469 
Q 2953 3353 3253 3003 
Q 3616 2581 3447 1716 
Q 3284 888 2763 400 
Q 2238 -91 1488 -91 
Q 741 -91 406 400 
Q 72 888 241 1747 
Q 363 2384 891 2900 
Q 1097 3100 1353 3213 
Q 913 3459 1000 3900 
Q 1166 4750 2544 4750 
Q 3234 4750 3566 4531 
L 3472 4053 
z
M 1753 3056 
Q 1525 2966 1306 2738 
Q 969 2384 847 1747 
Q 722 1113 919 756 
Q 1119 397 1584 397 
Q 2044 397 2381 759 
Q 2722 1122 2838 1716 
Q 2956 2338 2731 2638 
Q 2491 2959 2103 2994 
Q 1906 3013 1753 3056 
z
" transform="scale(0.015625)"/>
       <path id="DejaVuSans-Oblique-3b8" d="M 2913 2219 
L 925 2219 
Q 791 1284 928 888 
Q 1100 400 1566 400 
Q 2034 400 2391 891 
Q 2703 1322 2913 2219 
z
M 3009 2750 
Q 3094 3638 2984 3950 
Q 2813 4444 2353 4444 
Q 1875 4444 1525 3956 
Q 1250 3563 1034 2750 
L 3009 2750 
z
M 2444 4913 
Q 3194 4913 3494 4250 
Q 3794 3591 3566 2422 
Q 3341 1256 2781 594 
Q 2225 -72 1475 -72 
Q 722 -72 425 594 
Q 128 1256 353 2422 
Q 581 3591 1134 4250 
Q 1691 4913 2444 4913 
z
" transform="scale(0.015625)"/>
       <path id="ArialMT-20" transform="scale(0.015625)"/>
       <path id="ArialMT-28" d="M 1497 -1347 
Q 1031 -759 709 28 
Q 388 816 388 1659 
Q 388 2403 628 3084 
Q 909 3875 1497 4659 
L 1900 4659 
Q 1522 4009 1400 3731 
Q 1209 3300 1100 2831 
Q 966 2247 966 1656 
Q 966 153 1900 -1347 
L 1497 -1347 
z
" transform="scale(0.015625)"/>
       <path id="ArialMT-b0" d="M 400 3794 
Q 400 4153 654 4406 
Q 909 4659 1266 4659 
Q 1628 4659 1881 4406 
Q 2134 4153 2134 3794 
Q 2134 3434 1879 3179 
Q 1625 2925 1266 2925 
Q 909 2925 654 3178 
Q 400 3431 400 3794 
z
M 741 3794 
Q 741 3575 895 3420 
Q 1050 3266 1269 3266 
Q 1484 3266 1639 3420 
Q 1794 3575 1794 3794 
Q 1794 4013 1639 4167 
Q 1484 4322 1269 4322 
Q 1050 4322 895 4167 
Q 741 4013 741 3794 
z
" transform="scale(0.015625)"/>
       <path id="ArialMT-29" d="M 791 -1347 
L 388 -1347 
Q 1322 153 1322 1656 
Q 1322 2244 1188 2822 
Q 1081 3291 891 3722 
Q 769 4003 388 4659 
L 791 4659 
Q 1378 3875 1659 3084 
Q 1900 2403 1900 1659 
Q 1900 816 1576 28 
Q 1253 -759 791 -1347 
z
" transform="scale(0.015625)"/>
      </defs>
      <use xlink:href="#DejaVuSans-Oblique-3b4" transform="translate(0 0.234375)"/>
      <use xlink:href="#DejaVuSans-Oblique-3b8" transform="translate(61.181641 0.234375)"/>
      <use xlink:href="#ArialMT-20" transform="translate(122.363281 0.234375)"/>
      <use xlink:href="#ArialMT-28" transform="translate(150.146484 0.234375)"/>
      <use xlink:href="#ArialMT-b0" transform="translate(183.447266 0.234375)"/>
      <use xlink:href="#ArialMT-29" transform="translate(223.4375 0.234375)"/>
     </g>
    </g>
   </g>
   <g id="matplotlib.axis_2">
    <g id="ytick_1">
     <g id="line2d_4">
      <defs>
       <path id="m4bf733b2e7" d="M 0 0 
L -3.5 0 
" style="stroke: #000000; stroke-width: 0.8"/>
      </defs>
      <g>
       <use xlink:href="#m4bf733b2e7" x="30.38399" y="118.497104" style="stroke: #000000; stroke-width: 0.8"/>
      </g>
     </g>
     <g id="text_5">
      <!-- $\mathdefault{10^{-4}}$ -->
      <g transform="translate(13.48399 121.050229) scale(0.05 -0.05)">
       <defs>
        <path id="ArialMT-34" d="M 2069 0 
L 2069 1097 
L 81 1097 
L 81 1613 
L 2172 4581 
L 2631 4581 
L 2631 1613 
L 3250 1613 
L 3250 1097 
L 2631 1097 
L 2631 0 
L 2069 0 
z
M 2069 1613 
L 2069 3678 
L 634 1613 
L 2069 1613 
z
" transform="scale(0.015625)"/>
       </defs>
       <use xlink:href="#ArialMT-31" transform="translate(0 0.201563)"/>
       <use xlink:href="#ArialMT-30" transform="translate(55.615234 0.201563)"/>
       <use xlink:href="#ArialMT-2212" transform="translate(112.972813 69.895313) scale(0.7)"/>
       <use xlink:href="#ArialMT-34" transform="translate(153.851719 69.895313) scale(0.7)"/>
      </g>
     </g>
    </g>
    <g id="ytick_2">
     <g id="line2d_5">
      <g>
       <use xlink:href="#m4bf733b2e7" x="30.38399" y="80.857524" style="stroke: #000000; stroke-width: 0.8"/>
      </g>
     </g>
     <g id="text_6">
      <!-- $\mathdefault{10^{-3}}$ -->
      <g transform="translate(13.48399 83.435649) scale(0.05 -0.05)">
       <defs>
        <path id="ArialMT-33" d="M 269 1209 
L 831 1284 
Q 928 806 1161 595 
Q 1394 384 1728 384 
Q 2125 384 2398 659 
Q 2672 934 2672 1341 
Q 2672 1728 2419 1979 
Q 2166 2231 1775 2231 
Q 1616 2231 1378 2169 
L 1441 2663 
Q 1497 2656 1531 2656 
Q 1891 2656 2178 2843 
Q 2466 3031 2466 3422 
Q 2466 3731 2256 3934 
Q 2047 4138 1716 4138 
Q 1388 4138 1169 3931 
Q 950 3725 888 3313 
L 325 3413 
Q 428 3978 793 4289 
Q 1159 4600 1703 4600 
Q 2078 4600 2393 4439 
Q 2709 4278 2876 4000 
Q 3044 3722 3044 3409 
Q 3044 3113 2884 2869 
Q 2725 2625 2413 2481 
Q 2819 2388 3044 2092 
Q 3269 1797 3269 1353 
Q 3269 753 2831 336 
Q 2394 -81 1725 -81 
Q 1122 -81 723 278 
Q 325 638 269 1209 
z
" transform="scale(0.015625)"/>
       </defs>
       <use xlink:href="#ArialMT-31" transform="translate(0 0.99375)"/>
       <use xlink:href="#ArialMT-30" transform="translate(55.615234 0.99375)"/>
       <use xlink:href="#ArialMT-2212" transform="translate(112.972813 70.6875) scale(0.7)"/>
       <use xlink:href="#ArialMT-33" transform="translate(153.851719 70.6875) scale(0.7)"/>
      </g>
     </g>
    </g>
    <g id="ytick_3">
     <g id="line2d_6">
      <g>
       <use xlink:href="#m4bf733b2e7" x="30.38399" y="43.217945" style="stroke: #000000; stroke-width: 0.8"/>
      </g>
     </g>
     <g id="text_7">
      <!-- $\mathdefault{10^{-2}}$ -->
      <g transform="translate(13.48399 45.79607) scale(0.05 -0.05)">
       <defs>
        <path id="ArialMT-32" d="M 3222 541 
L 3222 0 
L 194 0 
Q 188 203 259 391 
Q 375 700 629 1000 
Q 884 1300 1366 1694 
Q 2113 2306 2375 2664 
Q 2638 3022 2638 3341 
Q 2638 3675 2398 3904 
Q 2159 4134 1775 4134 
Q 1369 4134 1125 3890 
Q 881 3647 878 3216 
L 300 3275 
Q 359 3922 746 4261 
Q 1134 4600 1788 4600 
Q 2447 4600 2831 4234 
Q 3216 3869 3216 3328 
Q 3216 3053 3103 2787 
Q 2991 2522 2730 2228 
Q 2469 1934 1863 1422 
Q 1356 997 1212 845 
Q 1069 694 975 541 
L 3222 541 
z
" transform="scale(0.015625)"/>
       </defs>
       <use xlink:href="#ArialMT-31" transform="translate(0 0.99375)"/>
       <use xlink:href="#ArialMT-30" transform="translate(55.615234 0.99375)"/>
       <use xlink:href="#ArialMT-2212" transform="translate(112.972813 70.6875) scale(0.7)"/>
       <use xlink:href="#ArialMT-32" transform="translate(153.851719 70.6875) scale(0.7)"/>
      </g>
     </g>
    </g>
    <g id="ytick_4">
     <g id="line2d_7">
      <g>
       <use xlink:href="#m4bf733b2e7" x="30.38399" y="5.578365" style="stroke: #000000; stroke-width: 0.8"/>
      </g>
     </g>
     <g id="text_8">
      <!-- $\mathdefault{10^{-1}}$ -->
      <g transform="translate(13.48399 8.15649) scale(0.05 -0.05)">
       <use xlink:href="#ArialMT-31" transform="translate(0 0.99375)"/>
       <use xlink:href="#ArialMT-30" transform="translate(55.615234 0.99375)"/>
       <use xlink:href="#ArialMT-2212" transform="translate(112.972813 70.6875) scale(0.7)"/>
       <use xlink:href="#ArialMT-31" transform="translate(153.851719 70.6875) scale(0.7)"/>
      </g>
     </g>
    </g>
    <g id="ytick_5">
     <g id="line2d_8">
      <defs>
       <path id="md0106c9bf7" d="M 0 0 
L -2 0 
" style="stroke: #000000; stroke-width: 0.6"/>
      </defs>
      <g>
       <use xlink:href="#md0106c9bf7" x="30.38399" y="107.166461" style="stroke: #000000; stroke-width: 0.6"/>
      </g>
     </g>
    </g>
    <g id="ytick_6">
     <g id="line2d_9">
      <g>
       <use xlink:href="#md0106c9bf7" x="30.38399" y="100.53846" style="stroke: #000000; stroke-width: 0.6"/>
      </g>
     </g>
    </g>
    <g id="ytick_7">
     <g id="line2d_10">
      <g>
       <use xlink:href="#md0106c9bf7" x="30.38399" y="95.835819" style="stroke: #000000; stroke-width: 0.6"/>
      </g>
     </g>
    </g>
    <g id="ytick_8">
     <g id="line2d_11">
      <g>
       <use xlink:href="#md0106c9bf7" x="30.38399" y="92.188167" style="stroke: #000000; stroke-width: 0.6"/>
      </g>
     </g>
    </g>
    <g id="ytick_9">
     <g id="line2d_12">
      <g>
       <use xlink:href="#md0106c9bf7" x="30.38399" y="89.207818" style="stroke: #000000; stroke-width: 0.6"/>
      </g>
     </g>
    </g>
    <g id="ytick_10">
     <g id="line2d_13">
      <g>
       <use xlink:href="#md0106c9bf7" x="30.38399" y="86.687969" style="stroke: #000000; stroke-width: 0.6"/>
      </g>
     </g>
    </g>
    <g id="ytick_11">
     <g id="line2d_14">
      <g>
       <use xlink:href="#md0106c9bf7" x="30.38399" y="84.505176" style="stroke: #000000; stroke-width: 0.6"/>
      </g>
     </g>
    </g>
    <g id="ytick_12">
     <g id="line2d_15">
      <g>
       <use xlink:href="#md0106c9bf7" x="30.38399" y="82.579817" style="stroke: #000000; stroke-width: 0.6"/>
      </g>
     </g>
    </g>
    <g id="ytick_13">
     <g id="line2d_16">
      <g>
       <use xlink:href="#md0106c9bf7" x="30.38399" y="69.526882" style="stroke: #000000; stroke-width: 0.6"/>
      </g>
     </g>
    </g>
    <g id="ytick_14">
     <g id="line2d_17">
      <g>
       <use xlink:href="#md0106c9bf7" x="30.38399" y="62.898881" style="stroke: #000000; stroke-width: 0.6"/>
      </g>
     </g>
    </g>
    <g id="ytick_15">
     <g id="line2d_18">
      <g>
       <use xlink:href="#md0106c9bf7" x="30.38399" y="58.196239" style="stroke: #000000; stroke-width: 0.6"/>
      </g>
     </g>
    </g>
    <g id="ytick_16">
     <g id="line2d_19">
      <g>
       <use xlink:href="#md0106c9bf7" x="30.38399" y="54.548587" style="stroke: #000000; stroke-width: 0.6"/>
      </g>
     </g>
    </g>
    <g id="ytick_17">
     <g id="line2d_20">
      <g>
       <use xlink:href="#md0106c9bf7" x="30.38399" y="51.568238" style="stroke: #000000; stroke-width: 0.6"/>
      </g>
     </g>
    </g>
    <g id="ytick_18">
     <g id="line2d_21">
      <g>
       <use xlink:href="#md0106c9bf7" x="30.38399" y="49.048389" style="stroke: #000000; stroke-width: 0.6"/>
      </g>
     </g>
    </g>
    <g id="ytick_19">
     <g id="line2d_22">
      <g>
       <use xlink:href="#md0106c9bf7" x="30.38399" y="46.865597" style="stroke: #000000; stroke-width: 0.6"/>
      </g>
     </g>
    </g>
    <g id="ytick_20">
     <g id="line2d_23">
      <g>
       <use xlink:href="#md0106c9bf7" x="30.38399" y="44.940237" style="stroke: #000000; stroke-width: 0.6"/>
      </g>
     </g>
    </g>
    <g id="ytick_21">
     <g id="line2d_24">
      <g>
       <use xlink:href="#md0106c9bf7" x="30.38399" y="31.887302" style="stroke: #000000; stroke-width: 0.6"/>
      </g>
     </g>
    </g>
    <g id="ytick_22">
     <g id="line2d_25">
      <g>
       <use xlink:href="#md0106c9bf7" x="30.38399" y="25.259301" style="stroke: #000000; stroke-width: 0.6"/>
      </g>
     </g>
    </g>
    <g id="ytick_23">
     <g id="line2d_26">
      <g>
       <use xlink:href="#md0106c9bf7" x="30.38399" y="20.55666" style="stroke: #000000; stroke-width: 0.6"/>
      </g>
     </g>
    </g>
    <g id="ytick_24">
     <g id="line2d_27">
      <g>
       <use xlink:href="#md0106c9bf7" x="30.38399" y="16.909007" style="stroke: #000000; stroke-width: 0.6"/>
      </g>
     </g>
    </g>
    <g id="ytick_25">
     <g id="line2d_28">
      <g>
       <use xlink:href="#md0106c9bf7" x="30.38399" y="13.928659" style="stroke: #000000; stroke-width: 0.6"/>
      </g>
     </g>
    </g>
    <g id="ytick_26">
     <g id="line2d_29">
      <g>
       <use xlink:href="#md0106c9bf7" x="30.38399" y="11.40881" style="stroke: #000000; stroke-width: 0.6"/>
      </g>
     </g>
    </g>
    <g id="ytick_27">
     <g id="line2d_30">
      <g>
       <use xlink:href="#md0106c9bf7" x="30.38399" y="9.226017" style="stroke: #000000; stroke-width: 0.6"/>
      </g>
     </g>
    </g>
    <g id="ytick_28">
     <g id="line2d_31">
      <g>
       <use xlink:href="#md0106c9bf7" x="30.38399" y="7.300658" style="stroke: #000000; stroke-width: 0.6"/>
      </g>
     </g>
    </g>
    <g id="text_9">
     <!-- Density -->
     <g transform="translate(8.010709 73.708047) rotate(-90) scale(0.07 -0.07)">
      <defs>
       <path id="ArialMT-44" d="M 494 0 
L 494 4581 
L 2072 4581 
Q 2606 4581 2888 4516 
Q 3281 4425 3559 4188 
Q 3922 3881 4101 3404 
Q 4281 2928 4281 2316 
Q 4281 1794 4159 1391 
Q 4038 988 3847 723 
Q 3656 459 3429 307 
Q 3203 156 2883 78 
Q 2563 0 2147 0 
L 494 0 
z
M 1100 541 
L 2078 541 
Q 2531 541 2789 625 
Q 3047 709 3200 863 
Q 3416 1078 3536 1442 
Q 3656 1806 3656 2325 
Q 3656 3044 3420 3430 
Q 3184 3816 2847 3947 
Q 2603 4041 2063 4041 
L 1100 4041 
L 1100 541 
z
" transform="scale(0.015625)"/>
       <path id="ArialMT-65" d="M 2694 1069 
L 3275 997 
Q 3138 488 2766 206 
Q 2394 -75 1816 -75 
Q 1088 -75 661 373 
Q 234 822 234 1631 
Q 234 2469 665 2931 
Q 1097 3394 1784 3394 
Q 2450 3394 2872 2941 
Q 3294 2488 3294 1666 
Q 3294 1616 3291 1516 
L 816 1516 
Q 847 969 1125 678 
Q 1403 388 1819 388 
Q 2128 388 2347 550 
Q 2566 713 2694 1069 
z
M 847 1978 
L 2700 1978 
Q 2663 2397 2488 2606 
Q 2219 2931 1791 2931 
Q 1403 2931 1139 2672 
Q 875 2413 847 1978 
z
" transform="scale(0.015625)"/>
       <path id="ArialMT-6e" d="M 422 0 
L 422 3319 
L 928 3319 
L 928 2847 
Q 1294 3394 1984 3394 
Q 2284 3394 2536 3286 
Q 2788 3178 2913 3003 
Q 3038 2828 3088 2588 
Q 3119 2431 3119 2041 
L 3119 0 
L 2556 0 
L 2556 2019 
Q 2556 2363 2490 2533 
Q 2425 2703 2258 2804 
Q 2091 2906 1866 2906 
Q 1506 2906 1245 2678 
Q 984 2450 984 1813 
L 984 0 
L 422 0 
z
" transform="scale(0.015625)"/>
       <path id="ArialMT-73" d="M 197 991 
L 753 1078 
Q 800 744 1014 566 
Q 1228 388 1613 388 
Q 2000 388 2187 545 
Q 2375 703 2375 916 
Q 2375 1106 2209 1216 
Q 2094 1291 1634 1406 
Q 1016 1563 777 1677 
Q 538 1791 414 1992 
Q 291 2194 291 2438 
Q 291 2659 392 2848 
Q 494 3038 669 3163 
Q 800 3259 1026 3326 
Q 1253 3394 1513 3394 
Q 1903 3394 2198 3281 
Q 2494 3169 2634 2976 
Q 2775 2784 2828 2463 
L 2278 2388 
Q 2241 2644 2061 2787 
Q 1881 2931 1553 2931 
Q 1166 2931 1000 2803 
Q 834 2675 834 2503 
Q 834 2394 903 2306 
Q 972 2216 1119 2156 
Q 1203 2125 1616 2013 
Q 2213 1853 2448 1751 
Q 2684 1650 2818 1456 
Q 2953 1263 2953 975 
Q 2953 694 2789 445 
Q 2625 197 2315 61 
Q 2006 -75 1616 -75 
Q 969 -75 630 194 
Q 291 463 197 991 
z
" transform="scale(0.015625)"/>
       <path id="ArialMT-69" d="M 425 3934 
L 425 4581 
L 988 4581 
L 988 3934 
L 425 3934 
z
M 425 0 
L 425 3319 
L 988 3319 
L 988 0 
L 425 0 
z
" transform="scale(0.015625)"/>
       <path id="ArialMT-74" d="M 1650 503 
L 1731 6 
Q 1494 -44 1306 -44 
Q 1000 -44 831 53 
Q 663 150 594 308 
Q 525 466 525 972 
L 525 2881 
L 113 2881 
L 113 3319 
L 525 3319 
L 525 4141 
L 1084 4478 
L 1084 3319 
L 1650 3319 
L 1650 2881 
L 1084 2881 
L 1084 941 
Q 1084 700 1114 631 
Q 1144 563 1211 522 
Q 1278 481 1403 481 
Q 1497 481 1650 503 
z
" transform="scale(0.015625)"/>
       <path id="ArialMT-79" d="M 397 -1278 
L 334 -750 
Q 519 -800 656 -800 
Q 844 -800 956 -737 
Q 1069 -675 1141 -563 
Q 1194 -478 1313 -144 
Q 1328 -97 1363 -6 
L 103 3319 
L 709 3319 
L 1400 1397 
Q 1534 1031 1641 628 
Q 1738 1016 1872 1384 
L 2581 3319 
L 3144 3319 
L 1881 -56 
Q 1678 -603 1566 -809 
Q 1416 -1088 1222 -1217 
Q 1028 -1347 759 -1347 
Q 597 -1347 397 -1278 
z
" transform="scale(0.015625)"/>
      </defs>
      <use xlink:href="#ArialMT-44"/>
      <use xlink:href="#ArialMT-65" x="72.216797"/>
      <use xlink:href="#ArialMT-6e" x="127.832031"/>
      <use xlink:href="#ArialMT-73" x="183.447266"/>
      <use xlink:href="#ArialMT-69" x="233.447266"/>
      <use xlink:href="#ArialMT-74" x="255.664062"/>
      <use xlink:href="#ArialMT-79" x="283.447266"/>
     </g>
    </g>
   </g>
   <g id="line2d_32">
    <path d="M 38.642747 145 
L 38.642816 132.17505 
L 38.642885 145 
M 40.863947 145 
L 40.864016 132.17505 
L 40.864086 145 
M 42.075511 145 
L 42.07558 132.17505 
L 42.075649 145 
M 43.489002 145 
L 43.489071 132.17505 
L 43.690998 132.17505 
L 43.691068 145 
M 44.094784 145 
L 44.094853 132.17505 
L 44.094922 145 
M 44.498639 145 
L 44.498708 132.17505 
L 44.498777 145 
M 45.508275 145 
L 45.508344 132.17505 
L 45.508413 145 
M 47.123693 145 
L 47.123762 132.17505 
L 47.123832 145 
M 47.931402 145 
L 47.931472 132.17505 
L 47.931541 145 
M 51.162178 145 
L 51.162308 120.844408 
L 51.162438 145 
M 51.969948 145 
L 51.970017 132.17505 
L 52.171945 132.17505 
L 52.172014 145 
M 52.777657 145 
L 52.777727 132.17505 
L 52.777796 145 
M 53.585367 145 
L 53.585436 132.17505 
L 53.585505 145 
M 54.191087 145 
L 54.191218 120.844408 
L 54.393145 132.17505 
L 54.393214 145 
M 54.998858 145 
L 54.998927 132.17505 
L 54.998996 145 
M 55.806567 145 
L 55.806636 132.17505 
L 55.806705 145 
M 56.614215 145 
L 56.614345 120.844408 
L 56.614475 145 
M 58.229694 145 
L 58.229763 132.17505 
L 58.633618 109.513765 
L 58.835545 132.17505 
L 59.037473 120.844408 
L 59.2394 132.17505 
L 59.441327 132.17505 
L 59.441396 145 
M 59.845052 145 
L 59.845182 120.844408 
L 60.047109 132.17505 
L 60.652891 132.17505 
L 60.854818 120.844408 
L 60.854948 145 
M 61.258543 145 
L 61.258673 120.844408 
L 61.4606 132.17505 
L 61.662527 109.513765 
L 61.864455 105.866113 
L 62.066382 132.17505 
L 62.470237 132.17505 
L 62.874091 102.885764 
L 63.076018 109.513765 
L 63.277946 132.17505 
L 63.479873 102.885764 
L 63.6818 132.17505 
L 63.883728 120.844408 
L 63.883858 145 
M 64.489299 145 
L 64.489509 105.866113 
L 64.691437 120.844408 
L 64.893364 105.866113 
L 65.095291 109.513765 
L 65.297219 132.17505 
L 65.499146 96.257763 
L 65.701073 100.365915 
L 65.903 114.216407 
L 66.104928 109.513765 
L 66.306855 100.365915 
L 66.508782 114.216407 
L 66.71071 98.183123 
L 66.912637 109.513765 
L 67.114564 98.183123 
L 67.518419 105.866113 
L 67.720346 91.555122 
L 67.922273 102.885764 
L 68.124201 91.555122 
L 68.326128 94.535471 
L 68.528055 109.513765 
L 68.729983 87.90747 
L 68.93191 98.183123 
L 69.133837 91.555122 
L 69.335764 100.365915 
L 69.537692 92.977467 
L 69.941546 90.246691 
L 70.143474 102.885764 
L 70.345401 87.90747 
L 70.547328 85.86147 
L 70.749255 89.035273 
L 70.951183 83.204828 
L 71.15311 92.977467 
L 71.355037 81.646825 
L 71.556965 83.204828 
L 71.758892 86.85248 
L 71.960819 86.85248 
L 72.162747 94.535471 
L 72.364674 75.521838 
L 72.768528 79.557176 
L 72.970456 75.521838 
L 73.172383 75.521838 
L 73.37431 76.576827 
L 73.576238 72.288047 
L 73.778165 71.076629 
L 73.980092 76.576827 
L 74.182019 77.131004 
L 74.383947 73.148597 
L 74.585874 74.056978 
L 74.787801 68.893837 
L 74.989729 69.589544 
L 75.191656 71.470544 
L 75.393583 75.018824 
L 75.59551 68.226534 
L 75.797438 71.874186 
L 75.999365 64.975986 
L 76.201292 67.585406 
L 76.40322 64.191195 
L 76.605147 68.226534 
L 76.807074 64.975986 
L 77.210929 67.902827 
L 77.614783 64.191195 
L 77.816711 63.688181 
L 78.018638 64.448628 
L 78.220565 63.200185 
L 78.422493 63.688181 
L 78.62442 60.543543 
L 78.826347 60.340476 
L 79.028274 63.442362 
L 79.230202 59.941758 
L 79.432129 60.543543 
L 79.835984 59.361342 
L 80.037911 59.552533 
L 80.239838 57.226138 
L 80.441765 59.361342 
L 80.643693 54.190282 
L 80.84562 56.733236 
L 81.047547 55.043345 
L 81.249475 56.098335 
L 81.451402 55.637835 
L 81.653329 50.051375 
L 81.855256 50.487312 
L 82.057184 53.645343 
L 82.259111 47.562282 
L 82.662966 47.378609 
L 82.864893 47.562282 
L 83.268748 41.088933 
L 83.470675 39.435154 
L 85.086093 14.730348 
L 85.691875 4.376392 
L 86.09573 10.353148 
L 87.307293 31.08486 
L 87.913075 38.613541 
L 88.518857 48.709887 
L 88.720784 47.017342 
L 88.922712 49.83769 
L 89.730421 55.189953 
L 89.932348 54.61125 
L 90.134275 56.895891 
L 90.336203 54.754016 
L 90.53813 57.226138 
L 90.740057 56.254763 
L 90.941985 59.941758 
L 91.143912 59.361342 
L 91.345839 59.745987 
L 91.547766 58.618184 
L 91.749694 65.246185 
L 91.951621 58.258902 
L 92.153548 59.552533 
L 92.355476 59.361342 
L 92.557403 59.941758 
L 92.75933 65.520925 
L 93.163185 61.168332 
L 93.365112 64.191195 
L 93.567039 61.598533 
L 93.768967 62.726336 
L 93.970894 68.55678 
L 94.172821 65.520925 
L 94.576676 69.948826 
L 94.778603 66.66853 
L 94.98053 68.893837 
L 95.182458 65.800362 
L 95.384385 69.23799 
L 95.586312 69.948826 
L 95.78824 67.902827 
L 95.990167 74.530828 
L 96.192094 71.874186 
L 96.394021 71.874186 
L 96.797876 78.916048 
L 96.999803 69.948826 
L 97.201731 75.018824 
L 97.403658 71.470544 
L 97.605585 80.920187 
L 97.807512 76.040823 
L 98.211367 74.530828 
L 98.413294 78.29912 
L 98.817149 79.557176 
L 99.019076 82.407272 
L 99.221003 81.646825 
L 99.422931 80.224479 
L 99.624858 75.018824 
L 100.028713 86.85248 
L 100.23064 91.555122 
L 100.432567 91.555122 
L 100.836422 86.85248 
L 101.038349 92.977467 
L 101.240276 92.977467 
L 101.442204 94.535471 
L 101.846058 94.535471 
L 102.047986 92.977467 
L 102.249913 92.977467 
L 102.45184 94.535471 
L 102.653767 98.183123 
L 103.057622 94.535471 
L 103.259549 96.257763 
L 103.461477 91.555122 
L 103.663404 92.977467 
L 103.865331 109.513765 
L 104.067258 100.365915 
L 104.471113 114.216407 
L 104.67304 100.365915 
L 104.874968 120.844408 
L 105.278822 109.513765 
L 105.48075 114.216407 
L 105.682677 92.977467 
L 105.884604 120.844408 
L 106.086531 109.513765 
L 106.288459 109.513765 
L 106.490386 120.844408 
L 106.894241 120.844408 
L 107.096168 114.216407 
L 107.298095 114.216407 
L 107.500022 120.844408 
L 107.70195 105.866113 
L 107.903877 120.844408 
L 108.105804 114.216407 
L 108.307732 132.17505 
L 108.509659 114.216407 
L 108.913513 114.216407 
L 109.115441 109.513765 
L 109.519295 132.17505 
L 109.721223 114.216407 
L 109.92315 120.844408 
L 110.125077 114.216407 
L 110.327004 132.17505 
L 110.327074 145 
M 110.73079 145 
L 110.730859 132.17505 
L 110.730928 145 
M 111.538499 145 
L 111.538568 132.17505 
L 111.740496 132.17505 
L 111.942423 120.844408 
L 111.942553 145 
M 112.346208 145 
L 112.346277 132.17505 
L 112.346347 145 
M 112.95199 145 
L 112.952059 132.17505 
L 112.952128 145 
M 113.759699 145 
L 113.759768 132.17505 
L 113.759838 145 
M 114.163554 145 
L 114.163623 132.17505 
L 114.163692 145 
M 114.567409 145 
L 114.567478 132.17505 
L 115.375187 132.17505 
L 115.375256 145 
M 115.778972 145 
L 115.779041 132.17505 
L 115.77911 145 
M 116.182766 145 
L 116.182896 120.844408 
L 116.384823 132.17505 
L 116.384892 145 
M 116.990536 145 
L 116.990605 132.17505 
L 117.192532 132.17505 
L 117.192601 145 
M 117.596318 145 
L 117.596387 132.17505 
L 117.798314 120.844408 
L 117.798444 145 
M 119.009809 145 
L 119.009878 132.17505 
L 119.211805 120.844408 
L 119.211935 145 
M 119.817457 145 
L 119.817587 120.844408 
L 119.817717 145 
M 120.221312 145 
L 120.221442 120.844408 
L 120.221572 145 
M 120.625227 145 
L 120.625296 132.17505 
L 120.625365 145 
M 121.432936 145 
L 121.433006 132.17505 
L 121.433075 145 
M 123.856064 145 
L 123.856133 132.17505 
L 123.856202 145 
M 126.683046 145 
L 126.683115 132.17505 
L 126.683184 145 
M 128.500392 145 
L 128.500461 132.17505 
L 128.50053 145 
M 130.11581 145 
L 130.115879 132.17505 
L 130.115948 145 
M 130.923519 145 
L 130.923588 132.17505 
L 130.923657 145 
M 132.740865 145 
L 132.740934 132.17505 
L 132.741003 145 
M 133.144719 145 
L 133.144788 132.17505 
L 133.144857 145 
M 134.356283 145 
L 134.356352 132.17505 
L 134.356421 145 
M 134.760138 145 
L 134.760207 132.17505 
L 134.760276 145 
M 135.971701 145 
L 135.97177 132.17505 
L 135.97177 132.17505 
" clip-path="url(#p8b760026a8)" style="fill: none; stroke: #033198; stroke-opacity: 0.1; stroke-width: 1.5; stroke-linecap: square"/>
   </g>
   <g id="line2d_33">
    <path d="M 43.287537 145 
L 43.489071 143.711314 
L 43.690998 139.216913 
L 43.892926 138.449323 
L 44.094853 140.869497 
L 44.204402 145 
M 51.242974 145 
L 51.364236 141.762979 
L 51.566163 140.869497 
L 51.704472 145 
M 52.105248 145 
L 52.171945 141.947689 
L 52.373872 142.903907 
L 52.423002 145 
M 53.602874 145 
L 53.787363 137.716166 
L 53.98929 138.300037 
L 54.191218 136.877692 
L 54.393145 139.060484 
L 54.595072 139.216913 
L 54.707209 145 
M 56.008805 145 
L 56.210491 142.903907 
L 56.412418 143.919554 
L 56.457467 145 
M 57.825898 145 
L 57.825909 142.903907 
L 58.229763 124.81449 
L 58.633618 119.286404 
L 59.037473 124.879746 
L 59.441327 135.073869 
L 59.643254 131.573265 
L 59.845182 134.711936 
L 60.047109 129.365872 
L 60.249036 130.617047 
L 60.450964 128.857645 
L 60.652891 135.569261 
L 60.854818 132.906333 
L 61.056746 123.144381 
L 61.258673 118.783391 
L 61.4606 116.873049 
L 61.864455 118.964519 
L 62.066382 118.783391 
L 62.268309 115.380739 
L 62.470237 118.828485 
L 62.874091 110.541533 
L 63.076018 109.513765 
L 63.277946 111.15114 
L 63.6818 124.42833 
L 63.883728 126.529548 
L 64.691437 114.216407 
L 64.893364 107.794027 
L 65.095291 105.9686 
L 65.297219 107.206929 
L 65.499146 104.494931 
L 65.701073 106.051055 
L 65.903 104.30811 
L 66.104928 104.894346 
L 66.306855 106.72611 
L 66.508782 104.401253 
L 66.71071 104.1234 
L 66.912637 102.088208 
L 67.114564 102.366247 
L 67.518419 97.680109 
L 67.720346 97.717303 
L 68.326128 94.423472 
L 68.528055 95.568679 
L 68.729983 94.876146 
L 68.93191 95.601361 
L 69.133837 93.372288 
L 69.335764 93.611909 
L 69.537692 95.417019 
L 69.739619 93.023973 
L 69.941546 92.728599 
L 70.143474 89.584418 
L 70.345401 89.774189 
L 70.749255 86.480017 
L 70.951183 84.887438 
L 71.15311 84.780209 
L 71.355037 86.833335 
L 71.556965 86.355659 
L 72.162747 82.736526 
L 72.566601 78.451183 
L 72.970456 74.957022 
L 73.172383 74.852491 
L 73.576238 73.966737 
L 73.778165 74.6848 
L 73.980092 74.342607 
L 74.383947 72.753039 
L 74.585874 72.602797 
L 74.787801 71.115596 
L 74.989729 71.297037 
L 75.393583 70.503003 
L 75.999365 67.021539 
L 76.201292 65.956113 
L 76.40322 66.136721 
L 76.605147 66.120546 
L 76.807074 66.73181 
L 77.009001 66.2323 
L 77.210929 66.167318 
L 77.412856 65.227465 
L 77.614783 65.159573 
L 78.220565 62.77018 
L 79.432129 60.183567 
L 79.634056 60.080206 
L 79.835984 58.918341 
L 80.037911 58.484778 
L 80.441765 56.785922 
L 80.643693 56.782878 
L 80.84562 56.008094 
L 81.047547 54.713737 
L 81.451402 53.544327 
L 81.855256 50.55441 
L 82.662966 46.650234 
L 83.470675 38.211528 
L 84.480311 22.993733 
L 85.28802 8.546584 
L 85.489948 7.257794 
L 85.691875 7.1824 
L 85.893802 8.288527 
L 86.297657 14.677839 
L 86.903439 26.689965 
L 87.509221 35.031728 
L 88.720784 49.214178 
L 89.124639 51.612403 
L 89.932348 55.297072 
L 90.941985 58.828404 
L 91.143912 59.940527 
L 91.547766 60.488721 
L 91.749694 59.681651 
L 91.951621 60.017017 
L 92.355476 60.807464 
L 92.557403 61.108733 
L 92.75933 62.422674 
L 92.961257 62.369751 
L 93.163185 63.00454 
L 93.365112 63.234778 
L 93.567039 63.246828 
L 94.172821 67.110995 
L 94.374749 67.977116 
L 94.576676 67.977116 
L 94.778603 67.81492 
L 94.98053 67.854819 
L 95.182458 68.073997 
L 95.384385 68.655072 
L 95.78824 70.334769 
L 95.990167 72.608139 
L 96.192094 72.94553 
L 96.394021 73.960932 
L 96.797876 73.565291 
L 97.201731 74.867822 
L 97.403658 74.512808 
L 97.605585 74.806587 
L 97.807512 76.330093 
L 98.00944 76.309978 
L 98.211367 77.333058 
L 98.413294 77.519592 
L 98.615222 79.779359 
L 98.817149 80.135327 
L 99.019076 79.996206 
L 99.221003 79.549005 
L 99.422931 80.173476 
L 99.826785 83.302176 
L 100.23064 88.28644 
L 100.432567 91.209727 
L 100.634495 90.904173 
L 100.836422 91.076894 
L 101.038349 91.623375 
L 101.442204 93.943535 
L 101.644131 94.30216 
L 101.846058 93.923841 
L 102.047986 94.433622 
L 102.249913 94.555917 
L 102.45184 95.427805 
L 102.653767 95.634109 
L 102.855695 94.586634 
L 103.057622 94.886581 
L 103.259549 94.949332 
L 103.461477 95.395468 
L 104.67304 112.020848 
L 105.278822 107.184764 
L 105.48075 106.98662 
L 105.682677 105.323519 
L 105.884604 106.877569 
L 106.288459 114.01334 
L 106.490386 120.590966 
L 106.692313 117.864059 
L 106.894241 117.652586 
L 107.096168 116.67394 
L 107.298095 113.549103 
L 107.70195 115.019072 
L 108.105804 117.237673 
L 108.307732 115.900904 
L 108.509659 116.129 
L 108.711586 115.271396 
L 109.115441 115.638752 
L 109.519295 117.319818 
L 109.92315 122.623558 
L 110.125077 123.743227 
L 110.327004 128.04421 
L 110.570741 145 
M 111.150718 145 
L 111.538568 136.080135 
L 111.740496 132.17505 
L 112.14435 135.443998 
L 112.453053 145 
M 113.929614 145 
L 113.961696 143.505693 
L 114.36555 137.291553 
L 114.567478 134.711936 
L 114.769405 133.560286 
L 114.971332 133.560286 
L 115.375187 138.449323 
L 115.577114 135.822702 
L 115.779041 135.319688 
L 115.980969 138.005495 
L 116.182896 138.752047 
L 116.384823 135.443998 
L 116.788678 143.919554 
L 116.990605 142.903907 
L 117.192532 136.080135 
L 117.39446 133.23004 
L 117.596387 134.952332 
L 117.89558 145 
M 118.82373 145 
L 119.009878 136.877692 
L 119.211805 137.291553 
L 119.413733 132.48446 
L 119.817587 134.593051 
L 120.019514 135.950912 
L 120.221442 133.784217 
L 120.52592 145 
M 135.918075 145 
L 135.97177 143.505693 
L 135.97177 143.505693 
" clip-path="url(#p8b760026a8)" style="fill: none; stroke: #033198; stroke-width: 1.5; stroke-linecap: square"/>
   </g>
   <g id="line2d_34">
    <path d="M 35.8158 145 
L 35.815834 138.595725 
L 35.815869 145 
M 39.450491 145 
L 39.450525 138.595725 
L 39.564658 145 
M 40.460127 145 
L 40.460162 138.595725 
L 40.460196 145 
M 41.267836 145 
L 41.267871 138.595725 
L 41.267905 145 
M 42.681292 145 
L 42.681362 131.967724 
L 42.827897 145 
M 43.892891 145 
L 43.892926 138.595725 
L 44.007059 145 
M 45.394211 145 
L 45.508344 138.595725 
L 45.710271 138.595725 
L 45.710306 145 
M 46.114091 145 
L 46.114126 138.595725 
L 46.316053 138.595725 
L 46.316088 145 
M 46.719873 145 
L 46.719908 138.595725 
L 46.921835 138.595725 
L 47.035968 145 
M 47.931437 145 
L 47.931472 138.595725 
L 47.931506 145 
M 48.9965 145 
L 49.143035 131.967724 
L 49.459095 145 
M 49.634684 145 
L 49.748817 138.595725 
L 49.748852 145 
M 50.409991 145 
L 50.556526 131.967724 
L 50.758454 138.595725 
L 50.758488 145 
M 51.162274 145 
L 51.162308 138.595725 
L 51.364236 138.595725 
L 51.478368 145 
M 52.227337 145 
L 52.373872 131.967724 
L 52.575799 138.595725 
L 52.777727 127.265083 
L 52.979654 138.595725 
L 53.181581 127.265083 
L 53.497641 145 
M 53.67323 145 
L 53.787363 138.595725 
L 53.98929 138.595725 
L 53.989325 145 
M 54.39311 145 
L 54.393145 138.595725 
L 54.595072 127.265083 
L 54.796999 138.595725 
L 54.998927 138.595725 
L 54.998961 145 
M 55.402747 145 
L 55.402781 138.595725 
L 55.604709 131.967724 
L 55.806636 138.595725 
L 56.008563 127.265083 
L 56.210491 138.595725 
L 56.412418 112.286788 
L 56.614345 127.265083 
L 56.816272 127.265083 
L 56.974302 145 
M 57.056011 145 
L 57.220127 123.617431 
L 57.422054 118.117233 
L 57.623982 131.967724 
L 57.825909 131.967724 
L 58.027836 118.117233 
L 58.229763 123.617431 
L 59.037473 123.617431 
L 59.2394 115.93444 
L 59.441327 114.009081 
L 59.643254 123.617431 
L 60.047109 109.306439 
L 60.249036 112.286788 
L 60.450964 120.637082 
L 60.652891 110.728785 
L 60.854818 115.93444 
L 61.258673 106.78659 
L 61.4606 103.612788 
L 61.662527 112.286788 
L 61.864455 102.678438 
L 62.066382 101.79462 
L 62.268309 106.78659 
L 62.470237 100.158589 
L 62.874091 101.79462 
L 63.076018 103.612788 
L 63.277946 106.78659 
L 63.479873 101.79462 
L 63.6818 100.158589 
L 63.883728 97.308493 
L 64.085655 97.975797 
L 64.287582 103.612788 
L 64.489509 102.678438 
L 64.691437 92.282145 
L 64.893364 97.308493 
L 65.095291 94.882322 
L 65.297219 94.328145 
L 65.499146 90.899914 
L 65.701073 93.273155 
L 65.903 88.0675 
L 66.104928 89.625503 
L 66.306855 93.273155 
L 66.508782 90.463977 
L 66.71071 91.808296 
L 67.114564 85.025349 
L 67.316492 82.727303 
L 67.720346 87.340862 
L 67.922273 81.439499 
L 68.124201 83.272242 
L 68.326128 80.951503 
L 68.528055 81.689071 
L 68.93191 75.314512 
L 69.133837 75.658665 
L 69.335764 78.294861 
L 69.739619 74.323502 
L 69.941546 76.010219 
L 70.143474 72.080721 
L 70.345401 71.803653 
L 70.547328 72.080721 
L 70.749255 72.649358 
L 70.951183 70.999556 
L 71.15311 66.264254 
L 71.355037 68.461036 
L 71.556965 69.382219 
L 71.758892 67.273628 
L 71.960819 68.573385 
L 72.566601 64.76866 
L 72.768528 66.461204 
L 72.970456 65.782017 
L 73.172383 64.328022 
L 73.37431 65.406215 
L 73.576238 64.415205 
L 73.778165 62.833378 
L 74.383947 60.890394 
L 74.585874 61.758563 
L 74.787801 61.907848 
L 74.989729 62.364064 
L 75.191656 60.268248 
L 75.797438 58.471513 
L 75.999365 58.410858 
L 76.201292 59.027786 
L 76.40322 58.410858 
L 76.605147 59.154016 
L 76.807074 58.110911 
L 77.009001 59.217498 
L 77.210929 58.965035 
L 77.412856 59.217498 
L 77.614783 57.527039 
L 77.816711 59.603658 
L 78.018638 56.688565 
L 78.220565 58.110911 
L 78.422493 58.170461 
L 78.62442 57.074508 
L 78.826347 57.758091 
L 79.028274 56.963305 
L 79.230202 56.797908 
L 79.432129 57.816368 
L 79.634056 55.995128 
L 80.037911 57.874854 
L 80.239838 56.258365 
L 80.441765 55.582572 
L 80.643693 57.469783 
L 80.84562 56.907987 
L 81.047547 57.130394 
L 81.249475 56.852855 
L 81.653329 52.695852 
L 81.855256 53.890862 
L 82.259111 52.31617 
L 82.461038 50.316844 
L 82.662966 49.489444 
L 82.864893 49.314985 
L 83.470675 43.824706 
L 84.480311 26.567163 
L 85.086093 15.660565 
L 85.489948 9.733857 
L 85.691875 8.433963 
L 85.893802 10.228205 
L 86.499584 19.468437 
L 87.105366 30.709875 
L 88.31693 47.918689 
L 89.326566 55.229934 
L 89.528494 55.787549 
L 89.730421 54.982627 
L 89.932348 55.430509 
L 90.134275 55.430509 
L 90.336203 55.279847 
L 90.53813 57.933549 
L 90.740057 57.130394 
L 90.941985 58.593504 
L 91.143912 55.380134 
L 91.345839 57.469783 
L 91.547766 57.992456 
L 91.749694 57.758091 
L 91.951621 56.152561 
L 92.153548 59.603658 
L 92.355476 57.527039 
L 92.557403 57.874854 
L 92.75933 59.409438 
L 92.961257 56.52591 
L 93.163185 56.47205 
L 93.365112 56.907987 
L 93.567039 59.217498 
L 93.768967 57.992456 
L 93.970894 58.290218 
L 94.172821 57.758091 
L 94.576676 59.734432 
L 94.778603 59.734432 
L 94.98053 60.541838 
L 95.182458 60.404471 
L 95.586312 61.318716 
L 95.78824 58.593504 
L 96.192094 61.246545 
L 96.394021 60.610957 
L 96.595949 61.684428 
L 96.999803 59.345207 
L 97.201731 62.754218 
L 97.403658 63.983869 
L 97.605585 63.983869 
L 97.807512 64.502855 
L 98.00944 63.646813 
L 98.211367 64.679577 
L 98.413294 64.858231 
L 98.817149 66.761151 
L 99.019076 66.166662 
L 99.221003 66.660556 
L 99.624858 69.030664 
L 99.826785 67.695501 
L 100.23064 70.233166 
L 100.432567 69.382219 
L 100.634495 71.531202 
L 100.836422 70.869303 
L 101.038349 73.541215 
L 101.240276 74.484554 
L 101.442204 76.552147 
L 101.644131 74.323502 
L 101.846058 78.091794 
L 102.047986 75.314512 
L 102.249913 80.017153 
L 102.45184 81.19368 
L 102.653767 80.712861 
L 102.855695 80.712861 
L 103.057622 82.199946 
L 103.259549 82.199946 
L 103.461477 82.461498 
L 103.663404 85.025349 
L 103.865331 85.654144 
L 104.067258 85.336723 
L 104.269186 85.977851 
L 104.471113 85.025349 
L 104.67304 84.719795 
L 104.874968 92.770141 
L 105.076895 89.625503 
L 105.278822 94.328145 
L 105.48075 90.039365 
L 105.682677 97.975797 
L 105.884604 96.050437 
L 106.086531 92.770141 
L 106.288459 101.79462 
L 106.490386 93.273155 
L 106.692313 103.612788 
L 106.894241 94.328145 
L 107.096168 98.671504 
L 107.298095 96.050437 
L 107.500022 99.398142 
L 107.70195 99.398142 
L 107.903877 97.308493 
L 108.105804 105.658787 
L 108.307732 101.79462 
L 108.509659 114.009081 
L 108.711586 100.956146 
L 108.913513 114.009081 
L 109.115441 106.78659 
L 109.317368 105.658787 
L 109.519295 112.286788 
L 109.721223 110.728785 
L 109.92315 107.998008 
L 110.125077 120.637082 
L 110.327004 110.728785 
L 110.528932 115.93444 
L 110.932786 106.78659 
L 111.134714 123.617431 
L 111.336641 120.637082 
L 111.740496 112.286788 
L 111.942423 127.265083 
L 112.14435 114.009081 
L 112.346277 115.93444 
L 112.548205 123.617431 
L 112.750132 123.617431 
L 112.914248 145 
M 113.039854 145 
L 113.153987 138.595725 
L 113.355914 120.637082 
L 113.557841 131.967724 
L 113.759768 127.265083 
L 113.961696 127.265083 
L 114.163623 120.637082 
L 114.567478 131.967724 
L 114.714013 145 
M 114.857199 145 
L 115.173259 123.617431 
L 115.375187 138.595725 
L 115.577114 127.265083 
L 115.779041 131.967724 
L 115.980969 120.637082 
L 116.182896 131.967724 
L 116.384823 127.265083 
L 116.384919 145 
M 116.788608 145 
L 116.788678 131.967724 
L 116.935213 145 
M 117.045997 145 
L 117.192532 131.967724 
L 117.39446 138.595725 
L 117.596387 138.595725 
L 117.798314 127.265083 
L 118.000242 131.967724 
L 118.202169 131.967724 
L 118.348704 145 
M 118.459488 145 
L 118.606023 131.967724 
L 118.807951 131.967724 
L 118.954486 145 
M 119.413662 145 
L 119.413733 131.967724 
L 119.61566 138.595725 
L 119.615694 145 
M 120.063412 145 
L 120.221442 127.265083 
L 120.537502 145 
M 120.915018 145 
L 121.029151 138.595725 
L 121.143284 145 
M 121.318873 145 
L 121.634933 127.265083 
L 121.635028 145 
M 122.038753 145 
L 122.038787 138.595725 
L 122.15292 145 
M 123.048389 145 
L 123.048424 138.595725 
L 123.048458 145 
M 123.452244 145 
L 123.452278 138.595725 
L 123.566411 145 
M 124.865699 145 
L 124.865769 131.967724 
L 124.86584 145 
M 125.673444 145 
L 125.673479 138.595725 
L 125.787611 145 
M 126.738507 145 
L 126.885042 131.967724 
L 126.885113 145 
M 129.799819 145 
L 129.913952 138.595725 
L 129.913986 145 
M 132.740899 145 
L 132.740934 138.595725 
L 132.740968 145 
M 135.164027 145 
L 135.164061 138.595725 
L 135.164096 145 
M 135.769748 145 
L 135.769843 127.265083 
L 135.769939 145 
" clip-path="url(#p8b760026a8)" style="fill: none; stroke: #399dc7; stroke-opacity: 0.1; stroke-width: 1.5; stroke-linecap: square"/>
   </g>
   <g id="line2d_35">
    <path d="M 45.479244 145 
L 45.508344 144.065302 
L 45.710271 143.923156 
L 46.114126 144.42617 
L 46.269335 145 
M 46.336954 145 
L 46.719908 142.631063 
L 46.78281 145 
M 48.911466 145 
L 48.941108 143.36662 
L 49.143035 140.546646 
L 49.344963 141.373007 
L 49.502049 145 
M 50.5203 145 
L 50.556526 144.499309 
L 50.758454 139.870136 
L 50.960381 141.252367 
L 51.149714 145 
M 52.008677 145 
L 52.171945 142.307357 
L 52.575799 131.967724 
L 52.777727 132.070211 
L 52.979654 132.914098 
L 53.181581 134.267698 
L 53.383508 137.31876 
L 53.585436 144.136841 
L 53.787363 142.565807 
L 53.98929 143.230397 
L 54.191218 137.99394 
L 54.393145 137.99394 
L 54.595072 139.980961 
L 54.796999 138.905135 
L 54.998927 139.062064 
L 55.200854 139.48806 
L 55.357156 145 
M 55.431041 145 
L 55.806636 129.360538 
L 56.008563 124.520559 
L 56.412418 125.870431 
L 56.614345 124.199816 
L 56.816272 124.716069 
L 57.220127 129.477092 
L 57.422054 125.707079 
L 57.825909 122.897901 
L 58.229763 124.936081 
L 58.633618 121.208883 
L 58.835545 121.565422 
L 59.037473 120.773875 
L 59.643254 115.197811 
L 59.845182 114.100149 
L 60.047109 114.49295 
L 60.249036 114.481261 
L 60.450964 113.594368 
L 60.652891 111.913076 
L 60.854818 111.863223 
L 61.662527 104.913208 
L 62.268309 102.153424 
L 62.470237 101.789243 
L 62.672164 102.838142 
L 62.874091 103.232616 
L 63.479873 100.986824 
L 63.6818 101.433 
L 64.085655 98.913151 
L 64.489509 98.125473 
L 65.499146 91.922537 
L 65.701073 90.715949 
L 66.306855 91.088766 
L 66.71071 88.301362 
L 66.912637 87.347526 
L 67.316492 84.963779 
L 67.518419 83.94568 
L 67.922273 83.661258 
L 68.124201 82.41378 
L 68.528055 78.86534 
L 68.729983 78.209519 
L 68.93191 76.849863 
L 69.133837 76.499427 
L 70.345401 72.329729 
L 70.749255 70.216797 
L 71.355037 68.291177 
L 71.960819 67.563154 
L 72.566601 65.907832 
L 73.37431 64.421216 
L 73.778165 62.651388 
L 74.182019 61.75067 
L 74.585874 61.62398 
L 74.787801 61.373507 
L 75.191656 60.226333 
L 75.59551 58.881091 
L 75.797438 58.615713 
L 76.201292 58.565977 
L 76.40322 58.638719 
L 76.605147 58.921252 
L 76.807074 58.761195 
L 77.009001 58.938048 
L 77.614783 58.466577 
L 77.816711 58.059351 
L 78.62442 57.412726 
L 78.826347 57.438734 
L 79.028274 56.983751 
L 79.432129 57.096839 
L 79.634056 56.753741 
L 80.239838 56.625683 
L 80.441765 57.092999 
L 80.643693 57.063353 
L 81.451402 54.566718 
L 82.662966 49.478923 
L 83.268748 44.884988 
L 83.874529 35.997687 
L 85.28802 11.096801 
L 85.489948 10.121109 
L 85.691875 10.194628 
L 85.893802 11.427218 
L 86.297657 17.284185 
L 87.509221 39.399235 
L 88.115002 47.319016 
L 89.124639 54.704584 
L 89.326566 55.311747 
L 89.528494 55.285472 
L 89.932348 55.589894 
L 90.336203 56.420711 
L 90.941985 57.506619 
L 91.345839 57.191036 
L 91.547766 57.392093 
L 91.749694 57.396715 
L 91.951621 58.16077 
L 92.355476 57.992456 
L 92.557403 57.680107 
L 92.75933 57.686984 
L 92.961257 57.310524 
L 93.163185 57.565442 
L 93.365112 57.511274 
L 93.567039 57.577663 
L 93.970894 58.521724 
L 94.374749 58.982659 
L 94.98053 60.581114 
L 95.182458 60.368176 
L 95.78824 60.2674 
L 95.990167 60.537528 
L 96.192094 60.326429 
L 96.394021 60.388662 
L 96.797876 61.250146 
L 97.403658 63.141777 
L 97.807512 64.540249 
L 98.00944 64.599263 
L 98.413294 65.292833 
L 98.615222 65.71385 
L 99.019076 66.933597 
L 99.624858 68.193132 
L 100.028713 69.264927 
L 100.432567 70.339578 
L 101.038349 73.683144 
L 102.855695 81.934533 
L 103.057622 82.117448 
L 103.461477 83.880848 
L 103.663404 84.748199 
L 103.865331 84.655594 
L 104.67304 87.72059 
L 105.48075 94.755984 
L 105.682677 94.229681 
L 105.884604 96.179601 
L 106.086531 96.37914 
L 106.288459 97.551403 
L 106.490386 96.750094 
L 106.894241 97.975797 
L 107.096168 96.916817 
L 107.298095 98.181418 
L 107.500022 97.622069 
L 107.70195 100.467999 
L 107.903877 100.976592 
L 108.307732 104.958823 
L 108.711586 107.709782 
L 108.913513 107.84158 
L 109.317368 108.533226 
L 109.519295 110.617709 
L 109.721223 110.617709 
L 109.92315 113.319996 
L 110.327004 112.093815 
L 110.730859 114.63387 
L 110.932786 113.319996 
L 111.134714 115.807228 
L 111.740496 118.131834 
L 111.942423 115.921674 
L 112.14435 117.713591 
L 112.548205 124.716069 
L 112.750132 126.106658 
L 112.952059 131.073155 
L 113.153987 132.699007 
L 113.759768 124.052263 
L 113.961696 125.339723 
L 114.163623 129.506361 
L 114.36555 128.902458 
L 114.971332 136.400167 
L 115.375187 129.506361 
L 115.577114 126.035431 
L 116.182896 130.534031 
L 116.586751 136.355565 
L 116.788678 142.436071 
L 117.39446 132.416552 
L 117.596387 133.957063 
L 117.798314 133.022714 
L 118.000242 133.022714 
L 118.202169 132.416552 
L 118.606023 140.036657 
L 118.807951 139.167527 
L 119.009878 140.954606 
L 119.225574 145 
M 119.513001 145 
L 119.817587 139.380516 
L 120.019514 139.596316 
L 120.221442 141.555653 
L 120.423369 141.013726 
L 120.625296 141.8024 
L 120.827224 140.318018 
L 121.029151 143.712228 
L 121.433006 138.142322 
L 121.634933 139.220514 
L 121.900458 145 
M 135.8919 145 
L 135.97177 143.699532 
L 135.97177 143.699532 
" clip-path="url(#p8b760026a8)" style="fill: none; stroke: #399dc7; stroke-width: 1.5; stroke-linecap: square"/>
   </g>
   <g id="line2d_36">
    <path d="M 37.027358 145 
L 37.027398 137.682835 
L 37.1578 145 
M 38.036995 145 
L 38.037034 137.682835 
L 38.037074 145 
M 41.267796 145 
L 41.267871 131.054834 
L 41.424671 145 
M 41.514926 145 
L 41.671726 131.054834 
L 41.873653 137.682835 
L 42.07558 137.682835 
L 42.07562 145 
M 42.681287 145 
L 42.681362 131.054834 
L 42.838162 145 
M 44.77216 145 
L 44.902562 137.682835 
L 45.032964 145 
M 47.325615 145 
L 47.32569 131.054834 
L 47.482489 145 
M 47.599143 145 
L 47.931472 131.054834 
L 48.133399 126.352193 
L 48.465728 145 
M 49.618415 145 
L 49.748817 137.682835 
L 49.879219 145 
M 50.197799 145 
L 50.354599 131.054834 
L 50.556526 131.054834 
L 50.758454 126.352193 
L 50.960381 131.054834 
L 51.162308 131.054834 
L 51.319108 145 
M 51.399998 145 
L 51.566163 126.352193 
L 51.76809 131.054834 
L 51.970017 126.352193 
L 52.373872 137.682835 
L 52.777727 137.682835 
L 52.979654 122.70454 
L 53.181581 137.682835 
L 53.383508 119.724192 
L 53.585436 137.682835 
L 53.787363 126.352193 
L 53.98929 137.682835 
L 54.191218 117.204343 
L 54.796999 131.054834 
L 54.998927 115.02155 
L 55.200854 137.682835 
L 55.402781 119.724192 
L 55.604709 131.054834 
L 56.008563 115.02155 
L 56.210491 117.204343 
L 56.412418 122.70454 
L 56.816272 113.096191 
L 57.0182 113.096191 
L 57.220127 111.373898 
L 57.422054 122.70454 
L 57.623982 103.690908 
L 57.825909 126.352193 
L 58.027836 105.8737 
L 58.229763 105.8737 
L 58.431691 111.373898 
L 58.633618 113.096191 
L 58.835545 113.096191 
L 59.037473 105.8737 
L 59.2394 105.8737 
L 59.441327 107.085118 
L 59.643254 115.02155 
L 59.845182 117.204343 
L 60.047109 102.699897 
L 60.249036 99.245699 
L 60.450964 105.8737 
L 60.652891 100.88173 
L 61.056746 97.758614 
L 61.258673 102.699897 
L 61.4606 95.137547 
L 61.662527 99.245699 
L 61.864455 100.88173 
L 62.066382 91.369255 
L 62.268309 92.360265 
L 62.470237 97.062907 
L 62.672164 92.87925 
L 62.874091 93.969432 
L 63.076018 95.754476 
L 63.277946 92.87925 
L 63.479873 86.787254 
L 63.6818 89.987024 
L 64.287582 87.15461 
L 64.489509 87.915057 
L 64.691437 87.15461 
L 65.095291 83.506958 
L 65.297219 83.506958 
L 65.499146 79.799971 
L 65.701073 82.638789 
L 65.903 78.878788 
L 66.104928 80.776181 
L 66.306855 76.978329 
L 66.508782 79.104263 
L 66.71071 76.39096 
L 66.912637 78.656381 
L 67.114564 74.232225 
L 67.316492 76.978329 
L 67.518419 75.823967 
L 67.720346 73.251131 
L 67.922273 73.734318 
L 68.326128 70.086666 
L 68.528055 71.449677 
L 68.729983 69.320276 
L 68.93191 68.588214 
L 69.133837 68.469328 
L 69.335764 69.82719 
L 69.739619 65.949479 
L 69.941546 66.360738 
L 70.143474 65.747666 
L 70.547328 61.684147 
L 70.749255 65.156759 
L 70.951183 60.920145 
L 71.15311 61.762548 
L 71.355037 61.374248 
L 71.556965 61.374248 
L 71.758892 61.14562 
L 71.960819 60.048116 
L 72.162747 59.628948 
L 72.364674 60.845673 
L 72.566601 57.680614 
L 72.768528 57.437536 
L 72.970456 56.787131 
L 73.172383 56.556893 
L 73.37431 57.497968 
L 73.576238 56.161617 
L 73.778165 57.619505 
L 74.182019 55.451968 
L 74.383947 57.558623 
L 74.787801 54.517619 
L 74.989729 55.239671 
L 75.191656 54.874658 
L 75.393583 53.777825 
L 75.797438 55.187025 
L 75.999365 54.669682 
L 76.201292 54.517619 
L 76.40322 53.209188 
L 76.605147 55.830255 
L 76.807074 55.939964 
L 77.210929 53.874551 
L 77.412856 54.1189 
L 77.816711 54.1189 
L 78.018638 55.134547 
L 78.220565 55.292487 
L 78.422493 54.720686 
L 78.62442 54.874658 
L 78.826347 54.56815 
L 79.028274 55.885018 
L 79.230202 55.398635 
L 79.432129 54.467244 
L 79.634056 54.771849 
L 79.835984 56.729267 
L 80.037911 56.161617 
L 80.239838 53.874551 
L 80.441765 55.292487 
L 80.643693 55.292487 
L 80.84562 56.050415 
L 81.047547 53.209188 
L 81.249475 54.217672 
L 81.451402 53.302598 
L 81.653329 54.168211 
L 81.855256 53.777825 
L 82.057184 54.069737 
L 82.259111 53.209188 
L 82.461038 53.023954 
L 82.662966 50.789441 
L 82.864893 50.589846 
L 83.06682 49.552224 
L 83.268748 45.986697 
L 83.470675 45.31221 
L 83.874529 40.388423 
L 84.884166 22.694075 
L 85.489948 13.918726 
L 85.691875 13.433454 
L 86.09573 17.328164 
L 86.701511 25.60257 
L 87.509221 39.783309 
L 87.913075 45.837684 
L 88.115002 47.165905 
L 88.31693 51.196095 
L 88.518857 52.480525 
L 88.720784 50.991504 
L 89.124639 54.720686 
L 89.326566 54.771849 
L 89.528494 55.292487 
L 89.932348 55.239671 
L 90.134275 56.105922 
L 90.336203 57.497968 
L 90.53813 54.069737 
L 90.740057 57.257571 
L 90.941985 57.803522 
L 91.143912 56.329852 
L 91.345839 55.995097 
L 91.547766 58.177889 
L 91.749694 55.775675 
L 91.951621 57.020659 
L 92.153548 55.134547 
L 92.355476 56.845201 
L 92.75933 54.417024 
L 92.961257 58.432317 
L 93.163185 55.939964 
L 93.365112 55.505476 
L 93.567039 55.667059 
L 93.970894 57.437536 
L 94.172821 53.116309 
L 94.576676 56.161617 
L 94.778603 53.971853 
L 94.98053 54.168211 
L 95.182458 53.586073 
L 95.384385 54.168211 
L 95.78824 56.499836 
L 95.990167 55.030095 
L 96.192094 56.273581 
L 96.394021 54.669682 
L 96.595949 56.671607 
L 96.797876 57.079566 
L 96.999803 57.927361 
L 97.201731 57.079566 
L 97.403658 58.114896 
L 97.605585 55.030095 
L 97.807512 53.681668 
L 98.00944 58.241126 
L 98.211367 55.939964 
L 98.413294 57.865324 
L 98.615222 57.619505 
L 98.817149 59.628948 
L 99.019076 57.989634 
L 99.221003 58.95337 
L 99.422931 59.019685 
L 99.826785 61.221475 
L 100.028713 60.190262 
L 100.23064 61.070115 
L 100.432567 59.628948 
L 100.836422 64.680146 
L 101.038349 63.328412 
L 101.240276 63.415132 
L 101.442204 63.945341 
L 101.846058 67.773621 
L 102.047986 68.950147 
L 102.249913 66.570313 
L 102.45184 69.571768 
L 102.653767 65.848261 
L 103.057622 71.167831 
L 103.259549 70.350328 
L 103.461477 74.745775 
L 103.663404 74.572793 
L 103.865331 73.410612 
L 104.067258 74.745775 
L 104.269186 72.628325 
L 104.471113 73.410612 
L 104.67304 81.029623 
L 104.874968 76.199769 
L 105.076895 77.178904 
L 105.278822 76.199769 
L 105.682677 82.359352 
L 105.884604 77.795832 
L 106.086531 86.427972 
L 106.288459 81.029623 
L 106.490386 85.064961 
L 106.894241 88.308971 
L 107.096168 83.506958 
L 107.298095 85.732264 
L 107.500022 93.969432 
L 107.70195 87.530412 
L 107.903877 89.987024 
L 108.105804 90.434906 
L 108.307732 91.857251 
L 108.509659 87.915057 
L 108.711586 98.485252 
L 108.913513 95.137547 
L 109.115441 97.758614 
L 109.317368 94.543058 
L 109.519295 93.415255 
L 109.721223 90.434906 
L 110.327004 102.699897 
L 110.528932 100.043255 
L 110.730859 95.137547 
L 110.932786 101.765548 
L 111.336641 105.8737 
L 111.538568 101.765548 
L 111.740496 103.690908 
L 112.14435 115.02155 
L 112.346277 111.373898 
L 112.548205 104.745897 
L 112.750132 105.8737 
L 113.153987 105.8737 
L 113.355914 108.393549 
L 113.557841 113.096191 
L 113.759768 109.815895 
L 113.961696 126.352193 
L 114.163623 113.096191 
L 114.36555 117.204343 
L 114.567478 126.352193 
L 114.971332 117.204343 
L 115.173259 113.096191 
L 115.375187 119.724192 
L 115.577114 131.054834 
L 115.779041 126.352193 
L 115.980969 115.02155 
L 116.182896 111.373898 
L 116.384823 137.682835 
L 116.586751 126.352193 
L 116.788678 131.054834 
L 116.990605 122.70454 
L 117.192532 119.724192 
L 117.596387 126.352193 
L 117.798314 122.70454 
L 118.000242 137.682835 
L 118.202169 126.352193 
L 118.368333 145 
M 118.434901 145 
L 118.606023 122.70454 
L 119.009878 137.682835 
L 119.211805 137.682835 
L 119.211845 145 
M 119.615559 145 
L 119.61566 126.352193 
L 119.817587 131.054834 
L 120.019514 131.054834 
L 120.221442 137.682835 
L 120.423369 131.054834 
L 120.625296 137.682835 
L 120.827224 137.682835 
L 120.957625 145 
M 121.100676 145 
L 121.433006 131.054834 
L 121.634933 137.682835 
L 121.634972 145 
M 122.48777 145 
L 122.644569 131.054834 
L 122.846497 131.054834 
L 122.846572 145 
M 123.523804 145 
L 123.654206 137.682835 
L 123.784607 145 
M 123.927659 145 
L 124.05806 137.682835 
L 124.0581 145 
M 124.507042 145 
L 124.663842 131.054834 
L 124.865769 131.054834 
L 125.198098 145 
M 125.34115 145 
L 125.471551 137.682835 
L 125.601953 145 
M 128.298494 145 
L 128.298533 137.682835 
L 128.298573 145 
M 130.11584 145 
L 130.115879 137.682835 
L 130.317806 137.682835 
L 130.317846 145 
M 131.327403 145 
L 131.327443 137.682835 
L 131.327482 145 
M 132.610532 145 
L 132.740934 137.682835 
L 132.740973 145 
M 135.209189 145 
L 135.365989 131.054834 
L 135.567916 126.352193 
L 135.769843 137.682835 
L 135.769883 145 
L 135.769883 145 
" clip-path="url(#p8b760026a8)" style="fill: none; stroke: #c1eac2; stroke-opacity: 0.1; stroke-width: 1.5; stroke-linecap: square"/>
   </g>
   <g id="line2d_37">
    <path d="M 41.132456 145 
L 41.267871 139.235731 
L 41.469798 136.643817 
L 41.671726 139.068071 
L 41.873653 139.865628 
L 42.07558 144.107769 
L 42.277507 143.223951 
L 42.355347 145 
M 44.718583 145 
L 44.902562 144.568269 
L 44.958798 145 
M 47.209121 145 
L 47.527617 134.787848 
L 47.729544 132.777127 
L 47.931472 133.15997 
L 48.335326 138.737824 
L 48.514896 145 
M 49.755217 145 
L 50.152672 135.666912 
L 50.354599 131.8575 
L 50.556526 132.109823 
L 50.758454 130.51883 
L 51.162308 131.538703 
L 51.364236 130.885437 
L 51.566163 131.088925 
L 51.76809 130.651192 
L 51.970017 132.514373 
L 52.171945 130.952985 
L 52.373872 134.959919 
L 52.575799 131.893308 
L 52.777727 131.679623 
L 52.979654 128.829528 
L 53.181581 129.465901 
L 53.585436 126.275747 
L 53.787363 126.250344 
L 53.98929 126.818532 
L 54.393145 124.156634 
L 54.595072 123.586089 
L 54.796999 123.890829 
L 54.998927 127.00354 
L 55.604709 121.732773 
L 55.806636 122.201527 
L 56.008563 119.122406 
L 56.210491 118.431486 
L 56.412418 115.240109 
L 56.614345 116.758039 
L 56.816272 114.090749 
L 57.0182 114.018525 
L 57.825909 109.8624 
L 58.027836 110.239285 
L 58.229763 109.778785 
L 58.431691 110.508372 
L 58.633618 107.940146 
L 59.2394 110.267905 
L 59.441327 108.42764 
L 59.845182 107.418573 
L 60.047109 105.641829 
L 60.450964 101.18566 
L 60.652891 99.754643 
L 60.854818 99.49572 
L 61.056746 100.063702 
L 61.662527 96.75089 
L 62.066382 94.343595 
L 62.470237 94.444836 
L 62.672164 93.679608 
L 62.874091 93.610533 
L 63.6818 88.807391 
L 63.883728 88.165078 
L 64.085655 88.130534 
L 64.287582 87.888321 
L 64.489509 87.073542 
L 65.095291 83.278226 
L 66.104928 79.104263 
L 66.508782 77.412649 
L 66.71071 77.304254 
L 66.912637 76.520079 
L 67.114564 76.268818 
L 67.922273 72.707769 
L 68.326128 70.376929 
L 69.537692 67.648521 
L 69.941546 65.513058 
L 70.345401 63.629561 
L 70.951183 61.911563 
L 71.15311 61.734575 
L 71.556965 60.900097 
L 71.758892 60.880539 
L 72.162747 59.551108 
L 72.566601 58.039232 
L 72.970456 56.971854 
L 73.37431 56.727101 
L 73.576238 56.738656 
L 73.778165 56.928309 
L 74.383947 56.19303 
L 74.787801 55.1506 
L 75.191656 54.457502 
L 75.393583 54.602029 
L 75.797438 54.282816 
L 76.201292 54.881106 
L 76.807074 54.761923 
L 77.412856 54.180253 
L 77.614783 54.244319 
L 78.018638 54.702178 
L 78.62442 55.160109 
L 78.826347 54.886588 
L 79.028274 54.973579 
L 79.230202 55.416282 
L 79.634056 55.389319 
L 79.835984 55.180456 
L 80.037911 55.529612 
L 80.239838 55.470007 
L 80.441765 55.210036 
L 80.643693 54.635662 
L 81.653329 53.859097 
L 81.855256 53.893358 
L 82.259111 53.192605 
L 82.864893 49.562234 
L 83.268748 46.490237 
L 83.874529 38.015067 
L 85.086093 17.466994 
L 85.28802 15.602183 
L 85.489948 14.782118 
L 85.691875 14.79244 
L 85.893802 15.817316 
L 86.297657 20.815992 
L 87.913075 47.083655 
L 88.518857 52.092371 
L 88.922712 53.927691 
L 89.124639 54.149394 
L 89.326566 54.649325 
L 89.528494 55.722974 
L 89.932348 55.581356 
L 90.336203 56.287279 
L 90.53813 56.340072 
L 90.740057 56.692845 
L 90.941985 56.652192 
L 91.345839 56.979183 
L 91.547766 56.552607 
L 91.749694 56.505533 
L 91.951621 56.073289 
L 92.355476 55.897021 
L 92.557403 56.090986 
L 92.75933 55.900453 
L 92.961257 56.004418 
L 93.163185 56.376069 
L 93.365112 56.351357 
L 93.768967 55.630226 
L 93.970894 55.643395 
L 94.172821 55.41495 
L 94.778603 54.051339 
L 94.98053 54.52298 
L 95.182458 54.33855 
L 96.192094 56.002001 
L 96.394021 56.151509 
L 96.797876 57.387848 
L 96.999803 56.855748 
L 97.201731 56.904573 
L 97.403658 56.282361 
L 97.807512 55.851111 
L 98.211367 56.831391 
L 98.615222 58.35956 
L 98.817149 58.288317 
L 99.019076 59.085437 
L 99.221003 59.318517 
L 99.422931 59.891856 
L 99.624858 59.868217 
L 100.028713 60.807173 
L 101.038349 63.863029 
L 101.240276 65.102441 
L 101.442204 65.371565 
L 101.846058 67.254791 
L 102.249913 68.149687 
L 102.45184 68.018085 
L 102.653767 68.530149 
L 103.259549 72.280672 
L 103.461477 73.799836 
L 103.663404 73.38259 
L 104.067258 74.655812 
L 104.269186 74.892069 
L 104.67304 76.086119 
L 105.076895 77.941874 
L 105.278822 78.800601 
L 105.48075 78.852219 
L 106.086531 83.460584 
L 106.288459 84.098971 
L 106.490386 84.353255 
L 106.692313 86.130852 
L 106.894241 86.100346 
L 107.096168 87.556568 
L 107.298095 87.774575 
L 107.500022 88.840823 
L 107.70195 88.980428 
L 107.903877 90.471841 
L 108.105804 90.779059 
L 108.307732 91.369255 
L 108.711586 94.71177 
L 108.913513 94.859906 
L 109.317368 94.510251 
L 109.519295 93.752453 
L 109.721223 95.111081 
L 109.92315 95.547528 
L 110.327004 98.615802 
L 110.528932 100.74785 
L 110.730859 100.962587 
L 110.932786 100.865606 
L 111.134714 101.489767 
L 111.740496 107.857545 
L 112.14435 108.97417 
L 112.346277 109.036039 
L 112.750132 106.340039 
L 112.952059 105.613075 
L 113.759768 114.284921 
L 114.163623 119.690172 
L 114.36555 119.537951 
L 114.567478 119.056888 
L 114.769405 117.981478 
L 114.971332 120.925134 
L 115.173259 121.277087 
L 115.375187 118.290498 
L 115.577114 118.845751 
L 116.182896 122.083072 
L 116.384823 121.906984 
L 116.586751 123.308114 
L 116.788678 126.174372 
L 116.990605 125.21758 
L 117.192532 122.807028 
L 117.39446 123.034787 
L 118.000242 129.52782 
L 118.202169 130.289744 
L 118.404096 130.289744 
L 118.606023 134.323782 
L 118.807951 134.199472 
L 119.009878 136.124832 
L 119.211805 134.449045 
L 119.413733 137.580986 
L 119.817587 132.739331 
L 120.019514 131.679623 
L 120.221442 132.403045 
L 120.423369 137.682835 
L 120.625296 137.785322 
L 120.827224 136.691825 
L 121.029151 137.530299 
L 121.433006 141.458697 
L 121.560032 145 
M 122.344749 145 
L 122.644569 143.010266 
L 122.846497 143.295804 
L 123.160678 145 
M 123.932377 145 
L 124.259988 140.399686 
L 124.461915 140.041715 
L 124.663842 137.379173 
L 124.865769 137.130361 
L 125.067697 135.802946 
L 125.410689 145 
M 134.898191 145 
L 134.962134 141.330487 
L 135.365989 139.078184 
L 135.567916 139.024323 
L 135.769843 140.079312 
L 135.97177 142.484849 
L 135.97177 142.484849 
" clip-path="url(#p8b760026a8)" style="fill: none; stroke: #c1eac2; stroke-width: 1.5; stroke-linecap: square"/>
   </g>
   <g id="line2d_38">
    <path d="M 36.421563 145 
L 36.421616 135.206355 
L 36.421669 145 
M 38.238909 145 
L 38.238962 135.206355 
L 38.440889 135.206355 
L 38.440942 145 
M 39.450473 145 
L 39.450525 135.206355 
L 39.625061 145 
M 42.479382 145 
L 42.479435 135.206355 
L 42.653971 145 
M 42.708753 145 
L 42.883289 135.206355 
L 42.883342 145 
M 43.287091 145 
L 43.287144 135.206355 
L 43.489071 123.875713 
L 43.865534 145 
M 44.728026 145 
L 44.902562 135.206355 
L 45.306417 135.206355 
L 45.508344 128.578355 
L 45.710271 135.206355 
L 45.884807 145 
M 46.517928 145 
L 46.517981 135.206355 
L 46.719908 128.578355 
L 46.921835 135.206355 
L 47.123762 128.578355 
L 47.32569 128.578355 
L 47.527617 135.206355 
L 47.702153 145 
M 47.756936 145 
L 47.931472 135.206355 
L 48.133399 135.206355 
L 48.335326 123.875713 
L 48.537253 135.206355 
L 49.143035 135.206355 
L 49.344963 120.228061 
L 49.54689 128.578355 
L 50.152672 128.578355 
L 50.354599 120.228061 
L 50.556526 117.247712 
L 50.758454 128.578355 
L 50.960381 120.228061 
L 51.162308 120.228061 
L 51.566163 128.578355 
L 51.76809 114.727863 
L 51.970017 120.228061 
L 52.171945 108.897418 
L 52.373872 117.247712 
L 52.979654 117.247712 
L 53.181581 112.545071 
L 53.383508 117.247712 
L 53.585436 128.578355 
L 53.787363 112.545071 
L 53.98929 114.727863 
L 54.191218 120.228061 
L 54.393145 117.247712 
L 54.796999 107.339415 
L 54.998927 114.727863 
L 55.200854 99.289069 
L 55.402781 120.228061 
L 55.604709 117.247712 
L 55.806636 104.608638 
L 56.008563 107.339415 
L 56.210491 105.91707 
L 56.412418 108.897418 
L 56.614345 101.214428 
L 56.816272 104.608638 
L 57.0182 99.289069 
L 57.220127 107.339415 
L 57.422054 99.289069 
L 57.623982 101.214428 
L 57.825909 99.289069 
L 58.027836 99.289069 
L 58.229763 107.339415 
L 58.431691 93.277996 
L 58.633618 103.397221 
L 58.835545 90.402771 
L 59.2394 99.289069 
L 59.441327 94.586427 
L 59.643254 95.282135 
L 59.845182 94.586427 
L 60.047109 92.066578 
L 60.249036 90.938775 
L 60.450964 95.282135 
L 60.854818 88.892775 
L 61.056746 94.586427 
L 61.258673 90.402771 
L 61.4606 93.919124 
L 61.662527 83.951492 
L 62.066382 82.264774 
L 62.268309 84.67813 
L 62.470237 82.918728 
L 62.672164 86.236133 
L 63.076018 79.337934 
L 63.277946 78.299701 
L 63.479873 78.810576 
L 63.6818 80.446607 
L 63.883728 78.553143 
L 64.085655 82.588481 
L 64.287582 77.562133 
L 64.489509 75.96048 
L 64.691437 78.810576 
L 64.893364 73.914481 
L 65.095291 74.702424 
L 65.297219 74.905491 
L 65.499146 72.096313 
L 65.701073 72.269295 
L 65.903 68.831667 
L 66.104928 68.973198 
L 66.306855 73.72329 
L 66.508782 69.115964 
L 66.912637 67.095289 
L 67.114564 68.141832 
L 67.316492 65.874822 
L 67.518419 65.071666 
L 67.720346 65.757641 
L 68.124201 64.306131 
L 68.326128 65.411056 
L 68.93191 62.203666 
L 69.133837 62.680279 
L 69.537692 59.051983 
L 69.739619 61.025835 
L 69.941546 59.845667 
L 70.143474 60.174254 
L 70.547328 58.821203 
L 70.749255 56.476891 
L 70.951183 58.518479 
L 71.355037 55.764646 
L 71.556965 57.152469 
L 71.758892 55.450881 
L 71.960819 56.946847 
L 72.162747 55.575665 
L 72.364674 55.891858 
L 72.566601 55.891858 
L 72.768528 56.020068 
L 72.970456 53.966499 
L 73.172383 54.485484 
L 73.37431 54.080413 
L 73.576238 54.195127 
L 73.980092 56.476891 
L 74.182019 55.327042 
L 74.383947 53.244797 
L 74.585874 53.299195 
L 74.787801 52.244206 
L 75.393583 54.84086 
L 75.59551 54.84086 
L 75.797438 53.136541 
L 75.999365 53.408538 
L 76.201292 54.721541 
L 76.40322 53.244797 
L 76.605147 56.345062 
L 77.009001 54.426998 
L 77.210929 54.84086 
L 77.412856 53.797102 
L 77.614783 55.513154 
L 77.816711 54.426998 
L 78.018638 54.080413 
L 78.220565 55.955837 
L 78.62442 53.797102 
L 78.826347 56.476891 
L 79.028274 53.685138 
L 79.230202 55.265473 
L 79.432129 55.082144 
L 79.634056 54.662206 
L 79.835984 52.710545 
L 80.037911 53.685138 
L 80.239838 53.629442 
L 80.441765 56.543206 
L 80.643693 54.721541 
L 80.84562 56.345062 
L 81.047547 53.08268 
L 81.249475 54.84086 
L 81.451402 54.961057 
L 81.653329 53.408538 
L 81.855256 54.195127 
L 82.057184 56.609791 
L 82.259111 52.763191 
L 82.662966 51.840564 
L 83.470675 45.279148 
L 84.076457 37.245491 
L 84.278384 32.48174 
L 84.480311 30.515768 
L 85.086093 21.756887 
L 85.691875 17.576804 
L 85.893802 18.73834 
L 86.903439 32.164613 
L 87.913075 47.916178 
L 88.115002 49.651543 
L 88.31693 49.52129 
L 88.720784 53.190579 
L 89.124639 54.900848 
L 89.326566 54.781092 
L 89.932348 58.518479 
L 90.336203 55.701409 
L 90.53813 56.946847 
L 90.941985 56.609791 
L 91.143912 57.360709 
L 91.345839 57.152469 
L 91.547766 58.221258 
L 91.749694 56.020068 
L 91.951621 57.501025 
L 92.153548 55.828128 
L 92.355476 58.593636 
L 92.557403 55.082144 
L 92.961257 55.955837 
L 93.365112 55.388844 
L 93.567039 57.571637 
L 93.768967 54.961057 
L 93.970894 57.360709 
L 94.172821 55.204134 
L 94.374749 56.345062 
L 94.576676 54.544179 
L 94.778603 56.609791 
L 94.98053 55.955837 
L 95.182458 54.603086 
L 95.384385 55.204134 
L 95.586312 56.214288 
L 95.990167 54.961057 
L 96.394021 55.021488 
L 96.595949 53.190579 
L 96.999803 55.327042 
L 97.201731 52.868995 
L 97.403658 55.955837 
L 97.605585 55.828128 
L 97.807512 53.797102 
L 98.00944 54.961057 
L 98.211367 55.082144 
L 98.413294 57.015101 
L 98.615222 57.015101 
L 98.817149 54.544179 
L 99.019076 58.074651 
L 99.221003 56.149291 
L 99.422931 56.020068 
L 99.826785 57.430716 
L 100.028713 57.571637 
L 100.23064 58.443665 
L 100.432567 58.14779 
L 100.634495 57.642555 
L 100.836422 59.603489 
L 101.038349 58.369193 
L 101.240276 60.76567 
L 101.442204 61.37929 
L 101.644131 59.207667 
L 101.846058 59.927196 
L 102.45184 64.413323 
L 102.653767 60.341058 
L 102.855695 64.413323 
L 103.057622 62.583838 
L 103.259549 66.352131 
L 103.461477 65.992849 
L 103.663404 66.843797 
L 103.865331 62.203666 
L 104.067258 66.719487 
L 104.471113 68.007291 
L 104.67304 71.095184 
L 104.874968 68.55223 
L 105.076895 72.444127 
L 105.48075 68.007291 
L 105.682677 72.444127 
L 105.884604 74.303705 
L 106.086531 72.096313 
L 106.288459 75.111112 
L 106.490386 73.72329 
L 106.692313 74.501849 
L 106.894241 78.553143 
L 107.096168 76.856412 
L 107.298095 79.882873 
L 107.500022 77.80431 
L 107.70195 77.088283 
L 107.903877 80.446607 
L 108.105804 79.882873 
L 108.307732 81.947354 
L 108.509659 81.947354 
L 108.711586 83.951492 
L 108.913513 82.264774 
L 109.115441 89.883786 
L 109.317368 84.310774 
L 109.519295 95.282135 
L 109.721223 92.066578 
L 109.92315 87.074608 
L 110.125077 93.277996 
L 110.327004 91.492952 
L 110.528932 91.492952 
L 110.730859 93.919124 
L 110.932786 92.066578 
L 111.134714 97.566776 
L 111.336641 94.586427 
L 111.538568 98.40525 
L 111.740496 97.566776 
L 111.942423 94.586427 
L 112.14435 93.919124 
L 112.346277 102.269417 
L 112.548205 90.938775 
L 112.750132 96.008773 
L 112.952059 93.919124 
L 113.355914 99.289069 
L 113.557841 104.608638 
L 113.759768 97.566776 
L 113.961696 108.897418 
L 114.163623 104.608638 
L 114.36555 103.397221 
L 114.567478 107.339415 
L 114.769405 105.91707 
L 114.971332 110.619711 
L 115.173259 112.545071 
L 115.375187 105.91707 
L 115.779041 120.228061 
L 115.980969 102.269417 
L 116.182896 117.247712 
L 116.384823 114.727863 
L 116.586751 107.339415 
L 116.788678 120.228061 
L 116.990605 123.875713 
L 117.192532 110.619711 
L 117.39446 107.339415 
L 117.588469 145 
M 117.613669 145 
L 118.000242 114.727863 
L 118.202169 135.206355 
L 118.404096 120.228061 
L 118.606023 123.875713 
L 118.807951 114.727863 
L 119.009878 123.875713 
L 119.19811 145 
M 119.222402 145 
L 119.413733 117.247712 
L 119.61566 123.875713 
L 119.817587 117.247712 
L 120.019514 135.206355 
L 120.221442 123.875713 
L 120.423369 135.206355 
L 120.625296 114.727863 
L 121.029151 128.578355 
L 121.231078 135.206355 
L 121.433006 128.578355 
L 121.634933 128.578355 
L 121.83686 123.875713 
L 122.038787 128.578355 
L 122.240715 128.578355 
L 122.240803 145 
M 122.644516 145 
L 122.644569 135.206355 
L 122.846497 135.206355 
L 123.048424 128.578355 
L 123.250351 135.206355 
L 123.452278 128.578355 
L 123.636924 145 
M 123.883524 145 
L 124.05806 135.206355 
L 124.232596 145 
M 124.479197 145 
L 124.663842 128.578355 
L 125.269624 128.578355 
L 125.454269 145 
M 125.498943 145 
L 125.673479 135.206355 
L 125.875406 135.206355 
L 126.049942 145 
M 126.508579 145 
L 126.683115 135.206355 
L 126.857651 145 
M 127.518216 145 
L 127.692752 135.206355 
L 127.894679 135.206355 
L 128.069215 145 
M 128.500408 145 
L 128.500461 135.206355 
L 128.500513 145 
M 129.729306 145 
L 129.913952 128.578355 
L 129.91404 145 
M 131.546652 145 
L 131.731297 128.578355 
L 131.933225 135.206355 
L 132.135152 128.578355 
L 132.13524 145 
M 134.760154 145 
L 134.760207 135.206355 
L 134.934743 145 
M 135.797235 145 
L 135.97177 135.206355 
L 135.97177 135.206355 
" clip-path="url(#p8b760026a8)" style="fill: none; stroke: #b58b31; stroke-opacity: 0.1; stroke-width: 1.5; stroke-linecap: square"/>
   </g>
   <g id="line2d_39">
    <path d="M 42.59782 145 
L 42.883289 137.68369 
L 43.085217 134.952914 
L 43.287144 134.952914 
L 43.489071 134.802714 
L 43.892926 142.248218 
L 43.946284 145 
M 44.666079 145 
L 44.902562 137.157277 
L 45.10449 133.555736 
L 45.306417 132.440252 
L 45.912199 141.859918 
L 46.114126 143.387252 
L 46.316053 142.485704 
L 46.719908 132.05661 
L 46.921835 130.996355 
L 47.123762 130.761147 
L 47.32569 134.506391 
L 47.527617 134.506391 
L 47.729544 133.601979 
L 47.931472 134.071743 
L 48.133399 133.417789 
L 48.335326 134.024154 
L 48.537253 131.558703 
L 49.54689 127.943777 
L 49.748817 125.205443 
L 49.950744 124.849173 
L 50.152672 124.903481 
L 50.556526 121.066535 
L 50.758454 122.087146 
L 50.960381 121.814696 
L 51.162308 123.926876 
L 51.76809 117.298875 
L 51.970017 115.970747 
L 52.373872 114.684136 
L 52.575799 114.903951 
L 52.979654 118.10412 
L 53.181581 116.56407 
L 53.383508 116.728195 
L 53.787363 118.230211 
L 53.98929 116.417754 
L 54.191218 116.33703 
L 54.393145 111.386646 
L 54.595072 110.149754 
L 54.796999 109.930627 
L 54.998927 108.887205 
L 55.402781 108.826058 
L 55.604709 109.58602 
L 55.806636 108.285788 
L 56.008563 108.826058 
L 56.210491 104.491177 
L 56.614345 103.969022 
L 57.220127 100.594189 
L 57.422054 102.03275 
L 57.623982 100.416872 
L 57.825909 101.465376 
L 58.229763 98.143869 
L 58.835545 95.469773 
L 59.037473 94.982834 
L 59.2394 95.677783 
L 59.441327 94.191094 
L 59.643254 94.835213 
L 59.845182 94.083413 
L 60.047109 92.529163 
L 60.249036 92.574268 
L 60.450964 91.87072 
L 60.652891 92.843714 
L 60.854818 92.790231 
L 61.056746 91.514104 
L 61.4606 87.334772 
L 61.864455 84.121167 
L 62.066382 83.860683 
L 62.268309 83.362556 
L 62.470237 83.313355 
L 63.076018 79.832732 
L 63.6818 79.151417 
L 63.883728 79.60643 
L 64.085655 79.070481 
L 64.893364 75.127933 
L 65.095291 74.332041 
L 65.499146 71.730486 
L 65.701073 71.420064 
L 66.306855 69.630324 
L 66.71071 68.455545 
L 67.316492 65.924879 
L 67.922273 64.98582 
L 68.326128 64.443597 
L 68.528055 63.90705 
L 69.133837 61.148677 
L 69.537692 60.329536 
L 69.739619 60.226198 
L 69.941546 59.578968 
L 70.143474 59.413783 
L 70.345401 59.070878 
L 70.547328 58.098842 
L 70.749255 57.67902 
L 70.951183 56.967294 
L 71.758892 55.99033 
L 71.960819 56.220802 
L 72.162747 56.085763 
L 72.970456 54.545649 
L 73.172383 54.503804 
L 73.778165 55.265473 
L 74.182019 54.308116 
L 74.585874 53.284558 
L 74.787801 53.348309 
L 75.393583 54.208803 
L 75.797438 54.014815 
L 76.201292 54.262538 
L 76.605147 54.880202 
L 76.807074 54.986713 
L 77.009001 54.929043 
L 77.412856 54.480724 
L 77.614783 54.689993 
L 77.816711 54.58134 
L 78.018638 54.82515 
L 78.220565 54.829637 
L 78.422493 54.690734 
L 78.826347 55.081004 
L 79.028274 54.760597 
L 79.230202 54.684802 
L 79.634056 53.909838 
L 79.835984 54.035108 
L 80.643693 55.21983 
L 80.84562 55.011275 
L 81.047547 54.515172 
L 81.249475 54.436123 
L 81.451402 54.619323 
L 81.653329 54.401841 
L 81.855256 54.479992 
L 82.461038 52.444332 
L 83.268748 46.635815 
L 84.076457 34.884168 
L 84.884166 22.931045 
L 85.28802 19.221207 
L 85.489948 18.653988 
L 85.691875 18.889678 
L 85.893802 19.953433 
L 86.297657 24.37802 
L 87.913075 47.932602 
L 88.518857 52.678383 
L 88.922712 54.218887 
L 89.326566 56.244844 
L 89.730421 57.033065 
L 89.932348 57.236747 
L 90.134275 57.192609 
L 90.53813 56.595202 
L 90.941985 56.961328 
L 91.143912 57.344126 
L 91.345839 57.001854 
L 91.547766 57.295349 
L 91.749694 57.19866 
L 92.355476 56.257083 
L 92.557403 55.982302 
L 93.163185 55.753562 
L 93.567039 56.265655 
L 93.768967 56.030932 
L 94.172821 56.0257 
L 94.374749 55.705749 
L 94.576676 55.648636 
L 94.778603 55.413243 
L 94.98053 55.607403 
L 95.182458 55.487048 
L 95.384385 55.527589 
L 95.78824 55.201073 
L 96.192094 54.874951 
L 96.394021 54.309927 
L 96.595949 54.212044 
L 96.797876 54.461699 
L 97.201731 54.629294 
L 97.605585 54.734549 
L 98.00944 55.467982 
L 98.211367 55.546333 
L 98.615222 56.434755 
L 99.221003 56.386556 
L 99.422931 56.740418 
L 99.624858 57.324075 
L 99.826785 57.182672 
L 100.028713 57.845477 
L 100.432567 58.226782 
L 100.836422 59.254663 
L 101.240276 59.800491 
L 101.442204 60.154558 
L 101.846058 61.209341 
L 102.249913 61.871787 
L 102.855695 64.171798 
L 103.057622 64.226196 
L 103.259549 64.588343 
L 103.461477 65.438943 
L 103.663404 65.28154 
L 103.865331 66.158036 
L 104.067258 66.264578 
L 104.67304 69.929929 
L 104.874968 69.669214 
L 105.076895 70.251451 
L 105.278822 70.486575 
L 105.48075 70.957186 
L 105.682677 71.937918 
L 105.884604 72.232383 
L 106.288459 74.69738 
L 106.490386 75.190191 
L 107.096168 77.593715 
L 107.500022 78.81382 
L 107.70195 78.92939 
L 107.903877 79.988845 
L 108.105804 80.224078 
L 108.307732 81.965046 
L 108.711586 83.785759 
L 109.115441 87.106903 
L 109.519295 90.086174 
L 109.721223 91.106505 
L 109.92315 91.134053 
L 110.125077 91.755754 
L 110.327004 91.335182 
L 111.134714 95.879257 
L 111.336641 95.805706 
L 111.538568 96.94039 
L 111.740496 96.735199 
L 112.346277 94.611989 
L 112.548205 94.467665 
L 112.750132 95.741619 
L 112.952059 96.013417 
L 113.153987 97.004427 
L 113.355914 100.247475 
L 113.557841 101.329771 
L 113.759768 103.455706 
L 114.163623 104.74279 
L 114.567478 107.69622 
L 114.769405 106.908612 
L 114.971332 110.204998 
L 115.375187 110.138728 
L 115.577114 111.398548 
L 115.779041 110.271538 
L 115.980969 110.383044 
L 116.182896 112.776577 
L 116.384823 113.51853 
L 116.586751 112.241409 
L 116.788678 114.845044 
L 116.990605 115.111813 
L 117.192532 116.176767 
L 117.39446 119.179458 
L 117.596387 119.026863 
L 118.000242 124.849173 
L 118.404096 121.066535 
L 118.606023 121.995824 
L 118.807951 123.9782 
L 119.009878 121.04504 
L 119.211805 122.812744 
L 119.413733 122.764947 
L 119.61566 126.264127 
L 120.019514 122.434222 
L 120.221442 124.003923 
L 120.423369 124.211173 
L 120.625296 125.45672 
L 120.827224 125.094992 
L 121.433006 128.853095 
L 121.634933 128.680842 
L 121.83686 129.452716 
L 122.442642 135.991146 
L 122.644569 135.831145 
L 122.846497 134.457522 
L 123.048424 134.506391 
L 123.250351 132.526742 
L 123.452278 135.308843 
L 123.856133 142.889346 
L 124.259988 139.176437 
L 124.461915 132.877354 
L 124.663842 131.558703 
L 124.865769 131.315324 
L 125.067697 130.187521 
L 125.269624 130.996355 
L 125.875406 144.075634 
L 125.994537 145 
M 126.130875 145 
L 126.27926 143.219593 
L 126.363578 145 
M 127.039813 145 
L 127.08697 144.075634 
L 127.288897 143.219593 
L 127.404335 145 
M 127.55432 145 
L 127.692752 142.091789 
L 128.096606 142.889346 
L 128.257034 145 
M 129.440734 145 
L 129.510097 143.053635 
L 129.712024 143.900802 
L 129.807182 145 
M 131.289733 145 
L 131.327443 142.091789 
L 131.52937 137.68369 
L 131.731297 136.815522 
L 131.933225 136.591592 
L 132.135152 139.97725 
L 132.230878 145 
M 135.577778 145 
L 135.97177 139.517441 
L 135.97177 139.517441 
" clip-path="url(#p8b760026a8)" style="fill: none; stroke: #b58b31; stroke-width: 1.5; stroke-linecap: square"/>
   </g>
   <g id="line2d_40">
    <path d="M 35.815802 145 
L 35.815834 139.035836 
L 36.017761 139.035836 
L 36.219689 127.705194 
L 36.219782 145 
M 36.825342 145 
L 36.825471 121.077193 
L 36.825599 145 
M 37.229196 145 
L 37.229325 121.077193 
L 37.431252 121.077193 
L 37.633212 145 
M 38.440857 145 
L 38.440889 139.035836 
L 38.642816 139.035836 
L 38.844743 116.374551 
L 38.844898 145 
M 39.248566 145 
L 39.248598 139.035836 
L 39.450525 121.077193 
L 39.652485 145 
M 40.662057 145 
L 40.662089 139.035836 
L 40.662121 145 
M 41.267778 145 
L 41.267871 127.705194 
L 41.267964 145 
M 41.671693 145 
L 41.671726 139.035836 
L 41.873653 139.035836 
L 42.07558 116.374551 
L 42.277507 139.035836 
L 42.883289 139.035836 
L 43.287144 116.374551 
L 43.489071 112.726899 
L 43.690998 139.035836 
L 43.892926 139.035836 
L 44.094853 103.118549 
L 44.29678 139.035836 
L 44.498708 127.705194 
L 44.498801 145 
M 44.902433 145 
L 44.902562 121.077193 
L 45.10449 139.035836 
L 45.306417 121.077193 
L 45.306546 145 
M 45.710178 145 
L 45.710271 127.705194 
L 45.912199 112.726899 
L 46.114126 139.035836 
L 46.316053 121.077193 
L 46.517981 139.035836 
L 46.719908 116.374551 
L 46.921835 121.077193 
L 47.123762 112.726899 
L 47.527617 121.077193 
L 47.729544 112.726899 
L 47.931472 112.726899 
L 48.133399 127.705194 
L 48.335326 116.374551 
L 48.537253 127.705194 
L 48.739181 121.077193 
L 48.941108 121.077193 
L 49.143035 139.035836 
L 49.344963 105.043909 
L 49.54689 127.705194 
L 49.950744 107.226701 
L 50.354599 127.705194 
L 50.556526 103.118549 
L 50.758454 107.226701 
L 50.960381 105.043909 
L 51.364236 112.726899 
L 51.566163 98.415908 
L 51.970017 105.043909 
L 52.171945 101.396257 
L 52.373872 107.226701 
L 52.575799 107.226701 
L 52.777727 103.118549 
L 52.979654 121.077193 
L 53.181581 98.415908 
L 53.383508 116.374551 
L 53.585436 107.226701 
L 53.787363 107.226701 
L 53.98929 105.043909 
L 54.191218 99.838253 
L 54.393145 98.415908 
L 54.595072 103.118549 
L 54.796999 97.107477 
L 54.998927 103.118549 
L 55.200854 94.768256 
L 55.806636 105.043909 
L 56.008563 92.722256 
L 56.210491 91.787907 
L 56.412418 98.415908 
L 56.614345 90.904088 
L 57.0182 97.107477 
L 57.220127 92.722256 
L 57.422054 98.415908 
L 57.623982 95.896059 
L 57.825909 95.896059 
L 58.027836 90.904088 
L 58.229763 94.768256 
L 58.633618 91.787907 
L 58.835545 90.904088 
L 59.037473 85.776834 
L 59.2394 85.159906 
L 59.441327 87.085265 
L 59.643254 94.768256 
L 59.845182 87.780973 
L 60.047109 94.768256 
L 60.249036 83.437613 
L 60.652891 87.780973 
L 61.056746 82.901609 
L 61.258673 84.565416 
L 61.4606 77.176968 
L 61.662527 78.33133 
L 61.864455 81.87961 
L 62.268309 77.55277 
L 62.470237 85.776834 
L 62.672164 79.573446 
L 62.874091 78.734972 
L 63.076018 80.457264 
L 63.479873 74.134817 
L 63.6818 71.570967 
L 63.883728 75.417566 
L 64.085655 73.829263 
L 64.287582 73.829263 
L 64.489509 74.134817 
L 64.893364 67.404329 
L 65.095291 69.126622 
L 65.297219 66.606773 
L 65.499146 67.000687 
L 65.701073 66.413319 
L 65.903 64.768133 
L 66.306855 67.201262 
L 66.508782 62.959121 
L 66.71071 63.115549 
L 66.912637 64.086924 
L 67.316492 60.240324 
L 67.518419 62.498621 
L 67.720346 63.43297 
L 67.922273 60.109025 
L 68.124201 60.240324 
L 68.326128 58.024608 
L 68.528055 60.240324 
L 68.729983 58.140132 
L 68.93191 58.730329 
L 69.335764 54.239395 
L 69.537692 59.721339 
L 69.739619 56.383096 
L 69.941546 57.238019 
L 70.143474 56.487548 
L 70.345401 54.148327 
L 70.547328 53.878128 
L 70.749255 52.507973 
L 70.951183 54.702504 
L 71.15311 52.923941 
L 71.355037 53.264509 
L 71.758892 51.396607 
L 71.960819 53.967699 
L 72.162747 52.344505 
L 72.364674 53.878128 
L 72.768528 51.243833 
L 72.970456 52.26338 
L 73.172383 51.243833 
L 73.37431 49.582479 
L 73.778165 51.942847 
L 73.980092 50.868031 
L 74.182019 52.590324 
L 74.383947 51.706505 
L 74.585874 51.473532 
L 74.787801 51.942847 
L 74.989729 51.092474 
L 75.191656 52.923941 
L 75.393583 53.700446 
L 75.59551 51.550822 
L 75.797438 53.789046 
L 76.201292 52.923941 
L 76.40322 52.673092 
L 76.605147 53.878128 
L 77.009001 52.673092 
L 77.210929 54.515683 
L 77.412856 54.796722 
L 77.614783 55.27613 
L 77.816711 54.148327 
L 78.018638 53.967699 
L 78.422493 55.082677 
L 78.62442 53.700446 
L 78.826347 53.878128 
L 79.028274 55.570673 
L 79.230202 53.612323 
L 79.432129 54.796722 
L 79.634056 53.00842 
L 79.835984 54.891485 
L 80.037911 55.27613 
L 80.239838 53.350771 
L 80.441765 56.592672 
L 80.84562 54.330973 
L 81.047547 57.570505 
L 81.249475 53.437491 
L 81.451402 56.804969 
L 81.653329 57.682853 
L 82.057184 53.967699 
L 82.259111 53.350771 
L 82.461038 51.942847 
L 82.662966 51.942847 
L 83.268748 45.527835 
L 83.470675 45.474327 
L 84.480311 33.905043 
L 84.682239 34.331733 
L 84.884166 30.199582 
L 85.086093 29.222155 
L 85.691875 23.775697 
L 85.893802 26.215473 
L 86.09573 26.886888 
L 86.297657 29.301412 
L 86.499584 30.157667 
L 88.115002 47.702972 
L 88.518857 50.28416 
L 88.922712 53.178699 
L 89.124639 53.700446 
L 89.326566 53.789046 
L 89.528494 55.471901 
L 89.730421 54.423068 
L 89.932348 54.608827 
L 90.134275 56.073687 
L 90.336203 56.487548 
L 90.53813 56.383096 
L 90.740057 54.986801 
L 90.941985 55.471901 
L 91.143912 57.02006 
L 91.345839 56.487548 
L 91.749694 57.795979 
L 92.153548 52.756281 
L 92.355476 55.082677 
L 92.557403 54.057764 
L 92.75933 53.878128 
L 92.961257 54.796722 
L 93.163185 57.909894 
L 93.365112 53.789046 
L 93.567039 53.350771 
L 93.768967 54.608827 
L 93.970894 53.264509 
L 94.172821 53.178699 
L 94.576676 54.608827 
L 94.778603 53.437491 
L 94.98053 53.967699 
L 95.182458 53.350771 
L 95.384385 54.239395 
L 95.586312 52.102328 
L 95.78824 55.770025 
L 95.990167 53.264509 
L 96.192094 54.148327 
L 96.394021 52.507973 
L 96.595949 56.804969 
L 96.797876 51.863686 
L 96.999803 52.756281 
L 97.201731 52.590324 
L 97.403658 54.239395 
L 97.605585 53.789046 
L 97.807512 54.057764 
L 98.00944 52.839896 
L 98.211367 53.437491 
L 98.413294 52.182655 
L 98.615222 52.182655 
L 98.817149 53.700446 
L 99.019076 51.550822 
L 99.624858 55.27613 
L 99.826785 55.179117 
L 100.028713 56.592672 
L 100.23064 54.057764 
L 100.432567 56.176174 
L 100.836422 52.590324 
L 101.240276 56.804969 
L 101.442204 58.256479 
L 101.846058 55.471901 
L 102.047986 58.491687 
L 102.249913 56.912161 
L 102.45184 58.256479 
L 102.653767 60.913121 
L 102.855695 59.342635 
L 103.259549 61.330505 
L 103.461477 60.109025 
L 103.663404 63.273489 
L 103.865331 60.372686 
L 104.067258 62.804175 
L 104.269186 63.756677 
L 104.471113 62.347959 
L 104.67304 62.959121 
L 104.874968 68.242803 
L 105.076895 63.273489 
L 105.278822 67.000687 
L 105.48075 65.298342 
L 105.884604 69.35525 
L 106.086531 66.413319 
L 106.288459 68.459319 
L 106.490386 73.234774 
L 106.692313 71.836772 
L 106.894241 67.60995 
L 107.298095 76.098776 
L 107.500022 71.570967 
L 107.70195 73.234774 
L 107.903877 77.176968 
L 108.105804 75.417566 
L 108.307732 76.809612 
L 108.509659 80.917764 
L 108.711586 74.134817 
L 108.913513 76.098776 
L 109.115441 85.159906 
L 109.519295 77.937415 
L 109.721223 81.391614 
L 109.92315 79.573446 
L 110.125077 80.009383 
L 110.528932 86.417962 
L 110.730859 82.901609 
L 110.932786 88.507611 
L 111.336641 83.437613 
L 111.740496 85.776834 
L 111.942423 90.065614 
L 112.14435 97.107477 
L 112.346277 87.780973 
L 112.548205 87.780973 
L 112.750132 98.415908 
L 112.952059 90.904088 
L 113.153987 90.065614 
L 113.355914 94.768256 
L 113.557841 91.787907 
L 113.759768 93.713266 
L 113.961696 87.780973 
L 114.163623 103.118549 
L 114.567478 91.787907 
L 114.971332 95.896059 
L 115.173259 99.838253 
L 115.375187 99.838253 
L 115.577114 97.107477 
L 115.779041 105.043909 
L 115.980969 97.107477 
L 116.182896 109.74655 
L 116.384823 103.118549 
L 116.586751 127.705194 
L 116.788678 99.838253 
L 116.990605 99.838253 
L 117.192532 105.043909 
L 117.39446 107.226701 
L 117.798314 98.415908 
L 118.000242 98.415908 
L 118.202169 99.838253 
L 118.404096 109.74655 
L 118.606023 109.74655 
L 118.807951 99.838253 
L 119.211805 109.74655 
L 119.413733 105.043909 
L 119.61566 116.374551 
L 119.817587 109.74655 
L 120.019514 116.374551 
L 120.221442 97.107477 
L 120.423369 112.726899 
L 120.827224 107.226701 
L 121.231078 116.374551 
L 121.433006 116.374551 
L 121.634933 109.74655 
L 121.83686 107.226701 
L 122.644569 139.035836 
L 122.846497 121.077193 
L 123.048424 116.374551 
L 123.250351 139.035836 
L 123.452278 139.035836 
L 123.856133 121.077193 
L 124.05806 112.726899 
L 124.461915 139.035836 
L 124.663842 139.035836 
L 124.865769 127.705194 
L 125.067697 127.705194 
L 125.06779 145 
M 125.471519 145 
L 125.471551 139.035836 
L 125.875406 116.374551 
L 126.27926 139.035836 
L 126.481188 127.705194 
L 126.481281 145 
M 126.884913 145 
L 126.885042 121.077193 
L 127.08697 139.035836 
L 127.288897 127.705194 
L 127.490824 127.705194 
L 127.490917 145 
M 127.894647 145 
L 127.894679 139.035836 
L 127.894711 145 
M 128.29844 145 
L 128.298533 127.705194 
L 128.298627 145 
M 128.904222 145 
L 128.904315 127.705194 
L 129.106243 139.035836 
L 129.30817 127.705194 
L 129.308263 145 
M 130.317774 145 
L 130.317806 139.035836 
L 130.519734 127.705194 
L 130.721693 145 
M 131.125483 145 
L 131.125515 139.035836 
L 131.125548 145 
M 131.529277 145 
L 131.52937 127.705194 
L 131.731297 139.035836 
L 131.933225 139.035836 
L 131.933257 145 
M 132.740902 145 
L 132.740934 139.035836 
L 132.740966 145 
M 133.144695 145 
L 133.144788 127.705194 
L 133.346716 127.705194 
L 133.548643 139.035836 
L 133.75057 127.705194 
L 133.952498 127.705194 
L 133.952591 145 
M 134.35632 145 
L 134.356352 139.035836 
L 134.356384 145 
M 134.962102 145 
L 134.962134 139.035836 
L 134.962166 145 
M 135.567884 145 
L 135.567916 139.035836 
L 135.567948 145 
M 135.971642 145 
L 135.97177 121.077193 
L 135.97177 121.077193 
" clip-path="url(#p8b760026a8)" style="fill: none; stroke: #7e1700; stroke-opacity: 0.1; stroke-width: 1.5; stroke-linecap: square"/>
   </g>
   <g id="line2d_41">
    <path d="M 36.086002 145 
L 36.825471 130.604013 
L 37.229325 128.224179 
L 37.431252 132.339866 
L 37.7255 145 
M 38.291129 145 
L 38.844743 128.979605 
L 39.046671 128.705785 
L 39.248598 131.675276 
L 39.450525 136.662595 
L 39.573377 145 
M 41.208197 145 
L 41.267871 141.218629 
L 41.671726 131.675276 
L 41.873653 130.665122 
L 42.07558 132.821697 
L 42.277507 133.032624 
L 42.479435 134.904996 
L 42.681362 128.979605 
L 42.883289 127.152719 
L 43.085217 127.910815 
L 43.287144 120.70681 
L 43.690998 116.867192 
L 44.29678 125.287832 
L 44.498708 123.416414 
L 44.700635 128.924473 
L 44.88474 145 
M 44.920611 145 
L 45.10449 129.146126 
L 45.306417 128.489984 
L 45.508344 124.724845 
L 45.710271 127.552658 
L 45.912199 124.982278 
L 46.114126 125.689271 
L 46.316053 122.023566 
L 46.517981 121.213986 
L 46.719908 121.456163 
L 47.123762 115.748166 
L 47.32569 115.003369 
L 47.729544 116.34903 
L 47.931472 118.383133 
L 48.133399 118.354277 
L 48.335326 123.221111 
L 48.941108 120.70681 
L 49.344963 114.654813 
L 49.54689 116.171485 
L 49.950744 113.203754 
L 50.152672 112.584488 
L 50.354599 108.851981 
L 50.556526 110.021291 
L 50.758454 108.916592 
L 50.960381 105.815306 
L 51.162308 104.702683 
L 51.364236 104.516146 
L 51.566163 103.28972 
L 51.76809 103.32417 
L 51.970017 102.106185 
L 52.373872 105.668698 
L 53.181581 108.126745 
L 53.383508 107.973254 
L 54.191218 101.345253 
L 54.796999 98.28025 
L 54.998927 99.978169 
L 55.200854 100.338075 
L 55.402781 98.526965 
L 55.604709 98.74268 
L 56.008563 95.866894 
L 56.412418 93.111481 
L 56.614345 93.235039 
L 57.0182 95.613901 
L 57.220127 95.036071 
L 57.422054 95.815981 
L 57.825909 94.377909 
L 58.027836 94.491359 
L 59.037473 87.455524 
L 59.2394 88.465869 
L 59.441327 88.69913 
L 59.643254 88.582083 
L 59.845182 89.18072 
L 60.047109 88.750897 
L 60.450964 86.239131 
L 60.652891 85.197789 
L 60.854818 82.934599 
L 61.056746 82.465846 
L 61.4606 79.357107 
L 61.662527 79.396955 
L 62.066382 79.659708 
L 62.268309 80.941133 
L 62.470237 80.871126 
L 62.672164 80.226192 
L 63.479873 74.493414 
L 63.6818 74.073248 
L 63.883728 73.958427 
L 64.287582 72.972353 
L 64.893364 68.933368 
L 65.297219 66.515806 
L 65.499146 66.622592 
L 65.701073 66.447009 
L 65.903 65.632943 
L 66.306855 64.963852 
L 66.912637 62.655459 
L 67.114564 62.22284 
L 67.316492 62.333906 
L 67.720346 60.950941 
L 68.326128 59.428649 
L 68.528055 57.959982 
L 68.729983 57.679331 
L 68.93191 57.139577 
L 69.335764 56.782281 
L 69.537692 56.786283 
L 69.739619 56.625002 
L 70.143474 55.537271 
L 70.345401 54.313763 
L 70.749255 53.506654 
L 70.951183 52.95768 
L 71.15311 52.984088 
L 71.355037 52.73076 
L 71.960819 52.805353 
L 72.162747 52.802217 
L 72.364674 52.923941 
L 72.566601 52.478735 
L 72.768528 51.5799 
L 72.970456 51.304294 
L 73.172383 50.750038 
L 73.37431 50.830459 
L 74.182019 51.783924 
L 74.383947 51.648437 
L 74.787801 51.979589 
L 74.989729 52.059314 
L 75.393583 52.842516 
L 75.59551 52.928681 
L 75.797438 53.169608 
L 76.201292 52.982502 
L 76.40322 53.180304 
L 76.605147 53.08589 
L 77.210929 54.228554 
L 77.412856 54.29829 
L 77.614783 54.697221 
L 77.816711 54.75838 
L 78.018638 54.312043 
L 78.220565 54.360847 
L 78.422493 54.251957 
L 78.62442 54.525555 
L 79.028274 54.122239 
L 79.230202 54.27997 
L 79.432129 54.182987 
L 80.037911 54.580245 
L 80.239838 55.106132 
L 80.441765 55.23301 
L 80.643693 55.065858 
L 81.047547 56.055179 
L 81.249475 55.899656 
L 81.451402 56.051353 
L 81.855256 54.893267 
L 82.057184 54.313763 
L 83.06682 47.395931 
L 85.28802 26.268802 
L 85.489948 25.513638 
L 85.691875 25.615669 
L 85.893802 26.129464 
L 86.297657 29.467984 
L 88.115002 48.891154 
L 88.720784 52.223977 
L 89.124639 54.049863 
L 89.932348 55.581822 
L 90.336203 55.726208 
L 91.143912 56.802298 
L 91.547766 56.381795 
L 91.951621 54.9355 
L 92.153548 54.169342 
L 92.355476 54.198921 
L 92.75933 54.766042 
L 92.961257 55.089289 
L 93.970894 53.455434 
L 94.172821 53.868082 
L 94.374749 53.82629 
L 94.576676 53.935173 
L 94.778603 53.716469 
L 94.98053 53.802377 
L 95.182458 53.626061 
L 95.384385 53.764633 
L 95.586312 53.529045 
L 95.78824 53.947503 
L 95.990167 54.054942 
L 96.394021 53.712047 
L 96.595949 53.211361 
L 97.201731 53.388654 
L 97.403658 53.256982 
L 97.605585 53.759089 
L 97.807512 53.392989 
L 98.00944 53.330782 
L 98.413294 52.519785 
L 98.615222 52.32114 
L 99.019076 52.835182 
L 99.422931 54.203477 
L 99.826785 55.720583 
L 100.028713 55.408018 
L 100.432567 54.449063 
L 100.634495 54.642723 
L 101.240276 55.928744 
L 101.644131 57.123909 
L 102.047986 57.522989 
L 102.249913 57.962849 
L 102.653767 59.606804 
L 103.057622 60.772923 
L 103.259549 60.915697 
L 103.461477 61.25932 
L 103.663404 61.897747 
L 103.865331 61.852218 
L 104.269186 63.172626 
L 104.471113 63.692438 
L 104.67304 64.556481 
L 104.874968 64.758354 
L 105.278822 66.433765 
L 105.48075 66.491634 
L 105.682677 66.825948 
L 105.884604 68.666319 
L 106.086531 68.838289 
L 106.490386 70.309249 
L 107.096168 72.264382 
L 107.298095 72.594348 
L 107.500022 73.646764 
L 107.70195 75.735478 
L 107.903877 75.85711 
L 108.105804 75.627411 
L 108.509659 77.942281 
L 108.711586 78.093844 
L 108.913513 79.083473 
L 109.115441 79.498338 
L 109.317368 79.61652 
L 109.519295 80.574037 
L 109.721223 80.781142 
L 109.92315 80.254198 
L 110.528932 84.337143 
L 110.730859 85.254779 
L 110.932786 85.190206 
L 111.134714 84.664232 
L 111.538568 87.051245 
L 111.740496 86.983417 
L 112.14435 91.071637 
L 112.548205 91.964814 
L 112.750132 91.512126 
L 112.952059 92.062647 
L 113.355914 92.201769 
L 113.557841 92.347957 
L 113.759768 93.668629 
L 113.961696 93.990171 
L 114.163623 93.694121 
L 114.769405 96.33239 
L 114.971332 96.14608 
L 115.173259 97.321058 
L 115.375187 99.708738 
L 115.577114 99.996915 
L 115.980969 104.173539 
L 116.384823 105.523393 
L 116.586751 105.24953 
L 116.788678 106.401368 
L 117.39446 100.414865 
L 117.798314 102.095518 
L 118.000242 101.550229 
L 118.202169 101.674461 
L 118.807951 106.263188 
L 119.009878 106.582767 
L 119.211805 108.64374 
L 119.413733 108.344083 
L 119.61566 109.56031 
L 120.221442 107.270546 
L 120.423369 106.752018 
L 121.029151 113.760107 
L 121.231078 111.336938 
L 121.433006 111.697471 
L 121.83686 114.956463 
L 122.442642 125.068998 
L 122.644569 129.484344 
L 122.846497 129.427486 
L 123.048424 129.946472 
L 123.250351 124.982278 
L 123.452278 123.143638 
L 123.856133 124.810206 
L 124.05806 123.455756 
L 124.259988 123.693818 
L 124.461915 127.756357 
L 124.865769 144.434185 
L 125.269624 130.123194 
L 125.471551 129.202012 
L 125.673479 127.401532 
L 125.875406 128.651567 
L 126.077333 126.428229 
L 126.481188 132.476089 
L 126.683115 132.962012 
L 127.08697 130.665122 
L 127.288897 135.144805 
L 127.490824 134.130128 
L 127.887662 145 
M 128.381546 145 
L 128.500461 138.732174 
L 128.904315 136.929849 
L 129.106243 140.986757 
L 129.30817 142.304784 
L 129.365107 145 
M 130.23281 145 
L 130.317806 140.645003 
L 130.519734 142.180474 
L 130.721661 140.310247 
L 130.923588 140.200168 
L 131.125515 140.758129 
L 131.327443 142.057103 
L 131.52937 140.532654 
L 131.846306 145 
M 132.768025 145 
L 133.144788 131.740532 
L 133.346716 130.72646 
L 133.548643 130.72646 
L 133.75057 131.740532 
L 134.154425 143.202474 
L 134.244845 145 
M 135.497124 145 
L 135.769843 134.296085 
L 135.97177 128.233769 
L 135.97177 128.233769 
" clip-path="url(#p8b760026a8)" style="fill: none; stroke: #7e1700; stroke-width: 1.5; stroke-linecap: square"/>
   </g>
   <g id="patch_3">
    <path d="M 30.38399 118.497104 
L 30.38399 5.578365 
" style="fill: none; stroke: #000000; stroke-width: 0.8; stroke-linejoin: miter; stroke-linecap: square"/>
   </g>
   <g id="patch_4">
    <path d="M 30.38399 118.497104 
L 140.99976 118.497104 
" style="fill: none; stroke: #000000; stroke-width: 0.8; stroke-linejoin: miter; stroke-linecap: square"/>
   </g>
  </g>
 </g>
 <defs>
  <clipPath id="p8b760026a8">
   <rect x="30.38399" y="5.578365" width="110.61577" height="112.918739"/>
  </clipPath>
 </defs>
</svg>
